<?xml version="1.0" encoding="UTF-8" standalone="no"?>
<!-- Created with Inkscape (http://www.inkscape.org/) -->

<svg
   width="6.2220984mm"
   height="10.900001mm"
   viewBox="0 0 6.2220984 10.900001"
   version="1.1"
   id="svg5"
   xml:space="preserve"
   inkscape:version="1.2.2 (732a01da63, 2022-12-09)"
   sodipodi:docname="ac.svg"
   xmlns:inkscape="http://www.inkscape.org/namespaces/inkscape"
   xmlns:sodipodi="http://sodipodi.sourceforge.net/DTD/sodipodi-0.dtd"
   xmlns="http://www.w3.org/2000/svg"
   xmlns:svg="http://www.w3.org/2000/svg"><sodipodi:namedview
     id="namedview7"
     pagecolor="#505050"
     bordercolor="#eeeeee"
     borderopacity="1"
     inkscape:showpageshadow="0"
     inkscape:pageopacity="0"
     inkscape:pagecheckerboard="0"
     inkscape:deskcolor="#505050"
     inkscape:document-units="mm"
     showgrid="false"
     inkscape:zoom="2"
     inkscape:cx="88"
     inkscape:cy="32.25"
     inkscape:window-width="1920"
     inkscape:window-height="1111"
     inkscape:window-x="-9"
     inkscape:window-y="-9"
     inkscape:window-maximized="1"
     inkscape:current-layer="layer1"
     showguides="true"><inkscape:grid
       type="xygrid"
       id="grid331"
       originx="-37.436313"
       originy="-120.48146" /></sodipodi:namedview><defs
     id="defs2" /><g
     inkscape:label="Capa 1"
     inkscape:groupmode="layer"
     id="layer1"
     transform="translate(-37.436313,-120.48145)"><g
       id="g365"
       transform="matrix(0.08474655,0,0,0.08474655,39.331991,118.69472)"
       style="fill:#000000"><path
         style="fill:#000000;fill-opacity:1;stroke-width:0.251485"
         d="m -14.265141,93.291362 c 3.561658,-0.03936 9.389826,-0.03936 12.9514842,0 3.5616583,0.03936 0.64757427,0.07155 -6.4757422,0.07155 -7.123317,0 -10.037401,-0.0322 -6.475742,-0.07155 z"
         id="path371" /><path
         style="fill:#000000;fill-opacity:1;stroke-width:0.251485"
         d="m 29.636531,67.136877 c 3.502134,-0.03946 9.16055,-0.03942 12.574257,8.3e-5 3.413707,0.0395 0.548325,0.07179 -6.367516,0.07174 -6.915841,-4.5e-5 -9.708875,-0.03237 -6.206741,-0.07183 z"
         id="path369" /><path
         style="fill:#000000;fill-opacity:1;stroke-width:0.251485"
         d="m -11.184448,149.58289 c -0.909434,-0.38701 -1.497851,-1.27249 -1.490191,-2.2425 0.0042,-0.53533 3.7778704,-12.03527 8.9848777,-27.38085 4.9376743,-14.55183 8.9775894,-26.51938 8.9775894,-26.594556 0,-0.07518 -5.98970703,-0.136685 -13.3104595,-0.136685 H -21.333091 l -0.521223,-0.662628 c -0.313878,-0.399034 -0.518514,-1.024291 -0.514413,-1.571782 0.01021,-1.363666 32.0259207,-68.544553 33.018925,-69.286014 0.703635,-0.525395 0.861558,-0.530667 17.914212,-0.598028 18.688097,-0.07382 18.445796,-0.09013 19.358314,1.302555 0.256807,0.391935 0.385085,0.971509 0.324703,1.467045 -0.06122,0.502432 -4.885089,9.003699 -12.476241,21.987305 -6.807036,11.642485 -12.376428,21.233499 -12.376428,21.313366 0,0.07987 5.779023,0.145212 12.842275,0.145212 8.963073,0 13.008202,0.08486 13.391583,0.280919 0.921962,0.471497 1.418067,1.294346 1.422667,2.359675 0.0041,0.948851 -1.666386,3.211023 -29.434608,39.860396 -16.1914229,21.36995 -29.6875412,39.04232 -29.991373,39.27193 -0.6861596,0.51854 -2.140591,0.76941 -2.80975,0.48464 z"
         id="path367" /></g><path
       style="fill:#000000;stroke-width:0.279121"
       id="path345"
       d="" /></g></svg>
