<?xml version="1.0" encoding="UTF-8" standalone="no"?>
<!-- Created with Inkscape (http://www.inkscape.org/) -->

<svg
   width="12.000002mm"
   height="41.899979mm"
   viewBox="0 0 12.000002 41.899979"
   version="1.1"
   id="svg5"
   xml:space="preserve"
   inkscape:version="1.2.2 (732a01da63, 2022-12-09)"
   sodipodi:docname="folder and ac.svg"
   xmlns:inkscape="http://www.inkscape.org/namespaces/inkscape"
   xmlns:sodipodi="http://sodipodi.sourceforge.net/DTD/sodipodi-0.dtd"
   xmlns="http://www.w3.org/2000/svg"
   xmlns:svg="http://www.w3.org/2000/svg"><sodipodi:namedview
     id="namedview7"
     pagecolor="#505050"
     bordercolor="#eeeeee"
     borderopacity="1"
     inkscape:showpageshadow="0"
     inkscape:pageopacity="0"
     inkscape:pagecheckerboard="0"
     inkscape:deskcolor="#505050"
     inkscape:document-units="mm"
     showgrid="false"
     inkscape:zoom="2"
     inkscape:cx="99"
     inkscape:cy="109.25"
     inkscape:window-width="1920"
     inkscape:window-height="1111"
     inkscape:window-x="-9"
     inkscape:window-y="-9"
     inkscape:window-maximized="1"
     inkscape:current-layer="layer1"
     showguides="true"><inkscape:grid
       type="xygrid"
       id="grid331"
       originx="-34.547361"
       originy="-89.481474" /></sodipodi:namedview><defs
     id="defs2" /><g
     inkscape:label="Capa 1"
     inkscape:groupmode="layer"
     id="layer1"
     transform="translate(-34.547362,-89.481472)"><g
       id="g365"
       transform="matrix(0.08474655,0,0,0.08474655,39.331991,118.69472)"
       style="fill:#000000"><path
         style="fill:#000000;fill-opacity:1;stroke-width:0.251485"
         d="m -14.265141,93.291362 c 3.561658,-0.03936 9.389826,-0.03936 12.9514842,0 3.5616583,0.03936 0.64757427,0.07155 -6.4757422,0.07155 -7.123317,0 -10.037401,-0.0322 -6.475742,-0.07155 z"
         id="path371" /><path
         style="fill:#000000;fill-opacity:1;stroke-width:0.251485"
         d="m 29.636531,67.136877 c 3.502134,-0.03946 9.16055,-0.03942 12.574257,8.3e-5 3.413707,0.0395 0.548325,0.07179 -6.367516,0.07174 -6.915841,-4.5e-5 -9.708875,-0.03237 -6.206741,-0.07183 z"
         id="path369" /><path
         style="fill:#000000;fill-opacity:1;stroke-width:0.251485"
         d="m -11.184448,149.58289 c -0.909434,-0.38701 -1.497851,-1.27249 -1.490191,-2.2425 0.0042,-0.53533 3.7778704,-12.03527 8.9848777,-27.38085 4.9376743,-14.55183 8.9775894,-26.51938 8.9775894,-26.594556 0,-0.07518 -5.98970703,-0.136685 -13.3104595,-0.136685 H -21.333091 l -0.521223,-0.662628 c -0.313878,-0.399034 -0.518514,-1.024291 -0.514413,-1.571782 0.01021,-1.363666 32.0259207,-68.544553 33.018925,-69.286014 0.703635,-0.525395 0.861558,-0.530667 17.914212,-0.598028 18.688097,-0.07382 18.445796,-0.09013 19.358314,1.302555 0.256807,0.391935 0.385085,0.971509 0.324703,1.467045 -0.06122,0.502432 -4.885089,9.003699 -12.476241,21.987305 -6.807036,11.642485 -12.376428,21.233499 -12.376428,21.313366 0,0.07987 5.779023,0.145212 12.842275,0.145212 8.963073,0 13.008202,0.08486 13.391583,0.280919 0.921962,0.471497 1.418067,1.294346 1.422667,2.359675 0.0041,0.948851 -1.666386,3.211023 -29.434608,39.860396 -16.1914229,21.36995 -29.6875412,39.04232 -29.991373,39.27193 -0.6861596,0.51854 -2.140591,0.76941 -2.80975,0.48464 z"
         id="path367" /></g><g
       id="g329"
       transform="translate(4.0007903,-2.4620248)"
       style="fill:#000000"><path
         style="fill:#000000;stroke-width:0.0234453"
         d="m 31.068848,110.3058 c -0.164313,-0.0568 -0.301475,-0.15559 -0.38551,-0.27773 -0.14927,-0.21695 -0.237106,0.0125 0.941808,-2.45977 0.582599,-1.22174 1.083458,-2.25895 1.113019,-2.30493 0.06623,-0.10299 0.230208,-0.25932 0.339945,-0.32408 0.04513,-0.0266 0.145361,-0.0678 0.22273,-0.0915 0.13428,-0.0412 0.32818,-0.0431 4.267038,-0.0431 h 4.126366 l 0.166492,0.0524 c 0.473324,0.14887 0.764018,0.6234 0.667301,1.08929 -0.04143,0.19957 -1.90687,3.93066 -2.040452,4.08114 -0.117538,0.1324 -0.254903,0.21737 -0.449161,0.27783 -0.136899,0.0426 -0.295933,0.0441 -4.494789,0.0434 -4.126791,-7.2e-4 -4.3592,-0.003 -4.474787,-0.0429 z m -0.521887,-5.35035 c -0.001,-3.6126 -0.0093,-3.40831 0.146933,-3.6132 0.101729,-0.13337 0.235746,-0.22427 0.391947,-0.26584 0.192308,-0.0512 3.045195,-0.051 3.241751,1.7e-4 0.262831,0.0685 0.300051,0.1075 0.883268,0.92637 l 0.308918,0.43373 2.290094,0.0117 c 2.285356,0.0117 2.290321,0.0118 2.399716,0.0624 0.146887,0.0679 0.301465,0.21427 0.371929,0.35221 0.05586,0.10935 0.05792,0.13094 0.06506,0.68147 l 0.0074,0.56855 -3.735167,4.7e-4 c -2.382147,2.6e-4 -3.794616,0.009 -3.899283,0.0241 -0.367558,0.0529 -0.627538,0.25326 -0.807376,0.62219 -0.05603,0.11495 -0.438622,0.91507 -0.850196,1.77803 -0.411574,0.86296 -0.763101,1.59621 -0.781171,1.62945 -0.02831,0.0521 -0.03299,-0.39205 -0.03379,-3.2118 z"
         id="path179"
         inkscape:export-filename="path179.png"
         inkscape:export-xdpi="96"
         inkscape:export-ydpi="96" /><path
         style="fill:#000000;stroke-width:0.0234591"
         d="m 36.311981,119.39608 c -0.08233,-0.037 -0.713929,-0.65523 -2.869395,-2.80872 -1.520106,-1.51871 -2.789494,-2.80438 -2.820863,-2.85703 -0.130042,-0.21829 -0.08844,-0.4973 0.102507,-0.68743 0.0668,-0.0665 0.147999,-0.12085 0.206607,-0.13826 0.07489,-0.0222 1.335347,-0.0287 5.615737,-0.0287 4.280387,0 5.540849,0.006 5.615733,0.0287 0.05861,0.0174 0.139811,0.0717 0.206609,0.13826 0.190941,0.19013 0.232548,0.46914 0.102505,0.68743 -0.03137,0.0527 -1.300755,1.33832 -2.820862,2.85703 -2.155465,2.15349 -2.787064,2.77174 -2.869396,2.80872 -0.06465,0.029 -0.155574,0.0474 -0.234589,0.0474 -0.07902,0 -0.169943,-0.0184 -0.234593,-0.0474 z"
         id="path189" /><path
         style="fill:#000000;stroke-width:0.0234591"
         d="m 36.311982,91.990917 c -0.08233,0.03698 -0.713929,0.655224 -2.869395,2.808714 -1.520106,1.518715 -2.789494,2.80438 -2.820863,2.857035 -0.130042,0.218285 -0.08844,0.497296 0.102507,0.687428 0.0668,0.06651 0.147999,0.12085 0.206607,0.138255 0.07489,0.02224 1.335347,0.02868 5.615737,0.02868 4.280387,0 5.540848,-0.0064 5.615733,-0.02868 0.05861,-0.0174 0.139811,-0.07174 0.206609,-0.138255 0.190941,-0.190132 0.232548,-0.469143 0.102505,-0.687428 -0.03137,-0.05266 -1.300755,-1.33832 -2.820862,-2.857035 -2.155466,-2.15349 -2.787065,-2.771735 -2.869396,-2.808714 -0.06465,-0.02903 -0.155574,-0.04742 -0.234589,-0.04742 -0.07902,0 -0.169943,0.01838 -0.234593,0.04742 z"
         id="path189-3" /></g><path
       style="fill:#000000;stroke-width:0.279121"
       id="path345"
       d="" /></g></svg>
