  0
SECTION
  2
HEADER
  9
$ACADVER
  1
AC1014
  9
$HANDSEED
  5
FFFF
  9
$INSUNITS
 70
     4
  9
$MEASUREMENT
 70
     1
  0
ENDSEC
  0
SECTION
  2
TABLES
  0
TABLE
  2
VPORT
  5
8
330
0
100
AcDbSymbolTable
 70
     4
  0
VPORT
  5
2E
330
8
100
AcDbSymbolTableRecord
100
AcDbViewportTableRecord
  2
*ACTIVE
 70
     0
 10
0.0
 20
0.0
 11
1.0
 21
1.0
 12
210.0
 22
148.5
 13
0.0
 23
0.0
 14
10.0
 24
10.0
 15
10.0
 25
10.0
 16
0.0
 26
0.0
 36
1.0
 17
0.0
 27
0.0
 37
0.0
 40
341.0
 41
1.24
 42
50.0
 43
0.0
 44
0.0
 50
0.0
 51
0.0
 71
     0
 72
   100
 73
     1
 74
     3
 75
     0
 76
     0
 77
     0
 78
     0
  0
ENDTAB
  0
TABLE
  2
LTYPE
  5
5
330
0
100
AcDbSymbolTable
 70
     1
  0
LTYPE
  5
14
330
5
100
AcDbSymbolTableRecord
100
AcDbLinetypeTableRecord
  2
BYBLOCK
 70
     0
  3

 72
    65
 73
     0
 40
0.0
  0
LTYPE
  5
15
330
5
100
AcDbSymbolTableRecord
100
AcDbLinetypeTableRecord
  2
BYLAYER
 70
     0
  3

 72
    65
 73
     0
 40
0.0
  0
LTYPE
  5
16
330
5
100
AcDbSymbolTableRecord
100
AcDbLinetypeTableRecord
  2
CONTINUOUS
 70
     0
  3
Solid line
 72
    65
 73
     0
 40
0.0
  0
ENDTAB
  0
TABLE
  2
LAYER
  5
2
100
AcDbSymbolTable
 70
2
  0
LAYER
  5
50
100
AcDbSymbolTableRecord
100
AcDbLayerTableRecord
  2
0
 70
0
  6
CONTINUOUS
  0
LAYER
  5
51
100
AcDbSymbolTableRecord
100
AcDbLayerTableRecord
  2
Capa_1
 70
0
  6
CONTINUOUS
  0
ENDTAB
  0
TABLE
  2
STYLE
  5
3
330
0
100
AcDbSymbolTable
 70
     1
  0
STYLE
  5
11
330
3
100
AcDbSymbolTableRecord
100
AcDbTextStyleTableRecord
  2
STANDARD
 70
     0
 40
0.0
 41
1.0
 50
0.0
 71
     0
 42
2.5
  3
txt
  4

  0
ENDTAB
  0
TABLE
  2
VIEW
  5
6
330
0
100
AcDbSymbolTable
 70
     0
  0
ENDTAB
  0
TABLE
  2
UCS
  5
7
330
0
100
AcDbSymbolTable
 70
     0
  0
ENDTAB
  0
TABLE
  2
APPID
  5
9
330
0
100
AcDbSymbolTable
 70
     2
  0
APPID
  5
12
330
9
100
AcDbSymbolTableRecord
100
AcDbRegAppTableRecord
  2
ACAD
 70
     0
  0
ENDTAB
  0
TABLE
  2
DIMSTYLE
  5
A
330
0
100
AcDbSymbolTable
 70
     1
  0
DIMSTYLE
105
27
330
A
100
AcDbSymbolTableRecord
100
AcDbDimStyleTableRecord
  2
ISO-25
 70
     0
  3

  4

  5

  6

  7

 40
1.0
 41
2.5
 42
0.625
 43
3.75
 44
1.25
 45
0.0
 46
0.0
 47
0.0
 48
0.0
140
2.5
141
2.5
142
0.0
143
0.03937007874016
144
1.0
145
0.0
146
1.0
147
0.625
 71
     0
 72
     0
 73
     0
 74
     0
 75
     0
 76
     0
 77
     1
 78
     8
170
     0
171
     3
172
     1
173
     0
174
     0
175
     0
176
     0
177
     0
178
     0
270
     2
271
     2
272
     2
273
     2
274
     3
340
11
275
     0
280
     0
281
     0
282
     0
283
     0
284
     8
285
     0
286
     0
287
     3
288
     0
  0
ENDTAB
  0
TABLE
  2
BLOCK_RECORD
  5
1
330
0
100
AcDbSymbolTable
 70
     1
  0
BLOCK_RECORD
  5
1F
330
1
100
AcDbSymbolTableRecord
100
AcDbBlockTableRecord
  2
*MODEL_SPACE
  0
BLOCK_RECORD
  5
1B
330
1
100
AcDbSymbolTableRecord
100
AcDbBlockTableRecord
  2
*PAPER_SPACE
  0
ENDTAB
  0
ENDSEC
  0
SECTION
  2
BLOCKS
  0
BLOCK
  5
20
330
1F
100
AcDbEntity
  8
0
100
AcDbBlockBegin
  2
*MODEL_SPACE
 70
     0
 10
0.0
 20
0.0
 30
0.0
  3
*MODEL_SPACE
  1

  0
ENDBLK
  5
21
330
1F
100
AcDbEntity
  8
0
100
AcDbBlockEnd
  0
BLOCK
  5
1C
330
1B
100
AcDbEntity
 67
     1
  8
0
100
AcDbBlockBegin
  2
*PAPER_SPACE
  1

  0
ENDBLK
  5
1D
330
1B
100
AcDbEntity
 67
     1
  8
0
100
AcDbBlockEnd
  0
ENDSEC
  0
SECTION
  2
ENTITIES
  0
SPLINE
  5
100
100
AcDbEntity
  8
Capa_1
 62
7
100
AcDbSpline
 70
8
 71
3
 72
8
 73
4
 74
0
 40
0
 40
0
 40
0
 40
0
 40
1
 40
1
 40
1
 40
1
 10
3.575678
 20
4.780353
 30
0.0
 10
3.877516
 20
4.783689
 30
0.0
 10
4.371434
 20
4.783689
 30
0.0
 10
4.673272
 20
4.780353
 30
0.0
  0
SPLINE
  5
101
100
AcDbEntity
  8
Capa_1
 62
7
100
AcDbSpline
 70
8
 71
3
 72
8
 73
4
 74
0
 40
0
 40
0
 40
0
 40
0
 40
1
 40
1
 40
1
 40
1
 10
4.673272
 20
4.780353
 30
0.0
 10
4.975110
 20
4.777018
 30
0.0
 10
4.728152
 20
4.774290
 30
0.0
 10
4.124475
 20
4.774290
 30
0.0
  0
SPLINE
  5
102
100
AcDbEntity
  8
Capa_1
 62
7
100
AcDbSpline
 70
8
 71
3
 72
8
 73
4
 74
0
 40
0
 40
0
 40
0
 40
0
 40
1
 40
1
 40
1
 40
1
 10
4.124475
 20
4.774290
 30
0.0
 10
3.520798
 20
4.774290
 30
0.0
 10
3.273839
 20
4.777018
 30
0.0
 10
3.575678
 20
4.780353
 30
0.0
  0
SPLINE
  5
103
100
AcDbEntity
  8
Capa_1
 62
7
100
AcDbSpline
 70
8
 71
3
 72
8
 73
4
 74
0
 40
0
 40
0
 40
0
 40
0
 40
1
 40
1
 40
1
 40
1
 10
7.296195
 20
6.996857
 30
0.0
 10
7.592989
 20
7.000201
 30
0.0
 10
8.072521
 20
7.000198
 30
0.0
 10
8.361821
 20
6.996850
 30
0.0
  0
SPLINE
  5
104
100
AcDbEntity
  8
Capa_1
 62
7
100
AcDbSpline
 70
8
 71
3
 72
8
 73
4
 74
0
 40
0
 40
0
 40
0
 40
0
 40
1
 40
1
 40
1
 40
1
 10
8.361821
 20
6.996850
 30
0.0
 10
8.651121
 20
6.993502
 30
0.0
 10
8.408289
 20
6.990766
 30
0.0
 10
7.822195
 20
6.990770
 30
0.0
  0
SPLINE
  5
105
100
AcDbEntity
  8
Capa_1
 62
7
100
AcDbSpline
 70
8
 71
3
 72
8
 73
4
 74
0
 40
0
 40
0
 40
0
 40
0
 40
1
 40
1
 40
1
 40
1
 10
7.822195
 20
6.990770
 30
0.0
 10
7.236101
 20
6.990774
 30
0.0
 10
6.999401
 20
6.993513
 30
0.0
 10
7.296195
 20
6.996858
 30
0.0
  0
LWPOLYLINE
  5
106
100
AcDbEntity
  8
Capa_1
 62
7
100
AcDbPolyline
 90
1
 70
1
 10
3.575678
 20
4.780353
 30
0.0
  0
SPLINE
  5
107
100
AcDbEntity
  8
Capa_1
 62
7
100
AcDbSpline
 70
8
 71
3
 72
8
 73
4
 74
0
 40
0
 40
0
 40
0
 40
0
 40
1
 40
1
 40
1
 40
1
 10
3.836756
 20
0.009838
 30
0.0
 10
3.759685
 20
0.042635
 30
0.0
 10
3.709818
 20
0.117677
 30
0.0
 10
3.710467
 20
0.199882
 30
0.0
  0
SPLINE
  5
108
100
AcDbEntity
  8
Capa_1
 62
7
100
AcDbSpline
 70
8
 71
3
 72
8
 73
4
 74
0
 40
0
 40
0
 40
0
 40
0
 40
1
 40
1
 40
1
 40
1
 10
3.710467
 20
0.199882
 30
0.0
 10
3.710823
 20
0.245249
 30
0.0
 10
4.030629
 20
1.219830
 30
0.0
 10
4.471905
 20
2.520316
 30
0.0
  0
SPLINE
  5
109
100
AcDbEntity
  8
Capa_1
 62
7
100
AcDbSpline
 70
8
 71
3
 72
8
 73
4
 74
0
 40
0
 40
0
 40
0
 40
0
 40
1
 40
1
 40
1
 40
1
 10
4.471905
 20
2.520316
 30
0.0
 10
4.890356
 20
3.753534
 30
0.0
 10
5.232725
 20
4.767743
 30
0.0
 10
5.232725
 20
4.774114
 30
0.0
  0
SPLINE
  5
10a
100
AcDbEntity
  8
Capa_1
 62
7
100
AcDbSpline
 70
8
 71
3
 72
8
 73
4
 74
0
 40
0
 40
0
 40
0
 40
0
 40
1
 40
1
 40
1
 40
1
 10
5.232725
 20
4.774114
 30
0.0
 10
5.232725
 20
4.780485
 30
0.0
 10
4.725118
 20
4.785698
 30
0.0
 10
4.104709
 20
4.785698
 30
0.0
  0
LWPOLYLINE
  5
10b
100
AcDbEntity
  8
Capa_1
 62
7
100
AcDbPolyline
 90
1
 70
1
 10
7.296195
 20
6.996858
 30
0.0
  0
SPLINE
  5
10c
100
AcDbEntity
  8
Capa_1
 62
7
100
AcDbSpline
 70
8
 71
3
 72
8
 73
4
 74
0
 40
0
 40
0
 40
0
 40
0
 40
1
 40
1
 40
1
 40
1
 10
2.932521
 20
4.841853
 30
0.0
 10
2.905921
 20
4.875670
 30
0.0
 10
2.888579
 20
4.928658
 30
0.0
 10
2.888926
 20
4.975056
 30
0.0
  0
SPLINE
  5
10d
100
AcDbEntity
  8
Capa_1
 62
7
100
AcDbSpline
 70
8
 71
3
 72
8
 73
4
 74
0
 40
0
 40
0
 40
0
 40
0
 40
1
 40
1
 40
1
 40
1
 10
2.888926
 20
4.975056
 30
0.0
 10
2.889792
 20
5.090622
 30
0.0
 10
5.603014
 20
10.783974
 30
0.0
 10
5.687168
 20
10.846810
 30
0.0
  0
SPLINE
  5
10e
100
AcDbEntity
  8
Capa_1
 62
7
100
AcDbSpline
 70
8
 71
3
 72
8
 73
4
 74
0
 40
0
 40
0
 40
0
 40
0
 40
1
 40
1
 40
1
 40
1
 10
5.687168
 20
10.846810
 30
0.0
 10
5.746799
 20
10.891336
 30
0.0
 10
5.760182
 20
10.891783
 30
0.0
 10
7.205337
 20
10.897491
 30
0.0
  0
SPLINE
  5
10f
100
AcDbEntity
  8
Capa_1
 62
7
100
AcDbSpline
 70
8
 71
3
 72
8
 73
4
 74
0
 40
0
 40
0
 40
0
 40
0
 40
1
 40
1
 40
1
 40
1
 10
7.205337
 20
10.897491
 30
0.0
 10
8.789089
 20
10.903747
 30
0.0
 10
8.768555
 20
10.905129
 30
0.0
 10
8.845888
 20
10.787104
 30
0.0
  0
SPLINE
  5
110
100
AcDbEntity
  8
Capa_1
 62
7
100
AcDbSpline
 70
8
 71
3
 72
8
 73
4
 74
0
 40
0
 40
0
 40
0
 40
0
 40
1
 40
1
 40
1
 40
1
 10
8.845888
 20
10.787104
 30
0.0
 10
8.867651
 20
10.753889
 30
0.0
 10
8.878523
 20
10.704772
 30
0.0
 10
8.873405
 20
10.662777
 30
0.0
  0
SPLINE
  5
111
100
AcDbEntity
  8
Capa_1
 62
7
100
AcDbSpline
 70
8
 71
3
 72
8
 73
4
 74
0
 40
0
 40
0
 40
0
 40
0
 40
1
 40
1
 40
1
 40
1
 10
8.873405
 20
10.662777
 30
0.0
 10
8.868217
 20
10.620198
 30
0.0
 10
8.459411
 20
9.899744
 30
0.0
 10
7.816086
 20
8.799428
 30
0.0
  0
SPLINE
  5
112
100
AcDbEntity
  8
Capa_1
 62
7
100
AcDbSpline
 70
8
 71
3
 72
8
 73
4
 74
0
 40
0
 40
0
 40
0
 40
0
 40
1
 40
1
 40
1
 40
1
 10
7.816086
 20
8.799428
 30
0.0
 10
7.239213
 20
7.812767
 30
0.0
 10
6.767226
 20
6.999961
 30
0.0
 10
6.767226
 20
6.993192
 30
0.0
  0
SPLINE
  5
113
100
AcDbEntity
  8
Capa_1
 62
7
100
AcDbSpline
 70
8
 71
3
 72
8
 73
4
 74
0
 40
0
 40
0
 40
0
 40
0
 40
1
 40
1
 40
1
 40
1
 10
6.767226
 20
6.993192
 30
0.0
 10
6.767226
 20
6.986424
 30
0.0
 10
7.256979
 20
6.980886
 30
0.0
 10
7.855565
 20
6.980886
 30
0.0
  0
SPLINE
  5
114
100
AcDbEntity
  8
Capa_1
 62
7
100
AcDbSpline
 70
8
 71
3
 72
8
 73
4
 74
0
 40
0
 40
0
 40
0
 40
0
 40
1
 40
1
 40
1
 40
1
 10
7.855565
 20
6.980886
 30
0.0
 10
8.615155
 20
6.980886
 30
0.0
 10
8.957966
 20
6.973695
 30
0.0
 10
8.990456
 20
6.957079
 30
0.0
  0
SPLINE
  5
115
100
AcDbEntity
  8
Capa_1
 62
7
100
AcDbSpline
 70
8
 71
3
 72
8
 73
4
 74
0
 40
0
 40
0
 40
0
 40
0
 40
1
 40
1
 40
1
 40
1
 10
8.990456
 20
6.957079
 30
0.0
 10
9.068590
 20
6.917121
 30
0.0
 10
9.110633
 20
6.847388
 30
0.0
 10
9.111023
 20
6.757105
 30
0.0
  0
SPLINE
  5
116
100
AcDbEntity
  8
Capa_1
 62
7
100
AcDbSpline
 70
8
 71
3
 72
8
 73
4
 74
0
 40
0
 40
0
 40
0
 40
0
 40
1
 40
1
 40
1
 40
1
 10
9.111023
 20
6.757105
 30
0.0
 10
9.111370
 20
6.676693
 30
0.0
 10
8.969802
 20
6.484982
 30
0.0
 10
6.616540
 20
3.379072
 30
0.0
  0
SPLINE
  5
117
100
AcDbEntity
  8
Capa_1
 62
7
100
AcDbSpline
 70
8
 71
3
 72
8
 73
4
 74
0
 40
0
 40
0
 40
0
 40
0
 40
1
 40
1
 40
1
 40
1
 10
6.616540
 20
3.379072
 30
0.0
 10
5.244372
 20
1.568041
 30
0.0
 10
4.100622
 20
0.070368
 30
0.0
 10
4.074873
 20
0.050909
 30
0.0
  0
SPLINE
  5
118
100
AcDbEntity
  8
Capa_1
 62
7
100
AcDbSpline
 70
8
 71
3
 72
8
 73
4
 74
0
 40
0
 40
0
 40
0
 40
0
 40
1
 40
1
 40
1
 40
1
 10
4.074873
 20
0.050909
 30
0.0
 10
4.016723
 20
0.006965
 30
0.0
 10
3.893465
 20
-0.014296
 30
0.0
 10
3.836756
 20
0.009838
 30
0.0
  0
LWPOLYLINE
  5
119
100
AcDbEntity
  8
Capa_1
 62
7
100
AcDbPolyline
 90
3
 70
0
 10
4.104709
 20
4.785698
 30
0.0
 10
2.976693
 20
4.785698
 30
0.0
 10
2.932521
 20
4.841853
 30
0.0
  0
SPLINE
  5
11a
100
AcDbEntity
  8
Capa_1
 62
7
100
AcDbSpline
 70
8
 71
3
 72
8
 73
4
 74
0
 40
0
 40
0
 40
0
 40
0
 40
1
 40
1
 40
1
 40
1
 10
0.522238
 20
23.537699
 30
0.0
 10
0.357925
 20
23.594499
 30
0.0
 10
0.220763
 20
23.693289
 30
0.0
 10
0.136728
 20
23.815429
 30
0.0
  0
SPLINE
  5
11b
100
AcDbEntity
  8
Capa_1
 62
7
100
AcDbSpline
 70
8
 71
3
 72
8
 73
4
 74
0
 40
0
 40
0
 40
0
 40
0
 40
1
 40
1
 40
1
 40
1
 10
0.136728
 20
23.815429
 30
0.0
 10
-0.012542
 20
24.032379
 30
0.0
 10
-0.100378
 20
23.802929
 30
0.0
 10
1.078536
 20
26.275199
 30
0.0
  0
SPLINE
  5
11c
100
AcDbEntity
  8
Capa_1
 62
7
100
AcDbSpline
 70
8
 71
3
 72
8
 73
4
 74
0
 40
0
 40
0
 40
0
 40
0
 40
1
 40
1
 40
1
 40
1
 10
1.078536
 20
26.275199
 30
0.0
 10
1.661135
 20
27.496939
 30
0.0
 10
2.161994
 20
28.534149
 30
0.0
 10
2.191555
 20
28.580129
 30
0.0
  0
SPLINE
  5
11d
100
AcDbEntity
  8
Capa_1
 62
7
100
AcDbSpline
 70
8
 71
3
 72
8
 73
4
 74
0
 40
0
 40
0
 40
0
 40
0
 40
1
 40
1
 40
1
 40
1
 10
2.191555
 20
28.580129
 30
0.0
 10
2.257785
 20
28.683119
 30
0.0
 10
2.421763
 20
28.839449
 30
0.0
 10
2.531500
 20
28.904209
 30
0.0
  0
SPLINE
  5
11e
100
AcDbEntity
  8
Capa_1
 62
7
100
AcDbSpline
 70
8
 71
3
 72
8
 73
4
 74
0
 40
0
 40
0
 40
0
 40
0
 40
1
 40
1
 40
1
 40
1
 10
2.531500
 20
28.904209
 30
0.0
 10
2.576630
 20
28.930809
 30
0.0
 10
2.676861
 20
28.972009
 30
0.0
 10
2.754230
 20
28.995709
 30
0.0
  0
SPLINE
  5
11f
100
AcDbEntity
  8
Capa_1
 62
7
100
AcDbSpline
 70
8
 71
3
 72
8
 73
4
 74
0
 40
0
 40
0
 40
0
 40
0
 40
1
 40
1
 40
1
 40
1
 10
2.754230
 20
28.995709
 30
0.0
 10
2.888510
 20
29.036909
 30
0.0
 10
3.082410
 20
29.038809
 30
0.0
 10
7.021268
 20
29.038809
 30
0.0
  0
LWPOLYLINE
  5
120
100
AcDbEntity
  8
Capa_1
 62
7
100
AcDbPolyline
 90
1
 70
1
 10
3.836756
 20
0.009838
 30
0.0
  0
SPLINE
  5
121
100
AcDbEntity
  8
Capa_1
 62
7
100
AcDbSpline
 70
8
 71
3
 72
8
 73
4
 74
0
 40
0
 40
0
 40
0
 40
0
 40
1
 40
1
 40
1
 40
1
 10
11.314126
 20
28.986409
 30
0.0
 10
11.787450
 20
28.837539
 30
0.0
 10
12.078144
 20
28.363009
 30
0.0
 10
11.981427
 20
27.897119
 30
0.0
  0
SPLINE
  5
122
100
AcDbEntity
  8
Capa_1
 62
7
100
AcDbSpline
 70
8
 71
3
 72
8
 73
4
 74
0
 40
0
 40
0
 40
0
 40
0
 40
1
 40
1
 40
1
 40
1
 10
11.981427
 20
27.897119
 30
0.0
 10
11.939997
 20
27.697549
 30
0.0
 10
10.074557
 20
23.966459
 30
0.0
 10
9.940975
 20
23.815979
 30
0.0
  0
SPLINE
  5
123
100
AcDbEntity
  8
Capa_1
 62
7
100
AcDbSpline
 70
8
 71
3
 72
8
 73
4
 74
0
 40
0
 40
0
 40
0
 40
0
 40
1
 40
1
 40
1
 40
1
 10
9.940975
 20
23.815979
 30
0.0
 10
9.823437
 20
23.683579
 30
0.0
 10
9.686072
 20
23.598609
 30
0.0
 10
9.491814
 20
23.538149
 30
0.0
  0
SPLINE
  5
124
100
AcDbEntity
  8
Capa_1
 62
7
100
AcDbSpline
 70
8
 71
3
 72
8
 73
4
 74
0
 40
0
 40
0
 40
0
 40
0
 40
1
 40
1
 40
1
 40
1
 10
9.491814
 20
23.538149
 30
0.0
 10
9.354915
 20
23.495549
 30
0.0
 10
9.195881
 20
23.494049
 30
0.0
 10
4.997025
 20
23.494749
 30
0.0
  0
SPLINE
  5
125
100
AcDbEntity
  8
Capa_1
 62
7
100
AcDbSpline
 70
8
 71
3
 72
8
 73
4
 74
0
 40
0
 40
0
 40
0
 40
0
 40
1
 40
1
 40
1
 40
1
 10
4.997025
 20
23.494749
 30
0.0
 10
0.870234
 20
23.495469
 30
0.0
 10
0.637825
 20
23.497749
 30
0.0
 10
0.522238
 20
23.537649
 30
0.0
  0
LWPOLYLINE
  5
126
100
AcDbEntity
  8
Capa_1
 62
7
100
AcDbPolyline
 90
3
 70
0
 10
7.021268
 20
29.038809
 30
0.0
 10
11.147634
 20
29.038809
 30
0.0
 10
11.314126
 20
28.986409
 30
0.0
  0
SPLINE
  5
127
100
AcDbEntity
  8
Capa_1
 62
7
100
AcDbSpline
 70
8
 71
3
 72
8
 73
4
 74
0
 40
0
 40
0
 40
0
 40
0
 40
1
 40
1
 40
1
 40
1
 10
0.000351
 20
28.888049
 30
0.0
 10
-0.000649
 20
32.500649
 30
0.0
 10
-0.008949
 20
32.296359
 30
0.0
 10
0.147284
 20
32.501249
 30
0.0
  0
SPLINE
  5
128
100
AcDbEntity
  8
Capa_1
 62
7
100
AcDbSpline
 70
8
 71
3
 72
8
 73
4
 74
0
 40
0
 40
0
 40
0
 40
0
 40
1
 40
1
 40
1
 40
1
 10
0.147284
 20
32.501249
 30
0.0
 10
0.249013
 20
32.634619
 30
0.0
 10
0.383030
 20
32.725519
 30
0.0
 10
0.539231
 20
32.767089
 30
0.0
  0
SPLINE
  5
129
100
AcDbEntity
  8
Capa_1
 62
7
100
AcDbSpline
 70
8
 71
3
 72
8
 73
4
 74
0
 40
0
 40
0
 40
0
 40
0
 40
1
 40
1
 40
1
 40
1
 10
0.539231
 20
32.767089
 30
0.0
 10
0.731539
 20
32.818289
 30
0.0
 10
3.584426
 20
32.818089
 30
0.0
 10
3.780982
 20
32.766919
 30
0.0
  0
SPLINE
  5
12a
100
AcDbEntity
  8
Capa_1
 62
7
100
AcDbSpline
 70
8
 71
3
 72
8
 73
4
 74
0
 40
0
 40
0
 40
0
 40
0
 40
1
 40
1
 40
1
 40
1
 10
3.780982
 20
32.766919
 30
0.0
 10
4.043813
 20
32.698419
 30
0.0
 10
4.081033
 20
32.659419
 30
0.0
 10
4.664250
 20
31.840549
 30
0.0
  0
LWPOLYLINE
  5
12b
100
AcDbEntity
  8
Capa_1
 62
7
100
AcDbPolyline
 90
1
 70
1
 10
0.522238
 20
23.537649
 30
0.0
  0
SPLINE
  5
12c
100
AcDbEntity
  8
Capa_1
 62
7
100
AcDbSpline
 70
8
 71
3
 72
8
 73
4
 74
0
 40
0
 40
0
 40
0
 40
0
 40
1
 40
1
 40
1
 40
1
 10
7.263262
 20
31.395119
 30
0.0
 10
9.548618
 20
31.383419
 30
0.0
 10
9.553583
 20
31.383319
 30
0.0
 10
9.662978
 20
31.332719
 30
0.0
  0
SPLINE
  5
12d
100
AcDbEntity
  8
Capa_1
 62
7
100
AcDbSpline
 70
8
 71
3
 72
8
 73
4
 74
0
 40
0
 40
0
 40
0
 40
0
 40
1
 40
1
 40
1
 40
1
 10
9.662978
 20
31.332719
 30
0.0
 10
9.809865
 20
31.264819
 30
0.0
 10
9.964443
 20
31.118449
 30
0.0
 10
10.034907
 20
30.980509
 30
0.0
  0
SPLINE
  5
12e
100
AcDbEntity
  8
Capa_1
 62
7
100
AcDbSpline
 70
8
 71
3
 72
8
 73
4
 74
0
 40
0
 40
0
 40
0
 40
0
 40
1
 40
1
 40
1
 40
1
 10
10.034907
 20
30.980509
 30
0.0
 10
10.090767
 20
30.871159
 30
0.0
 10
10.092827
 20
30.849569
 30
0.0
 10
10.099967
 20
30.299039
 30
0.0
  0
LWPOLYLINE
  5
12f
100
AcDbEntity
  8
Capa_1
 62
7
100
AcDbPolyline
 90
3
 70
0
 10
4.664250
 20
31.840549
 30
0.0
 10
4.973168
 20
31.406819
 30
0.0
 10
7.263262
 20
31.395119
 30
0.0
  0
SPLINE
  5
130
100
AcDbEntity
  8
Capa_1
 62
7
100
AcDbSpline
 70
8
 71
3
 72
8
 73
4
 74
0
 40
0
 40
0
 40
0
 40
0
 40
1
 40
1
 40
1
 40
1
 10
6.372200
 20
29.730019
 30
0.0
 10
3.990053
 20
29.729759
 30
0.0
 10
2.577584
 20
29.721019
 30
0.0
 10
2.472917
 20
29.705919
 30
0.0
  0
SPLINE
  5
131
100
AcDbEntity
  8
Capa_1
 62
7
100
AcDbSpline
 70
8
 71
3
 72
8
 73
4
 74
0
 40
0
 40
0
 40
0
 40
0
 40
1
 40
1
 40
1
 40
1
 10
2.472917
 20
29.705919
 30
0.0
 10
2.105359
 20
29.653019
 30
0.0
 10
1.845379
 20
29.452659
 30
0.0
 10
1.665541
 20
29.083729
 30
0.0
  0
SPLINE
  5
132
100
AcDbEntity
  8
Capa_1
 62
7
100
AcDbSpline
 70
8
 71
3
 72
8
 73
4
 74
0
 40
0
 40
0
 40
0
 40
0
 40
1
 40
1
 40
1
 40
1
 10
1.665541
 20
29.083729
 30
0.0
 10
1.609511
 20
28.968779
 30
0.0
 10
1.226919
 20
28.168659
 30
0.0
 10
0.815345
 20
27.305699
 30
0.0
  0
SPLINE
  5
133
100
AcDbEntity
  8
Capa_1
 62
7
100
AcDbSpline
 70
8
 71
3
 72
8
 73
4
 74
0
 40
0
 40
0
 40
0
 40
0
 40
1
 40
1
 40
1
 40
1
 10
0.815345
 20
27.305699
 30
0.0
 10
0.403771
 20
26.442739
 30
0.0
 10
0.052244
 20
25.709489
 30
0.0
 10
0.034174
 20
25.676249
 30
0.0
  0
SPLINE
  5
134
100
AcDbEntity
  8
Capa_1
 62
7
100
AcDbSpline
 70
8
 71
3
 72
8
 73
4
 74
0
 40
0
 40
0
 40
0
 40
0
 40
1
 40
1
 40
1
 40
1
 10
0.034174
 20
25.676249
 30
0.0
 10
0.005864
 20
25.624149
 30
0.0
 10
0.001184
 20
26.068299
 30
0.0
 10
0.000384
 20
28.888049
 30
0.0
  0
LWPOLYLINE
  5
135
100
AcDbEntity
  8
Capa_1
 62
7
100
AcDbPolyline
 90
3
 70
0
 10
10.099967
 20
30.299039
 30
0.0
 10
10.107367
 20
29.730489
 30
0.0
 10
6.372200
 20
29.730019
 30
0.0
  0
SPLINE
  5
136
100
AcDbEntity
  8
Capa_1
 62
7
100
AcDbSpline
 70
8
 71
3
 72
8
 73
4
 74
0
 40
0
 40
0
 40
0
 40
0
 40
1
 40
1
 40
1
 40
1
 10
5.765371
 20
14.447419
 30
0.0
 10
5.683041
 20
14.484419
 30
0.0
 10
5.051442
 20
15.102649
 30
0.0
 10
2.895976
 20
17.256139
 30
0.0
  0
SPLINE
  5
137
100
AcDbEntity
  8
Capa_1
 62
7
100
AcDbSpline
 70
8
 71
3
 72
8
 73
4
 74
0
 40
0
 40
0
 40
0
 40
0
 40
1
 40
1
 40
1
 40
1
 10
2.895976
 20
17.256139
 30
0.0
 10
1.375870
 20
18.774849
 30
0.0
 10
0.106482
 20
20.060519
 30
0.0
 10
0.075113
 20
20.113169
 30
0.0
  0
SPLINE
  5
138
100
AcDbEntity
  8
Capa_1
 62
7
100
AcDbSpline
 70
8
 71
3
 72
8
 73
4
 74
0
 40
0
 40
0
 40
0
 40
0
 40
1
 40
1
 40
1
 40
1
 10
0.075113
 20
20.113169
 30
0.0
 10
-0.054929
 20
20.331459
 30
0.0
 10
-0.013327
 20
20.610469
 30
0.0
 10
0.177620
 20
20.800599
 30
0.0
  0
SPLINE
  5
139
100
AcDbEntity
  8
Capa_1
 62
7
100
AcDbSpline
 70
8
 71
3
 72
8
 73
4
 74
0
 40
0
 40
0
 40
0
 40
0
 40
1
 40
1
 40
1
 40
1
 10
0.177620
 20
20.800599
 30
0.0
 10
0.244420
 20
20.867099
 30
0.0
 10
0.325619
 20
20.921449
 30
0.0
 10
0.384227
 20
20.938859
 30
0.0
  0
SPLINE
  5
13a
100
AcDbEntity
  8
Capa_1
 62
7
100
AcDbSpline
 70
8
 71
3
 72
8
 73
4
 74
0
 40
0
 40
0
 40
0
 40
0
 40
1
 40
1
 40
1
 40
1
 10
0.384227
 20
20.938859
 30
0.0
 10
0.459117
 20
20.961059
 30
0.0
 10
1.719574
 20
20.967559
 30
0.0
 10
5.999964
 20
20.967559
 30
0.0
  0
SPLINE
  5
13b
100
AcDbEntity
  8
Capa_1
 62
7
100
AcDbSpline
 70
8
 71
3
 72
8
 73
4
 74
0
 40
0
 40
0
 40
0
 40
0
 40
1
 40
1
 40
1
 40
1
 10
5.999964
 20
20.967559
 30
0.0
 10
10.280351
 20
20.967559
 30
0.0
 10
11.540813
 20
20.961559
 30
0.0
 10
11.615697
 20
20.938859
 30
0.0
  0
SPLINE
  5
13c
100
AcDbEntity
  8
Capa_1
 62
7
100
AcDbSpline
 70
8
 71
3
 72
8
 73
4
 74
0
 40
0
 40
0
 40
0
 40
0
 40
1
 40
1
 40
1
 40
1
 10
11.615697
 20
20.938859
 30
0.0
 10
11.674307
 20
20.921459
 30
0.0
 10
11.755508
 20
20.867159
 30
0.0
 10
11.822306
 20
20.800599
 30
0.0
  0
SPLINE
  5
13d
100
AcDbEntity
  8
Capa_1
 62
7
100
AcDbSpline
 70
8
 71
3
 72
8
 73
4
 74
0
 40
0
 40
0
 40
0
 40
0
 40
1
 40
1
 40
1
 40
1
 10
11.822306
 20
20.800599
 30
0.0
 10
12.013247
 20
20.610469
 30
0.0
 10
12.054854
 20
20.331459
 30
0.0
 10
11.924811
 20
20.113169
 30
0.0
  0
SPLINE
  5
13e
100
AcDbEntity
  8
Capa_1
 62
7
100
AcDbSpline
 70
8
 71
3
 72
8
 73
4
 74
0
 40
0
 40
0
 40
0
 40
0
 40
1
 40
1
 40
1
 40
1
 10
11.924811
 20
20.113169
 30
0.0
 10
11.893441
 20
20.060469
 30
0.0
 10
10.624056
 20
18.774849
 30
0.0
 10
9.103949
 20
17.256139
 30
0.0
  0
SPLINE
  5
13f
100
AcDbEntity
  8
Capa_1
 62
7
100
AcDbSpline
 70
8
 71
3
 72
8
 73
4
 74
0
 40
0
 40
0
 40
0
 40
0
 40
1
 40
1
 40
1
 40
1
 10
9.103949
 20
17.256139
 30
0.0
 10
6.948484
 20
15.102649
 30
0.0
 10
6.316885
 20
14.484399
 30
0.0
 10
6.234553
 20
14.447419
 30
0.0
  0
SPLINE
  5
140
100
AcDbEntity
  8
Capa_1
 62
7
100
AcDbSpline
 70
8
 71
3
 72
8
 73
4
 74
0
 40
0
 40
0
 40
0
 40
0
 40
1
 40
1
 40
1
 40
1
 10
6.234553
 20
14.447419
 30
0.0
 10
6.169903
 20
14.418419
 30
0.0
 10
6.078979
 20
14.400019
 30
0.0
 10
5.999964
 20
14.400019
 30
0.0
  0
SPLINE
  5
141
100
AcDbEntity
  8
Capa_1
 62
7
100
AcDbSpline
 70
8
 71
3
 72
8
 73
4
 74
0
 40
0
 40
0
 40
0
 40
0
 40
1
 40
1
 40
1
 40
1
 10
5.999964
 20
14.400019
 30
0.0
 10
5.920944
 20
14.400019
 30
0.0
 10
5.830021
 20
14.418419
 30
0.0
 10
5.765371
 20
14.447419
 30
0.0
  0
LWPOLYLINE
  5
142
100
AcDbEntity
  8
Capa_1
 62
7
100
AcDbPolyline
 90
1
 70
1
 10
0.000384
 20
28.888049
 30
0.0
  0
SPLINE
  5
143
100
AcDbEntity
  8
Capa_1
 62
7
100
AcDbSpline
 70
8
 71
3
 72
8
 73
4
 74
0
 40
0
 40
0
 40
0
 40
0
 40
1
 40
1
 40
1
 40
1
 10
5.765372
 20
41.852582
 30
0.0
 10
5.683042
 20
41.815602
 30
0.0
 10
5.051443
 20
41.197358
 30
0.0
 10
2.895977
 20
39.043868
 30
0.0
  0
SPLINE
  5
144
100
AcDbEntity
  8
Capa_1
 62
7
100
AcDbSpline
 70
8
 71
3
 72
8
 73
4
 74
0
 40
0
 40
0
 40
0
 40
0
 40
1
 40
1
 40
1
 40
1
 10
2.895977
 20
39.043868
 30
0.0
 10
1.375871
 20
37.525153
 30
0.0
 10
0.106483
 20
36.239488
 30
0.0
 10
0.075114
 20
36.186833
 30
0.0
  0
SPLINE
  5
145
100
AcDbEntity
  8
Capa_1
 62
7
100
AcDbSpline
 70
8
 71
3
 72
8
 73
4
 74
0
 40
0
 40
0
 40
0
 40
0
 40
1
 40
1
 40
1
 40
1
 10
0.075114
 20
36.186833
 30
0.0
 10
-0.054928
 20
35.968548
 30
0.0
 10
-0.013326
 20
35.689537
 30
0.0
 10
0.177621
 20
35.499405
 30
0.0
  0
SPLINE
  5
146
100
AcDbEntity
  8
Capa_1
 62
7
100
AcDbSpline
 70
8
 71
3
 72
8
 73
4
 74
0
 40
0
 40
0
 40
0
 40
0
 40
1
 40
1
 40
1
 40
1
 10
0.177621
 20
35.499405
 30
0.0
 10
0.244421
 20
35.432895
 30
0.0
 10
0.325620
 20
35.378555
 30
0.0
 10
0.384228
 20
35.361150
 30
0.0
  0
SPLINE
  5
147
100
AcDbEntity
  8
Capa_1
 62
7
100
AcDbSpline
 70
8
 71
3
 72
8
 73
4
 74
0
 40
0
 40
0
 40
0
 40
0
 40
1
 40
1
 40
1
 40
1
 10
0.384228
 20
35.361150
 30
0.0
 10
0.459118
 20
35.338910
 30
0.0
 10
1.719575
 20
35.332470
 30
0.0
 10
5.999965
 20
35.332470
 30
0.0
  0
SPLINE
  5
148
100
AcDbEntity
  8
Capa_1
 62
7
100
AcDbSpline
 70
8
 71
3
 72
8
 73
4
 74
0
 40
0
 40
0
 40
0
 40
0
 40
1
 40
1
 40
1
 40
1
 10
5.999965
 20
35.332470
 30
0.0
 10
10.280352
 20
35.332470
 30
0.0
 10
11.540813
 20
35.338870
 30
0.0
 10
11.615698
 20
35.361150
 30
0.0
  0
SPLINE
  5
149
100
AcDbEntity
  8
Capa_1
 62
7
100
AcDbSpline
 70
8
 71
3
 72
8
 73
4
 74
0
 40
0
 40
0
 40
0
 40
0
 40
1
 40
1
 40
1
 40
1
 10
11.615698
 20
35.361150
 30
0.0
 10
11.674308
 20
35.378550
 30
0.0
 10
11.755509
 20
35.432890
 30
0.0
 10
11.822307
 20
35.499405
 30
0.0
  0
SPLINE
  5
14a
100
AcDbEntity
  8
Capa_1
 62
7
100
AcDbSpline
 70
8
 71
3
 72
8
 73
4
 74
0
 40
0
 40
0
 40
0
 40
0
 40
1
 40
1
 40
1
 40
1
 10
11.822307
 20
35.499405
 30
0.0
 10
12.013248
 20
35.689537
 30
0.0
 10
12.054855
 20
35.968548
 30
0.0
 10
11.924812
 20
36.186833
 30
0.0
  0
SPLINE
  5
14b
100
AcDbEntity
  8
Capa_1
 62
7
100
AcDbSpline
 70
8
 71
3
 72
8
 73
4
 74
0
 40
0
 40
0
 40
0
 40
0
 40
1
 40
1
 40
1
 40
1
 10
11.924812
 20
36.186833
 30
0.0
 10
11.893442
 20
36.239493
 30
0.0
 10
10.624057
 20
37.525153
 30
0.0
 10
9.103950
 20
39.043868
 30
0.0
  0
SPLINE
  5
14c
100
AcDbEntity
  8
Capa_1
 62
7
100
AcDbSpline
 70
8
 71
3
 72
8
 73
4
 74
0
 40
0
 40
0
 40
0
 40
0
 40
1
 40
1
 40
1
 40
1
 10
9.103950
 20
39.043868
 30
0.0
 10
6.948484
 20
41.197358
 30
0.0
 10
6.316885
 20
41.815603
 30
0.0
 10
6.234554
 20
41.852582
 30
0.0
  0
SPLINE
  5
14d
100
AcDbEntity
  8
Capa_1
 62
7
100
AcDbSpline
 70
8
 71
3
 72
8
 73
4
 74
0
 40
0
 40
0
 40
0
 40
0
 40
1
 40
1
 40
1
 40
1
 10
6.234554
 20
41.852582
 30
0.0
 10
6.169904
 20
41.881612
 30
0.0
 10
6.078980
 20
41.900002
 30
0.0
 10
5.999965
 20
41.900002
 30
0.0
  0
SPLINE
  5
14e
100
AcDbEntity
  8
Capa_1
 62
7
100
AcDbSpline
 70
8
 71
3
 72
8
 73
4
 74
0
 40
0
 40
0
 40
0
 40
0
 40
1
 40
1
 40
1
 40
1
 10
5.999965
 20
41.900002
 30
0.0
 10
5.920945
 20
41.900002
 30
0.0
 10
5.830022
 20
41.881622
 30
0.0
 10
5.765372
 20
41.852582
 30
0.0
  0
LWPOLYLINE
  5
14f
100
AcDbEntity
  8
Capa_1
 62
7
100
AcDbPolyline
 90
1
 70
1
 10
5.765371
 20
14.447419
 30
0.0
  0
LWPOLYLINE
  5
150
100
AcDbEntity
  8
Capa_1
 62
7
100
AcDbPolyline
 90
1
 70
1
 10
5.765372
 20
41.852582
 30
0.0
  0
ENDSEC
  0
SECTION
  2
OBJECTS
  0
DICTIONARY
  5
C
330
0
100
AcDbDictionary
  3
ACAD_GROUP
350
D
  3
ACAD_MLINESTYLE
350
17
  0
DICTIONARY
  5
D
330
C
100
AcDbDictionary
  0
DICTIONARY
  5
1A
330
C
100
AcDbDictionary
  0
DICTIONARY
  5
17
330
C
100
AcDbDictionary
  3
STANDARD
350
18
  0
DICTIONARY
  5
19
330
C
100
AcDbDictionary
  0
ENDSEC
  0
EOF
