  0
SECTION
  2
HEADER
  9
$ACADVER
  1
AC1014
  9
$HANDSEED
  5
FFFF
  9
$INSUNITS
 70
     4
  9
$MEASUREMENT
 70
     1
  0
ENDSEC
  0
SECTION
  2
TABLES
  0
TABLE
  2
VPORT
  5
8
330
0
100
AcDbSymbolTable
 70
     4
  0
VPORT
  5
2E
330
8
100
AcDbSymbolTableRecord
100
AcDbViewportTableRecord
  2
*ACTIVE
 70
     0
 10
0.0
 20
0.0
 11
1.0
 21
1.0
 12
210.0
 22
148.5
 13
0.0
 23
0.0
 14
10.0
 24
10.0
 15
10.0
 25
10.0
 16
0.0
 26
0.0
 36
1.0
 17
0.0
 27
0.0
 37
0.0
 40
341.0
 41
1.24
 42
50.0
 43
0.0
 44
0.0
 50
0.0
 51
0.0
 71
     0
 72
   100
 73
     1
 74
     3
 75
     0
 76
     0
 77
     0
 78
     0
  0
ENDTAB
  0
TABLE
  2
LTYPE
  5
5
330
0
100
AcDbSymbolTable
 70
     1
  0
LTYPE
  5
14
330
5
100
AcDbSymbolTableRecord
100
AcDbLinetypeTableRecord
  2
BYBLOCK
 70
     0
  3

 72
    65
 73
     0
 40
0.0
  0
LTYPE
  5
15
330
5
100
AcDbSymbolTableRecord
100
AcDbLinetypeTableRecord
  2
BYLAYER
 70
     0
  3

 72
    65
 73
     0
 40
0.0
  0
LTYPE
  5
16
330
5
100
AcDbSymbolTableRecord
100
AcDbLinetypeTableRecord
  2
CONTINUOUS
 70
     0
  3
Solid line
 72
    65
 73
     0
 40
0.0
  0
ENDTAB
  0
TABLE
  2
LAYER
  5
2
100
AcDbSymbolTable
 70
2
  0
LAYER
  5
50
100
AcDbSymbolTableRecord
100
AcDbLayerTableRecord
  2
0
 70
0
  6
CONTINUOUS
  0
LAYER
  5
51
100
AcDbSymbolTableRecord
100
AcDbLayerTableRecord
  2
Capa_1
 70
0
  6
CONTINUOUS
  0
ENDTAB
  0
TABLE
  2
STYLE
  5
3
330
0
100
AcDbSymbolTable
 70
     1
  0
STYLE
  5
11
330
3
100
AcDbSymbolTableRecord
100
AcDbTextStyleTableRecord
  2
STANDARD
 70
     0
 40
0.0
 41
1.0
 50
0.0
 71
     0
 42
2.5
  3
txt
  4

  0
ENDTAB
  0
TABLE
  2
VIEW
  5
6
330
0
100
AcDbSymbolTable
 70
     0
  0
ENDTAB
  0
TABLE
  2
UCS
  5
7
330
0
100
AcDbSymbolTable
 70
     0
  0
ENDTAB
  0
TABLE
  2
APPID
  5
9
330
0
100
AcDbSymbolTable
 70
     2
  0
APPID
  5
12
330
9
100
AcDbSymbolTableRecord
100
AcDbRegAppTableRecord
  2
ACAD
 70
     0
  0
ENDTAB
  0
TABLE
  2
DIMSTYLE
  5
A
330
0
100
AcDbSymbolTable
 70
     1
  0
DIMSTYLE
105
27
330
A
100
AcDbSymbolTableRecord
100
AcDbDimStyleTableRecord
  2
ISO-25
 70
     0
  3

  4

  5

  6

  7

 40
1.0
 41
2.5
 42
0.625
 43
3.75
 44
1.25
 45
0.0
 46
0.0
 47
0.0
 48
0.0
140
2.5
141
2.5
142
0.0
143
0.03937007874016
144
1.0
145
0.0
146
1.0
147
0.625
 71
     0
 72
     0
 73
     0
 74
     0
 75
     0
 76
     0
 77
     1
 78
     8
170
     0
171
     3
172
     1
173
     0
174
     0
175
     0
176
     0
177
     0
178
     0
270
     2
271
     2
272
     2
273
     2
274
     3
340
11
275
     0
280
     0
281
     0
282
     0
283
     0
284
     8
285
     0
286
     0
287
     3
288
     0
  0
ENDTAB
  0
TABLE
  2
BLOCK_RECORD
  5
1
330
0
100
AcDbSymbolTable
 70
     1
  0
BLOCK_RECORD
  5
1F
330
1
100
AcDbSymbolTableRecord
100
AcDbBlockTableRecord
  2
*MODEL_SPACE
  0
BLOCK_RECORD
  5
1B
330
1
100
AcDbSymbolTableRecord
100
AcDbBlockTableRecord
  2
*PAPER_SPACE
  0
ENDTAB
  0
ENDSEC
  0
SECTION
  2
BLOCKS
  0
BLOCK
  5
20
330
1F
100
AcDbEntity
  8
0
100
AcDbBlockBegin
  2
*MODEL_SPACE
 70
     0
 10
0.0
 20
0.0
 30
0.0
  3
*MODEL_SPACE
  1

  0
ENDBLK
  5
21
330
1F
100
AcDbEntity
  8
0
100
AcDbBlockEnd
  0
BLOCK
  5
1C
330
1B
100
AcDbEntity
 67
     1
  8
0
100
AcDbBlockBegin
  2
*PAPER_SPACE
  1

  0
ENDBLK
  5
1D
330
1B
100
AcDbEntity
 67
     1
  8
0
100
AcDbBlockEnd
  0
ENDSEC
  0
SECTION
  2
ENTITIES
  0
SPLINE
  5
100
100
AcDbEntity
  8
Capa_1
 62
7
100
AcDbSpline
 70
8
 71
3
 72
8
 73
4
 74
0
 40
0
 40
0
 40
0
 40
0
 40
1
 40
1
 40
1
 40
1
 10
7.499979
 20
4.999961
 30
0.0
 10
7.499979
 20
4.336920
 30
0.0
 10
7.236587
 20
3.701035
 30
0.0
 10
6.767746
 20
3.232194
 30
0.0
  0
SPLINE
  5
101
100
AcDbEntity
  8
Capa_1
 62
7
100
AcDbSpline
 70
8
 71
3
 72
8
 73
4
 74
0
 40
0
 40
0
 40
0
 40
0
 40
1
 40
1
 40
1
 40
1
 10
6.767746
 20
3.232194
 30
0.0
 10
6.298905
 20
2.763353
 30
0.0
 10
5.663020
 20
2.499961
 30
0.0
 10
4.999979
 20
2.499961
 30
0.0
  0
SPLINE
  5
102
100
AcDbEntity
  8
Capa_1
 62
7
100
AcDbSpline
 70
8
 71
3
 72
8
 73
4
 74
0
 40
0
 40
0
 40
0
 40
0
 40
1
 40
1
 40
1
 40
1
 10
4.999979
 20
2.499961
 30
0.0
 10
4.336938
 20
2.499961
 30
0.0
 10
3.701053
 20
2.763353
 30
0.0
 10
3.232212
 20
3.232194
 30
0.0
  0
SPLINE
  5
103
100
AcDbEntity
  8
Capa_1
 62
7
100
AcDbSpline
 70
8
 71
3
 72
8
 73
4
 74
0
 40
0
 40
0
 40
0
 40
0
 40
1
 40
1
 40
1
 40
1
 10
3.232212
 20
3.232194
 30
0.0
 10
2.763371
 20
3.701035
 30
0.0
 10
2.499979
 20
4.336920
 30
0.0
 10
2.499979
 20
4.999961
 30
0.0
  0
SPLINE
  5
104
100
AcDbEntity
  8
Capa_1
 62
7
100
AcDbSpline
 70
8
 71
3
 72
8
 73
4
 74
0
 40
0
 40
0
 40
0
 40
0
 40
1
 40
1
 40
1
 40
1
 10
2.499979
 20
4.999961
 30
0.0
 10
2.499979
 20
5.663002
 30
0.0
 10
2.763371
 20
6.298887
 30
0.0
 10
3.232212
 20
6.767728
 30
0.0
  0
SPLINE
  5
105
100
AcDbEntity
  8
Capa_1
 62
7
100
AcDbSpline
 70
8
 71
3
 72
8
 73
4
 74
0
 40
0
 40
0
 40
0
 40
0
 40
1
 40
1
 40
1
 40
1
 10
3.232212
 20
6.767728
 30
0.0
 10
3.701053
 20
7.236569
 30
0.0
 10
4.336938
 20
7.499961
 30
0.0
 10
4.999979
 20
7.499961
 30
0.0
  0
SPLINE
  5
106
100
AcDbEntity
  8
Capa_1
 62
7
100
AcDbSpline
 70
8
 71
3
 72
8
 73
4
 74
0
 40
0
 40
0
 40
0
 40
0
 40
1
 40
1
 40
1
 40
1
 10
4.999979
 20
7.499961
 30
0.0
 10
5.663020
 20
7.499961
 30
0.0
 10
6.298905
 20
7.236569
 30
0.0
 10
6.767746
 20
6.767728
 30
0.0
  0
SPLINE
  5
107
100
AcDbEntity
  8
Capa_1
 62
7
100
AcDbSpline
 70
8
 71
3
 72
8
 73
4
 74
0
 40
0
 40
0
 40
0
 40
0
 40
1
 40
1
 40
1
 40
1
 10
6.767746
 20
6.767728
 30
0.0
 10
7.236587
 20
6.298887
 30
0.0
 10
7.499979
 20
5.663002
 30
0.0
 10
7.499979
 20
4.999961
 30
0.0
  0
SPLINE
  5
108
100
AcDbEntity
  8
Capa_1
 62
7
100
AcDbSpline
 70
8
 71
3
 72
8
 73
4
 74
0
 40
0
 40
0
 40
0
 40
0
 40
1
 40
1
 40
1
 40
1
 10
4.825085
 20
0.049083
 30
0.0
 10
4.785385
 20
0.076103
 30
0.0
 10
4.732345
 20
0.125953
 30
0.0
 10
4.707227
 20
0.159854
 30
0.0
  0
SPLINE
  5
109
100
AcDbEntity
  8
Capa_1
 62
7
100
AcDbSpline
 70
8
 71
3
 72
8
 73
4
 74
0
 40
0
 40
0
 40
0
 40
0
 40
1
 40
1
 40
1
 40
1
 10
4.707227
 20
0.159854
 30
0.0
 10
4.663547
 20
0.218804
 30
0.0
 10
4.661547
 20
0.247114
 30
0.0
 10
4.661547
 20
0.807817
 30
0.0
  0
SPLINE
  5
10a
100
AcDbEntity
  8
Capa_1
 62
7
100
AcDbSpline
 70
8
 71
3
 72
8
 73
4
 74
0
 40
0
 40
0
 40
0
 40
0
 40
1
 40
1
 40
1
 40
1
 10
4.661547
 20
0.807817
 30
0.0
 10
4.661547
 20
1.368523
 30
0.0
 10
4.663547
 20
1.396826
 30
0.0
 10
4.707227
 20
1.455779
 30
0.0
  0
SPLINE
  5
10b
100
AcDbEntity
  8
Capa_1
 62
7
100
AcDbSpline
 70
8
 71
3
 72
8
 73
4
 74
0
 40
0
 40
0
 40
0
 40
0
 40
1
 40
1
 40
1
 40
1
 10
4.707227
 20
1.455779
 30
0.0
 10
4.732347
 20
1.489679
 30
0.0
 10
4.785387
 20
1.539529
 30
0.0
 10
4.825085
 20
1.566550
 30
0.0
  0
SPLINE
  5
10c
100
AcDbEntity
  8
Capa_1
 62
7
100
AcDbSpline
 70
8
 71
3
 72
8
 73
4
 74
0
 40
0
 40
0
 40
0
 40
0
 40
1
 40
1
 40
1
 40
1
 10
4.825085
 20
1.566550
 30
0.0
 10
4.874685
 20
1.600300
 30
0.0
 10
4.929406
 20
1.615680
 30
0.0
 10
4.999980
 20
1.615680
 30
0.0
  0
SPLINE
  5
10d
100
AcDbEntity
  8
Capa_1
 62
7
100
AcDbSpline
 70
8
 71
3
 72
8
 73
4
 74
0
 40
0
 40
0
 40
0
 40
0
 40
1
 40
1
 40
1
 40
1
 10
4.999980
 20
1.615680
 30
0.0
 10
5.070550
 20
1.615680
 30
0.0
 10
5.125278
 20
1.600310
 30
0.0
 10
5.174874
 20
1.566550
 30
0.0
  0
SPLINE
  5
10e
100
AcDbEntity
  8
Capa_1
 62
7
100
AcDbSpline
 70
8
 71
3
 72
8
 73
4
 74
0
 40
0
 40
0
 40
0
 40
0
 40
1
 40
1
 40
1
 40
1
 10
5.174874
 20
1.566550
 30
0.0
 10
5.214574
 20
1.539530
 30
0.0
 10
5.267614
 20
1.489680
 30
0.0
 10
5.292732
 20
1.455779
 30
0.0
  0
SPLINE
  5
10f
100
AcDbEntity
  8
Capa_1
 62
7
100
AcDbSpline
 70
8
 71
3
 72
8
 73
4
 74
0
 40
0
 40
0
 40
0
 40
0
 40
1
 40
1
 40
1
 40
1
 10
5.292732
 20
1.455779
 30
0.0
 10
5.336412
 20
1.396829
 30
0.0
 10
5.338412
 20
1.368519
 30
0.0
 10
5.338412
 20
0.807817
 30
0.0
  0
SPLINE
  5
110
100
AcDbEntity
  8
Capa_1
 62
7
100
AcDbSpline
 70
8
 71
3
 72
8
 73
4
 74
0
 40
0
 40
0
 40
0
 40
0
 40
1
 40
1
 40
1
 40
1
 10
5.338412
 20
0.807817
 30
0.0
 10
5.338412
 20
0.247110
 30
0.0
 10
5.336412
 20
0.218806
 30
0.0
 10
5.292732
 20
0.159854
 30
0.0
  0
SPLINE
  5
111
100
AcDbEntity
  8
Capa_1
 62
7
100
AcDbSpline
 70
8
 71
3
 72
8
 73
4
 74
0
 40
0
 40
0
 40
0
 40
0
 40
1
 40
1
 40
1
 40
1
 10
5.292732
 20
0.159854
 30
0.0
 10
5.267612
 20
0.125954
 30
0.0
 10
5.214572
 20
0.076104
 30
0.0
 10
5.174874
 20
0.049083
 30
0.0
  0
SPLINE
  5
112
100
AcDbEntity
  8
Capa_1
 62
7
100
AcDbSpline
 70
8
 71
3
 72
8
 73
4
 74
0
 40
0
 40
0
 40
0
 40
0
 40
1
 40
1
 40
1
 40
1
 10
5.174874
 20
0.049083
 30
0.0
 10
5.125274
 20
0.015333
 30
0.0
 10
5.070553
 20
-0.000047
 30
0.0
 10
4.999980
 20
-0.000047
 30
0.0
  0
SPLINE
  5
113
100
AcDbEntity
  8
Capa_1
 62
7
100
AcDbSpline
 70
8
 71
3
 72
8
 73
4
 74
0
 40
0
 40
0
 40
0
 40
0
 40
1
 40
1
 40
1
 40
1
 10
4.999980
 20
-0.000047
 30
0.0
 10
4.929410
 20
-0.000047
 30
0.0
 10
4.874681
 20
0.015323
 30
0.0
 10
4.825085
 20
0.049083
 30
0.0
  0
LWPOLYLINE
  5
114
100
AcDbEntity
  8
Capa_1
 62
7
100
AcDbPolyline
 90
1
 70
1
 10
7.499979
 20
4.999961
 30
0.0
  0
SPLINE
  5
115
100
AcDbEntity
  8
Capa_1
 62
7
100
AcDbSpline
 70
8
 71
3
 72
8
 73
4
 74
0
 40
0
 40
0
 40
0
 40
0
 40
1
 40
1
 40
1
 40
1
 10
1.556108
 20
1.396546
 30
0.0
 10
1.502808
 20
1.420746
 30
0.0
 10
1.445137
 20
1.469006
 30
0.0
 10
1.419708
 20
1.510696
 30
0.0
  0
SPLINE
  5
116
100
AcDbEntity
  8
Capa_1
 62
7
100
AcDbSpline
 70
8
 71
3
 72
8
 73
4
 74
0
 40
0
 40
0
 40
0
 40
0
 40
1
 40
1
 40
1
 40
1
 10
1.419708
 20
1.510696
 30
0.0
 10
1.395478
 20
1.550426
 30
0.0
 10
1.369538
 20
1.615281
 30
0.0
 10
1.362068
 20
1.654828
 30
0.0
  0
SPLINE
  5
117
100
AcDbEntity
  8
Capa_1
 62
7
100
AcDbSpline
 70
8
 71
3
 72
8
 73
4
 74
0
 40
0
 40
0
 40
0
 40
0
 40
1
 40
1
 40
1
 40
1
 10
1.362068
 20
1.654828
 30
0.0
 10
1.353668
 20
1.699418
 30
0.0
 10
1.361928
 20
1.761936
 30
0.0
 10
1.383878
 20
1.819418
 30
0.0
  0
SPLINE
  5
118
100
AcDbEntity
  8
Capa_1
 62
7
100
AcDbSpline
 70
8
 71
3
 72
8
 73
4
 74
0
 40
0
 40
0
 40
0
 40
0
 40
1
 40
1
 40
1
 40
1
 10
1.383878
 20
1.819418
 30
0.0
 10
1.410258
 20
1.888498
 30
0.0
 10
1.517968
 20
2.010139
 30
0.0
 10
1.806790
 20
2.297032
 30
0.0
  0
SPLINE
  5
119
100
AcDbEntity
  8
Capa_1
 62
7
100
AcDbSpline
 70
8
 71
3
 72
8
 73
4
 74
0
 40
0
 40
0
 40
0
 40
0
 40
1
 40
1
 40
1
 40
1
 10
1.806790
 20
2.297032
 30
0.0
 10
2.132275
 20
2.620344
 30
0.0
 10
2.207411
 20
2.684383
 30
0.0
 10
2.276183
 20
2.697100
 30
0.0
  0
SPLINE
  5
11a
100
AcDbEntity
  8
Capa_1
 62
7
100
AcDbSpline
 70
8
 71
3
 72
8
 73
4
 74
0
 40
0
 40
0
 40
0
 40
0
 40
1
 40
1
 40
1
 40
1
 10
2.276183
 20
2.697100
 30
0.0
 10
2.321213
 20
2.705400
 30
0.0
 10
2.394420
 20
2.705400
 30
0.0
 10
2.438859
 20
2.697082
 30
0.0
  0
SPLINE
  5
11b
100
AcDbEntity
  8
Capa_1
 62
7
100
AcDbSpline
 70
8
 71
3
 72
8
 73
4
 74
0
 40
0
 40
0
 40
0
 40
0
 40
1
 40
1
 40
1
 40
1
 10
2.438859
 20
2.697082
 30
0.0
 10
2.489569
 20
2.687582
 30
0.0
 10
2.549877
 20
2.651702
 30
0.0
 10
2.600804
 20
2.600782
 30
0.0
  0
SPLINE
  5
11c
100
AcDbEntity
  8
Capa_1
 62
7
100
AcDbSpline
 70
8
 71
3
 72
8
 73
4
 74
0
 40
0
 40
0
 40
0
 40
0
 40
1
 40
1
 40
1
 40
1
 10
2.600804
 20
2.600782
 30
0.0
 10
2.651734
 20
2.549852
 30
0.0
 10
2.687594
 20
2.489547
 30
0.0
 10
2.697104
 20
2.438838
 30
0.0
  0
SPLINE
  5
11d
100
AcDbEntity
  8
Capa_1
 62
7
100
AcDbSpline
 70
8
 71
3
 72
8
 73
4
 74
0
 40
0
 40
0
 40
0
 40
0
 40
1
 40
1
 40
1
 40
1
 10
2.697104
 20
2.438838
 30
0.0
 10
2.705404
 20
2.394398
 30
0.0
 10
2.705404
 20
2.321194
 30
0.0
 10
2.697110
 20
2.276161
 30
0.0
  0
SPLINE
  5
11e
100
AcDbEntity
  8
Capa_1
 62
7
100
AcDbSpline
 70
8
 71
3
 72
8
 73
4
 74
0
 40
0
 40
0
 40
0
 40
0
 40
1
 40
1
 40
1
 40
1
 10
2.697110
 20
2.276161
 30
0.0
 10
2.684430
 20
2.207651
 30
0.0
 10
2.620770
 20
2.132391
 30
0.0
 10
2.307125
 20
1.815140
 30
0.0
  0
SPLINE
  5
11f
100
AcDbEntity
  8
Capa_1
 62
7
100
AcDbSpline
 70
8
 71
3
 72
8
 73
4
 74
0
 40
0
 40
0
 40
0
 40
0
 40
1
 40
1
 40
1
 40
1
 10
2.307125
 20
1.815140
 30
0.0
 10
2.076733
 20
1.582097
 30
0.0
 10
1.898638
 20
1.420319
 30
0.0
 10
1.844957
 20
1.395313
 30
0.0
  0
SPLINE
  5
120
100
AcDbEntity
  8
Capa_1
 62
7
100
AcDbSpline
 70
8
 71
3
 72
8
 73
4
 74
0
 40
0
 40
0
 40
0
 40
0
 40
1
 40
1
 40
1
 40
1
 10
1.844957
 20
1.395313
 30
0.0
 10
1.796927
 20
1.372943
 30
0.0
 10
1.733057
 20
1.354633
 30
0.0
 10
1.703035
 20
1.354633
 30
0.0
  0
SPLINE
  5
121
100
AcDbEntity
  8
Capa_1
 62
7
100
AcDbSpline
 70
8
 71
3
 72
8
 73
4
 74
0
 40
0
 40
0
 40
0
 40
0
 40
1
 40
1
 40
1
 40
1
 10
1.703035
 20
1.354633
 30
0.0
 10
1.673015
 20
1.354633
 30
0.0
 10
1.606895
 20
1.373493
 30
0.0
 10
1.556107
 20
1.396553
 30
0.0
  0
LWPOLYLINE
  5
122
100
AcDbEntity
  8
Capa_1
 62
7
100
AcDbPolyline
 90
1
 70
1
 10
4.825085
 20
0.049083
 30
0.0
  0
SPLINE
  5
123
100
AcDbEntity
  8
Capa_1
 62
7
100
AcDbSpline
 70
8
 71
3
 72
8
 73
4
 74
0
 40
0
 40
0
 40
0
 40
0
 40
1
 40
1
 40
1
 40
1
 10
8.155002
 20
1.395346
 30
0.0
 10
8.101352
 20
1.420336
 30
0.0
 10
7.923028
 20
1.582271
 30
0.0
 10
7.692681
 20
1.815172
 30
0.0
  0
SPLINE
  5
124
100
AcDbEntity
  8
Capa_1
 62
7
100
AcDbSpline
 70
8
 71
3
 72
8
 73
4
 74
0
 40
0
 40
0
 40
0
 40
0
 40
1
 40
1
 40
1
 40
1
 10
7.692681
 20
1.815172
 30
0.0
 10
7.456092
 20
2.054386
 30
0.0
 10
7.312064
 20
2.216955
 30
0.0
 10
7.302434
 20
2.255659
 30
0.0
  0
SPLINE
  5
125
100
AcDbEntity
  8
Capa_1
 62
7
100
AcDbSpline
 70
8
 71
3
 72
8
 73
4
 74
0
 40
0
 40
0
 40
0
 40
0
 40
1
 40
1
 40
1
 40
1
 10
7.302434
 20
2.255659
 30
0.0
 10
7.294034
 20
2.289399
 30
0.0
 10
7.291984
 20
2.359734
 30
0.0
 10
7.297834
 20
2.411961
 30
0.0
  0
SPLINE
  5
126
100
AcDbEntity
  8
Capa_1
 62
7
100
AcDbSpline
 70
8
 71
3
 72
8
 73
4
 74
0
 40
0
 40
0
 40
0
 40
0
 40
1
 40
1
 40
1
 40
1
 10
7.297834
 20
2.411961
 30
0.0
 10
7.303734
 20
2.464191
 30
0.0
 10
7.329304
 20
2.536083
 30
0.0
 10
7.354684
 20
2.571725
 30
0.0
  0
SPLINE
  5
127
100
AcDbEntity
  8
Capa_1
 62
7
100
AcDbSpline
 70
8
 71
3
 72
8
 73
4
 74
0
 40
0
 40
0
 40
0
 40
0
 40
1
 40
1
 40
1
 40
1
 10
7.354684
 20
2.571725
 30
0.0
 10
7.380064
 20
2.607365
 30
0.0
 10
7.434444
 20
2.652475
 30
0.0
 10
7.475520
 20
2.671973
 30
0.0
  0
SPLINE
  5
128
100
AcDbEntity
  8
Capa_1
 62
7
100
AcDbSpline
 70
8
 71
3
 72
8
 73
4
 74
0
 40
0
 40
0
 40
0
 40
0
 40
1
 40
1
 40
1
 40
1
 10
7.475520
 20
2.671973
 30
0.0
 10
7.516600
 20
2.691463
 30
0.0
 10
7.590971
 20
2.707413
 30
0.0
 10
7.640789
 20
2.707413
 30
0.0
  0
SPLINE
  5
129
100
AcDbEntity
  8
Capa_1
 62
7
100
AcDbSpline
 70
8
 71
3
 72
8
 73
4
 74
0
 40
0
 40
0
 40
0
 40
0
 40
1
 40
1
 40
1
 40
1
 10
7.640789
 20
2.707413
 30
0.0
 10
7.690609
 20
2.707413
 30
0.0
 10
7.757900
 20
2.693443
 30
0.0
 10
7.790328
 20
2.676363
 30
0.0
  0
SPLINE
  5
12a
100
AcDbEntity
  8
Capa_1
 62
7
100
AcDbSpline
 70
8
 71
3
 72
8
 73
4
 74
0
 40
0
 40
0
 40
0
 40
0
 40
1
 40
1
 40
1
 40
1
 10
7.790328
 20
2.676363
 30
0.0
 10
7.822758
 20
2.659283
 30
0.0
 10
8.017538
 20
2.475063
 30
0.0
 10
8.223178
 20
2.266975
 30
0.0
  0
SPLINE
  5
12b
100
AcDbEntity
  8
Capa_1
 62
7
100
AcDbSpline
 70
8
 71
3
 72
8
 73
4
 74
0
 40
0
 40
0
 40
0
 40
0
 40
1
 40
1
 40
1
 40
1
 10
8.223178
 20
2.266975
 30
0.0
 10
8.495370
 20
1.991541
 30
0.0
 10
8.604222
 20
1.866341
 30
0.0
 10
8.623368
 20
1.806678
 30
0.0
  0
SPLINE
  5
12c
100
AcDbEntity
  8
Capa_1
 62
7
100
AcDbSpline
 70
8
 71
3
 72
8
 73
4
 74
0
 40
0
 40
0
 40
0
 40
0
 40
1
 40
1
 40
1
 40
1
 10
8.623368
 20
1.806678
 30
0.0
 10
8.638118
 20
1.760718
 30
0.0
 10
8.643078
 20
1.693591
 30
0.0
 10
8.634678
 20
1.653840
 30
0.0
  0
SPLINE
  5
12d
100
AcDbEntity
  8
Capa_1
 62
7
100
AcDbSpline
 70
8
 71
3
 72
8
 73
4
 74
0
 40
0
 40
0
 40
0
 40
0
 40
1
 40
1
 40
1
 40
1
 10
8.634678
 20
1.653840
 30
0.0
 10
8.626478
 20
1.614850
 30
0.0
 10
8.600728
 20
1.551720
 30
0.0
 10
8.577548
 20
1.513543
 30
0.0
  0
SPLINE
  5
12e
100
AcDbEntity
  8
Capa_1
 62
7
100
AcDbSpline
 70
8
 71
3
 72
8
 73
4
 74
0
 40
0
 40
0
 40
0
 40
0
 40
1
 40
1
 40
1
 40
1
 10
8.577548
 20
1.513543
 30
0.0
 10
8.554378
 20
1.475363
 30
0.0
 10
8.493378
 20
1.423783
 30
0.0
 10
8.442005
 20
1.398914
 30
0.0
  0
SPLINE
  5
12f
100
AcDbEntity
  8
Capa_1
 62
7
100
AcDbSpline
 70
8
 71
3
 72
8
 73
4
 74
0
 40
0
 40
0
 40
0
 40
0
 40
1
 40
1
 40
1
 40
1
 10
8.442005
 20
1.398914
 30
0.0
 10
8.390635
 20
1.374044
 30
0.0
 10
8.324681
 20
1.353914
 30
0.0
 10
8.295449
 20
1.354174
 30
0.0
  0
SPLINE
  5
130
100
AcDbEntity
  8
Capa_1
 62
7
100
AcDbSpline
 70
8
 71
3
 72
8
 73
4
 74
0
 40
0
 40
0
 40
0
 40
0
 40
1
 40
1
 40
1
 40
1
 10
8.295449
 20
1.354174
 30
0.0
 10
8.266219
 20
1.354421
 30
0.0
 10
8.202999
 20
1.372964
 30
0.0
 10
8.154963
 20
1.395334
 30
0.0
  0
LWPOLYLINE
  5
131
100
AcDbEntity
  8
Capa_1
 62
7
100
AcDbPolyline
 90
1
 70
1
 10
1.556107
 20
1.396553
 30
0.0
  0
SPLINE
  5
132
100
AcDbEntity
  8
Capa_1
 62
7
100
AcDbSpline
 70
8
 71
3
 72
8
 73
4
 74
0
 40
0
 40
0
 40
0
 40
0
 40
1
 40
1
 40
1
 40
1
 10
0.218331
 20
4.674643
 30
0.0
 10
0.188311
 20
4.686903
 30
0.0
 10
0.140711
 20
4.718453
 30
0.0
 10
0.112545
 20
4.744753
 30
0.0
  0
SPLINE
  5
133
100
AcDbEntity
  8
Capa_1
 62
7
100
AcDbSpline
 70
8
 71
3
 72
8
 73
4
 74
0
 40
0
 40
0
 40
0
 40
0
 40
1
 40
1
 40
1
 40
1
 10
0.112545
 20
4.744753
 30
0.0
 10
0.084375
 20
4.771053
 30
0.0
 10
0.047525
 20
4.819103
 30
0.0
 10
0.030655
 20
4.851528
 30
0.0
  0
SPLINE
  5
134
100
AcDbEntity
  8
Capa_1
 62
7
100
AcDbSpline
 70
8
 71
3
 72
8
 73
4
 74
0
 40
0
 40
0
 40
0
 40
0
 40
1
 40
1
 40
1
 40
1
 10
0.030655
 20
4.851528
 30
0.0
 10
0.013785
 20
4.883958
 30
0.0
 10
-0.000025
 20
4.953737
 30
0.0
 10
-0.000025
 20
5.006596
 30
0.0
  0
SPLINE
  5
135
100
AcDbEntity
  8
Capa_1
 62
7
100
AcDbSpline
 70
8
 71
3
 72
8
 73
4
 74
0
 40
0
 40
0
 40
0
 40
0
 40
1
 40
1
 40
1
 40
1
 10
-0.000025
 20
5.006596
 30
0.0
 10
-0.000025
 20
5.070316
 30
0.0
 10
0.016525
 20
5.127027
 30
0.0
 10
0.049105
 20
5.174887
 30
0.0
  0
SPLINE
  5
136
100
AcDbEntity
  8
Capa_1
 62
7
100
AcDbSpline
 70
8
 71
3
 72
8
 73
4
 74
0
 40
0
 40
0
 40
0
 40
0
 40
1
 40
1
 40
1
 40
1
 10
0.049105
 20
5.174887
 30
0.0
 10
0.076125
 20
5.214587
 30
0.0
 10
0.125975
 20
5.267627
 30
0.0
 10
0.159877
 20
5.292744
 30
0.0
  0
SPLINE
  5
137
100
AcDbEntity
  8
Capa_1
 62
7
100
AcDbSpline
 70
8
 71
3
 72
8
 73
4
 74
0
 40
0
 40
0
 40
0
 40
0
 40
1
 40
1
 40
1
 40
1
 10
0.159877
 20
5.292744
 30
0.0
 10
0.218827
 20
5.336424
 30
0.0
 10
0.247127
 20
5.338424
 30
0.0
 10
0.807839
 20
5.338424
 30
0.0
  0
SPLINE
  5
138
100
AcDbEntity
  8
Capa_1
 62
7
100
AcDbSpline
 70
8
 71
3
 72
8
 73
4
 74
0
 40
0
 40
0
 40
0
 40
0
 40
1
 40
1
 40
1
 40
1
 10
0.807839
 20
5.338424
 30
0.0
 10
1.368545
 20
5.338424
 30
0.0
 10
1.396849
 20
5.336424
 30
0.0
 10
1.455801
 20
5.292744
 30
0.0
  0
SPLINE
  5
139
100
AcDbEntity
  8
Capa_1
 62
7
100
AcDbSpline
 70
8
 71
3
 72
8
 73
4
 74
0
 40
0
 40
0
 40
0
 40
0
 40
1
 40
1
 40
1
 40
1
 10
1.455801
 20
5.292744
 30
0.0
 10
1.489701
 20
5.267624
 30
0.0
 10
1.539551
 20
5.214584
 30
0.0
 10
1.566573
 20
5.174887
 30
0.0
  0
SPLINE
  5
13a
100
AcDbEntity
  8
Capa_1
 62
7
100
AcDbSpline
 70
8
 71
3
 72
8
 73
4
 74
0
 40
0
 40
0
 40
0
 40
0
 40
1
 40
1
 40
1
 40
1
 10
1.566573
 20
5.174887
 30
0.0
 10
1.600323
 20
5.125287
 30
0.0
 10
1.615703
 20
5.070566
 30
0.0
 10
1.615703
 20
4.999993
 30
0.0
  0
SPLINE
  5
13b
100
AcDbEntity
  8
Capa_1
 62
7
100
AcDbSpline
 70
8
 71
3
 72
8
 73
4
 74
0
 40
0
 40
0
 40
0
 40
0
 40
1
 40
1
 40
1
 40
1
 10
1.615703
 20
4.999993
 30
0.0
 10
1.615703
 20
4.929423
 30
0.0
 10
1.600333
 20
4.874694
 30
0.0
 10
1.566573
 20
4.825098
 30
0.0
  0
SPLINE
  5
13c
100
AcDbEntity
  8
Capa_1
 62
7
100
AcDbSpline
 70
8
 71
3
 72
8
 73
4
 74
0
 40
0
 40
0
 40
0
 40
0
 40
1
 40
1
 40
1
 40
1
 10
1.566573
 20
4.825098
 30
0.0
 10
1.539553
 20
4.785398
 30
0.0
 10
1.489733
 20
4.732358
 30
0.0
 10
1.455853
 20
4.707240
 30
0.0
  0
SPLINE
  5
13d
100
AcDbEntity
  8
Capa_1
 62
7
100
AcDbSpline
 70
8
 71
3
 72
8
 73
4
 74
0
 40
0
 40
0
 40
0
 40
0
 40
1
 40
1
 40
1
 40
1
 10
1.455853
 20
4.707240
 30
0.0
 10
1.397533
 20
4.663990
 30
0.0
 10
1.364423
 20
4.661320
 30
0.0
 10
0.833582
 20
4.656960
 30
0.0
  0
SPLINE
  5
13e
100
AcDbEntity
  8
Capa_1
 62
7
100
AcDbSpline
 70
8
 71
3
 72
8
 73
4
 74
0
 40
0
 40
0
 40
0
 40
0
 40
1
 40
1
 40
1
 40
1
 10
0.833582
 20
4.656960
 30
0.0
 10
0.491096
 20
4.654160
 30
0.0
 10
0.251667
 20
4.661060
 30
0.0
 10
0.218330
 20
4.674650
 30
0.0
  0
LWPOLYLINE
  5
13f
100
AcDbEntity
  8
Capa_1
 62
7
100
AcDbPolyline
 90
1
 70
1
 10
8.154963
 20
1.395334
 30
0.0
  0
SPLINE
  5
140
100
AcDbEntity
  8
Capa_1
 62
7
100
AcDbSpline
 70
8
 71
3
 72
8
 73
4
 74
0
 40
0
 40
0
 40
0
 40
0
 40
1
 40
1
 40
1
 40
1
 10
8.602611
 20
4.674643
 30
0.0
 10
8.572591
 20
4.686903
 30
0.0
 10
8.524991
 20
4.718453
 30
0.0
 10
8.496825
 20
4.744753
 30
0.0
  0
SPLINE
  5
141
100
AcDbEntity
  8
Capa_1
 62
7
100
AcDbSpline
 70
8
 71
3
 72
8
 73
4
 74
0
 40
0
 40
0
 40
0
 40
0
 40
1
 40
1
 40
1
 40
1
 10
8.496825
 20
4.744753
 30
0.0
 10
8.468655
 20
4.771053
 30
0.0
 10
8.431805
 20
4.819103
 30
0.0
 10
8.414935
 20
4.851528
 30
0.0
  0
SPLINE
  5
142
100
AcDbEntity
  8
Capa_1
 62
7
100
AcDbSpline
 70
8
 71
3
 72
8
 73
4
 74
0
 40
0
 40
0
 40
0
 40
0
 40
1
 40
1
 40
1
 40
1
 10
8.414935
 20
4.851528
 30
0.0
 10
8.398065
 20
4.883958
 30
0.0
 10
8.384255
 20
4.953737
 30
0.0
 10
8.384255
 20
5.006596
 30
0.0
  0
SPLINE
  5
143
100
AcDbEntity
  8
Capa_1
 62
7
100
AcDbSpline
 70
8
 71
3
 72
8
 73
4
 74
0
 40
0
 40
0
 40
0
 40
0
 40
1
 40
1
 40
1
 40
1
 10
8.384255
 20
5.006596
 30
0.0
 10
8.384255
 20
5.070316
 30
0.0
 10
8.400805
 20
5.127027
 30
0.0
 10
8.433385
 20
5.174887
 30
0.0
  0
SPLINE
  5
144
100
AcDbEntity
  8
Capa_1
 62
7
100
AcDbSpline
 70
8
 71
3
 72
8
 73
4
 74
0
 40
0
 40
0
 40
0
 40
0
 40
1
 40
1
 40
1
 40
1
 10
8.433385
 20
5.174887
 30
0.0
 10
8.460405
 20
5.214587
 30
0.0
 10
8.510255
 20
5.267627
 30
0.0
 10
8.544156
 20
5.292744
 30
0.0
  0
SPLINE
  5
145
100
AcDbEntity
  8
Capa_1
 62
7
100
AcDbSpline
 70
8
 71
3
 72
8
 73
4
 74
0
 40
0
 40
0
 40
0
 40
0
 40
1
 40
1
 40
1
 40
1
 10
8.544156
 20
5.292744
 30
0.0
 10
8.603106
 20
5.336424
 30
0.0
 10
8.631416
 20
5.338424
 30
0.0
 10
9.192119
 20
5.338424
 30
0.0
  0
SPLINE
  5
146
100
AcDbEntity
  8
Capa_1
 62
7
100
AcDbSpline
 70
8
 71
3
 72
8
 73
4
 74
0
 40
0
 40
0
 40
0
 40
0
 40
1
 40
1
 40
1
 40
1
 10
9.192119
 20
5.338424
 30
0.0
 10
9.752825
 20
5.338424
 30
0.0
 10
9.781129
 20
5.336424
 30
0.0
 10
9.840081
 20
5.292744
 30
0.0
  0
SPLINE
  5
147
100
AcDbEntity
  8
Capa_1
 62
7
100
AcDbSpline
 70
8
 71
3
 72
8
 73
4
 74
0
 40
0
 40
0
 40
0
 40
0
 40
1
 40
1
 40
1
 40
1
 10
9.840081
 20
5.292744
 30
0.0
 10
9.873981
 20
5.267624
 30
0.0
 10
9.923831
 20
5.214584
 30
0.0
 10
9.950852
 20
5.174887
 30
0.0
  0
SPLINE
  5
148
100
AcDbEntity
  8
Capa_1
 62
7
100
AcDbSpline
 70
8
 71
3
 72
8
 73
4
 74
0
 40
0
 40
0
 40
0
 40
0
 40
1
 40
1
 40
1
 40
1
 10
9.950852
 20
5.174887
 30
0.0
 10
9.984602
 20
5.125287
 30
0.0
 10
9.999982
 20
5.070566
 30
0.0
 10
9.999982
 20
4.999993
 30
0.0
  0
SPLINE
  5
149
100
AcDbEntity
  8
Capa_1
 62
7
100
AcDbSpline
 70
8
 71
3
 72
8
 73
4
 74
0
 40
0
 40
0
 40
0
 40
0
 40
1
 40
1
 40
1
 40
1
 10
9.999982
 20
4.999993
 30
0.0
 10
9.999982
 20
4.929423
 30
0.0
 10
9.984612
 20
4.874694
 30
0.0
 10
9.950852
 20
4.825098
 30
0.0
  0
SPLINE
  5
14a
100
AcDbEntity
  8
Capa_1
 62
7
100
AcDbSpline
 70
8
 71
3
 72
8
 73
4
 74
0
 40
0
 40
0
 40
0
 40
0
 40
1
 40
1
 40
1
 40
1
 10
9.950852
 20
4.825098
 30
0.0
 10
9.923832
 20
4.785398
 30
0.0
 10
9.874012
 20
4.732358
 30
0.0
 10
9.840133
 20
4.707240
 30
0.0
  0
SPLINE
  5
14b
100
AcDbEntity
  8
Capa_1
 62
7
100
AcDbSpline
 70
8
 71
3
 72
8
 73
4
 74
0
 40
0
 40
0
 40
0
 40
0
 40
1
 40
1
 40
1
 40
1
 10
9.840133
 20
4.707240
 30
0.0
 10
9.781813
 20
4.663990
 30
0.0
 10
9.748703
 20
4.661320
 30
0.0
 10
9.217862
 20
4.656960
 30
0.0
  0
SPLINE
  5
14c
100
AcDbEntity
  8
Capa_1
 62
7
100
AcDbSpline
 70
8
 71
3
 72
8
 73
4
 74
0
 40
0
 40
0
 40
0
 40
0
 40
1
 40
1
 40
1
 40
1
 10
9.217862
 20
4.656960
 30
0.0
 10
8.875375
 20
4.654160
 30
0.0
 10
8.635947
 20
4.661060
 30
0.0
 10
8.602610
 20
4.674650
 30
0.0
  0
LWPOLYLINE
  5
14d
100
AcDbEntity
  8
Capa_1
 62
7
100
AcDbPolyline
 90
1
 70
1
 10
0.218330
 20
4.674650
 30
0.0
  0
SPLINE
  5
14e
100
AcDbEntity
  8
Capa_1
 62
7
100
AcDbSpline
 70
8
 71
3
 72
8
 73
4
 74
0
 40
0
 40
0
 40
0
 40
0
 40
1
 40
1
 40
1
 40
1
 10
2.194303
 20
7.334057
 30
0.0
 10
2.158273
 20
7.356787
 30
0.0
 10
1.969618
 20
7.536061
 30
0.0
 10
1.775060
 20
7.732447
 30
0.0
  0
SPLINE
  5
14f
100
AcDbEntity
  8
Capa_1
 62
7
100
AcDbSpline
 70
8
 71
3
 72
8
 73
4
 74
0
 40
0
 40
0
 40
0
 40
0
 40
1
 40
1
 40
1
 40
1
 10
1.775060
 20
7.732447
 30
0.0
 10
1.580503
 20
7.928833
 30
0.0
 10
1.411017
 20
8.117172
 30
0.0
 10
1.398423
 20
8.150978
 30
0.0
  0
SPLINE
  5
150
100
AcDbEntity
  8
Capa_1
 62
7
100
AcDbSpline
 70
8
 71
3
 72
8
 73
4
 74
0
 40
0
 40
0
 40
0
 40
0
 40
1
 40
1
 40
1
 40
1
 10
1.398423
 20
8.150978
 30
0.0
 10
1.385833
 20
8.184788
 30
0.0
 10
1.375523
 20
8.249648
 30
0.0
 10
1.375523
 20
8.295129
 30
0.0
  0
SPLINE
  5
151
100
AcDbEntity
  8
Capa_1
 62
7
100
AcDbSpline
 70
8
 71
3
 72
8
 73
4
 74
0
 40
0
 40
0
 40
0
 40
0
 40
1
 40
1
 40
1
 40
1
 10
1.375523
 20
8.295129
 30
0.0
 10
1.375523
 20
8.344979
 30
0.0
 10
1.395243
 20
8.407072
 30
0.0
 10
1.425173
 20
8.451485
 30
0.0
  0
SPLINE
  5
152
100
AcDbEntity
  8
Capa_1
 62
7
100
AcDbSpline
 70
8
 71
3
 72
8
 73
4
 74
0
 40
0
 40
0
 40
0
 40
0
 40
1
 40
1
 40
1
 40
1
 10
1.425173
 20
8.451485
 30
0.0
 10
1.452473
 20
8.492005
 30
0.0
 10
1.507973
 20
8.547495
 30
0.0
 10
1.548489
 20
8.574802
 30
0.0
  0
SPLINE
  5
153
100
AcDbEntity
  8
Capa_1
 62
7
100
AcDbSpline
 70
8
 71
3
 72
8
 73
4
 74
0
 40
0
 40
0
 40
0
 40
0
 40
1
 40
1
 40
1
 40
1
 10
1.548489
 20
8.574802
 30
0.0
 10
1.593709
 20
8.605272
 30
0.0
 10
1.654910
 20
8.624452
 30
0.0
 10
1.706968
 20
8.624452
 30
0.0
  0
SPLINE
  5
154
100
AcDbEntity
  8
Capa_1
 62
7
100
AcDbSpline
 70
8
 71
3
 72
8
 73
4
 74
0
 40
0
 40
0
 40
0
 40
0
 40
1
 40
1
 40
1
 40
1
 10
1.706968
 20
8.624452
 30
0.0
 10
1.753608
 20
8.624452
 30
0.0
 10
1.823393
 20
8.610722
 30
0.0
 10
1.862036
 20
8.593932
 30
0.0
  0
SPLINE
  5
155
100
AcDbEntity
  8
Capa_1
 62
7
100
AcDbSpline
 70
8
 71
3
 72
8
 73
4
 74
0
 40
0
 40
0
 40
0
 40
0
 40
1
 40
1
 40
1
 40
1
 10
1.862036
 20
8.593932
 30
0.0
 10
1.900676
 20
8.577142
 30
0.0
 10
2.096392
 20
8.397832
 30
0.0
 10
2.296955
 20
8.195460
 30
0.0
  0
SPLINE
  5
156
100
AcDbEntity
  8
Capa_1
 62
7
100
AcDbSpline
 70
8
 71
3
 72
8
 73
4
 74
0
 40
0
 40
0
 40
0
 40
0
 40
1
 40
1
 40
1
 40
1
 10
2.296955
 20
8.195460
 30
0.0
 10
2.497517
 20
7.993088
 30
0.0
 10
2.671917
 20
7.799852
 30
0.0
 10
2.684509
 20
7.766045
 30
0.0
  0
SPLINE
  5
157
100
AcDbEntity
  8
Capa_1
 62
7
100
AcDbSpline
 70
8
 71
3
 72
8
 73
4
 74
0
 40
0
 40
0
 40
0
 40
0
 40
1
 40
1
 40
1
 40
1
 10
2.684509
 20
7.766045
 30
0.0
 10
2.697099
 20
7.732245
 30
0.0
 10
2.707239
 20
7.668375
 30
0.0
 10
2.707049
 20
7.624124
 30
0.0
  0
SPLINE
  5
158
100
AcDbEntity
  8
Capa_1
 62
7
100
AcDbSpline
 70
8
 71
3
 72
8
 73
4
 74
0
 40
0
 40
0
 40
0
 40
0
 40
1
 40
1
 40
1
 40
1
 10
2.707049
 20
7.624124
 30
0.0
 10
2.706851
 20
7.579874
 30
0.0
 10
2.684739
 20
7.505389
 30
0.0
 10
2.657919
 20
7.458605
 30
0.0
  0
SPLINE
  5
159
100
AcDbEntity
  8
Capa_1
 62
7
100
AcDbSpline
 70
8
 71
3
 72
8
 73
4
 74
0
 40
0
 40
0
 40
0
 40
0
 40
1
 40
1
 40
1
 40
1
 10
2.657919
 20
7.458605
 30
0.0
 10
2.631099
 20
7.411815
 30
0.0
 10
2.574919
 20
7.355324
 30
0.0
 10
2.533073
 20
7.333058
 30
0.0
  0
SPLINE
  5
15a
100
AcDbEntity
  8
Capa_1
 62
7
100
AcDbSpline
 70
8
 71
3
 72
8
 73
4
 74
0
 40
0
 40
0
 40
0
 40
0
 40
1
 40
1
 40
1
 40
1
 10
2.533073
 20
7.333058
 30
0.0
 10
2.491213
 20
7.310788
 30
0.0
 10
2.412647
 20
7.292608
 30
0.0
 10
2.358401
 20
7.292658
 30
0.0
  0
SPLINE
  5
15b
100
AcDbEntity
  8
Capa_1
 62
7
100
AcDbSpline
 70
8
 71
3
 72
8
 73
4
 74
0
 40
0
 40
0
 40
0
 40
0
 40
1
 40
1
 40
1
 40
1
 10
2.358401
 20
7.292658
 30
0.0
 10
2.299421
 20
7.292702
 30
0.0
 10
2.233487
 20
7.309348
 30
0.0
 10
2.194305
 20
7.334058
 30
0.0
  0
LWPOLYLINE
  5
15c
100
AcDbEntity
  8
Capa_1
 62
7
100
AcDbPolyline
 90
1
 70
1
 10
8.602610
 20
4.674650
 30
0.0
  0
SPLINE
  5
15d
100
AcDbEntity
  8
Capa_1
 62
7
100
AcDbSpline
 70
8
 71
3
 72
8
 73
4
 74
0
 40
0
 40
0
 40
0
 40
0
 40
1
 40
1
 40
1
 40
1
 10
7.471992
 20
7.328857
 30
0.0
 10
7.432582
 20
7.348277
 30
0.0
 10
7.380402
 20
7.392177
 30
0.0
 10
7.356024
 20
7.426407
 30
0.0
  0
SPLINE
  5
15e
100
AcDbEntity
  8
Capa_1
 62
7
100
AcDbSpline
 70
8
 71
3
 72
8
 73
4
 74
0
 40
0
 40
0
 40
0
 40
0
 40
1
 40
1
 40
1
 40
1
 10
7.356024
 20
7.426407
 30
0.0
 10
7.331654
 20
7.460637
 30
0.0
 10
7.306204
 20
7.522567
 30
0.0
 10
7.299474
 20
7.564045
 30
0.0
  0
SPLINE
  5
15f
100
AcDbEntity
  8
Capa_1
 62
7
100
AcDbSpline
 70
8
 71
3
 72
8
 73
4
 74
0
 40
0
 40
0
 40
0
 40
0
 40
1
 40
1
 40
1
 40
1
 10
7.299474
 20
7.564045
 30
0.0
 10
7.292774
 20
7.605515
 30
0.0
 10
7.294174
 20
7.676846
 30
0.0
 10
7.302574
 20
7.722550
 30
0.0
  0
SPLINE
  5
160
100
AcDbEntity
  8
Capa_1
 62
7
100
AcDbSpline
 70
8
 71
3
 72
8
 73
4
 74
0
 40
0
 40
0
 40
0
 40
0
 40
1
 40
1
 40
1
 40
1
 10
7.302574
 20
7.722550
 30
0.0
 10
7.315544
 20
7.792620
 30
0.0
 10
7.376714
 20
7.865070
 30
0.0
 10
7.692787
 20
8.184731
 30
0.0
  0
SPLINE
  5
161
100
AcDbEntity
  8
Capa_1
 62
7
100
AcDbSpline
 70
8
 71
3
 72
8
 73
4
 74
0
 40
0
 40
0
 40
0
 40
0
 40
1
 40
1
 40
1
 40
1
 10
7.692787
 20
8.184731
 30
0.0
 10
7.898945
 20
8.393227
 30
0.0
 10
8.099237
 20
8.577452
 30
0.0
 10
8.137879
 20
8.594120
 30
0.0
  0
SPLINE
  5
162
100
AcDbEntity
  8
Capa_1
 62
7
100
AcDbSpline
 70
8
 71
3
 72
8
 73
4
 74
0
 40
0
 40
0
 40
0
 40
0
 40
1
 40
1
 40
1
 40
1
 10
8.137879
 20
8.594120
 30
0.0
 10
8.176519
 20
8.610790
 30
0.0
 10
8.246303
 20
8.624430
 30
0.0
 10
8.292948
 20
8.624430
 30
0.0
  0
SPLINE
  5
163
100
AcDbEntity
  8
Capa_1
 62
7
100
AcDbSpline
 70
8
 71
3
 72
8
 73
4
 74
0
 40
0
 40
0
 40
0
 40
0
 40
1
 40
1
 40
1
 40
1
 10
8.292948
 20
8.624430
 30
0.0
 10
8.345008
 20
8.624430
 30
0.0
 10
8.406206
 20
8.605260
 30
0.0
 10
8.451426
 20
8.574780
 30
0.0
  0
SPLINE
  5
164
100
AcDbEntity
  8
Capa_1
 62
7
100
AcDbSpline
 70
8
 71
3
 72
8
 73
4
 74
0
 40
0
 40
0
 40
0
 40
0
 40
1
 40
1
 40
1
 40
1
 10
8.451426
 20
8.574780
 30
0.0
 10
8.491946
 20
8.547470
 30
0.0
 10
8.547436
 20
8.491980
 30
0.0
 10
8.574742
 20
8.451464
 30
0.0
  0
SPLINE
  5
165
100
AcDbEntity
  8
Capa_1
 62
7
100
AcDbSpline
 70
8
 71
3
 72
8
 73
4
 74
0
 40
0
 40
0
 40
0
 40
0
 40
1
 40
1
 40
1
 40
1
 10
8.574742
 20
8.451464
 30
0.0
 10
8.604672
 20
8.407054
 30
0.0
 10
8.624392
 20
8.344957
 30
0.0
 10
8.624392
 20
8.295108
 30
0.0
  0
SPLINE
  5
166
100
AcDbEntity
  8
Capa_1
 62
7
100
AcDbSpline
 70
8
 71
3
 72
8
 73
4
 74
0
 40
0
 40
0
 40
0
 40
0
 40
1
 40
1
 40
1
 40
1
 10
8.624392
 20
8.295108
 30
0.0
 10
8.624392
 20
8.249628
 30
0.0
 10
8.614092
 20
8.184763
 30
0.0
 10
8.601502
 20
8.150957
 30
0.0
  0
SPLINE
  5
167
100
AcDbEntity
  8
Capa_1
 62
7
100
AcDbSpline
 70
8
 71
3
 72
8
 73
4
 74
0
 40
0
 40
0
 40
0
 40
0
 40
1
 40
1
 40
1
 40
1
 10
8.601502
 20
8.150957
 30
0.0
 10
8.588912
 20
8.117147
 30
0.0
 10
8.414510
 20
7.924253
 30
0.0
 10
8.213948
 20
7.722293
 30
0.0
  0
SPLINE
  5
168
100
AcDbEntity
  8
Capa_1
 62
7
100
AcDbSpline
 70
8
 71
3
 72
8
 73
4
 74
0
 40
0
 40
0
 40
0
 40
0
 40
1
 40
1
 40
1
 40
1
 10
8.213948
 20
7.722293
 30
0.0
 10
8.013385
 20
7.520333
 30
0.0
 10
7.822756
 20
7.341021
 30
0.0
 10
7.790329
 20
7.323821
 30
0.0
  0
SPLINE
  5
169
100
AcDbEntity
  8
Capa_1
 62
7
100
AcDbSpline
 70
8
 71
3
 72
8
 73
4
 74
0
 40
0
 40
0
 40
0
 40
0
 40
1
 40
1
 40
1
 40
1
 10
7.790329
 20
7.323821
 30
0.0
 10
7.757899
 20
7.306621
 30
0.0
 10
7.689123
 20
7.292771
 30
0.0
 10
7.637490
 20
7.293051
 30
0.0
  0
SPLINE
  5
16a
100
AcDbEntity
  8
Capa_1
 62
7
100
AcDbSpline
 70
8
 71
3
 72
8
 73
4
 74
0
 40
0
 40
0
 40
0
 40
0
 40
1
 40
1
 40
1
 40
1
 10
7.637490
 20
7.293051
 30
0.0
 10
7.585860
 20
7.293298
 30
0.0
 10
7.511366
 20
7.309441
 30
0.0
 10
7.471956
 20
7.328861
 30
0.0
  0
LWPOLYLINE
  5
16b
100
AcDbEntity
  8
Capa_1
 62
7
100
AcDbPolyline
 90
1
 70
1
 10
2.194305
 20
7.334058
 30
0.0
  0
SPLINE
  5
16c
100
AcDbEntity
  8
Capa_1
 62
7
100
AcDbSpline
 70
8
 71
3
 72
8
 73
4
 74
0
 40
0
 40
0
 40
0
 40
0
 40
1
 40
1
 40
1
 40
1
 10
4.825085
 20
8.433374
 30
0.0
 10
4.785385
 20
8.460394
 30
0.0
 10
4.732345
 20
8.510244
 30
0.0
 10
4.707227
 20
8.544145
 30
0.0
  0
SPLINE
  5
16d
100
AcDbEntity
  8
Capa_1
 62
7
100
AcDbSpline
 70
8
 71
3
 72
8
 73
4
 74
0
 40
0
 40
0
 40
0
 40
0
 40
1
 40
1
 40
1
 40
1
 10
4.707227
 20
8.544145
 30
0.0
 10
4.663547
 20
8.603095
 30
0.0
 10
4.661547
 20
8.631405
 30
0.0
 10
4.661547
 20
9.192107
 30
0.0
  0
SPLINE
  5
16e
100
AcDbEntity
  8
Capa_1
 62
7
100
AcDbSpline
 70
8
 71
3
 72
8
 73
4
 74
0
 40
0
 40
0
 40
0
 40
0
 40
1
 40
1
 40
1
 40
1
 10
4.661547
 20
9.192107
 30
0.0
 10
4.661547
 20
9.752814
 30
0.0
 10
4.663547
 20
9.781118
 30
0.0
 10
4.707227
 20
9.840070
 30
0.0
  0
SPLINE
  5
16f
100
AcDbEntity
  8
Capa_1
 62
7
100
AcDbSpline
 70
8
 71
3
 72
8
 73
4
 74
0
 40
0
 40
0
 40
0
 40
0
 40
1
 40
1
 40
1
 40
1
 10
4.707227
 20
9.840070
 30
0.0
 10
4.732347
 20
9.873970
 30
0.0
 10
4.785387
 20
9.923820
 30
0.0
 10
4.825085
 20
9.950841
 30
0.0
  0
SPLINE
  5
170
100
AcDbEntity
  8
Capa_1
 62
7
100
AcDbSpline
 70
8
 71
3
 72
8
 73
4
 74
0
 40
0
 40
0
 40
0
 40
0
 40
1
 40
1
 40
1
 40
1
 10
4.825085
 20
9.950841
 30
0.0
 10
4.874685
 20
9.984591
 30
0.0
 10
4.929406
 20
9.999971
 30
0.0
 10
4.999980
 20
9.999971
 30
0.0
  0
SPLINE
  5
171
100
AcDbEntity
  8
Capa_1
 62
7
100
AcDbSpline
 70
8
 71
3
 72
8
 73
4
 74
0
 40
0
 40
0
 40
0
 40
0
 40
1
 40
1
 40
1
 40
1
 10
4.999980
 20
9.999971
 30
0.0
 10
5.070550
 20
9.999971
 30
0.0
 10
5.125278
 20
9.984601
 30
0.0
 10
5.174874
 20
9.950841
 30
0.0
  0
SPLINE
  5
172
100
AcDbEntity
  8
Capa_1
 62
7
100
AcDbSpline
 70
8
 71
3
 72
8
 73
4
 74
0
 40
0
 40
0
 40
0
 40
0
 40
1
 40
1
 40
1
 40
1
 10
5.174874
 20
9.950841
 30
0.0
 10
5.214574
 20
9.923821
 30
0.0
 10
5.267614
 20
9.873971
 30
0.0
 10
5.292732
 20
9.840070
 30
0.0
  0
SPLINE
  5
173
100
AcDbEntity
  8
Capa_1
 62
7
100
AcDbSpline
 70
8
 71
3
 72
8
 73
4
 74
0
 40
0
 40
0
 40
0
 40
0
 40
1
 40
1
 40
1
 40
1
 10
5.292732
 20
9.840070
 30
0.0
 10
5.336412
 20
9.781120
 30
0.0
 10
5.338412
 20
9.752810
 30
0.0
 10
5.338412
 20
9.192107
 30
0.0
  0
SPLINE
  5
174
100
AcDbEntity
  8
Capa_1
 62
7
100
AcDbSpline
 70
8
 71
3
 72
8
 73
4
 74
0
 40
0
 40
0
 40
0
 40
0
 40
1
 40
1
 40
1
 40
1
 10
5.338412
 20
9.192107
 30
0.0
 10
5.338412
 20
8.631401
 30
0.0
 10
5.336412
 20
8.603097
 30
0.0
 10
5.292732
 20
8.544145
 30
0.0
  0
SPLINE
  5
175
100
AcDbEntity
  8
Capa_1
 62
7
100
AcDbSpline
 70
8
 71
3
 72
8
 73
4
 74
0
 40
0
 40
0
 40
0
 40
0
 40
1
 40
1
 40
1
 40
1
 10
5.292732
 20
8.544145
 30
0.0
 10
5.267612
 20
8.510245
 30
0.0
 10
5.214572
 20
8.460395
 30
0.0
 10
5.174874
 20
8.433374
 30
0.0
  0
SPLINE
  5
176
100
AcDbEntity
  8
Capa_1
 62
7
100
AcDbSpline
 70
8
 71
3
 72
8
 73
4
 74
0
 40
0
 40
0
 40
0
 40
0
 40
1
 40
1
 40
1
 40
1
 10
5.174874
 20
8.433374
 30
0.0
 10
5.125274
 20
8.399614
 30
0.0
 10
5.070553
 20
8.384244
 30
0.0
 10
4.999980
 20
8.384244
 30
0.0
  0
SPLINE
  5
177
100
AcDbEntity
  8
Capa_1
 62
7
100
AcDbSpline
 70
8
 71
3
 72
8
 73
4
 74
0
 40
0
 40
0
 40
0
 40
0
 40
1
 40
1
 40
1
 40
1
 10
4.999980
 20
8.384244
 30
0.0
 10
4.929410
 20
8.384244
 30
0.0
 10
4.874681
 20
8.399614
 30
0.0
 10
4.825085
 20
8.433374
 30
0.0
  0
LWPOLYLINE
  5
178
100
AcDbEntity
  8
Capa_1
 62
7
100
AcDbPolyline
 90
1
 70
1
 10
7.471956
 20
7.328861
 30
0.0
  0
LWPOLYLINE
  5
179
100
AcDbEntity
  8
Capa_1
 62
7
100
AcDbPolyline
 90
1
 70
1
 10
4.825085
 20
8.433374
 30
0.0
  0
ENDSEC
  0
SECTION
  2
OBJECTS
  0
DICTIONARY
  5
C
330
0
100
AcDbDictionary
  3
ACAD_GROUP
350
D
  3
ACAD_MLINESTYLE
350
17
  0
DICTIONARY
  5
D
330
C
100
AcDbDictionary
  0
DICTIONARY
  5
1A
330
C
100
AcDbDictionary
  0
DICTIONARY
  5
17
330
C
100
AcDbDictionary
  3
STANDARD
350
18
  0
DICTIONARY
  5
19
330
C
100
AcDbDictionary
  0
ENDSEC
  0
EOF
