<?xml version="1.0" encoding="UTF-8" standalone="no"?>
<!-- Created with Inkscape (http://www.inkscape.org/) -->

<svg
   width="10.000007mm"
   height="10.000018mm"
   viewBox="0 0 10.000007 10.000018"
   version="1.1"
   id="svg3843"
   xml:space="preserve"
   inkscape:version="1.2.2 (732a01da63, 2022-12-09)"
   sodipodi:docname="led.svg"
   xmlns:inkscape="http://www.inkscape.org/namespaces/inkscape"
   xmlns:sodipodi="http://sodipodi.sourceforge.net/DTD/sodipodi-0.dtd"
   xmlns="http://www.w3.org/2000/svg"
   xmlns:svg="http://www.w3.org/2000/svg"><sodipodi:namedview
     id="namedview3845"
     pagecolor="#505050"
     bordercolor="#eeeeee"
     borderopacity="1"
     inkscape:showpageshadow="0"
     inkscape:pageopacity="0"
     inkscape:pagecheckerboard="0"
     inkscape:deskcolor="#505050"
     inkscape:document-units="mm"
     showgrid="false"
     inkscape:zoom="13.455443"
     inkscape:cx="10.739148"
     inkscape:cy="18.468362"
     inkscape:window-width="1920"
     inkscape:window-height="1111"
     inkscape:window-x="-9"
     inkscape:window-y="-9"
     inkscape:window-maximized="1"
     inkscape:current-layer="layer1" /><defs
     id="defs3840" /><g
     inkscape:label="Capa 1"
     inkscape:groupmode="layer"
     id="layer1"
     transform="translate(-45.438175,-51.526647)"><path
       style="fill:#000000;stroke-width:0.264583"
       id="path3864"
       d="" /><path
       id="path4065"
       style="opacity:1;stroke-width:2.64871"
       d="m 52.938179,56.526657 a 2.5,2.5 0 0 1 -2.5,2.5 2.5,2.5 0 0 1 -2.5,-2.5 2.5,2.5 0 0 1 2.5,-2.5 2.5,2.5 0 0 1 2.5,2.5 z m -2.674894,4.950878 c -0.0397,-0.02702 -0.09274,-0.07687 -0.117858,-0.110771 -0.04368,-0.05895 -0.04568,-0.08726 -0.04568,-0.647963 0,-0.560706 0.002,-0.589009 0.04568,-0.647962 0.02512,-0.0339 0.07816,-0.08375 0.117858,-0.110771 0.0496,-0.03375 0.104321,-0.04913 0.174895,-0.04913 0.07057,0 0.125298,0.01537 0.174894,0.04913 0.0397,0.02702 0.09274,0.07687 0.117858,0.110771 0.04368,0.05895 0.04568,0.08726 0.04568,0.647962 0,0.560707 -0.002,0.589011 -0.04568,0.647963 -0.02512,0.0339 -0.07816,0.08375 -0.117858,0.110771 -0.0496,0.03375 -0.104321,0.04913 -0.174894,0.04913 -0.07057,0 -0.125299,-0.01537 -0.174895,-0.04913 z m -3.268977,-1.347463 c -0.0533,-0.0242 -0.110971,-0.07246 -0.1364,-0.11415 -0.02423,-0.03973 -0.05017,-0.104585 -0.05764,-0.144132 -0.0084,-0.04459 -1.4e-4,-0.107108 0.02181,-0.16459 0.02638,-0.06908 0.13409,-0.190721 0.422912,-0.477614 0.325485,-0.323312 0.400621,-0.387351 0.469393,-0.400068 0.04503,-0.0083 0.118237,-0.0083 0.162676,1.8e-5 0.05071,0.0095 0.111018,0.04538 0.161945,0.0963 0.05093,0.05093 0.08679,0.111235 0.0963,0.161944 0.0083,0.04444 0.0083,0.117644 6e-6,0.162677 -0.01268,0.06851 -0.07634,0.14377 -0.389985,0.461021 -0.230392,0.233043 -0.408487,0.394821 -0.462168,0.419827 -0.04803,0.02237 -0.1119,0.04068 -0.141922,0.04068 -0.03002,0 -0.09614,-0.01886 -0.146928,-0.04192 z m 6.598894,0.0012 c -0.05365,-0.02499 -0.231974,-0.186925 -0.462321,-0.419826 -0.236589,-0.239214 -0.380617,-0.401783 -0.390247,-0.440487 -0.0084,-0.03374 -0.01045,-0.104075 -0.0046,-0.156302 0.0059,-0.05223 0.03147,-0.124122 0.05685,-0.159764 0.02538,-0.03564 0.07976,-0.08075 0.120836,-0.100248 0.04108,-0.01949 0.115451,-0.03544 0.165269,-0.03544 0.04982,0 0.117111,0.01397 0.149539,0.03105 0.03243,0.01708 0.22721,0.2013 0.43285,0.409388 0.272192,0.275434 0.381044,0.400634 0.40019,0.460297 0.01475,0.04596 0.01971,0.113087 0.01131,0.152838 -0.0082,0.03899 -0.03395,0.10212 -0.05713,0.140297 -0.02317,0.03818 -0.08417,0.08976 -0.135543,0.114629 -0.05137,0.02487 -0.117324,0.045 -0.146556,0.04474 -0.02923,-2.47e-4 -0.09245,-0.01879 -0.140486,-0.04116 z m -7.936671,-3.279297 c -0.03002,-0.01226 -0.07762,-0.04381 -0.105786,-0.07011 -0.02817,-0.0263 -0.06502,-0.07435 -0.08189,-0.106775 -0.01687,-0.03243 -0.03068,-0.102209 -0.03068,-0.155068 0,-0.06372 0.01655,-0.120431 0.04913,-0.168291 0.02702,-0.0397 0.07687,-0.09274 0.110772,-0.117857 0.05895,-0.04368 0.08725,-0.04568 0.647962,-0.04568 0.560706,0 0.58901,0.002 0.647962,0.04568 0.0339,0.02512 0.08375,0.07816 0.110772,0.117857 0.03375,0.0496 0.04913,0.104321 0.04913,0.174894 0,0.07057 -0.01537,0.125299 -0.04913,0.174895 -0.02702,0.0397 -0.07684,0.09274 -0.11072,0.117858 -0.05832,0.04325 -0.09143,0.04592 -0.622271,0.05028 -0.342486,0.0028 -0.581915,-0.0041 -0.615252,-0.01769 z m 8.38428,0 c -0.03002,-0.01226 -0.07762,-0.04381 -0.105786,-0.07011 -0.02817,-0.0263 -0.06502,-0.07435 -0.08189,-0.106775 -0.01687,-0.03243 -0.03068,-0.102209 -0.03068,-0.155068 0,-0.06372 0.01655,-0.120431 0.04913,-0.168291 0.02702,-0.0397 0.07687,-0.09274 0.110771,-0.117857 0.05895,-0.04368 0.08726,-0.04568 0.647963,-0.04568 0.560706,0 0.58901,0.002 0.647962,0.04568 0.0339,0.02512 0.08375,0.07816 0.110771,0.117857 0.03375,0.0496 0.04913,0.104321 0.04913,0.174894 0,0.07057 -0.01537,0.125299 -0.04913,0.174895 -0.02702,0.0397 -0.07684,0.09274 -0.110719,0.117858 -0.05832,0.04325 -0.09143,0.04592 -0.622271,0.05028 -0.342487,0.0028 -0.581915,-0.0041 -0.615252,-0.01769 z m -6.408308,-2.659414 c -0.03603,-0.02273 -0.224685,-0.202004 -0.419243,-0.39839 -0.194557,-0.196386 -0.364043,-0.384725 -0.376637,-0.418531 -0.01259,-0.03381 -0.0229,-0.09867 -0.0229,-0.144151 0,-0.04985 0.01972,-0.111943 0.04965,-0.156356 0.0273,-0.04052 0.0828,-0.09601 0.123316,-0.123317 0.04522,-0.03047 0.106421,-0.04965 0.158479,-0.04965 0.04664,0 0.116425,0.01373 0.155068,0.03052 0.03864,0.01679 0.234356,0.1961 0.434919,0.398472 0.200562,0.202372 0.374962,0.395608 0.387554,0.429415 0.01259,0.0338 0.02273,0.09767 0.02254,0.141921 -1.98e-4,0.04425 -0.02231,0.118735 -0.04913,0.165519 -0.02682,0.04679 -0.083,0.103281 -0.124846,0.125547 -0.04186,0.02227 -0.120426,0.04045 -0.174672,0.0404 -0.05898,-4.4e-5 -0.124914,-0.01669 -0.164096,-0.0414 z m 5.277689,0.0052 c -0.03941,-0.01942 -0.09159,-0.06332 -0.115968,-0.09755 -0.02437,-0.03423 -0.04982,-0.09616 -0.05655,-0.137638 -0.0067,-0.04147 -0.0053,-0.112801 0.0031,-0.158505 0.01297,-0.07007 0.07414,-0.14252 0.390213,-0.462181 0.206158,-0.208496 0.40645,-0.392721 0.445092,-0.409389 0.03864,-0.01667 0.108424,-0.03031 0.155069,-0.03031 0.05206,0 0.113258,0.01917 0.158478,0.04965 0.04052,0.02731 0.09601,0.0828 0.123316,0.123316 0.02993,0.04441 0.04965,0.106507 0.04965,0.156356 0,0.04548 -0.0103,0.110345 -0.02289,0.144151 -0.01259,0.03381 -0.186992,0.226704 -0.387554,0.428664 -0.200563,0.20196 -0.391192,0.381272 -0.423619,0.398472 -0.03243,0.0172 -0.101206,0.03105 -0.152839,0.03077 -0.05163,-2.47e-4 -0.126124,-0.01639 -0.165534,-0.03581 z m -2.646907,-1.104517 c -0.0397,-0.02702 -0.09274,-0.07687 -0.117858,-0.110771 -0.04368,-0.05895 -0.04568,-0.08726 -0.04568,-0.647962 0,-0.560707 0.002,-0.589011 0.04568,-0.647963 0.02512,-0.0339 0.07816,-0.08375 0.117858,-0.110771 0.0496,-0.03375 0.104321,-0.04913 0.174895,-0.04913 0.07057,0 0.125298,0.01537 0.174894,0.04913 0.0397,0.02702 0.09274,0.07687 0.117858,0.110771 0.04368,0.05895 0.04568,0.08726 0.04568,0.647963 0,0.560706 -0.002,0.58901 -0.04568,0.647962 -0.02512,0.0339 -0.07816,0.08375 -0.117858,0.110771 -0.0496,0.03376 -0.104321,0.04913 -0.174894,0.04913 -0.07057,0 -0.125299,-0.01537 -0.174895,-0.04913 z" /></g></svg>
