<?xml version="1.0" encoding="UTF-8" standalone="no"?>
<!-- Created with Inkscape (http://www.inkscape.org/) -->

<svg
   width="14.999996mm"
   height="15.000007mm"
   viewBox="0 0 14.999996 15.000007"
   version="1.1"
   id="svg4191"
   xml:space="preserve"
   inkscape:version="1.2.2 (732a01da63, 2022-12-09)"
   sodipodi:docname="music.svg"
   xmlns:inkscape="http://www.inkscape.org/namespaces/inkscape"
   xmlns:sodipodi="http://sodipodi.sourceforge.net/DTD/sodipodi-0.dtd"
   xmlns="http://www.w3.org/2000/svg"
   xmlns:svg="http://www.w3.org/2000/svg"><sodipodi:namedview
     id="namedview4193"
     pagecolor="#505050"
     bordercolor="#eeeeee"
     borderopacity="1"
     inkscape:showpageshadow="0"
     inkscape:pageopacity="0"
     inkscape:pagecheckerboard="0"
     inkscape:deskcolor="#505050"
     inkscape:document-units="mm"
     showgrid="false"
     inkscape:zoom="13.455443"
     inkscape:cx="30.582419"
     inkscape:cy="28.650115"
     inkscape:window-width="1920"
     inkscape:window-height="1111"
     inkscape:window-x="-9"
     inkscape:window-y="-9"
     inkscape:window-maximized="1"
     inkscape:current-layer="layer1" /><defs
     id="defs4188" /><g
     inkscape:label="Capa 1"
     inkscape:groupmode="layer"
     id="layer1"
     transform="translate(-18.144264,-16.935774)"><path
       style="fill:#000000;stroke-width:0.0293131"
       d="m 20.355746,31.904851 c -0.86894,-0.125347 -1.677296,-0.648224 -2.002968,-1.295601 -0.114663,-0.227929 -0.209178,-0.595184 -0.20851,-0.810215 0.0014,-0.44232 0.195076,-0.909828 0.525866,-1.269197 0.836646,-0.908923 2.382913,-1.142004 3.572587,-0.538523 0.081,0.04109 0.154309,0.07471 0.162901,0.07471 0.0086,0 0.0157,-2.147932 0.01579,-4.773182 1.1e-4,-3.360272 0.0096,-4.807912 0.03217,-4.890497 0.04396,-0.161132 0.145561,-0.286946 0.279712,-0.346395 0.140665,-0.06234 9.810937,-1.14814 9.971495,-1.119625 0.156959,0.02788 0.307987,0.14217 0.377322,0.285546 l 0.06215,0.128509 -5.54e-4,5.761088 c -5.53e-4,6.420044 0.01393,5.973195 -0.207978,6.414569 -0.405595,0.806756 -1.373901,1.326179 -2.472265,1.326179 -0.585865,0 -1.083576,-0.129453 -1.585495,-0.412378 -0.272356,-0.153524 -0.679165,-0.544466 -0.824596,-0.792435 -0.435008,-0.741712 -0.314647,-1.608027 0.311899,-2.244925 0.861241,-0.87547 2.338725,-1.076746 3.52046,-0.479588 l 0.174463,0.08815 V 23.87116 20.731278 l -0.09521,0.01582 c -0.05238,0.0087 -1.947576,0.220842 -4.211566,0.471429 -2.263993,0.250584 -4.145709,0.462004 -4.181594,0.469819 l -0.06525,0.01421 -0.0081,4.200892 c -0.0077,4.004645 -0.01063,4.208427 -0.06256,4.362198 -0.202431,0.599754 -0.60965,1.046557 -1.229873,1.349423 -0.560095,0.273505 -1.232796,0.378858 -1.850311,0.28978 z"
       id="path4212" /></g></svg>
