<?xml version="1.0" encoding="UTF-8" standalone="no"?>
<!-- Created with Inkscape (http://www.inkscape.org/) -->

<svg
   width="11.999976mm"
   height="7.1273341mm"
   viewBox="0 0 11.999976 7.1273341"
   version="1.1"
   id="svg4134"
   xml:space="preserve"
   inkscape:version="1.2.2 (732a01da63, 2022-12-09)"
   sodipodi:docname="play_pause.svg"
   xmlns:inkscape="http://www.inkscape.org/namespaces/inkscape"
   xmlns:sodipodi="http://sodipodi.sourceforge.net/DTD/sodipodi-0.dtd"
   xmlns="http://www.w3.org/2000/svg"
   xmlns:svg="http://www.w3.org/2000/svg"><sodipodi:namedview
     id="namedview4136"
     pagecolor="#505050"
     bordercolor="#eeeeee"
     borderopacity="1"
     inkscape:showpageshadow="0"
     inkscape:pageopacity="0"
     inkscape:pagecheckerboard="0"
     inkscape:deskcolor="#505050"
     inkscape:document-units="mm"
     showgrid="false"
     inkscape:zoom="13.455443"
     inkscape:cx="29.170351"
     inkscape:cy="20.995221"
     inkscape:window-width="1920"
     inkscape:window-height="1111"
     inkscape:window-x="-9"
     inkscape:window-y="-9"
     inkscape:window-maximized="1"
     inkscape:current-layer="layer1" /><defs
     id="defs4131" /><g
     inkscape:label="Capa 1"
     inkscape:groupmode="layer"
     id="layer1"
     transform="translate(-67.660574,-69.958021)"><path
       style="fill:#000000;stroke-width:0.0303879"
       d="m 68.178906,77.033442 c -0.07768,-0.02743 -0.196194,-0.108781 -0.278804,-0.19139 -0.252212,-0.252212 -0.23942,-0.07529 -0.23942,-3.3115 0,-3.192643 -0.0092,-3.052868 0.216136,-3.297287 0.165767,-0.179836 0.357025,-0.265133 0.591463,-0.263781 0.102381,5.74e-4 0.233248,0.02075 0.290816,0.04481 0.05757,0.02405 1.280062,0.669415 2.716655,1.434138 1.717058,0.914019 2.651209,1.427899 2.726463,1.499835 0.262825,0.251242 0.323386,0.611494 0.157117,0.934627 -0.0491,0.09541 -0.137126,0.211528 -0.195623,0.258031 -0.09846,0.07827 -4.82634,2.613299 -5.301845,2.842779 -0.241556,0.116576 -0.450544,0.131797 -0.682958,0.04974 z m 7.428232,-0.0194 c -0.167733,-0.07872 -0.284249,-0.184006 -0.387663,-0.350292 l -0.06816,-0.109594 -0.0082,-2.991715 -0.0082,-2.991716 0.07811,-0.159642 c 0.0885,-0.180901 0.210369,-0.295821 0.409269,-0.385952 0.197456,-0.08948 0.74457,-0.08948 0.942027,0 0.197334,0.08942 0.318646,0.203079 0.407875,0.382138 l 0.07833,0.157193 v 2.962462 c 0,2.897713 -0.0013,2.965198 -0.06061,3.087673 -0.08353,0.172542 -0.230231,0.315417 -0.4104,0.399688 -0.130378,0.06098 -0.199378,0.07107 -0.486207,0.07107 -0.287302,0 -0.355617,-0.01002 -0.486209,-0.07131 z m 2.651289,0.02855 c -0.239824,-0.08559 -0.437444,-0.299217 -0.508046,-0.54921 -0.02473,-0.08755 -0.03178,-0.937558 -0.02521,-3.038797 l 0.0091,-2.917247 0.06581,-0.122917 c 0.08687,-0.162259 0.305011,-0.360302 0.453341,-0.411586 0.07321,-0.02531 0.2476,-0.04063 0.453263,-0.03981 0.398678,0.0016 0.552017,0.05896 0.745715,0.279015 0.222751,0.253059 0.213688,0.104536 0.204509,3.351531 l -0.0082,2.899807 -0.08252,0.156462 c -0.09803,0.185868 -0.257995,0.325825 -0.445383,0.389674 -0.171701,0.0585 -0.701789,0.06039 -0.862408,0.0031 z"
       id="path4150" /></g></svg>
