<?xml version="1.0" encoding="UTF-8" standalone="no"?>
<!-- Created with Inkscape (http://www.inkscape.org/) -->

<svg
   width="23mm"
   height="32.429047mm"
   viewBox="0 0 23 32.429047"
   version="1.1"
   id="svg4232"
   xml:space="preserve"
   inkscape:version="1.2.2 (732a01da63, 2022-12-09)"
   sodipodi:docname="rfid.svg"
   xmlns:inkscape="http://www.inkscape.org/namespaces/inkscape"
   xmlns:sodipodi="http://sodipodi.sourceforge.net/DTD/sodipodi-0.dtd"
   xmlns="http://www.w3.org/2000/svg"
   xmlns:svg="http://www.w3.org/2000/svg"><sodipodi:namedview
     id="namedview4234"
     pagecolor="#505050"
     bordercolor="#eeeeee"
     borderopacity="1"
     inkscape:showpageshadow="0"
     inkscape:pageopacity="0"
     inkscape:pagecheckerboard="0"
     inkscape:deskcolor="#505050"
     inkscape:document-units="mm"
     showgrid="false"
     inkscape:zoom="4"
     inkscape:cx="-0.5"
     inkscape:cy="43.125"
     inkscape:window-width="1920"
     inkscape:window-height="1111"
     inkscape:window-x="-9"
     inkscape:window-y="-9"
     inkscape:window-maximized="1"
     inkscape:current-layer="layer1" /><defs
     id="defs4229" /><g
     inkscape:label="Capa 1"
     inkscape:groupmode="layer"
     id="layer1"
     transform="translate(-305.46489,-237.71021)"><path
       id="text4441"
       style="font-size:4.62407px;fill:#000000;stroke-width:2.1846"
       sodipodi:type="inkscape:offset"
       inkscape:radius="0.0048172693"
       inkscape:original="M 286.13086 245.9668 C 286.09624 245.9668 286.06465 245.96814 286.03906 245.97266 C 286.01498 245.97567 285.99507 245.98031 285.97852 245.98633 C 285.96346 245.99084 285.95284 245.99878 285.94531 246.00781 C 285.93929 246.01684 285.93555 246.02702 285.93555 246.03906 L 285.93555 248.84375 C 285.93555 248.85579 285.93929 248.86597 285.94531 248.875 C 285.95133 248.88403 285.96151 248.89242 285.97656 248.89844 C 285.99161 248.90295 286.01152 248.90519 286.03711 248.9082 C 286.0627 248.91272 286.09473 248.91602 286.13086 248.91602 C 286.16849 248.91602 286.19857 248.91272 286.22266 248.9082 C 286.24825 248.90519 286.26815 248.90295 286.2832 248.89844 C 286.29826 248.89242 286.30843 248.88403 286.31445 248.875 C 286.32047 248.86597 286.32422 248.85579 286.32422 248.84375 L 286.32422 246.03906 C 286.32422 246.02702 286.32047 246.01684 286.31445 246.00781 C 286.30843 245.99878 286.29826 245.99084 286.2832 245.98633 C 286.26815 245.98031 286.24825 245.97567 286.22266 245.97266 C 286.19857 245.96814 286.16849 245.9668 286.13086 245.9668 z M 281.44531 245.98047 C 281.41069 245.98047 281.37731 245.99154 281.3457 246.01562 C 281.3156 246.0382 281.30078 246.07997 281.30078 246.13867 L 281.30078 248.84375 C 281.30078 248.85579 281.30257 248.86597 281.30859 248.875 C 281.31461 248.88403 281.32674 248.89242 281.3418 248.89844 C 281.35685 248.90295 281.37631 248.90519 281.40039 248.9082 C 281.42598 248.91272 281.45651 248.91602 281.49414 248.91602 C 281.53177 248.91602 281.56381 248.91272 281.58789 248.9082 C 281.61348 248.90519 281.63294 248.90295 281.64648 248.89844 C 281.66154 248.89242 281.67171 248.88403 281.67773 248.875 C 281.68526 248.86597 281.68945 248.85579 281.68945 248.84375 L 281.68945 247.59961 L 281.94922 247.59961 C 282.03803 247.59961 282.11256 247.61353 282.17578 247.64062 C 282.239 247.66621 282.29513 247.70183 282.3418 247.75 C 282.38846 247.79666 282.42782 247.85369 282.46094 247.91992 C 282.49556 247.98465 282.52894 248.05649 282.56055 248.13477 L 282.82812 248.82227 C 282.83415 248.84033 282.84208 248.85515 282.84961 248.86719 C 282.85864 248.87923 282.86971 248.89091 282.88477 248.89844 C 282.89982 248.90446 282.91928 248.90715 282.94336 248.91016 C 282.96895 248.91317 283.00188 248.91602 283.04102 248.91602 C 283.08617 248.91602 283.1233 248.91317 283.15039 248.91016 C 283.17748 248.90715 283.19784 248.90446 283.21289 248.89844 C 283.22794 248.89242 283.23767 248.88403 283.24219 248.875 C 283.2467 248.86597 283.24805 248.85579 283.24805 248.84375 C 283.24805 248.83171 283.24626 248.81404 283.24023 248.79297 C 283.23421 248.77039 283.22029 248.73192 283.19922 248.67773 L 282.9375 248.03516 C 282.9074 247.9614 282.87776 247.89464 282.84766 247.83594 C 282.81755 247.77723 282.78462 247.72484 282.75 247.67969 C 282.71688 247.63453 282.68171 247.59606 282.64258 247.56445 C 282.60344 247.53134 282.55793 247.50545 282.50977 247.48438 C 282.59556 247.45427 282.6749 247.4167 282.74414 247.37305 C 282.81338 247.3294 282.8722 247.27941 282.92188 247.2207 C 282.97155 247.16049 283.00957 247.09044 283.03516 247.01367 C 283.06225 246.9354 283.07422 246.84784 283.07422 246.75 C 283.07422 246.64915 283.0594 246.5574 283.0293 246.47461 C 283.0007 246.39032 282.95714 246.31668 282.89844 246.25195 C 282.83973 246.18723 282.76699 246.13394 282.67969 246.0918 C 282.59389 246.04965 282.4957 246.01761 282.38281 245.99805 C 282.34368 245.99353 282.29772 245.98934 282.24805 245.98633 C 282.19988 245.98181 282.14016 245.98047 282.06641 245.98047 L 281.44531 245.98047 z M 283.95508 245.98047 C 283.92046 245.98047 283.88708 245.99154 283.85547 246.01562 C 283.82536 246.0382 283.81055 246.07997 283.81055 246.13867 L 283.81055 248.84375 C 283.81055 248.85429 283.81429 248.86446 283.82031 248.875 C 283.82633 248.88403 283.83651 248.89242 283.85156 248.89844 C 283.86661 248.90295 283.88652 248.90519 283.91211 248.9082 C 283.9377 248.91272 283.96973 248.91602 284.00586 248.91602 C 284.045 248.91602 284.07553 248.91272 284.09961 248.9082 C 284.12369 248.90519 284.14315 248.90295 284.1582 248.89844 C 284.17326 248.89242 284.18539 248.88403 284.19141 248.875 C 284.19743 248.86446 284.19922 248.85429 284.19922 248.84375 L 284.19922 247.62695 L 285.21094 247.62695 C 285.22147 247.62695 285.2312 247.62321 285.24023 247.61719 C 285.25077 247.60966 285.26005 247.59993 285.26758 247.58789 C 285.2751 247.57434 285.28019 247.55863 285.2832 247.53906 C 285.28621 247.51799 285.28711 247.49149 285.28711 247.46289 C 285.28711 247.43128 285.28621 247.40629 285.2832 247.38672 C 285.28019 247.36565 285.2751 247.34993 285.26758 247.33789 C 285.26005 247.32585 285.25077 247.31702 285.24023 247.3125 C 285.2312 247.30648 285.22147 247.30273 285.21094 247.30273 L 284.19922 247.30273 L 284.19922 246.31055 L 285.26953 246.31055 C 285.28007 246.31055 285.2898 246.3068 285.29883 246.30078 C 285.30936 246.29476 285.31865 246.28548 285.32617 246.27344 C 285.3337 246.25989 285.33879 246.24373 285.3418 246.22266 C 285.34481 246.20158 285.3457 246.17508 285.3457 246.14648 C 285.3457 246.11788 285.34481 246.09334 285.3418 246.07227 C 285.33879 246.04969 285.3337 246.03308 285.32617 246.01953 C 285.31865 246.00598 285.30936 245.99626 285.29883 245.99023 C 285.2898 245.98421 285.28007 245.98047 285.26953 245.98047 L 283.95508 245.98047 z M 287.24609 245.98047 C 287.21147 245.98047 287.17809 245.99154 287.14648 246.01562 C 287.11638 246.0382 287.10156 246.07997 287.10156 246.13867 L 287.10156 248.74414 C 287.10156 248.80284 287.11638 248.8431 287.14648 248.86719 C 287.17809 248.88977 287.21147 248.90234 287.24609 248.90234 L 287.86328 248.90234 C 288.11315 248.90234 288.32914 248.87031 288.50977 248.80859 C 288.69039 248.74688 288.84337 248.65468 288.9668 248.53125 C 289.09173 248.40632 289.18528 248.25065 289.25 248.0625 C 289.31472 247.87284 289.34766 247.65132 289.34766 247.39844 C 289.34766 247.17867 289.31757 246.98125 289.25586 246.80664 C 289.19565 246.63203 289.10524 246.48325 288.98633 246.36133 C 288.86892 246.2379 288.72343 246.1448 288.54883 246.08008 C 288.37422 246.01385 288.15913 245.98047 287.90625 245.98047 L 287.24609 245.98047 z M 281.68945 246.30078 L 282.01562 246.30078 C 282.09239 246.30078 282.15451 246.30408 282.20117 246.30859 C 282.24934 246.31311 282.29245 246.31954 282.33008 246.33008 C 282.4505 246.3647 282.53671 246.42218 282.58789 246.50195 C 282.63907 246.58023 282.66406 246.67662 282.66406 246.79102 C 282.66406 246.86176 282.65299 246.92807 282.62891 246.98828 C 282.60633 247.04849 282.5692 247.09937 282.51953 247.14453 C 282.46986 247.18818 282.40729 247.22441 282.33203 247.25 C 282.25827 247.27408 282.17072 247.28516 282.06836 247.28516 L 281.68945 247.28516 L 281.68945 246.30078 z M 287.48828 246.30273 L 287.88477 246.30273 C 288.08647 246.30273 288.25096 246.33103 288.37891 246.38672 C 288.50685 246.44241 288.61252 246.5198 288.69531 246.61914 C 288.77961 246.71849 288.84172 246.83763 288.88086 246.97461 C 288.92 247.11008 288.93945 247.25601 288.93945 247.41406 C 288.93945 247.61275 288.9167 247.78563 288.87305 247.93164 C 288.8309 248.07614 288.76744 248.19663 288.68164 248.29297 C 288.59584 248.3893 288.48927 248.46115 288.36133 248.50781 C 288.23338 248.55447 288.07532 248.57617 287.88867 248.57617 L 287.48828 248.57617 L 287.48828 246.30273 z "
       d="m 286.13086,245.9668 c -0.0346,0 -0.0662,0.001 -0.0918,0.006 -0.0241,0.003 -0.044,0.008 -0.0605,0.0137 -0.0151,0.005 -0.0257,0.0125 -0.0332,0.0215 -0.006,0.009 -0.01,0.0192 -0.01,0.0312 v 2.80469 c 0,0.012 0.004,0.0222 0.01,0.0312 0.006,0.009 0.0162,0.0174 0.0312,0.0234 0.015,0.005 0.035,0.007 0.0605,0.01 0.0256,0.005 0.0576,0.008 0.0937,0.008 0.0376,0 0.0677,-0.003 0.0918,-0.008 0.0256,-0.003 0.0455,-0.005 0.0605,-0.01 0.0151,-0.006 0.0252,-0.0144 0.0312,-0.0234 0.006,-0.009 0.01,-0.0192 0.01,-0.0312 v -2.80469 c 0,-0.012 -0.004,-0.0222 -0.01,-0.0312 -0.006,-0.009 -0.0162,-0.017 -0.0312,-0.0215 -0.0151,-0.006 -0.035,-0.0107 -0.0605,-0.0137 -0.0241,-0.005 -0.0542,-0.006 -0.0918,-0.006 z m -4.68555,0.0137 c -0.0346,0 -0.068,0.0111 -0.0996,0.0352 -0.0301,0.0226 -0.0449,0.0643 -0.0449,0.12305 v 2.70508 c 0,0.012 0.002,0.0222 0.008,0.0312 0.006,0.009 0.0181,0.0174 0.0332,0.0234 0.0151,0.005 0.0345,0.007 0.0586,0.01 0.0256,0.005 0.0561,0.008 0.0937,0.008 0.0376,0 0.0697,-0.003 0.0937,-0.008 0.0256,-0.003 0.0451,-0.005 0.0586,-0.01 0.0151,-0.006 0.0252,-0.0144 0.0312,-0.0234 0.008,-0.009 0.0117,-0.0192 0.0117,-0.0312 v -1.24414 h 0.25977 c 0.0888,0 0.16334,0.0139 0.22656,0.041 0.0632,0.0256 0.11935,0.0612 0.16602,0.10938 0.0467,0.0467 0.086,0.10369 0.11914,0.16992 0.0346,0.0647 0.068,0.13657 0.0996,0.21485 l 0.26757,0.6875 c 0.006,0.0181 0.014,0.0329 0.0215,0.0449 0.009,0.012 0.0201,0.0237 0.0352,0.0312 0.015,0.006 0.0345,0.009 0.0586,0.0117 0.0256,0.003 0.0585,0.006 0.0977,0.006 0.0451,0 0.0823,-0.003 0.10937,-0.006 0.0271,-0.003 0.0474,-0.006 0.0625,-0.0117 0.015,-0.006 0.0248,-0.0144 0.0293,-0.0234 0.005,-0.009 0.006,-0.0192 0.006,-0.0312 0,-0.012 -0.002,-0.0297 -0.008,-0.0508 -0.006,-0.0226 -0.0199,-0.061 -0.041,-0.11524 l -0.26172,-0.64257 c -0.0301,-0.0738 -0.0597,-0.14052 -0.0898,-0.19922 -0.0301,-0.0587 -0.063,-0.1111 -0.0977,-0.15625 -0.0331,-0.0452 -0.0683,-0.0836 -0.10742,-0.11524 -0.0391,-0.0331 -0.0847,-0.059 -0.13281,-0.0801 0.0858,-0.0301 0.16513,-0.0677 0.23437,-0.11133 0.0692,-0.0437 0.12806,-0.0936 0.17774,-0.15235 0.0497,-0.0602 0.0877,-0.13026 0.11328,-0.20703 0.0271,-0.0783 0.0391,-0.16583 0.0391,-0.26367 0,-0.10085 -0.0148,-0.1926 -0.0449,-0.27539 -0.0286,-0.0843 -0.0722,-0.15793 -0.13086,-0.22266 -0.0587,-0.0647 -0.13145,-0.11801 -0.21875,-0.16015 -0.0858,-0.0421 -0.18399,-0.0742 -0.29688,-0.0937 -0.0391,-0.005 -0.0851,-0.009 -0.13476,-0.0117 -0.0482,-0.005 -0.10789,-0.006 -0.18164,-0.006 z m 2.50977,0 c -0.0346,0 -0.068,0.0111 -0.0996,0.0352 -0.0301,0.0226 -0.0449,0.0643 -0.0449,0.12305 v 2.70508 c 0,0.0105 0.004,0.0207 0.01,0.0312 0.006,0.009 0.0162,0.0174 0.0312,0.0234 0.015,0.005 0.035,0.007 0.0605,0.01 0.0256,0.005 0.0576,0.008 0.0937,0.008 0.0391,0 0.0697,-0.003 0.0937,-0.008 0.0241,-0.003 0.0435,-0.005 0.0586,-0.01 0.0151,-0.006 0.0272,-0.0144 0.0332,-0.0234 0.006,-0.0105 0.008,-0.0207 0.008,-0.0312 v -1.2168 h 1.01172 c 0.0105,0 0.0203,-0.004 0.0293,-0.01 0.0105,-0.008 0.0198,-0.0173 0.0274,-0.0293 0.008,-0.0135 0.0126,-0.0293 0.0156,-0.0488 0.003,-0.0211 0.004,-0.0476 0.004,-0.0762 0,-0.0316 -9e-4,-0.0566 -0.004,-0.0762 -0.003,-0.0211 -0.008,-0.0368 -0.0156,-0.0488 -0.008,-0.012 -0.0168,-0.0209 -0.0274,-0.0254 -0.009,-0.006 -0.0188,-0.01 -0.0293,-0.01 h -1.01172 v -0.99218 h 1.07031 c 0.0105,0 0.0203,-0.004 0.0293,-0.01 0.0105,-0.006 0.0198,-0.0153 0.0273,-0.0273 0.008,-0.0135 0.0126,-0.0297 0.0156,-0.0508 0.003,-0.0211 0.004,-0.0476 0.004,-0.0762 0,-0.0286 -8.9e-4,-0.0531 -0.004,-0.0742 -0.003,-0.0226 -0.008,-0.0392 -0.0156,-0.0527 -0.008,-0.0136 -0.0168,-0.0233 -0.0273,-0.0293 -0.009,-0.006 -0.0188,-0.01 -0.0293,-0.01 z m 3.29101,0 c -0.0346,0 -0.068,0.0111 -0.0996,0.0352 -0.0301,0.0226 -0.0449,0.0643 -0.0449,0.12305 v 2.60547 c 0,0.0587 0.0148,0.099 0.0449,0.12305 0.0316,0.0226 0.065,0.0352 0.0996,0.0352 h 0.61719 c 0.24987,0 0.46586,-0.032 0.64649,-0.0937 0.18062,-0.0617 0.3336,-0.15391 0.45703,-0.27734 0.12493,-0.12493 0.21848,-0.2806 0.2832,-0.46875 0.0647,-0.18966 0.0977,-0.41118 0.0977,-0.66406 0,-0.21977 -0.0301,-0.41719 -0.0918,-0.5918 -0.0602,-0.17461 -0.15062,-0.32339 -0.26953,-0.44531 -0.11741,-0.12343 -0.2629,-0.21653 -0.4375,-0.28125 -0.17461,-0.0662 -0.3897,-0.0996 -0.64258,-0.0996 z m -5.55664,0.32031 h 0.32617 c 0.0768,0 0.13889,0.003 0.18555,0.008 0.0482,0.005 0.0913,0.0109 0.12891,0.0215 0.12042,0.0346 0.20663,0.0921 0.25781,0.17187 0.0512,0.0783 0.0762,0.17467 0.0762,0.28907 0,0.0707 -0.0111,0.13705 -0.0351,0.19726 -0.0226,0.0602 -0.0597,0.11109 -0.10938,0.15625 -0.0497,0.0436 -0.11224,0.0799 -0.1875,0.10547 -0.0738,0.0241 -0.16131,0.0352 -0.26367,0.0352 h -0.37891 z m 5.79883,0.002 h 0.39649 c 0.2017,0 0.36619,0.0283 0.49414,0.084 0.12794,0.0557 0.23361,0.13308 0.3164,0.23242 0.0843,0.0994 0.14641,0.21849 0.18555,0.35547 0.0391,0.13547 0.0586,0.2814 0.0586,0.43945 0,0.19869 -0.0228,0.37157 -0.0664,0.51758 -0.0421,0.1445 -0.10561,0.26499 -0.19141,0.36133 -0.0858,0.0963 -0.19237,0.16818 -0.32031,0.21484 -0.12795,0.0467 -0.28601,0.0684 -0.47266,0.0684 h -0.40039 z"
       transform="matrix(2.8266918,0,0,2.4598008,-489.55876,-342.14457)" /><path
       style="fill:#000000;stroke-width:0.302632"
       d="m 305.46489,260.81386 v -16.88937 l 6.19313,-6.21428 h 16.80687 v 23.20882 l -1.10687,1.0017 h -20.89143 z m 21.8297,-3.12997 h -18.80335 v -12.57436 l 4.40239,-4.373 h 12.54498 v 13.92105 h -13.92106 v -8.34767 c 0.8651,-0.84902 1.7302,-1.69804 2.59528,-2.54708 h 8.29946 v 6.05265 h -3.02632 v 1.81578 h -4.84211 v -4.84211 h 4.84211 v 1.81579 h 1.8158 v -3.63158 h -6.17842 c -0.7651,0.74708 -1.53018,1.49418 -2.29528,2.24127 v 6.23242 h 11.50001 v -11.5 h -10.4256 c -1.36691,1.35643 -2.73381,2.71285 -4.10071,4.06929 v 10.45703 h 17.55263 v -17.55264 h -14.6668 c 0,0 -3.94144,3.92664 -5.91215,5.88997 v 14.28547 l 0.41153,0.41153 h 20.20761 z"
       id="path238"
       sodipodi:nodetypes="ccccccccccccccccccccccccccccccccccccccccccc" /></g></svg>
