  0
SECTION
  2
HEADER
  9
$ACADVER
  1
AC1014
  9
$HANDSEED
  5
FFFF
  9
$INSUNITS
 70
     4
  9
$MEASUREMENT
 70
     1
  0
ENDSEC
  0
SECTION
  2
TABLES
  0
TABLE
  2
VPORT
  5
8
330
0
100
AcDbSymbolTable
 70
     4
  0
VPORT
  5
2E
330
8
100
AcDbSymbolTableRecord
100
AcDbViewportTableRecord
  2
*ACTIVE
 70
     0
 10
0.0
 20
0.0
 11
1.0
 21
1.0
 12
210.0
 22
148.5
 13
0.0
 23
0.0
 14
10.0
 24
10.0
 15
10.0
 25
10.0
 16
0.0
 26
0.0
 36
1.0
 17
0.0
 27
0.0
 37
0.0
 40
341.0
 41
1.24
 42
50.0
 43
0.0
 44
0.0
 50
0.0
 51
0.0
 71
     0
 72
   100
 73
     1
 74
     3
 75
     0
 76
     0
 77
     0
 78
     0
  0
ENDTAB
  0
TABLE
  2
LTYPE
  5
5
330
0
100
AcDbSymbolTable
 70
     1
  0
LTYPE
  5
14
330
5
100
AcDbSymbolTableRecord
100
AcDbLinetypeTableRecord
  2
BYBLOCK
 70
     0
  3

 72
    65
 73
     0
 40
0.0
  0
LTYPE
  5
15
330
5
100
AcDbSymbolTableRecord
100
AcDbLinetypeTableRecord
  2
BYLAYER
 70
     0
  3

 72
    65
 73
     0
 40
0.0
  0
LTYPE
  5
16
330
5
100
AcDbSymbolTableRecord
100
AcDbLinetypeTableRecord
  2
CONTINUOUS
 70
     0
  3
Solid line
 72
    65
 73
     0
 40
0.0
  0
ENDTAB
  0
TABLE
  2
LAYER
  5
2
100
AcDbSymbolTable
 70
2
  0
LAYER
  5
50
100
AcDbSymbolTableRecord
100
AcDbLayerTableRecord
  2
0
 70
0
  6
CONTINUOUS
  0
LAYER
  5
51
100
AcDbSymbolTableRecord
100
AcDbLayerTableRecord
  2
Capa_1
 70
0
  6
CONTINUOUS
  0
ENDTAB
  0
TABLE
  2
STYLE
  5
3
330
0
100
AcDbSymbolTable
 70
     1
  0
STYLE
  5
11
330
3
100
AcDbSymbolTableRecord
100
AcDbTextStyleTableRecord
  2
STANDARD
 70
     0
 40
0.0
 41
1.0
 50
0.0
 71
     0
 42
2.5
  3
txt
  4

  0
ENDTAB
  0
TABLE
  2
VIEW
  5
6
330
0
100
AcDbSymbolTable
 70
     0
  0
ENDTAB
  0
TABLE
  2
UCS
  5
7
330
0
100
AcDbSymbolTable
 70
     0
  0
ENDTAB
  0
TABLE
  2
APPID
  5
9
330
0
100
AcDbSymbolTable
 70
     2
  0
APPID
  5
12
330
9
100
AcDbSymbolTableRecord
100
AcDbRegAppTableRecord
  2
ACAD
 70
     0
  0
ENDTAB
  0
TABLE
  2
DIMSTYLE
  5
A
330
0
100
AcDbSymbolTable
 70
     1
  0
DIMSTYLE
105
27
330
A
100
AcDbSymbolTableRecord
100
AcDbDimStyleTableRecord
  2
ISO-25
 70
     0
  3

  4

  5

  6

  7

 40
1.0
 41
2.5
 42
0.625
 43
3.75
 44
1.25
 45
0.0
 46
0.0
 47
0.0
 48
0.0
140
2.5
141
2.5
142
0.0
143
0.03937007874016
144
1.0
145
0.0
146
1.0
147
0.625
 71
     0
 72
     0
 73
     0
 74
     0
 75
     0
 76
     0
 77
     1
 78
     8
170
     0
171
     3
172
     1
173
     0
174
     0
175
     0
176
     0
177
     0
178
     0
270
     2
271
     2
272
     2
273
     2
274
     3
340
11
275
     0
280
     0
281
     0
282
     0
283
     0
284
     8
285
     0
286
     0
287
     3
288
     0
  0
ENDTAB
  0
TABLE
  2
BLOCK_RECORD
  5
1
330
0
100
AcDbSymbolTable
 70
     1
  0
BLOCK_RECORD
  5
1F
330
1
100
AcDbSymbolTableRecord
100
AcDbBlockTableRecord
  2
*MODEL_SPACE
  0
BLOCK_RECORD
  5
1B
330
1
100
AcDbSymbolTableRecord
100
AcDbBlockTableRecord
  2
*PAPER_SPACE
  0
ENDTAB
  0
ENDSEC
  0
SECTION
  2
BLOCKS
  0
BLOCK
  5
20
330
1F
100
AcDbEntity
  8
0
100
AcDbBlockBegin
  2
*MODEL_SPACE
 70
     0
 10
0.0
 20
0.0
 30
0.0
  3
*MODEL_SPACE
  1

  0
ENDBLK
  5
21
330
1F
100
AcDbEntity
  8
0
100
AcDbBlockEnd
  0
BLOCK
  5
1C
330
1B
100
AcDbEntity
 67
     1
  8
0
100
AcDbBlockBegin
  2
*PAPER_SPACE
  1

  0
ENDBLK
  5
1D
330
1B
100
AcDbEntity
 67
     1
  8
0
100
AcDbBlockEnd
  0
ENDSEC
  0
SECTION
  2
ENTITIES
  0
SPLINE
  5
100
100
AcDbEntity
  8
Capa_1
 62
7
100
AcDbSpline
 70
8
 71
3
 72
8
 73
4
 74
0
 40
0
 40
0
 40
0
 40
0
 40
1
 40
1
 40
1
 40
1
 10
13.779996
 20
7.254286
 30
0.0
 10
13.682192
 20
7.254286
 30
0.0
 10
13.592869
 20
7.251826
 30
0.0
 10
13.520505
 20
7.239527
 30
0.0
  0
SPLINE
  5
101
100
AcDbEntity
  8
Capa_1
 62
7
100
AcDbSpline
 70
8
 71
3
 72
8
 73
4
 74
0
 40
0
 40
0
 40
0
 40
0
 40
1
 40
1
 40
1
 40
1
 10
13.520505
 20
7.239527
 30
0.0
 10
13.452382
 20
7.232147
 30
0.0
 10
13.396131
 20
7.219848
 30
0.0
 10
13.349491
 20
7.205828
 30
0.0
  0
SPLINE
  5
102
100
AcDbEntity
  8
Capa_1
 62
7
100
AcDbSpline
 70
8
 71
3
 72
8
 73
4
 74
0
 40
0
 40
0
 40
0
 40
0
 40
1
 40
1
 40
1
 40
1
 10
13.349491
 20
7.205828
 30
0.0
 10
13.306807
 20
7.193529
 30
0.0
 10
13.276845
 20
7.175080
 30
0.0
 10
13.255644
 20
7.152942
 30
0.0
  0
SPLINE
  5
103
100
AcDbEntity
  8
Capa_1
 62
7
100
AcDbSpline
 70
8
 71
3
 72
8
 73
4
 74
0
 40
0
 40
0
 40
0
 40
0
 40
1
 40
1
 40
1
 40
1
 10
13.255644
 20
7.152942
 30
0.0
 10
13.238684
 20
7.130804
 30
0.0
 10
13.227377
 20
7.105714
 30
0.0
 10
13.227377
 20
7.076196
 30
0.0
  0
SPLINE
  5
104
100
AcDbEntity
  8
Capa_1
 62
7
100
AcDbSpline
 70
8
 71
3
 72
8
 73
4
 74
0
 40
0
 40
0
 40
0
 40
0
 40
1
 40
1
 40
1
 40
1
 10
13.227377
 20
0.177217
 30
0.0
 10
13.227377
 20
0.147700
 30
0.0
 10
13.238684
 20
0.122610
 30
0.0
 10
13.255644
 20
0.100472
 30
0.0
  0
SPLINE
  5
105
100
AcDbEntity
  8
Capa_1
 62
7
100
AcDbSpline
 70
8
 71
3
 72
8
 73
4
 74
0
 40
0
 40
0
 40
0
 40
0
 40
1
 40
1
 40
1
 40
1
 10
13.255644
 20
0.100472
 30
0.0
 10
13.272605
 20
0.078333
 30
0.0
 10
13.301437
 20
0.057671
 30
0.0
 10
13.343837
 20
0.042912
 30
0.0
  0
SPLINE
  5
106
100
AcDbEntity
  8
Capa_1
 62
7
100
AcDbSpline
 70
8
 71
3
 72
8
 73
4
 74
0
 40
0
 40
0
 40
0
 40
0
 40
1
 40
1
 40
1
 40
1
 10
13.343837
 20
0.042912
 30
0.0
 10
13.386238
 20
0.030613
 30
0.0
 10
13.442771
 20
0.025694
 30
0.0
 10
13.514852
 20
0.018314
 30
0.0
  0
SPLINE
  5
107
100
AcDbEntity
  8
Capa_1
 62
7
100
AcDbSpline
 70
8
 71
3
 72
8
 73
4
 74
0
 40
0
 40
0
 40
0
 40
0
 40
1
 40
1
 40
1
 40
1
 10
13.514852
 20
0.018314
 30
0.0
 10
13.587215
 20
0.006015
 30
0.0
 10
13.677669
 20
-0.001364
 30
0.0
 10
13.779713
 20
-0.001364
 30
0.0
  0
SPLINE
  5
108
100
AcDbEntity
  8
Capa_1
 62
7
100
AcDbSpline
 70
8
 71
3
 72
8
 73
4
 74
0
 40
0
 40
0
 40
0
 40
0
 40
1
 40
1
 40
1
 40
1
 10
13.779713
 20
-0.001364
 30
0.0
 10
13.885997
 20
-0.001364
 30
0.0
 10
13.971080
 20
0.006015
 30
0.0
 10
14.039203
 20
0.018314
 30
0.0
  0
SPLINE
  5
109
100
AcDbEntity
  8
Capa_1
 62
7
100
AcDbSpline
 70
8
 71
3
 72
8
 73
4
 74
0
 40
0
 40
0
 40
0
 40
0
 40
1
 40
1
 40
1
 40
1
 10
14.039203
 20
0.018314
 30
0.0
 10
14.111567
 20
0.025694
 30
0.0
 10
14.167818
 20
0.030613
 30
0.0
 10
14.210218
 20
0.042912
 30
0.0
  0
SPLINE
  5
10a
100
AcDbEntity
  8
Capa_1
 62
7
100
AcDbSpline
 70
8
 71
3
 72
8
 73
4
 74
0
 40
0
 40
0
 40
0
 40
0
 40
1
 40
1
 40
1
 40
1
 10
14.210218
 20
0.042912
 30
0.0
 10
14.252901
 20
0.057671
 30
0.0
 10
14.281451
 20
0.078333
 30
0.0
 10
14.298411
 20
0.100472
 30
0.0
  0
SPLINE
  5
10b
100
AcDbEntity
  8
Capa_1
 62
7
100
AcDbSpline
 70
8
 71
3
 72
8
 73
4
 74
0
 40
0
 40
0
 40
0
 40
0
 40
1
 40
1
 40
1
 40
1
 10
14.298411
 20
0.100472
 30
0.0
 10
14.315371
 20
0.122610
 30
0.0
 10
14.326678
 20
0.147700
 30
0.0
 10
14.326678
 20
0.177217
 30
0.0
  0
LWPOLYLINE
  5
10c
100
AcDbEntity
  8
Capa_1
 62
7
100
AcDbPolyline
 90
2
 70
0
 10
13.227377
 20
7.076196
 30
0.0
 10
13.227377
 20
0.177217
 30
0.0
  0
SPLINE
  5
10d
100
AcDbEntity
  8
Capa_1
 62
7
100
AcDbSpline
 70
8
 71
3
 72
8
 73
4
 74
0
 40
0
 40
0
 40
0
 40
0
 40
1
 40
1
 40
1
 40
1
 10
14.326678
 20
7.076196
 30
0.0
 10
14.326678
 20
7.105714
 30
0.0
 10
14.315371
 20
7.130804
 30
0.0
 10
14.298411
 20
7.152942
 30
0.0
  0
SPLINE
  5
10e
100
AcDbEntity
  8
Capa_1
 62
7
100
AcDbSpline
 70
8
 71
3
 72
8
 73
4
 74
0
 40
0
 40
0
 40
0
 40
0
 40
1
 40
1
 40
1
 40
1
 10
14.298411
 20
7.152942
 30
0.0
 10
14.281451
 20
7.175080
 30
0.0
 10
14.252619
 20
7.194758
 30
0.0
 10
14.210218
 20
7.205828
 30
0.0
  0
SPLINE
  5
10f
100
AcDbEntity
  8
Capa_1
 62
7
100
AcDbSpline
 70
8
 71
3
 72
8
 73
4
 74
0
 40
0
 40
0
 40
0
 40
0
 40
1
 40
1
 40
1
 40
1
 10
14.210218
 20
7.205828
 30
0.0
 10
14.167535
 20
7.220586
 30
0.0
 10
14.111284
 20
7.232147
 30
0.0
 10
14.039203
 20
7.239527
 30
0.0
  0
SPLINE
  5
110
100
AcDbEntity
  8
Capa_1
 62
7
100
AcDbSpline
 70
8
 71
3
 72
8
 73
4
 74
0
 40
0
 40
0
 40
0
 40
0
 40
1
 40
1
 40
1
 40
1
 10
14.039203
 20
7.239527
 30
0.0
 10
13.971080
 20
7.251826
 30
0.0
 10
13.885997
 20
7.254286
 30
0.0
 10
13.779713
 20
7.254286
 30
0.0
  0
LWPOLYLINE
  5
111
100
AcDbEntity
  8
Capa_1
 62
7
100
AcDbPolyline
 90
2
 70
0
 10
14.326678
 20
0.177217
 30
0.0
 10
14.326678
 20
7.076196
 30
0.0
  0
SPLINE
  5
112
100
AcDbEntity
  8
Capa_1
 62
7
100
AcDbSpline
 70
8
 71
3
 72
8
 73
4
 74
0
 40
0
 40
0
 40
0
 40
0
 40
1
 40
1
 40
1
 40
1
 10
0.535390
 20
7.220586
 30
0.0
 10
0.437586
 20
7.220586
 30
0.0
 10
0.343175
 20
7.193283
 30
0.0
 10
0.253851
 20
7.134001
 30
0.0
  0
SPLINE
  5
113
100
AcDbEntity
  8
Capa_1
 62
7
100
AcDbSpline
 70
8
 71
3
 72
8
 73
4
 74
0
 40
0
 40
0
 40
0
 40
0
 40
1
 40
1
 40
1
 40
1
 10
0.253851
 20
7.134001
 30
0.0
 10
0.168768
 20
7.078410
 30
0.0
 10
0.126933
 20
6.975836
 30
0.0
 10
0.126933
 20
6.831323
 30
0.0
  0
LWPOLYLINE
  5
114
100
AcDbEntity
  8
Capa_1
 62
7
100
AcDbPolyline
 90
2
 70
0
 10
13.779713
 20
7.254286
 30
0.0
 10
13.779996
 20
7.254286
 30
0.0
  0
SPLINE
  5
115
100
AcDbEntity
  8
Capa_1
 62
7
100
AcDbSpline
 70
8
 71
3
 72
8
 73
4
 74
0
 40
0
 40
0
 40
0
 40
0
 40
1
 40
1
 40
1
 40
1
 10
0.126933
 20
0.177365
 30
0.0
 10
0.126933
 20
0.147847
 30
0.0
 10
0.132586
 20
0.122757
 30
0.0
 10
0.149546
 20
0.100619
 30
0.0
  0
SPLINE
  5
116
100
AcDbEntity
  8
Capa_1
 62
7
100
AcDbSpline
 70
8
 71
3
 72
8
 73
4
 74
0
 40
0
 40
0
 40
0
 40
0
 40
1
 40
1
 40
1
 40
1
 10
0.149546
 20
0.100619
 30
0.0
 10
0.166507
 20
0.078481
 30
0.0
 10
0.200710
 20
0.057819
 30
0.0
 10
0.243393
 20
0.043060
 30
0.0
  0
SPLINE
  5
117
100
AcDbEntity
  8
Capa_1
 62
7
100
AcDbSpline
 70
8
 71
3
 72
8
 73
4
 74
0
 40
0
 40
0
 40
0
 40
0
 40
1
 40
1
 40
1
 40
1
 10
0.243393
 20
0.043060
 30
0.0
 10
0.286076
 20
0.030761
 30
0.0
 10
0.340914
 20
0.025841
 30
0.0
 10
0.409037
 20
0.018462
 30
0.0
  0
SPLINE
  5
118
100
AcDbEntity
  8
Capa_1
 62
7
100
AcDbSpline
 70
8
 71
3
 72
8
 73
4
 74
0
 40
0
 40
0
 40
0
 40
0
 40
1
 40
1
 40
1
 40
1
 10
0.409037
 20
0.018462
 30
0.0
 10
0.481400
 20
0.006163
 30
0.0
 10
0.567614
 20
-0.001217
 30
0.0
 10
0.673898
 20
-0.001217
 30
0.0
  0
SPLINE
  5
119
100
AcDbEntity
  8
Capa_1
 62
7
100
AcDbSpline
 70
8
 71
3
 72
8
 73
4
 74
0
 40
0
 40
0
 40
0
 40
0
 40
1
 40
1
 40
1
 40
1
 10
0.673898
 20
-0.001217
 30
0.0
 10
0.780181
 20
-0.001217
 30
0.0
 10
0.870918
 20
0.006163
 30
0.0
 10
0.938759
 20
0.018462
 30
0.0
  0
SPLINE
  5
11a
100
AcDbEntity
  8
Capa_1
 62
7
100
AcDbSpline
 70
8
 71
3
 72
8
 73
4
 74
0
 40
0
 40
0
 40
0
 40
0
 40
1
 40
1
 40
1
 40
1
 10
0.938759
 20
0.018462
 30
0.0
 10
1.011122
 20
0.025841
 30
0.0
 10
1.066243
 20
0.030761
 30
0.0
 10
1.104403
 20
0.043060
 30
0.0
  0
SPLINE
  5
11b
100
AcDbEntity
  8
Capa_1
 62
7
100
AcDbSpline
 70
8
 71
3
 72
8
 73
4
 74
0
 40
0
 40
0
 40
0
 40
0
 40
1
 40
1
 40
1
 40
1
 10
1.104403
 20
0.043060
 30
0.0
 10
1.147086
 20
0.057819
 30
0.0
 10
1.175636
 20
0.078481
 30
0.0
 10
1.192596
 20
0.100619
 30
0.0
  0
SPLINE
  5
11c
100
AcDbEntity
  8
Capa_1
 62
7
100
AcDbSpline
 70
8
 71
3
 72
8
 73
4
 74
0
 40
0
 40
0
 40
0
 40
0
 40
1
 40
1
 40
1
 40
1
 10
1.192596
 20
0.100619
 30
0.0
 10
1.215209
 20
0.122757
 30
0.0
 10
1.225668
 20
0.147847
 30
0.0
 10
1.225668
 20
0.177365
 30
0.0
  0
LWPOLYLINE
  5
11d
100
AcDbEntity
  8
Capa_1
 62
7
100
AcDbPolyline
 90
2
 70
0
 10
0.126933
 20
6.831323
 30
0.0
 10
0.126933
 20
0.177365
 30
0.0
  0
SPLINE
  5
11e
100
AcDbEntity
  8
Capa_1
 62
7
100
AcDbSpline
 70
8
 71
3
 72
8
 73
4
 74
0
 40
0
 40
0
 40
0
 40
0
 40
1
 40
1
 40
1
 40
1
 10
1.959958
 20
3.237701
 30
0.0
 10
2.210968
 20
3.237701
 30
0.0
 10
2.421670
 20
3.203510
 30
0.0
 10
2.600373
 20
3.136850
 30
0.0
  0
SPLINE
  5
11f
100
AcDbEntity
  8
Capa_1
 62
7
100
AcDbSpline
 70
8
 71
3
 72
8
 73
4
 74
0
 40
0
 40
0
 40
0
 40
0
 40
1
 40
1
 40
1
 40
1
 10
2.600373
 20
3.136850
 30
0.0
 10
2.779020
 20
3.073879
 30
0.0
 10
2.937739
 20
2.986310
 30
0.0
 10
3.069660
 20
2.867797
 30
0.0
  0
SPLINE
  5
120
100
AcDbEntity
  8
Capa_1
 62
7
100
AcDbSpline
 70
8
 71
3
 72
8
 73
4
 74
0
 40
0
 40
0
 40
0
 40
0
 40
1
 40
1
 40
1
 40
1
 10
3.069660
 20
2.867797
 30
0.0
 10
3.201667
 20
2.752924
 30
0.0
 10
3.312756
 20
2.612740
 30
0.0
 10
3.406433
 20
2.449827
 30
0.0
  0
SPLINE
  5
121
100
AcDbEntity
  8
Capa_1
 62
7
100
AcDbSpline
 70
8
 71
3
 72
8
 73
4
 74
0
 40
0
 40
0
 40
0
 40
0
 40
1
 40
1
 40
1
 40
1
 10
3.406433
 20
2.449827
 30
0.0
 10
3.504236
 20
2.290678
 30
0.0
 10
3.598648
 20
2.113892
 30
0.0
 10
3.687971
 20
1.921339
 30
0.0
  0
LWPOLYLINE
  5
122
100
AcDbEntity
  8
Capa_1
 62
7
100
AcDbPolyline
 90
3
 70
0
 10
1.225668
 20
0.177365
 30
0.0
 10
1.225668
 20
3.237701
 30
0.0
 10
1.959958
 20
3.237701
 30
0.0
  0
SPLINE
  5
123
100
AcDbEntity
  8
Capa_1
 62
7
100
AcDbSpline
 70
8
 71
3
 72
8
 73
4
 74
0
 40
0
 40
0
 40
0
 40
0
 40
1
 40
1
 40
1
 40
1
 10
4.444309
 20
0.230226
 30
0.0
 10
4.461269
 20
0.185704
 30
0.0
 10
4.483883
 20
0.149299
 30
0.0
 10
4.505083
 20
0.119781
 30
0.0
  0
SPLINE
  5
124
100
AcDbEntity
  8
Capa_1
 62
7
100
AcDbSpline
 70
8
 71
3
 72
8
 73
4
 74
0
 40
0
 40
0
 40
0
 40
0
 40
1
 40
1
 40
1
 40
1
 10
4.505083
 20
0.119781
 30
0.0
 10
4.530523
 20
0.090263
 30
0.0
 10
4.561899
 20
0.061484
 30
0.0
 10
4.604582
 20
0.043035
 30
0.0
  0
SPLINE
  5
125
100
AcDbEntity
  8
Capa_1
 62
7
100
AcDbSpline
 70
8
 71
3
 72
8
 73
4
 74
0
 40
0
 40
0
 40
0
 40
0
 40
1
 40
1
 40
1
 40
1
 10
4.604582
 20
0.043035
 30
0.0
 10
4.646983
 20
0.028276
 30
0.0
 10
4.702103
 20
0.020897
 30
0.0
 10
4.770227
 20
0.014255
 30
0.0
  0
SPLINE
  5
126
100
AcDbEntity
  8
Capa_1
 62
7
100
AcDbSpline
 70
8
 71
3
 72
8
 73
4
 74
0
 40
0
 40
0
 40
0
 40
0
 40
1
 40
1
 40
1
 40
1
 10
4.770227
 20
0.014255
 30
0.0
 10
4.842590
 20
0.006876
 30
0.0
 10
4.935588
 20
-0.000503
 30
0.0
 10
5.046394
 20
-0.000503
 30
0.0
  0
SPLINE
  5
127
100
AcDbEntity
  8
Capa_1
 62
7
100
AcDbSpline
 70
8
 71
3
 72
8
 73
4
 74
0
 40
0
 40
0
 40
0
 40
0
 40
1
 40
1
 40
1
 40
1
 10
5.046394
 20
-0.000503
 30
0.0
 10
5.173878
 20
-0.000503
 30
0.0
 10
5.279031
 20
0.006876
 30
0.0
 10
5.355550
 20
0.014255
 30
0.0
  0
SPLINE
  5
128
100
AcDbEntity
  8
Capa_1
 62
7
100
AcDbSpline
 70
8
 71
3
 72
8
 73
4
 74
0
 40
0
 40
0
 40
0
 40
0
 40
1
 40
1
 40
1
 40
1
 10
5.355550
 20
0.014255
 30
0.0
 10
5.432153
 20
0.021635
 30
0.0
 10
5.489535
 20
0.029014
 30
0.0
 10
5.532218
 20
0.043035
 30
0.0
  0
SPLINE
  5
129
100
AcDbEntity
  8
Capa_1
 62
7
100
AcDbSpline
 70
8
 71
3
 72
8
 73
4
 74
0
 40
0
 40
0
 40
0
 40
0
 40
1
 40
1
 40
1
 40
1
 10
5.532218
 20
0.043035
 30
0.0
 10
5.574618
 20
0.057794
 30
0.0
 10
5.602320
 20
0.078456
 30
0.0
 10
5.615040
 20
0.100595
 30
0.0
  0
SPLINE
  5
12a
100
AcDbEntity
  8
Capa_1
 62
7
100
AcDbSpline
 70
8
 71
3
 72
8
 73
4
 74
0
 40
0
 40
0
 40
0
 40
0
 40
1
 40
1
 40
1
 40
1
 10
5.615040
 20
0.100595
 30
0.0
 10
5.629173
 20
0.122733
 30
0.0
 10
5.632000
 20
0.147823
 30
0.0
 10
5.632000
 20
0.177340
 30
0.0
  0
SPLINE
  5
12b
100
AcDbEntity
  8
Capa_1
 62
7
100
AcDbSpline
 70
8
 71
3
 72
8
 73
4
 74
0
 40
0
 40
0
 40
0
 40
0
 40
1
 40
1
 40
1
 40
1
 10
5.632000
 20
0.177340
 30
0.0
 10
5.632000
 20
0.206858
 30
0.0
 10
5.626347
 20
0.250396
 30
0.0
 10
5.609387
 20
0.302298
 30
0.0
  0
SPLINE
  5
12c
100
AcDbEntity
  8
Capa_1
 62
7
100
AcDbSpline
 70
8
 71
3
 72
8
 73
4
 74
0
 40
0
 40
0
 40
0
 40
0
 40
1
 40
1
 40
1
 40
1
 10
5.609387
 20
0.302298
 30
0.0
 10
5.592426
 20
0.357890
 30
0.0
 10
5.553135
 20
0.452346
 30
0.0
 10
5.493492
 20
0.585766
 30
0.0
  0
LWPOLYLINE
  5
12d
100
AcDbEntity
  8
Capa_1
 62
7
100
AcDbPolyline
 90
2
 70
0
 10
3.687971
 20
1.921339
 30
0.0
 10
4.444309
 20
0.230226
 30
0.0
  0
SPLINE
  5
12e
100
AcDbEntity
  8
Capa_1
 62
7
100
AcDbSpline
 70
8
 71
3
 72
8
 73
4
 74
0
 40
0
 40
0
 40
0
 40
0
 40
1
 40
1
 40
1
 40
1
 10
4.753690
 20
2.166360
 30
0.0
 10
4.668607
 20
2.347893
 30
0.0
 10
4.584937
 20
2.512011
 30
0.0
 10
4.499853
 20
2.656401
 30
0.0
  0
SPLINE
  5
12f
100
AcDbEntity
  8
Capa_1
 62
7
100
AcDbSpline
 70
8
 71
3
 72
8
 73
4
 74
0
 40
0
 40
0
 40
0
 40
0
 40
1
 40
1
 40
1
 40
1
 10
4.499853
 20
2.656401
 30
0.0
 10
4.414770
 20
2.800792
 30
0.0
 10
4.321772
 20
2.929685
 30
0.0
 10
4.223686
 20
3.040745
 30
0.0
  0
SPLINE
  5
130
100
AcDbEntity
  8
Capa_1
 62
7
100
AcDbSpline
 70
8
 71
3
 72
8
 73
4
 74
0
 40
0
 40
0
 40
0
 40
0
 40
1
 40
1
 40
1
 40
1
 10
4.223686
 20
3.040745
 30
0.0
 10
4.130122
 20
3.151928
 30
0.0
 10
4.030623
 20
3.246385
 30
0.0
 10
3.920042
 20
3.324213
 30
0.0
  0
SPLINE
  5
131
100
AcDbEntity
  8
Capa_1
 62
7
100
AcDbSpline
 70
8
 71
3
 72
8
 73
4
 74
0
 40
0
 40
0
 40
0
 40
0
 40
1
 40
1
 40
1
 40
1
 10
3.920042
 20
3.324213
 30
0.0
 10
3.809519
 20
3.405632
 30
0.0
 10
3.680622
 20
3.469341
 30
0.0
 10
3.544629
 20
3.521243
 30
0.0
  0
SPLINE
  5
132
100
AcDbEntity
  8
Capa_1
 62
7
100
AcDbSpline
 70
8
 71
3
 72
8
 73
4
 74
0
 40
0
 40
0
 40
0
 40
0
 40
1
 40
1
 40
1
 40
1
 10
3.544629
 20
3.521243
 30
0.0
 10
3.787160
 20
3.595283
 30
0.0
 10
4.011401
 20
3.687771
 30
0.0
 10
4.207121
 20
3.795092
 30
0.0
  0
SPLINE
  5
133
100
AcDbEntity
  8
Capa_1
 62
7
100
AcDbSpline
 70
8
 71
3
 72
8
 73
4
 74
0
 40
0
 40
0
 40
0
 40
0
 40
1
 40
1
 40
1
 40
1
 10
4.207121
 20
3.795092
 30
0.0
 10
4.402728
 20
3.902586
 30
0.0
 10
4.569107
 20
4.025330
 30
0.0
 10
4.709537
 20
4.169843
 30
0.0
  0
SPLINE
  5
134
100
AcDbEntity
  8
Capa_1
 62
7
100
AcDbSpline
 70
8
 71
3
 72
8
 73
4
 74
0
 40
0
 40
0
 40
0
 40
0
 40
1
 40
1
 40
1
 40
1
 10
4.709537
 20
4.169843
 30
0.0
 10
4.850024
 20
4.317923
 30
0.0
 10
4.957438
 20
4.490257
 30
0.0
 10
5.029745
 20
4.679096
 30
0.0
  0
SPLINE
  5
135
100
AcDbEntity
  8
Capa_1
 62
7
100
AcDbSpline
 70
8
 71
3
 72
8
 73
4
 74
0
 40
0
 40
0
 40
0
 40
0
 40
1
 40
1
 40
1
 40
1
 10
5.029745
 20
4.679096
 30
0.0
 10
5.106348
 20
4.871698
 30
0.0
 10
5.140269
 20
5.087004
 30
0.0
 10
5.140269
 20
5.327671
 30
0.0
  0
SPLINE
  5
136
100
AcDbEntity
  8
Capa_1
 62
7
100
AcDbSpline
 70
8
 71
3
 72
8
 73
4
 74
0
 40
0
 40
0
 40
0
 40
0
 40
1
 40
1
 40
1
 40
1
 10
5.140269
 20
5.327671
 30
0.0
 10
5.140269
 20
5.575742
 30
0.0
 10
5.098434
 20
5.801429
 30
0.0
 10
5.013350
 20
6.005076
 30
0.0
  0
SPLINE
  5
137
100
AcDbEntity
  8
Capa_1
 62
7
100
AcDbSpline
 70
8
 71
3
 72
8
 73
4
 74
0
 40
0
 40
0
 40
0
 40
0
 40
1
 40
1
 40
1
 40
1
 10
5.013350
 20
6.005076
 30
0.0
 10
4.932507
 20
6.212437
 30
0.0
 10
4.809263
 20
6.393552
 30
0.0
 10
4.643449
 20
6.552775
 30
0.0
  0
SPLINE
  5
138
100
AcDbEntity
  8
Capa_1
 62
7
100
AcDbSpline
 70
8
 71
3
 72
8
 73
4
 74
0
 40
0
 40
0
 40
0
 40
0
 40
1
 40
1
 40
1
 40
1
 10
4.643449
 20
6.552775
 30
0.0
 10
4.477523
 20
6.711924
 30
0.0
 10
4.271881
 20
6.843056
 30
0.0
 10
4.025111
 20
6.946712
 30
0.0
  0
SPLINE
  5
139
100
AcDbEntity
  8
Capa_1
 62
7
100
AcDbSpline
 70
8
 71
3
 72
8
 73
4
 74
0
 40
0
 40
0
 40
0
 40
0
 40
1
 40
1
 40
1
 40
1
 10
4.025111
 20
6.946712
 30
0.0
 10
3.782580
 20
7.050270
 30
0.0
 10
3.505028
 20
7.129229
 30
0.0
 10
3.185922
 20
7.177195
 30
0.0
  0
SPLINE
  5
13a
100
AcDbEntity
  8
Capa_1
 62
7
100
AcDbSpline
 70
8
 71
3
 72
8
 73
4
 74
0
 40
0
 40
0
 40
0
 40
0
 40
1
 40
1
 40
1
 40
1
 10
3.185922
 20
7.177195
 30
0.0
 10
3.075399
 20
7.189494
 30
0.0
 10
2.945371
 20
7.199334
 30
0.0
 10
2.804997
 20
7.205975
 30
0.0
  0
SPLINE
  5
13b
100
AcDbEntity
  8
Capa_1
 62
7
100
AcDbSpline
 70
8
 71
3
 72
8
 73
4
 74
0
 40
0
 40
0
 40
0
 40
0
 40
1
 40
1
 40
1
 40
1
 10
2.804997
 20
7.205975
 30
0.0
 10
2.668751
 20
7.218274
 30
0.0
 10
2.500026
 20
7.220734
 30
0.0
 10
2.291557
 20
7.220734
 30
0.0
  0
LWPOLYLINE
  5
13c
100
AcDbEntity
  8
Capa_1
 62
7
100
AcDbPolyline
 90
2
 70
0
 10
5.493492
 20
0.585766
 30
0.0
 10
4.753690
 20
2.166360
 30
0.0
  0
SPLINE
  5
13d
100
AcDbEntity
  8
Capa_1
 62
7
100
AcDbSpline
 70
8
 71
3
 72
8
 73
4
 74
0
 40
0
 40
0
 40
0
 40
0
 40
1
 40
1
 40
1
 40
1
 10
7.629736
 20
7.220586
 30
0.0
 10
7.531933
 20
7.220586
 30
0.0
 10
7.437521
 20
7.193283
 30
0.0
 10
7.348198
 20
7.134001
 30
0.0
  0
SPLINE
  5
13e
100
AcDbEntity
  8
Capa_1
 62
7
100
AcDbSpline
 70
8
 71
3
 72
8
 73
4
 74
0
 40
0
 40
0
 40
0
 40
0
 40
1
 40
1
 40
1
 40
1
 10
7.348198
 20
7.134001
 30
0.0
 10
7.263114
 20
7.078410
 30
0.0
 10
7.221279
 20
6.975836
 30
0.0
 10
7.221279
 20
6.831323
 30
0.0
  0
LWPOLYLINE
  5
13f
100
AcDbEntity
  8
Capa_1
 62
7
100
AcDbPolyline
 90
2
 70
0
 10
2.291557
 20
7.220734
 30
0.0
 10
0.535390
 20
7.220586
 30
0.0
  0
SPLINE
  5
140
100
AcDbEntity
  8
Capa_1
 62
7
100
AcDbSpline
 70
8
 71
3
 72
8
 73
4
 74
0
 40
0
 40
0
 40
0
 40
0
 40
1
 40
1
 40
1
 40
1
 10
7.221279
 20
0.177365
 30
0.0
 10
7.221279
 20
0.151537
 30
0.0
 10
7.232586
 20
0.126447
 30
0.0
 10
7.249546
 20
0.100619
 30
0.0
  0
SPLINE
  5
141
100
AcDbEntity
  8
Capa_1
 62
7
100
AcDbSpline
 70
8
 71
3
 72
8
 73
4
 74
0
 40
0
 40
0
 40
0
 40
0
 40
1
 40
1
 40
1
 40
1
 10
7.249546
 20
0.100619
 30
0.0
 10
7.266506
 20
0.078481
 30
0.0
 10
7.295339
 20
0.057819
 30
0.0
 10
7.337739
 20
0.043060
 30
0.0
  0
SPLINE
  5
142
100
AcDbEntity
  8
Capa_1
 62
7
100
AcDbSpline
 70
8
 71
3
 72
8
 73
4
 74
0
 40
0
 40
0
 40
0
 40
0
 40
1
 40
1
 40
1
 40
1
 10
7.337739
 20
0.043060
 30
0.0
 10
7.380139
 20
0.030761
 30
0.0
 10
7.436673
 20
0.025841
 30
0.0
 10
7.508754
 20
0.018462
 30
0.0
  0
SPLINE
  5
143
100
AcDbEntity
  8
Capa_1
 62
7
100
AcDbSpline
 70
8
 71
3
 72
8
 73
4
 74
0
 40
0
 40
0
 40
0
 40
0
 40
1
 40
1
 40
1
 40
1
 10
7.508754
 20
0.018462
 30
0.0
 10
7.581117
 20
0.006163
 30
0.0
 10
7.671571
 20
-0.001217
 30
0.0
 10
7.773615
 20
-0.001217
 30
0.0
  0
SPLINE
  5
144
100
AcDbEntity
  8
Capa_1
 62
7
100
AcDbSpline
 70
8
 71
3
 72
8
 73
4
 74
0
 40
0
 40
0
 40
0
 40
0
 40
1
 40
1
 40
1
 40
1
 10
7.773615
 20
-0.001217
 30
0.0
 10
7.884138
 20
-0.001217
 30
0.0
 10
7.970635
 20
0.006163
 30
0.0
 10
8.038476
 20
0.018462
 30
0.0
  0
SPLINE
  5
145
100
AcDbEntity
  8
Capa_1
 62
7
100
AcDbSpline
 70
8
 71
3
 72
8
 73
4
 74
0
 40
0
 40
0
 40
0
 40
0
 40
1
 40
1
 40
1
 40
1
 10
8.038476
 20
0.018462
 30
0.0
 10
8.106599
 20
0.025841
 30
0.0
 10
8.161437
 20
0.030761
 30
0.0
 10
8.204120
 20
0.043060
 30
0.0
  0
SPLINE
  5
146
100
AcDbEntity
  8
Capa_1
 62
7
100
AcDbSpline
 70
8
 71
3
 72
8
 73
4
 74
0
 40
0
 40
0
 40
0
 40
0
 40
1
 40
1
 40
1
 40
1
 10
8.204120
 20
0.043060
 30
0.0
 10
8.246803
 20
0.057819
 30
0.0
 10
8.281006
 20
0.078481
 30
0.0
 10
8.297966
 20
0.100619
 30
0.0
  0
SPLINE
  5
147
100
AcDbEntity
  8
Capa_1
 62
7
100
AcDbSpline
 70
8
 71
3
 72
8
 73
4
 74
0
 40
0
 40
0
 40
0
 40
0
 40
1
 40
1
 40
1
 40
1
 10
8.297966
 20
0.100619
 30
0.0
 10
8.314926
 20
0.126447
 30
0.0
 10
8.320580
 20
0.151537
 30
0.0
 10
8.320580
 20
0.177365
 30
0.0
  0
LWPOLYLINE
  5
148
100
AcDbEntity
  8
Capa_1
 62
7
100
AcDbPolyline
 90
2
 70
0
 10
7.221279
 20
6.831323
 30
0.0
 10
7.221279
 20
0.177365
 30
0.0
  0
SPLINE
  5
149
100
AcDbEntity
  8
Capa_1
 62
7
100
AcDbSpline
 70
8
 71
3
 72
8
 73
4
 74
0
 40
0
 40
0
 40
0
 40
0
 40
1
 40
1
 40
1
 40
1
 10
11.180400
 20
3.170451
 30
0.0
 10
11.210081
 20
3.170451
 30
0.0
 10
11.237782
 20
3.180290
 30
0.0
 10
11.263222
 20
3.195049
 30
0.0
  0
SPLINE
  5
14a
100
AcDbEntity
  8
Capa_1
 62
7
100
AcDbSpline
 70
8
 71
3
 72
8
 73
4
 74
0
 40
0
 40
0
 40
0
 40
0
 40
1
 40
1
 40
1
 40
1
 10
11.263222
 20
3.195049
 30
0.0
 10
11.292903
 20
3.214727
 30
0.0
 10
11.319191
 20
3.237603
 30
0.0
 10
11.340674
 20
3.267121
 30
0.0
  0
SPLINE
  5
14b
100
AcDbEntity
  8
Capa_1
 62
7
100
AcDbSpline
 70
8
 71
3
 72
8
 73
4
 74
0
 40
0
 40
0
 40
0
 40
0
 40
1
 40
1
 40
1
 40
1
 10
11.340674
 20
3.267121
 30
0.0
 10
11.363287
 20
3.300328
 30
0.0
 10
11.376290
 20
3.339193
 30
0.0
 10
11.384770
 20
3.387159
 30
0.0
  0
SPLINE
  5
14c
100
AcDbEntity
  8
Capa_1
 62
7
100
AcDbSpline
 70
8
 71
3
 72
8
 73
4
 74
0
 40
0
 40
0
 40
0
 40
0
 40
1
 40
1
 40
1
 40
1
 10
11.384770
 20
3.387159
 30
0.0
 10
11.393250
 20
3.439061
 30
0.0
 10
11.396077
 20
3.504245
 30
0.0
 10
11.396077
 20
3.574596
 30
0.0
  0
SPLINE
  5
14d
100
AcDbEntity
  8
Capa_1
 62
7
100
AcDbSpline
 70
8
 71
3
 72
8
 73
4
 74
0
 40
0
 40
0
 40
0
 40
0
 40
1
 40
1
 40
1
 40
1
 10
11.396077
 20
3.574596
 30
0.0
 10
11.396077
 20
3.652325
 30
0.0
 10
11.393533
 20
3.713821
 30
0.0
 10
11.384770
 20
3.762033
 30
0.0
  0
SPLINE
  5
14e
100
AcDbEntity
  8
Capa_1
 62
7
100
AcDbSpline
 70
8
 71
3
 72
8
 73
4
 74
0
 40
0
 40
0
 40
0
 40
0
 40
1
 40
1
 40
1
 40
1
 10
11.384770
 20
3.762033
 30
0.0
 10
11.376290
 20
3.813934
 30
0.0
 10
11.362157
 20
3.852553
 30
0.0
 10
11.340674
 20
3.882071
 30
0.0
  0
SPLINE
  5
14f
100
AcDbEntity
  8
Capa_1
 62
7
100
AcDbSpline
 70
8
 71
3
 72
8
 73
4
 74
0
 40
0
 40
0
 40
0
 40
0
 40
1
 40
1
 40
1
 40
1
 10
11.340674
 20
3.882071
 30
0.0
 10
11.318060
 20
3.911588
 30
0.0
 10
11.293185
 20
3.933481
 30
0.0
 10
11.263222
 20
3.944550
 30
0.0
  0
SPLINE
  5
150
100
AcDbEntity
  8
Capa_1
 62
7
100
AcDbSpline
 70
8
 71
3
 72
8
 73
4
 74
0
 40
0
 40
0
 40
0
 40
0
 40
1
 40
1
 40
1
 40
1
 10
11.263222
 20
3.944550
 30
0.0
 10
11.237782
 20
3.959309
 30
0.0
 10
11.210081
 20
3.969148
 30
0.0
 10
11.180400
 20
3.969148
 30
0.0
  0
LWPOLYLINE
  5
151
100
AcDbEntity
  8
Capa_1
 62
7
100
AcDbPolyline
 90
3
 70
0
 10
8.320580
 20
0.177365
 30
0.0
 10
8.320580
 20
3.170451
 30
0.0
 10
11.180400
 20
3.170451
 30
0.0
  0
SPLINE
  5
152
100
AcDbEntity
  8
Capa_1
 62
7
100
AcDbSpline
 70
8
 71
3
 72
8
 73
4
 74
0
 40
0
 40
0
 40
0
 40
0
 40
1
 40
1
 40
1
 40
1
 10
11.346016
 20
6.409713
 30
0.0
 10
11.375696
 20
6.409713
 30
0.0
 10
11.403398
 20
6.419552
 30
0.0
 10
11.428838
 20
6.434311
 30
0.0
  0
SPLINE
  5
153
100
AcDbEntity
  8
Capa_1
 62
7
100
AcDbSpline
 70
8
 71
3
 72
8
 73
4
 74
0
 40
0
 40
0
 40
0
 40
0
 40
1
 40
1
 40
1
 40
1
 10
11.428838
 20
6.434311
 30
0.0
 10
11.458519
 20
6.449070
 30
0.0
 10
11.484807
 20
6.471946
 30
0.0
 10
11.506007
 20
6.501464
 30
0.0
  0
SPLINE
  5
154
100
AcDbEntity
  8
Capa_1
 62
7
100
AcDbSpline
 70
8
 71
3
 72
8
 73
4
 74
0
 40
0
 40
0
 40
0
 40
0
 40
1
 40
1
 40
1
 40
1
 10
11.506007
 20
6.501464
 30
0.0
 10
11.528620
 20
6.534671
 30
0.0
 10
11.541623
 20
6.574520
 30
0.0
 10
11.550103
 20
6.626421
 30
0.0
  0
SPLINE
  5
155
100
AcDbEntity
  8
Capa_1
 62
7
100
AcDbSpline
 70
8
 71
3
 72
8
 73
4
 74
0
 40
0
 40
0
 40
0
 40
0
 40
1
 40
1
 40
1
 40
1
 10
11.550103
 20
6.626421
 30
0.0
 10
11.558583
 20
6.678323
 30
0.0
 10
11.561410
 20
6.743508
 30
0.0
 10
11.561410
 20
6.813858
 30
0.0
  0
SPLINE
  5
156
100
AcDbEntity
  8
Capa_1
 62
7
100
AcDbSpline
 70
8
 71
3
 72
8
 73
4
 74
0
 40
0
 40
0
 40
0
 40
0
 40
1
 40
1
 40
1
 40
1
 10
11.561410
 20
6.813858
 30
0.0
 10
11.561410
 20
6.884209
 30
0.0
 10
11.558894
 20
6.944474
 30
0.0
 10
11.550103
 20
6.996375
 30
0.0
  0
SPLINE
  5
157
100
AcDbEntity
  8
Capa_1
 62
7
100
AcDbSpline
 70
8
 71
3
 72
8
 73
4
 74
0
 40
0
 40
0
 40
0
 40
0
 40
1
 40
1
 40
1
 40
1
 10
11.550103
 20
6.996375
 30
0.0
 10
11.541623
 20
7.051967
 30
0.0
 10
11.527490
 20
7.092800
 30
0.0
 10
11.506007
 20
7.126007
 30
0.0
  0
SPLINE
  5
158
100
AcDbEntity
  8
Capa_1
 62
7
100
AcDbSpline
 70
8
 71
3
 72
8
 73
4
 74
0
 40
0
 40
0
 40
0
 40
0
 40
1
 40
1
 40
1
 40
1
 10
11.506007
 20
7.126007
 30
0.0
 10
11.483393
 20
7.159460
 30
0.0
 10
11.458519
 20
7.183320
 30
0.0
 10
11.428838
 20
7.198079
 30
0.0
  0
SPLINE
  5
159
100
AcDbEntity
  8
Capa_1
 62
7
100
AcDbSpline
 70
8
 71
3
 72
8
 73
4
 74
0
 40
0
 40
0
 40
0
 40
0
 40
1
 40
1
 40
1
 40
1
 10
11.428838
 20
7.198079
 30
0.0
 10
11.403398
 20
7.212838
 30
0.0
 10
11.375696
 20
7.222677
 30
0.0
 10
11.346016
 20
7.222677
 30
0.0
  0
LWPOLYLINE
  5
15a
100
AcDbEntity
  8
Capa_1
 62
7
100
AcDbPolyline
 90
4
 70
0
 10
11.180400
 20
3.969148
 30
0.0
 10
8.320580
 20
3.969148
 30
0.0
 10
8.320580
 20
6.409713
 30
0.0
 10
11.346016
 20
6.409713
 30
0.0
  0
SPLINE
  5
15b
100
AcDbEntity
  8
Capa_1
 62
7
100
AcDbSpline
 70
8
 71
3
 72
8
 73
4
 74
0
 40
0
 40
0
 40
0
 40
0
 40
1
 40
1
 40
1
 40
1
 10
16.932407
 20
7.220586
 30
0.0
 10
16.834604
 20
7.220586
 30
0.0
 10
16.740192
 20
7.193283
 30
0.0
 10
16.650869
 20
7.134001
 30
0.0
  0
SPLINE
  5
15c
100
AcDbEntity
  8
Capa_1
 62
7
100
AcDbSpline
 70
8
 71
3
 72
8
 73
4
 74
0
 40
0
 40
0
 40
0
 40
0
 40
1
 40
1
 40
1
 40
1
 10
16.650869
 20
7.134001
 30
0.0
 10
16.565785
 20
7.078410
 30
0.0
 10
16.523950
 20
6.975836
 30
0.0
 10
16.523950
 20
6.831323
 30
0.0
  0
LWPOLYLINE
  5
15d
100
AcDbEntity
  8
Capa_1
 62
7
100
AcDbPolyline
 90
2
 70
0
 10
11.346016
 20
7.222677
 30
0.0
 10
7.629736
 20
7.220586
 30
0.0
  0
SPLINE
  5
15e
100
AcDbEntity
  8
Capa_1
 62
7
100
AcDbSpline
 70
8
 71
3
 72
8
 73
4
 74
0
 40
0
 40
0
 40
0
 40
0
 40
1
 40
1
 40
1
 40
1
 10
16.523950
 20
0.422386
 30
0.0
 10
16.523950
 20
0.277995
 30
0.0
 10
16.565785
 20
0.178865
 30
0.0
 10
16.650869
 20
0.119707
 30
0.0
  0
SPLINE
  5
15f
100
AcDbEntity
  8
Capa_1
 62
7
100
AcDbSpline
 70
8
 71
3
 72
8
 73
4
 74
0
 40
0
 40
0
 40
0
 40
0
 40
1
 40
1
 40
1
 40
1
 10
16.650869
 20
0.119707
 30
0.0
 10
16.740192
 20
0.064116
 30
0.0
 10
16.834604
 20
0.033122
 30
0.0
 10
16.932407
 20
0.033122
 30
0.0
  0
LWPOLYLINE
  5
160
100
AcDbEntity
  8
Capa_1
 62
7
100
AcDbPolyline
 90
2
 70
0
 10
16.523950
 20
6.831323
 30
0.0
 10
16.523950
 20
0.422386
 30
0.0
  0
SPLINE
  5
161
100
AcDbEntity
  8
Capa_1
 62
7
100
AcDbSpline
 70
8
 71
3
 72
8
 73
4
 74
0
 40
0
 40
0
 40
0
 40
0
 40
1
 40
1
 40
1
 40
1
 10
18.677013
 20
0.033122
 30
0.0
 10
19.383319
 20
0.033122
 30
0.0
 10
19.993856
 20
0.111836
 30
0.0
 10
20.504441
 20
0.263606
 30
0.0
  0
SPLINE
  5
162
100
AcDbEntity
  8
Capa_1
 62
7
100
AcDbSpline
 70
8
 71
3
 72
8
 73
4
 74
0
 40
0
 40
0
 40
0
 40
0
 40
1
 40
1
 40
1
 40
1
 10
20.504441
 20
0.263606
 30
0.0
 10
21.014998
 20
0.415375
 30
0.0
 10
21.447425
 20
0.642193
 30
0.0
 10
21.796324
 20
0.945807
 30
0.0
  0
SPLINE
  5
163
100
AcDbEntity
  8
Capa_1
 62
7
100
AcDbSpline
 70
8
 71
3
 72
8
 73
4
 74
0
 40
0
 40
0
 40
0
 40
0
 40
1
 40
1
 40
1
 40
1
 10
21.796324
 20
0.945807
 30
0.0
 10
22.149463
 20
1.253110
 30
0.0
 10
22.413900
 20
1.636027
 30
0.0
 10
22.596843
 20
2.098838
 30
0.0
  0
SPLINE
  5
164
100
AcDbEntity
  8
Capa_1
 62
7
100
AcDbSpline
 70
8
 71
3
 72
8
 73
4
 74
0
 40
0
 40
0
 40
0
 40
0
 40
1
 40
1
 40
1
 40
1
 10
22.596843
 20
2.098838
 30
0.0
 10
22.779730
 20
2.565364
 30
0.0
 10
22.873011
 20
3.110259
 30
0.0
 10
22.873011
 20
3.732294
 30
0.0
  0
SPLINE
  5
165
100
AcDbEntity
  8
Capa_1
 62
7
100
AcDbSpline
 70
8
 71
3
 72
8
 73
4
 74
0
 40
0
 40
0
 40
0
 40
0
 40
1
 40
1
 40
1
 40
1
 10
22.873011
 20
3.732294
 30
0.0
 10
22.873011
 20
4.272884
 30
0.0
 10
22.787928
 20
4.758498
 30
0.0
 10
22.613521
 20
5.188004
 30
0.0
  0
SPLINE
  5
166
100
AcDbEntity
  8
Capa_1
 62
7
100
AcDbSpline
 70
8
 71
3
 72
8
 73
4
 74
0
 40
0
 40
0
 40
0
 40
0
 40
1
 40
1
 40
1
 40
1
 10
22.613521
 20
5.188004
 30
0.0
 10
22.443354
 20
5.617510
 30
0.0
 10
22.187764
 20
5.983479
 30
0.0
 10
21.851642
 20
6.283378
 30
0.0
  0
SPLINE
  5
167
100
AcDbEntity
  8
Capa_1
 62
7
100
AcDbSpline
 70
8
 71
3
 72
8
 73
4
 74
0
 40
0
 40
0
 40
0
 40
0
 40
1
 40
1
 40
1
 40
1
 10
21.851642
 20
6.283378
 30
0.0
 10
21.519761
 20
6.586991
 30
0.0
 10
21.108505
 20
6.815998
 30
0.0
 10
20.614965
 20
6.975197
 30
0.0
  0
SPLINE
  5
168
100
AcDbEntity
  8
Capa_1
 62
7
100
AcDbSpline
 70
8
 71
3
 72
8
 73
4
 74
0
 40
0
 40
0
 40
0
 40
0
 40
1
 40
1
 40
1
 40
1
 10
20.614965
 20
6.975197
 30
0.0
 10
20.121396
 20
7.138035
 30
0.0
 10
19.513403
 20
7.220193
 30
0.0
 10
18.798589
 20
7.220193
 30
0.0
  0
LWPOLYLINE
  5
169
100
AcDbEntity
  8
Capa_1
 62
7
100
AcDbPolyline
 90
2
 70
0
 10
16.932407
 20
0.033122
 30
0.0
 10
18.677013
 20
0.033122
 30
0.0
  0
LWPOLYLINE
  5
16a
100
AcDbEntity
  8
Capa_1
 62
7
100
AcDbPolyline
 90
2
 70
0
 10
18.798589
 20
7.220193
 30
0.0
 10
16.932407
 20
7.220586
 30
0.0
  0
SPLINE
  5
16b
100
AcDbEntity
  8
Capa_1
 62
7
100
AcDbSpline
 70
8
 71
3
 72
8
 73
4
 74
0
 40
0
 40
0
 40
0
 40
0
 40
1
 40
1
 40
1
 40
1
 10
2.147481
 20
6.432688
 30
0.0
 10
2.364570
 20
6.432688
 30
0.0
 10
2.540080
 20
6.425308
 30
0.0
 10
2.671973
 20
6.413009
 30
0.0
  0
SPLINE
  5
16c
100
AcDbEntity
  8
Capa_1
 62
7
100
AcDbSpline
 70
8
 71
3
 72
8
 73
4
 74
0
 40
0
 40
0
 40
0
 40
0
 40
1
 40
1
 40
1
 40
1
 10
2.671973
 20
6.413009
 30
0.0
 10
2.808220
 20
6.400710
 30
0.0
 10
2.930050
 20
6.386197
 30
0.0
 10
3.036362
 20
6.360123
 30
0.0
  0
SPLINE
  5
16d
100
AcDbEntity
  8
Capa_1
 62
7
100
AcDbSpline
 70
8
 71
3
 72
8
 73
4
 74
0
 40
0
 40
0
 40
0
 40
0
 40
1
 40
1
 40
1
 40
1
 10
3.036362
 20
6.360123
 30
0.0
 10
3.376752
 20
6.275014
 30
0.0
 10
3.620441
 20
6.133576
 30
0.0
 10
3.765111
 20
5.937357
 30
0.0
  0
SPLINE
  5
16e
100
AcDbEntity
  8
Capa_1
 62
7
100
AcDbSpline
 70
8
 71
3
 72
8
 73
4
 74
0
 40
0
 40
0
 40
0
 40
0
 40
1
 40
1
 40
1
 40
1
 10
3.765111
 20
5.937357
 30
0.0
 10
3.909838
 20
5.744755
 30
0.0
 10
3.980505
 20
5.507704
 30
0.0
 10
3.980505
 20
5.226303
 30
0.0
  0
SPLINE
  5
16f
100
AcDbEntity
  8
Capa_1
 62
7
100
AcDbSpline
 70
8
 71
3
 72
8
 73
4
 74
0
 40
0
 40
0
 40
0
 40
0
 40
1
 40
1
 40
1
 40
1
 10
3.980505
 20
5.226303
 30
0.0
 10
3.980505
 20
5.052395
 30
0.0
 10
3.949129
 20
4.889187
 30
0.0
 10
3.881288
 20
4.741083
 30
0.0
  0
SPLINE
  5
170
100
AcDbEntity
  8
Capa_1
 62
7
100
AcDbSpline
 70
8
 71
3
 72
8
 73
4
 74
0
 40
0
 40
0
 40
0
 40
0
 40
1
 40
1
 40
1
 40
1
 10
3.881288
 20
4.741083
 30
0.0
 10
3.817405
 20
4.593003
 30
0.0
 10
3.712535
 20
4.467823
 30
0.0
 10
3.572105
 20
4.356739
 30
0.0
  0
SPLINE
  5
171
100
AcDbEntity
  8
Capa_1
 62
7
100
AcDbSpline
 70
8
 71
3
 72
8
 73
4
 74
0
 40
0
 40
0
 40
0
 40
0
 40
1
 40
1
 40
1
 40
1
 10
3.572105
 20
4.356739
 30
0.0
 10
3.431618
 20
4.249491
 30
0.0
 10
3.254837
 20
4.160201
 30
0.0
 10
3.042100
 20
4.097303
 30
0.0
  0
SPLINE
  5
172
100
AcDbEntity
  8
Capa_1
 62
7
100
AcDbSpline
 70
8
 71
3
 72
8
 73
4
 74
0
 40
0
 40
0
 40
0
 40
0
 40
1
 40
1
 40
1
 40
1
 10
3.042100
 20
4.097303
 30
0.0
 10
2.833490
 20
4.038022
 30
0.0
 10
2.586127
 20
4.010718
 30
0.0
 10
2.296786
 20
4.010718
 30
0.0
  0
LWPOLYLINE
  5
173
100
AcDbEntity
  8
Capa_1
 62
7
100
AcDbPolyline
 90
2
 70
0
 10
1.225498
 20
6.432688
 30
0.0
 10
2.147481
 20
6.432688
 30
0.0
  0
LWPOLYLINE
  5
174
100
AcDbEntity
  8
Capa_1
 62
7
100
AcDbPolyline
 90
3
 70
0
 10
2.296786
 20
4.010718
 30
0.0
 10
1.225725
 20
4.010718
 30
0.0
 10
1.225498
 20
6.432688
 30
0.0
  0
SPLINE
  5
175
100
AcDbEntity
  8
Capa_1
 62
7
100
AcDbSpline
 70
8
 71
3
 72
8
 73
4
 74
0
 40
0
 40
0
 40
0
 40
0
 40
1
 40
1
 40
1
 40
1
 10
18.737759
 20
6.427768
 30
0.0
 10
19.307902
 20
6.427768
 30
0.0
 10
19.772865
 20
6.358156
 30
0.0
 10
20.134540
 20
6.221145
 30
0.0
  0
SPLINE
  5
176
100
AcDbEntity
  8
Capa_1
 62
7
100
AcDbSpline
 70
8
 71
3
 72
8
 73
4
 74
0
 40
0
 40
0
 40
0
 40
0
 40
1
 40
1
 40
1
 40
1
 10
20.134540
 20
6.221145
 30
0.0
 10
20.496187
 20
6.084134
 30
0.0
 10
20.794884
 20
5.893794
 30
0.0
 10
21.028905
 20
5.649438
 30
0.0
  0
SPLINE
  5
177
100
AcDbEntity
  8
Capa_1
 62
7
100
AcDbSpline
 70
8
 71
3
 72
8
 73
4
 74
0
 40
0
 40
0
 40
0
 40
0
 40
1
 40
1
 40
1
 40
1
 10
21.028905
 20
5.649438
 30
0.0
 10
21.267196
 20
5.404934
 30
0.0
 10
21.442761
 20
5.111996
 30
0.0
 10
21.553398
 20
4.775052
 30
0.0
  0
SPLINE
  5
178
100
AcDbEntity
  8
Capa_1
 62
7
100
AcDbSpline
 70
8
 71
3
 72
8
 73
4
 74
0
 40
0
 40
0
 40
0
 40
0
 40
1
 40
1
 40
1
 40
1
 10
21.553398
 20
4.775052
 30
0.0
 10
21.663922
 20
4.441823
 30
0.0
 10
21.719042
 20
4.082864
 30
0.0
 10
21.719042
 20
3.694093
 30
0.0
  0
SPLINE
  5
179
100
AcDbEntity
  8
Capa_1
 62
7
100
AcDbSpline
 70
8
 71
3
 72
8
 73
4
 74
0
 40
0
 40
0
 40
0
 40
0
 40
1
 40
1
 40
1
 40
1
 10
21.719042
 20
3.694093
 30
0.0
 10
21.719042
 20
3.205355
 30
0.0
 10
21.654594
 20
2.780105
 30
0.0
 10
21.531350
 20
2.420949
 30
0.0
  0
SPLINE
  5
17a
100
AcDbEntity
  8
Capa_1
 62
7
100
AcDbSpline
 70
8
 71
3
 72
8
 73
4
 74
0
 40
0
 40
0
 40
0
 40
0
 40
1
 40
1
 40
1
 40
1
 10
21.531350
 20
2.420949
 30
0.0
 10
21.412346
 20
2.065508
 30
0.0
 10
21.232823
 20
1.769127
 30
0.0
 10
20.990293
 20
1.532149
 30
0.0
  0
SPLINE
  5
17b
100
AcDbEntity
  8
Capa_1
 62
7
100
AcDbSpline
 70
8
 71
3
 72
8
 73
4
 74
0
 40
0
 40
0
 40
0
 40
0
 40
1
 40
1
 40
1
 40
1
 10
20.990293
 20
1.532149
 30
0.0
 10
20.747763
 20
1.295271
 30
0.0
 10
20.446522
 20
1.118460
 30
0.0
 10
20.084875
 20
1.003686
 30
0.0
  0
SPLINE
  5
17c
100
AcDbEntity
  8
Capa_1
 62
7
100
AcDbSpline
 70
8
 71
3
 72
8
 73
4
 74
0
 40
0
 40
0
 40
0
 40
0
 40
1
 40
1
 40
1
 40
1
 10
20.084875
 20
1.003686
 30
0.0
 10
19.723200
 20
0.888813
 30
0.0
 10
19.276413
 20
0.835435
 30
0.0
 10
18.748811
 20
0.835435
 30
0.0
  0
LWPOLYLINE
  5
17d
100
AcDbEntity
  8
Capa_1
 62
7
100
AcDbPolyline
 90
2
 70
0
 10
17.617004
 20
6.427768
 30
0.0
 10
18.737759
 20
6.427768
 30
0.0
  0
LWPOLYLINE
  5
17e
100
AcDbEntity
  8
Capa_1
 62
7
100
AcDbPolyline
 90
3
 70
0
 10
18.748811
 20
0.835435
 30
0.0
 10
17.617032
 20
0.835435
 30
0.0
 10
17.617004
 20
6.427768
 30
0.0
  0
LWPOLYLINE
  5
17f
100
AcDbEntity
  8
Capa_1
 62
7
100
AcDbPolyline
 90
7
 70
1
 10
-0.000110
 20
9.325187
 30
0.0
 10
-0.000110
 20
26.214557
 30
0.0
 10
6.193020
 20
32.428837
 30
0.0
 10
22.999890
 20
32.428837
 30
0.0
 10
22.999890
 20
9.220017
 30
0.0
 10
21.893020
 20
8.218317
 30
0.0
 10
1.001590
 20
8.218317
 30
0.0
  0
SPLINE
  5
180
100
AcDbEntity
  8
Capa_1
 62
7
100
AcDbSpline
 70
8
 71
3
 72
8
 73
4
 74
0
 40
0
 40
0
 40
0
 40
0
 40
1
 40
1
 40
1
 40
1
 10
6.052550
 20
23.829137
 30
0.0
 10
6.917650
 20
24.678157
 30
0.0
 10
7.782750
 20
25.527177
 30
0.0
 10
8.647830
 20
26.376217
 30
0.0
  0
LWPOLYLINE
  5
181
100
AcDbEntity
  8
Capa_1
 62
7
100
AcDbPolyline
 90
8
 70
0
 10
21.829590
 20
12.455157
 30
0.0
 10
3.026240
 20
12.455157
 30
0.0
 10
3.026240
 20
25.029517
 30
0.0
 10
7.428630
 20
29.402517
 30
0.0
 10
19.973610
 20
29.402517
 30
0.0
 10
19.973610
 20
15.481467
 30
0.0
 10
6.052550
 20
15.481467
 30
0.0
 10
6.052550
 20
23.829137
 30
0.0
  0
SPLINE
  5
182
100
AcDbEntity
  8
Capa_1
 62
7
100
AcDbSpline
 70
8
 71
3
 72
8
 73
4
 74
0
 40
0
 40
0
 40
0
 40
0
 40
1
 40
1
 40
1
 40
1
 10
9.558350
 20
25.165687
 30
0.0
 10
8.793250
 20
24.418607
 30
0.0
 10
8.028170
 20
23.671507
 30
0.0
 10
7.263070
 20
22.924417
 30
0.0
  0
LWPOLYLINE
  5
183
100
AcDbEntity
  8
Capa_1
 62
7
100
AcDbPolyline
 90
12
 70
0
 10
8.647830
 20
26.376217
 30
0.0
 10
16.947290
 20
26.376217
 30
0.0
 10
16.947290
 20
20.323567
 30
0.0
 10
13.920970
 20
20.323567
 30
0.0
 10
13.920970
 20
18.507787
 30
0.0
 10
9.078860
 20
18.507787
 30
0.0
 10
9.078860
 20
23.349897
 30
0.0
 10
13.920970
 20
23.349897
 30
0.0
 10
13.920970
 20
21.534107
 30
0.0
 10
15.736770
 20
21.534107
 30
0.0
 10
15.736770
 20
25.165687
 30
0.0
 10
9.558350
 20
25.165687
 30
0.0
  0
SPLINE
  5
184
100
AcDbEntity
  8
Capa_1
 62
7
100
AcDbSpline
 70
8
 71
3
 72
8
 73
4
 74
0
 40
0
 40
0
 40
0
 40
0
 40
1
 40
1
 40
1
 40
1
 10
8.337480
 20
28.191997
 30
0.0
 10
6.970570
 20
26.835567
 30
0.0
 10
5.603670
 20
25.479147
 30
0.0
 10
4.236770
 20
24.122707
 30
0.0
  0
LWPOLYLINE
  5
185
100
AcDbEntity
  8
Capa_1
 62
7
100
AcDbPolyline
 90
5
 70
0
 10
7.263070
 20
22.924417
 30
0.0
 10
7.263070
 20
16.691997
 30
0.0
 10
18.763080
 20
16.691997
 30
0.0
 10
18.763080
 20
28.191997
 30
0.0
 10
8.337480
 20
28.191997
 30
0.0
  0
SPLINE
  5
186
100
AcDbEntity
  8
Capa_1
 62
7
100
AcDbSpline
 70
8
 71
3
 72
8
 73
4
 74
0
 40
0
 40
0
 40
0
 40
0
 40
1
 40
1
 40
1
 40
1
 10
7.122600
 20
31.218317
 30
0.0
 10
7.122600
 20
31.218317
 30
0.0
 10
3.181160
 20
27.291677
 30
0.0
 10
1.210450
 20
25.328347
 30
0.0
  0
LWPOLYLINE
  5
187
100
AcDbEntity
  8
Capa_1
 62
7
100
AcDbPolyline
 90
5
 70
0
 10
4.236770
 20
24.122707
 30
0.0
 10
4.236770
 20
13.665677
 30
0.0
 10
21.789400
 20
13.665677
 30
0.0
 10
21.789400
 20
31.218317
 30
0.0
 10
7.122600
 20
31.218317
 30
0.0
  0
LWPOLYLINE
  5
188
100
AcDbEntity
  8
Capa_1
 62
7
100
AcDbPolyline
 90
5
 70
0
 10
1.210450
 20
25.328347
 30
0.0
 10
1.210450
 20
11.042877
 30
0.0
 10
1.621980
 20
10.631347
 30
0.0
 10
21.829590
 20
10.631347
 30
0.0
 10
21.829590
 20
12.455157
 30
0.0
  0
ENDSEC
  0
SECTION
  2
OBJECTS
  0
DICTIONARY
  5
C
330
0
100
AcDbDictionary
  3
ACAD_GROUP
350
D
  3
ACAD_MLINESTYLE
350
17
  0
DICTIONARY
  5
D
330
C
100
AcDbDictionary
  0
DICTIONARY
  5
1A
330
C
100
AcDbDictionary
  0
DICTIONARY
  5
17
330
C
100
AcDbDictionary
  3
STANDARD
350
18
  0
DICTIONARY
  5
19
330
C
100
AcDbDictionary
  0
ENDSEC
  0
EOF
