<?xml version="1.0" encoding="UTF-8" standalone="no"?>
<!-- Created with Inkscape (http://www.inkscape.org/) -->

<svg
   width="12mm"
   height="12.025414mm"
   viewBox="0 0 12 12.025415"
   version="1.1"
   id="svg5"
   xml:space="preserve"
   inkscape:version="1.2.2 (732a01da63, 2022-12-09)"
   sodipodi:docname="switch.svg"
   xmlns:inkscape="http://www.inkscape.org/namespaces/inkscape"
   xmlns:sodipodi="http://sodipodi.sourceforge.net/DTD/sodipodi-0.dtd"
   xmlns="http://www.w3.org/2000/svg"
   xmlns:svg="http://www.w3.org/2000/svg"><sodipodi:namedview
     id="namedview7"
     pagecolor="#505050"
     bordercolor="#eeeeee"
     borderopacity="1"
     inkscape:showpageshadow="0"
     inkscape:pageopacity="0"
     inkscape:pagecheckerboard="0"
     inkscape:deskcolor="#505050"
     inkscape:document-units="mm"
     showgrid="false"
     inkscape:zoom="18.767718"
     inkscape:cx="22.698551"
     inkscape:cy="22.725193"
     inkscape:window-width="1920"
     inkscape:window-height="1111"
     inkscape:window-x="-9"
     inkscape:window-y="-9"
     inkscape:window-maximized="1"
     inkscape:current-layer="layer1"
     showguides="true"><inkscape:grid
       type="xygrid"
       id="grid331"
       originx="3.9494591"
       originy="-36.378587" /></sodipodi:namedview><defs
     id="defs2" /><g
     inkscape:label="Capa 1"
     inkscape:groupmode="layer"
     id="layer1"
     transform="translate(3.9494592,-36.378575)"><path
       style="fill:#000000;stroke-width:0.279121"
       id="path345"
       d="" /><path
       style="fill:#020202;stroke:none;stroke-width:0.0256002"
       d="m 1.9877154,36.389664 c -0.4775469,0.04179 -0.9384537,0.05954 -1.40801332,0.176931 -1.39831095,0.349576 -2.66073058,1.20829 -3.48098028,2.396822 -1.7868387,2.589107 -1.237439,6.247279 1.2537591,8.181198 0.6345788,0.492625 1.3763715,0.847266 2.15042044,1.056625 C 1.1566804,48.378035 1.875996,48.444185 2.5509208,48.379954 5.450532,48.10401 7.7490492,45.805799 8.02502,42.905854 8.2868343,40.154827 6.5076939,37.551482 3.9077337,36.684996 3.3198497,36.489069 2.6103134,36.335181 1.9877154,36.389664 m -0.076801,2.198172 c 0.2633754,-0.04713 0.5397044,0.06052 0.6366013,0.324381 l 0.019025,2.534424 c -0.047028,0.215784 -0.2410263,0.362039 -0.4508202,0.397623 -0.252828,0.04288 -0.5265714,-0.124622 -0.598073,-0.372023 l -0.011593,-2.457623 c 0.026522,-0.210204 0.1959443,-0.38938 0.4048679,-0.426782 m -2.27842166,0.947209 c 0.38999408,-0.06776 0.7425095,0.330218 0.61161541,0.708385 -0.0765704,0.221237 -0.2821403,0.375837 -0.41395591,0.563205 -0.21926607,0.311657 -0.37110115,0.652883 -0.45655475,1.02401 -0.35556181,1.544258 0.89257809,3.257477 2.51171671,3.276728 1.709167,0.02033 3.1839463,-1.466945 2.8301249,-3.225528 C 4.6423841,41.51868 4.4978449,41.162862 4.2864893,40.857835 4.1442799,40.652598 3.9161312,40.483841 3.8336983,40.24343 c -0.129691,-0.378244 0.2208271,-0.776302 0.6116405,-0.708385 0.3001116,0.05215 0.507448,0.349188 0.6730309,0.580383 0.4400423,0.614381 0.7349319,1.361754 0.7349832,2.12482 9.68e-5,2.01666 -1.3835143,3.766334 -3.4560334,3.963686 -2.04691863,0.19492 -4.1694093,-1.438734 -4.1728397,-3.579682 -0.00143,-0.889429 0.1605136,-1.721232 0.6950979,-2.457623 0.17710244,-0.243971 0.39304046,-0.576006 0.71291554,-0.631584 z"
       id="path196"
       sodipodi:nodetypes="ccssccccccccccccccccccsccccccccc" /></g></svg>
