  0
SECTION
  2
HEADER
  9
$ACADVER
  1
AC1014
  9
$HANDSEED
  5
FFFF
  9
$INSUNITS
 70
     4
  9
$MEASUREMENT
 70
     1
  0
ENDSEC
  0
SECTION
  2
TABLES
  0
TABLE
  2
VPORT
  5
8
330
0
100
AcDbSymbolTable
 70
     4
  0
VPORT
  5
2E
330
8
100
AcDbSymbolTableRecord
100
AcDbViewportTableRecord
  2
*ACTIVE
 70
     0
 10
0.0
 20
0.0
 11
1.0
 21
1.0
 12
210.0
 22
148.5
 13
0.0
 23
0.0
 14
10.0
 24
10.0
 15
10.0
 25
10.0
 16
0.0
 26
0.0
 36
1.0
 17
0.0
 27
0.0
 37
0.0
 40
341.0
 41
1.24
 42
50.0
 43
0.0
 44
0.0
 50
0.0
 51
0.0
 71
     0
 72
   100
 73
     1
 74
     3
 75
     0
 76
     0
 77
     0
 78
     0
  0
ENDTAB
  0
TABLE
  2
LTYPE
  5
5
330
0
100
AcDbSymbolTable
 70
     1
  0
LTYPE
  5
14
330
5
100
AcDbSymbolTableRecord
100
AcDbLinetypeTableRecord
  2
BYBLOCK
 70
     0
  3

 72
    65
 73
     0
 40
0.0
  0
LTYPE
  5
15
330
5
100
AcDbSymbolTableRecord
100
AcDbLinetypeTableRecord
  2
BYLAYER
 70
     0
  3

 72
    65
 73
     0
 40
0.0
  0
LTYPE
  5
16
330
5
100
AcDbSymbolTableRecord
100
AcDbLinetypeTableRecord
  2
CONTINUOUS
 70
     0
  3
Solid line
 72
    65
 73
     0
 40
0.0
  0
ENDTAB
  0
TABLE
  2
LAYER
  5
2
100
AcDbSymbolTable
 70
2
  0
LAYER
  5
50
100
AcDbSymbolTableRecord
100
AcDbLayerTableRecord
  2
0
 70
0
  6
CONTINUOUS
  0
LAYER
  5
51
100
AcDbSymbolTableRecord
100
AcDbLayerTableRecord
  2
Capa_1
 70
0
  6
CONTINUOUS
  0
ENDTAB
  0
TABLE
  2
STYLE
  5
3
330
0
100
AcDbSymbolTable
 70
     1
  0
STYLE
  5
11
330
3
100
AcDbSymbolTableRecord
100
AcDbTextStyleTableRecord
  2
STANDARD
 70
     0
 40
0.0
 41
1.0
 50
0.0
 71
     0
 42
2.5
  3
txt
  4

  0
ENDTAB
  0
TABLE
  2
VIEW
  5
6
330
0
100
AcDbSymbolTable
 70
     0
  0
ENDTAB
  0
TABLE
  2
UCS
  5
7
330
0
100
AcDbSymbolTable
 70
     0
  0
ENDTAB
  0
TABLE
  2
APPID
  5
9
330
0
100
AcDbSymbolTable
 70
     2
  0
APPID
  5
12
330
9
100
AcDbSymbolTableRecord
100
AcDbRegAppTableRecord
  2
ACAD
 70
     0
  0
ENDTAB
  0
TABLE
  2
DIMSTYLE
  5
A
330
0
100
AcDbSymbolTable
 70
     1
  0
DIMSTYLE
105
27
330
A
100
AcDbSymbolTableRecord
100
AcDbDimStyleTableRecord
  2
ISO-25
 70
     0
  3

  4

  5

  6

  7

 40
1.0
 41
2.5
 42
0.625
 43
3.75
 44
1.25
 45
0.0
 46
0.0
 47
0.0
 48
0.0
140
2.5
141
2.5
142
0.0
143
0.03937007874016
144
1.0
145
0.0
146
1.0
147
0.625
 71
     0
 72
     0
 73
     0
 74
     0
 75
     0
 76
     0
 77
     1
 78
     8
170
     0
171
     3
172
     1
173
     0
174
     0
175
     0
176
     0
177
     0
178
     0
270
     2
271
     2
272
     2
273
     2
274
     3
340
11
275
     0
280
     0
281
     0
282
     0
283
     0
284
     8
285
     0
286
     0
287
     3
288
     0
  0
ENDTAB
  0
TABLE
  2
BLOCK_RECORD
  5
1
330
0
100
AcDbSymbolTable
 70
     1
  0
BLOCK_RECORD
  5
1F
330
1
100
AcDbSymbolTableRecord
100
AcDbBlockTableRecord
  2
*MODEL_SPACE
  0
BLOCK_RECORD
  5
1B
330
1
100
AcDbSymbolTableRecord
100
AcDbBlockTableRecord
  2
*PAPER_SPACE
  0
ENDTAB
  0
ENDSEC
  0
SECTION
  2
BLOCKS
  0
BLOCK
  5
20
330
1F
100
AcDbEntity
  8
0
100
AcDbBlockBegin
  2
*MODEL_SPACE
 70
     0
 10
0.0
 20
0.0
 30
0.0
  3
*MODEL_SPACE
  1

  0
ENDBLK
  5
21
330
1F
100
AcDbEntity
  8
0
100
AcDbBlockEnd
  0
BLOCK
  5
1C
330
1B
100
AcDbEntity
 67
     1
  8
0
100
AcDbBlockBegin
  2
*PAPER_SPACE
  1

  0
ENDBLK
  5
1D
330
1B
100
AcDbEntity
 67
     1
  8
0
100
AcDbBlockEnd
  0
ENDSEC
  0
SECTION
  2
ENTITIES
  0
SPLINE
  5
100
100
AcDbEntity
  8
Capa_1
 62
7
100
AcDbSpline
 70
8
 71
3
 72
8
 73
4
 74
0
 40
0
 40
0
 40
0
 40
0
 40
1
 40
1
 40
1
 40
1
 10
3.769740
 20
0.027540
 30
0.0
 10
3.550540
 20
0.070540
 30
0.0
 10
3.288600
 20
0.212670
 30
0.0
 10
3.122840
 20
0.378420
 30
0.0
  0
SPLINE
  5
101
100
AcDbEntity
  8
Capa_1
 62
7
100
AcDbSpline
 70
8
 71
3
 72
8
 73
4
 74
0
 40
0
 40
0
 40
0
 40
0
 40
1
 40
1
 40
1
 40
1
 10
3.122840
 20
0.378420
 30
0.0
 10
2.636360
 20
0.864910
 30
0.0
 10
2.631090
 20
1.660070
 30
0.0
 10
3.111140
 20
2.145190
 30
0.0
  0
SPLINE
  5
102
100
AcDbEntity
  8
Capa_1
 62
7
100
AcDbSpline
 70
8
 71
3
 72
8
 73
4
 74
0
 40
0
 40
0
 40
0
 40
0
 40
1
 40
1
 40
1
 40
1
 10
1.942690
 20
3.596720
 30
0.0
 10
1.223480
 20
4.317690
 30
0.0
 10
0.620450
 20
4.936390
 30
0.0
 10
0.602650
 20
4.971620
 30
0.0
  0
SPLINE
  5
103
100
AcDbEntity
  8
Capa_1
 62
7
100
AcDbSpline
 70
8
 71
3
 72
8
 73
4
 74
0
 40
0
 40
0
 40
0
 40
0
 40
1
 40
1
 40
1
 40
1
 10
0.602650
 20
4.971620
 30
0.0
 10
0.580550
 20
5.015320
 30
0.0
 10
0.570250
 20
5.427190
 30
0.0
 10
0.570250
 20
6.268840
 30
0.0
  0
LWPOLYLINE
  5
104
100
AcDbEntity
  8
Capa_1
 62
7
100
AcDbPolyline
 90
3
 70
0
 10
3.111140
 20
2.145190
 30
0.0
 10
3.250350
 20
2.285880
 30
0.0
 10
1.942690
 20
3.596720
 30
0.0
  0
SPLINE
  5
105
100
AcDbEntity
  8
Capa_1
 62
7
100
AcDbSpline
 70
8
 71
3
 72
8
 73
4
 74
0
 40
0
 40
0
 40
0
 40
0
 40
1
 40
1
 40
1
 40
1
 10
0.459040
 20
7.572190
 30
0.0
 10
0.182230
 20
7.746940
 30
0.0
 10
0.002080
 20
8.070660
 30
0.0
 10
0.000000
 20
8.397100
 30
0.0
  0
SPLINE
  5
106
100
AcDbEntity
  8
Capa_1
 62
7
100
AcDbSpline
 70
8
 71
3
 72
8
 73
4
 74
0
 40
0
 40
0
 40
0
 40
0
 40
1
 40
1
 40
1
 40
1
 10
0.000000
 20
8.397100
 30
0.0
 10
-0.002000
 20
8.658950
 30
0.0
 10
0.047500
 20
8.825890
 30
0.0
 10
0.185200
 20
9.025850
 30
0.0
  0
SPLINE
  5
107
100
AcDbEntity
  8
Capa_1
 62
7
100
AcDbSpline
 70
8
 71
3
 72
8
 73
4
 74
0
 40
0
 40
0
 40
0
 40
0
 40
1
 40
1
 40
1
 40
1
 10
0.185200
 20
9.025850
 30
0.0
 10
0.613080
 20
9.647210
 30
0.0
 10
1.548080
 20
9.598510
 30
0.0
 10
1.927610
 20
8.935150
 30
0.0
  0
SPLINE
  5
108
100
AcDbEntity
  8
Capa_1
 62
7
100
AcDbSpline
 70
8
 71
3
 72
8
 73
4
 74
0
 40
0
 40
0
 40
0
 40
0
 40
1
 40
1
 40
1
 40
1
 10
1.927610
 20
8.935150
 30
0.0
 10
2.187570
 20
8.480760
 30
0.0
 10
2.047080
 20
7.846760
 30
0.0
 10
1.629690
 20
7.590720
 30
0.0
  0
LWPOLYLINE
  5
109
100
AcDbEntity
  8
Capa_1
 62
7
100
AcDbPolyline
 90
3
 70
0
 10
0.570250
 20
6.268840
 30
0.0
 10
0.570250
 20
7.501990
 30
0.0
 10
0.459040
 20
7.572190
 30
0.0
  0
SPLINE
  5
10a
100
AcDbEntity
  8
Capa_1
 62
7
100
AcDbSpline
 70
8
 71
3
 72
8
 73
4
 74
0
 40
0
 40
0
 40
0
 40
0
 40
1
 40
1
 40
1
 40
1
 10
2.483600
 20
4.335770
 30
0.0
 10
3.018880
 20
3.779350
 30
0.0
 10
3.467140
 20
3.319700
 30
0.0
 10
3.479740
 20
3.314320
 30
0.0
  0
SPLINE
  5
10b
100
AcDbEntity
  8
Capa_1
 62
7
100
AcDbSpline
 70
8
 71
3
 72
8
 73
4
 74
0
 40
0
 40
0
 40
0
 40
0
 40
1
 40
1
 40
1
 40
1
 10
3.479740
 20
3.314320
 30
0.0
 10
3.492340
 20
3.309320
 30
0.0
 10
3.502640
 20
5.172850
 30
0.0
 10
3.502640
 20
7.456320
 30
0.0
  0
LWPOLYLINE
  5
10c
100
AcDbEntity
  8
Capa_1
 62
7
100
AcDbPolyline
 90
5
 70
0
 10
1.629690
 20
7.590720
 30
0.0
 10
1.510180
 20
7.517420
 30
0.0
 10
1.510270
 20
6.432430
 30
0.0
 10
1.510360
 20
5.347450
 30
0.0
 10
2.483600
 20
4.335770
 30
0.0
  0
SPLINE
  5
10d
100
AcDbEntity
  8
Capa_1
 62
7
100
AcDbSpline
 70
8
 71
3
 72
8
 73
4
 74
0
 40
0
 40
0
 40
0
 40
0
 40
1
 40
1
 40
1
 40
1
 10
3.127030
 20
11.608100
 30
0.0
 10
2.718750
 20
11.608100
 30
0.0
 10
2.644910
 20
11.631000
 30
0.0
 10
2.644910
 20
11.757570
 30
0.0
  0
SPLINE
  5
10e
100
AcDbEntity
  8
Capa_1
 62
7
100
AcDbSpline
 70
8
 71
3
 72
8
 73
4
 74
0
 40
0
 40
0
 40
0
 40
0
 40
1
 40
1
 40
1
 40
1
 10
2.644910
 20
11.757570
 30
0.0
 10
2.644910
 20
11.796870
 30
0.0
 10
2.925270
 20
12.521690
 30
0.0
 10
3.267910
 20
13.368100
 30
0.0
  0
SPLINE
  5
10f
100
AcDbEntity
  8
Capa_1
 62
7
100
AcDbSpline
 70
8
 71
3
 72
8
 73
4
 74
0
 40
0
 40
0
 40
0
 40
0
 40
1
 40
1
 40
1
 40
1
 10
3.267910
 20
13.368100
 30
0.0
 10
3.610570
 20
14.214520
 30
0.0
 10
3.897140
 20
14.923030
 30
0.0
 10
3.904750
 20
14.942580
 30
0.0
  0
SPLINE
  5
110
100
AcDbEntity
  8
Capa_1
 62
7
100
AcDbSpline
 70
8
 71
3
 72
8
 73
4
 74
0
 40
0
 40
0
 40
0
 40
0
 40
1
 40
1
 40
1
 40
1
 10
3.904750
 20
14.942580
 30
0.0
 10
3.926750
 20
14.999280
 30
0.0
 10
4.032830
 20
15.020080
 30
0.0
 10
4.075430
 20
14.975980
 30
0.0
  0
SPLINE
  5
111
100
AcDbEntity
  8
Capa_1
 62
7
100
AcDbSpline
 70
8
 71
3
 72
8
 73
4
 74
0
 40
0
 40
0
 40
0
 40
0
 40
1
 40
1
 40
1
 40
1
 10
4.075430
 20
14.975980
 30
0.0
 10
4.124130
 20
14.925680
 30
0.0
 10
5.379370
 20
11.822170
 30
0.0
 10
5.379370
 20
11.752120
 30
0.0
  0
SPLINE
  5
112
100
AcDbEntity
  8
Capa_1
 62
7
100
AcDbSpline
 70
8
 71
3
 72
8
 73
4
 74
0
 40
0
 40
0
 40
0
 40
0
 40
1
 40
1
 40
1
 40
1
 10
5.379370
 20
11.752120
 30
0.0
 10
5.379370
 20
11.627420
 30
0.0
 10
5.310070
 20
11.608050
 30
0.0
 10
4.864100
 20
11.608050
 30
0.0
  0
LWPOLYLINE
  5
113
100
AcDbEntity
  8
Capa_1
 62
7
100
AcDbPolyline
 90
3
 70
0
 10
3.502640
 20
7.456320
 30
0.0
 10
3.502640
 20
11.608100
 30
0.0
 10
3.127030
 20
11.608100
 30
0.0
  0
SPLINE
  5
114
100
AcDbEntity
  8
Capa_1
 62
7
100
AcDbSpline
 70
8
 71
3
 72
8
 73
4
 74
0
 40
0
 40
0
 40
0
 40
0
 40
1
 40
1
 40
1
 40
1
 10
6.315800
 20
9.027550
 30
0.0
 10
5.933400
 20
9.027550
 30
0.0
 10
5.965840
 20
8.932250
 30
0.0
 10
5.965840
 20
10.055280
 30
0.0
  0
LWPOLYLINE
  5
115
100
AcDbEntity
  8
Capa_1
 62
7
100
AcDbPolyline
 90
9
 70
0
 10
4.864100
 20
11.608050
 30
0.0
 10
4.441000
 20
11.608050
 30
0.0
 10
4.441000
 20
8.541360
 30
0.0
 10
4.441000
 20
5.474670
 30
0.0
 10
5.496650
 20
6.510160
 30
0.0
 10
6.552320
 20
7.545650
 30
0.0
 10
6.552320
 20
8.286590
 30
0.0
 10
6.552320
 20
9.027550
 30
0.0
 10
6.315800
 20
9.027550
 30
0.0
  0
SPLINE
  5
116
100
AcDbEntity
  8
Capa_1
 62
7
100
AcDbSpline
 70
8
 71
3
 72
8
 73
4
 74
0
 40
0
 40
0
 40
0
 40
0
 40
1
 40
1
 40
1
 40
1
 10
8.002900
 20
9.055760
 30
0.0
 10
7.961300
 20
9.039960
 30
0.0
 10
7.829170
 20
9.027060
 30
0.0
 10
7.709260
 20
9.027060
 30
0.0
  0
LWPOLYLINE
  5
117
100
AcDbEntity
  8
Capa_1
 62
7
100
AcDbPolyline
 90
7
 70
0
 10
5.965840
 20
10.055280
 30
0.0
 10
5.965840
 20
11.022320
 30
0.0
 10
7.014170
 20
11.014320
 30
0.0
 10
8.062500
 20
11.006320
 30
0.0
 10
8.070500
 20
10.045390
 30
0.0
 10
8.078500
 20
9.084460
 30
0.0
 10
8.002900
 20
9.055760
 30
0.0
  0
SPLINE
  5
118
100
AcDbEntity
  8
Capa_1
 62
7
100
AcDbSpline
 70
8
 71
3
 72
8
 73
4
 74
0
 40
0
 40
0
 40
0
 40
0
 40
1
 40
1
 40
1
 40
1
 10
7.491240
 20
8.175720
 30
0.0
 10
7.491240
 20
7.475760
 30
0.0
 10
7.483240
 20
7.305180
 30
0.0
 10
7.446140
 20
7.216390
 30
0.0
  0
SPLINE
  5
119
100
AcDbEntity
  8
Capa_1
 62
7
100
AcDbSpline
 70
8
 71
3
 72
8
 73
4
 74
0
 40
0
 40
0
 40
0
 40
0
 40
1
 40
1
 40
1
 40
1
 10
7.446140
 20
7.216390
 30
0.0
 10
7.415140
 20
7.141990
 30
0.0
 10
6.939810
 20
6.652550
 30
0.0
 10
5.921300
 20
5.645890
 30
0.0
  0
LWPOLYLINE
  5
11a
100
AcDbEntity
  8
Capa_1
 62
7
100
AcDbPolyline
 90
3
 70
0
 10
7.709260
 20
9.027060
 30
0.0
 10
7.491240
 20
9.027060
 30
0.0
 10
7.491240
 20
8.175720
 30
0.0
  0
SPLINE
  5
11b
100
AcDbEntity
  8
Capa_1
 62
7
100
AcDbSpline
 70
8
 71
3
 72
8
 73
4
 74
0
 40
0
 40
0
 40
0
 40
0
 40
1
 40
1
 40
1
 40
1
 10
4.575310
 20
2.375870
 30
0.0
 10
4.862540
 20
2.236320
 30
0.0
 10
5.134170
 20
1.897430
 30
0.0
 10
5.221400
 20
1.569800
 30
0.0
  0
SPLINE
  5
11c
100
AcDbEntity
  8
Capa_1
 62
7
100
AcDbSpline
 70
8
 71
3
 72
8
 73
4
 74
0
 40
0
 40
0
 40
0
 40
0
 40
1
 40
1
 40
1
 40
1
 10
5.221400
 20
1.569800
 30
0.0
 10
5.405070
 20
0.879900
 30
0.0
 10
4.945280
 20
0.159050
 30
0.0
 10
4.235720
 20
0.024480
 30
0.0
  0
SPLINE
  5
11d
100
AcDbEntity
  8
Capa_1
 62
7
100
AcDbSpline
 70
8
 71
3
 72
8
 73
4
 74
0
 40
0
 40
0
 40
0
 40
0
 40
1
 40
1
 40
1
 40
1
 10
4.235720
 20
0.024480
 30
0.0
 10
4.058440
 20
-0.009120
 30
0.0
 10
3.951320
 20
-0.008520
 30
0.0
 10
3.770300
 20
0.026480
 30
0.0
  0
LWPOLYLINE
  5
11e
100
AcDbEntity
  8
Capa_1
 62
7
100
AcDbPolyline
 90
5
 70
0
 10
5.921300
 20
5.645890
 30
0.0
 10
4.441580
 20
4.183390
 30
0.0
 10
4.441580
 20
3.312130
 30
0.0
 10
4.441580
 20
2.440870
 30
0.0
 10
4.575310
 20
2.375870
 30
0.0
  0
LWPOLYLINE
  5
11f
100
AcDbEntity
  8
Capa_1
 62
7
100
AcDbPolyline
 90
2
 70
0
 10
3.770300
 20
0.026480
 30
0.0
 10
3.769740
 20
0.027540
 30
0.0
  0
ENDSEC
  0
SECTION
  2
OBJECTS
  0
DICTIONARY
  5
C
330
0
100
AcDbDictionary
  3
ACAD_GROUP
350
D
  3
ACAD_MLINESTYLE
350
17
  0
DICTIONARY
  5
D
330
C
100
AcDbDictionary
  0
DICTIONARY
  5
1A
330
C
100
AcDbDictionary
  0
DICTIONARY
  5
17
330
C
100
AcDbDictionary
  3
STANDARD
350
18
  0
DICTIONARY
  5
19
330
C
100
AcDbDictionary
  0
ENDSEC
  0
EOF
