<?xml version="1.0" encoding="UTF-8" standalone="no"?>
<!-- Created with Inkscape (http://www.inkscape.org/) -->

<svg
   width="8.078558mm"
   height="15mm"
   viewBox="0 0 8.078558 15"
   version="1.1"
   id="svg699"
   xml:space="preserve"
   inkscape:version="1.2.2 (732a01da63, 2022-12-09)"
   sodipodi:docname="usb.svg"
   xmlns:inkscape="http://www.inkscape.org/namespaces/inkscape"
   xmlns:sodipodi="http://sodipodi.sourceforge.net/DTD/sodipodi-0.dtd"
   xmlns="http://www.w3.org/2000/svg"
   xmlns:svg="http://www.w3.org/2000/svg"><sodipodi:namedview
     id="namedview701"
     pagecolor="#505050"
     bordercolor="#eeeeee"
     borderopacity="1"
     inkscape:showpageshadow="0"
     inkscape:pageopacity="0"
     inkscape:pagecheckerboard="0"
     inkscape:deskcolor="#505050"
     inkscape:document-units="mm"
     showgrid="false"
     inkscape:zoom="6.7277216"
     inkscape:cx="62.799863"
     inkscape:cy="25.491542"
     inkscape:window-width="1920"
     inkscape:window-height="1111"
     inkscape:window-x="-9"
     inkscape:window-y="-9"
     inkscape:window-maximized="1"
     inkscape:current-layer="layer1" /><defs
     id="defs696" /><g
     inkscape:label="Capa 1"
     inkscape:groupmode="layer"
     id="layer1"
     transform="translate(-153.82494,-113.34625)"><path
       style="fill:#000000;stroke-width:0.0293239"
       d="m 157.59474,128.31846 c -0.2192,-0.043 -0.48114,-0.18513 -0.6469,-0.35088 -0.48648,-0.48649 -0.49175,-1.28165 -0.0117,-1.76677 l 0.13921,-0.14069 -1.30766,-1.31084 c -0.71921,-0.72097 -1.32224,-1.33967 -1.34004,-1.3749 -0.0221,-0.0437 -0.0324,-0.45557 -0.0324,-1.29722 v -1.23315 l -0.11121,-0.0702 c -0.27681,-0.17475 -0.45696,-0.49847 -0.45904,-0.82491 -0.002,-0.26185 0.0475,-0.42879 0.1852,-0.62875 0.42788,-0.62136 1.36288,-0.57266 1.74241,0.0907 0.25996,0.45439 0.11947,1.08839 -0.29792,1.34443 l -0.11951,0.0733 9e-5,1.08499 9e-5,1.08498 0.97324,1.01168 c 0.53528,0.55642 0.98354,1.01607 0.99614,1.02145 0.0126,0.005 0.0229,-1.85853 0.0229,-4.142 v -4.15178 h -0.37561 c -0.40828,0 -0.48212,-0.0229 -0.48212,-0.14947 0,-0.0393 0.28036,-0.76412 0.623,-1.61053 0.34266,-0.84642 0.62923,-1.55493 0.63684,-1.57448 0.022,-0.0567 0.12808,-0.0775 0.17068,-0.0334 0.0487,0.0503 1.30394,3.15381 1.30394,3.22386 0,0.1247 -0.0693,0.14407 -0.51527,0.14407 h -0.4231 v 3.06669 3.06669 l 1.05565,-1.03549 1.05567,-1.03549 v -0.74094 -0.74096 h -0.23652 c -0.3824,0 -0.34996,0.0953 -0.34996,-1.02773 v -0.96704 l 1.04833,0.008 1.04833,0.008 0.008,0.96093 0.008,0.96093 -0.0756,0.0287 c -0.0416,0.0158 -0.17373,0.0287 -0.29364,0.0287 h -0.21802 v 0.85134 c 0,0.69996 -0.008,0.87054 -0.0451,0.95933 -0.031,0.0744 -0.50633,0.56384 -1.52484,1.5705 l -1.47972,1.4625 v 0.87126 0.87126 l 0.13373,0.065 c 0.28723,0.13955 0.55886,0.47844 0.64609,0.80607 0.18367,0.6899 -0.27612,1.41075 -0.98568,1.54532 -0.17728,0.0336 -0.2844,0.033 -0.46542,-0.002 z"
       id="path715" /></g></svg>
