  0
SECTION
  2
HEADER
  9
$ACADVER
  1
AC1014
  9
$HANDSEED
  5
FFFF
  9
$INSUNITS
 70
     4
  9
$MEASUREMENT
 70
     1
  0
ENDSEC
  0
SECTION
  2
TABLES
  0
TABLE
  2
VPORT
  5
8
330
0
100
AcDbSymbolTable
 70
     4
  0
VPORT
  5
2E
330
8
100
AcDbSymbolTableRecord
100
AcDbViewportTableRecord
  2
*ACTIVE
 70
     0
 10
0.0
 20
0.0
 11
1.0
 21
1.0
 12
210.0
 22
148.5
 13
0.0
 23
0.0
 14
10.0
 24
10.0
 15
10.0
 25
10.0
 16
0.0
 26
0.0
 36
1.0
 17
0.0
 27
0.0
 37
0.0
 40
341.0
 41
1.24
 42
50.0
 43
0.0
 44
0.0
 50
0.0
 51
0.0
 71
     0
 72
   100
 73
     1
 74
     3
 75
     0
 76
     0
 77
     0
 78
     0
  0
ENDTAB
  0
TABLE
  2
LTYPE
  5
5
330
0
100
AcDbSymbolTable
 70
     1
  0
LTYPE
  5
14
330
5
100
AcDbSymbolTableRecord
100
AcDbLinetypeTableRecord
  2
BYBLOCK
 70
     0
  3

 72
    65
 73
     0
 40
0.0
  0
LTYPE
  5
15
330
5
100
AcDbSymbolTableRecord
100
AcDbLinetypeTableRecord
  2
BYLAYER
 70
     0
  3

 72
    65
 73
     0
 40
0.0
  0
LTYPE
  5
16
330
5
100
AcDbSymbolTableRecord
100
AcDbLinetypeTableRecord
  2
CONTINUOUS
 70
     0
  3
Solid line
 72
    65
 73
     0
 40
0.0
  0
ENDTAB
  0
TABLE
  2
LAYER
  5
2
100
AcDbSymbolTable
 70
2
  0
LAYER
  5
50
100
AcDbSymbolTableRecord
100
AcDbLayerTableRecord
  2
0
 70
0
  6
CONTINUOUS
  0
LAYER
  5
51
100
AcDbSymbolTableRecord
100
AcDbLayerTableRecord
  2
Capa_1
 70
0
  6
CONTINUOUS
  0
ENDTAB
  0
TABLE
  2
STYLE
  5
3
330
0
100
AcDbSymbolTable
 70
     1
  0
STYLE
  5
11
330
3
100
AcDbSymbolTableRecord
100
AcDbTextStyleTableRecord
  2
STANDARD
 70
     0
 40
0.0
 41
1.0
 50
0.0
 71
     0
 42
2.5
  3
txt
  4

  0
ENDTAB
  0
TABLE
  2
VIEW
  5
6
330
0
100
AcDbSymbolTable
 70
     0
  0
ENDTAB
  0
TABLE
  2
UCS
  5
7
330
0
100
AcDbSymbolTable
 70
     0
  0
ENDTAB
  0
TABLE
  2
APPID
  5
9
330
0
100
AcDbSymbolTable
 70
     2
  0
APPID
  5
12
330
9
100
AcDbSymbolTableRecord
100
AcDbRegAppTableRecord
  2
ACAD
 70
     0
  0
ENDTAB
  0
TABLE
  2
DIMSTYLE
  5
A
330
0
100
AcDbSymbolTable
 70
     1
  0
DIMSTYLE
105
27
330
A
100
AcDbSymbolTableRecord
100
AcDbDimStyleTableRecord
  2
ISO-25
 70
     0
  3

  4

  5

  6

  7

 40
1.0
 41
2.5
 42
0.625
 43
3.75
 44
1.25
 45
0.0
 46
0.0
 47
0.0
 48
0.0
140
2.5
141
2.5
142
0.0
143
0.03937007874016
144
1.0
145
0.0
146
1.0
147
0.625
 71
     0
 72
     0
 73
     0
 74
     0
 75
     0
 76
     0
 77
     1
 78
     8
170
     0
171
     3
172
     1
173
     0
174
     0
175
     0
176
     0
177
     0
178
     0
270
     2
271
     2
272
     2
273
     2
274
     3
340
11
275
     0
280
     0
281
     0
282
     0
283
     0
284
     8
285
     0
286
     0
287
     3
288
     0
  0
ENDTAB
  0
TABLE
  2
BLOCK_RECORD
  5
1
330
0
100
AcDbSymbolTable
 70
     1
  0
BLOCK_RECORD
  5
1F
330
1
100
AcDbSymbolTableRecord
100
AcDbBlockTableRecord
  2
*MODEL_SPACE
  0
BLOCK_RECORD
  5
1B
330
1
100
AcDbSymbolTableRecord
100
AcDbBlockTableRecord
  2
*PAPER_SPACE
  0
ENDTAB
  0
ENDSEC
  0
SECTION
  2
BLOCKS
  0
BLOCK
  5
20
330
1F
100
AcDbEntity
  8
0
100
AcDbBlockBegin
  2
*MODEL_SPACE
 70
     0
 10
0.0
 20
0.0
 30
0.0
  3
*MODEL_SPACE
  1

  0
ENDBLK
  5
21
330
1F
100
AcDbEntity
  8
0
100
AcDbBlockEnd
  0
BLOCK
  5
1C
330
1B
100
AcDbEntity
 67
     1
  8
0
100
AcDbBlockBegin
  2
*PAPER_SPACE
  1

  0
ENDBLK
  5
1D
330
1B
100
AcDbEntity
 67
     1
  8
0
100
AcDbBlockEnd
  0
ENDSEC
  0
SECTION
  2
ENTITIES
  0
SPLINE
  5
100
100
AcDbEntity
  8
Capa_1
 62
7
100
AcDbSpline
 70
8
 71
3
 72
8
 73
4
 74
0
 40
0
 40
0
 40
0
 40
0
 40
1
 40
1
 40
1
 40
1
 10
10.000022
 20
10.904666
 30
0.0
 10
8.584404
 20
10.904666
 30
0.0
 10
7.308177
 20
10.051918
 30
0.0
 10
6.766444
 20
8.744058
 30
0.0
  0
SPLINE
  5
101
100
AcDbEntity
  8
Capa_1
 62
7
100
AcDbSpline
 70
8
 71
3
 72
8
 73
4
 74
0
 40
0
 40
0
 40
0
 40
0
 40
1
 40
1
 40
1
 40
1
 10
6.766444
 20
8.744058
 30
0.0
 10
6.224710
 20
7.436198
 30
0.0
 10
6.524155
 20
5.930785
 30
0.0
 10
7.525148
 20
4.929792
 30
0.0
  0
SPLINE
  5
102
100
AcDbEntity
  8
Capa_1
 62
7
100
AcDbSpline
 70
8
 71
3
 72
8
 73
4
 74
0
 40
0
 40
0
 40
0
 40
0
 40
1
 40
1
 40
1
 40
1
 10
7.525148
 20
4.929792
 30
0.0
 10
8.526141
 20
3.928799
 30
0.0
 10
10.031554
 20
3.629354
 30
0.0
 10
11.339414
 20
4.171088
 30
0.0
  0
SPLINE
  5
103
100
AcDbEntity
  8
Capa_1
 62
7
100
AcDbSpline
 70
8
 71
3
 72
8
 73
4
 74
0
 40
0
 40
0
 40
0
 40
0
 40
1
 40
1
 40
1
 40
1
 10
11.339414
 20
4.171088
 30
0.0
 10
12.647274
 20
4.712821
 30
0.0
 10
13.500022
 20
5.989048
 30
0.0
 10
13.500022
 20
7.404666
 30
0.0
  0
SPLINE
  5
104
100
AcDbEntity
  8
Capa_1
 62
7
100
AcDbSpline
 70
8
 71
3
 72
8
 73
4
 74
0
 40
0
 40
0
 40
0
 40
0
 40
1
 40
1
 40
1
 40
1
 10
13.500022
 20
7.404666
 30
0.0
 10
13.500022
 20
8.332924
 30
0.0
 10
13.131273
 20
9.223162
 30
0.0
 10
12.474896
 20
9.879540
 30
0.0
  0
SPLINE
  5
105
100
AcDbEntity
  8
Capa_1
 62
7
100
AcDbSpline
 70
8
 71
3
 72
8
 73
4
 74
0
 40
0
 40
0
 40
0
 40
0
 40
1
 40
1
 40
1
 40
1
 10
12.474896
 20
9.879540
 30
0.0
 10
11.818518
 20
10.535917
 30
0.0
 10
10.928280
 20
10.904666
 30
0.0
 10
10.000022
 20
10.904666
 30
0.0
  0
SPLINE
  5
106
100
AcDbEntity
  8
Capa_1
 62
7
100
AcDbSpline
 70
8
 71
3
 72
8
 73
4
 74
0
 40
0
 40
0
 40
0
 40
0
 40
1
 40
1
 40
1
 40
1
 10
14.679828
 20
18.517452
 30
0.0
 10
14.521237
 20
18.591512
 30
0.0
 10
14.325134
 20
18.788343
 30
0.0
 10
14.254118
 20
18.944751
 30
0.0
  0
SPLINE
  5
107
100
AcDbEntity
  8
Capa_1
 62
7
100
AcDbSpline
 70
8
 71
3
 72
8
 73
4
 74
0
 40
0
 40
0
 40
0
 40
0
 40
1
 40
1
 40
1
 40
1
 10
14.254118
 20
18.944751
 30
0.0
 10
14.186638
 20
19.093371
 30
0.0
 10
14.180488
 20
19.340459
 30
0.0
 10
14.240678
 20
19.484520
 30
0.0
  0
SPLINE
  5
108
100
AcDbEntity
  8
Capa_1
 62
7
100
AcDbSpline
 70
8
 71
3
 72
8
 73
4
 74
0
 40
0
 40
0
 40
0
 40
0
 40
1
 40
1
 40
1
 40
1
 10
14.240678
 20
19.484520
 30
0.0
 10
14.264708
 20
19.542040
 30
0.0
 10
14.388210
 20
19.724471
 30
0.0
 10
14.515117
 20
19.889922
 30
0.0
  0
SPLINE
  5
109
100
AcDbEntity
  8
Capa_1
 62
7
100
AcDbSpline
 70
8
 71
3
 72
8
 73
4
 74
0
 40
0
 40
0
 40
0
 40
0
 40
1
 40
1
 40
1
 40
1
 10
14.515117
 20
19.889922
 30
0.0
 10
15.309120
 20
20.925068
 30
0.0
 10
15.797203
 20
22.073022
 30
0.0
 10
15.987497
 20
23.352889
 30
0.0
  0
SPLINE
  5
10a
100
AcDbEntity
  8
Capa_1
 62
7
100
AcDbSpline
 70
8
 71
3
 72
8
 73
4
 74
0
 40
0
 40
0
 40
0
 40
0
 40
1
 40
1
 40
1
 40
1
 10
15.987497
 20
23.352889
 30
0.0
 10
16.052127
 20
23.787608
 30
0.0
 10
16.073947
 20
24.645088
 30
0.0
 10
16.031097
 20
25.066951
 30
0.0
  0
SPLINE
  5
10b
100
AcDbEntity
  8
Capa_1
 62
7
100
AcDbSpline
 70
8
 71
3
 72
8
 73
4
 74
0
 40
0
 40
0
 40
0
 40
0
 40
1
 40
1
 40
1
 40
1
 10
16.031097
 20
25.066951
 30
0.0
 10
15.880917
 20
26.545851
 30
0.0
 10
15.318659
 20
27.908405
 30
0.0
 10
14.391882
 20
29.039368
 30
0.0
  0
SPLINE
  5
10c
100
AcDbEntity
  8
Capa_1
 62
7
100
AcDbSpline
 70
8
 71
3
 72
8
 73
4
 74
0
 40
0
 40
0
 40
0
 40
0
 40
1
 40
1
 40
1
 40
1
 10
14.391882
 20
29.039368
 30
0.0
 10
14.092763
 20
29.404388
 30
0.0
 10
14.065954
 20
29.458086
 30
0.0
 10
14.066073
 20
29.691963
 30
0.0
  0
SPLINE
  5
10d
100
AcDbEntity
  8
Capa_1
 62
7
100
AcDbSpline
 70
8
 71
3
 72
8
 73
4
 74
0
 40
0
 40
0
 40
0
 40
0
 40
1
 40
1
 40
1
 40
1
 10
14.066073
 20
29.691963
 30
0.0
 10
14.066191
 20
29.932024
 30
0.0
 10
14.136213
 20
30.075150
 30
0.0
 10
14.345647
 20
30.263450
 30
0.0
  0
SPLINE
  5
10e
100
AcDbEntity
  8
Capa_1
 62
7
100
AcDbSpline
 70
8
 71
3
 72
8
 73
4
 74
0
 40
0
 40
0
 40
0
 40
0
 40
1
 40
1
 40
1
 40
1
 10
14.345647
 20
30.263450
 30
0.0
 10
14.585030
 20
30.478675
 30
0.0
 10
14.861459
 20
30.521047
 30
0.0
 10
15.135448
 20
30.384513
 30
0.0
  0
SPLINE
  5
10f
100
AcDbEntity
  8
Capa_1
 62
7
100
AcDbSpline
 70
8
 71
3
 72
8
 73
4
 74
0
 40
0
 40
0
 40
0
 40
0
 40
1
 40
1
 40
1
 40
1
 10
15.135448
 20
30.384513
 30
0.0
 10
15.298179
 20
30.303423
 30
0.0
 10
15.559024
 20
30.012268
 30
0.0
 10
15.913929
 20
29.515582
 30
0.0
  0
SPLINE
  5
110
100
AcDbEntity
  8
Capa_1
 62
7
100
AcDbSpline
 70
8
 71
3
 72
8
 73
4
 74
0
 40
0
 40
0
 40
0
 40
0
 40
1
 40
1
 40
1
 40
1
 10
15.913929
 20
29.515582
 30
0.0
 10
18.050049
 20
26.526113
 30
0.0
 10
18.112722
 20
22.548802
 30
0.0
 10
16.072045
 20
19.481473
 30
0.0
  0
SPLINE
  5
111
100
AcDbEntity
  8
Capa_1
 62
7
100
AcDbSpline
 70
8
 71
3
 72
8
 73
4
 74
0
 40
0
 40
0
 40
0
 40
0
 40
1
 40
1
 40
1
 40
1
 10
16.072045
 20
19.481473
 30
0.0
 10
15.780503
 20
19.043259
 30
0.0
 10
15.480046
 20
18.675030
 30
0.0
 10
15.326094
 20
18.567271
 30
0.0
  0
SPLINE
  5
112
100
AcDbEntity
  8
Capa_1
 62
7
100
AcDbSpline
 70
8
 71
3
 72
8
 73
4
 74
0
 40
0
 40
0
 40
0
 40
0
 40
1
 40
1
 40
1
 40
1
 10
15.326094
 20
18.567271
 30
0.0
 10
15.159779
 20
18.450860
 30
0.0
 10
14.870227
 20
18.428539
 30
0.0
 10
14.679820
 20
18.517451
 30
0.0
  0
LWPOLYLINE
  5
113
100
AcDbEntity
  8
Capa_1
 62
7
100
AcDbPolyline
 90
1
 70
1
 10
10.000022
 20
10.904666
 30
0.0
  0
SPLINE
  5
114
100
AcDbEntity
  8
Capa_1
 62
7
100
AcDbSpline
 70
8
 71
3
 72
8
 73
4
 74
0
 40
0
 40
0
 40
0
 40
0
 40
1
 40
1
 40
1
 40
1
 10
9.106451
 20
19.093432
 30
0.0
 10
8.958637
 20
19.148432
 30
0.0
 10
9.028841
 20
19.092332
 30
0.0
 10
6.946598
 20
20.818450
 30
0.0
  0
LWPOLYLINE
  5
115
100
AcDbEntity
  8
Capa_1
 62
7
100
AcDbPolyline
 90
1
 70
1
 10
14.679820
 20
18.517451
 30
0.0
  0
SPLINE
  5
116
100
AcDbEntity
  8
Capa_1
 62
7
100
AcDbSpline
 70
8
 71
3
 72
8
 73
4
 74
0
 40
0
 40
0
 40
0
 40
0
 40
1
 40
1
 40
1
 40
1
 10
4.050425
 20
22.333951
 30
0.0
 10
3.038616
 20
22.334585
 30
0.0
 10
2.974611
 20
22.337851
 30
0.0
 10
2.848707
 20
22.394891
 30
0.0
  0
SPLINE
  5
117
100
AcDbEntity
  8
Capa_1
 62
7
100
AcDbSpline
 70
8
 71
3
 72
8
 73
4
 74
0
 40
0
 40
0
 40
0
 40
0
 40
1
 40
1
 40
1
 40
1
 10
2.848707
 20
22.394891
 30
0.0
 10
2.683270
 20
22.469891
 30
0.0
 10
2.595105
 20
22.550822
 30
0.0
 10
2.513362
 20
22.702712
 30
0.0
  0
SPLINE
  5
118
100
AcDbEntity
  8
Capa_1
 62
7
100
AcDbSpline
 70
8
 71
3
 72
8
 73
4
 74
0
 40
0
 40
0
 40
0
 40
0
 40
1
 40
1
 40
1
 40
1
 10
2.513362
 20
22.702712
 30
0.0
 10
2.450972
 20
22.818641
 30
0.0
 10
2.449582
 20
22.849889
 30
0.0
 10
2.441322
 20
24.321130
 30
0.0
  0
SPLINE
  5
119
100
AcDbEntity
  8
Capa_1
 62
7
100
AcDbSpline
 70
8
 71
3
 72
8
 73
4
 74
0
 40
0
 40
0
 40
0
 40
0
 40
1
 40
1
 40
1
 40
1
 10
2.441322
 20
24.321130
 30
0.0
 10
2.435922
 20
25.286346
 30
0.0
 10
2.443822
 20
25.861725
 30
0.0
 10
2.463402
 20
25.934591
 30
0.0
  0
SPLINE
  5
11a
100
AcDbEntity
  8
Capa_1
 62
7
100
AcDbSpline
 70
8
 71
3
 72
8
 73
4
 74
0
 40
0
 40
0
 40
0
 40
0
 40
1
 40
1
 40
1
 40
1
 10
2.463402
 20
25.934591
 30
0.0
 10
2.510112
 20
26.108063
 30
0.0
 10
2.648700
 20
26.276977
 30
0.0
 10
2.809109
 20
26.355948
 30
0.0
  0
SPLINE
  5
11b
100
AcDbEntity
  8
Capa_1
 62
7
100
AcDbSpline
 70
8
 71
3
 72
8
 73
4
 74
0
 40
0
 40
0
 40
0
 40
0
 40
1
 40
1
 40
1
 40
1
 10
2.809109
 20
26.355948
 30
0.0
 10
2.950870
 20
26.425738
 30
0.0
 10
2.961807
 20
26.426438
 30
0.0
 10
4.040653
 20
26.434798
 30
0.0
  0
LWPOLYLINE
  5
11c
100
AcDbEntity
  8
Capa_1
 62
7
100
AcDbPolyline
 90
3
 70
0
 10
6.946598
 20
20.818450
 30
0.0
 10
5.119155
 20
22.333318
 30
0.0
 10
4.050425
 20
22.333951
 30
0.0
  0
SPLINE
  5
11d
100
AcDbEntity
  8
Capa_1
 62
7
100
AcDbSpline
 70
8
 71
3
 72
8
 73
4
 74
0
 40
0
 40
0
 40
0
 40
0
 40
1
 40
1
 40
1
 40
1
 10
7.010708
 20
28.001629
 30
0.0
 10
8.045557
 20
28.858766
 30
0.0
 10
8.930954
 20
29.584779
 30
0.0
 10
8.978257
 20
29.614992
 30
0.0
  0
SPLINE
  5
11e
100
AcDbEntity
  8
Capa_1
 62
7
100
AcDbSpline
 70
8
 71
3
 72
8
 73
4
 74
0
 40
0
 40
0
 40
0
 40
0
 40
1
 40
1
 40
1
 40
1
 10
8.978257
 20
29.614992
 30
0.0
 10
9.089212
 20
29.685862
 30
0.0
 10
9.394066
 20
29.711322
 30
0.0
 10
9.543040
 20
29.662152
 30
0.0
  0
SPLINE
  5
11f
100
AcDbEntity
  8
Capa_1
 62
7
100
AcDbSpline
 70
8
 71
3
 72
8
 73
4
 74
0
 40
0
 40
0
 40
0
 40
0
 40
1
 40
1
 40
1
 40
1
 10
9.543040
 20
29.662152
 30
0.0
 10
9.604980
 20
29.641712
 30
0.0
 10
9.712561
 20
29.572532
 30
0.0
 10
9.782116
 20
29.508415
 30
0.0
  0
SPLINE
  5
120
100
AcDbEntity
  8
Capa_1
 62
7
100
AcDbSpline
 70
8
 71
3
 72
8
 73
4
 74
0
 40
0
 40
0
 40
0
 40
0
 40
1
 40
1
 40
1
 40
1
 10
9.782116
 20
29.508415
 30
0.0
 10
10.018883
 20
29.290172
 30
0.0
 10
10.002138
 20
29.700759
 30
0.0
 10
9.993446
 20
24.326780
 30
0.0
  0
SPLINE
  5
121
100
AcDbEntity
  8
Capa_1
 62
7
100
AcDbSpline
 70
8
 71
3
 72
8
 73
4
 74
0
 40
0
 40
0
 40
0
 40
0
 40
1
 40
1
 40
1
 40
1
 10
9.993446
 20
24.326780
 30
0.0
 10
9.986246
 20
19.863745
 30
0.0
 10
9.982276
 20
19.534253
 30
0.0
 10
9.934856
 20
19.447617
 30
0.0
  0
SPLINE
  5
122
100
AcDbEntity
  8
Capa_1
 62
7
100
AcDbSpline
 70
8
 71
3
 72
8
 73
4
 74
0
 40
0
 40
0
 40
0
 40
0
 40
1
 40
1
 40
1
 40
1
 10
9.934856
 20
19.447617
 30
0.0
 10
9.770981
 20
19.148221
 30
0.0
 10
9.393205
 20
18.986678
 30
0.0
 10
9.106455
 20
19.093380
 30
0.0
  0
LWPOLYLINE
  5
123
100
AcDbEntity
  8
Capa_1
 62
7
100
AcDbPolyline
 90
3
 70
0
 10
4.040653
 20
26.434798
 30
0.0
 10
5.129165
 20
26.443198
 30
0.0
 10
7.010708
 20
28.001629
 30
0.0
  0
SPLINE
  5
124
100
AcDbEntity
  8
Capa_1
 62
7
100
AcDbSpline
 70
8
 71
3
 72
8
 73
4
 74
0
 40
0
 40
0
 40
0
 40
0
 40
1
 40
1
 40
1
 40
1
 10
12.315605
 20
20.883264
 30
0.0
 10
12.158102
 20
20.954774
 30
0.0
 10
11.961408
 20
21.151472
 30
0.0
 10
11.889894
 20
21.308974
 30
0.0
  0
SPLINE
  5
125
100
AcDbEntity
  8
Capa_1
 62
7
100
AcDbSpline
 70
8
 71
3
 72
8
 73
4
 74
0
 40
0
 40
0
 40
0
 40
0
 40
1
 40
1
 40
1
 40
1
 10
11.889894
 20
21.308974
 30
0.0
 10
11.855204
 20
21.385364
 30
0.0
 10
11.833814
 20
21.499788
 30
0.0
 10
11.833404
 20
21.611013
 30
0.0
  0
SPLINE
  5
126
100
AcDbEntity
  8
Capa_1
 62
7
100
AcDbSpline
 70
8
 71
3
 72
8
 73
4
 74
0
 40
0
 40
0
 40
0
 40
0
 40
1
 40
1
 40
1
 40
1
 10
11.833404
 20
21.611013
 30
0.0
 10
11.832842
 20
21.766050
 30
0.0
 10
11.847264
 20
21.813620
 30
0.0
 10
11.940891
 20
21.965646
 30
0.0
  0
SPLINE
  5
127
100
AcDbEntity
  8
Capa_1
 62
7
100
AcDbSpline
 70
8
 71
3
 72
8
 73
4
 74
0
 40
0
 40
0
 40
0
 40
0
 40
1
 40
1
 40
1
 40
1
 10
11.940891
 20
21.965646
 30
0.0
 10
12.271593
 20
22.502601
 30
0.0
 10
12.346107
 20
22.640553
 30
0.0
 10
12.450764
 20
22.909597
 30
0.0
  0
SPLINE
  5
128
100
AcDbEntity
  8
Capa_1
 62
7
100
AcDbSpline
 70
8
 71
3
 72
8
 73
4
 74
0
 40
0
 40
0
 40
0
 40
0
 40
1
 40
1
 40
1
 40
1
 10
12.450764
 20
22.909597
 30
0.0
 10
12.960815
 20
24.220804
 30
0.0
 10
12.777634
 20
25.634206
 30
0.0
 10
11.950934
 20
26.766237
 30
0.0
  0
SPLINE
  5
129
100
AcDbEntity
  8
Capa_1
 62
7
100
AcDbSpline
 70
8
 71
3
 72
8
 73
4
 74
0
 40
0
 40
0
 40
0
 40
0
 40
1
 40
1
 40
1
 40
1
 10
11.950934
 20
26.766237
 30
0.0
 10
11.695011
 20
27.116681
 30
0.0
 10
11.652243
 20
27.259071
 30
0.0
 10
11.726345
 20
27.513975
 30
0.0
  0
SPLINE
  5
12a
100
AcDbEntity
  8
Capa_1
 62
7
100
AcDbSpline
 70
8
 71
3
 72
8
 73
4
 74
0
 40
0
 40
0
 40
0
 40
0
 40
1
 40
1
 40
1
 40
1
 10
11.726345
 20
27.513975
 30
0.0
 10
11.783255
 20
27.709753
 30
0.0
 10
11.982817
 20
27.945129
 30
0.0
 10
12.167819
 20
28.034686
 30
0.0
  0
SPLINE
  5
12b
100
AcDbEntity
  8
Capa_1
 62
7
100
AcDbSpline
 70
8
 71
3
 72
8
 73
4
 74
0
 40
0
 40
0
 40
0
 40
0
 40
1
 40
1
 40
1
 40
1
 10
12.167819
 20
28.034686
 30
0.0
 10
12.346680
 20
28.121266
 30
0.0
 10
12.609016
 20
28.118196
 30
0.0
 10
12.781185
 20
28.027486
 30
0.0
  0
SPLINE
  5
12c
100
AcDbEntity
  8
Capa_1
 62
7
100
AcDbSpline
 70
8
 71
3
 72
8
 73
4
 74
0
 40
0
 40
0
 40
0
 40
0
 40
1
 40
1
 40
1
 40
1
 10
12.781185
 20
28.027486
 30
0.0
 10
13.109827
 20
27.854354
 30
0.0
 10
13.708898
 20
26.882655
 30
0.0
 10
13.960254
 20
26.115027
 30
0.0
  0
SPLINE
  5
12d
100
AcDbEntity
  8
Capa_1
 62
7
100
AcDbSpline
 70
8
 71
3
 72
8
 73
4
 74
0
 40
0
 40
0
 40
0
 40
0
 40
1
 40
1
 40
1
 40
1
 10
13.960254
 20
26.115027
 30
0.0
 10
14.167047
 20
25.483491
 30
0.0
 10
14.240405
 20
24.938896
 30
0.0
 10
14.217827
 20
24.202853
 30
0.0
  0
SPLINE
  5
12e
100
AcDbEntity
  8
Capa_1
 62
7
100
AcDbSpline
 70
8
 71
3
 72
8
 73
4
 74
0
 40
0
 40
0
 40
0
 40
0
 40
1
 40
1
 40
1
 40
1
 10
14.217827
 20
24.202853
 30
0.0
 10
14.199097
 20
23.592024
 30
0.0
 10
14.128507
 20
23.169178
 30
0.0
 10
13.959216
 20
22.653590
 30
0.0
  0
SPLINE
  5
12f
100
AcDbEntity
  8
Capa_1
 62
7
100
AcDbSpline
 70
8
 71
3
 72
8
 73
4
 74
0
 40
0
 40
0
 40
0
 40
0
 40
1
 40
1
 40
1
 40
1
 10
13.959216
 20
22.653590
 30
0.0
 10
13.775333
 20
22.093562
 30
0.0
 10
13.274721
 20
21.186976
 30
0.0
 10
13.040556
 20
20.989939
 30
0.0
  0
SPLINE
  5
130
100
AcDbEntity
  8
Capa_1
 62
7
100
AcDbSpline
 70
8
 71
3
 72
8
 73
4
 74
0
 40
0
 40
0
 40
0
 40
0
 40
1
 40
1
 40
1
 40
1
 10
13.040556
 20
20.989939
 30
0.0
 10
12.838907
 20
20.820263
 30
0.0
 10
12.548470
 20
20.777521
 30
0.0
 10
12.315604
 20
20.883254
 30
0.0
  0
LWPOLYLINE
  5
131
100
AcDbEntity
  8
Capa_1
 62
7
100
AcDbPolyline
 90
1
 70
1
 10
9.106455
 20
19.093380
 30
0.0
  0
SPLINE
  5
132
100
AcDbEntity
  8
Capa_1
 62
7
100
AcDbSpline
 70
8
 71
3
 72
8
 73
4
 74
0
 40
0
 40
0
 40
0
 40
0
 40
1
 40
1
 40
1
 40
1
 10
3.146726
 20
0.071226
 30
0.0
 10
2.935659
 20
0.199946
 30
0.0
 10
2.224537
 20
1.014273
 30
0.0
 10
1.812511
 20
1.599061
 30
0.0
  0
SPLINE
  5
133
100
AcDbEntity
  8
Capa_1
 62
7
100
AcDbSpline
 70
8
 71
3
 72
8
 73
4
 74
0
 40
0
 40
0
 40
0
 40
0
 40
1
 40
1
 40
1
 40
1
 10
1.812511
 20
1.599061
 30
0.0
 10
0.866178
 20
2.942195
 30
0.0
 10
0.273173
 20
4.492637
 30
0.0
 10
0.066119
 20
6.165094
 30
0.0
  0
SPLINE
  5
134
100
AcDbEntity
  8
Capa_1
 62
7
100
AcDbSpline
 70
8
 71
3
 72
8
 73
4
 74
0
 40
0
 40
0
 40
0
 40
0
 40
1
 40
1
 40
1
 40
1
 10
0.066119
 20
6.165094
 30
0.0
 10
0.033179
 20
6.431148
 30
0.0
 10
0.006239
 20
6.680074
 30
0.0
 10
0.006239
 20
6.718266
 30
0.0
  0
SPLINE
  5
135
100
AcDbEntity
  8
Capa_1
 62
7
100
AcDbSpline
 70
8
 71
3
 72
8
 73
4
 74
0
 40
0
 40
0
 40
0
 40
0
 40
1
 40
1
 40
1
 40
1
 10
0.006239
 20
6.718266
 30
0.0
 10
0.006239
 20
6.783646
 30
0.0
 10
0.094799
 20
6.787706
 30
0.0
 10
1.523547
 20
6.787706
 30
0.0
  0
SPLINE
  5
136
100
AcDbEntity
  8
Capa_1
 62
7
100
AcDbSpline
 70
8
 71
3
 72
8
 73
4
 74
0
 40
0
 40
0
 40
0
 40
0
 40
1
 40
1
 40
1
 40
1
 10
1.523547
 20
6.787706
 30
0.0
 10
3.189456
 20
6.787706
 30
0.0
 10
3.088214
 20
6.802906
 30
0.0
 10
3.088214
 20
6.552422
 30
0.0
  0
SPLINE
  5
137
100
AcDbEntity
  8
Capa_1
 62
7
100
AcDbSpline
 70
8
 71
3
 72
8
 73
4
 74
0
 40
0
 40
0
 40
0
 40
0
 40
1
 40
1
 40
1
 40
1
 10
3.088214
 20
6.552422
 30
0.0
 10
3.088214
 20
6.346190
 30
0.0
 10
3.247714
 20
5.611337
 30
0.0
 10
3.383280
 20
5.192939
 30
0.0
  0
SPLINE
  5
138
100
AcDbEntity
  8
Capa_1
 62
7
100
AcDbSpline
 70
8
 71
3
 72
8
 73
4
 74
0
 40
0
 40
0
 40
0
 40
0
 40
1
 40
1
 40
1
 40
1
 10
3.383280
 20
5.192939
 30
0.0
 10
3.560420
 20
4.646249
 30
0.0
 10
3.998412
 20
3.776175
 30
0.0
 10
4.326589
 20
3.319048
 30
0.0
  0
SPLINE
  5
139
100
AcDbEntity
  8
Capa_1
 62
7
100
AcDbSpline
 70
8
 71
3
 72
8
 73
4
 74
0
 40
0
 40
0
 40
0
 40
0
 40
1
 40
1
 40
1
 40
1
 10
4.326589
 20
3.319048
 30
0.0
 10
4.471569
 20
3.117099
 30
0.0
 10
4.777780
 20
2.754619
 30
0.0
 10
5.007056
 20
2.513537
 30
0.0
  0
SPLINE
  5
13a
100
AcDbEntity
  8
Capa_1
 62
7
100
AcDbSpline
 70
8
 71
3
 72
8
 73
4
 74
0
 40
0
 40
0
 40
0
 40
0
 40
1
 40
1
 40
1
 40
1
 10
5.007056
 20
2.513537
 30
0.0
 10
5.685115
 20
1.800554
 30
0.0
 10
5.682645
 20
1.791000
 30
0.0
 10
4.568012
 20
0.815555
 30
0.0
  0
SPLINE
  5
13b
100
AcDbEntity
  8
Capa_1
 62
7
100
AcDbSpline
 70
8
 71
3
 72
8
 73
4
 74
0
 40
0
 40
0
 40
0
 40
0
 40
1
 40
1
 40
1
 40
1
 10
4.568012
 20
0.815555
 30
0.0
 10
4.117105
 20
0.420956
 30
0.0
 10
3.709412
 20
0.076550
 30
0.0
 10
3.662027
 20
0.050214
 30
0.0
  0
SPLINE
  5
13c
100
AcDbEntity
  8
Capa_1
 62
7
100
AcDbSpline
 70
8
 71
3
 72
8
 73
4
 74
0
 40
0
 40
0
 40
0
 40
0
 40
1
 40
1
 40
1
 40
1
 10
3.662027
 20
0.050214
 30
0.0
 10
3.534726
 20
-0.020546
 30
0.0
 10
3.280184
 20
-0.010166
 30
0.0
 10
3.146734
 20
0.071234
 30
0.0
  0
LWPOLYLINE
  5
13d
100
AcDbEntity
  8
Capa_1
 62
7
100
AcDbPolyline
 90
1
 70
1
 10
12.315604
 20
20.883254
 30
0.0
  0
SPLINE
  5
13e
100
AcDbEntity
  8
Capa_1
 62
7
100
AcDbSpline
 70
8
 71
3
 72
8
 73
4
 74
0
 40
0
 40
0
 40
0
 40
0
 40
1
 40
1
 40
1
 40
1
 10
0.025815
 20
8.221407
 30
0.0
 10
0.225735
 20
10.262548
 30
0.0
 10
0.934808
 20
12.022716
 30
0.0
 10
2.203852
 20
13.628069
 30
0.0
  0
LWPOLYLINE
  5
13f
100
AcDbEntity
  8
Capa_1
 62
7
100
AcDbPolyline
 90
1
 70
1
 10
3.146734
 20
0.071234
 30
0.0
  0
SPLINE
  5
140
100
AcDbEntity
  8
Capa_1
 62
7
100
AcDbSpline
 70
8
 71
3
 72
8
 73
4
 74
0
 40
0
 40
0
 40
0
 40
0
 40
1
 40
1
 40
1
 40
1
 10
4.342197
 20
11.444823
 30
0.0
 10
4.189837
 20
11.232925
 30
0.0
 10
3.952268
 20
10.840108
 30
0.0
 10
3.814275
 20
10.571900
 30
0.0
  0
SPLINE
  5
141
100
AcDbEntity
  8
Capa_1
 62
7
100
AcDbSpline
 70
8
 71
3
 72
8
 73
4
 74
0
 40
0
 40
0
 40
0
 40
0
 40
1
 40
1
 40
1
 40
1
 10
3.814275
 20
10.571900
 30
0.0
 10
3.425582
 20
9.816428
 30
0.0
 10
3.232810
 20
9.178953
 30
0.0
 10
3.068083
 20
8.104368
 30
0.0
  0
LWPOLYLINE
  5
142
100
AcDbEntity
  8
Capa_1
 62
7
100
AcDbPolyline
 90
5
 70
0
 10
2.203852
 20
13.628069
 30
0.0
 10
2.476429
 20
13.972882
 30
0.0
 10
3.547826
 20
12.901487
 30
0.0
 10
4.619221
 20
11.830091
 30
0.0
 10
4.342197
 20
11.444823
 30
0.0
  0
LWPOLYLINE
  5
143
100
AcDbEntity
  8
Capa_1
 62
7
100
AcDbPolyline
 90
5
 70
0
 10
3.068083
 20
8.104368
 30
0.0
 10
3.045663
 20
7.958068
 30
0.0
 10
1.522839
 20
7.958068
 30
0.0
 10
0.000021
 20
7.958068
 30
0.0
 10
0.025815
 20
8.221407
 30
0.0
  0
SPLINE
  5
144
100
AcDbEntity
  8
Capa_1
 62
7
100
AcDbSpline
 70
8
 71
3
 72
8
 73
4
 74
0
 40
0
 40
0
 40
0
 40
0
 40
1
 40
1
 40
1
 40
1
 10
3.465978
 20
14.944547
 30
0.0
 10
3.986456
 20
15.413247
 30
0.0
 10
4.801193
 20
15.964032
 30
0.0
 10
5.503042
 20
16.321660
 30
0.0
  0
SPLINE
  5
145
100
AcDbEntity
  8
Capa_1
 62
7
100
AcDbSpline
 70
8
 71
3
 72
8
 73
4
 74
0
 40
0
 40
0
 40
0
 40
0
 40
1
 40
1
 40
1
 40
1
 10
5.503042
 20
16.321660
 30
0.0
 10
6.670454
 20
16.916513
 30
0.0
 10
7.736482
 20
17.223113
 30
0.0
 10
9.183885
 20
17.380307
 30
0.0
  0
LWPOLYLINE
  5
146
100
AcDbEntity
  8
Capa_1
 62
7
100
AcDbPolyline
 90
3
 70
0
 10
4.380299
 20
13.746716
 30
0.0
 10
3.317078
 20
14.810465
 30
0.0
 10
3.465978
 20
14.944547
 30
0.0
  0
SPLINE
  5
147
100
AcDbEntity
  8
Capa_1
 62
7
100
AcDbSpline
 70
8
 71
3
 72
8
 73
4
 74
0
 40
0
 40
0
 40
0
 40
0
 40
1
 40
1
 40
1
 40
1
 10
9.281428
 20
14.317022
 30
0.0
 10
9.112728
 20
14.316953
 30
0.0
 10
8.605761
 20
14.226162
 30
0.0
 10
8.212124
 20
14.125522
 30
0.0
  0
SPLINE
  5
148
100
AcDbEntity
  8
Capa_1
 62
7
100
AcDbSpline
 70
8
 71
3
 72
8
 73
4
 74
0
 40
0
 40
0
 40
0
 40
0
 40
1
 40
1
 40
1
 40
1
 10
8.212124
 20
14.125522
 30
0.0
 10
7.372554
 20
13.910872
 30
0.0
 10
6.329811
 20
13.391459
 30
0.0
 10
5.702045
 20
12.875203
 30
0.0
  0
SPLINE
  5
149
100
AcDbEntity
  8
Capa_1
 62
7
100
AcDbSpline
 70
8
 71
3
 72
8
 73
4
 74
0
 40
0
 40
0
 40
0
 40
0
 40
1
 40
1
 40
1
 40
1
 10
5.702045
 20
12.875203
 30
0.0
 10
5.605485
 20
12.795803
 30
0.0
 10
5.507825
 20
12.720063
 30
0.0
 10
5.485010
 20
12.706903
 30
0.0
  0
SPLINE
  5
14a
100
AcDbEntity
  8
Capa_1
 62
7
100
AcDbSpline
 70
8
 71
3
 72
8
 73
4
 74
0
 40
0
 40
0
 40
0
 40
0
 40
1
 40
1
 40
1
 40
1
 10
5.485010
 20
12.706903
 30
0.0
 10
5.462190
 20
12.693703
 30
0.0
 10
4.965084
 20
13.161657
 30
0.0
 10
4.380311
 20
13.746717
 30
0.0
  0
LWPOLYLINE
  5
14b
100
AcDbEntity
  8
Capa_1
 62
7
100
AcDbPolyline
 90
5
 70
0
 10
9.183885
 20
17.380307
 30
0.0
 10
9.408208
 20
17.404667
 30
0.0
 10
9.408208
 20
15.860873
 30
0.0
 10
9.408208
 20
14.317077
 30
0.0
 10
9.281428
 20
14.317022
 30
0.0
  0
SPLINE
  5
14c
100
AcDbEntity
  8
Capa_1
 62
7
100
AcDbSpline
 70
8
 71
3
 72
8
 73
4
 74
0
 40
0
 40
0
 40
0
 40
0
 40
1
 40
1
 40
1
 40
1
 10
3.146726
 20
0.071226
 30
0.0
 10
2.935659
 20
0.199946
 30
0.0
 10
2.224537
 20
1.014273
 30
0.0
 10
1.812511
 20
1.599061
 30
0.0
  0
SPLINE
  5
14d
100
AcDbEntity
  8
Capa_1
 62
7
100
AcDbSpline
 70
8
 71
3
 72
8
 73
4
 74
0
 40
0
 40
0
 40
0
 40
0
 40
1
 40
1
 40
1
 40
1
 10
1.812511
 20
1.599061
 30
0.0
 10
0.866178
 20
2.942195
 30
0.0
 10
0.273173
 20
4.492637
 30
0.0
 10
0.066119
 20
6.165094
 30
0.0
  0
SPLINE
  5
14e
100
AcDbEntity
  8
Capa_1
 62
7
100
AcDbSpline
 70
8
 71
3
 72
8
 73
4
 74
0
 40
0
 40
0
 40
0
 40
0
 40
1
 40
1
 40
1
 40
1
 10
0.066119
 20
6.165094
 30
0.0
 10
0.033179
 20
6.431148
 30
0.0
 10
0.006239
 20
6.680074
 30
0.0
 10
0.006239
 20
6.718266
 30
0.0
  0
SPLINE
  5
14f
100
AcDbEntity
  8
Capa_1
 62
7
100
AcDbSpline
 70
8
 71
3
 72
8
 73
4
 74
0
 40
0
 40
0
 40
0
 40
0
 40
1
 40
1
 40
1
 40
1
 10
0.006239
 20
6.718266
 30
0.0
 10
0.006239
 20
6.783646
 30
0.0
 10
0.094799
 20
6.787706
 30
0.0
 10
1.523547
 20
6.787706
 30
0.0
  0
SPLINE
  5
150
100
AcDbEntity
  8
Capa_1
 62
7
100
AcDbSpline
 70
8
 71
3
 72
8
 73
4
 74
0
 40
0
 40
0
 40
0
 40
0
 40
1
 40
1
 40
1
 40
1
 10
1.523547
 20
6.787706
 30
0.0
 10
3.189456
 20
6.787706
 30
0.0
 10
3.088214
 20
6.802906
 30
0.0
 10
3.088214
 20
6.552422
 30
0.0
  0
SPLINE
  5
151
100
AcDbEntity
  8
Capa_1
 62
7
100
AcDbSpline
 70
8
 71
3
 72
8
 73
4
 74
0
 40
0
 40
0
 40
0
 40
0
 40
1
 40
1
 40
1
 40
1
 10
3.088214
 20
6.552422
 30
0.0
 10
3.088214
 20
6.346190
 30
0.0
 10
3.247714
 20
5.611337
 30
0.0
 10
3.383280
 20
5.192939
 30
0.0
  0
SPLINE
  5
152
100
AcDbEntity
  8
Capa_1
 62
7
100
AcDbSpline
 70
8
 71
3
 72
8
 73
4
 74
0
 40
0
 40
0
 40
0
 40
0
 40
1
 40
1
 40
1
 40
1
 10
3.383280
 20
5.192939
 30
0.0
 10
3.560420
 20
4.646249
 30
0.0
 10
3.998412
 20
3.776175
 30
0.0
 10
4.326589
 20
3.319048
 30
0.0
  0
SPLINE
  5
153
100
AcDbEntity
  8
Capa_1
 62
7
100
AcDbSpline
 70
8
 71
3
 72
8
 73
4
 74
0
 40
0
 40
0
 40
0
 40
0
 40
1
 40
1
 40
1
 40
1
 10
4.326589
 20
3.319048
 30
0.0
 10
4.471569
 20
3.117099
 30
0.0
 10
4.777780
 20
2.754619
 30
0.0
 10
5.007056
 20
2.513537
 30
0.0
  0
SPLINE
  5
154
100
AcDbEntity
  8
Capa_1
 62
7
100
AcDbSpline
 70
8
 71
3
 72
8
 73
4
 74
0
 40
0
 40
0
 40
0
 40
0
 40
1
 40
1
 40
1
 40
1
 10
5.007056
 20
2.513537
 30
0.0
 10
5.685115
 20
1.800554
 30
0.0
 10
5.682645
 20
1.791000
 30
0.0
 10
4.568012
 20
0.815555
 30
0.0
  0
SPLINE
  5
155
100
AcDbEntity
  8
Capa_1
 62
7
100
AcDbSpline
 70
8
 71
3
 72
8
 73
4
 74
0
 40
0
 40
0
 40
0
 40
0
 40
1
 40
1
 40
1
 40
1
 10
4.568012
 20
0.815555
 30
0.0
 10
4.117105
 20
0.420956
 30
0.0
 10
3.709412
 20
0.076550
 30
0.0
 10
3.662027
 20
0.050214
 30
0.0
  0
SPLINE
  5
156
100
AcDbEntity
  8
Capa_1
 62
7
100
AcDbSpline
 70
8
 71
3
 72
8
 73
4
 74
0
 40
0
 40
0
 40
0
 40
0
 40
1
 40
1
 40
1
 40
1
 10
3.662027
 20
0.050214
 30
0.0
 10
3.534726
 20
-0.020546
 30
0.0
 10
3.280184
 20
-0.010166
 30
0.0
 10
3.146734
 20
0.071234
 30
0.0
  0
LWPOLYLINE
  5
157
100
AcDbEntity
  8
Capa_1
 62
7
100
AcDbPolyline
 90
1
 70
1
 10
4.380311
 20
13.746717
 30
0.0
  0
SPLINE
  5
158
100
AcDbEntity
  8
Capa_1
 62
7
100
AcDbSpline
 70
8
 71
3
 72
8
 73
4
 74
0
 40
0
 40
0
 40
0
 40
0
 40
1
 40
1
 40
1
 40
1
 10
0.025815
 20
8.221407
 30
0.0
 10
0.225735
 20
10.262548
 30
0.0
 10
0.934808
 20
12.022716
 30
0.0
 10
2.203852
 20
13.628069
 30
0.0
  0
LWPOLYLINE
  5
159
100
AcDbEntity
  8
Capa_1
 62
7
100
AcDbPolyline
 90
1
 70
1
 10
3.146734
 20
0.071234
 30
0.0
  0
SPLINE
  5
15a
100
AcDbEntity
  8
Capa_1
 62
7
100
AcDbSpline
 70
8
 71
3
 72
8
 73
4
 74
0
 40
0
 40
0
 40
0
 40
0
 40
1
 40
1
 40
1
 40
1
 10
4.342197
 20
11.444823
 30
0.0
 10
4.189837
 20
11.232925
 30
0.0
 10
3.952268
 20
10.840108
 30
0.0
 10
3.814275
 20
10.571900
 30
0.0
  0
SPLINE
  5
15b
100
AcDbEntity
  8
Capa_1
 62
7
100
AcDbSpline
 70
8
 71
3
 72
8
 73
4
 74
0
 40
0
 40
0
 40
0
 40
0
 40
1
 40
1
 40
1
 40
1
 10
3.814275
 20
10.571900
 30
0.0
 10
3.425582
 20
9.816428
 30
0.0
 10
3.232810
 20
9.178953
 30
0.0
 10
3.068083
 20
8.104368
 30
0.0
  0
LWPOLYLINE
  5
15c
100
AcDbEntity
  8
Capa_1
 62
7
100
AcDbPolyline
 90
5
 70
0
 10
2.203852
 20
13.628069
 30
0.0
 10
2.476429
 20
13.972882
 30
0.0
 10
3.547826
 20
12.901487
 30
0.0
 10
4.619221
 20
11.830091
 30
0.0
 10
4.342197
 20
11.444823
 30
0.0
  0
LWPOLYLINE
  5
15d
100
AcDbEntity
  8
Capa_1
 62
7
100
AcDbPolyline
 90
5
 70
0
 10
3.068083
 20
8.104368
 30
0.0
 10
3.045663
 20
7.958068
 30
0.0
 10
1.522839
 20
7.958068
 30
0.0
 10
0.000021
 20
7.958068
 30
0.0
 10
0.025815
 20
8.221407
 30
0.0
  0
SPLINE
  5
15e
100
AcDbEntity
  8
Capa_1
 62
7
100
AcDbSpline
 70
8
 71
3
 72
8
 73
4
 74
0
 40
0
 40
0
 40
0
 40
0
 40
1
 40
1
 40
1
 40
1
 10
3.465978
 20
14.944547
 30
0.0
 10
3.986456
 20
15.413247
 30
0.0
 10
4.801193
 20
15.964032
 30
0.0
 10
5.503042
 20
16.321660
 30
0.0
  0
SPLINE
  5
15f
100
AcDbEntity
  8
Capa_1
 62
7
100
AcDbSpline
 70
8
 71
3
 72
8
 73
4
 74
0
 40
0
 40
0
 40
0
 40
0
 40
1
 40
1
 40
1
 40
1
 10
5.503042
 20
16.321660
 30
0.0
 10
6.670454
 20
16.916513
 30
0.0
 10
7.736482
 20
17.223113
 30
0.0
 10
9.183885
 20
17.380307
 30
0.0
  0
LWPOLYLINE
  5
160
100
AcDbEntity
  8
Capa_1
 62
7
100
AcDbPolyline
 90
3
 70
0
 10
4.380299
 20
13.746716
 30
0.0
 10
3.317078
 20
14.810465
 30
0.0
 10
3.465978
 20
14.944547
 30
0.0
  0
SPLINE
  5
161
100
AcDbEntity
  8
Capa_1
 62
7
100
AcDbSpline
 70
8
 71
3
 72
8
 73
4
 74
0
 40
0
 40
0
 40
0
 40
0
 40
1
 40
1
 40
1
 40
1
 10
9.281428
 20
14.317022
 30
0.0
 10
9.112728
 20
14.316953
 30
0.0
 10
8.605761
 20
14.226162
 30
0.0
 10
8.212124
 20
14.125522
 30
0.0
  0
SPLINE
  5
162
100
AcDbEntity
  8
Capa_1
 62
7
100
AcDbSpline
 70
8
 71
3
 72
8
 73
4
 74
0
 40
0
 40
0
 40
0
 40
0
 40
1
 40
1
 40
1
 40
1
 10
8.212124
 20
14.125522
 30
0.0
 10
7.372554
 20
13.910872
 30
0.0
 10
6.329811
 20
13.391459
 30
0.0
 10
5.702045
 20
12.875203
 30
0.0
  0
SPLINE
  5
163
100
AcDbEntity
  8
Capa_1
 62
7
100
AcDbSpline
 70
8
 71
3
 72
8
 73
4
 74
0
 40
0
 40
0
 40
0
 40
0
 40
1
 40
1
 40
1
 40
1
 10
5.702045
 20
12.875203
 30
0.0
 10
5.605485
 20
12.795803
 30
0.0
 10
5.507825
 20
12.720063
 30
0.0
 10
5.485010
 20
12.706903
 30
0.0
  0
SPLINE
  5
164
100
AcDbEntity
  8
Capa_1
 62
7
100
AcDbSpline
 70
8
 71
3
 72
8
 73
4
 74
0
 40
0
 40
0
 40
0
 40
0
 40
1
 40
1
 40
1
 40
1
 10
5.485010
 20
12.706903
 30
0.0
 10
5.462190
 20
12.693703
 30
0.0
 10
4.965084
 20
13.161657
 30
0.0
 10
4.380311
 20
13.746717
 30
0.0
  0
LWPOLYLINE
  5
165
100
AcDbEntity
  8
Capa_1
 62
7
100
AcDbPolyline
 90
5
 70
0
 10
9.183885
 20
17.380307
 30
0.0
 10
9.408208
 20
17.404667
 30
0.0
 10
9.408208
 20
15.860873
 30
0.0
 10
9.408208
 20
14.317077
 30
0.0
 10
9.281428
 20
14.317022
 30
0.0
  0
SPLINE
  5
166
100
AcDbEntity
  8
Capa_1
 62
7
100
AcDbSpline
 70
8
 71
3
 72
8
 73
4
 74
0
 40
0
 40
0
 40
0
 40
0
 40
1
 40
1
 40
1
 40
1
 10
16.853341
 20
0.068150
 30
0.0
 10
17.064412
 20
0.196870
 30
0.0
 10
17.775539
 20
1.011197
 30
0.0
 10
18.187559
 20
1.595985
 30
0.0
  0
SPLINE
  5
167
100
AcDbEntity
  8
Capa_1
 62
7
100
AcDbSpline
 70
8
 71
3
 72
8
 73
4
 74
0
 40
0
 40
0
 40
0
 40
0
 40
1
 40
1
 40
1
 40
1
 10
18.187559
 20
1.595985
 30
0.0
 10
19.133910
 20
2.939122
 30
0.0
 10
19.726910
 20
4.489561
 30
0.0
 10
19.933960
 20
6.162016
 30
0.0
  0
SPLINE
  5
168
100
AcDbEntity
  8
Capa_1
 62
7
100
AcDbSpline
 70
8
 71
3
 72
8
 73
4
 74
0
 40
0
 40
0
 40
0
 40
0
 40
1
 40
1
 40
1
 40
1
 10
19.933960
 20
6.162016
 30
0.0
 10
19.966860
 20
6.428070
 30
0.0
 10
19.993860
 20
6.676998
 30
0.0
 10
19.993860
 20
6.715189
 30
0.0
  0
SPLINE
  5
169
100
AcDbEntity
  8
Capa_1
 62
7
100
AcDbSpline
 70
8
 71
3
 72
8
 73
4
 74
0
 40
0
 40
0
 40
0
 40
0
 40
1
 40
1
 40
1
 40
1
 10
19.993860
 20
6.715189
 30
0.0
 10
19.993860
 20
6.780569
 30
0.0
 10
19.905260
 20
6.784629
 30
0.0
 10
18.476551
 20
6.784629
 30
0.0
  0
SPLINE
  5
16a
100
AcDbEntity
  8
Capa_1
 62
7
100
AcDbSpline
 70
8
 71
3
 72
8
 73
4
 74
0
 40
0
 40
0
 40
0
 40
0
 40
1
 40
1
 40
1
 40
1
 10
18.476551
 20
6.784629
 30
0.0
 10
16.810628
 20
6.784629
 30
0.0
 10
16.911864
 20
6.799829
 30
0.0
 10
16.911864
 20
6.549345
 30
0.0
  0
SPLINE
  5
16b
100
AcDbEntity
  8
Capa_1
 62
7
100
AcDbSpline
 70
8
 71
3
 72
8
 73
4
 74
0
 40
0
 40
0
 40
0
 40
0
 40
1
 40
1
 40
1
 40
1
 10
16.911864
 20
6.549345
 30
0.0
 10
16.911864
 20
6.343112
 30
0.0
 10
16.752368
 20
5.608261
 30
0.0
 10
16.616807
 20
5.189861
 30
0.0
  0
SPLINE
  5
16c
100
AcDbEntity
  8
Capa_1
 62
7
100
AcDbSpline
 70
8
 71
3
 72
8
 73
4
 74
0
 40
0
 40
0
 40
0
 40
0
 40
1
 40
1
 40
1
 40
1
 10
16.616807
 20
5.189861
 30
0.0
 10
16.439667
 20
4.643173
 30
0.0
 10
16.001676
 20
3.773099
 30
0.0
 10
15.673496
 20
3.315972
 30
0.0
  0
SPLINE
  5
16d
100
AcDbEntity
  8
Capa_1
 62
7
100
AcDbSpline
 70
8
 71
3
 72
8
 73
4
 74
0
 40
0
 40
0
 40
0
 40
0
 40
1
 40
1
 40
1
 40
1
 10
15.673496
 20
3.315972
 30
0.0
 10
15.528516
 20
3.114026
 30
0.0
 10
15.222306
 20
2.751543
 30
0.0
 10
14.993030
 20
2.510461
 30
0.0
  0
SPLINE
  5
16e
100
AcDbEntity
  8
Capa_1
 62
7
100
AcDbSpline
 70
8
 71
3
 72
8
 73
4
 74
0
 40
0
 40
0
 40
0
 40
0
 40
1
 40
1
 40
1
 40
1
 10
14.993030
 20
2.510461
 30
0.0
 10
14.314970
 20
1.797478
 30
0.0
 10
14.317441
 20
1.787924
 30
0.0
 10
15.432074
 20
0.812479
 30
0.0
  0
SPLINE
  5
16f
100
AcDbEntity
  8
Capa_1
 62
7
100
AcDbSpline
 70
8
 71
3
 72
8
 73
4
 74
0
 40
0
 40
0
 40
0
 40
0
 40
1
 40
1
 40
1
 40
1
 10
15.432074
 20
0.812479
 30
0.0
 10
15.882976
 20
0.417880
 30
0.0
 10
16.290677
 20
0.073474
 30
0.0
 10
16.338057
 20
0.047138
 30
0.0
  0
SPLINE
  5
170
100
AcDbEntity
  8
Capa_1
 62
7
100
AcDbSpline
 70
8
 71
3
 72
8
 73
4
 74
0
 40
0
 40
0
 40
0
 40
0
 40
1
 40
1
 40
1
 40
1
 10
16.338057
 20
0.047138
 30
0.0
 10
16.465357
 20
-0.023622
 30
0.0
 10
16.719897
 20
-0.013242
 30
0.0
 10
16.853348
 20
0.068158
 30
0.0
  0
LWPOLYLINE
  5
171
100
AcDbEntity
  8
Capa_1
 62
7
100
AcDbPolyline
 90
1
 70
1
 10
4.380311
 20
13.746717
 30
0.0
  0
SPLINE
  5
172
100
AcDbEntity
  8
Capa_1
 62
7
100
AcDbSpline
 70
8
 71
3
 72
8
 73
4
 74
0
 40
0
 40
0
 40
0
 40
0
 40
1
 40
1
 40
1
 40
1
 10
19.974270
 20
8.218328
 30
0.0
 10
19.774350
 20
10.259472
 30
0.0
 10
19.065280
 20
12.019640
 30
0.0
 10
17.796219
 20
13.624993
 30
0.0
  0
LWPOLYLINE
  5
173
100
AcDbEntity
  8
Capa_1
 62
7
100
AcDbPolyline
 90
1
 70
1
 10
16.853348
 20
0.068158
 30
0.0
  0
SPLINE
  5
174
100
AcDbEntity
  8
Capa_1
 62
7
100
AcDbSpline
 70
8
 71
3
 72
8
 73
4
 74
0
 40
0
 40
0
 40
0
 40
0
 40
1
 40
1
 40
1
 40
1
 10
15.657872
 20
11.441747
 30
0.0
 10
15.810232
 20
11.229849
 30
0.0
 10
16.047800
 20
10.837032
 30
0.0
 10
16.185791
 20
10.568824
 30
0.0
  0
SPLINE
  5
175
100
AcDbEntity
  8
Capa_1
 62
7
100
AcDbSpline
 70
8
 71
3
 72
8
 73
4
 74
0
 40
0
 40
0
 40
0
 40
0
 40
1
 40
1
 40
1
 40
1
 10
16.185791
 20
10.568824
 30
0.0
 10
16.574491
 20
9.813352
 30
0.0
 10
16.767261
 20
9.175877
 30
0.0
 10
16.931980
 20
8.101292
 30
0.0
  0
LWPOLYLINE
  5
176
100
AcDbEntity
  8
Capa_1
 62
7
100
AcDbPolyline
 90
5
 70
0
 10
17.796219
 20
13.624993
 30
0.0
 10
17.523649
 20
13.969806
 30
0.0
 10
16.452241
 20
12.898411
 30
0.0
 10
15.380848
 20
11.827015
 30
0.0
 10
15.657872
 20
11.441747
 30
0.0
  0
LWPOLYLINE
  5
177
100
AcDbEntity
  8
Capa_1
 62
7
100
AcDbPolyline
 90
5
 70
0
 10
16.931980
 20
8.101292
 30
0.0
 10
16.954380
 20
7.954992
 30
0.0
 10
18.477221
 20
7.954992
 30
0.0
 10
20.000040
 20
7.954992
 30
0.0
 10
19.974270
 20
8.218328
 30
0.0
  0
SPLINE
  5
178
100
AcDbEntity
  8
Capa_1
 62
7
100
AcDbSpline
 70
8
 71
3
 72
8
 73
4
 74
0
 40
0
 40
0
 40
0
 40
0
 40
1
 40
1
 40
1
 40
1
 10
16.534091
 20
14.941471
 30
0.0
 10
16.013611
 20
15.410171
 30
0.0
 10
15.198875
 20
15.960956
 30
0.0
 10
14.497026
 20
16.318584
 30
0.0
  0
SPLINE
  5
179
100
AcDbEntity
  8
Capa_1
 62
7
100
AcDbSpline
 70
8
 71
3
 72
8
 73
4
 74
0
 40
0
 40
0
 40
0
 40
0
 40
1
 40
1
 40
1
 40
1
 10
14.497026
 20
16.318584
 30
0.0
 10
13.329616
 20
16.913437
 30
0.0
 10
12.263587
 20
17.220037
 30
0.0
 10
10.816183
 20
17.377231
 30
0.0
  0
LWPOLYLINE
  5
17a
100
AcDbEntity
  8
Capa_1
 62
7
100
AcDbPolyline
 90
3
 70
0
 10
15.619770
 20
13.743640
 30
0.0
 10
16.682992
 20
14.807389
 30
0.0
 10
16.534091
 20
14.941471
 30
0.0
  0
SPLINE
  5
17b
100
AcDbEntity
  8
Capa_1
 62
7
100
AcDbSpline
 70
8
 71
3
 72
8
 73
4
 74
0
 40
0
 40
0
 40
0
 40
0
 40
1
 40
1
 40
1
 40
1
 10
10.718662
 20
14.313946
 30
0.0
 10
10.887362
 20
14.313877
 30
0.0
 10
11.394328
 20
14.223086
 30
0.0
 10
11.787964
 20
14.122446
 30
0.0
  0
SPLINE
  5
17c
100
AcDbEntity
  8
Capa_1
 62
7
100
AcDbSpline
 70
8
 71
3
 72
8
 73
4
 74
0
 40
0
 40
0
 40
0
 40
0
 40
1
 40
1
 40
1
 40
1
 10
11.787964
 20
14.122446
 30
0.0
 10
12.627535
 20
13.907796
 30
0.0
 10
13.670277
 20
13.388383
 30
0.0
 10
14.298045
 20
12.872127
 30
0.0
  0
SPLINE
  5
17d
100
AcDbEntity
  8
Capa_1
 62
7
100
AcDbSpline
 70
8
 71
3
 72
8
 73
4
 74
0
 40
0
 40
0
 40
0
 40
0
 40
1
 40
1
 40
1
 40
1
 10
14.298045
 20
12.872127
 30
0.0
 10
14.394605
 20
12.792727
 30
0.0
 10
14.492265
 20
12.716987
 30
0.0
 10
14.515078
 20
12.703827
 30
0.0
  0
SPLINE
  5
17e
100
AcDbEntity
  8
Capa_1
 62
7
100
AcDbSpline
 70
8
 71
3
 72
8
 73
4
 74
0
 40
0
 40
0
 40
0
 40
0
 40
1
 40
1
 40
1
 40
1
 10
14.515078
 20
12.703827
 30
0.0
 10
14.537898
 20
12.690627
 30
0.0
 10
15.035006
 20
13.158581
 30
0.0
 10
15.619778
 20
13.743641
 30
0.0
  0
LWPOLYLINE
  5
17f
100
AcDbEntity
  8
Capa_1
 62
7
100
AcDbPolyline
 90
5
 70
0
 10
10.816183
 20
17.377231
 30
0.0
 10
10.591862
 20
17.401591
 30
0.0
 10
10.591862
 20
15.857797
 30
0.0
 10
10.591862
 20
14.314001
 30
0.0
 10
10.718662
 20
14.313946
 30
0.0
  0
LWPOLYLINE
  5
180
100
AcDbEntity
  8
Capa_1
 62
7
100
AcDbPolyline
 90
1
 70
1
 10
15.619778
 20
13.743641
 30
0.0
  0
ENDSEC
  0
SECTION
  2
OBJECTS
  0
DICTIONARY
  5
C
330
0
100
AcDbDictionary
  3
ACAD_GROUP
350
D
  3
ACAD_MLINESTYLE
350
17
  0
DICTIONARY
  5
D
330
C
100
AcDbDictionary
  0
DICTIONARY
  5
1A
330
C
100
AcDbDictionary
  0
DICTIONARY
  5
17
330
C
100
AcDbDictionary
  3
STANDARD
350
18
  0
DICTIONARY
  5
19
330
C
100
AcDbDictionary
  0
ENDSEC
  0
EOF
