<?xml version="1.0" encoding="UTF-8" standalone="no"?>
<!-- Created with Inkscape (http://www.inkscape.org/) -->

<svg
   width="20.000019mm"
   height="30.463018mm"
   viewBox="0 0 20.000019 30.463018"
   version="1.1"
   id="svg735"
   xml:space="preserve"
   sodipodi:docname="volume.svg"
   inkscape:version="1.2.2 (732a01da63, 2022-12-09)"
   xmlns:inkscape="http://www.inkscape.org/namespaces/inkscape"
   xmlns:sodipodi="http://sodipodi.sourceforge.net/DTD/sodipodi-0.dtd"
   xmlns="http://www.w3.org/2000/svg"
   xmlns:svg="http://www.w3.org/2000/svg"><sodipodi:namedview
     id="namedview737"
     pagecolor="#505050"
     bordercolor="#eeeeee"
     borderopacity="1"
     inkscape:showpageshadow="0"
     inkscape:pageopacity="0"
     inkscape:pagecheckerboard="0"
     inkscape:deskcolor="#505050"
     inkscape:document-units="mm"
     showgrid="false"
     inkscape:zoom="4"
     inkscape:cx="37.625"
     inkscape:cy="32.875"
     inkscape:window-width="1920"
     inkscape:window-height="1111"
     inkscape:window-x="-9"
     inkscape:window-y="-9"
     inkscape:window-maximized="1"
     inkscape:current-layer="layer1" /><defs
     id="defs732" /><g
     inkscape:label="Capa 1"
     inkscape:groupmode="layer"
     id="layer1"
     transform="translate(-81.210021,-45.335517)"><circle
       style="fill:#000000;stroke:none;stroke-width:0.035276"
       id="path791"
       cx="91.210022"
       cy="68.393852"
       r="3.5" /><path
       style="fill:#000000;stroke-width:0.0295528"
       d="m 95.889828,57.281066 c -0.158591,-0.07406 -0.354694,-0.270891 -0.42571,-0.427299 -0.06748,-0.14862 -0.07363,-0.395708 -0.01344,-0.539769 0.02403,-0.05752 0.147532,-0.239951 0.274439,-0.405402 0.794003,-1.035146 1.282086,-2.1831 1.47238,-3.462967 0.06463,-0.434719 0.08645,-1.292199 0.0436,-1.714062 -0.15018,-1.4789 -0.712438,-2.841454 -1.639215,-3.972417 -0.299119,-0.36502 -0.325928,-0.418718 -0.325809,-0.652595 1.18e-4,-0.240061 0.07014,-0.383187 0.279574,-0.571487 0.239383,-0.215225 0.515812,-0.257597 0.789801,-0.121063 0.162731,0.08109 0.423576,0.372245 0.778481,0.868931 2.13612,2.989469 2.198793,6.96678 0.158116,10.034109 -0.291542,0.438214 -0.591999,0.806443 -0.745951,0.914202 -0.166315,0.116411 -0.455867,0.138732 -0.646274,0.04982 z m -5.573377,-0.57598 c -0.147814,-0.055 -0.07761,0.0011 -2.159853,-1.725018 l -1.827443,-1.514868 -1.06873,-6.33e-4 c -1.011809,-6.34e-4 -1.075814,-0.0039 -1.201718,-0.06094 -0.165437,-0.075 -0.253602,-0.155931 -0.335345,-0.307821 -0.06239,-0.115929 -0.06378,-0.147177 -0.07204,-1.618418 -0.0054,-0.965216 0.0025,-1.540595 0.02208,-1.613461 0.04671,-0.173472 0.185298,-0.342386 0.345707,-0.421357 0.141761,-0.06979 0.152698,-0.07049 1.231544,-0.07885 l 1.088512,-0.0084 1.881543,-1.558431 c 1.034849,-0.857137 1.920246,-1.58315 1.967549,-1.613363 0.110955,-0.07087 0.415809,-0.09633 0.564783,-0.04716 0.06194,0.02044 0.169521,0.08962 0.239076,0.153737 0.236767,0.218243 0.220022,-0.192344 0.21133,5.181635 -0.0072,4.463035 -0.01117,4.792527 -0.05859,4.879163 -0.163875,0.299396 -0.541651,0.460939 -0.828401,0.354237 z m 3.209154,-1.789832 c -0.157503,-0.07151 -0.354197,-0.268208 -0.425711,-0.42571 -0.03469,-0.07639 -0.05608,-0.190814 -0.05649,-0.302039 -5.62e-4,-0.155037 0.01386,-0.202607 0.107487,-0.354633 0.330702,-0.536955 0.405216,-0.674907 0.509873,-0.943951 0.510051,-1.311207 0.32687,-2.724609 -0.49983,-3.85664 -0.255923,-0.350444 -0.298691,-0.492834 -0.224589,-0.747738 0.05691,-0.195778 0.256472,-0.431154 0.441474,-0.520711 0.178861,-0.08658 0.441197,-0.08351 0.613366,0.0072 0.328642,0.173132 0.927713,1.144831 1.179069,1.912459 0.206793,0.631536 0.280151,1.176131 0.257573,1.912174 -0.01873,0.610829 -0.08932,1.033675 -0.258611,1.549263 -0.183883,0.560028 -0.684495,1.466614 -0.91866,1.663651 -0.201649,0.169676 -0.492086,0.212418 -0.724952,0.106685 z"
       id="path805" /><path
       id="path3667"
       style="fill:#000000;stroke-width:0.0390122"
       d="m 84.356726,75.727292 c -0.211067,-0.12872 -0.922189,-0.943047 -1.334215,-1.527835 -0.946333,-1.343134 -1.539338,-2.893576 -1.746392,-4.566033 -0.03294,-0.266054 -0.05988,-0.51498 -0.05988,-0.553172 0,-0.06538 0.08856,-0.06944 1.517308,-0.06944 1.665909,0 1.564667,-0.0152 1.564667,0.235284 0,0.206232 0.1595,0.941085 0.295066,1.359483 0.17714,0.54669 0.615132,1.416764 0.943309,1.873891 0.14498,0.201949 0.451191,0.564429 0.680467,0.805511 0.678059,0.712983 0.675589,0.722537 -0.439044,1.697982 -0.450907,0.394599 -0.8586,0.739005 -0.905985,0.765341 -0.127301,0.07076 -0.381843,0.06038 -0.515293,-0.02102 z m -3.120911,-8.150181 c 0.19992,-2.041141 0.908993,-3.801309 2.178037,-5.406662 l 0.272577,-0.344813 1.071397,1.071395 1.071395,1.071396 -0.277024,0.385268 c -0.15236,0.211898 -0.389929,0.604715 -0.527922,0.872923 -0.388693,0.755472 -0.581465,1.392947 -0.746192,2.467532 l -0.02242,0.1463 h -1.522824 -1.522818 z m 4.354484,-5.525309 -1.063221,-1.063749 0.1489,-0.134082 c 0.520478,-0.4687 1.335215,-1.019485 2.037064,-1.377113 1.167412,-0.594853 2.23344,-0.901453 3.680843,-1.058647 l 0.224323,-0.02436 v 1.543794 1.543796 l -0.12678,5.5e-5 c -0.1687,6.9e-5 -0.675667,0.09086 -1.069304,0.1915 -0.83957,0.21465 -1.882313,0.734063 -2.510079,1.250319 -0.09656,0.0794 -0.19422,0.15514 -0.217035,0.1683 -0.02282,0.0132 -0.519926,-0.454754 -1.104699,-1.039814 z m -1.233573,13.67549 c -0.211067,-0.12872 -0.922189,-0.943047 -1.334215,-1.527835 -0.946333,-1.343134 -1.539338,-2.893576 -1.746392,-4.566033 -0.03294,-0.266054 -0.05988,-0.51498 -0.05988,-0.553172 0,-0.06538 0.08856,-0.06944 1.517308,-0.06944 1.665909,0 1.564667,-0.0152 1.564667,0.235284 0,0.206232 0.1595,0.941085 0.295066,1.359483 0.17714,0.54669 0.615132,1.416764 0.943309,1.873891 0.14498,0.201949 0.451191,0.564429 0.680467,0.805511 0.678059,0.712983 0.675589,0.722537 -0.439044,1.697982 -0.450907,0.394599 -0.8586,0.739005 -0.905985,0.765341 -0.127301,0.07076 -0.381843,0.06038 -0.515293,-0.02102 z m -3.120911,-8.150181 c 0.19992,-2.041141 0.908993,-3.801309 2.178037,-5.406662 l 0.272577,-0.344813 1.071397,1.071395 1.071395,1.071396 -0.277024,0.385268 c -0.15236,0.211898 -0.389929,0.604715 -0.527922,0.872923 -0.388693,0.755472 -0.581465,1.392947 -0.746192,2.467532 l -0.02242,0.1463 h -1.522824 -1.522818 z m 4.354484,-5.525309 -1.063221,-1.063749 0.1489,-0.134082 c 0.520478,-0.4687 1.335215,-1.019485 2.037064,-1.377113 1.167412,-0.594853 2.23344,-0.901453 3.680843,-1.058647 l 0.224323,-0.02436 v 1.543794 1.543796 l -0.12678,5.5e-5 c -0.1687,6.9e-5 -0.675667,0.09086 -1.069304,0.1915 -0.83957,0.21465 -1.882313,0.734063 -2.510079,1.250319 -0.09656,0.0794 -0.19422,0.15514 -0.217035,0.1683 -0.02282,0.0132 -0.519926,-0.454754 -1.104699,-1.039814 z m 12.473042,13.678566 c 0.211071,-0.12872 0.922198,-0.943047 1.334218,-1.527835 0.946351,-1.343137 1.539351,-2.893576 1.746401,-4.566031 0.0329,-0.266054 0.0599,-0.514982 0.0599,-0.553173 0,-0.06538 -0.0886,-0.06944 -1.517309,-0.06944 -1.665923,0 -1.564687,-0.0152 -1.564687,0.235284 0,0.206233 -0.159496,0.941084 -0.295057,1.359484 -0.17714,0.546688 -0.615131,1.416762 -0.943311,1.873889 -0.14498,0.201946 -0.45119,0.564429 -0.680466,0.805511 -0.67806,0.712983 -0.675589,0.722537 0.439044,1.697982 0.450902,0.394599 0.858603,0.739005 0.905983,0.765341 0.1273,0.07076 0.38184,0.06038 0.515291,-0.02102 z m 3.120929,-8.150178 c -0.19992,-2.041144 -0.90899,-3.801312 -2.178051,-5.406665 l -0.27257,-0.344813 -1.071408,1.071395 -1.071393,1.071396 0.277024,0.385268 c 0.15236,0.211898 0.389928,0.604715 0.527919,0.872923 0.3887,0.755472 0.58147,1.392947 0.746189,2.467532 l 0.0224,0.1463 h 1.522841 1.522819 z m -4.3545,-5.525312 1.063222,-1.063749 -0.148901,-0.134082 c -0.52048,-0.4687 -1.335216,-1.019485 -2.037065,-1.377113 -1.16741,-0.594853 -2.233439,-0.901453 -3.680843,-1.058647 l -0.224321,-0.02436 v 1.543794 1.543796 l 0.1268,5.5e-5 c 0.1687,6.9e-5 0.675666,0.09086 1.069302,0.1915 0.839571,0.21465 1.882313,0.734063 2.510081,1.250319 0.09656,0.0794 0.19422,0.15514 0.217033,0.1683 0.02282,0.0132 0.519928,-0.454754 1.1047,-1.039814 z" /></g></svg>
