  0
SECTION
  2
HEADER
  9
$ACADVER
  1
AC1015
  9
$ACADMAINTVER
 70
     6
  9
$DWGCODEPAGE
  3
ANSI_1252
  9
$INSBASE
 10
0.0
 20
0.0
 30
0.0
  9
$EXTMIN
 10
-48.0
 20
-33.5
 30
0.0
  9
$EXTMAX
 10
48.0
 20
33.5
 30
0.0
  9
$LIMMIN
 10
0.0
 20
0.0
  9
$LIMMAX
 10
420.0
 20
297.0
  9
$ORTHOMODE
 70
     0
  9
$REGENMODE
 70
     1
  9
$FILLMODE
 70
     1
  9
$QTEXTMODE
 70
     0
  9
$MIRRTEXT
 70
     1
  9
$LTSCALE
 40
1.0
  9
$ATTMODE
 70
     1
  9
$TEXTSIZE
 40
3.5
  9
$TRACEWID
 40
1.0
  9
$TEXTSTYLE
  7
Standard
  9
$CLAYER
  8
0
  9
$CELTYPE
  6
ByLayer
  9
$CECOLOR
 62
   256
  9
$CELTSCALE
 40
1.0
  9
$DISPSILH
 70
     0
  9
$DIMSCALE
 40
1.0
  9
$DIMASZ
 40
3.302
  9
$DIMEXO
 40
0.0
  9
$DIMDLI
 40
3.75
  9
$DIMRND
 40
0.0
  9
$DIMDLE
 40
0.0
  9
$DIMEXE
 40
1.0
  9
$DIMTP
 40
0.0
  9
$DIMTM
 40
0.0
  9
$DIMTXT
 40
3.5
  9
$DIMCEN
 40
2.5
  9
$DIMTSZ
 40
0.0
  9
$DIMTOL
 70
     0
  9
$DIMLIM
 70
     0
  9
$DIMTIH
 70
     1
  9
$DIMTOH
 70
     1
  9
$DIMSE1
 70
     0
  9
$DIMSE2
 70
     0
  9
$DIMTAD
 70
     1
  9
$DIMZIN
 70
     1
  9
$DIMBLK
  1

  9
$DIMASO
 70
     1
  9
$DIMSHO
 70
     1
  9
$DIMPOST
  1

  9
$DIMAPOST
  1

  9
$DIMALT
 70
     0
  9
$DIMALTD
 70
     3
  9
$DIMALTF
 40
0.0393700787
  9
$DIMLFAC
 40
1.0
  9
$DIMTOFL
 70
     1
  9
$DIMTVP
 40
0.0
  9
$DIMTIX
 70
     0
  9
$DIMSOXD
 70
     0
  9
$DIMSAH
 70
     0
  9
$DIMBLK1
  1

  9
$DIMBLK2
  1

  9
$DIMSTYLE
  2
ISO-25
  9
$DIMCLRD
 70
     0
  9
$DIMCLRE
 70
     0
  9
$DIMCLRT
 70
     0
  9
$DIMTFAC
 40
1.0
  9
$DIMGAP
 40
1.524
  9
$DIMJUST
 70
     0
  9
$DIMSD1
 70
     0
  9
$DIMSD2
 70
     0
  9
$DIMTOLJ
 70
     0
  9
$DIMTZIN
 70
     1
  9
$DIMALTZ
 70
     0
  9
$DIMALTTZ
 70
     0
  9
$DIMUPT
 70
     0
  9
$DIMDEC
 70
     2
  9
$DIMTDEC
 70
     2
  9
$DIMALTU
 70
     2
  9
$DIMALTTD
 70
     3
  9
$DIMTXSTY
  7
Standard
  9
$DIMAUNIT
 70
     0
  9
$DIMADEC
 70
     2
  9
$DIMALTRND
 40
0.0
  9
$DIMAZIN
 70
     0
  9
$DIMDSEP
 70
    44
  9
$DIMATFIT
 70
     3
  9
$DIMFRAC
 70
     0
  9
$DIMLDRBLK
  1

  9
$DIMLUNIT
 70
     2
  9
$DIMLWD
 70
    -2
  9
$DIMLWE
 70
    -2
  9
$DIMTMOVE
 70
     0
  9
$LUNITS
 70
     2
  9
$LUPREC
 70
     6
  9
$SKETCHINC
 40
1.0
  9
$FILLETRAD
 40
0.0
  9
$AUNITS
 70
     0
  9
$AUPREC
 70
     2
  9
$MENU
  1
.
  9
$ELEVATION
 40
0.0
  9
$PELEVATION
 40
0.0
  9
$THICKNESS
 40
0.0
  9
$LIMCHECK
 70
     0
  9
$CHAMFERA
 40
0.0
  9
$CHAMFERB
 40
0.0
  9
$CHAMFERC
 40
0.0
  9
$CHAMFERD
 40
0.0
  9
$SKPOLY
 70
     0
  9
$TDCREATE
 40
2460140.417945162
  9
$TDUCREATE
 40
2460140.667945162
  9
$TDUPDATE
 40
2460140.417971273
  9
$TDUUPDATE
 40
2460140.667971273
  9
$TDINDWG
 40
0.0000000116
  9
$TDUSRTIMER
 40
0.0000000116
  9
$USRTIMER
 70
     1
  9
$ANGBASE
 50
0.0
  9
$ANGDIR
 70
     0
  9
$PDMODE
 70
     0
  9
$PDSIZE
 40
-1.0
  9
$PLINEWID
 40
0.0
  9
$SPLFRAME
 70
     0
  9
$SPLINETYPE
 70
     6
  9
$SPLINESEGS
 70
     8
  9
$HANDSEED
  5
115
  9
$SURFTAB1
 70
     6
  9
$SURFTAB2
 70
     6
  9
$SURFTYPE
 70
     6
  9
$SURFU
 70
     6
  9
$SURFV
 70
     6
  9
$UCSBASE
  2

  9
$UCSNAME
  2

  9
$UCSORG
 10
0.0
 20
0.0
 30
0.0
  9
$UCSXDIR
 10
1.0
 20
0.0
 30
0.0
  9
$UCSYDIR
 10
0.0
 20
1.0
 30
0.0
  9
$UCSORTHOREF
  2

  9
$UCSORTHOVIEW
 70
     0
  9
$UCSORGTOP
 10
0.0
 20
0.0
 30
0.0
  9
$UCSORGBOTTOM
 10
0.0
 20
0.0
 30
0.0
  9
$UCSORGLEFT
 10
0.0
 20
0.0
 30
0.0
  9
$UCSORGRIGHT
 10
0.0
 20
0.0
 30
0.0
  9
$UCSORGFRONT
 10
0.0
 20
0.0
 30
0.0
  9
$UCSORGBACK
 10
0.0
 20
0.0
 30
0.0
  9
$PUCSBASE
  2

  9
$PUCSNAME
  2

  9
$PUCSORG
 10
0.0
 20
0.0
 30
0.0
  9
$PUCSXDIR
 10
1.0
 20
0.0
 30
0.0
  9
$PUCSYDIR
 10
0.0
 20
1.0
 30
0.0
  9
$PUCSORTHOREF
  2

  9
$PUCSORTHOVIEW
 70
     0
  9
$PUCSORGTOP
 10
0.0
 20
0.0
 30
0.0
  9
$PUCSORGBOTTOM
 10
0.0
 20
0.0
 30
0.0
  9
$PUCSORGLEFT
 10
0.0
 20
0.0
 30
0.0
  9
$PUCSORGRIGHT
 10
0.0
 20
0.0
 30
0.0
  9
$PUCSORGFRONT
 10
0.0
 20
0.0
 30
0.0
  9
$PUCSORGBACK
 10
0.0
 20
0.0
 30
0.0
  9
$USERI1
 70
     0
  9
$USERI2
 70
     0
  9
$USERI3
 70
     0
  9
$USERI4
 70
     0
  9
$USERI5
 70
     0
  9
$USERR1
 40
0.0
  9
$USERR2
 40
0.0
  9
$USERR3
 40
0.0
  9
$USERR4
 40
0.0
  9
$USERR5
 40
0.0
  9
$WORLDVIEW
 70
     1
  9
$SHADEDGE
 70
     3
  9
$SHADEDIF
 70
    70
  9
$TILEMODE
 70
     1
  9
$MAXACTVP
 70
    64
  9
$PINSBASE
 10
0.0
 20
0.0
 30
0.0
  9
$PLIMCHECK
 70
     0
  9
$PEXTMIN
 10
1.0000000000E+20
 20
1.0000000000E+20
 30
1.0000000000E+20
  9
$PEXTMAX
 10
-1.0000000000E+20
 20
-1.0000000000E+20
 30
-1.0000000000E+20
  9
$PLIMMIN
 10
0.0
 20
0.0
  9
$PLIMMAX
 10
420.0
 20
297.0
  9
$UNITMODE
 70
     0
  9
$VISRETAIN
 70
     1
  9
$PLINEGEN
 70
     0
  9
$PSLTSCALE
 70
     1
  9
$TREEDEPTH
 70
  3020
  9
$CMLSTYLE
  2
Standard
  9
$CMLJUST
 70
     0
  9
$CMLSCALE
 40
20.0
  9
$PROXYGRAPHICS
 70
     1
  9
$MEASUREMENT
 70
     1
  9
$CELWEIGHT
370
    -1
  9
$ENDCAPS
280
     0
  9
$JOINSTYLE
280
     0
  9
$LWDISPLAY
290
     1
  9
$INSUNITS
 70
     4
  9
$HYPERLINKBASE
  1

  9
$STYLESHEET
  1

  9
$XEDIT
290
     1
  9
$CEPSNTYPE
380
     0
  9
$PSTYLEMODE
290
     1
  9
$FINGERPRINTGUID
  2
{6b8baee5-e664-430e-8862-32a339b4726a}
  9
$VERSIONGUID
  2
{FAEB1C32-E019-11D5-929B-00C0DF256EC4}
  9
$EXTNAMES
290
     1
  9
$PSVPSCALE
 40
0.0
  9
$OLESTARTUP
290
     0
  0
ENDSEC
  0
SECTION
  2
CLASSES
  0
CLASS
  1
ACDBDICTIONARYWDFLT
  2
AcDbDictionaryWithDefault
  3
ObjectDBX Classes
 90
        0
280
     0
281
     0
  0
CLASS
  1
VISUALSTYLE
  2
AcDbVisualStyle
  3
ObjectDBX Classes
 90
     4095
280
     0
281
     0
  0
CLASS
  1
MATERIAL
  2
AcDbMaterial
  3
ObjectDBX Classes
 90
     1153
280
     0
281
     0
  0
CLASS
  1
SCALE
  2
AcDbScale
  3
ObjectDBX Classes
 90
     1153
280
     0
281
     0
  0
CLASS
  1
TABLESTYLE
  2
AcDbTableStyle
  3
ObjectDBX Classes
 90
     4095
280
     0
281
     0
  0
CLASS
  1
MLEADERSTYLE
  2
AcDbMLeaderStyle
  3
ACDB_MLEADERSTYLE_CLASS
 90
     4095
280
     0
281
     0
  0
CLASS
  1
SUN
  2
AcDbSun
  3
SCENEOE
 90
     1153
280
     0
281
     0
  0
CLASS
  1
ACDBPLACEHOLDER
  2
AcDbPlaceHolder
  3
ObjectDBX Classes
 90
        0
280
     0
281
     0
  0
CLASS
  1
LAYOUT
  2
AcDbLayout
  3
ObjectDBX Classes
 90
        0
280
     0
281
     0
  0
ENDSEC
  0
SECTION
  2
TABLES
  0
TABLE
  2
VPORT
  5
8
330
0
100
AcDbSymbolTable
 70
     1
  0
VPORT
  5
29
330
8
100
AcDbSymbolTableRecord
100
AcDbViewportTableRecord
  2
*Active
 70
     0
 10
0.0
 20
0.0
 11
1.0
 21
1.0
 12
0.0
 22
0.0
 13
0.0
 23
0.0
 14
10.0
 24
10.0
 15
10.0
 25
10.0
 16
0.0
 26
0.0
 36
1.0
 17
0.0
 27
0.0
 37
0.0
 40
68.34
 41
1.4328358209
 42
50.0
 43
0.0
 44
0.0
 50
0.0
 51
0.0
 71
     0
 72
   100
 73
     1
 74
     3
 75
     0
 76
     0
 77
     0
 78
     0
281
     0
 65
     1
110
0.0
120
0.0
130
0.0
111
1.0
121
0.0
131
0.0
112
0.0
122
1.0
132
0.0
 79
     0
146
0.0
  0
ENDTAB
  0
TABLE
  2
LTYPE
  5
5
330
0
100
AcDbSymbolTable
 70
     6
  0
LTYPE
  5
14
330
5
100
AcDbSymbolTableRecord
100
AcDbLinetypeTableRecord
  2
ByBlock
 70
     0
  3

 72
    65
 73
     0
 40
0.0
  0
LTYPE
  5
15
330
5
100
AcDbSymbolTableRecord
100
AcDbLinetypeTableRecord
  2
ByLayer
 70
     0
  3

 72
    65
 73
     0
 40
0.0
  0
LTYPE
  5
16
330
5
100
AcDbSymbolTableRecord
100
AcDbLinetypeTableRecord
  2
Continuous
 70
     0
  3
Solid line
 72
    65
 73
     0
 40
0.0
  0
LTYPE
  5
5E
330
5
100
AcDbSymbolTableRecord
100
AcDbLinetypeTableRecord
  2
HIDDEN
 70
     0
  3
Hidden __ __ __ __ __ __ __ __ __ __ __ __ __ __
 72
    65
 73
     2
 40
1.905
 49
1.27
 74
     0
 49
-0.635
 74
     0
  0
LTYPE
  5
5F
330
5
100
AcDbSymbolTableRecord
100
AcDbLinetypeTableRecord
  2
PHANTOM
 70
     0
  3
Phantom ______  __  __  ______  __  __  ______
 72
    65
 73
     6
 40
12.7
 49
6.35
 74
     0
 49
-1.27
 74
     0
 49
1.27
 74
     0
 49
-1.27
 74
     0
 49
1.27
 74
     0
 49
-1.27
 74
     0
  0
LTYPE
  5
60
330
5
100
AcDbSymbolTableRecord
100
AcDbLinetypeTableRecord
  2
CENTER
 70
     0
  3
Center ____ _ ____ _ ____ _ ____ _ ____ _ ____
 72
    65
 73
     4
 40
10.16
 49
6.35
 74
     0
 49
-1.27
 74
     0
 49
1.27
 74
     0
 49
-1.27
 74
     0
  0
LTYPE
  5
61
330
5
100
AcDbSymbolTableRecord
100
AcDbLinetypeTableRecord
  2
CENTERX2
 70
     0
  3
Center (2x) ________  __  ________  __  _____
 72
    65
 73
     4
 40
20.32
 49
12.7
 74
     0
 49
-2.54
 74
     0
 49
2.54
 74
     0
 49
-2.54
 74
     0
  0
LTYPE
  5
62
330
5
100
AcDbSymbolTableRecord
100
AcDbLinetypeTableRecord
  2
DOT2
 70
     0
  3
Dot (.5x) ........................................
 72
    65
 73
     2
 40
0.635
 49
0.0
 74
     0
 49
-0.635
 74
     0
  0
ENDTAB
  0
TABLE
  2
LAYER
  5
2
330
0
100
AcDbSymbolTable
 70
     1
  0
LAYER
  5
10
330
2
100
AcDbSymbolTableRecord
100
AcDbLayerTableRecord
  2
0
 70
     0
 62
     7
  6
Continuous
370
    -3
390
F
  0
ENDTAB
  0
TABLE
  2
STYLE
  5
3
330
0
100
AcDbSymbolTable
 70
     2
  0
STYLE
  5
11
330
3
100
AcDbSymbolTableRecord
100
AcDbTextStyleTableRecord
  2
Standard
 70
     0
 40
0.0
 41
1.0
 50
0.0
 71
     0
 42
3.5
  3
txt
  4

  0
STYLE
  5
111
330
3
100
AcDbSymbolTableRecord
100
AcDbTextStyleTableRecord
  2
SLDTEXTSTYLE0
 70
     0
 40
0.0
 41
0.7
 50
0.0
 71
     0
 42
3.5
  3
TXT
  4

  0
ENDTAB
  0
TABLE
  2
VIEW
  5
6
330
0
100
AcDbSymbolTable
 70
     0
  0
ENDTAB
  0
TABLE
  2
UCS
  5
7
330
0
100
AcDbSymbolTable
 70
     0
  0
ENDTAB
  0
TABLE
  2
APPID
  5
9
330
0
100
AcDbSymbolTable
 70
     1
  0
APPID
  5
12
330
9
100
AcDbSymbolTableRecord
100
AcDbRegAppTableRecord
  2
ACAD
 70
     0
  0
ENDTAB
  0
TABLE
  2
DIMSTYLE
  5
A
330
0
100
AcDbSymbolTable
 70
     1
100
AcDbDimStyleTable
  0
DIMSTYLE
105
27
330
A
100
AcDbSymbolTableRecord
100
AcDbDimStyleTableRecord
  2
ISO-25
 70
     0
 41
2.5
 42
0.625
 43
3.75
 44
1.25
 73
     0
 74
     0
 77
     1
 78
     8
140
2.5
141
2.5
143
0.0393700787
147
0.625
171
     3
172
     1
178
     0
271
     2
272
     2
274
     3
278
    44
283
     0
284
     8
340
11
  0
ENDTAB
  0
TABLE
  2
BLOCK_RECORD
  5
1
330
0
100
AcDbSymbolTable
 70
     1
  0
BLOCK_RECORD
  5
1F
330
1
100
AcDbSymbolTableRecord
100
AcDbBlockTableRecord
  2
*Model_Space
340
22
  0
BLOCK_RECORD
  5
1B
330
1
100
AcDbSymbolTableRecord
100
AcDbBlockTableRecord
  2
*Paper_Space
340
1E
  0
BLOCK_RECORD
  5
23
330
1
100
AcDbSymbolTableRecord
100
AcDbBlockTableRecord
  2
*Paper_Space0
340
26
  0
ENDTAB
  0
ENDSEC
  0
SECTION
  2
BLOCKS
  0
BLOCK
  5
20
330
1F
100
AcDbEntity
  8
0
100
AcDbBlockBegin
  2
*Model_Space
 70
     0
 10
0.0
 20
0.0
 30
0.0
  3
*Model_Space
  1

  0
ENDBLK
  5
21
330
1F
100
AcDbEntity
  8
0
100
AcDbBlockEnd
  0
BLOCK
  5
1C
330
1B
100
AcDbEntity
 67
     1
  8
0
100
AcDbBlockBegin
  2
*Paper_Space
 70
     0
 10
0.0
 20
0.0
 30
0.0
  3
*Paper_Space
  1

  0
ENDBLK
  5
1D
330
1B
100
AcDbEntity
 67
     1
  8
0
100
AcDbBlockEnd
  0
BLOCK
  5
24
330
23
100
AcDbEntity
  8
0
100
AcDbBlockBegin
  2
*Paper_Space0
 70
     0
 10
0.0
 20
0.0
 30
0.0
  3
*Paper_Space0
  1

  0
ENDBLK
  5
25
330
23
100
AcDbEntity
  8
0
100
AcDbBlockEnd
  0
ENDSEC
  0
SECTION
  2
ENTITIES
  0
LINE
  5
63
330
1F
100
AcDbEntity
  8
0
  6
Continuous
 62
     7
100
AcDbLine
 10
-22.395256
 20
-15.614304
 30
0.0
 11
-23.523272
 21
-15.614304
 31
0.0
  0
LINE
  5
64
330
1F
100
AcDbEntity
  8
0
  6
Continuous
 62
     7
100
AcDbLine
 10
-23.523272
 20
-15.614304
 30
0.0
 11
-23.567444
 21
-15.558149
 31
0.0
  0
LINE
  5
65
330
1F
100
AcDbEntity
  8
0
  6
Continuous
 62
     7
100
AcDbLine
 10
-19.478697
 20
8.638807
 30
0.0
 11
-15.352331
 21
8.638807
 31
0.0
  0
LINE
  5
66
330
1F
100
AcDbEntity
  8
0
  6
Continuous
 62
     7
100
AcDbLine
 10
-15.352331
 20
8.638807
 30
0.0
 11
-15.185839
 21
8.586407
 31
0.0
  0
LINE
  5
67
330
1F
100
AcDbEntity
  8
0
  6
Continuous
 62
     7
100
AcDbLine
 10
-21.835715
 20
11.440547
 30
0.0
 11
-21.526797
 21
11.006817
 31
0.0
  0
LINE
  5
68
330
1F
100
AcDbEntity
  8
0
  6
Continuous
 62
     7
100
AcDbLine
 10
-21.526797
 20
11.006817
 30
0.0
 11
-19.236703
 21
10.995117
 31
0.0
  0
LINE
  5
69
330
1F
100
AcDbEntity
  8
0
  6
Continuous
 62
     7
100
AcDbLine
 10
-16.399998
 20
9.899037
 30
0.0
 11
-16.392598
 21
9.330487
 31
0.0
  0
LINE
  5
6A
330
1F
100
AcDbEntity
  8
0
  6
Continuous
 62
     7
100
AcDbLine
 10
-16.392598
 20
9.330487
 30
0.0
 11
-20.127765
 21
9.330017
 31
0.0
  0
LINE
  5
6B
330
1F
100
AcDbEntity
  8
0
  6
Continuous
 62
     7
100
AcDbLine
 10
0.3470640442
 20
-0.1213411107
 30
0.0
 11
0.4862740442
 21
0.0193488893
 31
0.0
  0
LINE
  5
6C
330
1F
100
AcDbEntity
  8
0
  6
Continuous
 62
     7
100
AcDbLine
 10
0.4862740442
 20
0.0193488893
 30
0.0
 11
-0.8213859558
 21
1.3301888893
 31
0.0
  0
LINE
  5
6D
330
1F
100
AcDbEntity
  8
0
  6
Continuous
 62
     7
100
AcDbLine
 10
-2.1938259558
 20
4.0023088893
 30
0.0
 11
-2.1938259558
 21
5.2354588893
 31
0.0
  0
LINE
  5
6E
330
1F
100
AcDbEntity
  8
0
  6
Continuous
 62
     7
100
AcDbLine
 10
-2.1938259558
 20
5.2354588893
 30
0.0
 11
-2.3050359558
 21
5.3056588893
 31
0.0
  0
LINE
  5
6F
330
1F
100
AcDbEntity
  8
0
  6
Continuous
 62
     7
100
AcDbLine
 10
-1.1343859558
 20
5.3241888893
 30
0.0
 11
-1.2538959558
 21
5.2508888893
 31
0.0
  0
LINE
  5
70
330
1F
100
AcDbEntity
  8
0
  6
Continuous
 62
     7
100
AcDbLine
 10
-1.2538959558
 20
5.2508888893
 30
0.0
 11
-1.2538059558
 21
4.1658988893
 31
0.0
  0
LINE
  5
71
330
1F
100
AcDbEntity
  8
0
  6
Continuous
 62
     7
100
AcDbLine
 10
-1.2538059558
 20
4.1658988893
 30
0.0
 11
-1.2537159558
 21
3.0809188893
 31
0.0
  0
LINE
  5
72
330
1F
100
AcDbEntity
  8
0
  6
Continuous
 62
     7
100
AcDbLine
 10
-1.2537159558
 20
3.0809188893
 30
0.0
 11
-0.2804759558
 21
2.0692388893
 31
0.0
  0
LINE
  5
73
330
1F
100
AcDbEntity
  8
0
  6
Continuous
 62
     7
100
AcDbLine
 10
0.7385640442
 20
5.1897888893
 30
0.0
 11
0.7385638564
 21
9.3415688893
 31
0.0
  0
LINE
  5
74
330
1F
100
AcDbEntity
  8
0
  6
Continuous
 62
     7
100
AcDbLine
 10
0.7385638564
 20
9.3415688893
 30
0.0
 11
0.3660352494
 21
9.6083633009
 31
0.0
  0
LINE
  5
75
330
1F
100
AcDbEntity
  8
0
  6
Continuous
 62
     7
100
AcDbLine
 10
2.1031052494
 20
9.6083133009
 30
0.0
 11
1.6769238564
 21
9.3415189318
 31
0.0
  0
LINE
  5
76
330
1F
100
AcDbEntity
  8
0
  6
Continuous
 62
     7
100
AcDbLine
 10
1.6769238564
 20
9.3415189318
 30
0.0
 11
1.6769238564
 21
6.2748289318
 31
0.0
  0
LINE
  5
77
330
1F
100
AcDbEntity
  8
0
  6
Continuous
 62
     7
100
AcDbLine
 10
1.6769238564
 20
6.2748289318
 30
0.0
 11
1.6769238564
 21
3.2081389318
 31
0.0
  0
LINE
  5
78
330
1F
100
AcDbEntity
  8
0
  6
Continuous
 62
     7
100
AcDbLine
 10
1.6769238564
 20
3.2081389318
 30
0.0
 11
2.7325738564
 21
4.2436289318
 31
0.0
  0
LINE
  5
79
330
1F
100
AcDbEntity
  8
0
  6
Continuous
 62
     7
100
AcDbLine
 10
2.7325738564
 20
4.2436289318
 30
0.0
 11
3.7882438564
 21
5.2791189318
 31
0.0
  0
LINE
  5
7A
330
1F
100
AcDbEntity
  8
0
  6
Continuous
 62
     7
100
AcDbLine
 10
3.7882438564
 20
5.2791189318
 30
0.0
 11
3.7882438564
 21
6.0200589318
 31
0.0
  0
LINE
  5
7B
330
1F
100
AcDbEntity
  8
0
  6
Continuous
 62
     7
100
AcDbLine
 10
3.7882438564
 20
6.0200589318
 30
0.0
 11
3.7882438564
 21
6.7610189318
 31
0.0
  0
LINE
  5
7C
330
1F
100
AcDbEntity
  8
0
  6
Continuous
 62
     7
100
AcDbLine
 10
3.7882438564
 20
6.7610189318
 30
0.0
 11
3.5517238564
 21
6.7610189318
 31
0.0
  0
LINE
  5
7D
330
1F
100
AcDbEntity
  8
0
  6
Continuous
 62
     7
100
AcDbLine
 10
3.2017638564
 20
7.7887489318
 30
0.0
 11
3.2017638564
 21
8.7557889318
 31
0.0
  0
LINE
  5
7E
330
1F
100
AcDbEntity
  8
0
  6
Continuous
 62
     7
100
AcDbLine
 10
3.2017638564
 20
8.7557889318
 30
0.0
 11
4.2500938564
 21
8.7477889318
 31
0.0
  0
LINE
  5
7F
330
1F
100
AcDbEntity
  8
0
  6
Continuous
 62
     7
100
AcDbLine
 10
4.2500938564
 20
8.7477889318
 30
0.0
 11
5.2984238564
 21
8.7397889318
 31
0.0
  0
LINE
  5
80
330
1F
100
AcDbEntity
  8
0
  6
Continuous
 62
     7
100
AcDbLine
 10
5.2984238564
 20
8.7397889318
 30
0.0
 11
5.3064238564
 21
7.7788589318
 31
0.0
  0
LINE
  5
81
330
1F
100
AcDbEntity
  8
0
  6
Continuous
 62
     7
100
AcDbLine
 10
5.3064238564
 20
7.7788589318
 30
0.0
 11
5.3144238564
 21
6.8179289318
 31
0.0
  0
LINE
  5
82
330
1F
100
AcDbEntity
  8
0
  6
Continuous
 62
     7
100
AcDbLine
 10
5.3144238564
 20
6.8179289318
 30
0.0
 11
5.2388238564
 21
6.7892289318
 31
0.0
  0
LINE
  5
83
330
1F
100
AcDbEntity
  8
0
  6
Continuous
 62
     7
100
AcDbLine
 10
4.9451838564
 20
6.7605289318
 30
0.0
 11
4.7271640442
 21
6.7605289318
 31
0.0
  0
LINE
  5
84
330
1F
100
AcDbEntity
  8
0
  6
Continuous
 62
     7
100
AcDbLine
 10
4.7271640442
 20
6.7605289318
 30
0.0
 11
4.7271640442
 21
5.9091888893
 31
0.0
  0
LINE
  5
85
330
1F
100
AcDbEntity
  8
0
  6
Continuous
 62
     7
100
AcDbLine
 10
3.1572240442
 20
3.3793588893
 30
0.0
 11
1.6775040442
 21
1.9168588893
 31
0.0
  0
LINE
  5
86
330
1F
100
AcDbEntity
  8
0
  6
Continuous
 62
     7
100
AcDbLine
 10
1.6775040442
 20
1.9168588893
 30
0.0
 11
1.6775040442
 21
1.0455988893
 31
0.0
  0
LINE
  5
87
330
1F
100
AcDbEntity
  8
0
  6
Continuous
 62
     7
100
AcDbLine
 10
1.6775040442
 20
1.0455988893
 30
0.0
 11
1.6775040442
 21
0.1743388893
 31
0.0
  0
LINE
  5
88
330
1F
100
AcDbEntity
  8
0
  6
Continuous
 62
     7
100
AcDbLine
 10
1.6775040442
 20
0.1743388893
 30
0.0
 11
1.8112340442
 21
0.1093388893
 31
0.0
  0
LINE
  5
89
330
1F
100
AcDbEntity
  8
0
  6
Continuous
 62
     7
100
AcDbLine
 10
1.0062240442
 20
-2.2400511107
 30
0.0
 11
1.0056640442
 21
-2.2389911107
 31
0.0
  0
SPLINE
  5
8A
330
1F
100
AcDbEntity
  8
0
  6
Continuous
 62
     7
100
AcDbSpline
210
0.0
220
0.0
230
1.0
 70
     8
 71
     3
 72
     9
 73
     5
 74
     0
 42
0.00000001
 43
0.00000001
 40
0.0
 40
0.0
 40
0.0
 40
0.0
 40
0.5651680212264519
 40
1.0
 40
1.0
 40
1.0
 40
1.0
 10
-22.92427420616149
 20
-15.61964899999999
 30
0.0
 10
-22.30395493855997
 20
-15.61718302879999
 30
0.0
 10
-21.82669299999998
 20
-15.61964899999999
 30
0.0
 10
-21.98578012445907
 20
-15.61851079592659
 30
0.0
 10
-21.82669299999998
 20
-15.61964899999999
 30
0.0
  0
SPLINE
  5
8B
330
1F
100
AcDbEntity
  8
0
  6
Continuous
 62
     7
100
AcDbSpline
210
0.0
220
0.0
230
1.0
 70
     8
 71
     3
 72
    14
 73
    10
 74
     0
 42
0.00000001
 43
0.00000001
 40
0.0
 40
0.0
 40
0.0
 40
0.0
 40
0.1568350350895084
 40
0.1597255135199335
 40
0.1597705229113235
 40
0.1598011312720359
 40
0.159911033625378
 40
0.1991491782835217
 40
1.0
 40
1.0
 40
1.0
 40
1.0
 10
-21.82668447494506
 20
-15.61964899999999
 30
0.0
 10
-21.70021254687498
 20
-15.62200329687499
 30
0.0
 10
-21.69790082868925
 20
-15.62230473523514
 30
0.0
 10
-21.69787424563714
 20
-15.62232945708222
 30
0.0
 10
-21.6978730750598
 20
-15.62235411620266
 30
0.0
 10
-21.69794685541151
 20
-15.62240324498366
 30
0.0
 10
-21.72957500512693
 20
-15.62350002368163
 30
0.0
 10
-22.37548999999997
 20
-15.62571199999999
 30
0.0
 10
-22.15342057123867
 20
-15.6118312445645
 30
0.0
 10
-22.37548999999998
 20
-15.62571199999999
 30
0.0
  0
SPLINE
  5
8C
330
1F
100
AcDbEntity
  8
0
  6
Continuous
 62
     7
100
AcDbSpline
210
0.0
220
0.0
230
1.0
 70
     8
 71
     3
 72
    14
 73
    10
 74
     0
 42
0.00000001
 43
0.00000001
 40
0.0
 40
0.0
 40
0.0
 40
0.0
 40
0.8008446347897055
 40
0.8400818345832074
 40
0.8401917326896149
 40
0.840222340337313
 40
0.8402673494070385
 40
0.8431577747238878
 40
1.0
 40
1.0
 40
1.0
 40
1.0
 10
-22.37547934055327
 20
-15.62571199999999
 30
0.0
 10
-23.02140541015622
 20
-15.62350002368163
 30
0.0
 10
-23.05303358489988
 20
-15.62240324498366
 30
0.0
 10
-23.05310736378488
 20
-15.62235411620266
 30
0.0
 10
-23.05310619238736
 20
-15.62232945708222
 30
0.0
 10
-23.05307960845658
 20
-15.62230473523514
 30
0.0
 10
-23.05076787499997
 20
-15.62200329687499
 30
0.0
 10
-22.92428699999997
 20
-15.61964899999999
 30
0.0
 10
-22.96579652446979
 20
-15.62264967747527
 30
0.0
 10
-22.92428699999997
 20
-15.61964899999999
 30
0.0
  0
SPLINE
  5
8D
330
1F
100
AcDbEntity
  8
0
  6
Continuous
 62
     7
100
AcDbSpline
210
0.0
220
0.0
230
1.0
 70
     8
 71
     3
 72
     9
 73
     5
 74
     0
 42
0.00000001
 43
0.00000001
 40
0.0
 40
0.0
 40
0.0
 40
0.0
 40
0.5677709709306291
 40
1.0
 40
1.0
 40
1.0
 40
1.0
 10
-19.2037671804428
 20
-13.40314399999999
 30
0.0
 10
-18.59873566911998
 20
-13.40067550118399
 30
0.0
 10
-18.13814399999998
 20
-13.40315199999999
 30
0.0
 10
-18.29167435292085
 20
-13.40201272360848
 30
0.0
 10
-18.13814399999998
 20
-13.40315199999999
 30
0.0
  0
SPLINE
  5
8E
330
1F
100
AcDbEntity
  8
0
  6
Continuous
 62
     7
100
AcDbSpline
210
0.0
220
0.0
230
1.0
 70
     8
 71
     3
 72
    16
 73
    12
 74
     0
 42
0.00000001
 43
0.00000001
 40
0.0
 40
0.0
 40
0.0
 40
0.0
 40
0.1533069569649677
 40
0.1551025841677022
 40
0.1555773260115693
 40
0.155782050216579
 40
0.1558137959020437
 40
0.1558601175130447
 40
0.1560337229207509
 40
0.1968044054964705
 40
1.0
 40
1.0
 40
1.0
 40
1.0
 10
-18.13814043998717
 20
-13.403152
 30
0.0
 10
-18.01799265624997
 20
-13.40551499999999
 30
0.0
 10
-18.01659340549115
 20
-13.40566733228336
 30
0.0
 10
-18.01622898307497
 20
-13.40574268141199
 30
0.0
 10
-18.01608700345859
 20
-13.40581747430705
 30
0.0
 10
-18.01608897567352
 20
-13.40584228016633
 30
0.0
 10
-18.0161155497726
 20
-13.40586702293765
 30
0.0
 10
-18.01624238964078
 20
-13.40591631793212
 30
0.0
 10
-18.04818190380856
 20
-13.40701662890624
 30
0.0
 10
-18.67776999999997
 20
-13.40923200000002
 30
0.0
 10
-18.470740218648
 20
-13.39949132461392
 30
0.0
 10
-18.67776999999997
 20
-13.40923200000002
 30
0.0
  0
SPLINE
  5
8F
330
1F
100
AcDbEntity
  8
0
  6
Continuous
 62
     7
100
AcDbSpline
210
0.0
220
0.0
230
1.0
 70
     8
 71
     3
 72
    16
 73
    12
 74
     0
 42
0.00000001
 43
0.00000001
 40
0.0
 40
0.0
 40
0.0
 40
0.0
 40
0.7984020461159705
 40
0.8260796356521867
 40
0.8361110773570768
 40
0.8361520746433987
 40
0.8361757503915177
 40
0.8362059784197547
 40
0.8363085391175473
 40
0.839632783015202
 40
1.0
 40
1.0
 40
1.0
 40
1.0
 10
-18.67775619029998
 20
-13.40923200000002
 30
0.0
 10
-19.30238644433591
 20
-13.4070080529785
 30
0.0
 10
-19.32403367481801
 20
-13.40647821200608
 30
0.0
 10
-19.33186102836606
 20
-13.40590720631789
 30
0.0
 10
-19.33188158665021
 20
-13.40588258666335
 30
0.0
 10
-19.33188080588064
 20
-13.40586408027485
 30
0.0
 10
-19.33186612682021
 20
-13.40584553833897
 30
0.0
 10
-19.33179502695486
 20
-13.40580834836714
 30
0.0
 10
-19.32921193749998
 20
-13.40550585937499
 30
0.0
 10
-19.20376999999997
 20
-13.40314399999999
 30
0.0
 10
-19.24517731764416
 20
-13.40442721236649
 30
0.0
 10
-19.20376999999997
 20
-13.40314399999999
 30
0.0
  0
SPLINE
  5
90
330
1F
100
AcDbEntity
  8
0
  6
Continuous
 62
     7
100
AcDbSpline
210
0.0
220
0.0
230
1.0
 70
     8
 71
     3
 72
     9
 73
     5
 74
     0
 42
0.00000001
 43
0.00000001
 40
0.0
 40
0.0
 40
0.0
 40
0.0
 40
0.5603023467869014
 40
0.9999999999999999
 40
0.9999999999999999
 40
0.9999999999999999
 40
0.9999999999999999
 10
-22.66320586204528
 20
-20.390164
 30
0.0
 10
-22.76300079660795
 20
-20.30148190451198
 30
0.0
 10
-22.78949799999996
 20
-20.20011999999999
 30
0.0
 10
-22.78446289671464
 20
-20.23623539570201
 30
0.0
 10
-22.78949799999996
 20
-20.20011999999999
 30
0.0
  0
SPLINE
  5
91
330
1F
100
AcDbEntity
  8
0
  6
Continuous
 62
     7
100
AcDbSpline
210
0.0
220
0.0
230
1.0
 70
     8
 71
     3
 72
    13
 73
     9
 74
     0
 42
0.00000001
 43
0.00000001
 40
0.0
 40
0.0
 40
0.0
 40
0.0
 40
0.0065990652119123
 40
0.0167225901236565
 40
0.0452258047933565
 40
0.1274110581000792
 40
0.3626173771822592
 40
1.0
 40
1.0
 40
1.0
 40
1.0
 10
-22.78949320316314
 20
-20.20011999999999
 30
0.0
 10
-22.78656552426493
 20
-20.18427019097077
 30
0.0
 10
-22.78031237587539
 20
-20.16034767562857
 30
0.0
 10
-22.76082628267764
 20
-20.0935125009049
 30
0.0
 10
-22.70102007989664
 20
-19.90189482589029
 30
0.0
 10
-22.52312981567995
 20
-19.35564962214399
 30
0.0
 10
-22.02805999999994
 20
-17.87968599999999
 30
0.0
 10
-22.19432630041549
 20
-18.37127825985176
 30
0.0
 10
-22.02805999999994
 20
-17.87968599999999
 30
0.0
  0
SPLINE
  5
92
330
1F
100
AcDbEntity
  8
0
  6
Continuous
 62
     7
100
AcDbSpline
210
0.0
220
0.0
230
1.0
 70
     8
 71
     3
 72
    11
 73
     7
 74
     0
 42
0.00000001
 43
0.00000001
 40
0.0
 40
0.0
 40
0.0
 40
0.0
 40
0.9196632681785119
 40
0.9943633536652458
 40
0.9984598941520534
 40
1.0
 40
1.0
 40
1.0
 40
1.0
 10
-22.02805876731871
 20
-17.87968599999999
 30
0.0
 10
-21.32727345312495
 20
-15.807310421875
 30
0.0
 10
-21.27118712524409
 20
-15.63870057885743
 30
0.0
 10
-21.26823490774531
 20
-15.62941385848999
 30
0.0
 10
-21.26723999999994
 20
-15.62588800000001
 30
0.0
 10
-21.26756640448465
 20
-15.62706485391729
 30
0.0
 10
-21.26723999999995
 20
-15.62588800000001
 30
0.0
  0
SPLINE
  5
93
330
1F
100
AcDbEntity
  8
0
  6
Continuous
 62
     7
100
AcDbSpline
210
0.0
220
0.0
230
1.0
 70
     8
 71
     3
 72
    12
 73
     8
 74
     0
 42
0.00000001
 43
0.00000001
 40
0.0
 40
0.0
 40
0.0
 40
0.0
 40
0.0001578857331948
 40
0.0004369188618717
 40
0.0053579453762071
 40
0.0791162947114736
 40
1.0
 40
1.0
 40
1.0
 40
1.0
 10
-21.26723527908324
 20
-15.625888
 30
0.0
 10
-21.26733275735993
 20
-15.62573889365721
 30
0.0
 10
-21.26761027640909
 20
-15.62559022298813
 30
0.0
 10
-21.27309213159174
 20
-15.62470799780273
 30
0.0
 10
-21.35624748437494
 20
-15.621390234375
 30
0.0
 10
-22.39525599999995
 20
-15.61430399999999
 30
0.0
 10
-22.04975313158368
 20
-15.61322005981918
 30
0.0
 10
-22.39525599999995
 20
-15.61430399999999
 30
0.0
  0
SPLINE
  5
94
330
1F
100
AcDbEntity
  8
0
  6
Continuous
 62
     7
100
AcDbSpline
210
0.0
220
0.0
230
1.0
 70
     8
 71
     3
 72
     9
 73
     5
 74
     0
 42
0.00000001
 43
0.00000001
 40
0.0
 40
0.0
 40
0.0
 40
0.0
 40
0.5521607496241029
 40
1.0
 40
1.0
 40
1.0
 40
1.0
 10
-23.56743812561034
 20
-15.55814899999999
 30
0.0
 10
-23.60194145510397
 20
-15.48782440697599
 30
0.0
 10
-23.61103899999997
 20
-15.42494599999999
 30
0.0
 10
-23.60941620537133
 20
-15.44634140053957
 30
0.0
 10
-23.61103899999997
 20
-15.42494599999999
 30
0.0
  0
SPLINE
  5
95
330
1F
100
AcDbEntity
  8
0
  6
Continuous
 62
     7
100
AcDbSpline
210
0.0
220
0.0
230
1.0
 70
     8
 71
     3
 72
    19
 73
    15
 74
     0
 42
0.00000001
 43
0.00000001
 40
0.0
 40
0.0
 40
0.0
 40
0.0
 40
0.0017201975864963
 40
0.0042134241611754
 40
0.0110926183209717
 40
0.0306884692435534
 40
0.0864536949343131
 40
0.2376559555737555
 40
0.5888670592605539
 40
0.8980435796849858
 40
0.9766434705061008
 40
0.9943998342072535
 40
0.998477946365588
 40
1.0
 40
1.0
 40
1.0
 40
1.0
 10
-23.61103892326354
 20
-15.42494599999999
 30
0.0
 10
-23.60859447664868
 20
-15.41402461747504
 30
0.0
 10
-23.60337586269516
 20
-15.39866608700108
 30
0.0
 10
-23.58710797729744
 20
-15.35697128058578
 30
0.0
 10
-23.53716454666252
 20
-15.23967041505622
 30
0.0
 10
-23.38855766009029
 20
-14.90869319658208
 30
0.0
 10
-22.97471938807247
 20
-14.01625509574295
 30
0.0
 10
-21.99583911238397
 20
-11.95157121523199
 30
0.0
 10
-21.11853457185384
 20
-10.14146762662124
 30
0.0
 10
-20.8882330998498
 20
-9.684892143023662
 30
0.0
 10
-20.83305839085629
 20
-9.583396922224715
 30
0.0
 10
-20.8190816614995
 20
-9.5608445855922
 30
0.0
 10
-20.81279699999997
 20
-9.55319199999999
 30
0.0
 10
-20.81493993945274
 20
-9.55570819282912
 30
0.0
 10
-20.81279699999997
 20
-9.55319199999999
 30
0.0
  0
SPLINE
  5
96
330
1F
100
AcDbEntity
  8
0
  6
Continuous
 62
     7
100
AcDbSpline
210
0.0
220
0.0
230
1.0
 70
     8
 71
     3
 72
    10
 73
     6
 74
     0
 42
0.00000001
 43
0.00000001
 40
0.0
 40
0.0
 40
0.0
 40
0.0
 40
0.0423645483881575
 40
0.2784180034595868
 40
1.0
 40
1.0
 40
1.0
 40
1.0
 10
-20.81279456615447
 20
-9.55319199999999
 30
0.0
 10
-20.75365118749997
 20
-9.52729137499999
 30
0.0
 10
-20.39434102343747
 20
-9.509314929687488
 30
0.0
 10
-19.29462799999997
 20
-9.50251099999999
 30
0.0
 10
-19.65626714672133
 20
-9.520093152631961
 30
0.0
 10
-19.29462799999997
 20
-9.50251099999999
 30
0.0
  0
SPLINE
  5
97
330
1F
100
AcDbEntity
  8
0
  6
Continuous
 62
     7
100
AcDbSpline
210
0.0
220
0.0
230
1.0
 70
     8
 71
     3
 72
    10
 73
     6
 74
     0
 42
0.00000001
 43
0.00000001
 40
0.0
 40
0.0
 40
0.0
 40
0.0
 40
0.7147592286331749
 40
0.9432361165708111
 40
1.0
 40
1.0
 40
1.0
 40
1.0
 10
-19.29461956024169
 20
-9.50251099999999
 30
0.0
 10
-18.0999531816406
 20
-9.503569044921864
 30
0.0
 10
-17.72032282812497
 20
-9.54497848437499
 30
0.0
 10
-17.65407699999997
 20
-9.61289799999999
 30
0.0
 10
-17.67518279228472
 20
-9.588292316627813
 30
0.0
 10
-17.65407699999997
 20
-9.61289799999999
 30
0.0
  0
SPLINE
  5
98
330
1F
100
AcDbEntity
  8
0
  6
Continuous
 62
     7
100
AcDbSpline
210
0.0
220
0.0
230
1.0
 70
     8
 71
     3
 72
     9
 73
     5
 74
     0
 42
0.00000001
 43
0.00000001
 40
0.0
 40
0.0
 40
0.0
 40
0.0
 40
0.5532765549564437
 40
1.0
 40
1.0
 40
1.0
 40
1.0
 10
-17.65407621860503
 20
-9.61289799999999
 30
0.0
 10
-17.62865687878397
 20
-9.679616418815991
 30
0.0
 10
-17.62655999999997
 20
-9.73722499999999
 30
0.0
 10
-17.62588699285117
 20
-9.717743743742762
 30
0.0
 10
-17.62655999999997
 20
-9.73722499999999
 30
0.0
  0
SPLINE
  5
99
330
1F
100
AcDbEntity
  8
0
  6
Continuous
 62
     7
100
AcDbSpline
210
0.0
220
0.0
230
1.0
 70
     8
 71
     3
 72
    13
 73
     9
 74
     0
 42
0.00000001
 43
0.00000001
 40
0.0
 40
0.0
 40
0.0
 40
0.0
 40
0.0064884623687039
 40
0.0161295164329358
 40
0.0431057800190836
 40
0.1212465373143456
 40
0.3494502630238329
 40
0.9999999999999999
 40
0.9999999999999999
 40
0.9999999999999999
 40
0.9999999999999999
 10
-17.62655377387999
 20
-9.73722499999999
 30
0.0
 10
-17.63106149929108
 20
-9.75037819865693
 30
0.0
 10
-17.63964085409451
 20
-9.76917250459321
 30
0.0
 10
-17.66572134192468
 20
-9.820762558932449
 30
0.0
 10
-17.74530707981078
 20
-9.968089079669367
 30
0.0
 10
-17.98530316441597
 20
-10.39416666899199
 30
0.0
 10
-18.68387899999997
 20
-11.60057399999999
 30
0.0
 10
-18.4496696660918
 20
-11.19918314827705
 30
0.0
 10
-18.68387899999997
 20
-11.60057399999999
 30
0.0
  0
SPLINE
  5
9A
330
1F
100
AcDbEntity
  8
0
  6
Continuous
 62
     7
100
AcDbSpline
210
0.0
220
0.0
230
1.0
 70
     8
 71
     3
 72
    10
 73
     6
 74
     0
 42
0.00000001
 43
0.00000001
 40
0.0
 40
0.0
 40
0.0
 40
0.0
 40
0.9195085666790035
 40
0.9943122545823658
 40
1.0
 40
1.0
 40
1.0
 40
1.0
 10
-18.68386566638945
 20
-11.60057399999999
 30
0.0
 10
-19.64997739062498
 20
-13.26047915624999
 30
0.0
 10
-19.7272975266113
 20
-13.39624940771484
 30
0.0
 10
-19.73273899999997
 20
-13.40680999999999
 30
0.0
 10
-19.73093037732536
 20
-13.40328698431353
 30
0.0
 10
-19.73273899999997
 20
-13.40680999999999
 30
0.0
  0
SPLINE
  5
9B
330
1F
100
AcDbEntity
  8
0
  6
Continuous
 62
     7
100
AcDbSpline
210
0.0
220
0.0
230
1.0
 70
     8
 71
     3
 72
    12
 73
     8
 74
     0
 42
0.00000001
 43
0.00000001
 40
0.0
 40
0.0
 40
0.0
 40
0.0
 40
0.000162629409807
 40
0.0004481793320071
 40
0.0053821774314981
 40
0.0791499895924703
 40
1.0
 40
1.0
 40
1.0
 40
1.0
 10
-19.732728600502
 20
-13.40680999999999
 30
0.0
 10
-19.73264950518415
 20
-13.40696839772605
 30
0.0
 10
-19.73238174728391
 20
-13.40712633268737
 30
0.0
 10
-19.7270927050781
 20
-13.40806353417968
 30
0.0
 10
-19.64686218749997
 20
-13.41158806249999
 30
0.0
 10
-18.64439999999997
 20
-13.41911599999999
 30
0.0
 10
-18.97731216457305
 20
-13.42006747440838
 30
0.0
 10
-18.64439999999997
 20
-13.41911599999999
 30
0.0
  0
SPLINE
  5
9C
330
1F
100
AcDbEntity
  8
0
  6
Continuous
 62
     7
100
AcDbSpline
210
0.0
220
0.0
230
1.0
 70
     8
 71
     3
 72
    11
 73
     7
 74
     0
 42
0.00000001
 43
0.00000001
 40
0.0
 40
0.0
 40
0.0
 40
0.0
 40
0.7947279699130971
 40
0.951288828068952
 40
0.9862178533463367
 40
1.0
 40
1.0
 40
1.0
 40
1.0
 10
-18.64439249038695
 20
-13.41911599999999
 30
0.0
 10
-17.74169875507197
 20
-13.42627361894399
 30
0.0
 10
-17.56404507162494
 20
-13.43431599073883
 30
0.0
 10
-17.52463304821109
 20
-13.43888053935808
 30
0.0
 10
-17.50950899999997
 20
-13.44292299999999
 30
0.0
 10
-17.51452990868149
 20
-13.44147092972588
 30
0.0
 10
-17.50950899999997
 20
-13.44292299999999
 30
0.0
  0
SPLINE
  5
9D
330
1F
100
AcDbEntity
  8
0
  6
Continuous
 62
     7
100
AcDbSpline
210
0.0
220
0.0
230
1.0
 70
     8
 71
     3
 72
     9
 73
     5
 74
     0
 42
0.00000001
 43
0.00000001
 40
0.0
 40
0.0
 40
0.0
 40
0.0
 40
0.5515217270093946
 40
1.0
 40
1.0
 40
1.0
 40
1.0
 10
-17.50950515270232
 20
-13.44292299999999
 30
0.0
 10
-17.41317506899198
 20
-13.53644470239999
 30
0.0
 10
-17.38894199999997
 20
-13.64289699999999
 30
0.0
 10
-17.39297597018949
 20
-13.60514033400944
 30
0.0
 10
-17.38894199999997
 20
-13.64289699999999
 30
0.0
  0
SPLINE
  5
9E
330
1F
100
AcDbEntity
  8
0
  6
Continuous
 62
     7
100
AcDbSpline
210
0.0
220
0.0
230
1.0
 70
     8
 71
     3
 72
    10
 73
     6
 74
     0
 42
0.00000001
 43
0.00000001
 40
0.0
 40
0.0
 40
0.0
 40
0.0
 40
0.0328568833074421
 40
0.280326394333996
 40
1.0
 40
1.0
 40
1.0
 40
1.0
 10
-17.3889398574829
 20
-13.64289699999999
 30
0.0
 10
-17.44763110937497
 20
-13.76786987499999
 30
0.0
 10
-18.05991515429685
 20
-14.60839977343749
 30
0.0
 10
-19.88342499999997
 20
-17.02092999999999
 30
0.0
 10
-19.29867165879707
 20
-16.20394219612978
 30
0.0
 10
-19.88342499999997
 20
-17.02092999999999
 30
0.0
  0
SPLINE
  5
9F
330
1F
100
AcDbEntity
  8
0
  6
Continuous
 62
     7
100
AcDbSpline
210
0.0
220
0.0
230
1.0
 70
     8
 71
     3
 72
    13
 73
     9
 74
     0
 42
0.00000001
 43
0.00000001
 40
0.0
 40
0.0
 40
0.0
 40
0.0
 40
0.7629522748627461
 40
0.9484463541544201
 40
0.9886700475034463
 40
0.9973075971136536
 40
0.9992662119930742
 40
1.0
 40
1.0
 40
1.0
 40
1.0
 10
-19.88342404365538
 20
-17.02092999999999
 30
0.0
 10
-21.81754657747197
 20
-19.56408752230399
 30
0.0
 10
-22.29088082196605
 20
-20.18002913411671
 30
0.0
 10
-22.39472396379036
 20
-20.31266108237447
 30
0.0
 10
-22.41753177004852
 20
-20.34073642418026
 30
0.0
 10
-22.42290986137688
 20
-20.34692938768046
 30
0.0
 10
-22.42509199999997
 20
-20.34909299999999
 30
0.0
 10
-22.42435708031111
 20
-20.34837888499043
 30
0.0
 10
-22.42509199999997
 20
-20.34909299999999
 30
0.0
  0
SPLINE
  5
A0
330
1F
100
AcDbEntity
  8
0
  6
Continuous
 62
     7
100
AcDbSpline
210
0.0
220
0.0
230
1.0
 70
     8
 71
     3
 72
     9
 73
     5
 74
     0
 42
0.00000001
 43
0.00000001
 40
0.0
 40
0.0
 40
0.0
 40
0.0
 40
0.5844188904597818
 40
1.0
 40
1.0
 40
1.0
 40
1.0
 10
-22.42508530616759
 20
-20.34909299999999
 30
0.0
 10
-22.56091653068797
 20
-20.39759016300799
 30
0.0
 10
-22.66320899999997
 20
-20.39016399999999
 30
0.0
 10
-22.62871652177829
 20
-20.39554239938327
 30
0.0
 10
-22.66320899999998
 20
-20.390164
 30
0.0
  0
SPLINE
  5
A1
330
1F
100
AcDbEntity
  8
0
  6
Continuous
 62
     7
100
AcDbSpline
210
0.0
220
0.0
230
1.0
 70
     8
 71
     3
 72
     9
 73
     5
 74
     0
 42
0.00000001
 43
0.00000001
 40
0.0
 40
0.0
 40
0.0
 40
0.0
 40
0.5799910657099935
 40
0.9999999999999999
 40
0.9999999999999999
 40
0.9999999999999999
 40
0.9999999999999999
 10
-25.97771584987639
 20
3.137647000000007
 30
0.0
 10
-26.22366737798396
 20
3.269347450560009
 30
0.0
 10
-26.36323699999997
 20
3.415427000000013
 30
0.0
 10
-26.31941163191146
 20
3.363184268160378
 30
0.0
 10
-26.36323699999997
 20
3.415427000000013
 30
0.0
  0
SPLINE
  5
A2
330
1F
100
AcDbEntity
  8
0
  6
Continuous
 62
     7
100
AcDbSpline
210
0.0
220
0.0
230
1.0
 70
     8
 71
     3
 72
    10
 73
     6
 74
     0
 42
0.00000001
 43
0.00000001
 40
0.0
 40
0.0
 40
0.0
 40
0.0
 40
0.0562453401694553
 40
0.2599096221034231
 40
1.0
 40
1.0
 40
1.0
 40
1.0
 10
-26.36322379112243
 20
3.415427000000012
 30
0.0
 10
-26.44483756249997
 20
3.54362887500001
 30
0.0
 10
-26.27685867968747
 20
4.06766723437501
 30
0.0
 10
-25.42142899999997
 20
5.875197000000012
 30
0.0
 10
-25.64995212863604
 20
5.297514539733486
 30
0.0
 10
-25.42142899999997
 20
5.875197000000012
 30
0.0
  0
SPLINE
  5
A3
330
1F
100
AcDbEntity
  8
0
  6
Continuous
 62
     7
100
AcDbSpline
210
0.0
220
0.0
230
1.0
 70
     8
 71
     3
 72
    11
 73
     7
 74
     0
 42
0.00000001
 43
0.00000001
 40
0.0
 40
0.0
 40
0.0
 40
0.0
 40
0.752772183865481
 40
0.9419965055538605
 40
0.9854522106033999
 40
1.0
 40
1.0
 40
1.0
 40
1.0
 10
-25.42142570018767
 20
5.875197000000012
 30
0.0
 10
-24.58797628972797
 20
7.61244494880001
 30
0.0
 10
-24.37574637814509
 20
8.047818728445245
 30
0.0
 10
-24.32598323698753
 20
8.147297329977492
 30
0.0
 10
-24.30840999999997
 20
8.18012700000001
 30
0.0
 10
-24.3143060342771
 20
8.16920362770708
 30
0.0
 10
-24.30840999999997
 20
8.18012700000001
 30
0.0
  0
SPLINE
  5
A4
330
1F
100
AcDbEntity
  8
0
  6
Continuous
 62
     7
100
AcDbSpline
210
0.0
220
0.0
230
1.0
 70
     8
 71
     3
 72
     9
 73
     5
 74
     0
 42
0.00000001
 43
0.00000001
 40
0.0
 40
0.0
 40
0.0
 40
0.0
 40
0.5620613324849326
 40
0.9999999999999999
 40
0.9999999999999999
 40
0.9999999999999999
 40
0.9999999999999999
 10
-24.30839836597442
 20
8.18012700000001
 30
0.0
 10
-24.13187398182397
 20
8.377883957440012
 30
0.0
 10
-23.96846499999998
 20
8.504207000000013
 30
0.0
 10
-24.02482271004864
 20
8.46412568396951
 30
0.0
 10
-23.96846499999998
 20
8.504207000000015
 30
0.0
  0
SPLINE
  5
A5
330
1F
100
AcDbEntity
  8
0
  6
Continuous
 62
     7
100
AcDbSpline
210
0.0
220
0.0
230
1.0
 70
     8
 71
     3
 72
     9
 73
     5
 74
     0
 42
0.00000001
 43
0.00000001
 40
0.0
 40
0.0
 40
0.0
 40
0.0
 40
0.5210386364714543
 40
0.9999999999999999
 40
0.9999999999999999
 40
0.9999999999999999
 40
0.9999999999999999
 10
-23.96845817565917
 20
8.504207000000013
 30
0.0
 10
-23.85449912940798
 20
8.55699340640001
 30
0.0
 10
-23.74573499999997
 20
8.595707000000012
 30
0.0
 10
-23.78230965762512
 20
8.583585567892957
 30
0.0
 10
-23.74573499999997
 20
8.595707000000012
 30
0.0
  0
SPLINE
  5
A6
330
1F
100
AcDbEntity
  8
0
  6
Continuous
 62
     7
100
AcDbSpline
210
0.0
220
0.0
230
1.0
 70
     8
 71
     3
 72
    10
 73
     6
 74
     0
 42
0.00000001
 43
0.00000001
 40
0.0
 40
0.0
 40
0.0
 40
0.0
 40
0.0400984457673397
 40
0.2865422139256342
 40
1.0
 40
1.0
 40
1.0
 40
1.0
 10
-23.74573051929473
 20
8.595707000000012
 30
0.0
 10
-23.57626284374997
 20
8.619822625000014
 30
0.0
 10
-22.52435208984373
 20
8.636033171875011
 30
0.0
 10
-19.47869699999997
 20
8.638807000000012
 30
0.0
 10
-20.49227026095766
 20
8.622124913278673
 30
0.0
 10
-19.47869699999997
 20
8.638807000000012
 30
0.0
  0
SPLINE
  5
A7
330
1F
100
AcDbEntity
  8
0
  6
Continuous
 62
     7
100
AcDbSpline
210
0.0
220
0.0
230
1.0
 70
     8
 71
     3
 72
     9
 73
     5
 74
     0
 42
0.00000001
 43
0.00000001
 40
0.0
 40
0.0
 40
0.0
 40
0.0
 40
0.5633058586195449
 40
1.0
 40
1.0
 40
1.0
 40
1.0
 10
-15.18583297729491
 20
8.586407000000008
 30
0.0
 10
-14.59843580409597
 20
8.088632900800011
 30
0.0
 10
-14.51853799999997
 20
7.497117000000012
 30
0.0
 10
-14.51784280925191
 20
7.709254783816307
 30
0.0
 10
-14.51853799999997
 20
7.497117000000012
 30
0.0
  0
SPLINE
  5
A8
330
1F
100
AcDbEntity
  8
0
  6
Continuous
 62
     7
100
AcDbSpline
210
0.0
220
0.0
230
1.0
 70
     8
 71
     3
 72
    16
 73
    12
 74
     0
 42
0.00000001
 43
0.00000001
 40
0.0
 40
0.0
 40
0.0
 40
0.0
 40
0.0148709027858357
 40
0.0364857999583761
 40
0.0940422055092652
 40
0.2439668744334197
 40
0.5859461185676457
 40
0.8897577670504289
 40
0.9710885377941776
 40
0.9915416188741236
 40
1.0
 40
1.0
 40
1.0
 40
1.0
 10
-14.51853662729262
 20
7.497117000000012
 30
0.0
 10
-14.5413860405124
 20
7.433198265800211
 30
0.0
 10
-14.58030307733243
 20
7.342533969289215
 30
0.0
 10
-14.68986889382935
 20
7.103747838551887
 30
0.0
 10
-14.98599546353252
 20
6.48678501980081
 30
0.0
 10
-15.67970169331197
 20
5.088389206080009
 30
0.0
 10
-16.31247296736744
 20
3.854382037092136
 30
0.0
 10
-16.48935009679911
 20
3.527982391949374
 30
0.0
 10
-16.53685802765894
 20
3.447613284842177
 30
0.0
 10
-16.55898999999997
 20
3.415977000000007
 30
0.0
 10
-16.55149306577975
 20
3.42644492680992
 30
0.0
 10
-16.55898999999998
 20
3.415977000000008
 30
0.0
  0
SPLINE
  5
A9
330
1F
100
AcDbEntity
  8
0
  6
Continuous
 62
     7
100
AcDbSpline
210
0.0
220
0.0
230
1.0
 70
     8
 71
     3
 72
     9
 73
     5
 74
     0
 42
0.00000001
 43
0.00000001
 40
0.0
 40
0.0
 40
0.0
 40
0.0
 40
0.5388146721507278
 40
0.9999999999999999
 40
0.9999999999999999
 40
0.9999999999999999
 40
0.9999999999999999
 10
-16.55898988246917
 20
3.415977000000007
 30
0.0
 10
-16.78161646425597
 20
3.23414202528001
 30
0.0
 10
-17.00815099999997
 20
3.138147000000011
 30
0.0
 10
-16.92987370418665
 20
3.165560990226431
 30
0.0
 10
-17.00815099999997
 20
3.138147000000011
 30
0.0
  0
SPLINE
  5
AA
330
1F
100
AcDbEntity
  8
0
  6
Continuous
 62
     7
100
AcDbSpline
210
0.0
220
0.0
230
1.0
 70
     8
 71
     3
 72
    10
 73
     6
 74
     0
 42
0.00000001
 43
0.00000001
 40
0.0
 40
0.0
 40
0.0
 40
0.0
 40
0.0381214970229947
 40
0.2814152336994696
 40
1.0
 40
1.0
 40
1.0
 40
1.0
 10
-17.00814068317412
 20
3.138147000000011
 30
0.0
 10
-17.17775192187498
 20
3.113295437500011
 30
0.0
 10
-18.27165669335935
 20
3.09693899218751
 30
0.0
 10
-21.50293999999997
 20
3.094747000000009
 30
0.0
 10
-20.42772107499221
 20
3.11332380650808
 30
0.0
 10
-21.50293999999998
 20
3.094747000000009
 30
0.0
  0
SPLINE
  5
AB
330
1F
100
AcDbEntity
  8
0
  6
Continuous
 62
     7
100
AcDbSpline
210
0.0
220
0.0
230
1.0
 70
     8
 71
     3
 72
    10
 73
     6
 74
     0
 42
0.00000001
 43
0.00000001
 40
0.0
 40
0.0
 40
0.0
 40
0.0
 40
0.7145950115891657
 40
0.9621920772838577
 40
1.0
 40
1.0
 40
1.0
 40
1.0
 10
-21.50292694568633
 20
3.094747000000009
 30
0.0
 10
-24.70184473437497
 20
3.098116726562509
 30
0.0
 10
-25.81010824999996
 20
3.114212312500008
 30
0.0
 10
-25.97772699999996
 20
3.137647000000007
 30
0.0
 10
-25.92189173404019
 20
3.129351781284071
 30
0.0
 10
-25.97772699999996
 20
3.137647000000007
 30
0.0
  0
SPLINE
  5
AC
330
1F
100
AcDbEntity
  8
0
  6
Continuous
 62
     7
100
AcDbSpline
210
0.0
220
0.0
230
1.0
 70
     8
 71
     3
 72
    10
 73
     6
 74
     0
 42
0.00000001
 43
0.00000001
 40
0.0
 40
0.0
 40
0.0
 40
0.0
 40
0.7352967890281137
 40
0.9537359110382515
 40
0.9999999999999999
 40
0.9999999999999999
 40
0.9999999999999999
 40
0.9999999999999999
 10
-26.49956941604613
 20
8.488047000000009
 30
0.0
 10
-26.49474912499997
 20
11.16483069140626
 30
0.0
 10
-26.44169018749997
 20
11.95826840625002
 30
0.0
 10
-26.35268099999996
 20
12.10124700000001
 30
0.0
 10
-26.38469025076204
 20
12.05435255095467
 30
0.0
 10
-26.35268099999996
 20
12.10124700000001
 30
0.0
  0
SPLINE
  5
AD
330
1F
100
AcDbEntity
  8
0
  6
Continuous
 62
     7
100
AcDbSpline
210
0.0
220
0.0
230
1.0
 70
     8
 71
     3
 72
     9
 73
     5
 74
     0
 42
0.00000001
 43
0.00000001
 40
0.0
 40
0.0
 40
0.0
 40
0.0
 40
0.5636193784395449
 40
1.0
 40
1.0
 40
1.0
 40
1.0
 10
-26.35267376899718
 20
12.10124700000001
 30
0.0
 10
-26.15317415366397
 20
12.28414809824001
 30
0.0
 10
-25.96073399999997
 20
12.36708700000001
 30
0.0
 10
-26.02764287426637
 20
12.34370790024405
 30
0.0
 10
-25.96073399999997
 20
12.36708700000001
 30
0.0
  0
SPLINE
  5
AE
330
1F
100
AcDbEntity
  8
0
  6
Continuous
 62
     7
100
AcDbSpline
210
0.0
220
0.0
230
1.0
 70
     8
 71
     3
 72
    14
 73
    10
 74
     0
 42
0.00000001
 43
0.00000001
 40
0.0
 40
0.0
 40
0.0
 40
0.0
 40
0.039949364533315
 40
0.0985225588178967
 40
0.2475264926065
 40
0.5837078923242663
 40
0.8843304589113766
 40
0.9674920453785325
 40
1.0
 40
1.0
 40
1.0
 40
1.0
 10
-25.96072852611541
 20
12.36708700000001
 30
0.0
 10
-25.8318564819543
 20
12.38070181391292
 30
0.0
 10
-25.64204961347631
 20
12.38930826752076
 30
0.0
 10
-25.15882573968385
 20
12.40010442878918
 30
0.0
 10
-24.06831830335997
 20
12.40482139488001
 30
0.0
 10
-23.09324706496914
 20
12.39090220219145
 30
0.0
 10
-22.82375229504653
 20
12.3788837670959
 30
0.0
 10
-22.71898299999997
 20
12.36691700000002
 30
0.0
 10
-22.75387838318152
 20
12.37124503317689
 30
0.0
 10
-22.71898299999997
 20
12.36691700000002
 30
0.0
  0
SPLINE
  5
AF
330
1F
100
AcDbEntity
  8
0
  6
Continuous
 62
     7
100
AcDbSpline
210
0.0
220
0.0
230
1.0
 70
     8
 71
     3
 72
     9
 73
     5
 74
     0
 42
0.00000001
 43
0.00000001
 40
0.0
 40
0.0
 40
0.0
 40
0.0
 40
0.3316246769543721
 40
1.0
 40
1.0
 40
1.0
 40
1.0
 10
-22.71898090839385
 20
12.36691700000002
 30
0.0
 10
-22.35417503827197
 20
12.13745227808001
 30
0.0
 10
-21.83571499999998
 20
11.44054700000001
 30
0.0
 10
-21.98438543627754
 20
11.69896318199071
 30
0.0
 10
-21.83571499999998
 20
11.44054700000001
 30
0.0
  0
SPLINE
  5
B0
330
1F
100
AcDbEntity
  8
0
  6
Continuous
 62
     7
100
AcDbSpline
210
0.0
220
0.0
230
1.0
 70
     8
 71
     3
 72
    10
 73
     6
 74
     0
 42
0.00000001
 43
0.00000001
 40
0.0
 40
0.0
 40
0.0
 40
0.0
 40
0.7214990160936054
 40
0.9567518841132159
 40
1.0
 40
1.0
 40
1.0
 40
1.0
 10
-19.2366987466812
 20
10.99511700000001
 30
0.0
 10
-17.5019554082031
 20
10.98357344531251
 30
0.0
 10
-16.93671545312497
 20
10.96216856250001
 30
0.0
 10
-16.83698699999997
 20
10.93271700000001
 30
0.0
 10
-16.8701158570845
 20
10.94321987985121
 30
0.0
 10
-16.83698699999997
 20
10.93271700000001
 30
0.0
  0
SPLINE
  5
B1
330
1F
100
AcDbEntity
  8
0
  6
Continuous
 62
     7
100
AcDbSpline
210
0.0
220
0.0
230
1.0
 70
     8
 71
     3
 72
     9
 73
     5
 74
     0
 42
0.00000001
 43
0.00000001
 40
0.0
 40
0.0
 40
0.0
 40
0.0
 40
0.5674078955071985
 40
1.0
 40
1.0
 40
1.0
 40
1.0
 10
-16.83698594570159
 20
10.93271700000001
 30
0.0
 10
-16.59910357407997
 20
10.76008145440001
 30
0.0
 10
-16.46505799999997
 20
10.58050700000001
 30
0.0
 10
-16.50632843075825
 20
10.64382278918143
 30
0.0
 10
-16.46505799999997
 20
10.58050700000001
 30
0.0
  0
SPLINE
  5
B2
330
1F
100
AcDbEntity
  8
0
  6
Continuous
 62
     7
100
AcDbSpline
210
0.0
220
0.0
230
1.0
 70
     8
 71
     3
 72
     9
 73
     5
 74
     0
 42
0.00000001
 43
0.00000001
 40
0.0
 40
0.0
 40
0.0
 40
0.0
 40
0.3140648672005007
 40
1.0
 40
1.0
 40
1.0
 40
1.0
 10
-16.46505296230315
 20
10.58050700000001
 30
0.0
 10
-16.41148796991997
 20
10.37106122080001
 30
0.0
 10
-16.39999799999998
 20
9.89903700000001
 30
0.0
 10
-16.39176708372118
 20
10.05804557150655
 30
0.0
 10
-16.39999799999998
 20
9.899037000000012
 30
0.0
  0
SPLINE
  5
B3
330
1F
100
AcDbEntity
  8
0
  6
Continuous
 62
     7
100
AcDbSpline
210
0.0
220
0.0
230
1.0
 70
     8
 71
     3
 72
    11
 73
     7
 74
     0
 42
0.00000001
 43
0.00000001
 40
0.0
 40
0.0
 40
0.0
 40
0.0
 40
0.7771106414195438
 40
0.947281498615763
 40
0.985861420883436
 40
1.0
 40
1.0
 40
1.0
 40
1.0
 10
-20.1277583837509
 20
9.33001700000001
 30
0.0
 10
-23.15811891321597
 20
9.32197452192001
 30
0.0
 10
-23.82165791691646
 20
9.313956559897836
 30
0.0
 10
-23.97203967532433
 20
9.30963607431334
 30
0.0
 10
-24.02704799999998
 20
9.305917000000012
 30
0.0
 10
-24.00871657405105
 20
9.307251759247292
 30
0.0
 10
-24.02704799999998
 20
9.305917000000013
 30
0.0
  0
SPLINE
  5
B4
330
1F
100
AcDbEntity
  8
0
  6
Continuous
 62
     7
100
AcDbSpline
210
0.0
220
0.0
230
1.0
 70
     8
 71
     3
 72
     9
 73
     5
 74
     0
 42
0.00000001
 43
0.00000001
 40
0.0
 40
0.0
 40
0.0
 40
0.0
 40
0.5406066975926019
 40
1.0
 40
1.0
 40
1.0
 40
1.0
 10
-24.02703464031218
 20
9.305917000000012
 30
0.0
 10
-24.54815425817597
 20
9.074607378240012
 30
0.0
 10
-24.83442399999998
 20
8.683727000000012
 30
0.0
 10
-24.75098815808129
 20
8.828898644017498
 30
0.0
 10
-24.83442399999998
 20
8.683727000000012
 30
0.0
  0
SPLINE
  5
B5
330
1F
100
AcDbEntity
  8
0
  6
Continuous
 62
     7
100
AcDbSpline
210
0.0
220
0.0
230
1.0
 70
     8
 71
     3
 72
     9
 73
     5
 74
     0
 42
0.00000001
 43
0.00000001
 40
0.0
 40
0.0
 40
0.0
 40
0.0
 40
0.4098596100419762
 40
1.0
 40
1.0
 40
1.0
 40
1.0
 10
-24.83440935611724
 20
8.683727000000012
 30
0.0
 10
-25.18352412031997
 20
7.955294169280012
 30
0.0
 10
-25.68461999999996
 20
6.905697000000012
 30
0.0
 10
-25.51774348767363
 20
7.255637080268388
 30
0.0
 10
-25.68461999999996
 20
6.905697000000012
 30
0.0
  0
SPLINE
  5
B6
330
1F
100
AcDbEntity
  8
0
  6
Continuous
 62
     7
100
AcDbSpline
210
0.0
220
0.0
230
1.0
 70
     8
 71
     3
 72
    11
 73
     7
 74
     0
 42
0.00000001
 43
0.00000001
 40
0.0
 40
0.0
 40
0.0
 40
0.0
 40
0.752996382928865
 40
0.942144582301748
 40
0.9855298451342611
 40
1.0
 40
1.0
 40
1.0
 40
1.0
 10
-25.68461000919341
 20
6.905697000000012
 30
0.0
 10
-26.27155693183997
 20
5.678109172800011
 30
0.0
 10
-26.41978502733517
 20
5.370125656636732
 30
0.0
 10
-26.45408317010367
 20
5.299627510381952
 30
0.0
 10
-26.46579099999996
 20
5.276247000000009
 30
0.0
 10
-26.4618771689437
 20
5.284034960884043
 30
0.0
 10
-26.46579099999996
 20
5.276247000000009
 30
0.0
  0
SPLINE
  5
B7
330
1F
100
AcDbEntity
  8
0
  6
Continuous
 62
     7
100
AcDbSpline
210
0.0
220
0.0
230
1.0
 70
     8
 71
     3
 72
    14
 73
    10
 74
     0
 42
0.00000001
 43
0.00000001
 40
0.0
 40
0.0
 40
0.0
 40
0.0
 40
0.0013189586025227
 40
0.0017329916661507
 40
0.0021248897555097
 40
0.0094235897509584
 40
0.0294264545429623
 40
0.2960514533052875
 40
1.0
 40
1.0
 40
1.0
 40
1.0
 10
-26.46578848361968
 20
5.276247000000009
 30
0.0
 10
-26.4683764367065
 20
5.272873835632333
 30
0.0
 10
-26.46961836377713
 20
5.272385183784494
 30
0.0
 10
-26.47082703271481
 20
5.272752505371102
 30
0.0
 10
-26.47740593988033
 20
5.295340711853036
 30
0.0
 10
-26.48290146874997
 20
5.359583718750009
 30
0.0
 10
-26.49600262109371
 20
6.218928152343761
 30
0.0
 10
-26.49958099999997
 20
8.488047000000009
 30
0.0
 10
-26.48581573917728
 20
7.743536913970444
 30
0.0
 10
-26.49958099999997
 20
8.488047000000009
 30
0.0
  0
SPLINE
  5
B8
330
1F
100
AcDbEntity
  8
0
  6
Continuous
 62
     7
100
AcDbSpline
210
0.0
220
0.0
230
1.0
 70
     8
 71
     3
 72
    12
 73
     8
 74
     0
 42
0.00000001
 43
0.00000001
 40
0.0
 40
0.0
 40
0.0
 40
0.0
 40
0.0124908495279925
 40
0.0315770264001825
 40
0.0892576056199686
 40
0.2824950935743178
 40
1.0
 40
1.0
 40
1.0
 40
1.0
 10
-20.73459327220916
 20
-5.952582999999991
 30
0.0
 10
-20.77574837246838
 20
-5.923894767625988
 30
0.0
 10
-20.83406796558625
 20
-5.874145328393745
 30
0.0
 10
-21.00416113439854
 20
-5.716867057067181
 30
0.0
 10
-21.56081567756797
 20
-5.17605888351999
 30
0.0
 10
-23.60398899999997
 20
-3.14386299999999
 30
0.0
 10
-22.92401244682632
 20
-3.822127630532504
 30
0.0
 10
-23.60398899999997
 20
-3.14386299999999
 30
0.0
  0
SPLINE
  5
B9
330
1F
100
AcDbEntity
  8
0
  6
Continuous
 62
     7
100
AcDbSpline
210
0.0
220
0.0
230
1.0
 70
     8
 71
     3
 72
    12
 73
     8
 74
     0
 42
0.00000001
 43
0.00000001
 40
0.0
 40
0.0
 40
0.0
 40
0.0
 40
0.7574663186976468
 40
0.9449595920002096
 40
0.9869227358715558
 40
0.9964956793076738
 40
1.0
 40
1.0
 40
1.0
 40
1.0
 10
-23.60397577285766
 20
-3.143862999999991
 30
0.0
 10
-25.74850573318396
 20
-0.9872867196799914
 30
0.0
 10
-26.27459062887159
 20
-0.4488002711678682
 30
0.0
 10
-26.39049549835116
 20
-0.3265112436550937
 30
0.0
 10
-26.41615917440444
 20
-0.297896986802605
 30
0.0
 10
-26.42485199999996
 20
-0.2868329999999907
 30
0.0
 10
-26.42198567057348
 20
-0.2905471654311874
 30
0.0
 10
-26.42485199999996
 20
-0.2868329999999907
 30
0.0
  0
SPLINE
  5
BA
330
1F
100
AcDbEntity
  8
0
  6
Continuous
 62
     7
100
AcDbSpline
210
0.0
220
0.0
230
1.0
 70
     8
 71
     3
 72
     9
 73
     5
 74
     0
 42
0.00000001
 43
0.00000001
 40
0.0
 40
0.0
 40
0.0
 40
0.0
 40
0.5472678742295423
 40
1.0
 40
1.0
 40
1.0
 40
1.0
 10
-26.42484009265899
 20
-0.2868329999999902
 30
0.0
 10
-26.48575594598397
 20
0.1107474224000094
 30
0.0
 10
-26.32234499999997
 20
0.4005970000000095
 30
0.0
 10
-26.39294798075233
 20
0.3069271790471547
 30
0.0
 10
-26.32234499999997
 20
0.4005970000000095
 30
0.0
  0
SPLINE
  5
BB
330
1F
100
AcDbEntity
  8
0
  6
Continuous
 62
     7
100
AcDbSpline
210
0.0
220
0.0
230
1.0
 70
     8
 71
     3
 72
     9
 73
     5
 74
     0
 42
0.00000001
 43
0.00000001
 40
0.0
 40
0.0
 40
0.0
 40
0.0
 40
0.6119775322172735
 40
1.0
 40
1.0
 40
1.0
 40
1.0
 10
-26.32233500480651
 20
0.4005970000000095
 30
0.0
 10
-26.20307045663997
 20
0.4965327593600094
 30
0.0
 10
-26.11573799999997
 20
0.5388570000000106
 30
0.0
 10
-26.14560631230143
 20
0.5259455508015246
 30
0.0
 10
-26.11573799999997
 20
0.5388570000000106
 30
0.0
  0
SPLINE
  5
BC
330
1F
100
AcDbEntity
  8
0
  6
Continuous
 62
     7
100
AcDbSpline
210
0.0
220
0.0
230
1.0
 70
     8
 71
     3
 72
    13
 73
     9
 74
     0
 42
0.00000001
 43
0.00000001
 40
0.0
 40
0.0
 40
0.0
 40
0.0
 40
0.0042240447932227
 40
0.0104323249396638
 40
0.0284034544644704
 40
0.0849876880736377
 40
0.2784531533043899
 40
1.0
 40
1.0
 40
1.0
 40
1.0
 10
-26.11573040485381
 20
0.5388570000000106
 30
0.0
 10
-26.09227062738199
 20
0.5423835535105368
 30
0.0
 10
-26.05749859536142
 20
0.5449599865258239
 30
0.0
 10
-25.95665497372192
 20
0.5491502442265561
 30
0.0
 10
-25.63892422630221
 20
0.5553944493950057
 30
0.0
 10
-24.55239734694397
 20
0.5629981072000102
 30
0.0
 10
-20.50000099999997
 20
0.5675570000000102
 30
0.0
 10
-21.85085661114176
 20
0.5680643323525967
 30
0.0
 10
-20.50000099999997
 20
0.5675570000000102
 30
0.0
  0
SPLINE
  5
BD
330
1F
100
AcDbEntity
  8
0
  6
Continuous
 62
     7
100
AcDbSpline
210
0.0
220
0.0
230
1.0
 70
     8
 71
     3
 72
    12
 73
     8
 74
     0
 42
0.00000001
 43
0.00000001
 40
0.0
 40
0.0
 40
0.0
 40
0.0
 40
0.520899401980695
 40
0.8318813978383681
 40
0.9660705380453688
 40
0.9917382654872912
 40
1.0
 40
1.0
 40
1.0
 40
1.0
 10
-20.49998939037322
 20
0.5675570000000102
 30
0.0
 10
-17.57449469465597
 20
0.5659109136000103
 30
0.0
 10
-15.82795559724797
 20
0.5600331088000107
 30
0.0
 10
-15.07438102953742
 20
0.5502410064622699
 30
0.0
 10
-14.93034738411621
 20
0.5443011029795078
 30
0.0
 10
-14.88426799999997
 20
0.5388570000000106
 30
0.0
 10
-14.8996161297365
 20
0.5408153921204819
 30
0.0
 10
-14.88426799999997
 20
0.5388570000000106
 30
0.0
  0
SPLINE
  5
BE
330
1F
100
AcDbEntity
  8
0
  6
Continuous
 62
     7
100
AcDbSpline
210
0.0
220
0.0
230
1.0
 70
     8
 71
     3
 72
     9
 73
     5
 74
     0
 42
0.00000001
 43
0.00000001
 40
0.0
 40
0.0
 40
0.0
 40
0.0
 40
0.5117341305899291
 40
1.0
 40
1.0
 40
1.0
 40
1.0
 10
-14.88426327705382
 20
0.5388570000000106
 30
0.0
 10
-14.77104632550397
 20
0.4792366582400098
 30
0.0
 10
-14.67765899999997
 20
0.4005970000000095
 30
0.0
 10
-14.70759694590853
 20
0.4285804697173279
 30
0.0
 10
-14.67765899999997
 20
0.4005970000000095
 30
0.0
  0
SPLINE
  5
BF
330
1F
100
AcDbEntity
  8
0
  6
Continuous
 62
     7
100
AcDbSpline
210
0.0
220
0.0
230
1.0
 70
     8
 71
     3
 72
     9
 73
     5
 74
     0
 42
0.00000001
 43
0.00000001
 40
0.0
 40
0.0
 40
0.0
 40
0.0
 40
0.5657366660038882
 40
1.0
 40
1.0
 40
1.0
 40
1.0
 10
-14.67765867710112
 20
0.4005970000000095
 30
0.0
 10
-14.50129059385597
 20
0.0238324496000096
 30
0.0
 10
-14.57515399999997
 20
-0.2868329999999898
 30
0.0
 10
-14.53538831060483
 20
-0.1817247504593951
 30
0.0
 10
-14.57515399999997
 20
-0.2868329999999898
 30
0.0
  0
SPLINE
  5
C0
330
1F
100
AcDbEntity
  8
0
  6
Continuous
 62
     7
100
AcDbSpline
210
0.0
220
0.0
230
1.0
 70
     8
 71
     3
 72
    13
 73
     9
 74
     0
 42
0.00000001
 43
0.00000001
 40
0.0
 40
0.0
 40
0.0
 40
0.0
 40
0.0063767613817819
 40
0.0167015098523631
 40
0.0462177454883347
 40
0.1315832997170927
 40
0.3728785124956385
 40
1.0
 40
1.0
 40
1.0
 40
1.0
 10
-14.57515358924865
 20
-0.2868329999999898
 30
0.0
 10
-14.59143692170264
 20
-0.3065915999131558
 30
0.0
 10
-14.61939140938479
 20
-0.3372037461961574
 30
0.0
 10
-14.70087866112067
 20
-0.4232560220733256
 30
0.0
 10
-14.93947541983312
 20
-0.6693318277600971
 30
0.0
 10
-15.61919566451197
 20
-1.35971399071999
 30
0.0
 10
-17.39601599999997
 20
-3.14386299999999
 30
0.0
 10
-16.80273243942723
 20
-2.550130274345454
 30
0.0
 10
-17.39601599999997
 20
-3.14386299999999
 30
0.0
  0
SPLINE
  5
C1
330
1F
100
AcDbEntity
  8
0
  6
Continuous
 62
     7
100
AcDbSpline
210
0.0
220
0.0
230
1.0
 70
     8
 71
     3
 72
    12
 73
     8
 74
     0
 42
0.00000001
 43
0.00000001
 40
0.0
 40
0.0
 40
0.0
 40
0.0
 40
0.5180274777587232
 40
0.8274340329716339
 40
0.9626892191693545
 40
0.9899048881653696
 40
1.0
 40
1.0
 40
1.0
 40
1.0
 10
-17.39600300788878
 20
-3.14386299999999
 30
0.0
 10
-18.86958771404798
 20
-4.61264770143999
 30
0.0
 10
-19.75469924518397
 20
-5.48490480351999
 30
0.0
 10
-20.14876041480327
 20
-5.858823037413182
 30
0.0
 10
-20.23181251058108
 20
-5.929889384683522
 30
0.0
 10
-20.26541199999997
 20
-5.952582999999991
 30
0.0
 10
-20.25408745531423
 20
-5.945183299391239
 30
0.0
 10
-20.26541199999998
 20
-5.952582999999992
 30
0.0
  0
SPLINE
  5
C2
330
1F
100
AcDbEntity
  8
0
  6
Continuous
 62
     7
100
AcDbSpline
210
0.0
220
0.0
230
1.0
 70
     8
 71
     3
 72
     9
 73
     5
 74
     0
 42
0.00000001
 43
0.00000001
 40
0.0
 40
0.0
 40
0.0
 40
0.0
 40
0.5490910828494356
 40
1.0
 40
1.0
 40
1.0
 40
1.0
 10
-20.26540040969848
 20
-5.952582999999991
 30
0.0
 10
-20.39203703347197
 20
-5.98996071519999
 30
0.0
 10
-20.50000099999997
 20
-5.99998299999999
 30
0.0
 10
-20.46371458081416
 20
-5.998195768144432
 30
0.0
 10
-20.50000099999998
 20
-5.999982999999991
 30
0.0
  0
SPLINE
  5
C3
330
1F
100
AcDbEntity
  8
0
  6
Continuous
 62
     7
100
AcDbSpline
210
0.0
220
0.0
230
1.0
 70
     8
 71
     3
 72
     9
 73
     5
 74
     0
 42
0.00000001
 43
0.00000001
 40
0.0
 40
0.0
 40
0.0
 40
0.0
 40
0.5745980794458918
 40
1.0
 40
1.0
 40
1.0
 40
1.0
 10
-20.49998939037322
 20
-5.99998299999999
 30
0.0
 10
-20.63724862598397
 20
-5.98404208479999
 30
0.0
 10
-20.73459399999998
 20
-5.952582999999991
 30
0.0
 10
-20.70244857555215
 20
-5.964463068850486
 30
0.0
 10
-20.73459399999998
 20
-5.952582999999991
 30
0.0
  0
SPLINE
  5
C4
330
1F
100
AcDbEntity
  8
0
  6
Continuous
 62
     7
100
AcDbSpline
210
0.0
220
0.0
230
1.0
 70
     8
 71
     3
 72
    12
 73
     8
 74
     0
 42
0.00000001
 43
0.00000001
 40
0.0
 40
0.0
 40
0.0
 40
0.0
 40
0.0124929580369573
 40
0.0315786617567283
 40
0.0892586834489789
 40
0.2824958225731335
 40
1.0
 40
1.0
 40
1.0
 40
1.0
 10
-20.73457837104796
 20
21.45258000000001
 30
0.0
 10
-20.77574737246838
 20
21.423896727463
 30
0.0
 10
-20.83406696558625
 20
21.37414997954999
 30
0.0
 10
-21.00416013439855
 20
21.21687432224829
 30
0.0
 10
-21.56081467756797
 20
20.67606592588801
 30
0.0
 10
-23.60398799999998
 20
18.64386600000001
 30
0.0
 10
-22.92400931196383
 20
19.32212888759005
 30
0.0
 10
-23.60398799999998
 20
18.64386600000001
 30
0.0
  0
SPLINE
  5
C5
330
1F
100
AcDbEntity
  8
0
  6
Continuous
 62
     7
100
AcDbSpline
210
0.0
220
0.0
230
1.0
 70
     8
 71
     3
 72
    12
 73
     8
 74
     0
 42
0.00000001
 43
0.00000001
 40
0.0
 40
0.0
 40
0.0
 40
0.0
 40
0.7574660348942497
 40
0.9449592736639698
 40
0.986922541099486
 40
0.9964955797969121
 40
1.0
 40
1.0
 40
1.0
 40
1.0
 10
-23.60397577285766
 20
18.64386600000001
 30
0.0
 10
-25.74850473318397
 20
16.48728721536001
 30
0.0
 10
-26.27458962887159
 20
15.94880019586537
 30
0.0
 10
-26.39049449835116
 20
15.82651031608814
 30
0.0
 10
-26.41615817440444
 20
15.79789550792544
 30
0.0
 10
-26.42485099999996
 20
15.78683100000001
 30
0.0
 10
-26.42198467870093
 20
15.79054534505283
 30
0.0
 10
-26.42485099999996
 20
15.78683100000001
 30
0.0
  0
SPLINE
  5
C6
330
1F
100
AcDbEntity
  8
0
  6
Continuous
 62
     7
100
AcDbSpline
210
0.0
220
0.0
230
1.0
 70
     8
 71
     3
 72
     9
 73
     5
 74
     0
 42
0.00000001
 43
0.00000001
 40
0.0
 40
0.0
 40
0.0
 40
0.0
 40
0.547264509246987
 40
1.0
 40
1.0
 40
1.0
 40
1.0
 10
-26.42484009265899
 20
15.78683100000001
 30
0.0
 10
-26.48575494598397
 20
15.38925421088001
 30
0.0
 10
-26.32234399999997
 20
15.09940300000001
 30
0.0
 10
-26.3929470898805
 20
15.19307335645916
 30
0.0
 10
-26.32234399999997
 20
15.09940300000001
 30
0.0
  0
SPLINE
  5
C7
330
1F
100
AcDbEntity
  8
0
  6
Continuous
 62
     7
100
AcDbSpline
210
0.0
220
0.0
230
1.0
 70
     8
 71
     3
 72
     9
 73
     5
 74
     0
 42
0.00000001
 43
0.00000001
 40
0.0
 40
0.0
 40
0.0
 40
0.0
 40
0.6119889187176517
 40
1.0
 40
1.0
 40
1.0
 40
1.0
 10
-26.32233500480651
 20
15.09940300000001
 30
0.0
 10
-26.20306945663997
 20
15.00346486624001
 30
0.0
 10
-26.11573699999997
 20
14.96114800000001
 30
0.0
 10
-26.14560548355714
 20
14.97405664055485
 30
0.0
 10
-26.11573699999997
 20
14.96114800000001
 30
0.0
  0
SPLINE
  5
C8
330
1F
100
AcDbEntity
  8
0
  6
Continuous
 62
     7
100
AcDbSpline
210
0.0
220
0.0
230
1.0
 70
     8
 71
     3
 72
    13
 73
     9
 74
     0
 42
0.00000001
 43
0.00000001
 40
0.0
 40
0.0
 40
0.0
 40
0.0
 40
0.0042243709217079
 40
0.0104326924983686
 40
0.0284038420713095
 40
0.0849880554477675
 40
0.2784534322704646
 40
0.9999999999999999
 40
0.9999999999999999
 40
0.9999999999999999
 40
0.9999999999999999
 10
-26.11573040485381
 20
14.96114800000001
 30
0.0
 10
-26.09226962738198
 20
14.95761572089825
 30
0.0
 10
-26.05749759536143
 20
14.95503596141178
 30
0.0
 10
-25.95665397372192
 20
14.95084206756019
 30
0.0
 10
-25.63892322630222
 20
14.9445974875363
 30
0.0
 10
-24.55239634694397
 20
14.93700567424001
 30
0.0
 10
-20.49999999999997
 20
14.93246800000001
 30
0.0
 10
-21.85085577106496
 20
14.93195702132049
 30
0.0
 10
-20.49999999999997
 20
14.93246800000001
 30
0.0
  0
SPLINE
  5
C9
330
1F
100
AcDbEntity
  8
0
  6
Continuous
 62
     7
100
AcDbSpline
210
0.0
220
0.0
230
1.0
 70
     8
 71
     3
 72
    12
 73
     8
 74
     0
 42
0.00000001
 43
0.00000001
 40
0.0
 40
0.0
 40
0.0
 40
0.0
 40
0.5209006978212954
 40
0.8318833885941234
 40
0.9660727795606581
 40
0.991740079285285
 40
0.9999999999999999
 40
0.9999999999999999
 40
0.9999999999999999
 40
0.9999999999999999
 10
-20.49998939037322
 20
14.93246800000001
 30
0.0
 10
-17.57449386399997
 20
14.93418138496001
 30
0.0
 10
-15.82795501119997
 20
14.94015395968001
 30
0.0
 10
-15.07438040722061
 20
14.94992457907906
 30
0.0
 10
-14.9303465979847
 20
14.95579413243707
 30
0.0
 10
-14.88426699999997
 20
14.96114800000001
 30
0.0
 10
-14.89961560076517
 20
14.95922245162345
 30
0.0
 10
-14.88426699999997
 20
14.96114800000001
 30
0.0
  0
SPLINE
  5
CA
330
1F
100
AcDbEntity
  8
0
  6
Continuous
 62
     7
100
AcDbSpline
210
0.0
220
0.0
230
1.0
 70
     8
 71
     3
 72
     9
 73
     5
 74
     0
 42
0.00000001
 43
0.00000001
 40
0.0
 40
0.0
 40
0.0
 40
0.0
 40
0.5117773866876608
 40
1.0
 40
1.0
 40
1.0
 40
1.0
 10
-14.88426327705382
 20
14.96114800000001
 30
0.0
 10
-14.77104532550397
 20
15.02078402176001
 30
0.0
 10
-14.67765799999997
 20
15.09940300000001
 30
0.0
 10
-14.70759749540792
 20
15.07142867907296
 30
0.0
 10
-14.67765799999997
 20
15.09940300000001
 30
0.0
  0
SPLINE
  5
CB
330
1F
100
AcDbEntity
  8
0
  6
Continuous
 62
     7
100
AcDbSpline
210
0.0
220
0.0
230
1.0
 70
     8
 71
     3
 72
     9
 73
     5
 74
     0
 42
0.00000001
 43
0.00000001
 40
0.0
 40
0.0
 40
0.0
 40
0.0
 40
0.5657385257895909
 40
1.0
 40
1.0
 40
1.0
 40
1.0
 10
-14.67765122652053
 20
15.09940300000001
 30
0.0
 10
-14.50128959385597
 20
15.47616909152001
 30
0.0
 10
-14.57515299999997
 20
15.78683100000001
 30
0.0
 10
-14.53538780800971
 20
15.6817241209449
 30
0.0
 10
-14.57515299999997
 20
15.78683100000001
 30
0.0
  0
SPLINE
  5
CC
330
1F
100
AcDbEntity
  8
0
  6
Continuous
 62
     7
100
AcDbSpline
210
0.0
220
0.0
230
1.0
 70
     8
 71
     3
 72
    13
 73
     9
 74
     0
 42
0.00000001
 43
0.00000001
 40
0.0
 40
0.0
 40
0.0
 40
0.0
 40
0.0063766382669994
 40
0.0167006900270467
 40
0.0462160227579475
 40
0.1315808399610865
 40
0.3728765938848813
 40
1.0
 40
1.0
 40
1.0
 40
1.0
 10
-14.57514613866805
 20
15.78683100000001
 30
0.0
 10
-14.59143592170264
 20
15.80658369985545
 30
0.0
 10
-14.6193904093848
 20
15.83719215663237
 30
0.0
 10
-14.70087766112067
 20
15.92323972712894
 30
0.0
 10
-14.93947441983312
 20
16.16931225183788
 30
0.0
 10
-15.61919466451197
 20
16.85969985888001
 30
0.0
 10
-17.39601499999997
 20
18.64386600000001
 30
0.0
 10
-16.80273222464903
 20
18.05012698353055
 30
0.0
 10
-17.39601499999997
 20
18.64386600000001
 30
0.0
  0
SPLINE
  5
CD
330
1F
100
AcDbEntity
  8
0
  6
Continuous
 62
     7
100
AcDbSpline
210
0.0
220
0.0
230
1.0
 70
     8
 71
     3
 72
    12
 73
     8
 74
     0
 42
0.00000001
 43
0.00000001
 40
0.0
 40
0.0
 40
0.0
 40
0.0
 40
0.5180278631412765
 40
0.8274344418384272
 40
0.9626894152826729
 40
0.9899049711547535
 40
1.0
 40
1.0
 40
1.0
 40
1.0
 10
-17.39600300788878
 20
18.64386600000001
 30
0.0
 10
-18.86958731884797
 20
20.11264972300801
 30
0.0
 10
-19.75469898438397
 20
20.98490468006401
 30
0.0
 10
-20.14875988316039
 20
21.3588210026779
 30
0.0
 10
-20.23181174436413
 20
21.42988672174821
 30
0.0
 10
-20.26541099999997
 20
21.45258000000001
 30
0.0
 10
-20.25408653461547
 20
21.44518041108149
 30
0.0
 10
-20.26541099999997
 20
21.45258000000001
 30
0.0
  0
SPLINE
  5
CE
330
1F
100
AcDbEntity
  8
0
  6
Continuous
 62
     7
100
AcDbSpline
210
0.0
220
0.0
230
1.0
 70
     8
 71
     3
 72
     9
 73
     5
 74
     0
 42
0.00000001
 43
0.00000001
 40
0.0
 40
0.0
 40
0.0
 40
0.0
 40
0.5491010528098986
 40
0.9999999999999999
 40
0.9999999999999999
 40
0.9999999999999999
 40
0.9999999999999999
 10
-20.26540040969848
 20
21.45258000000001
 30
0.0
 10
-20.39203603347197
 20
21.48997926400001
 30
0.0
 10
-20.49999999999997
 20
21.5
 30
0.0
 10
-20.46371321101197
 20
21.49821460334461
 30
0.0
 10
-20.49999999999997
 20
21.5
 30
0.0
  0
SPLINE
  5
CF
330
1F
100
AcDbEntity
  8
0
  6
Continuous
 62
     7
100
AcDbSpline
210
0.0
220
0.0
230
1.0
 70
     8
 71
     3
 72
     9
 73
     5
 74
     0
 42
0.00000001
 43
0.00000001
 40
0.0
 40
0.0
 40
0.0
 40
0.0
 40
0.5745771465048916
 40
1.0
 40
1.0
 40
1.0
 40
1.0
 10
-20.49998939037322
 20
21.5
 30
0.0
 10
-20.63724762598397
 20
21.48406385152002
 30
0.0
 10
-20.73459299999997
 20
21.45258000000001
 30
0.0
 10
-20.70244815502784
 20
21.46447032763833
 30
0.0
 10
-20.73459299999998
 20
21.45258000000001
 30
0.0
  0
SPLINE
  5
D0
330
1F
100
AcDbEntity
  8
0
  6
Continuous
 62
     7
100
AcDbSpline
210
0.0
220
0.0
230
1.0
 70
     8
 71
     3
 72
     9
 73
     5
 74
     0
 42
0.00000001
 43
0.00000001
 40
0.0
 40
0.0
 40
0.0
 40
0.0
 40
0.5563507421832006
 40
1.0
 40
1.0
 40
1.0
 40
1.0
 10
1.00566353648902
 20
-2.238991110658515
 30
0.0
 10
0.6215948268727115
 20
-2.086750370818514
 30
0.0
 10
0.3587640441527112
 20
-1.888111110658514
 30
0.0
 10
0.4431625740721101
 20
-1.96003531951994
 30
0.0
 10
0.3587640441527112
 20
-1.888111110658514
 30
0.0
  0
SPLINE
  5
D1
330
1F
100
AcDbEntity
  8
0
  6
Continuous
 62
     7
100
AcDbSpline
210
0.0
220
0.0
230
1.0
 70
     8
 71
     3
 72
     9
 73
     5
 74
     0
 42
0.00000001
 43
0.00000001
 40
0.0
 40
0.0
 40
0.0
 40
0.0
 40
0.5572895874673693
 40
1.0
 40
1.0
 40
1.0
 40
1.0
 10
0.3587638493627414
 20
-1.888111110658514
 30
0.0
 10
-0.0050782060872889
 20
-0.8890665500185139
 30
0.0
 10
0.3470640441527109
 20
-0.1213411106585141
 30
0.0
 10
0.1823739242783892
 20
-0.3753374667356552
 30
0.0
 10
0.3470640441527109
 20
-0.1213411106585141
 30
0.0
  0
SPLINE
  5
D2
330
1F
100
AcDbEntity
  8
0
  6
Continuous
 62
     7
100
AcDbSpline
210
0.0
220
0.0
230
1.0
 70
     8
 71
     3
 72
    12
 73
     8
 74
     0
 42
0.00000001
 43
0.00000001
 40
0.0
 40
0.0
 40
0.0
 40
0.0
 40
0.7538721630825599
 40
0.9426532661996606
 40
0.9857524398441736
 40
0.9959445652041007
 40
0.9999999999999999
 40
0.9999999999999999
 40
0.9999999999999999
 40
0.9999999999999999
 10
-0.8213855326175584
 20
1.330188889341486
 30
0.0
 10
-1.837983927047289
 20
2.360696454141487
 30
0.0
 10
-2.088686343199046
 20
2.622511996375393
 30
0.0
 10
-2.14442722262227
 20
2.683681708273977
 30
0.0
 10
-2.156982737410912
 20
2.698693848715986
 30
0.0
 10
-2.161425955847289
 20
2.705088889341485
 30
0.0
 10
-2.15997090947671
 20
2.702937470294062
 30
0.0
 10
-2.161425955847289
 20
2.705088889341485
 30
0.0
  0
SPLINE
  5
D3
330
1F
100
AcDbEntity
  8
0
  6
Continuous
 62
     7
100
AcDbSpline
210
0.0
220
0.0
230
1.0
 70
     8
 71
     3
 72
    12
 73
     8
 74
     0
 42
0.00000001
 43
0.00000001
 40
0.0
 40
0.0
 40
0.0
 40
0.0
 40
0.0188102105521449
 40
0.0450437933364046
 40
0.117777519541002
 40
0.332696651860372
 40
1.0
 40
1.0
 40
1.0
 40
1.0
 10
-2.161424607038488
 20
2.705088889341485
 30
0.0
 10
-2.167605274161337
 20
2.728723038716258
 30
0.0
 10
-2.171985650228719
 20
2.762510007360134
 30
0.0
 10
-2.178782485732472
 20
2.85672495385537
 30
0.0
 10
-2.187715939847289
 20
3.135698927101486
 30
0.0
 10
-2.193825955847289
 20
4.002308889341486
 30
0.0
 10
-2.193204240601219
 20
3.71349987955267
 30
0.0
 10
-2.193825955847289
 20
4.002308889341486
 30
0.0
  0
SPLINE
  5
D4
330
1F
100
AcDbEntity
  8
0
  6
Continuous
 62
     7
100
AcDbSpline
210
0.0
220
0.0
230
1.0
 70
     8
 71
     3
 72
     9
 73
     5
 74
     0
 42
0.00000001
 43
0.00000001
 40
0.0
 40
0.0
 40
0.0
 40
0.0
 40
0.5593881329248437
 40
0.9999999999999999
 40
0.9999999999999999
 40
0.9999999999999999
 40
0.9999999999999999
 10
-2.305034548044194
 20
5.305658889341486
 30
0.0
 10
-2.664842129287289
 20
5.713706025341486
 30
0.0
 10
-2.764075955847289
 20
6.130568889341485
 30
0.0
 10
-2.7445229562966
 20
5.984604658522136
 30
0.0
 10
-2.764075955847289
 20
6.130568889341485
 30
0.0
  0
SPLINE
  5
D5
330
1F
100
AcDbEntity
  8
0
  6
Continuous
 62
     7
100
AcDbSpline
210
0.0
220
0.0
230
1.0
 70
     8
 71
     3
 72
     9
 73
     5
 74
     0
 42
0.00000001
 43
0.00000001
 40
0.0
 40
0.0
 40
0.0
 40
0.0
 40
0.5662485182549226
 40
1.0
 40
1.0
 40
1.0
 40
1.0
 10
-2.764074131846418
 20
6.130568889341485
 30
0.0
 10
-2.712539648647289
 20
6.503652116221485
 30
0.0
 10
-2.578875955847289
 20
6.759318889341486
 30
0.0
 10
-2.630239537355159
 20
6.676273944787364
 30
0.0
 10
-2.578875955847289
 20
6.759318889341486
 30
0.0
  0
SPLINE
  5
D6
330
1F
100
AcDbEntity
  8
0
  6
Continuous
 62
     7
100
AcDbSpline
210
0.0
220
0.0
230
1.0
 70
     8
 71
     3
 72
    10
 73
     6
 74
     0
 42
0.00000001
 43
0.00000001
 40
0.0
 40
0.0
 40
0.0
 40
0.0
 40
0.2591352105092699
 40
0.5053358539350282
 40
1.0
 40
1.0
 40
1.0
 40
1.0
 10
-2.578875049948682
 20
6.759318889341486
 30
0.0
 10
-2.179483924597289
 20
7.100568264341486
 30
0.0
 10
-1.689539705847289
 20
7.195738889341486
 30
0.0
 10
-0.8364659558472886
 20
6.668618889341487
 30
0.0
 10
-1.099322637800513
 20
6.914633292042925
 30
0.0
 10
-0.8364659558472887
 20
6.668618889341488
 30
0.0
  0
SPLINE
  5
D7
330
1F
100
AcDbEntity
  8
0
  6
Continuous
 62
     7
100
AcDbSpline
210
0.0
220
0.0
230
1.0
 70
     8
 71
     3
 72
     9
 73
     5
 74
     0
 42
0.00000001
 43
0.00000001
 40
0.0
 40
0.0
 40
0.0
 40
0.0
 40
0.5687354156734928
 40
1.0
 40
1.0
 40
1.0
 40
1.0
 10
-0.8364655077457323
 20
6.668618889341487
 30
0.0
 10
-0.7547791590472888
 20
5.834184814461485
 30
0.0
 10
-1.134385955847289
 20
5.324188889341486
 30
0.0
 10
-0.976112986598087
 20
5.485364974816874
 30
0.0
 10
-1.134385955847289
 20
5.324188889341487
 30
0.0
  0
SPLINE
  5
D8
330
1F
100
AcDbEntity
  8
0
  6
Continuous
 62
     7
100
AcDbSpline
210
0.0
220
0.0
230
1.0
 70
     8
 71
     3
 72
    13
 73
     9
 74
     0
 42
0.00000001
 43
0.00000001
 40
0.0
 40
0.0
 40
0.0
 40
0.0
 40
0.761860632615012
 40
0.9477385174727381
 40
0.9883045773416599
 40
0.9971308470561991
 40
0.9991831067359532
 40
0.9999999999999999
 40
0.9999999999999999
 40
0.9999999999999999
 40
0.9999999999999999
 10
-0.2804759424179688
 20
2.069238889341486
 30
0.0
 10
0.4756992659127113
 20
1.288277225341486
 30
0.0
 10
0.6618889403146672
 20
1.099398888235566
 30
0.0
 10
0.7031757338673232
 20
1.058831757629957
 30
0.0
 10
0.7124295464555515
 20
1.050289514162301
 30
0.0
 10
0.7146867605081335
 20
1.048424108991857
 30
0.0
 10
0.7156640441527116
 20
1.047788889341486
 30
0.0
 10
0.7153345991761078
 20
1.04799557326985
 30
0.0
 10
0.7156640441527116
 20
1.047788889341486
 30
0.0
  0
SPLINE
  5
D9
330
1F
100
AcDbEntity
  8
0
  6
Continuous
 62
     7
100
AcDbSpline
210
0.0
220
0.0
230
1.0
 70
     8
 71
     3
 72
    13
 73
     9
 74
     0
 42
0.00000001
 43
0.00000001
 40
0.0
 40
0.0
 40
0.0
 40
0.0
 40
0.0000180116548663
 40
0.0000376954255293
 40
0.0003242232368575
 40
0.0050449315383904
 40
0.0782950302069338
 40
1.0
 40
1.0
 40
1.0
 40
1.0
 10
0.7156636565923796
 20
1.047788889341486
 30
0.0
 10
0.7157378458966958
 20
1.047780965302495
 30
0.0
 10
0.7158115946402297
 20
1.047815743764174
 30
0.0
 10
0.7162529540648208
 20
1.048917540655268
 30
0.0
 10
0.7179976379027115
 20
1.068394565611017
 30
0.0
 10
0.7245577941527113
 20
1.371754045591486
 30
0.0
 10
0.7385640441527113
 20
5.189788889341486
 30
0.0
 10
0.7311297182904771
 20
3.93217693979622
 30
0.0
 10
0.7385640441527113
 20
5.189788889341486
 30
0.0
  0
SPLINE
  5
DA
330
1F
100
AcDbEntity
  8
0
  6
Continuous
 62
     7
100
AcDbSpline
210
0.0
220
0.0
230
1.0
 70
     8
 71
     3
 72
    10
 73
     6
 74
     0
 42
0.00000001
 43
0.00000001
 40
0.0
 40
0.0
 40
0.0
 40
0.0
 40
0.70882250980574
 40
0.8586059776600675
 40
1.0
 40
1.0
 40
1.0
 40
1.0
 10
0.3660351503640518
 20
9.608363300870922
 30
0.0
 10
-0.0281297505936685
 20
9.635634550870922
 30
0.0
 10
-0.0981678755936684
 20
9.681081894620924
 30
0.0
 10
-0.1160847505936682
 20
9.757833300870923
 30
0.0
 10
-0.1140124357577605
 20
9.72971762600185
 30
0.0
 10
-0.1160847505936682
 20
9.757833300870923
 30
0.0
  0
SPLINE
  5
DB
330
1F
100
AcDbEntity
  8
0
  6
Continuous
 62
     7
100
AcDbSpline
210
0.0
220
0.0
230
1.0
 70
     8
 71
     3
 72
    13
 73
     9
 74
     0
 42
0.00000001
 43
0.00000001
 40
0.0
 40
0.0
 40
0.0
 40
0.0
 40
0.0074595829060764
 40
0.0185152384067969
 40
0.0491299551721737
 40
0.1358531287062641
 40
0.3777153900003024
 40
1.0
 40
1.0
 40
1.0
 40
1.0
 10
-0.1160847023129358
 20
9.75783330087092
 30
0.0
 10
-0.1135701368627854
 20
9.770469889025856
 30
0.0
 10
-0.1081574812360923
 20
9.788782276033821
 30
0.0
 10
-0.0913261778260679
 20
9.83891041154406
 30
0.0
 10
-0.0400945724366334
 20
9.979666898263899
 30
0.0
 10
0.1093796001263311
 20
10.36975938599092
 30
0.0
 10
0.5069152494063314
 20
11.36836330087092
 30
0.0
 10
0.3731731866780104
 20
11.03596093081304
 30
0.0
 10
0.5069152494063314
 20
11.36836330087092
 30
0.0
  0
SPLINE
  5
DC
330
1F
100
AcDbEntity
  8
0
  6
Continuous
 62
     7
100
AcDbSpline
210
0.0
220
0.0
230
1.0
 70
     8
 71
     3
 72
    10
 73
     6
 74
     0
 42
0.00000001
 43
0.00000001
 40
0.0
 40
0.0
 40
0.0
 40
0.0
 40
0.7593260584751929
 40
0.9461560895142244
 40
0.9999999999999999
 40
0.9999999999999999
 40
0.9999999999999999
 40
0.9999999999999999
 10
0.506915152072917
 20
11.36836330087092
 30
0.0
 10
0.9906750394863312
 20
12.56382997607092
 30
0.0
 10
1.109585510270618
 20
12.85801860601647
 30
0.0
 10
1.143755249406331
 20
12.94284330087092
 30
0.0
 10
1.132369081818487
 20
12.91456689136506
 30
0.0
 10
1.143755249406331
 20
12.94284330087092
 30
0.0
  0
SPLINE
  5
DD
330
1F
100
AcDbEntity
  8
0
  6
Continuous
 62
     7
100
AcDbSpline
210
0.0
220
0.0
230
1.0
 70
     8
 71
     3
 72
     9
 73
     5
 74
     0
 42
0.00000001
 43
0.00000001
 40
0.0
 40
0.0
 40
0.0
 40
0.0
 40
0.5594063777508583
 40
1.0
 40
1.0
 40
1.0
 40
1.0
 10
1.143754459917556
 20
12.94284330087092
 30
0.0
 10
1.233903816446332
 20
12.99923171687092
 30
0.0
 10
1.314435249406331
 20
12.97624330087092
 30
0.0
 10
1.286891704639076
 20
12.98885547445449
 30
0.0
 10
1.314435249406332
 20
12.97624330087092
 30
0.0
  0
SPLINE
  5
DE
330
1F
100
AcDbEntity
  8
0
  6
Continuous
 62
     7
100
AcDbSpline
210
0.0
220
0.0
230
1.0
 70
     8
 71
     3
 72
    19
 73
    15
 74
     0
 42
0.00000001
 43
0.00000001
 40
0.0
 40
0.0
 40
0.0
 40
0.0
 40
0.0018420754865115
 40
0.004421114895903
 40
0.011429974893536
 40
0.0311856337664902
 40
0.0870346065796805
 40
0.2379030738188938
 40
0.5878877184156647
 40
0.8966251379192578
 40
0.9757629374227913
 40
0.9939595372092245
 40
0.9982751626062465
 40
1.0
 40
1.0
 40
1.0
 40
1.0
 10
1.314435154199611
 20
12.97624330087092
 30
0.0
 10
1.318025533435444
 20
12.970936284999
 30
0.0
 10
1.322311759982568
 20
12.96305562011997
 30
0.0
 10
1.33304873113909
 20
12.94116781497853
 30
0.0
 10
1.361469878124819
 20
12.8786030011869
 30
0.0
 10
1.438391955440804
 20
12.7002173219113
 30
0.0
 10
1.640299887116339
 20
12.21583647933157
 30
0.0
 10
2.099036124926331
 20
11.08819597159092
 30
0.0
 10
2.495095897039555
 20
10.08999253177782
 30
0.0
 10
2.592571683174582
 20
9.832557628302899
 30
0.0
 10
2.613214704526929
 20
9.772723853871655
 30
0.0
 10
2.617362114733539
 20
9.758296778057492
 30
0.0
 10
2.618375249406331
 20
9.75238330087092
 30
0.0
 10
2.618067946344379
 20
9.754361294796142
 30
0.0
 10
2.618375249406331
 20
9.75238330087092
 30
0.0
  0
SPLINE
  5
DF
330
1F
100
AcDbEntity
  8
0
  6
Continuous
 62
     7
100
AcDbSpline
210
0.0
220
0.0
230
1.0
 70
     8
 71
     3
 72
    10
 73
     6
 74
     0
 42
0.00000001
 43
0.00000001
 40
0.0
 40
0.0
 40
0.0
 40
0.0
 40
0.1313896045539993
 40
0.2755928042483137
 40
1.0
 40
1.0
 40
1.0
 40
1.0
 10
2.618374302983294
 20
9.752383300870921
 30
0.0
 10
2.600578843156331
 20
9.677264550870923
 30
0.0
 10
2.527978999406331
 20
9.633585800870923
 30
0.0
 10
2.10310524940633
 20
9.60831330087092
 30
0.0
 10
2.243368720621297
 20
9.596391248595806
 30
0.0
 10
2.10310524940633
 20
9.60831330087092
 30
0.0
  0
SPLINE
  5
E0
330
1F
100
AcDbEntity
  8
0
  6
Continuous
 62
     7
100
AcDbSpline
210
0.0
220
0.0
230
1.0
 70
     8
 71
     3
 72
    11
 73
     7
 74
     0
 42
0.00000001
 43
0.00000001
 40
0.0
 40
0.0
 40
0.0
 40
0.0
 40
0.1668600629940848
 40
0.2194623824404437
 40
0.2773735521677052
 40
1.0
 40
1.0
 40
1.0
 40
1.0
 10
3.551723435521136
 20
6.761018931771295
 30
0.0
 10
3.335717606423984
 20
6.763675650521295
 30
0.0
 10
3.272947450173983
 20
6.790087701302544
 30
0.0
 10
3.233343856423982
 20
6.853747681771294
 30
0.0
 10
3.201763856423983
 20
7.788748931771294
 30
0.0
 10
3.155295292347672
 20
7.471531219856455
 30
0.0
 10
3.201763856423983
 20
7.788748931771294
 30
0.0
  0
SPLINE
  5
E1
330
1F
100
AcDbEntity
  8
0
  6
Continuous
 62
     7
100
AcDbSpline
210
0.0
220
0.0
230
1.0
 70
     8
 71
     3
 72
     9
 73
     5
 74
     0
 42
0.00000001
 43
0.00000001
 40
0.0
 40
0.0
 40
0.0
 40
0.0
 40
0.4695674745435348
 40
1.0
 40
1.0
 40
1.0
 40
1.0
 10
5.238823592662822
 20
6.789228931771293
 30
0.0
 10
5.101809776423988
 20
6.767169411771294
 30
0.0
 10
4.945183856423986
 20
6.760528931771294
 30
0.0
 10
4.997556263585203
 20
6.761126517086877
 30
0.0
 10
4.945183856423986
 20
6.760528931771294
 30
0.0
  0
SPLINE
  5
E2
330
1F
100
AcDbEntity
  8
0
  6
Continuous
 62
     7
100
AcDbSpline
210
0.0
220
0.0
230
1.0
 70
     8
 71
     3
 72
     9
 73
     5
 74
     0
 42
0.00000001
 43
0.00000001
 40
0.0
 40
0.0
 40
0.0
 40
0.0
 40
0.7862840707956299
 40
1.0
 40
1.0
 40
1.0
 40
1.0
 10
4.727162420749675
 20
5.909188889341487
 30
0.0
 10
4.715932146552713
 20
5.152692827901485
 30
0.0
 10
4.682064044152712
 20
4.949858889341486
 30
0.0
 10
4.694451044446498
 20
5.017370985955254
 30
0.0
 10
4.682064044152712
 20
4.949858889341486
 30
0.0
  0
SPLINE
  5
E3
330
1F
100
AcDbEntity
  8
0
  6
Continuous
 62
     7
100
AcDbSpline
210
0.0
220
0.0
230
1.0
 70
     8
 71
     3
 72
    12
 73
     8
 74
     0
 42
0.00000001
 43
0.00000001
 40
0.0
 40
0.0
 40
0.0
 40
0.0
 40
0.0185561415166041
 40
0.0444896125454292
 40
0.116516976226941
 40
0.33027344439224
 40
1.0
 40
1.0
 40
1.0
 40
1.0
 10
4.682060331106197
 20
4.949858889341486
 30
0.0
 10
4.659931619196743
 20
4.915768638227492
 30
0.0
 10
4.62408565059771
 20
4.871707253607021
 30
0.0
 10
4.518757765103086
 20
4.754260761465471
 30
0.0
 10
4.194598738552711
 20
4.416452814461485
 30
0.0
 10
3.157224044152712
 20
3.379358889341486
 30
0.0
 10
3.5043405736796
 20
3.723608841244232
 30
0.0
 10
3.157224044152712
 20
3.379358889341486
 30
0.0
  0
SPLINE
  5
E4
330
1F
100
AcDbEntity
  8
0
  6
Continuous
 62
     7
100
AcDbSpline
210
0.0
220
0.0
230
1.0
 70
     8
 71
     3
 72
     9
 73
     5
 74
     0
 42
0.00000001
 43
0.00000001
 40
0.0
 40
0.0
 40
0.0
 40
0.0
 40
0.5540122866887214
 40
1.0
 40
1.0
 40
1.0
 40
1.0
 10
1.811233349144469
 20
0.1093388893414859
 30
0.0
 10
2.249459983352712
 20
-0.275659453058514
 30
0.0
 10
2.457324044152712
 20
-0.6967311106585139
 30
0.0
 10
2.3988077099759
 20
-0.5481125224004761
 30
0.0
 10
2.457324044152712
 20
-0.6967311106585139
 30
0.0
  0
SPLINE
  5
E5
330
1F
100
AcDbEntity
  8
0
  6
Continuous
 62
     7
100
AcDbSpline
210
0.0
220
0.0
230
1.0
 70
     8
 71
     3
 72
     9
 73
     5
 74
     0
 42
0.00000001
 43
0.00000001
 40
0.0
 40
0.0
 40
0.0
 40
0.0
 40
0.5536662123245792
 40
1.0
 40
1.0
 40
1.0
 40
1.0
 10
2.457322552800189
 20
-0.6967311106585139
 30
0.0
 10
2.229660739192713
 20
-1.776485406978514
 30
0.0
 10
1.471644044152712
 20
-2.242051110658514
 30
0.0
 10
1.767051907538814
 20
-2.116980400947469
 30
0.0
 10
1.471644044152712
 20
-2.242051110658514
 30
0.0
  0
SPLINE
  5
E6
330
1F
100
AcDbEntity
  8
0
  6
Continuous
 62
     7
100
AcDbSpline
210
0.0
220
0.0
230
1.0
 70
     8
 71
     3
 72
     9
 73
     5
 74
     0
 42
0.00000001
 43
0.00000001
 40
0.0
 40
0.0
 40
0.0
 40
0.0
 40
0.5516006735582666
 40
1.0
 40
1.0
 40
1.0
 40
1.0
 10
1.471643336117278
 20
-2.242051110658514
 30
0.0
 10
1.214520931192712
 20
-2.266288627458514
 30
0.0
 10
1.006224044152711
 20
-2.240051110658514
 30
0.0
 10
1.075602578316236
 20
-2.252230218589212
 30
0.0
 10
1.006224044152711
 20
-2.240051110658514
 30
0.0
  0
CIRCLE
  5
E7
330
1F
100
AcDbEntity
  8
0
  6
Continuous
 62
     7
370
    25
100
AcDbCircle
 10
0.0
 20
30.5
 30
0.0
 40
1.5
  0
CIRCLE
  5
FB
330
1F
100
AcDbEntity
  8
0
  6
Continuous
 62
     7
370
    25
100
AcDbCircle
 10
0.0
 20
-27.5
 30
0.0
 40
1.500000000000144
  0
LINE
  5
FD
330
1F
100
AcDbEntity
  8
0
  6
Continuous
 62
     7
370
    25
100
AcDbLine
 10
-2.75
 20
-4.0
 30
0.0
 11
5.25
 21
-4.0
 31
0.0
  0
LINE
  5
FE
330
1F
100
AcDbEntity
  8
0
  6
Continuous
 62
     7
370
    25
100
AcDbLine
 10
5.25
 20
-9.5
 30
0.0
 11
-2.75
 21
-9.5
 31
0.0
  0
LINE
  5
FF
330
1F
100
AcDbEntity
  8
0
  6
Continuous
 62
     7
370
    25
100
AcDbLine
 10
-30.5
 20
-9.5
 30
0.0
 11
-30.5
 21
-20.4
 31
0.0
  0
LINE
  5
100
330
1F
100
AcDbEntity
  8
0
  6
Continuous
 62
     7
370
    25
100
AcDbLine
 10
-39.5
 20
-9.5
 30
0.0
 11
-30.5
 21
-9.5
 31
0.0
  0
LINE
  5
101
330
1F
100
AcDbEntity
  8
0
  6
Continuous
 62
     7
370
    25
100
AcDbLine
 10
-39.5
 20
-20.4
 30
0.0
 11
-39.5
 21
-9.5
 31
0.0
  0
LINE
  5
102
330
1F
100
AcDbEntity
  8
0
  6
Continuous
 62
     7
370
    25
100
AcDbLine
 10
-30.5
 20
-20.4
 30
0.0
 11
-39.5
 21
-20.4
 31
0.0
  0
LINE
  5
103
330
1F
100
AcDbEntity
  8
0
  6
Continuous
 62
     7
370
    25
100
AcDbLine
 10
-42.5
 20
-6.0
 30
0.0
 11
-42.5
 21
6.0
 31
0.0
  0
LINE
  5
104
330
1F
100
AcDbEntity
  8
0
  6
Continuous
 62
     7
370
    25
100
AcDbLine
 10
-30.5
 20
-6.0
 30
0.0
 11
-42.5
 21
-6.0
 31
0.0
  0
LINE
  5
105
330
1F
100
AcDbEntity
  8
0
  6
Continuous
 62
     7
370
    25
100
AcDbLine
 10
-30.5
 20
6.0
 30
0.0
 11
-30.5
 21
-6.0
 31
0.0
  0
LINE
  5
106
330
1F
100
AcDbEntity
  8
0
  6
Continuous
 62
     7
370
    25
100
AcDbLine
 10
-42.5
 20
6.0
 30
0.0
 11
-30.5
 21
6.0
 31
0.0
  0
LINE
  5
107
330
1F
100
AcDbEntity
  8
0
  6
Continuous
 62
     7
370
    25
100
AcDbLine
 10
-42.5
 20
9.5
 30
0.0
 11
-42.5
 21
21.5
 31
0.0
  0
LINE
  5
108
330
1F
100
AcDbEntity
  8
0
  6
Continuous
 62
     7
370
    25
100
AcDbLine
 10
-30.5
 20
9.5
 30
0.0
 11
-42.5
 21
9.5
 31
0.0
  0
LINE
  5
109
330
1F
100
AcDbEntity
  8
0
  6
Continuous
 62
     7
370
    25
100
AcDbLine
 10
-30.5
 20
21.5
 30
0.0
 11
-30.5
 21
9.5
 31
0.0
  0
LINE
  5
10A
330
1F
100
AcDbEntity
  8
0
  6
Continuous
 62
     7
370
    25
100
AcDbLine
 10
-42.5
 20
21.5
 30
0.0
 11
-30.5
 21
21.5
 31
0.0
  0
LINE
  5
10B
330
1F
100
AcDbEntity
  8
0
  6
Continuous
 62
     7
370
    25
100
AcDbLine
 10
48.0
 20
33.5
 30
0.0
 11
48.0
 21
-33.5
 31
0.0
  0
LINE
  5
10C
330
1F
100
AcDbEntity
  8
0
  6
Continuous
 62
     7
370
    25
100
AcDbLine
 10
48.0
 20
-33.5
 30
0.0
 11
-48.0
 21
-33.5
 31
0.0
  0
LINE
  5
10D
330
1F
100
AcDbEntity
  8
0
  6
Continuous
 62
     7
370
    25
100
AcDbLine
 10
-48.0
 20
-33.5
 30
0.0
 11
-48.0
 21
33.5
 31
0.0
  0
LINE
  5
10E
330
1F
100
AcDbEntity
  8
0
  6
Continuous
 62
     7
370
    25
100
AcDbLine
 10
-48.0
 20
33.5
 30
0.0
 11
48.0
 21
33.5
 31
0.0
  0
ARC
  5
10F
330
1F
100
AcDbEntity
  8
0
  6
Continuous
 62
     7
370
    25
100
AcDbCircle
 10
5.25
 20
-6.75
 30
0.0
 40
2.750000000000003
100
AcDbArc
 50
270.0
 51
90.0
  0
ARC
  5
110
330
1F
100
AcDbEntity
  8
0
  6
Continuous
 62
     7
370
    25
100
AcDbCircle
 10
-2.75
 20
-6.75
 30
0.0
 40
2.750000000000001
100
AcDbArc
 50
90.0
 51
270.0
  0
MTEXT
  5
112
330
1F
100
AcDbEntity
  8
0
  6
Continuous
 62
     7
100
AcDbMText
 10
-48.0
 20
-34.5195663917
 30
0.0
 40
4.83362
 41
0.0
 71
     1
 72
     1
  1
Producto SOLIDWORKS Educational.
  7
SLDTEXTSTYLE0
 73
     1
 44
1.0
  0
MTEXT
  5
113
330
1F
100
AcDbEntity
  8
0
  6
Continuous
 62
     7
100
AcDbMText
 10
-48.0
 20
-41.7699963917
 30
0.0
 40
4.83362
 41
0.0
 71
     1
 72
     1
  1
Solo para uso en la enseanza.
  7
SLDTEXTSTYLE0
 73
     1
 44
1.0
  0
ENDSEC
  0
SECTION
  2
OBJECTS
  0
DICTIONARY
  5
C
330
0
100
AcDbDictionary
281
     1
  3
ACAD_GROUP
350
D
  3
ACAD_LAYOUT
350
1A
  3
ACAD_MLINESTYLE
350
17
  3
ACAD_PLOTSETTINGS
350
19
  3
ACAD_PLOTSTYLENAME
350
E
  3
ACAD_SCALELIST
350
47
  3
DWGPROPS
350
114
  0
DICTIONARY
  5
D
102
{ACAD_REACTORS
330
C
102
}
330
C
100
AcDbDictionary
281
     1
  0
DICTIONARY
  5
1A
102
{ACAD_REACTORS
330
C
102
}
330
C
100
AcDbDictionary
281
     1
  3
Layout1
350
1E
  3
Layout2
350
26
  3
Model
350
22
  0
DICTIONARY
  5
17
102
{ACAD_REACTORS
330
C
102
}
330
C
100
AcDbDictionary
281
     1
  3
Standard
350
18
  0
DICTIONARY
  5
19
102
{ACAD_REACTORS
330
C
102
}
330
C
100
AcDbDictionary
281
     1
  0
ACDBDICTIONARYWDFLT
  5
E
102
{ACAD_REACTORS
330
C
102
}
330
C
100
AcDbDictionary
281
     1
  3
Normal
350
F
100
AcDbDictionaryWithDefault
340
F
  0
DICTIONARY
  5
47
102
{ACAD_REACTORS
330
C
102
}
330
C
100
AcDbDictionary
281
     1
  3
A0
350
48
  3
A1
350
49
  3
A2
350
4A
  3
A3
350
4B
  3
A4
350
4C
  3
A5
350
4D
  3
A6
350
4E
  3
A7
350
4F
  3
A8
350
50
  3
A9
350
51
  3
B0
350
52
  3
B1
350
53
  3
B2
350
54
  3
B3
350
55
  3
B4
350
56
  3
B5
350
57
  3
B6
350
58
  0
XRECORD
  5
114
102
{ACAD_REACTORS
330
C
102
}
330
C
100
AcDbXrecord
280
     1
  1
DWGPROPS COOKIE
  2

  3

  4

  6

  7

  8
maxpr
  9

300
=
301
=
302
=
303
=
304
=
305
=
306
=
307
=
308
=
309
=
 40
0.0
 41
2460140.667945162
 42
2460140.667971273
  1

 90
        0
  0
LAYOUT
  5
1E
102
{ACAD_REACTORS
330
1A
102
}
330
1A
100
AcDbPlotSettings
  1

  2
none_device
  4

  6

 40
0.0
 41
0.0
 42
0.0
 43
0.0
 44
0.0
 45
0.0
 46
0.0
 47
0.0
 48
0.0
 49
0.0
140
0.0
141
0.0
142
1.0
143
1.0
 70
   688
 72
     1
 73
     0
 74
     5
  7

 75
    16
147
1.0
148
0.0
149
0.0
100
AcDbLayout
  1
Layout1
 70
     1
 71
     1
 10
0.0
 20
0.0
 11
420.0
 21
297.0
 12
0.0
 22
0.0
 32
0.0
 14
1.0000000000E+20
 24
1.0000000000E+20
 34
1.0000000000E+20
 15
-1.0000000000E+20
 25
-1.0000000000E+20
 35
-1.0000000000E+20
146
0.0
 13
0.0
 23
0.0
 33
0.0
 16
1.0
 26
0.0
 36
0.0
 17
0.0
 27
1.0
 37
0.0
 76
     0
330
1B
  0
LAYOUT
  5
26
102
{ACAD_REACTORS
330
1A
102
}
330
1A
100
AcDbPlotSettings
  1

  2
none_device
  4

  6

 40
0.0
 41
0.0
 42
0.0
 43
0.0
 44
0.0
 45
0.0
 46
0.0
 47
0.0
 48
0.0
 49
0.0
140
0.0
141
0.0
142
1.0
143
1.0
 70
   688
 72
     1
 73
     0
 74
     5
  7

 75
    16
147
1.0
148
0.0
149
0.0
100
AcDbLayout
  1
Layout2
 70
     1
 71
     2
 10
0.0
 20
0.0
 11
0.0
 21
0.0
 12
0.0
 22
0.0
 32
0.0
 14
0.0
 24
0.0
 34
0.0
 15
0.0
 25
0.0
 35
0.0
146
0.0
 13
0.0
 23
0.0
 33
0.0
 16
1.0
 26
0.0
 36
0.0
 17
0.0
 27
1.0
 37
0.0
 76
     0
330
23
  0
LAYOUT
  5
22
102
{ACAD_REACTORS
330
1A
102
}
330
1A
100
AcDbPlotSettings
  1

  2
none_device
  4
ANSI_A_(11.00_x_8.50_Inches)
  6

 40
6.35
 41
19.05
 42
6.35000508
 43
19.05000254
 44
279.4
 45
215.9
 46
133.34999746
 47
88.89999873
 48
0.0
 49
0.0
140
0.0
141
0.0
142
0.1134375
143
1.0
 70
  1696
 72
     0
 73
     0
 74
     0
  7

 75
     0
147
0.0179189148
148
-1300.4909072572
149
0.0
100
AcDbLayout
  1
Model
 70
     1
 71
     0
 10
0.0
 20
0.0
 11
420.0
 21
297.0
 12
0.0
 22
0.0
 32
0.0
 14
-48.0
 24
-33.5
 34
0.0
 15
48.0
 25
33.5
 35
0.0
146
0.0
 13
0.0
 23
0.0
 33
0.0
 16
1.0
 26
0.0
 36
0.0
 17
0.0
 27
1.0
 37
0.0
 76
     0
330
1F
331
29
  0
MLINESTYLE
  5
18
102
{ACAD_REACTORS
330
17
102
}
330
17
100
AcDbMlineStyle
  2
Standard
 70
     0
  3

 62
   256
 51
90.0
 52
90.0
 71
     2
 49
0.5
 62
   256
  6
BYLAYER
 49
-0.5
 62
   256
  6
BYLAYER
  0
ACDBPLACEHOLDER
  5
F
102
{ACAD_REACTORS
330
E
102
}
330
E
  0
SCALE
  5
48
102
{ACAD_REACTORS
330
47
102
}
330
47
100
AcDbScale
 70
     0
300
1:1
140
1.0
141
1.0
290
     1
  0
SCALE
  5
49
102
{ACAD_REACTORS
330
47
102
}
330
47
100
AcDbScale
 70
     0
300
1:2
140
1.0
141
2.0
290
     0
  0
SCALE
  5
4A
102
{ACAD_REACTORS
330
47
102
}
330
47
100
AcDbScale
 70
     0
300
1:4
140
1.0
141
4.0
290
     0
  0
SCALE
  5
4B
102
{ACAD_REACTORS
330
47
102
}
330
47
100
AcDbScale
 70
     0
300
1:5
140
1.0
141
5.0
290
     0
  0
SCALE
  5
4C
102
{ACAD_REACTORS
330
47
102
}
330
47
100
AcDbScale
 70
     0
300
1:8
140
1.0
141
8.0
290
     0
  0
SCALE
  5
4D
102
{ACAD_REACTORS
330
47
102
}
330
47
100
AcDbScale
 70
     0
300
1:10
140
1.0
141
10.0
290
     0
  0
SCALE
  5
4E
102
{ACAD_REACTORS
330
47
102
}
330
47
100
AcDbScale
 70
     0
300
1:16
140
1.0
141
16.0
290
     0
  0
SCALE
  5
4F
102
{ACAD_REACTORS
330
47
102
}
330
47
100
AcDbScale
 70
     0
300
1:20
140
1.0
141
20.0
290
     0
  0
SCALE
  5
50
102
{ACAD_REACTORS
330
47
102
}
330
47
100
AcDbScale
 70
     0
300
1:30
140
1.0
141
30.0
290
     0
  0
SCALE
  5
51
102
{ACAD_REACTORS
330
47
102
}
330
47
100
AcDbScale
 70
     0
300
1:40
140
1.0
141
40.0
290
     0
  0
SCALE
  5
52
102
{ACAD_REACTORS
330
47
102
}
330
47
100
AcDbScale
 70
     0
300
1:50
140
1.0
141
50.0
290
     0
  0
SCALE
  5
53
102
{ACAD_REACTORS
330
47
102
}
330
47
100
AcDbScale
 70
     0
300
1:100
140
1.0
141
100.0
290
     0
  0
SCALE
  5
54
102
{ACAD_REACTORS
330
47
102
}
330
47
100
AcDbScale
 70
     0
300
2:1
140
2.0
141
1.0
290
     0
  0
SCALE
  5
55
102
{ACAD_REACTORS
330
47
102
}
330
47
100
AcDbScale
 70
     0
300
4:1
140
4.0
141
1.0
290
     0
  0
SCALE
  5
56
102
{ACAD_REACTORS
330
47
102
}
330
47
100
AcDbScale
 70
     0
300
8:1
140
8.0
141
1.0
290
     0
  0
SCALE
  5
57
102
{ACAD_REACTORS
330
47
102
}
330
47
100
AcDbScale
 70
     0
300
10:1
140
10.0
141
1.0
290
     0
  0
SCALE
  5
58
102
{ACAD_REACTORS
330
47
102
}
330
47
100
AcDbScale
 70
     0
300
100:1
140
100.0
141
1.0
290
     0
  0
ENDSEC
  0
EOF
