  0
SECTION
  2
HEADER
  9
$ACADVER
  1
AC1015
  9
$ACADMAINTVER
 70
     6
  9
$DWGCODEPAGE
  3
ANSI_1252
  9
$INSBASE
 10
0.0
 20
0.0
 30
0.0
  9
$EXTMIN
 10
-48.0
 20
-33.5
 30
0.0
  9
$EXTMAX
 10
48.0
 20
33.5
 30
0.0
  9
$LIMMIN
 10
0.0
 20
0.0
  9
$LIMMAX
 10
420.0
 20
297.0
  9
$ORTHOMODE
 70
     0
  9
$REGENMODE
 70
     1
  9
$FILLMODE
 70
     1
  9
$QTEXTMODE
 70
     0
  9
$MIRRTEXT
 70
     1
  9
$LTSCALE
 40
1.0
  9
$ATTMODE
 70
     1
  9
$TEXTSIZE
 40
3.5
  9
$TRACEWID
 40
1.0
  9
$TEXTSTYLE
  7
Standard
  9
$CLAYER
  8
0
  9
$CELTYPE
  6
ByLayer
  9
$CECOLOR
 62
   256
  9
$CELTSCALE
 40
1.0
  9
$DISPSILH
 70
     0
  9
$DIMSCALE
 40
1.0
  9
$DIMASZ
 40
3.302
  9
$DIMEXO
 40
0.0
  9
$DIMDLI
 40
3.75
  9
$DIMRND
 40
0.0
  9
$DIMDLE
 40
0.0
  9
$DIMEXE
 40
1.0
  9
$DIMTP
 40
0.0
  9
$DIMTM
 40
0.0
  9
$DIMTXT
 40
3.5
  9
$DIMCEN
 40
2.5
  9
$DIMTSZ
 40
0.0
  9
$DIMTOL
 70
     0
  9
$DIMLIM
 70
     0
  9
$DIMTIH
 70
     1
  9
$DIMTOH
 70
     1
  9
$DIMSE1
 70
     0
  9
$DIMSE2
 70
     0
  9
$DIMTAD
 70
     1
  9
$DIMZIN
 70
     1
  9
$DIMBLK
  1

  9
$DIMASO
 70
     1
  9
$DIMSHO
 70
     1
  9
$DIMPOST
  1

  9
$DIMAPOST
  1

  9
$DIMALT
 70
     0
  9
$DIMALTD
 70
     3
  9
$DIMALTF
 40
0.0393700787
  9
$DIMLFAC
 40
1.0
  9
$DIMTOFL
 70
     1
  9
$DIMTVP
 40
0.0
  9
$DIMTIX
 70
     0
  9
$DIMSOXD
 70
     0
  9
$DIMSAH
 70
     0
  9
$DIMBLK1
  1

  9
$DIMBLK2
  1

  9
$DIMSTYLE
  2
ISO-25
  9
$DIMCLRD
 70
     0
  9
$DIMCLRE
 70
     0
  9
$DIMCLRT
 70
     0
  9
$DIMTFAC
 40
1.0
  9
$DIMGAP
 40
1.524
  9
$DIMJUST
 70
     0
  9
$DIMSD1
 70
     0
  9
$DIMSD2
 70
     0
  9
$DIMTOLJ
 70
     0
  9
$DIMTZIN
 70
     1
  9
$DIMALTZ
 70
     0
  9
$DIMALTTZ
 70
     0
  9
$DIMUPT
 70
     0
  9
$DIMDEC
 70
     2
  9
$DIMTDEC
 70
     2
  9
$DIMALTU
 70
     2
  9
$DIMALTTD
 70
     3
  9
$DIMTXSTY
  7
Standard
  9
$DIMAUNIT
 70
     0
  9
$DIMADEC
 70
     2
  9
$DIMALTRND
 40
0.0
  9
$DIMAZIN
 70
     0
  9
$DIMDSEP
 70
    44
  9
$DIMATFIT
 70
     3
  9
$DIMFRAC
 70
     0
  9
$DIMLDRBLK
  1

  9
$DIMLUNIT
 70
     2
  9
$DIMLWD
 70
    -2
  9
$DIMLWE
 70
    -2
  9
$DIMTMOVE
 70
     0
  9
$LUNITS
 70
     2
  9
$LUPREC
 70
     6
  9
$SKETCHINC
 40
1.0
  9
$FILLETRAD
 40
0.0
  9
$AUNITS
 70
     0
  9
$AUPREC
 70
     2
  9
$MENU
  1
.
  9
$ELEVATION
 40
0.0
  9
$PELEVATION
 40
0.0
  9
$THICKNESS
 40
0.0
  9
$LIMCHECK
 70
     0
  9
$CHAMFERA
 40
0.0
  9
$CHAMFERB
 40
0.0
  9
$CHAMFERC
 40
0.0
  9
$CHAMFERD
 40
0.0
  9
$SKPOLY
 70
     0
  9
$TDCREATE
 40
2460146.679255753
  9
$TDUCREATE
 40
2460146.929255753
  9
$TDUPDATE
 40
2460146.679305996
  9
$TDUUPDATE
 40
2460146.929305996
  9
$TDINDWG
 40
0.0000000116
  9
$TDUSRTIMER
 40
0.0000000116
  9
$USRTIMER
 70
     1
  9
$ANGBASE
 50
0.0
  9
$ANGDIR
 70
     0
  9
$PDMODE
 70
     0
  9
$PDSIZE
 40
-1.0
  9
$PLINEWID
 40
0.0
  9
$SPLFRAME
 70
     0
  9
$SPLINETYPE
 70
     6
  9
$SPLINESEGS
 70
     8
  9
$HANDSEED
  5
19B
  9
$SURFTAB1
 70
     6
  9
$SURFTAB2
 70
     6
  9
$SURFTYPE
 70
     6
  9
$SURFU
 70
     6
  9
$SURFV
 70
     6
  9
$UCSBASE
  2

  9
$UCSNAME
  2

  9
$UCSORG
 10
0.0
 20
0.0
 30
0.0
  9
$UCSXDIR
 10
1.0
 20
0.0
 30
0.0
  9
$UCSYDIR
 10
0.0
 20
1.0
 30
0.0
  9
$UCSORTHOREF
  2

  9
$UCSORTHOVIEW
 70
     0
  9
$UCSORGTOP
 10
0.0
 20
0.0
 30
0.0
  9
$UCSORGBOTTOM
 10
0.0
 20
0.0
 30
0.0
  9
$UCSORGLEFT
 10
0.0
 20
0.0
 30
0.0
  9
$UCSORGRIGHT
 10
0.0
 20
0.0
 30
0.0
  9
$UCSORGFRONT
 10
0.0
 20
0.0
 30
0.0
  9
$UCSORGBACK
 10
0.0
 20
0.0
 30
0.0
  9
$PUCSBASE
  2

  9
$PUCSNAME
  2

  9
$PUCSORG
 10
0.0
 20
0.0
 30
0.0
  9
$PUCSXDIR
 10
1.0
 20
0.0
 30
0.0
  9
$PUCSYDIR
 10
0.0
 20
1.0
 30
0.0
  9
$PUCSORTHOREF
  2

  9
$PUCSORTHOVIEW
 70
     0
  9
$PUCSORGTOP
 10
0.0
 20
0.0
 30
0.0
  9
$PUCSORGBOTTOM
 10
0.0
 20
0.0
 30
0.0
  9
$PUCSORGLEFT
 10
0.0
 20
0.0
 30
0.0
  9
$PUCSORGRIGHT
 10
0.0
 20
0.0
 30
0.0
  9
$PUCSORGFRONT
 10
0.0
 20
0.0
 30
0.0
  9
$PUCSORGBACK
 10
0.0
 20
0.0
 30
0.0
  9
$USERI1
 70
     0
  9
$USERI2
 70
     0
  9
$USERI3
 70
     0
  9
$USERI4
 70
     0
  9
$USERI5
 70
     0
  9
$USERR1
 40
0.0
  9
$USERR2
 40
0.0
  9
$USERR3
 40
0.0
  9
$USERR4
 40
0.0
  9
$USERR5
 40
0.0
  9
$WORLDVIEW
 70
     1
  9
$SHADEDGE
 70
     3
  9
$SHADEDIF
 70
    70
  9
$TILEMODE
 70
     1
  9
$MAXACTVP
 70
    64
  9
$PINSBASE
 10
0.0
 20
0.0
 30
0.0
  9
$PLIMCHECK
 70
     0
  9
$PEXTMIN
 10
1.0000000000E+20
 20
1.0000000000E+20
 30
1.0000000000E+20
  9
$PEXTMAX
 10
-1.0000000000E+20
 20
-1.0000000000E+20
 30
-1.0000000000E+20
  9
$PLIMMIN
 10
0.0
 20
0.0
  9
$PLIMMAX
 10
420.0
 20
297.0
  9
$UNITMODE
 70
     0
  9
$VISRETAIN
 70
     1
  9
$PLINEGEN
 70
     0
  9
$PSLTSCALE
 70
     1
  9
$TREEDEPTH
 70
  3020
  9
$CMLSTYLE
  2
Standard
  9
$CMLJUST
 70
     0
  9
$CMLSCALE
 40
20.0
  9
$PROXYGRAPHICS
 70
     1
  9
$MEASUREMENT
 70
     1
  9
$CELWEIGHT
370
    -1
  9
$ENDCAPS
280
     0
  9
$JOINSTYLE
280
     0
  9
$LWDISPLAY
290
     1
  9
$INSUNITS
 70
     4
  9
$HYPERLINKBASE
  1

  9
$STYLESHEET
  1

  9
$XEDIT
290
     1
  9
$CEPSNTYPE
380
     0
  9
$PSTYLEMODE
290
     1
  9
$FINGERPRINTGUID
  2
{673c4614-c0a7-487b-bce8-884d9f14a478}
  9
$VERSIONGUID
  2
{FAEB1C32-E019-11D5-929B-00C0DF256EC4}
  9
$EXTNAMES
290
     1
  9
$PSVPSCALE
 40
0.0
  9
$OLESTARTUP
290
     0
  0
ENDSEC
  0
SECTION
  2
CLASSES
  0
CLASS
  1
ACDBDICTIONARYWDFLT
  2
AcDbDictionaryWithDefault
  3
ObjectDBX Classes
 90
        0
280
     0
281
     0
  0
CLASS
  1
VISUALSTYLE
  2
AcDbVisualStyle
  3
ObjectDBX Classes
 90
     4095
280
     0
281
     0
  0
CLASS
  1
MATERIAL
  2
AcDbMaterial
  3
ObjectDBX Classes
 90
     1153
280
     0
281
     0
  0
CLASS
  1
SCALE
  2
AcDbScale
  3
ObjectDBX Classes
 90
     1153
280
     0
281
     0
  0
CLASS
  1
TABLESTYLE
  2
AcDbTableStyle
  3
ObjectDBX Classes
 90
     4095
280
     0
281
     0
  0
CLASS
  1
MLEADERSTYLE
  2
AcDbMLeaderStyle
  3
ACDB_MLEADERSTYLE_CLASS
 90
     4095
280
     0
281
     0
  0
CLASS
  1
SUN
  2
AcDbSun
  3
SCENEOE
 90
     1153
280
     0
281
     0
  0
CLASS
  1
ACDBPLACEHOLDER
  2
AcDbPlaceHolder
  3
ObjectDBX Classes
 90
        0
280
     0
281
     0
  0
CLASS
  1
LAYOUT
  2
AcDbLayout
  3
ObjectDBX Classes
 90
        0
280
     0
281
     0
  0
ENDSEC
  0
SECTION
  2
TABLES
  0
TABLE
  2
VPORT
  5
8
330
0
100
AcDbSymbolTable
 70
     1
  0
VPORT
  5
29
330
8
100
AcDbSymbolTableRecord
100
AcDbViewportTableRecord
  2
*Active
 70
     0
 10
0.0
 20
0.0
 11
1.0
 21
1.0
 12
0.0
 22
0.0
 13
0.0
 23
0.0
 14
10.0
 24
10.0
 15
10.0
 25
10.0
 16
0.0
 26
0.0
 36
1.0
 17
0.0
 27
0.0
 37
0.0
 40
68.34
 41
1.4328358209
 42
50.0
 43
0.0
 44
0.0
 50
0.0
 51
0.0
 71
     0
 72
   100
 73
     1
 74
     3
 75
     0
 76
     0
 77
     0
 78
     0
281
     0
 65
     1
110
0.0
120
0.0
130
0.0
111
1.0
121
0.0
131
0.0
112
0.0
122
1.0
132
0.0
 79
     0
146
0.0
  0
ENDTAB
  0
TABLE
  2
LTYPE
  5
5
330
0
100
AcDbSymbolTable
 70
     6
  0
LTYPE
  5
14
330
5
100
AcDbSymbolTableRecord
100
AcDbLinetypeTableRecord
  2
ByBlock
 70
     0
  3

 72
    65
 73
     0
 40
0.0
  0
LTYPE
  5
15
330
5
100
AcDbSymbolTableRecord
100
AcDbLinetypeTableRecord
  2
ByLayer
 70
     0
  3

 72
    65
 73
     0
 40
0.0
  0
LTYPE
  5
16
330
5
100
AcDbSymbolTableRecord
100
AcDbLinetypeTableRecord
  2
Continuous
 70
     0
  3
Solid line
 72
    65
 73
     0
 40
0.0
  0
LTYPE
  5
5E
330
5
100
AcDbSymbolTableRecord
100
AcDbLinetypeTableRecord
  2
HIDDEN
 70
     0
  3
Hidden __ __ __ __ __ __ __ __ __ __ __ __ __ __
 72
    65
 73
     2
 40
1.905
 49
1.27
 74
     0
 49
-0.635
 74
     0
  0
LTYPE
  5
5F
330
5
100
AcDbSymbolTableRecord
100
AcDbLinetypeTableRecord
  2
PHANTOM
 70
     0
  3
Phantom ______  __  __  ______  __  __  ______
 72
    65
 73
     6
 40
12.7
 49
6.35
 74
     0
 49
-1.27
 74
     0
 49
1.27
 74
     0
 49
-1.27
 74
     0
 49
1.27
 74
     0
 49
-1.27
 74
     0
  0
LTYPE
  5
60
330
5
100
AcDbSymbolTableRecord
100
AcDbLinetypeTableRecord
  2
CENTER
 70
     0
  3
Center ____ _ ____ _ ____ _ ____ _ ____ _ ____
 72
    65
 73
     4
 40
10.16
 49
6.35
 74
     0
 49
-1.27
 74
     0
 49
1.27
 74
     0
 49
-1.27
 74
     0
  0
LTYPE
  5
61
330
5
100
AcDbSymbolTableRecord
100
AcDbLinetypeTableRecord
  2
CENTERX2
 70
     0
  3
Center (2x) ________  __  ________  __  _____
 72
    65
 73
     4
 40
20.32
 49
12.7
 74
     0
 49
-2.54
 74
     0
 49
2.54
 74
     0
 49
-2.54
 74
     0
  0
LTYPE
  5
62
330
5
100
AcDbSymbolTableRecord
100
AcDbLinetypeTableRecord
  2
DOT2
 70
     0
  3
Dot (.5x) ........................................
 72
    65
 73
     2
 40
0.635
 49
0.0
 74
     0
 49
-0.635
 74
     0
  0
ENDTAB
  0
TABLE
  2
LAYER
  5
2
330
0
100
AcDbSymbolTable
 70
     1
  0
LAYER
  5
10
330
2
100
AcDbSymbolTableRecord
100
AcDbLayerTableRecord
  2
0
 70
     0
 62
     7
  6
Continuous
370
    -3
390
F
  0
ENDTAB
  0
TABLE
  2
STYLE
  5
3
330
0
100
AcDbSymbolTable
 70
     2
  0
STYLE
  5
11
330
3
100
AcDbSymbolTableRecord
100
AcDbTextStyleTableRecord
  2
Standard
 70
     0
 40
0.0
 41
1.0
 50
0.0
 71
     0
 42
3.5
  3
txt
  4

  0
STYLE
  5
197
330
3
100
AcDbSymbolTableRecord
100
AcDbTextStyleTableRecord
  2
SLDTEXTSTYLE0
 70
     0
 40
0.0
 41
0.7
 50
0.0
 71
     0
 42
3.5
  3
TXT
  4

  0
ENDTAB
  0
TABLE
  2
VIEW
  5
6
330
0
100
AcDbSymbolTable
 70
     0
  0
ENDTAB
  0
TABLE
  2
UCS
  5
7
330
0
100
AcDbSymbolTable
 70
     0
  0
ENDTAB
  0
TABLE
  2
APPID
  5
9
330
0
100
AcDbSymbolTable
 70
     1
  0
APPID
  5
12
330
9
100
AcDbSymbolTableRecord
100
AcDbRegAppTableRecord
  2
ACAD
 70
     0
  0
ENDTAB
  0
TABLE
  2
DIMSTYLE
  5
A
330
0
100
AcDbSymbolTable
 70
     1
100
AcDbDimStyleTable
  0
DIMSTYLE
105
27
330
A
100
AcDbSymbolTableRecord
100
AcDbDimStyleTableRecord
  2
ISO-25
 70
     0
 41
2.5
 42
0.625
 43
3.75
 44
1.25
 73
     0
 74
     0
 77
     1
 78
     8
140
2.5
141
2.5
143
0.0393700787
147
0.625
171
     3
172
     1
178
     0
271
     2
272
     2
274
     3
278
    44
283
     0
284
     8
340
11
  0
ENDTAB
  0
TABLE
  2
BLOCK_RECORD
  5
1
330
0
100
AcDbSymbolTable
 70
     1
  0
BLOCK_RECORD
  5
1F
330
1
100
AcDbSymbolTableRecord
100
AcDbBlockTableRecord
  2
*Model_Space
340
22
  0
BLOCK_RECORD
  5
1B
330
1
100
AcDbSymbolTableRecord
100
AcDbBlockTableRecord
  2
*Paper_Space
340
1E
  0
BLOCK_RECORD
  5
23
330
1
100
AcDbSymbolTableRecord
100
AcDbBlockTableRecord
  2
*Paper_Space0
340
26
  0
ENDTAB
  0
ENDSEC
  0
SECTION
  2
BLOCKS
  0
BLOCK
  5
20
330
1F
100
AcDbEntity
  8
0
100
AcDbBlockBegin
  2
*Model_Space
 70
     0
 10
0.0
 20
0.0
 30
0.0
  3
*Model_Space
  1

  0
ENDBLK
  5
21
330
1F
100
AcDbEntity
  8
0
100
AcDbBlockEnd
  0
BLOCK
  5
1C
330
1B
100
AcDbEntity
 67
     1
  8
0
100
AcDbBlockBegin
  2
*Paper_Space
 70
     0
 10
0.0
 20
0.0
 30
0.0
  3
*Paper_Space
  1

  0
ENDBLK
  5
1D
330
1B
100
AcDbEntity
 67
     1
  8
0
100
AcDbBlockEnd
  0
BLOCK
  5
24
330
23
100
AcDbEntity
  8
0
100
AcDbBlockBegin
  2
*Paper_Space0
 70
     0
 10
0.0
 20
0.0
 30
0.0
  3
*Paper_Space0
  1

  0
ENDBLK
  5
25
330
23
100
AcDbEntity
  8
0
100
AcDbBlockEnd
  0
ENDSEC
  0
SECTION
  2
ENTITIES
  0
LINE
  5
63
330
1F
100
AcDbEntity
  8
0
  6
Continuous
 62
     7
100
AcDbLine
 10
-5.553424
 20
7.413784
 30
0.0
 11
-7.380867
 21
8.928652
 31
0.0
  0
LINE
  5
64
330
1F
100
AcDbEntity
  8
0
  6
Continuous
 62
     7
100
AcDbLine
 10
-7.380867
 20
8.928652
 30
0.0
 11
-8.449597
 21
8.929285
 31
0.0
  0
LINE
  5
65
330
1F
100
AcDbEntity
  8
0
  6
Continuous
 62
     7
100
AcDbLine
 10
-8.459369
 20
13.030132
 30
0.0
 11
-7.370857
 21
13.038532
 31
0.0
  0
LINE
  5
66
330
1F
100
AcDbEntity
  8
0
  6
Continuous
 62
     7
100
AcDbLine
 10
-7.370857
 20
13.038532
 30
0.0
 11
-5.489314
 21
14.596963
 31
0.0
  0
LINE
  5
67
330
1F
100
AcDbEntity
  8
0
  6
Continuous
 62
     7
100
AcDbLine
 10
-12.2452125
 20
-0.22074625
 30
0.0
 11
-11.90449125
 21
0.21027
 31
0.0
  0
LINE
  5
68
330
1F
100
AcDbEntity
  8
0
  6
Continuous
 62
     7
100
AcDbLine
 10
-11.90449125
 20
0.21027
 30
0.0
 11
-10.565245
 21
-1.12897375
 31
0.0
  0
LINE
  5
69
330
1F
100
AcDbEntity
  8
0
  6
Continuous
 62
     7
100
AcDbLine
 10
-10.565245
 20
-1.12897375
 30
0.0
 11
-9.22600125
 21
-2.46821875
 31
0.0
  0
LINE
  5
6A
330
1F
100
AcDbEntity
  8
0
  6
Continuous
 62
     7
100
AcDbLine
 10
-9.22600125
 20
-2.46821875
 30
0.0
 11
-9.57228125
 21
-2.94980375
 31
0.0
  0
LINE
  5
6B
330
1F
100
AcDbEntity
  8
0
  6
Continuous
 62
     7
100
AcDbLine
 10
-11.16492375
 20
-7.1253725
 30
0.0
 11
-11.19294875
 21
-7.3082475
 31
0.0
  0
LINE
  5
6C
330
1F
100
AcDbEntity
  8
0
  6
Continuous
 62
     7
100
AcDbLine
 10
-11.19294875
 20
-7.3082475
 30
0.0
 11
-13.09647875
 21
-7.3082475
 31
0.0
  0
LINE
  5
6D
330
1F
100
AcDbEntity
  8
0
  6
Continuous
 62
     7
100
AcDbLine
 10
-13.09647875
 20
-7.3082475
 30
0.0
 11
-15.00000125
 21
-7.3082475
 31
0.0
  0
LINE
  5
6E
330
1F
100
AcDbEntity
  8
0
  6
Continuous
 62
     7
100
AcDbLine
 10
-15.00000125
 20
-7.3082475
 30
0.0
 11
-14.96775875
 21
-6.97907375
 31
0.0
  0
LINE
  5
6F
330
1F
100
AcDbEntity
  8
0
  6
Continuous
 62
     7
100
AcDbLine
 10
-9.52465375
 20
-0.0724375
 30
0.0
 11
-10.85368
 21
1.25724875
 31
0.0
  0
LINE
  5
70
330
1F
100
AcDbEntity
  8
0
  6
Continuous
 62
     7
100
AcDbLine
 10
-10.85368
 20
1.25724875
 30
0.0
 11
-10.667555
 21
1.42485125
 31
0.0
  0
LINE
  5
71
330
1F
100
AcDbEntity
  8
0
  6
Continuous
 62
     7
100
AcDbLine
 10
-3.52017125
 20
4.46955125
 30
0.0
 11
-3.2397675
 21
4.50000125
 31
0.0
  0
LINE
  5
72
330
1F
100
AcDbEntity
  8
0
  6
Continuous
 62
     7
100
AcDbLine
 10
-3.2397675
 20
4.50000125
 30
0.0
 11
-3.2397675
 21
2.57025875
 31
0.0
  0
LINE
  5
73
330
1F
100
AcDbEntity
  8
0
  6
Continuous
 62
     7
100
AcDbLine
 10
-3.2397675
 20
2.57025875
 30
0.0
 11
-3.2397675
 21
0.64051375
 31
0.0
  0
LINE
  5
74
330
1F
100
AcDbEntity
  8
0
  6
Continuous
 62
     7
100
AcDbLine
 10
-3.2397675
 20
0.64051375
 30
0.0
 11
-3.3982425
 21
0.640445
 31
0.0
  0
LINE
  5
75
330
1F
100
AcDbEntity
  8
0
  6
Continuous
 62
     7
100
AcDbLine
 10
-12.2452125
 20
-0.22074625
 30
0.0
 11
-11.90449125
 21
0.21027
 31
0.0
  0
LINE
  5
76
330
1F
100
AcDbEntity
  8
0
  6
Continuous
 62
     7
100
AcDbLine
 10
-11.90449125
 20
0.21027
 30
0.0
 11
-10.565245
 21
-1.12897375
 31
0.0
  0
LINE
  5
77
330
1F
100
AcDbEntity
  8
0
  6
Continuous
 62
     7
100
AcDbLine
 10
-10.565245
 20
-1.12897375
 30
0.0
 11
-9.22600125
 21
-2.46821875
 31
0.0
  0
LINE
  5
78
330
1F
100
AcDbEntity
  8
0
  6
Continuous
 62
     7
100
AcDbLine
 10
-9.22600125
 20
-2.46821875
 30
0.0
 11
-9.57228125
 21
-2.94980375
 31
0.0
  0
LINE
  5
79
330
1F
100
AcDbEntity
  8
0
  6
Continuous
 62
     7
100
AcDbLine
 10
-11.16492375
 20
-7.1253725
 30
0.0
 11
-11.19294875
 21
-7.3082475
 31
0.0
  0
LINE
  5
7A
330
1F
100
AcDbEntity
  8
0
  6
Continuous
 62
     7
100
AcDbLine
 10
-11.19294875
 20
-7.3082475
 30
0.0
 11
-13.09647875
 21
-7.3082475
 31
0.0
  0
LINE
  5
7B
330
1F
100
AcDbEntity
  8
0
  6
Continuous
 62
     7
100
AcDbLine
 10
-13.09647875
 20
-7.3082475
 30
0.0
 11
-15.00000125
 21
-7.3082475
 31
0.0
  0
LINE
  5
7C
330
1F
100
AcDbEntity
  8
0
  6
Continuous
 62
     7
100
AcDbLine
 10
-15.00000125
 20
-7.3082475
 30
0.0
 11
-14.96775875
 21
-6.97907375
 31
0.0
  0
LINE
  5
7D
330
1F
100
AcDbEntity
  8
0
  6
Continuous
 62
     7
100
AcDbLine
 10
-9.52465375
 20
-0.0724375
 30
0.0
 11
-10.85368
 21
1.25724875
 31
0.0
  0
LINE
  5
7E
330
1F
100
AcDbEntity
  8
0
  6
Continuous
 62
     7
100
AcDbLine
 10
-10.85368
 20
1.25724875
 30
0.0
 11
-10.667555
 21
1.42485125
 31
0.0
  0
LINE
  5
7F
330
1F
100
AcDbEntity
  8
0
  6
Continuous
 62
     7
100
AcDbLine
 10
-3.52017125
 20
4.46955125
 30
0.0
 11
-3.2397675
 21
4.50000125
 31
0.0
  0
LINE
  5
80
330
1F
100
AcDbEntity
  8
0
  6
Continuous
 62
     7
100
AcDbLine
 10
-3.2397675
 20
4.50000125
 30
0.0
 11
-3.2397675
 21
2.57025875
 31
0.0
  0
LINE
  5
81
330
1F
100
AcDbEntity
  8
0
  6
Continuous
 62
     7
100
AcDbLine
 10
-3.2397675
 20
2.57025875
 30
0.0
 11
-3.2397675
 21
0.64051375
 31
0.0
  0
LINE
  5
82
330
1F
100
AcDbEntity
  8
0
  6
Continuous
 62
     7
100
AcDbLine
 10
-3.2397675
 20
0.64051375
 30
0.0
 11
-3.3982425
 21
0.640445
 31
0.0
  0
LINE
  5
83
330
1F
100
AcDbEntity
  8
0
  6
Continuous
 62
     7
100
AcDbLine
 10
7.24524625
 20
-0.22459125
 30
0.0
 11
6.90453375
 21
0.206425
 31
0.0
  0
LINE
  5
84
330
1F
100
AcDbEntity
  8
0
  6
Continuous
 62
     7
100
AcDbLine
 10
6.90453375
 20
0.206425
 30
0.0
 11
5.56527375
 21
-1.13281875
 31
0.0
  0
LINE
  5
85
330
1F
100
AcDbEntity
  8
0
  6
Continuous
 62
     7
100
AcDbLine
 10
5.56527375
 20
-1.13281875
 30
0.0
 11
4.2260325
 21
-2.47206375
 31
0.0
  0
LINE
  5
86
330
1F
100
AcDbEntity
  8
0
  6
Continuous
 62
     7
100
AcDbLine
 10
4.2260325
 20
-2.47206375
 30
0.0
 11
4.5723125
 21
-2.95364875
 31
0.0
  0
LINE
  5
87
330
1F
100
AcDbEntity
  8
0
  6
Continuous
 62
     7
100
AcDbLine
 10
6.1649475
 20
-7.1292175
 30
0.0
 11
6.1929475
 21
-7.3120925
 31
0.0
  0
LINE
  5
88
330
1F
100
AcDbEntity
  8
0
  6
Continuous
 62
     7
100
AcDbLine
 10
6.1929475
 20
-7.3120925
 30
0.0
 11
8.09649875
 21
-7.3120925
 31
0.0
  0
LINE
  5
89
330
1F
100
AcDbEntity
  8
0
  6
Continuous
 62
     7
100
AcDbLine
 10
8.09649875
 20
-7.3120925
 30
0.0
 11
10.0000225
 21
-7.3120925
 31
0.0
  0
LINE
  5
8A
330
1F
100
AcDbEntity
  8
0
  6
Continuous
 62
     7
100
AcDbLine
 10
10.0000225
 20
-7.3120925
 30
0.0
 11
9.96781
 21
-6.9829225
 31
0.0
  0
LINE
  5
8B
330
1F
100
AcDbEntity
  8
0
  6
Continuous
 62
     7
100
AcDbLine
 10
4.524695
 20
-0.07628125
 30
0.0
 11
5.8537125
 21
1.25340375
 31
0.0
  0
LINE
  5
8C
330
1F
100
AcDbEntity
  8
0
  6
Continuous
 62
     7
100
AcDbLine
 10
5.8537125
 20
1.25340375
 30
0.0
 11
5.66758625
 21
1.42100625
 31
0.0
  0
LINE
  5
8D
330
1F
100
AcDbEntity
  8
0
  6
Continuous
 62
     7
100
AcDbLine
 10
-1.47979875
 20
4.46570625
 30
0.0
 11
-1.7602
 21
4.49615625
 31
0.0
  0
LINE
  5
8E
330
1F
100
AcDbEntity
  8
0
  6
Continuous
 62
     7
100
AcDbLine
 10
-1.7602
 20
4.49615625
 30
0.0
 11
-1.7602
 21
2.56641375
 31
0.0
  0
LINE
  5
8F
330
1F
100
AcDbEntity
  8
0
  6
Continuous
 62
     7
100
AcDbLine
 10
-1.7602
 20
2.56641375
 30
0.0
 11
-1.7602
 21
0.63666875
 31
0.0
  0
LINE
  5
90
330
1F
100
AcDbEntity
  8
0
  6
Continuous
 62
     7
100
AcDbLine
 10
-1.7602
 20
0.63666875
 30
0.0
 11
-1.6017
 21
0.6366
 31
0.0
  0
LINE
  5
91
330
1F
100
AcDbEntity
  8
0
  6
Continuous
 62
     7
100
AcDbLine
 10
33.058793
 20
-1.083198
 30
0.0
 11
32.990633
 21
-0.973604
 31
0.0
  0
LINE
  5
92
330
1F
100
AcDbEntity
  8
0
  6
Continuous
 62
     7
100
AcDbLine
 10
32.990633
 20
-0.973604
 30
0.0
 11
32.982433
 21
2.018111
 31
0.0
  0
LINE
  5
93
330
1F
100
AcDbEntity
  8
0
  6
Continuous
 62
     7
100
AcDbLine
 10
32.982433
 20
2.018111
 30
0.0
 11
32.974233
 21
5.009827
 31
0.0
  0
LINE
  5
94
330
1F
100
AcDbEntity
  8
0
  6
Continuous
 62
     7
100
AcDbLine
 10
32.974233
 20
5.009827
 30
0.0
 11
33.052343
 21
5.169469
 31
0.0
  0
LINE
  5
95
330
1F
100
AcDbEntity
  8
0
  6
Continuous
 62
     7
100
AcDbLine
 10
34.811514
 20
5.173283
 30
0.0
 11
34.889844
 21
5.01609
 31
0.0
  0
LINE
  5
96
330
1F
100
AcDbEntity
  8
0
  6
Continuous
 62
     7
100
AcDbLine
 10
34.889844
 20
5.01609
 30
0.0
 11
34.889844
 21
2.053628
 31
0.0
  0
LINE
  5
97
330
1F
100
AcDbEntity
  8
0
  6
Continuous
 62
     7
100
AcDbLine
 10
35.564489
 20
2.125967
 30
0.0
 11
35.573589
 21
5.043214
 31
0.0
  0
LINE
  5
98
330
1F
100
AcDbEntity
  8
0
  6
Continuous
 62
     7
100
AcDbLine
 10
35.573589
 20
5.043214
 30
0.0
 11
35.639399
 21
5.166131
 31
0.0
  0
LINE
  5
99
330
1F
100
AcDbEntity
  8
0
  6
Continuous
 62
     7
100
AcDbLine
 10
37.496227
 20
1.986981
 30
0.0
 11
37.488027
 21
-0.912826
 31
0.0
  0
LINE
  5
9A
330
1F
100
AcDbEntity
  8
0
  6
Continuous
 62
     7
100
AcDbLine
 10
37.488027
 20
-0.912826
 30
0.0
 11
37.405507
 21
-1.069288
 31
0.0
  0
SPLINE
  5
9B
330
1F
100
AcDbEntity
  8
0
  6
Continuous
 62
     7
100
AcDbSpline
210
0.0
220
0.0
230
1.0
 70
     8
 71
     3
 72
     9
 73
     5
 74
     0
 42
0.00000001
 43
0.00000001
 40
0.0
 40
0.0
 40
0.0
 40
0.0
 40
0.5663063020456354
 40
1.0
 40
1.0
 40
1.0
 40
1.0
 10
2.179797738790526
 20
5.112784999999989
 30
0.0
 10
1.906636134912005
 20
5.324050194111989
 30
0.0
 10
1.754096000000005
 20
5.540084999999987
 30
0.0
 10
1.80084756618672
 20
5.464152674911382
 30
0.0
 10
1.754096000000005
 20
5.540084999999987
 30
0.0
  0
SPLINE
  5
9C
330
1F
100
AcDbEntity
  8
0
  6
Continuous
 62
     7
100
AcDbSpline
210
0.0
220
0.0
230
1.0
 70
     8
 71
     3
 72
     9
 73
     5
 74
     0
 42
0.00000001
 43
0.00000001
 40
0.0
 40
0.0
 40
0.0
 40
0.0
 40
0.5686793030329941
 40
1.0
 40
1.0
 40
1.0
 40
1.0
 10
1.754095777869238
 20
5.540084999999987
 30
0.0
 10
1.699308700160007
 20
5.847019548479989
 30
0.0
 10
1.740656000000007
 20
6.079853999999989
 30
0.0
 10
1.720914071524152
 20
6.002239872895519
 30
0.0
 10
1.740656000000007
 20
6.07985399999999
 30
0.0
  0
SPLINE
  5
9D
330
1F
100
AcDbEntity
  8
0
  6
Continuous
 62
     7
100
AcDbSpline
210
0.0
220
0.0
230
1.0
 70
     8
 71
     3
 72
     9
 73
     5
 74
     0
 42
0.00000001
 43
0.00000001
 40
0.0
 40
0.0
 40
0.0
 40
0.0
 40
0.454222166091269
 40
1.0
 40
1.0
 40
1.0
 40
1.0
 10
1.740655861794962
 20
6.079853999999989
 30
0.0
 10
1.857738755328007
 20
6.269085538943989
 30
0.0
 10
2.015095000000007
 20
6.485255999999985
 30
0.0
 10
1.961126252731505
 20
6.414218300596574
 30
0.0
 10
2.015095000000007
 20
6.485255999999985
 30
0.0
  0
SPLINE
  5
9E
330
1F
100
AcDbEntity
  8
0
  6
Continuous
 62
     7
100
AcDbSpline
210
0.0
220
0.0
230
1.0
 70
     8
 71
     3
 72
     9
 73
     5
 74
     0
 42
0.00000001
 43
0.00000001
 40
0.0
 40
0.0
 40
0.0
 40
0.0
 40
0.5600029932581634
 40
1.0
 40
1.0
 40
1.0
 40
1.0
 10
2.015093341469778
 20
6.485255999999985
 30
0.0
 10
3.062638437696005
 20
8.333786190079989
 30
0.0
 10
3.487475000000004
 20
9.948222999999988
 30
0.0
 10
3.375065750217896
 20
9.398194699970864
 30
0.0
 10
3.487475000000004
 20
9.948222999999988
 30
0.0
  0
SPLINE
  5
9F
330
1F
100
AcDbEntity
  8
0
  6
Continuous
 62
     7
100
AcDbSpline
210
0.0
220
0.0
230
1.0
 70
     8
 71
     3
 72
     9
 73
     5
 74
     0
 42
0.00000001
 43
0.00000001
 40
0.0
 40
0.0
 40
0.0
 40
0.0
 40
0.5706094466320553
 40
1.0
 40
1.0
 40
1.0
 40
1.0
 10
3.487473353743567
 20
9.948222999999988
 30
0.0
 10
3.551938786240006
 20
10.92553955795199
 30
0.0
 10
3.531075000000008
 20
11.66228499999999
 30
0.0
 10
3.542994410002689
 20
11.41660994830114
 30
0.0
 10
3.531075000000008
 20
11.66228499999999
 30
0.0
  0
SPLINE
  5
A0
330
1F
100
AcDbEntity
  8
0
  6
Continuous
 62
     7
100
AcDbSpline
210
0.0
220
0.0
230
1.0
 70
     8
 71
     3
 72
     9
 73
     5
 74
     0
 42
0.00000001
 43
0.00000001
 40
0.0
 40
0.0
 40
0.0
 40
0.0
 40
0.5612808913125887
 40
1.0
 40
1.0
 40
1.0
 40
1.0
 10
3.531074151396765
 20
11.66228499999999
 30
0.0
 10
2.899441738944008
 20
14.01713981727998
 30
0.0
 10
1.891860000000007
 20
15.63470199999999
 30
0.0
 10
2.265294906455188
 20
15.11182651072055
 30
0.0
 10
1.891860000000008
 20
15.63470199999999
 30
0.0
  0
SPLINE
  5
A1
330
1F
100
AcDbEntity
  8
0
  6
Continuous
 62
     7
100
AcDbSpline
210
0.0
220
0.0
230
1.0
 70
     8
 71
     3
 72
     9
 73
     5
 74
     0
 42
0.00000001
 43
0.00000001
 40
0.0
 40
0.0
 40
0.0
 40
0.0
 40
0.6675163587597305
 40
1.0
 40
1.0
 40
1.0
 40
1.0
 10
1.891859807074084
 20
15.63470199999999
 30
0.0
 10
1.602436322688006
 20
16.04135930201599
 30
0.0
 10
1.566051000000006
 20
16.28729699999999
 30
0.0
 10
1.57220726987983
 20
16.20291360540863
 30
0.0
 10
1.566051000000006
 20
16.28729699999999
 30
0.0
  0
SPLINE
  5
A2
330
1F
100
AcDbEntity
  8
0
  6
Continuous
 62
     7
100
AcDbSpline
210
0.0
220
0.0
230
1.0
 70
     8
 71
     3
 72
     9
 73
     5
 74
     0
 42
0.00000001
 43
0.00000001
 40
0.0
 40
0.0
 40
0.0
 40
0.0
 40
0.5282020661317424
 40
0.9999999999999999
 40
0.9999999999999999
 40
0.9999999999999999
 40
0.9999999999999999
 10
1.566050574183478
 20
16.28729699999999
 30
0.0
 10
1.644221640128006
 20
16.62435964614399
 30
0.0
 10
1.845625000000005
 20
16.85878399999999
 30
0.0
 10
1.768144033569326
 20
16.78588304505101
 30
0.0
 10
1.845625000000005
 20
16.85878399999999
 30
0.0
  0
SPLINE
  5
A3
330
1F
100
AcDbEntity
  8
0
  6
Continuous
 62
     7
100
AcDbSpline
210
0.0
220
0.0
230
1.0
 70
     8
 71
     3
 72
     9
 73
     5
 74
     0
 42
0.00000001
 43
0.00000001
 40
0.0
 40
0.0
 40
0.0
 40
0.0
 40
0.5627597829207144
 40
1.0
 40
1.0
 40
1.0
 40
1.0
 10
1.845624297857298
 20
16.85878399999999
 30
0.0
 10
2.275706943424006
 20
17.05667889395199
 30
0.0
 10
2.635426000000006
 20
16.97984699999999
 30
0.0
 10
2.513656765072968
 20
17.02226133687957
 30
0.0
 10
2.635426000000006
 20
16.97984699999999
 30
0.0
  0
SPLINE
  5
A4
330
1F
100
AcDbEntity
  8
0
  6
Continuous
 62
     7
100
AcDbSpline
210
0.0
220
0.0
230
1.0
 70
     8
 71
     3
 72
     9
 73
     5
 74
     0
 42
0.00000001
 43
0.00000001
 40
0.0
 40
0.0
 40
0.0
 40
0.0
 40
0.4219673472959267
 40
1.0
 40
1.0
 40
1.0
 40
1.0
 10
2.635424956679358
 20
16.97984699999999
 30
0.0
 10
3.000407783936006
 20
16.64678289094399
 30
0.0
 10
3.413907000000008
 20
16.11091599999999
 30
0.0
 10
3.284404640519191
 20
16.29720864412079
 30
0.0
 10
3.413907000000008
 20
16.11091599999999
 30
0.0
  0
SPLINE
  5
A5
330
1F
100
AcDbEntity
  8
0
  6
Continuous
 62
     7
100
AcDbSpline
210
0.0
220
0.0
230
1.0
 70
     8
 71
     3
 72
    10
 73
     6
 74
     0
 42
0.00000001
 43
0.00000001
 40
0.0
 40
0.0
 40
0.0
 40
0.0
 40
0.2833426528771751
 40
0.5604408172282367
 40
1.0
 40
1.0
 40
1.0
 40
1.0
 10
3.413906320929541
 20
16.11091599999999
 30
0.0
 10
4.719916634944006
 20
13.40908263404799
 30
0.0
 10
5.046638217152005
 20
10.49253458598399
 30
0.0
 10
3.572023000000008
 20
6.076806999999991
 30
0.0
 10
4.237492593978679
 20
7.514542064488002
 30
0.0
 10
3.572023000000008
 20
6.076806999999991
 30
0.0
  0
SPLINE
  5
A6
330
1F
100
AcDbEntity
  8
0
  6
Continuous
 62
     7
100
AcDbSpline
210
0.0
220
0.0
230
1.0
 70
     8
 71
     3
 72
     9
 73
     5
 74
     0
 42
0.00000001
 43
0.00000001
 40
0.0
 40
0.0
 40
0.0
 40
0.0
 40
0.6697404785262535
 40
1.0
 40
1.0
 40
1.0
 40
1.0
 10
3.572022542357459
 20
6.076806999999991
 30
0.0
 10
3.101139446720007
 20
5.439901581759988
 30
0.0
 10
2.826072000000006
 20
5.162604999999991
 30
0.0
 10
2.920120721956665
 20
5.253013173281046
 30
0.0
 10
2.826072000000006
 20
5.162604999999991
 30
0.0
  0
SPLINE
  5
A7
330
1F
100
AcDbEntity
  8
0
  6
Continuous
 62
     7
100
AcDbSpline
210
0.0
220
0.0
230
1.0
 70
     8
 71
     3
 72
     9
 73
     5
 74
     0
 42
0.00000001
 43
0.00000001
 40
0.0
 40
0.0
 40
0.0
 40
0.0
 40
0.5571708195997436
 40
1.0
 40
1.0
 40
1.0
 40
1.0
 10
2.826070412993445
 20
5.162604999999991
 30
0.0
 10
2.469775267712005
 20
5.058564977087989
 30
0.0
 10
2.179798000000005
 20
5.112784999999989
 30
0.0
 10
2.276958991871364
 20
5.084607099324327
 30
0.0
 10
2.179798000000006
 20
5.11278499999999
 30
0.0
  0
SPLINE
  5
A8
330
1F
100
AcDbEntity
  8
0
  6
Continuous
 62
     7
100
AcDbSpline
210
0.0
220
0.0
230
1.0
 70
     8
 71
     3
 72
    10
 73
     6
 74
     0
 42
0.00000001
 43
0.00000001
 40
0.0
 40
0.0
 40
0.0
 40
0.0
 40
0.0426834768729459
 40
0.2688248830608663
 40
1.0
 40
1.0
 40
1.0
 40
1.0
 10
-3.393566235899911
 20
5.688713999999988
 30
0.0
 10
-3.500589953124994
 20
5.738745906249989
 30
0.0
 10
-3.99395900195312
 20
6.123928785156237
 30
0.0
 10
-5.553423999999994
 20
7.413783999999986
 30
0.0
 10
-5.024970975478666
 20
6.999756923160089
 30
0.0
 10
-5.553423999999994
 20
7.413783999999986
 30
0.0
  0
SPLINE
  5
A9
330
1F
100
AcDbEntity
  8
0
  6
Continuous
 62
     7
100
AcDbSpline
210
0.0
220
0.0
230
1.0
 70
     8
 71
     3
 72
     9
 73
     5
 74
     0
 42
0.00000001
 43
0.00000001
 40
0.0
 40
0.0
 40
0.0
 40
0.0
 40
0.8164225604218525
 40
0.9999999999999999
 40
0.9999999999999999
 40
0.9999999999999999
 40
0.9999999999999999
 10
-8.449591696262345
 20
8.929284999999988
 30
0.0
 10
-9.435062118847995
 20
8.941807659071989
 30
0.0
 10
-9.651314999999993
 20
8.990224999999986
 30
0.0
 10
-9.579393966891288
 20
8.972690650484175
 30
0.0
 10
-9.651314999999993
 20
8.990224999999986
 30
0.0
  0
SPLINE
  5
AA
330
1F
100
AcDbEntity
  8
0
  6
Continuous
 62
     7
100
AcDbSpline
210
0.0
220
0.0
230
1.0
 70
     8
 71
     3
 72
     9
 73
     5
 74
     0
 42
0.00000001
 43
0.00000001
 40
0.0
 40
0.0
 40
0.0
 40
0.0
 40
0.5625740454761612
 40
1.0
 40
1.0
 40
1.0
 40
1.0
 10
-9.651310741901383
 20
8.990224999999986
 30
0.0
 10
-9.868994055999995
 20
9.133224842047989
 30
0.0
 10
-9.986659999999995
 20
9.298045999999987
 30
0.0
 10
-9.951199325228867
 20
9.239195571377005
 30
0.0
 10
-9.986659999999995
 20
9.298045999999987
 30
0.0
  0
SPLINE
  5
AB
330
1F
100
AcDbEntity
  8
0
  6
Continuous
 62
     7
100
AcDbSpline
210
0.0
220
0.0
230
1.0
 70
     8
 71
     3
 72
     9
 73
     5
 74
     0
 42
0.00000001
 43
0.00000001
 40
0.0
 40
0.0
 40
0.0
 40
0.0
 40
0.2386997599415641
 40
0.9999999999999999
 40
0.9999999999999999
 40
0.9999999999999999
 40
0.9999999999999999
 10
-9.986653923988328
 20
9.298045999999987
 30
0.0
 10
-10.04600545791999
 20
9.680895984383987
 30
0.0
 10
-10.05869999999999
 20
10.91646399999999
 30
0.0
 10
-10.07687597025198
 20
10.50276560399492
 30
0.0
 10
-10.05869999999999
 20
10.91646399999999
 30
0.0
  0
SPLINE
  5
AC
330
1F
100
AcDbEntity
  8
0
  6
Continuous
 62
     7
100
AcDbSpline
210
0.0
220
0.0
230
1.0
 70
     8
 71
     3
 72
    10
 73
     6
 74
     0
 42
0.00000001
 43
0.00000001
 40
0.0
 40
0.0
 40
0.0
 40
0.0
 40
0.7651359419329534
 40
0.9389632428012439
 40
1.0
 40
1.0
 40
1.0
 40
1.0
 10
-10.05869358777998
 20
10.91646399999999
 30
0.0
 10
-10.05554385791999
 20
12.15148052198399
 30
0.0
 10
-10.04666697593315
 20
12.43191803066259
 30
0.0
 10
-10.03661999999999
 20
12.52992499999999
 30
0.0
 10
-10.04026790419152
 20
12.49727663087504
 30
0.0
 10
-10.03661999999999
 20
12.52992499999999
 30
0.0
  0
SPLINE
  5
AD
330
1F
100
AcDbEntity
  8
0
  6
Continuous
 62
     7
100
AcDbSpline
210
0.0
220
0.0
230
1.0
 70
     8
 71
     3
 72
     9
 73
     5
 74
     0
 42
0.00000001
 43
0.00000001
 40
0.0
 40
0.0
 40
0.0
 40
0.0
 40
0.5611353085109433
 40
1.0
 40
1.0
 40
1.0
 40
1.0
 10
-10.0366175174713
 20
12.52992499999999
 30
0.0
 10
-9.884011507711993
 20
12.80207482143999
 30
0.0
 10
-9.690912999999995
 20
12.95128199999999
 30
0.0
 10
-9.760673192180942
 20
12.90620128004435
 30
0.0
 10
-9.690912999999995
 20
12.95128199999999
 30
0.0
  0
SPLINE
  5
AE
330
1F
100
AcDbEntity
  8
0
  6
Continuous
 62
     7
100
AcDbSpline
210
0.0
220
0.0
230
1.0
 70
     8
 71
     3
 72
     9
 73
     5
 74
     0
 42
0.00000001
 43
0.00000001
 40
0.0
 40
0.0
 40
0.0
 40
0.0
 40
0.2682603920716865
 40
1.0
 40
1.0
 40
1.0
 40
1.0
 10
-9.690910577774034
 20
12.95128199999999
 30
0.0
 10
-9.365317044671997
 20
13.01700785599999
 30
0.0
 10
-8.459368999999995
 20
13.03013199999999
 30
0.0
 10
-8.763524899647386
 20
13.04602131113437
 30
0.0
 10
-8.459368999999995
 20
13.03013199999999
 30
0.0
  0
SPLINE
  5
AF
330
1F
100
AcDbEntity
  8
0
  6
Continuous
 62
     7
100
AcDbSpline
210
0.0
220
0.0
230
1.0
 70
     8
 71
     3
 72
    11
 73
     7
 74
     0
 42
0.00000001
 43
0.00000001
 40
0.0
 40
0.0
 40
0.0
 40
0.0
 40
0.7522492066493479
 40
0.941665448203962
 40
0.9852870386307933
 40
1.0
 40
1.0
 40
1.0
 40
1.0
 10
-5.489312112331376
 20
14.59696299999999
 30
0.0
 10
-4.012308675071994
 20
15.81442556038399
 30
0.0
 10
-3.638479282984291
 20
16.11863799997894
 30
0.0
 10
-3.551672130910683
 20
16.18780721644882
 30
0.0
 10
-3.521764999999994
 20
16.21032599999999
 30
0.0
 10
-3.531760489466513
 20
16.2028539237392
 30
0.0
 10
-3.521764999999995
 20
16.21032599999999
 30
0.0
  0
SPLINE
  5
B0
330
1F
100
AcDbEntity
  8
0
  6
Continuous
 62
     7
100
AcDbSpline
210
0.0
220
0.0
230
1.0
 70
     8
 71
     3
 72
     9
 73
     5
 74
     0
 42
0.00000001
 43
0.00000001
 40
0.0
 40
0.0
 40
0.0
 40
0.0
 40
0.5496749055027216
 40
1.0
 40
1.0
 40
1.0
 40
1.0
 10
-3.521764650940881
 20
16.21032599999999
 30
0.0
 10
-3.214367209663994
 20
16.28153437247999
 30
0.0
 10
-2.956981999999995
 20
16.25748599999999
 30
0.0
 10
-3.043193444908399
 20
16.2716855635895
 30
0.0
 10
-2.956981999999996
 20
16.25748599999999
 30
0.0
  0
SPLINE
  5
B1
330
1F
100
AcDbEntity
  8
0
  6
Continuous
 62
     7
100
AcDbSpline
210
0.0
220
0.0
230
1.0
 70
     8
 71
     3
 72
     9
 73
     5
 74
     0
 42
0.00000001
 43
0.00000001
 40
0.0
 40
0.0
 40
0.0
 40
0.0
 40
0.5259384830608977
 40
1.0
 40
1.0
 40
1.0
 40
1.0
 10
-2.956980839371667
 20
16.25748599999999
 30
0.0
 10
-2.824677011071993
 20
16.18674087564798
 30
0.0
 10
-2.717905999999994
 20
16.10374899999999
 30
0.0
 10
-2.752510070086526
 20
16.13293191757228
 30
0.0
 10
-2.717905999999994
 20
16.10374899999999
 30
0.0
  0
SPLINE
  5
B2
330
1F
100
AcDbEntity
  8
0
  6
Continuous
 62
     7
100
AcDbSpline
210
0.0
220
0.0
230
1.0
 70
     8
 71
     3
 72
    10
 73
     6
 74
     0
 42
0.00000001
 43
0.00000001
 40
0.0
 40
0.0
 40
0.0
 40
0.0
 40
0.0378582094380399
 40
0.2469187631184462
 40
1.0
 40
1.0
 40
1.0
 40
1.0
 10
-2.717904746532426
 20
16.10374899999999
 30
0.0
 10
-2.583777296874993
 20
15.95776306249998
 30
0.0
 10
-2.507193607421868
 20
14.86568302343749
 30
0.0
 10
-2.506575999999993
 20
10.92211399999999
 30
0.0
 10
-2.607623546846855
 20
12.17833735735704
 30
0.0
 10
-2.506575999999993
 20
10.92211399999999
 30
0.0
  0
SPLINE
  5
B3
330
1F
100
AcDbEntity
  8
0
  6
Continuous
 62
     7
100
AcDbSpline
210
0.0
220
0.0
230
1.0
 70
     8
 71
     3
 72
    10
 73
     6
 74
     0
 42
0.00000001
 43
0.00000001
 40
0.0
 40
0.0
 40
0.0
 40
0.0
 40
0.7133359621111212
 40
0.9644379762647357
 40
1.0
 40
1.0
 40
1.0
 40
1.0
 10
-2.50657461583613
 20
10.92211399999999
 30
0.0
 10
-2.515774984374994
 20
7.439865130859364
 30
0.0
 10
-2.537018499999994
 20
6.214255484374989
 30
0.0
 10
-2.565165999999994
 20
6.042950999999988
 30
0.0
 10
-2.555239585000082
 20
6.100002773269947
 30
0.0
 10
-2.565165999999994
 20
6.042950999999988
 30
0.0
  0
SPLINE
  5
B4
330
1F
100
AcDbEntity
  8
0
  6
Continuous
 62
     7
100
AcDbSpline
210
0.0
220
0.0
230
1.0
 70
     8
 71
     3
 72
     9
 73
     5
 74
     0
 42
0.00000001
 43
0.00000001
 40
0.0
 40
0.0
 40
0.0
 40
0.0
 40
0.57534026118844
 40
1.0
 40
1.0
 40
1.0
 40
1.0
 10
-2.565165981650339
 20
6.042950999999988
 30
0.0
 10
-2.988164000767994
 20
5.69255674387199
 30
0.0
 10
-3.393566999999993
 20
5.688713999999988
 30
0.0
 10
-3.251837180372881
 20
5.671962169020854
 30
0.0
 10
-3.393566999999993
 20
5.688713999999988
 30
0.0
  0
SPLINE
  5
B5
330
1F
100
AcDbEntity
  8
0
  6
Continuous
 62
     7
100
AcDbSpline
210
0.0
220
0.0
230
1.0
 70
     8
 71
     3
 72
     9
 73
     5
 74
     0
 42
0.00000001
 43
0.00000001
 40
0.0
 40
0.0
 40
0.0
 40
0.0
 40
0.5642531436840776
 40
0.9999999999999999
 40
0.9999999999999999
 40
0.9999999999999999
 40
0.9999999999999999
 10
-0.184417935088263
 20
7.478587999999989
 30
0.0
 10
-0.4570268404479936
 20
7.687642358015988
 30
0.0
 10
-0.6101279999999945
 20
7.904307999999989
 30
0.0
 10
-0.5632645381191346
 20
7.828075611495867
 30
0.0
 10
-0.6101279999999945
 20
7.904307999999989
 30
0.0
  0
SPLINE
  5
B6
330
1F
100
AcDbEntity
  8
0
  6
Continuous
 62
     7
100
AcDbSpline
210
0.0
220
0.0
230
1.0
 70
     8
 71
     3
 72
     9
 73
     5
 74
     0
 42
0.00000001
 43
0.00000001
 40
0.0
 40
0.0
 40
0.0
 40
0.0
 40
0.5281493560883365
 40
1.0
 40
1.0
 40
1.0
 40
1.0
 10
-0.6101275794207911
 20
7.904307999999989
 30
0.0
 10
-0.6545458291199939
 20
8.061184412671988
 30
0.0
 10
-0.6666179999999938
 20
8.206346999999989
 30
0.0
 10
-0.6647653416952849
 20
8.15756558542948
 30
0.0
 10
-0.6666179999999938
 20
8.206346999999989
 30
0.0
  0
SPLINE
  5
B7
330
1F
100
AcDbEntity
  8
0
  6
Continuous
 62
     7
100
AcDbSpline
210
0.0
220
0.0
230
1.0
 70
     8
 71
     3
 72
     9
 73
     5
 74
     0
 42
0.00000001
 43
0.00000001
 40
0.0
 40
0.0
 40
0.0
 40
0.0
 40
0.5259327092063737
 40
1.0
 40
1.0
 40
1.0
 40
1.0
 10
-0.6666178815066676
 20
8.206346999999989
 30
0.0
 10
-0.6421869776639945
 20
8.402921275967989
 30
0.0
 10
-0.5591309999999939
 20
8.560979999999985
 30
0.0
 10
-0.5916387243320601
 20
8.509805256538478
 30
0.0
 10
-0.5591309999999939
 20
8.560979999999985
 30
0.0
  0
SPLINE
  5
B8
330
1F
100
AcDbEntity
  8
0
  6
Continuous
 62
     7
100
AcDbSpline
210
0.0
220
0.0
230
1.0
 70
     8
 71
     3
 72
     9
 73
     5
 74
     0
 42
0.00000001
 43
0.00000001
 40
0.0
 40
0.0
 40
0.0
 40
0.0
 40
0.6694478126971718
 40
1.0
 40
1.0
 40
1.0
 40
1.0
 10
-0.559130683541284
 20
8.560979999999985
 30
0.0
 10
-0.1942890055039946
 20
9.180775541119989
 30
0.0
 10
-0.0492579999999947
 20
9.504930999999987
 30
0.0
 10
-0.0956670406119087
 20
9.395880913034528
 30
0.0
 10
-0.0492579999999947
 20
9.504930999999987
 30
0.0
  0
SPLINE
  5
B9
330
1F
100
AcDbEntity
  8
0
  6
Continuous
 62
     7
100
AcDbSpline
210
0.0
220
0.0
230
1.0
 70
     8
 71
     3
 72
     9
 73
     5
 74
     0
 42
0.00000001
 43
0.00000001
 40
0.0
 40
0.0
 40
0.0
 40
0.0
 40
0.5581515791497738
 40
1.0
 40
1.0
 40
1.0
 40
1.0
 10
-0.0492579711135338
 20
9.504930999999987
 30
0.0
 10
0.1641654126080063
 20
11.73654348934399
 30
0.0
 10
-0.5490879999999945
 20
13.36157099999999
 30
0.0
 10
-0.2463700230737976
 20
12.8303212711357
 30
0.0
 10
-0.5490879999999945
 20
13.36157099999999
 30
0.0
  0
SPLINE
  5
BA
330
1F
100
AcDbEntity
  8
0
  6
Continuous
 62
     7
100
AcDbSpline
210
0.0
220
0.0
230
1.0
 70
     8
 71
     3
 72
     9
 73
     5
 74
     0
 42
0.00000001
 43
0.00000001
 40
0.0
 40
0.0
 40
0.0
 40
0.0
 40
0.6313264873287054
 40
1.0
 40
1.0
 40
1.0
 40
1.0
 10
-0.549087766557918
 20
13.36157099999999
 30
0.0
 10
-0.7954116025599937
 20
13.81087658668799
 30
0.0
 10
-0.7736769999999935
 20
14.10930899999999
 30
0.0
 10
-0.7910959948937843
 20
14.00761623077116
 30
0.0
 10
-0.7736769999999935
 20
14.10930899999999
 30
0.0
  0
SPLINE
  5
BB
330
1F
100
AcDbEntity
  8
0
  6
Continuous
 62
     7
100
AcDbSpline
210
0.0
220
0.0
230
1.0
 70
     8
 71
     3
 72
     9
 73
     5
 74
     0
 42
0.00000001
 43
0.00000001
 40
0.0
 40
0.0
 40
0.0
 40
0.0
 40
0.562228954342906
 40
1.0
 40
1.0
 40
1.0
 40
1.0
 10
-0.773676671087728
 20
14.10930899999999
 30
0.0
 10
-0.5714701409919932
 20
14.44290764652799
 30
0.0
 10
-0.3322029999999945
 20
14.63001999999999
 30
0.0
 10
-0.4179286042743789
 20
14.57294910319254
 30
0.0
 10
-0.3322029999999945
 20
14.63001999999999
 30
0.0
  0
SPLINE
  5
BC
330
1F
100
AcDbEntity
  8
0
  6
Continuous
 62
     7
100
AcDbSpline
210
0.0
220
0.0
230
1.0
 70
     8
 71
     3
 72
     9
 73
     5
 74
     0
 42
0.00000001
 43
0.00000001
 40
0.0
 40
0.0
 40
0.0
 40
0.0
 40
0.5639893292072168
 40
1.0
 40
1.0
 40
1.0
 40
1.0
 10
-0.332202995195971
 20
14.63001999999999
 30
0.0
 10
0.0163224465280061
 20
14.69148466815999
 30
0.0
 10
0.2811630000000064
 20
14.62281999999999
 30
0.0
 10
0.1932169891630025
 20
14.65415098583279
 30
0.0
 10
0.2811630000000064
 20
14.62281999999999
 30
0.0
  0
SPLINE
  5
BD
330
1F
100
AcDbEntity
  8
0
  6
Continuous
 62
     7
100
AcDbSpline
210
0.0
220
0.0
230
1.0
 70
     8
 71
     3
 72
    10
 73
     6
 74
     0
 42
0.00000001
 43
0.00000001
 40
0.0
 40
0.0
 40
0.0
 40
0.0
 40
0.2297316533736017
 40
0.4926371655677942
 40
1.0
 40
1.0
 40
1.0
 40
1.0
 10
0.281162792816772
 20
14.62281999999999
 30
0.0
 10
0.6510712147586759
 20
14.25525463334283
 30
0.0
 10
0.979145186496006
 20
13.75674568140799
 30
0.0
 10
1.460232000000008
 20
12.71036099999999
 30
0.0
 10
1.31171560775436
 20
13.06424550665871
 30
0.0
 10
1.460232000000008
 20
12.71036099999999
 30
0.0
  0
SPLINE
  5
BE
330
1F
100
AcDbEntity
  8
0
  6
Continuous
 62
     7
100
AcDbSpline
210
0.0
220
0.0
230
1.0
 70
     8
 71
     3
 72
     9
 73
     5
 74
     0
 42
0.00000001
 43
0.00000001
 40
0.0
 40
0.0
 40
0.0
 40
0.0
 40
0.5434987001572853
 40
0.9999999999999999
 40
0.9999999999999999
 40
0.9999999999999999
 40
0.9999999999999999
 10
1.460231840610518
 20
12.71036099999999
 30
0.0
 10
1.688694016384007
 20
11.68228505017599
 30
0.0
 10
1.717805000000006
 20
10.79818699999999
 30
0.0
 10
1.720486328255771
 20
11.0944525597395
 30
0.0
 10
1.717805000000006
 20
10.79818699999999
 30
0.0
  0
SPLINE
  5
BF
330
1F
100
AcDbEntity
  8
0
  6
Continuous
 62
     7
100
AcDbSpline
210
0.0
220
0.0
230
1.0
 70
     8
 71
     3
 72
     9
 73
     5
 74
     0
 42
0.00000001
 43
0.00000001
 40
0.0
 40
0.0
 40
0.0
 40
0.0
 40
0.5731468953221018
 40
1.0
 40
1.0
 40
1.0
 40
1.0
 10
1.717804931104197
 20
10.79818699999999
 30
0.0
 10
1.629322682944007
 20
9.899548884799987
 30
0.0
 10
1.459194000000006
 20
9.248923999999988
 30
0.0
 10
1.523318798116425
 20
9.464472948421763
 30
0.0
 10
1.459194000000006
 20
9.24892399999999
 30
0.0
  0
SPLINE
  5
C0
330
1F
100
AcDbEntity
  8
0
  6
Continuous
 62
     7
100
AcDbSpline
210
0.0
220
0.0
230
1.0
 70
     8
 71
     3
 72
     9
 73
     5
 74
     0
 42
0.00000001
 43
0.00000001
 40
0.0
 40
0.0
 40
0.0
 40
0.0
 40
0.6254805062031206
 40
0.9999999999999999
 40
0.9999999999999999
 40
0.9999999999999999
 40
0.9999999999999999
 10
1.459193415939822
 20
9.248923999999988
 30
0.0
 10
0.9547069532160057
 20
8.167504480511989
 30
0.0
 10
0.5405340000000057
 20
7.585272999999987
 30
0.0
 10
0.6855889963692051
 20
7.775274701246293
 30
0.0
 10
0.5405340000000057
 20
7.585272999999987
 30
0.0
  0
SPLINE
  5
C1
330
1F
100
AcDbEntity
  8
0
  6
Continuous
 62
     7
100
AcDbSpline
210
0.0
220
0.0
230
1.0
 70
     8
 71
     3
 72
     9
 73
     5
 74
     0
 42
0.00000001
 43
0.00000001
 40
0.0
 40
0.0
 40
0.0
 40
0.0
 40
0.562654309301216
 40
1.0
 40
1.0
 40
1.0
 40
1.0
 10
0.5405335687101026
 20
7.585272999999987
 30
0.0
 10
0.1439349117440067
 20
7.423419771455988
 30
0.0
 10
-0.1844179999999935
 20
7.478587999999989
 30
0.0
 10
-0.0735033314128607
 20
7.447007139439282
 30
0.0
 10
-0.1844179999999935
 20
7.47858799999999
 30
0.0
  0
SPLINE
  5
C2
330
1F
100
AcDbEntity
  8
0
  6
Continuous
 62
     7
100
AcDbSpline
210
0.0
220
0.0
230
1.0
 70
     8
 71
     3
 72
    10
 73
     6
 74
     0
 42
0.00000001
 43
0.00000001
 40
0.0
 40
0.0
 40
0.0
 40
0.0
 40
0.2147128575002866
 40
0.4825216097729242
 40
1.0
 40
1.0
 40
1.0
 40
1.0
 10
-11.06661558151244
 20
-17.16680000000001
 30
0.0
 10
-11.46844362618143
 20
-16.79785780501636
 30
0.0
 10
-11.92249575247999
 20
-16.29110701792001
 30
0.0
 10
-12.73438874999999
 20
-15.25700625000002
 30
0.0
 10
-12.46838963237613
 20
-15.60515904530274
 30
0.0
 10
-12.73438874999999
 20
-15.25700625000002
 30
0.0
  0
SPLINE
  5
C3
330
1F
100
AcDbEntity
  8
0
  6
Continuous
 62
     7
100
AcDbSpline
210
0.0
220
0.0
230
1.0
 70
     8
 71
     3
 72
     9
 73
     5
 74
     0
 42
0.00000001
 43
0.00000001
 40
0.0
 40
0.0
 40
0.0
 40
0.0
 40
0.5561388081811619
 40
1.0
 40
1.0
 40
1.0
 40
1.0
 10
-12.73438334465025
 20
-15.25700625000002
 30
0.0
 10
-14.29901292103999
 20
-12.21135416136001
 30
0.0
 10
-14.91737874999999
 20
-9.549465000000014
 30
0.0
 10
-14.75789065349521
 20
-10.45385869388863
 30
0.0
 10
-14.91737874999999
 20
-9.549465000000014
 30
0.0
  0
SPLINE
  5
C4
330
1F
100
AcDbEntity
  8
0
  6
Continuous
 62
     7
100
AcDbSpline
210
0.0
220
0.0
230
1.0
 70
     8
 71
     3
 72
     9
 73
     5
 74
     0
 42
0.00000001
 43
0.00000001
 40
0.0
 40
0.0
 40
0.0
 40
0.0
 40
0.7179790735388092
 40
1.0
 40
1.0
 40
1.0
 40
1.0
 10
-14.91737365722655
 20
-9.549465000000014
 30
0.0
 10
-14.97490000119999
 20
-9.053394517120013
 30
0.0
 10
-14.99222874999999
 20
-8.858000000000015
 30
0.0
 10
-14.98670009120912
 20
-8.92315683577374
 30
0.0
 10
-14.99222874999999
 20
-8.858000000000015
 30
0.0
  0
SPLINE
  5
C5
330
1F
100
AcDbEntity
  8
0
  6
Continuous
 62
     7
100
AcDbSpline
210
0.0
220
0.0
230
1.0
 70
     8
 71
     3
 72
    11
 73
     7
 74
     0
 42
0.00000001
 43
0.00000001
 40
0.0
 40
0.0
 40
0.0
 40
0.0
 40
0.0147725418306857
 40
0.0368326210477977
 40
0.279961796789672
 40
1.0
 40
1.0
 40
1.0
 40
1.0
 10
-14.99222218990325
 20
-8.858000000000015
 30
0.0
 10
-14.98398395507811
 20
-8.83080629882814
 30
0.0
 10
-14.94702664062499
 20
-8.809959765625013
 30
0.0
 10
-14.48053563476561
 20
-8.777115478515636
 30
0.0
 10
-13.09559374999999
 20
-8.771200000000011
 30
0.0
 10
-13.56173058289075
 20
-8.78504037922356
 30
0.0
 10
-13.09559374999999
 20
-8.771200000000011
 30
0.0
  0
SPLINE
  5
C6
330
1F
100
AcDbEntity
  8
0
  6
Continuous
 62
     7
100
AcDbSpline
210
0.0
220
0.0
230
1.0
 70
     8
 71
     3
 72
    10
 73
     6
 74
     0
 42
0.00000001
 43
0.00000001
 40
0.0
 40
0.0
 40
0.0
 40
0.0
 40
0.8554241585328808
 40
0.9167176577165411
 40
1.0
 40
1.0
 40
1.0
 40
1.0
 10
-13.09558749198912
 20
-8.771200000000011
 30
0.0
 10
-11.26266576629638
 20
-8.815653990478527
 30
0.0
 10
-11.15252345703124
 20
-8.887259921875012
 30
0.0
 10
-11.13975999999999
 20
-9.065305000000013
 30
0.0
 10
-11.13087107458614
 20
-8.99844913355203
 30
0.0
 10
-11.13975999999999
 20
-9.065305000000013
 30
0.0
  0
SPLINE
  5
C7
330
1F
100
AcDbEntity
  8
0
  6
Continuous
 62
     7
100
AcDbSpline
210
0.0
220
0.0
230
1.0
 70
     8
 71
     3
 72
     9
 73
     5
 74
     0
 42
0.00000001
 43
0.00000001
 40
0.0
 40
0.0
 40
0.0
 40
0.0
 40
0.5064503176128533
 40
1.0
 40
1.0
 40
1.0
 40
1.0
 10
-11.13975793123244
 20
-9.065305000000013
 30
0.0
 10
-10.99245543167999
 20
-9.934539412480014
 30
0.0
 10
-10.77092749999999
 20
-10.76465875000001
 30
0.0
 10
-10.85118444867377
 20
-10.4893485039711
 30
0.0
 10
-10.77092749999999
 20
-10.76465875000001
 30
0.0
  0
SPLINE
  5
C8
330
1F
100
AcDbEntity
  8
0
  6
Continuous
 62
     7
100
AcDbSpline
210
0.0
220
0.0
230
1.0
 70
     8
 71
     3
 72
     9
 73
     5
 74
     0
 42
0.00000001
 43
0.00000001
 40
0.0
 40
0.0
 40
0.0
 40
0.0
 40
0.5676757292641822
 40
1.0
 40
1.0
 40
1.0
 40
1.0
 10
-10.77092438936232
 20
-10.76465875000001
 30
0.0
 10
-10.17354036783999
 20
-12.13136795288002
 30
0.0
 10
-9.59179124999999
 20
-13.10702250000001
 30
0.0
 10
-9.794844070558531
 20
-12.78650144113079
 30
0.0
 10
-9.59179124999999
 20
-13.10702250000001
 30
0.0
  0
SPLINE
  5
C9
330
1F
100
AcDbEntity
  8
0
  6
Continuous
 62
     7
100
AcDbSpline
210
0.0
220
0.0
230
1.0
 70
     8
 71
     3
 72
     9
 73
     5
 74
     0
 42
0.00000001
 43
0.00000001
 40
0.0
 40
0.0
 40
0.0
 40
0.0
 40
0.5356013688568356
 40
1.0
 40
1.0
 40
1.0
 40
1.0
 10
-9.591788053512559
 20
-13.10702250000001
 30
0.0
 10
-9.150007794319988
 20
-13.65801080192001
 30
0.0
 10
-8.74120749999999
 20
-14.11391125000001
 30
0.0
 10
-8.879467325422457
 20
-13.96363481251029
 30
0.0
 10
-8.74120749999999
 20
-14.11391125000001
 30
0.0
  0
SPLINE
  5
CA
330
1F
100
AcDbEntity
  8
0
  6
Continuous
 62
     7
100
AcDbSpline
210
0.0
220
0.0
230
1.0
 70
     8
 71
     3
 72
    10
 73
     6
 74
     0
 42
0.00000001
 43
0.00000001
 40
0.0
 40
0.0
 40
0.0
 40
0.0
 40
0.2585684326883822
 40
0.4089676584836411
 40
1.0
 40
1.0
 40
1.0
 40
1.0
 10
-8.741207420825944
 20
-14.11391125000001
 30
0.0
 10
-8.27345652343749
 20
-14.65007054687501
 30
0.0
 10
-8.17528562499999
 20
-15.05212093750001
 30
0.0
 10
-9.290012499999989
 20
-16.23638875000001
 30
0.0
 10
-8.732304584921808
 20
-15.90402564039779
 30
0.0
 10
-9.290012499999989
 20
-16.23638875000001
 30
0.0
  0
SPLINE
  5
CB
330
1F
100
AcDbEntity
  8
0
  6
Continuous
 62
     7
100
AcDbSpline
210
0.0
220
0.0
230
1.0
 70
     8
 71
     3
 72
    10
 73
     6
 74
     0
 42
0.00000001
 43
0.00000001
 40
0.0
 40
0.0
 40
0.0
 40
0.0
 40
0.7352063518372295
 40
0.9308220164795235
 40
1.0
 40
1.0
 40
1.0
 40
1.0
 10
-9.290009737014756
 20
-16.23638875000001
 30
0.0
 10
-10.11648906111999
 20
-16.94721532296002
 30
0.0
 10
-10.34032582047351
 20
-17.13166892993152
 30
0.0
 10
-10.42249374999999
 20
-17.19306500000001
 30
0.0
 10
-10.39497472254804
 20
-17.17276547875716
 30
0.0
 10
-10.42249374999999
 20
-17.19306500000001
 30
0.0
  0
SPLINE
  5
CC
330
1F
100
AcDbEntity
  8
0
  6
Continuous
 62
     7
100
AcDbSpline
210
0.0
220
0.0
230
1.0
 70
     8
 71
     3
 72
     9
 73
     5
 74
     0
 42
0.00000001
 43
0.00000001
 40
0.0
 40
0.0
 40
0.0
 40
0.0
 40
0.5556125427909543
 40
1.0
 40
1.0
 40
1.0
 40
1.0
 10
-10.42249053716658
 20
-17.19306500000001
 30
0.0
 10
-10.78495170083113
 20
-17.24846857294974
 30
0.0
 10
-11.06661999999999
 20
-17.16680000000001
 30
0.0
 10
-10.97334039350313
 20
-17.2033536020386
 30
0.0
 10
-11.06661999999999
 20
-17.16680000000001
 30
0.0
  0
SPLINE
  5
CD
330
1F
100
AcDbEntity
  8
0
  6
Continuous
 62
     7
100
AcDbSpline
210
0.0
220
0.0
230
1.0
 70
     8
 71
     3
 72
     9
 73
     5
 74
     0
 42
0.00000001
 43
0.00000001
 40
0.0
 40
0.0
 40
0.0
 40
0.0
 40
0.5586790185425128
 40
1.0
 40
1.0
 40
1.0
 40
1.0
 10
-14.96775448322295
 20
-6.979073750000013
 30
0.0
 10
-13.93800725463999
 20
-2.995407693840012
 30
0.0
 10
-12.24521249999999
 20
-0.220746250000014
 30
0.0
 10
-12.87415740450898
 20
-1.118258109439347
 30
0.0
 10
-12.24521249999999
 20
-0.220746250000014
 30
0.0
  0
SPLINE
  5
CE
330
1F
100
AcDbEntity
  8
0
  6
Continuous
 62
     7
100
AcDbSpline
210
0.0
220
0.0
230
1.0
 70
     8
 71
     3
 72
     9
 73
     5
 74
     0
 42
0.00000001
 43
0.00000001
 40
0.0
 40
0.0
 40
0.0
 40
0.0
 40
0.5503665554707601
 40
1.0
 40
1.0
 40
1.0
 40
1.0
 10
-9.572274982929216
 20
-2.949803750000014
 30
0.0
 10
-9.951879030799992
 20
-3.540480787440013
 30
0.0
 10
-10.23218374999999
 20
-4.040957500000014
 30
0.0
 10
-10.1409835765739
 20
-3.872789714979224
 30
0.0
 10
-10.23218374999999
 20
-4.040957500000014
 30
0.0
  0
SPLINE
  5
CF
330
1F
100
AcDbEntity
  8
0
  6
Continuous
 62
     7
100
AcDbSpline
210
0.0
220
0.0
230
1.0
 70
     8
 71
     3
 72
     9
 73
     5
 74
     0
 42
0.00000001
 43
0.00000001
 40
0.0
 40
0.0
 40
0.0
 40
0.0
 40
0.5220048434436586
 40
0.9999999999999999
 40
0.9999999999999999
 40
0.9999999999999999
 40
0.9999999999999999
 10
-10.23218035697936
 20
-4.040957500000014
 30
0.0
 10
-10.85488809351999
 20
-5.610541316640013
 30
0.0
 10
-11.16492374999999
 20
-7.125372500000014
 30
0.0
 10
-11.08230537600987
 20
-6.614248505937004
 30
0.0
 10
-11.16492374999999
 20
-7.125372500000014
 30
0.0
  0
SPLINE
  5
D0
330
1F
100
AcDbEntity
  8
0
  6
Continuous
 62
     7
100
AcDbSpline
210
0.0
220
0.0
230
1.0
 70
     8
 71
     3
 72
     9
 73
     5
 74
     0
 42
0.00000001
 43
0.00000001
 40
0.0
 40
0.0
 40
0.0
 40
0.0
 40
0.54954937014138
 40
0.9999999999999999
 40
0.9999999999999999
 40
0.9999999999999999
 40
0.9999999999999999
 10
-10.66754758358
 20
1.424851249999987
 30
0.0
 10
-9.317879525439992
 20
2.445232086159986
 30
0.0
 10
-8.12122499999999
 20
3.146242499999989
 30
0.0
 10
-8.526894261189778
 20
2.922735123374467
 30
0.0
 10
-8.12122499999999
 20
3.146242499999989
 30
0.0
  0
SPLINE
  5
D1
330
1F
100
AcDbEntity
  8
0
  6
Continuous
 62
     7
100
AcDbSpline
210
0.0
220
0.0
230
1.0
 70
     8
 71
     3
 72
     9
 73
     5
 74
     0
 42
0.00000001
 43
0.00000001
 40
0.0
 40
0.0
 40
0.0
 40
0.0
 40
0.5433643441727467
 40
1.0
 40
1.0
 40
1.0
 40
1.0
 10
-8.121222257614122
 20
3.146242499999989
 30
0.0
 10
-5.682912128319991
 20
4.086927965439986
 30
0.0
 10
-3.520171249999991
 20
4.469551249999983
 30
0.0
 10
-4.249732016106276
 20
4.373054939857842
 30
0.0
 10
-3.520171249999991
 20
4.469551249999983
 30
0.0
  0
SPLINE
  5
D2
330
1F
100
AcDbEntity
  8
0
  6
Continuous
 62
     7
100
AcDbSpline
210
0.0
220
0.0
230
1.0
 70
     8
 71
     3
 72
     9
 73
     5
 74
     0
 42
0.00000001
 43
0.00000001
 40
0.0
 40
0.0
 40
0.0
 40
0.0
 40
0.4849043919551072
 40
1.0
 40
1.0
 40
1.0
 40
1.0
 10
-3.398241475224481
 20
0.6404449999999872
 30
0.0
 10
-4.051179918559991
 20
0.5513642689599867
 30
0.0
 10
-4.734872499999992
 20
0.4010699999999859
 30
0.0
 10
-4.507824816077367
 20
0.4559470759037266
 30
0.0
 10
-4.734872499999992
 20
0.4010699999999859
 30
0.0
  0
SPLINE
  5
D3
330
1F
100
AcDbEntity
  8
0
  6
Continuous
 62
     7
100
AcDbSpline
210
0.0
220
0.0
230
1.0
 70
     8
 71
     3
 72
     9
 73
     5
 74
     0
 42
0.00000001
 43
0.00000001
 40
0.0
 40
0.0
 40
0.0
 40
0.0
 40
0.5702432713303982
 40
1.0
 40
1.0
 40
1.0
 40
1.0
 10
-4.734870046377168
 20
0.4010699999999859
 30
0.0
 10
-6.601204659999992
 20
-0.3405016896000138
 30
0.0
 10
-7.87247124999999
 20
-1.161828750000011
 30
0.0
 10
-7.458404815536634
 20
-0.8692547298733443
 30
0.0
 10
-7.87247124999999
 20
-1.161828750000011
 30
0.0
  0
SPLINE
  5
D4
330
1F
100
AcDbEntity
  8
0
  6
Continuous
 62
     7
100
AcDbSpline
210
0.0
220
0.0
230
1.0
 70
     8
 71
     3
 72
     9
 73
     5
 74
     0
 42
0.00000001
 43
0.00000001
 40
0.0
 40
0.0
 40
0.0
 40
0.0
 40
0.6981389559275526
 40
1.0
 40
1.0
 40
1.0
 40
1.0
 10
-7.872469723224626
 20
-1.161828750000011
 30
0.0
 10
-8.059869403599992
 20
-1.311330471600013
 30
0.0
 10
-8.143764999999988
 20
-1.372203750000013
 30
0.0
 10
-8.115655521826879
 20
-1.352102236828832
 30
0.0
 10
-8.143764999999988
 20
-1.372203750000013
 30
0.0
  0
SPLINE
  5
D5
330
1F
100
AcDbEntity
  8
0
  6
Continuous
 62
     7
100
AcDbSpline
210
0.0
220
0.0
230
1.0
 70
     8
 71
     3
 72
    12
 73
     8
 74
     0
 42
0.00000001
 43
0.00000001
 40
0.0
 40
0.0
 40
0.0
 40
0.0
 40
0.0023205286085122
 40
0.0068459051895439
 40
0.0230095878405916
 40
0.0827341569810292
 40
1.0
 40
1.0
 40
1.0
 40
1.0
 10
-8.143760263919816
 20
-1.372203750000013
 30
0.0
 10
-8.148161357612599
 20
-1.372002473754896
 30
0.0
 10
-8.155942999572744
 20
-1.368360444335951
 30
0.0
 10
-8.181308176269521
 20
-1.351087421875014
 30
0.0
 10
-8.268768378906241
 20
-1.278918593750014
 30
0.0
 10
-9.52463874999999
 20
-0.0724362500000133
 30
0.0
 10
-9.11581427082567
 20
-0.4824310780369508
 30
0.0
 10
-9.524638749999992
 20
-0.0724362500000133
 30
0.0
  0
SPLINE
  5
D6
330
1F
100
AcDbEntity
  8
0
  6
Continuous
 62
     7
100
AcDbSpline
210
0.0
220
0.0
230
1.0
 70
     8
 71
     3
 72
    10
 73
     6
 74
     0
 42
0.00000001
 43
0.00000001
 40
0.0
 40
0.0
 40
0.0
 40
0.0
 40
0.2147128575002866
 40
0.4825216097729242
 40
1.0
 40
1.0
 40
1.0
 40
1.0
 10
-11.06661558151244
 20
-17.16680000000001
 30
0.0
 10
-11.46844362618143
 20
-16.79785780501636
 30
0.0
 10
-11.92249575247999
 20
-16.29110701792001
 30
0.0
 10
-12.73438874999999
 20
-15.25700625000002
 30
0.0
 10
-12.46838963237613
 20
-15.60515904530274
 30
0.0
 10
-12.73438874999999
 20
-15.25700625000002
 30
0.0
  0
SPLINE
  5
D7
330
1F
100
AcDbEntity
  8
0
  6
Continuous
 62
     7
100
AcDbSpline
210
0.0
220
0.0
230
1.0
 70
     8
 71
     3
 72
     9
 73
     5
 74
     0
 42
0.00000001
 43
0.00000001
 40
0.0
 40
0.0
 40
0.0
 40
0.0
 40
0.5561388081811619
 40
1.0
 40
1.0
 40
1.0
 40
1.0
 10
-12.73438334465025
 20
-15.25700625000002
 30
0.0
 10
-14.29901292103999
 20
-12.21135416136001
 30
0.0
 10
-14.91737874999999
 20
-9.549465000000014
 30
0.0
 10
-14.75789065349521
 20
-10.45385869388863
 30
0.0
 10
-14.91737874999999
 20
-9.549465000000014
 30
0.0
  0
SPLINE
  5
D8
330
1F
100
AcDbEntity
  8
0
  6
Continuous
 62
     7
100
AcDbSpline
210
0.0
220
0.0
230
1.0
 70
     8
 71
     3
 72
     9
 73
     5
 74
     0
 42
0.00000001
 43
0.00000001
 40
0.0
 40
0.0
 40
0.0
 40
0.0
 40
0.7179790735388092
 40
1.0
 40
1.0
 40
1.0
 40
1.0
 10
-14.91737365722655
 20
-9.549465000000014
 30
0.0
 10
-14.97490000119999
 20
-9.053394517120013
 30
0.0
 10
-14.99222874999999
 20
-8.858000000000015
 30
0.0
 10
-14.98670009120912
 20
-8.92315683577374
 30
0.0
 10
-14.99222874999999
 20
-8.858000000000015
 30
0.0
  0
SPLINE
  5
D9
330
1F
100
AcDbEntity
  8
0
  6
Continuous
 62
     7
100
AcDbSpline
210
0.0
220
0.0
230
1.0
 70
     8
 71
     3
 72
    11
 73
     7
 74
     0
 42
0.00000001
 43
0.00000001
 40
0.0
 40
0.0
 40
0.0
 40
0.0
 40
0.0147725418306857
 40
0.0368326210477977
 40
0.279961796789672
 40
1.0
 40
1.0
 40
1.0
 40
1.0
 10
-14.99222218990325
 20
-8.858000000000015
 30
0.0
 10
-14.98398395507811
 20
-8.83080629882814
 30
0.0
 10
-14.94702664062499
 20
-8.809959765625013
 30
0.0
 10
-14.48053563476561
 20
-8.777115478515636
 30
0.0
 10
-13.09559374999999
 20
-8.771200000000011
 30
0.0
 10
-13.56173058289075
 20
-8.78504037922356
 30
0.0
 10
-13.09559374999999
 20
-8.771200000000011
 30
0.0
  0
SPLINE
  5
DA
330
1F
100
AcDbEntity
  8
0
  6
Continuous
 62
     7
100
AcDbSpline
210
0.0
220
0.0
230
1.0
 70
     8
 71
     3
 72
    10
 73
     6
 74
     0
 42
0.00000001
 43
0.00000001
 40
0.0
 40
0.0
 40
0.0
 40
0.0
 40
0.8554241585328808
 40
0.9167176577165411
 40
1.0
 40
1.0
 40
1.0
 40
1.0
 10
-13.09558749198912
 20
-8.771200000000011
 30
0.0
 10
-11.26266576629638
 20
-8.815653990478527
 30
0.0
 10
-11.15252345703124
 20
-8.887259921875012
 30
0.0
 10
-11.13975999999999
 20
-9.065305000000013
 30
0.0
 10
-11.13087107458614
 20
-8.99844913355203
 30
0.0
 10
-11.13975999999999
 20
-9.065305000000013
 30
0.0
  0
SPLINE
  5
DB
330
1F
100
AcDbEntity
  8
0
  6
Continuous
 62
     7
100
AcDbSpline
210
0.0
220
0.0
230
1.0
 70
     8
 71
     3
 72
     9
 73
     5
 74
     0
 42
0.00000001
 43
0.00000001
 40
0.0
 40
0.0
 40
0.0
 40
0.0
 40
0.5064503176128533
 40
1.0
 40
1.0
 40
1.0
 40
1.0
 10
-11.13975793123244
 20
-9.065305000000013
 30
0.0
 10
-10.99245543167999
 20
-9.934539412480014
 30
0.0
 10
-10.77092749999999
 20
-10.76465875000001
 30
0.0
 10
-10.85118444867377
 20
-10.4893485039711
 30
0.0
 10
-10.77092749999999
 20
-10.76465875000001
 30
0.0
  0
SPLINE
  5
DC
330
1F
100
AcDbEntity
  8
0
  6
Continuous
 62
     7
100
AcDbSpline
210
0.0
220
0.0
230
1.0
 70
     8
 71
     3
 72
     9
 73
     5
 74
     0
 42
0.00000001
 43
0.00000001
 40
0.0
 40
0.0
 40
0.0
 40
0.0
 40
0.5676757292641822
 40
1.0
 40
1.0
 40
1.0
 40
1.0
 10
-10.77092438936232
 20
-10.76465875000001
 30
0.0
 10
-10.17354036783999
 20
-12.13136795288002
 30
0.0
 10
-9.59179124999999
 20
-13.10702250000001
 30
0.0
 10
-9.794844070558531
 20
-12.78650144113079
 30
0.0
 10
-9.59179124999999
 20
-13.10702250000001
 30
0.0
  0
SPLINE
  5
DD
330
1F
100
AcDbEntity
  8
0
  6
Continuous
 62
     7
100
AcDbSpline
210
0.0
220
0.0
230
1.0
 70
     8
 71
     3
 72
     9
 73
     5
 74
     0
 42
0.00000001
 43
0.00000001
 40
0.0
 40
0.0
 40
0.0
 40
0.0
 40
0.5356013688568356
 40
1.0
 40
1.0
 40
1.0
 40
1.0
 10
-9.591788053512559
 20
-13.10702250000001
 30
0.0
 10
-9.150007794319988
 20
-13.65801080192001
 30
0.0
 10
-8.74120749999999
 20
-14.11391125000001
 30
0.0
 10
-8.879467325422457
 20
-13.96363481251029
 30
0.0
 10
-8.74120749999999
 20
-14.11391125000001
 30
0.0
  0
SPLINE
  5
DE
330
1F
100
AcDbEntity
  8
0
  6
Continuous
 62
     7
100
AcDbSpline
210
0.0
220
0.0
230
1.0
 70
     8
 71
     3
 72
    10
 73
     6
 74
     0
 42
0.00000001
 43
0.00000001
 40
0.0
 40
0.0
 40
0.0
 40
0.0
 40
0.2585684326883822
 40
0.4089676584836411
 40
1.0
 40
1.0
 40
1.0
 40
1.0
 10
-8.741207420825944
 20
-14.11391125000001
 30
0.0
 10
-8.27345652343749
 20
-14.65007054687501
 30
0.0
 10
-8.17528562499999
 20
-15.05212093750001
 30
0.0
 10
-9.290012499999989
 20
-16.23638875000001
 30
0.0
 10
-8.732304584921808
 20
-15.90402564039779
 30
0.0
 10
-9.290012499999989
 20
-16.23638875000001
 30
0.0
  0
SPLINE
  5
DF
330
1F
100
AcDbEntity
  8
0
  6
Continuous
 62
     7
100
AcDbSpline
210
0.0
220
0.0
230
1.0
 70
     8
 71
     3
 72
    10
 73
     6
 74
     0
 42
0.00000001
 43
0.00000001
 40
0.0
 40
0.0
 40
0.0
 40
0.0
 40
0.7352063518372295
 40
0.9308220164795235
 40
1.0
 40
1.0
 40
1.0
 40
1.0
 10
-9.290009737014756
 20
-16.23638875000001
 30
0.0
 10
-10.11648906111999
 20
-16.94721532296002
 30
0.0
 10
-10.34032582047351
 20
-17.13166892993152
 30
0.0
 10
-10.42249374999999
 20
-17.19306500000001
 30
0.0
 10
-10.39497472254804
 20
-17.17276547875716
 30
0.0
 10
-10.42249374999999
 20
-17.19306500000001
 30
0.0
  0
SPLINE
  5
E0
330
1F
100
AcDbEntity
  8
0
  6
Continuous
 62
     7
100
AcDbSpline
210
0.0
220
0.0
230
1.0
 70
     8
 71
     3
 72
     9
 73
     5
 74
     0
 42
0.00000001
 43
0.00000001
 40
0.0
 40
0.0
 40
0.0
 40
0.0
 40
0.5556125427909543
 40
1.0
 40
1.0
 40
1.0
 40
1.0
 10
-10.42249053716658
 20
-17.19306500000001
 30
0.0
 10
-10.78495170083113
 20
-17.24846857294974
 30
0.0
 10
-11.06661999999999
 20
-17.16680000000001
 30
0.0
 10
-10.97334039350313
 20
-17.2033536020386
 30
0.0
 10
-11.06661999999999
 20
-17.16680000000001
 30
0.0
  0
SPLINE
  5
E1
330
1F
100
AcDbEntity
  8
0
  6
Continuous
 62
     7
100
AcDbSpline
210
0.0
220
0.0
230
1.0
 70
     8
 71
     3
 72
     9
 73
     5
 74
     0
 42
0.00000001
 43
0.00000001
 40
0.0
 40
0.0
 40
0.0
 40
0.0
 40
0.5586790185425128
 40
1.0
 40
1.0
 40
1.0
 40
1.0
 10
-14.96775448322295
 20
-6.979073750000013
 30
0.0
 10
-13.93800725463999
 20
-2.995407693840012
 30
0.0
 10
-12.24521249999999
 20
-0.220746250000014
 30
0.0
 10
-12.87415740450898
 20
-1.118258109439347
 30
0.0
 10
-12.24521249999999
 20
-0.220746250000014
 30
0.0
  0
SPLINE
  5
E2
330
1F
100
AcDbEntity
  8
0
  6
Continuous
 62
     7
100
AcDbSpline
210
0.0
220
0.0
230
1.0
 70
     8
 71
     3
 72
     9
 73
     5
 74
     0
 42
0.00000001
 43
0.00000001
 40
0.0
 40
0.0
 40
0.0
 40
0.0
 40
0.5503665554707601
 40
1.0
 40
1.0
 40
1.0
 40
1.0
 10
-9.572274982929216
 20
-2.949803750000014
 30
0.0
 10
-9.951879030799992
 20
-3.540480787440013
 30
0.0
 10
-10.23218374999999
 20
-4.040957500000014
 30
0.0
 10
-10.1409835765739
 20
-3.872789714979224
 30
0.0
 10
-10.23218374999999
 20
-4.040957500000014
 30
0.0
  0
SPLINE
  5
E3
330
1F
100
AcDbEntity
  8
0
  6
Continuous
 62
     7
100
AcDbSpline
210
0.0
220
0.0
230
1.0
 70
     8
 71
     3
 72
     9
 73
     5
 74
     0
 42
0.00000001
 43
0.00000001
 40
0.0
 40
0.0
 40
0.0
 40
0.0
 40
0.5220048434436586
 40
0.9999999999999999
 40
0.9999999999999999
 40
0.9999999999999999
 40
0.9999999999999999
 10
-10.23218035697936
 20
-4.040957500000014
 30
0.0
 10
-10.85488809351999
 20
-5.610541316640013
 30
0.0
 10
-11.16492374999999
 20
-7.125372500000014
 30
0.0
 10
-11.08230537600987
 20
-6.614248505937004
 30
0.0
 10
-11.16492374999999
 20
-7.125372500000014
 30
0.0
  0
SPLINE
  5
E4
330
1F
100
AcDbEntity
  8
0
  6
Continuous
 62
     7
100
AcDbSpline
210
0.0
220
0.0
230
1.0
 70
     8
 71
     3
 72
     9
 73
     5
 74
     0
 42
0.00000001
 43
0.00000001
 40
0.0
 40
0.0
 40
0.0
 40
0.0
 40
0.54954937014138
 40
0.9999999999999999
 40
0.9999999999999999
 40
0.9999999999999999
 40
0.9999999999999999
 10
-10.66754758358
 20
1.424851249999987
 30
0.0
 10
-9.317879525439992
 20
2.445232086159986
 30
0.0
 10
-8.12122499999999
 20
3.146242499999989
 30
0.0
 10
-8.526894261189778
 20
2.922735123374467
 30
0.0
 10
-8.12122499999999
 20
3.146242499999989
 30
0.0
  0
SPLINE
  5
E5
330
1F
100
AcDbEntity
  8
0
  6
Continuous
 62
     7
100
AcDbSpline
210
0.0
220
0.0
230
1.0
 70
     8
 71
     3
 72
     9
 73
     5
 74
     0
 42
0.00000001
 43
0.00000001
 40
0.0
 40
0.0
 40
0.0
 40
0.0
 40
0.5433643441727467
 40
1.0
 40
1.0
 40
1.0
 40
1.0
 10
-8.121222257614122
 20
3.146242499999989
 30
0.0
 10
-5.682912128319991
 20
4.086927965439986
 30
0.0
 10
-3.520171249999991
 20
4.469551249999983
 30
0.0
 10
-4.249732016106276
 20
4.373054939857842
 30
0.0
 10
-3.520171249999991
 20
4.469551249999983
 30
0.0
  0
SPLINE
  5
E6
330
1F
100
AcDbEntity
  8
0
  6
Continuous
 62
     7
100
AcDbSpline
210
0.0
220
0.0
230
1.0
 70
     8
 71
     3
 72
     9
 73
     5
 74
     0
 42
0.00000001
 43
0.00000001
 40
0.0
 40
0.0
 40
0.0
 40
0.0
 40
0.4849043919551072
 40
1.0
 40
1.0
 40
1.0
 40
1.0
 10
-3.398241475224481
 20
0.6404449999999872
 30
0.0
 10
-4.051179918559991
 20
0.5513642689599867
 30
0.0
 10
-4.734872499999992
 20
0.4010699999999859
 30
0.0
 10
-4.507824816077367
 20
0.4559470759037266
 30
0.0
 10
-4.734872499999992
 20
0.4010699999999859
 30
0.0
  0
SPLINE
  5
E7
330
1F
100
AcDbEntity
  8
0
  6
Continuous
 62
     7
100
AcDbSpline
210
0.0
220
0.0
230
1.0
 70
     8
 71
     3
 72
     9
 73
     5
 74
     0
 42
0.00000001
 43
0.00000001
 40
0.0
 40
0.0
 40
0.0
 40
0.0
 40
0.5702432713303982
 40
1.0
 40
1.0
 40
1.0
 40
1.0
 10
-4.734870046377168
 20
0.4010699999999859
 30
0.0
 10
-6.601204659999992
 20
-0.3405016896000138
 30
0.0
 10
-7.87247124999999
 20
-1.161828750000011
 30
0.0
 10
-7.458404815536634
 20
-0.8692547298733443
 30
0.0
 10
-7.87247124999999
 20
-1.161828750000011
 30
0.0
  0
SPLINE
  5
E8
330
1F
100
AcDbEntity
  8
0
  6
Continuous
 62
     7
100
AcDbSpline
210
0.0
220
0.0
230
1.0
 70
     8
 71
     3
 72
     9
 73
     5
 74
     0
 42
0.00000001
 43
0.00000001
 40
0.0
 40
0.0
 40
0.0
 40
0.0
 40
0.6981389559275526
 40
1.0
 40
1.0
 40
1.0
 40
1.0
 10
-7.872469723224626
 20
-1.161828750000011
 30
0.0
 10
-8.059869403599992
 20
-1.311330471600013
 30
0.0
 10
-8.143764999999988
 20
-1.372203750000013
 30
0.0
 10
-8.115655521826879
 20
-1.352102236828832
 30
0.0
 10
-8.143764999999988
 20
-1.372203750000013
 30
0.0
  0
SPLINE
  5
E9
330
1F
100
AcDbEntity
  8
0
  6
Continuous
 62
     7
100
AcDbSpline
210
0.0
220
0.0
230
1.0
 70
     8
 71
     3
 72
    12
 73
     8
 74
     0
 42
0.00000001
 43
0.00000001
 40
0.0
 40
0.0
 40
0.0
 40
0.0
 40
0.0023205286085122
 40
0.0068459051895439
 40
0.0230095878405916
 40
0.0827341569810292
 40
1.0
 40
1.0
 40
1.0
 40
1.0
 10
-8.143760263919816
 20
-1.372203750000013
 30
0.0
 10
-8.148161357612599
 20
-1.372002473754896
 30
0.0
 10
-8.155942999572744
 20
-1.368360444335951
 30
0.0
 10
-8.181308176269521
 20
-1.351087421875014
 30
0.0
 10
-8.268768378906241
 20
-1.278918593750014
 30
0.0
 10
-9.52463874999999
 20
-0.0724362500000133
 30
0.0
 10
-9.11581427082567
 20
-0.4824310780369508
 30
0.0
 10
-9.524638749999992
 20
-0.0724362500000133
 30
0.0
  0
SPLINE
  5
EA
330
1F
100
AcDbEntity
  8
0
  6
Continuous
 62
     7
100
AcDbSpline
210
0.0
220
0.0
230
1.0
 70
     8
 71
     3
 72
    10
 73
     6
 74
     0
 42
0.00000001
 43
0.00000001
 40
0.0
 40
0.0
 40
0.0
 40
0.0
 40
0.2147113616728511
 40
0.4825206230041764
 40
0.9999999999999999
 40
0.9999999999999999
 40
0.9999999999999999
 40
0.9999999999999999
 10
6.066653877496734
 20
-17.17063500000001
 30
0.0
 10
6.468479816056993
 20
-16.80169957107736
 30
0.0
 10
6.92253218960001
 20
-16.29495116608001
 30
0.0
 10
7.734421250000008
 20
-15.26085125000001
 30
0.0
 10
7.468423846655334
 20
-15.60900406022015
 30
0.0
 10
7.734421250000008
 20
-15.26085125000001
 30
0.0
  0
SPLINE
  5
EB
330
1F
100
AcDbEntity
  8
0
  6
Continuous
 62
     7
100
AcDbSpline
210
0.0
220
0.0
230
1.0
 70
     8
 71
     3
 72
     9
 73
     5
 74
     0
 42
0.00000001
 43
0.00000001
 40
0.0
 40
0.0
 40
0.0
 40
0.0
 40
0.5561397039466318
 40
1.0
 40
1.0
 40
1.0
 40
1.0
 10
7.734417915344252
 20
-15.26085125000001
 30
0.0
 10
9.299061441520006
 20
-12.21519838072001
 30
0.0
 10
9.91742250000001
 20
-9.553312500000015
 30
0.0
 10
9.75793674084036
 20
-10.45770542958951
 30
0.0
 10
9.91742250000001
 20
-9.553312500000015
 30
0.0
  0
SPLINE
  5
EC
330
1F
100
AcDbEntity
  8
0
  6
Continuous
 62
     7
100
AcDbSpline
210
0.0
220
0.0
230
1.0
 70
     8
 71
     3
 72
     9
 73
     5
 74
     0
 42
0.00000001
 43
0.00000001
 40
0.0
 40
0.0
 40
0.0
 40
0.0
 40
0.7179771724878895
 40
0.9999999999999999
 40
0.9999999999999999
 40
0.9999999999999999
 40
0.9999999999999999
 10
9.917415678501143
 20
-9.553312500000015
 30
0.0
 10
9.974942228000009
 20
-9.057240762720014
 30
0.0
 10
9.99229750000001
 20
-8.861846250000013
 30
0.0
 10
9.986758768886528
 20
-8.927002975120827
 30
0.0
 10
9.99229750000001
 20
-8.861846250000013
 30
0.0
  0
SPLINE
  5
ED
330
1F
100
AcDbEntity
  8
0
  6
Continuous
 62
     7
100
AcDbSpline
210
0.0
220
0.0
230
1.0
 70
     8
 71
     3
 72
    11
 73
     7
 74
     0
 42
0.00000001
 43
0.00000001
 40
0.0
 40
0.0
 40
0.0
 40
0.0
 40
0.0147733148387302
 40
0.0368356571098666
 40
0.2799727296524423
 40
0.9999999999999999
 40
0.9999999999999999
 40
0.9999999999999999
 40
0.9999999999999999
 10
9.992294013500228
 20
-8.861846250000013
 30
0.0
 10
9.98405065185548
 20
-8.834652548828137
 30
0.0
 10
9.947088339843761
 20
-8.813806015625012
 30
0.0
 10
9.4805821069336
 20
-8.780961728515637
 30
0.0
 10
8.095661250000012
 20
-8.775046250000011
 30
0.0
 10
8.561790128218025
 20
-8.788882303848023
 30
0.0
 10
8.095661250000012
 20
-8.775046250000011
 30
0.0
  0
SPLINE
  5
EE
330
1F
100
AcDbEntity
  8
0
  6
Continuous
 62
     7
100
AcDbSpline
210
0.0
220
0.0
230
1.0
 70
     8
 71
     3
 72
    10
 73
     6
 74
     0
 42
0.00000001
 43
0.00000001
 40
0.0
 40
0.0
 40
0.0
 40
0.0
 40
0.8554247626602716
 40
0.9167186771856582
 40
1.0
 40
1.0
 40
1.0
 40
1.0
 10
8.095659315586104
 20
-8.775046250000011
 30
0.0
 10
6.262712782287606
 20
-8.81950024047853
 30
0.0
 10
6.152567402343757
 20
-8.891106171875014
 30
0.0
 10
6.139802500000006
 20
-9.069151250000015
 30
0.0
 10
6.130914168867593
 20
-9.002295260186564
 30
0.0
 10
6.139802500000007
 20
-9.069151250000017
 30
0.0
  0
SPLINE
  5
EF
330
1F
100
AcDbEntity
  8
0
  6
Continuous
 62
     7
100
AcDbSpline
210
0.0
220
0.0
230
1.0
 70
     8
 71
     3
 72
     9
 73
     5
 74
     0
 42
0.00000001
 43
0.00000001
 40
0.0
 40
0.0
 40
0.0
 40
0.0
 40
0.5064503532731089
 40
1.0
 40
1.0
 40
1.0
 40
1.0
 10
6.139799952507033
 20
-9.069151250000015
 30
0.0
 10
5.992501977120005
 20
-9.93838577112001
 30
0.0
 10
5.770981250000006
 20
-10.76850625000001
 30
0.0
 10
5.851235568410616
 20
-10.49319552829854
 30
0.0
 10
5.770981250000006
 20
-10.76850625000001
 30
0.0
  0
SPLINE
  5
F0
330
1F
100
AcDbEntity
  8
0
  6
Continuous
 62
     7
100
AcDbSpline
210
0.0
220
0.0
230
1.0
 70
     8
 71
     3
 72
     9
 73
     5
 74
     0
 42
0.00000001
 43
0.00000001
 40
0.0
 40
0.0
 40
0.0
 40
0.0
 40
0.5676750970808467
 40
1.0
 40
1.0
 40
1.0
 40
1.0
 10
5.770977586507811
 20
-10.76850625000001
 30
0.0
 10
5.173594196240007
 20
-12.13521316584001
 30
0.0
 10
4.591842500000013
 20
-13.11086750000001
 30
0.0
 10
4.79489632936805
 20
-12.79034660201787
 30
0.0
 10
4.591842500000014
 20
-13.11086750000001
 30
0.0
  0
SPLINE
  5
F1
330
1F
100
AcDbEntity
  8
0
  6
Continuous
 62
     7
100
AcDbSpline
210
0.0
220
0.0
230
1.0
 70
     8
 71
     3
 72
     9
 73
     5
 74
     0
 42
0.00000001
 43
0.00000001
 40
0.0
 40
0.0
 40
0.0
 40
0.0
 40
0.5356010706051874
 40
1.0
 40
1.0
 40
1.0
 40
1.0
 10
4.591841250658049
 20
-13.11086750000001
 30
0.0
 10
4.150059781280008
 20
-13.66185458224001
 30
0.0
 10
3.741260000000007
 20
-14.11775625000002
 30
0.0
 10
3.879519499213408
 20
-13.9674792751183
 30
0.0
 10
3.741260000000007
 20
-14.11775625000002
 30
0.0
  0
SPLINE
  5
F2
330
1F
100
AcDbEntity
  8
0
  6
Continuous
 62
     7
100
AcDbSpline
210
0.0
220
0.0
230
1.0
 70
     8
 71
     3
 72
    10
 73
     6
 74
     0
 42
0.00000001
 43
0.00000001
 40
0.0
 40
0.0
 40
0.0
 40
0.0
 40
0.2585682907691992
 40
0.4089675176425559
 40
0.9999999999999999
 40
0.9999999999999999
 40
0.9999999999999999
 40
0.9999999999999999
 10
3.741258755326285
 20
-14.11775625000002
 30
0.0
 10
3.273508496093758
 20
-14.65391554687502
 30
0.0
 10
3.175337656250008
 20
-15.05596593750001
 30
0.0
 10
4.290065000000006
 20
-16.24023375000001
 30
0.0
 10
3.732356869125714
 20
-15.90787068113687
 30
0.0
 10
4.290065000000006
 20
-16.24023375000001
 30
0.0
  0
SPLINE
  5
F3
330
1F
100
AcDbEntity
  8
0
  6
Continuous
 62
     7
100
AcDbSpline
210
0.0
220
0.0
230
1.0
 70
     8
 71
     3
 72
    10
 73
     6
 74
     0
 42
0.00000001
 43
0.00000001
 40
0.0
 40
0.0
 40
0.0
 40
0.0
 40
0.7352067673926282
 40
0.9308230010071905
 40
1.0
 40
1.0
 40
1.0
 40
1.0
 10
4.290062934160247
 20
-16.24023375000001
 30
0.0
 10
5.116540641600007
 20
-16.95106032296001
 30
0.0
 10
5.340377859106923
 20
-17.13551392993152
 30
0.0
 10
5.422543750000005
 20
-17.19691000000001
 30
0.0
 10
5.39502544245473
 20
-17.17661042542532
 30
0.0
 10
5.422543750000005
 20
-17.19691000000001
 30
0.0
  0
SPLINE
  5
F4
330
1F
100
AcDbEntity
  8
0
  6
Continuous
 62
     7
100
AcDbSpline
210
0.0
220
0.0
230
1.0
 70
     8
 71
     3
 72
     9
 73
     5
 74
     0
 42
0.00000001
 43
0.00000001
 40
0.0
 40
0.0
 40
0.0
 40
0.0
 40
0.5556089009544187
 40
1.0
 40
1.0
 40
1.0
 40
1.0
 10
5.422543734312072
 20
-17.19691000000001
 30
0.0
 10
5.784994807920007
 20
-17.25230690240002
 30
0.0
 10
6.066657500000004
 20
-17.17063500000001
 30
0.0
 10
5.973379901797022
 20
-17.20718968816941
 30
0.0
 10
6.066657500000004
 20
-17.17063500000001
 30
0.0
  0
SPLINE
  5
F5
330
1F
100
AcDbEntity
  8
0
  6
Continuous
 62
     7
100
AcDbSpline
210
0.0
220
0.0
230
1.0
 70
     8
 71
     3
 72
     9
 73
     5
 74
     0
 42
0.00000001
 43
0.00000001
 40
0.0
 40
0.0
 40
0.0
 40
0.0
 40
0.5586785617304183
 40
1.0
 40
1.0
 40
1.0
 40
1.0
 10
9.96780395507814
 20
-6.982922500000011
 30
0.0
 10
8.938056983680008
 20
-2.999253013280012
 30
0.0
 10
7.245246250000013
 20
-0.2245912500000133
 30
0.0
 10
7.874197627211625
 20
-1.122102582909495
 30
0.0
 10
7.245246250000013
 20
-0.2245912500000133
 30
0.0
  0
SPLINE
  5
F6
330
1F
100
AcDbEntity
  8
0
  6
Continuous
 62
     7
100
AcDbSpline
210
0.0
220
0.0
230
1.0
 70
     8
 71
     3
 72
     9
 73
     5
 74
     0
 42
0.00000001
 43
0.00000001
 40
0.0
 40
0.0
 40
0.0
 40
0.0
 40
0.5503662412661822
 40
1.0
 40
1.0
 40
1.0
 40
1.0
 10
4.572309553623214
 20
-2.953648750000013
 30
0.0
 10
4.951909104800006
 20
-3.544325787440012
 30
0.0
 10
5.232211250000008
 20
-4.044802500000015
 30
0.0
 10
5.141011883235735
 20
-3.876634759957537
 30
0.0
 10
5.232211250000008
 20
-4.044802500000015
 30
0.0
  0
SPLINE
  5
F7
330
1F
100
AcDbEntity
  8
0
  6
Continuous
 62
     7
100
AcDbSpline
210
0.0
220
0.0
230
1.0
 70
     8
 71
     3
 72
     9
 73
     5
 74
     0
 42
0.00000001
 43
0.00000001
 40
0.0
 40
0.0
 40
0.0
 40
0.0
 40
0.5220051971413284
 40
1.0
 40
1.0
 40
1.0
 40
1.0
 10
5.232211202383056
 20
-4.044802500000015
 30
0.0
 10
5.854920368080007
 20
-5.614386316640012
 30
0.0
 10
6.164947500000009
 20
-7.129217500000011
 30
0.0
 10
6.082332671171424
 20
-6.6180933482024
 30
0.0
 10
6.164947500000009
 20
-7.129217500000011
 30
0.0
  0
SPLINE
  5
F8
330
1F
100
AcDbEntity
  8
0
  6
Continuous
 62
     7
100
AcDbSpline
210
0.0
220
0.0
230
1.0
 70
     8
 71
     3
 72
     9
 73
     5
 74
     0
 42
0.00000001
 43
0.00000001
 40
0.0
 40
0.0
 40
0.0
 40
0.0
 40
0.5495504195674316
 40
0.9999999999999999
 40
0.9999999999999999
 40
0.9999999999999999
 40
0.9999999999999999
 10
5.667585879564299
 20
1.421006249999986
 30
0.0
 10
4.317909225360005
 20
2.441387086159986
 30
0.0
 10
3.121255000000006
 20
3.142397499999987
 30
0.0
 10
3.526923945950843
 20
2.918889833506142
 30
0.0
 10
3.121255000000007
 20
3.142397499999988
 30
0.0
  0
SPLINE
  5
F9
330
1F
100
AcDbEntity
  8
0
  6
Continuous
 62
     7
100
AcDbSpline
210
0.0
220
0.0
230
1.0
 70
     8
 71
     3
 72
     9
 73
     5
 74
     0
 42
0.00000001
 43
0.00000001
 40
0.0
 40
0.0
 40
0.0
 40
0.0
 40
0.5433643181693482
 40
0.9999999999999999
 40
0.9999999999999999
 40
0.9999999999999999
 40
0.9999999999999999
 10
3.12125496566297
 20
3.142397499999987
 30
0.0
 10
0.6829434588800073
 20
4.083082965439987
 30
0.0
 10
-1.479798749999992
 20
4.465706249999986
 30
0.0
 10
-0.7502375430635778
 20
4.369209947931084
 30
0.0
 10
-1.479798749999992
 20
4.465706249999986
 30
0.0
  0
SPLINE
  5
FA
330
1F
100
AcDbEntity
  8
0
  6
Continuous
 62
     7
100
AcDbSpline
210
0.0
220
0.0
230
1.0
 70
     8
 71
     3
 72
     9
 73
     5
 74
     0
 42
0.00000001
 43
0.00000001
 40
0.0
 40
0.0
 40
0.0
 40
0.0
 40
0.4849040880443555
 40
1.0
 40
1.0
 40
1.0
 40
1.0
 10
-1.601699739694582
 20
0.6365999999999854
 30
0.0
 10
-0.9487635379199919
 20
0.5475192689599871
 30
0.0
 10
-0.2650724999999905
 20
0.3972249999999866
 30
0.0
 10
-0.4921196683718388
 20
0.4521020688388691
 30
0.0
 10
-0.2650724999999905
 20
0.3972249999999866
 30
0.0
  0
SPLINE
  5
FB
330
1F
100
AcDbEntity
  8
0
  6
Continuous
 62
     7
100
AcDbSpline
210
0.0
220
0.0
230
1.0
 70
     8
 71
     3
 72
     9
 73
     5
 74
     0
 42
0.00000001
 43
0.00000001
 40
0.0
 40
0.0
 40
0.0
 40
0.0
 40
0.5702428449953137
 40
1.0
 40
1.0
 40
1.0
 40
1.0
 10
-0.2650723326951127
 20
0.3972249999999866
 30
0.0
 10
1.601260505600009
 20
-0.3443466896000134
 30
0.0
 10
2.872528750000008
 20
-1.165673750000012
 30
0.0
 10
2.458461734614765
 20
-0.8730997808642483
 30
0.0
 10
2.872528750000008
 20
-1.165673750000012
 30
0.0
  0
SPLINE
  5
FC
330
1F
100
AcDbEntity
  8
0
  6
Continuous
 62
     7
100
AcDbSpline
210
0.0
220
0.0
230
1.0
 70
     8
 71
     3
 72
     9
 73
     5
 74
     0
 42
0.00000001
 43
0.00000001
 40
0.0
 40
0.0
 40
0.0
 40
0.0
 40
0.6981411626146804
 40
1.0
 40
1.0
 40
1.0
 40
1.0
 10
2.872528508305563
 20
-1.165673750000012
 30
0.0
 10
3.059926464560008
 20
-1.315175471600013
 30
0.0
 10
3.143820000000008
 20
-1.376048750000012
 30
0.0
 10
3.115711233365306
 20
-1.355947201390023
 30
0.0
 10
3.143820000000008
 20
-1.376048750000012
 30
0.0
  0
SPLINE
  5
FD
330
1F
100
AcDbEntity
  8
0
  6
Continuous
 62
     7
100
AcDbSpline
210
0.0
220
0.0
230
1.0
 70
     8
 71
     3
 72
    12
 73
     8
 74
     0
 42
0.00000001
 43
0.00000001
 40
0.0
 40
0.0
 40
0.0
 40
0.0
 40
0.0023185442838481
 40
0.0068439375089056
 40
0.0230076780578351
 40
0.0827324450396249
 40
1.0
 40
1.0
 40
1.0
 40
1.0
 10
3.143819049000754
 20
-1.376048750000012
 30
0.0
 10
3.148216364746102
 20
-1.375847473754896
 30
0.0
 10
3.155998027343758
 20
-1.37220544433595
 30
0.0
 10
3.181363281250007
 20
-1.354932421875013
 30
0.0
 10
3.268823750000008
 20
-1.282763593750013
 30
0.0
 10
4.524695000000009
 20
-0.0762812500000126
 30
0.0
 10
4.115870070374198
 20
-0.4862752541493678
 30
0.0
 10
4.524695000000009
 20
-0.0762812500000126
 30
0.0
  0
SPLINE
  5
FE
330
1F
100
AcDbEntity
  8
0
  6
Continuous
 62
     7
100
AcDbSpline
210
0.0
220
0.0
230
1.0
 70
     8
 71
     3
 72
     9
 73
     5
 74
     0
 42
0.00000001
 43
0.00000001
 40
0.0
 40
0.0
 40
0.0
 40
0.0
 40
0.5783501294987968
 40
1.0
 40
1.0
 40
1.0
 40
1.0
 10
-37.6748740673065
 20
14.049122
 30
0.0
 10
-37.746894004608
 20
14.109183851136
 30
0.0
 10
-37.792752
 20
14.159893
 30
0.0
 10
-37.77793323187806
 20
14.14250360036262
 30
0.0
 10
-37.792752
 20
14.159893
 30
0.0
  0
SPLINE
  5
FF
330
1F
100
AcDbEntity
  8
0
  6
Continuous
 62
     7
100
AcDbSpline
210
0.0
220
0.0
230
1.0
 70
     8
 71
     3
 72
     9
 73
     5
 74
     0
 42
0.00000001
 43
0.00000001
 40
0.0
 40
0.0
 40
0.0
 40
0.0
 40
0.2665294884021558
 40
1.0
 40
1.0
 40
1.0
 40
1.0
 10
-37.79274225234984
 20
14.159893
 30
0.0
 10
-37.83389029888
 20
14.328980491328
 30
0.0
 10
-37.838432
 20
14.807856
 30
0.0
 10
-37.85020551023727
 20
14.6465733633463
 30
0.0
 10
-37.838432
 20
14.807856
 30
0.0
  0
SPLINE
  5
100
330
1F
100
AcDbEntity
  8
0
  6
Continuous
 62
     7
100
AcDbSpline
210
0.0
220
0.0
230
1.0
 70
     8
 71
     3
 72
     9
 73
     5
 74
     0
 42
0.00000001
 43
0.00000001
 40
0.0
 40
0.0
 40
0.0
 40
0.0
 40
0.8255918729387995
 40
0.9999999999999999
 40
0.9999999999999999
 40
0.9999999999999999
 40
0.9999999999999999
 10
-37.83842921257018
 20
14.807856
 30
0.0
 10
-37.82958195712
 20
15.347838453248
 30
0.0
 10
-37.792752
 20
15.455818
 30
0.0
 10
-37.80604489814334
 20
15.42000192782194
 30
0.0
 10
-37.792752
 20
15.455818
 30
0.0
  0
SPLINE
  5
101
330
1F
100
AcDbEntity
  8
0
  6
Continuous
 62
     7
100
AcDbSpline
210
0.0
220
0.0
230
1.0
 70
     8
 71
     3
 72
     9
 73
     5
 74
     0
 42
0.00000001
 43
0.00000001
 40
0.0
 40
0.0
 40
0.0
 40
0.0
 40
0.5514047414208925
 40
1.0
 40
1.0
 40
1.0
 40
1.0
 10
-37.79274225234984
 20
15.455818
 30
0.0
 10
-37.731529531392
 20
15.520965547136
 30
0.0
 10
-37.674894
 20
15.56658900000001
 30
0.0
 10
-37.69428360475381
 20
15.55193275462123
 30
0.0
 10
-37.67489400000001
 20
15.56658900000001
 30
0.0
  0
SPLINE
  5
102
330
1F
100
AcDbEntity
  8
0
  6
Continuous
 62
     7
100
AcDbSpline
210
0.0
220
0.0
230
1.0
 70
     8
 71
     3
 72
     9
 73
     5
 74
     0
 42
0.00000001
 43
0.00000001
 40
0.0
 40
0.0
 40
0.0
 40
0.0
 40
0.5356696021730064
 40
1.0
 40
1.0
 40
1.0
 40
1.0
 10
-37.6748740673065
 20
15.56658900000001
 30
0.0
 10
-37.584863452288
 20
15.60653159584
 30
0.0
 10
-37.499999
 20
15.615719
 30
0.0
 10
-37.52881658314759
 20
15.6146249625172
 30
0.0
 10
-37.499999
 20
15.615719
 30
0.0
  0
SPLINE
  5
103
330
1F
100
AcDbEntity
  8
0
  6
Continuous
 62
     7
100
AcDbSpline
210
0.0
220
0.0
230
1.0
 70
     8
 71
     3
 72
     9
 73
     5
 74
     0
 42
0.00000001
 43
0.00000001
 40
0.0
 40
0.0
 40
0.0
 40
0.0
 40
0.5796169344272094
 40
1.0
 40
1.0
 40
1.0
 40
1.0
 10
-37.49999403953551
 20
15.615719
 30
0.0
 10
-37.39446470624001
 20
15.60072854368
 30
0.0
 10
-37.32510500000001
 20
15.56658900000001
 30
0.0
 10
-37.34772196035771
 20
15.5795990446876
 30
0.0
 10
-37.32510500000001
 20
15.56658900000001
 30
0.0
  0
SPLINE
  5
104
330
1F
100
AcDbEntity
  8
0
  6
Continuous
 62
     7
100
AcDbSpline
210
0.0
220
0.0
230
1.0
 70
     8
 71
     3
 72
     9
 73
     5
 74
     0
 42
0.00000001
 43
0.00000001
 40
0.0
 40
0.0
 40
0.0
 40
0.0
 40
0.5782687958555892
 40
1.0
 40
1.0
 40
1.0
 40
1.0
 10
-37.32508420944212
 20
15.56658900000001
 30
0.0
 10
-37.253104995392
 20
15.50652714886401
 30
0.0
 10
-37.207247
 20
15.455818
 30
0.0
 10
-37.22206653444534
 20
15.47320646677666
 30
0.0
 10
-37.207247
 20
15.455818
 30
0.0
  0
SPLINE
  5
105
330
1F
100
AcDbEntity
  8
0
  6
Continuous
 62
     7
100
AcDbSpline
210
0.0
220
0.0
230
1.0
 70
     8
 71
     3
 72
     9
 73
     5
 74
     0
 42
0.00000001
 43
0.00000001
 40
0.0
 40
0.0
 40
0.0
 40
0.0
 40
0.2665267327055216
 40
1.0
 40
1.0
 40
1.0
 40
1.0
 10
-37.20724582672118
 20
15.455818
 30
0.0
 10
-37.16610870112
 20
15.286730684288
 30
0.0
 10
-37.161567
 20
14.807856
 30
0.0
 10
-37.14979691868395
 20
14.969137524545
 30
0.0
 10
-37.161567
 20
14.807856
 30
0.0
  0
SPLINE
  5
106
330
1F
100
AcDbEntity
  8
0
  6
Continuous
 62
     7
100
AcDbSpline
210
0.0
220
0.0
230
1.0
 70
     8
 71
     3
 72
     9
 73
     5
 74
     0
 42
0.00000001
 43
0.00000001
 40
0.0
 40
0.0
 40
0.0
 40
0.0
 40
0.8255926676185487
 40
1.0
 40
1.0
 40
1.0
 40
1.0
 10
-37.16155886650084
 20
14.807856
 30
0.0
 10
-37.17041704288
 20
14.267872217984
 30
0.0
 10
-37.207247
 20
14.159893
 30
0.0
 10
-37.19395417324857
 20
14.1957089639798
 30
0.0
 10
-37.207247
 20
14.159893
 30
0.0
  0
SPLINE
  5
107
330
1F
100
AcDbEntity
  8
0
  6
Continuous
 62
     7
100
AcDbSpline
210
0.0
220
0.0
230
1.0
 70
     8
 71
     3
 72
     9
 73
     5
 74
     0
 42
0.00000001
 43
0.00000001
 40
0.0
 40
0.0
 40
0.0
 40
0.0
 40
0.5514254340168369
 40
1.0
 40
1.0
 40
1.0
 40
1.0
 10
-37.20724582672118
 20
14.159893
 30
0.0
 10
-37.268469468608
 20
14.094745452864
 30
0.0
 10
-37.32510500000001
 20
14.049122
 30
0.0
 10
-37.30571577156342
 20
14.06377860228757
 30
0.0
 10
-37.32510500000001
 20
14.049122
 30
0.0
  0
SPLINE
  5
108
330
1F
100
AcDbEntity
  8
0
  6
Continuous
 62
     7
100
AcDbSpline
210
0.0
220
0.0
230
1.0
 70
     8
 71
     3
 72
     9
 73
     5
 74
     0
 42
0.00000001
 43
0.00000001
 40
0.0
 40
0.0
 40
0.0
 40
0.0
 40
0.5357655869092693
 40
1.0
 40
1.0
 40
1.0
 40
1.0
 10
-37.32508420944212
 20
14.049122
 30
0.0
 10
-37.415135372096
 20
14.00917940416
 30
0.0
 10
-37.499999
 20
13.999992
 30
0.0
 10
-37.47118225406069
 20
14.00108747799034
 30
0.0
 10
-37.499999
 20
13.999992
 30
0.0
  0
SPLINE
  5
109
330
1F
100
AcDbEntity
  8
0
  6
Continuous
 62
     7
100
AcDbSpline
210
0.0
220
0.0
230
1.0
 70
     8
 71
     3
 72
     9
 73
     5
 74
     0
 42
0.00000001
 43
0.00000001
 40
0.0
 40
0.0
 40
0.0
 40
0.0
 40
0.5796395605957724
 40
1.0
 40
1.0
 40
1.0
 40
1.0
 10
-37.49999403953551
 20
13.999992
 30
0.0
 10
-37.60553388332801
 20
14.01498245632
 30
0.0
 10
-37.674894
 20
14.049122
 30
0.0
 10
-37.65227688311163
 20
14.03611197232509
 30
0.0
 10
-37.674894
 20
14.049122
 30
0.0
  0
SPLINE
  5
10A
330
1F
100
AcDbEntity
  8
0
  6
Continuous
 62
     7
100
AcDbSpline
210
0.0
220
0.0
230
1.0
 70
     8
 71
     3
 72
     9
 73
     5
 74
     0
 42
0.00000001
 43
0.00000001
 40
0.0
 40
0.0
 40
0.0
 40
0.0
 40
0.5836141817616206
 40
0.9999999999999999
 40
0.9999999999999999
 40
0.9999999999999999
 40
0.9999999999999999
 10
-40.94386100769042
 20
15.396592
 30
0.0
 10
-41.031097493376
 20
15.45449812620801
 30
0.0
 10
-41.080271
 20
15.510735
 30
0.0
 10
-41.06478660165846
 20
15.49095374580577
 30
0.0
 10
-41.080271
 20
15.510735
 30
0.0
  0
SPLINE
  5
10B
330
1F
100
AcDbEntity
  8
0
  6
Continuous
 62
     7
100
AcDbSpline
210
0.0
220
0.0
230
1.0
 70
     8
 71
     3
 72
     9
 73
     5
 74
     0
 42
0.00000001
 43
0.00000001
 40
0.0
 40
0.0
 40
0.0
 40
0.0
 40
0.5799544081886355
 40
1.0
 40
1.0
 40
1.0
 40
1.0
 10
-41.0802662372589
 20
15.510735
 30
0.0
 10
-41.11904223712
 20
15.592262158272
 30
0.0
 10
-41.137911
 20
15.654867
 30
0.0
 10
-41.13226657895697
 20
15.63374971052453
 30
0.0
 10
-41.137911
 20
15.654867
 30
0.0
  0
SPLINE
  5
10C
330
1F
100
AcDbEntity
  8
0
  6
Continuous
 62
     7
100
AcDbSpline
210
0.0
220
0.0
230
1.0
 70
     8
 71
     3
 72
     9
 73
     5
 74
     0
 42
0.00000001
 43
0.00000001
 40
0.0
 40
0.0
 40
0.0
 40
0.0
 40
0.5243458413894503
 40
1.0
 40
1.0
 40
1.0
 40
1.0
 10
-41.1379039287567
 20
15.654867
 30
0.0
 10
-41.13687085152
 20
15.74261201657601
 30
0.0
 10
-41.116101
 20
15.819457
 30
0.0
 10
-41.12459653548613
 20
15.7940601623731
 30
0.0
 10
-41.116101
 20
15.819457
 30
0.0
  0
SPLINE
  5
10D
330
1F
100
AcDbEntity
  8
0
  6
Continuous
 62
     7
100
AcDbSpline
210
0.0
220
0.0
230
1.0
 70
     8
 71
     3
 72
     9
 73
     5
 74
     0
 42
0.00000001
 43
0.00000001
 40
0.0
 40
0.0
 40
0.0
 40
0.0
 40
0.361773485727984
 40
1.0
 40
1.0
 40
1.0
 40
1.0
 10
-41.11608862876891
 20
15.819457
 30
0.0
 10
-40.97774402028801
 20
16.004751131456
 30
0.0
 10
-40.693189
 20
16.297071
 30
0.0
 10
-40.79234794915114
 20
16.20330815712935
 30
0.0
 10
-40.693189
 20
16.297071
 30
0.0
  0
SPLINE
  5
10E
330
1F
100
AcDbEntity
  8
0
  6
Continuous
 62
     7
100
AcDbSpline
210
0.0
220
0.0
230
1.0
 70
     8
 71
     3
 72
     9
 73
     5
 74
     0
 42
0.00000001
 43
0.00000001
 40
0.0
 40
0.0
 40
0.0
 40
0.0
 40
0.7871094592939967
 40
1.0
 40
1.0
 40
1.0
 40
1.0
 10
-40.69316387176512
 20
16.297071
 30
0.0
 10
-40.33905486944001
 20
16.632830644416
 30
0.0
 10
-40.22379600000001
 20
16.697139
 30
0.0
 10
-40.26290689779805
 20
16.6766433254823
 30
0.0
 10
-40.22379600000001
 20
16.697139
 30
0.0
  0
SPLINE
  5
10F
330
1F
100
AcDbEntity
  8
0
  6
Continuous
 62
     7
100
AcDbSpline
210
0.0
220
0.0
230
1.0
 70
     8
 71
     3
 72
     9
 73
     5
 74
     0
 42
0.00000001
 43
0.00000001
 40
0.0
 40
0.0
 40
0.0
 40
0.0
 40
0.5660802163232977
 40
1.0
 40
1.0
 40
1.0
 40
1.0
 10
-40.22377729415892
 20
16.697139
 30
0.0
 10
-40.13163713152
 20
16.703271198912
 30
0.0
 10
-40.06112
 20
16.69712100000001
 30
0.0
 10
-40.08461765086385
 20
16.69995579131582
 30
0.0
 10
-40.06112000000001
 20
16.69712100000001
 30
0.0
  0
SPLINE
  5
110
330
1F
100
AcDbEntity
  8
0
  6
Continuous
 62
     7
100
AcDbSpline
210
0.0
220
0.0
230
1.0
 70
     8
 71
     3
 72
     9
 73
     5
 74
     0
 42
0.00000001
 43
0.00000001
 40
0.0
 40
0.0
 40
0.0
 40
0.0
 40
0.5194541839405734
 40
0.9999999999999999
 40
0.9999999999999999
 40
0.9999999999999999
 40
0.9999999999999999
 10
-40.06111621856688
 20
16.69712100000001
 30
0.0
 10
-39.97023041766401
 20
16.65833418144
 30
0.0
 10
-39.89917500000001
 20
16.60082100000001
 30
0.0
 10
-39.9218171290935
 20
16.62172455540253
 30
0.0
 10
-39.89917500000001
 20
16.60082100000001
 30
0.0
  0
SPLINE
  5
111
330
1F
100
AcDbEntity
  8
0
  6
Continuous
 62
     7
100
AcDbSpline
210
0.0
220
0.0
230
1.0
 70
     8
 71
     3
 72
     9
 73
     5
 74
     0
 42
0.00000001
 43
0.00000001
 40
0.0
 40
0.0
 40
0.0
 40
0.0
 40
0.6015714067423292
 40
1.0
 40
1.0
 40
1.0
 40
1.0
 10
-39.89917039871214
 20
16.60082100000001
 30
0.0
 10
-39.82977140448001
 20
16.509770211136
 30
0.0
 10
-39.802875
 20
16.43887700000001
 30
0.0
 10
-39.81057429827695
 20
16.46321123611521
 30
0.0
 10
-39.802875
 20
16.43887700000001
 30
0.0
  0
SPLINE
  5
112
330
1F
100
AcDbEntity
  8
0
  6
Continuous
 62
     7
100
AcDbSpline
210
0.0
220
0.0
230
1.0
 70
     8
 71
     3
 72
     9
 73
     5
 74
     0
 42
0.00000001
 43
0.00000001
 40
0.0
 40
0.0
 40
0.0
 40
0.0
 40
0.5634569988066103
 40
1.0
 40
1.0
 40
1.0
 40
1.0
 10
-39.80284929275511
 20
16.43887700000001
 30
0.0
 10
-39.796738586304
 20
16.34715532576
 30
0.0
 10
-39.802869
 20
16.2762
 30
0.0
 10
-39.80003504147453
 20
16.2998440044215
 30
0.0
 10
-39.802869
 20
16.2762
 30
0.0
  0
SPLINE
  5
113
330
1F
100
AcDbEntity
  8
0
  6
Continuous
 62
     7
100
AcDbSpline
210
0.0
220
0.0
230
1.0
 70
     8
 71
     3
 72
     9
 73
     5
 74
     0
 42
0.00000001
 43
0.00000001
 40
0.0
 40
0.0
 40
0.0
 40
0.0
 40
0.3187542142510537
 40
1.0
 40
1.0
 40
1.0
 40
1.0
 10
-39.80284929275511
 20
16.2762
 30
0.0
 10
-39.90708184608
 20
16.11344071654401
 30
0.0
 10
-40.192854
 20
15.81517900000001
 30
0.0
 10
-40.09044297352366
 20
15.90896912015808
 30
0.0
 10
-40.192854
 20
15.81517900000001
 30
0.0
  0
SPLINE
  5
114
330
1F
100
AcDbEntity
  8
0
  6
Continuous
 62
     7
100
AcDbSpline
210
0.0
220
0.0
230
1.0
 70
     8
 71
     3
 72
    10
 73
     6
 74
     0
 42
0.00000001
 43
0.00000001
 40
0.0
 40
0.0
 40
0.0
 40
0.0
 40
0.7217766826879537
 40
0.9144903138296939
 40
1.0
 40
1.0
 40
1.0
 40
1.0
 10
-40.19284248352049
 20
15.81517900000001
 30
0.0
 10
-40.51804664332801
 20
15.502216949312
 30
0.0
 10
-40.61037791031404
 20
15.4247791830316
 30
0.0
 10
-40.655022
 20
15.395352
 30
0.0
 10
-40.63995891266573
 20
15.40491402206944
 30
0.0
 10
-40.655022
 20
15.39535200000001
 30
0.0
  0
SPLINE
  5
115
330
1F
100
AcDbEntity
  8
0
  6
Continuous
 62
     7
100
AcDbSpline
210
0.0
220
0.0
230
1.0
 70
     8
 71
     3
 72
     9
 73
     5
 74
     0
 42
0.00000001
 43
0.00000001
 40
0.0
 40
0.0
 40
0.0
 40
0.0
 40
0.6230569804817906
 40
1.0
 40
1.0
 40
1.0
 40
1.0
 10
-40.65501689910887
 20
15.395352
 30
0.0
 10
-40.741888664192
 20
15.364092576
 30
0.0
 10
-40.796944
 20
15.354672
 30
0.0
 10
-40.77843523607888
 20
15.35721592771693
 30
0.0
 10
-40.796944
 20
15.354672
 30
0.0
  0
SPLINE
  5
116
330
1F
100
AcDbEntity
  8
0
  6
Continuous
 62
     7
100
AcDbSpline
210
0.0
220
0.0
230
1.0
 70
     8
 71
     3
 72
     9
 73
     5
 74
     0
 42
0.00000001
 43
0.00000001
 40
0.0
 40
0.0
 40
0.0
 40
0.0
 40
0.5015776290480397
 40
1.0
 40
1.0
 40
1.0
 40
1.0
 10
-40.79693555831908
 20
15.354672
 30
0.0
 10
-40.87230819788801
 20
15.36984095744
 30
0.0
 10
-40.94387200000001
 20
15.396592
 30
0.0
 10
-40.92029441358135
 20
15.38670493061033
 30
0.0
 10
-40.94387200000001
 20
15.396592
 30
0.0
  0
SPLINE
  5
117
330
1F
100
AcDbEntity
  8
0
  6
Continuous
 62
     7
100
AcDbSpline
210
0.0
220
0.0
230
1.0
 70
     8
 71
     3
 72
    10
 73
     6
 74
     0
 42
0.00000001
 43
0.00000001
 40
0.0
 40
0.0
 40
0.0
 40
0.0
 40
0.168145839689835
 40
0.4026249911365206
 40
1.0
 40
1.0
 40
1.0
 40
1.0
 10
-34.34500098228453
 20
15.395373
 30
0.0
 10
-34.43000608299278
 20
15.45726040593127
 30
0.0
 10
-34.53964694336
 20
15.554618065728
 30
0.0
 10
-34.807298
 20
15.815211
 30
0.0
 10
-34.71871451250667
 20
15.7278029890058
 30
0.0
 10
-34.80729800000001
 20
15.81521100000001
 30
0.0
  0
SPLINE
  5
118
330
1F
100
AcDbEntity
  8
0
  6
Continuous
 62
     7
100
AcDbSpline
210
0.0
220
0.0
230
1.0
 70
     8
 71
     3
 72
    10
 73
     6
 74
     0
 42
0.00000001
 43
0.00000001
 40
0.0
 40
0.0
 40
0.0
 40
0.0
 40
0.7491476759891229
 40
0.9297392823753288
 40
1.0
 40
1.0
 40
1.0
 40
1.0
 10
-34.80729460716246
 20
15.815211
 30
0.0
 10
-35.11033888460801
 20
16.13669031648
 30
0.0
 10
-35.17714338021656
 20
16.21963362260909
 30
0.0
 10
-35.19754500000001
 20
16.25569800000001
 30
0.0
 10
-35.19100340482476
 20
16.24350294360044
 30
0.0
 10
-35.19754500000001
 20
16.25569800000001
 30
0.0
  0
SPLINE
  5
119
330
1F
100
AcDbEntity
  8
0
  6
Continuous
 62
     7
100
AcDbSpline
210
0.0
220
0.0
230
1.0
 70
     8
 71
     3
 72
     9
 73
     5
 74
     0
 42
0.00000001
 43
0.00000001
 40
0.0
 40
0.0
 40
0.0
 40
0.0
 40
0.5223832639270855
 40
1.0
 40
1.0
 40
1.0
 40
1.0
 10
-35.19752621650694
 20
16.25569800000001
 30
0.0
 10
-35.2054107152
 20
16.33720305395201
 30
0.0
 10
-35.20214499999999
 20
16.412
 30
0.0
 10
-35.20406737419779
 20
16.38704566594686
 30
0.0
 10
-35.20214499999999
 20
16.412
 30
0.0
  0
SPLINE
  5
11A
330
1F
100
AcDbEntity
  8
0
  6
Continuous
 62
     7
100
AcDbSpline
210
0.0
220
0.0
230
1.0
 70
     8
 71
     3
 72
     9
 73
     5
 74
     0
 42
0.00000001
 43
0.00000001
 40
0.0
 40
0.0
 40
0.0
 40
0.0
 40
0.5840429209502458
 40
1.0
 40
1.0
 40
1.0
 40
1.0
 10
-35.20211577415465
 20
16.412
 30
0.0
 10
-35.17721519776
 20
16.508425367808
 30
0.0
 10
-35.145295
 20
16.571764
 30
0.0
 10
-35.1569185225535
 20
16.55102103303932
 30
0.0
 10
-35.145295
 20
16.571764
 30
0.0
  0
SPLINE
  5
11B
330
1F
100
AcDbEntity
  8
0
  6
Continuous
 62
     7
100
AcDbSpline
210
0.0
220
0.0
230
1.0
 70
     8
 71
     3
 72
     9
 73
     5
 74
     0
 42
0.00000001
 43
0.00000001
 40
0.0
 40
0.0
 40
0.0
 40
0.0
 40
0.5602925315595558
 40
1.0
 40
1.0
 40
1.0
 40
1.0
 10
-35.14528274536131
 20
16.571764
 30
0.0
 10
-35.082802659264
 20
16.634387615488
 30
0.0
 10
-35.024459
 20
16.672012
 30
0.0
 10
-35.04458919626591
 20
16.66031488668143
 30
0.0
 10
-35.02445900000001
 20
16.67201200000001
 30
0.0
  0
SPLINE
  5
11C
330
1F
100
AcDbEntity
  8
0
  6
Continuous
 62
     7
100
AcDbSpline
210
0.0
220
0.0
230
1.0
 70
     8
 71
     3
 72
     9
 73
     5
 74
     0
 42
0.00000001
 43
0.00000001
 40
0.0
 40
0.0
 40
0.0
 40
0.0
 40
0.5549017420474013
 40
0.9999999999999999
 40
0.9999999999999999
 40
0.9999999999999999
 40
0.9999999999999999
 10
-35.02443432807921
 20
16.672012
 30
0.0
 10
-34.934282759104
 20
16.69924537344001
 30
0.0
 10
-34.85919
 20
16.707452
 30
0.0
 10
-34.88442717124703
 20
16.70572815355285
 30
0.0
 10
-34.85919
 20
16.707452
 30
0.0
  0
SPLINE
  5
11D
330
1F
100
AcDbEntity
  8
0
  6
Continuous
 62
     7
100
AcDbSpline
210
0.0
220
0.0
230
1.0
 70
     8
 71
     3
 72
     9
 73
     5
 74
     0
 42
0.00000001
 43
0.00000001
 40
0.0
 40
0.0
 40
0.0
 40
0.0
 40
0.5969855267157979
 40
1.0
 40
1.0
 40
1.0
 40
1.0
 10
-34.85918045043944
 20
16.707452
 30
0.0
 10
-34.768246370944
 20
16.69621621376001
 30
0.0
 10
-34.709651
 20
16.676402
 30
0.0
 10
-34.72899521169657
 20
16.68382815740202
 30
0.0
 10
-34.709651
 20
16.676402
 30
0.0
  0
SPLINE
  5
11E
330
1F
100
AcDbEntity
  8
0
  6
Continuous
 62
     7
100
AcDbSpline
210
0.0
220
0.0
230
1.0
 70
     8
 71
     3
 72
    11
 73
     7
 74
     0
 42
0.00000001
 43
0.00000001
 40
0.0
 40
0.0
 40
0.0
 40
0.0
 40
0.0658033601517816
 40
0.1605720721596577
 40
0.4058950638459412
 40
1.0
 40
1.0
 40
1.0
 40
1.0
 10
-34.70963239669798
 20
16.676402
 30
0.0
 10
-34.67836471582566
 20
16.65271513767035
 30
0.0
 10
-34.63591404320979
 20
16.61543965496542
 30
0.0
 10
-34.52903378784
 20
16.515623143552
 30
0.0
 10
-34.27680100000001
 20
16.267014
 30
0.0
 10
-34.36017263244943
 20
16.35063937343717
 30
0.0
 10
-34.27680100000001
 20
16.267014
 30
0.0
  0
SPLINE
  5
11F
330
1F
100
AcDbEntity
  8
0
  6
Continuous
 62
     7
100
AcDbSpline
210
0.0
220
0.0
230
1.0
 70
     8
 71
     3
 72
     9
 73
     5
 74
     0
 42
0.00000001
 43
0.00000001
 40
0.0
 40
0.0
 40
0.0
 40
0.0
 40
0.7553127268877805
 40
1.0
 40
1.0
 40
1.0
 40
1.0
 10
-34.2767834663391
 20
16.267014
 30
0.0
 10
-33.960257403456
 20
15.93075087884801
 30
0.0
 10
-33.876611
 20
15.806717
 30
0.0
 10
-33.90372262357896
 20
15.84867741388957
 30
0.0
 10
-33.876611
 20
15.806717
 30
0.0
  0
SPLINE
  5
120
330
1F
100
AcDbEntity
  8
0
  6
Continuous
 62
     7
100
AcDbSpline
210
0.0
220
0.0
230
1.0
 70
     8
 71
     3
 72
     9
 73
     5
 74
     0
 42
0.00000001
 43
0.00000001
 40
0.0
 40
0.0
 40
0.0
 40
0.0
 40
0.5827291448023354
 40
1.0
 40
1.0
 40
1.0
 40
1.0
 10
-33.87659788131712
 20
15.806717
 30
0.0
 10
-33.86166838112
 20
15.718115213888
 30
0.0
 10
-33.865301
 20
15.653879
 30
0.0
 10
-33.86309402615536
 20
15.67534613308031
 30
0.0
 10
-33.865301
 20
15.653879
 30
0.0
  0
SPLINE
  5
121
330
1F
100
AcDbEntity
  8
0
  6
Continuous
 62
     7
100
AcDbSpline
210
0.0
220
0.0
230
1.0
 70
     8
 71
     3
 72
     9
 73
     5
 74
     0
 42
0.00000001
 43
0.00000001
 40
0.0
 40
0.0
 40
0.0
 40
0.0
 40
0.553000870827165
 40
0.9999999999999999
 40
0.9999999999999999
 40
0.9999999999999999
 40
0.9999999999999999
 10
-33.8652729988098
 20
15.653879
 30
0.0
 10
-33.89205464608
 20
15.574286404288
 30
0.0
 10
-33.922431
 20
15.513582
 30
0.0
 10
-33.91165528896131
 20
15.53354625387603
 30
0.0
 10
-33.922431
 20
15.513582
 30
0.0
  0
SPLINE
  5
122
330
1F
100
AcDbEntity
  8
0
  6
Continuous
 62
     7
100
AcDbSpline
210
0.0
220
0.0
230
1.0
 70
     8
 71
     3
 72
     9
 73
     5
 74
     0
 42
0.00000001
 43
0.00000001
 40
0.0
 40
0.0
 40
0.0
 40
0.0
 40
0.5377533247973125
 40
1.0
 40
1.0
 40
1.0
 40
1.0
 10
-33.92240405082701
 20
15.513582
 30
0.0
 10
-33.988612855488
 20
15.443877013376
 30
0.0
 10
-34.05797399999999
 20
15.398953
 30
0.0
 10
-34.03389454871325
 20
15.41277254714155
 30
0.0
 10
-34.05797399999999
 20
15.398953
 30
0.0
  0
SPLINE
  5
123
330
1F
100
AcDbEntity
  8
0
  6
Continuous
 62
     7
100
AcDbSpline
210
0.0
220
0.0
230
1.0
 70
     8
 71
     3
 72
     9
 73
     5
 74
     0
 42
0.00000001
 43
0.00000001
 40
0.0
 40
0.0
 40
0.0
 40
0.0
 40
0.6329798305573398
 40
1.0
 40
1.0
 40
1.0
 40
1.0
 10
-34.05794501304625
 20
15.398953
 30
0.0
 10
-34.14898607270401
 20
15.3643791824
 30
0.0
 10
-34.20453000000001
 20
15.354213
 30
0.0
 10
-34.18584679344457
 20
15.35699732320608
 30
0.0
 10
-34.20453000000001
 20
15.354213
 30
0.0
  0
SPLINE
  5
124
330
1F
100
AcDbEntity
  8
0
  6
Continuous
 62
     7
100
AcDbSpline
210
0.0
220
0.0
230
1.0
 70
     8
 71
     3
 72
     9
 73
     5
 74
     0
 42
0.00000001
 43
0.00000001
 40
0.0
 40
0.0
 40
0.0
 40
0.0
 40
0.5039389833092869
 40
1.0
 40
1.0
 40
1.0
 40
1.0
 10
-34.20451283454894
 20
15.354213
 30
0.0
 10
-34.276978450816
 20
15.36929984889601
 30
0.0
 10
-34.345016
 20
15.395373
 30
0.0
 10
-34.32260925597544
 20
15.38575413764509
 30
0.0
 10
-34.34501600000001
 20
15.39537300000001
 30
0.0
  0
SPLINE
  5
125
330
1F
100
AcDbEntity
  8
0
  6
Continuous
 62
     7
100
AcDbSpline
210
0.0
220
0.0
230
1.0
 70
     8
 71
     3
 72
     9
 73
     5
 74
     0
 42
0.00000001
 43
0.00000001
 40
0.0
 40
0.0
 40
0.0
 40
0.0
 40
0.5468797360284408
 40
1.0
 40
1.0
 40
1.0
 40
1.0
 10
-42.28162765502928
 20
18.674689
 30
0.0
 10
-42.34212069856
 20
18.709117811648
 30
0.0
 10
-42.387434
 20
18.744792
 30
0.0
 10
-42.37269270795176
 20
18.73236078631355
 30
0.0
 10
-42.387434
 20
18.744792
 30
0.0
  0
SPLINE
  5
126
330
1F
100
AcDbEntity
  8
0
  6
Continuous
 62
     7
100
AcDbSpline
210
0.0
220
0.0
230
1.0
 70
     8
 71
     3
 72
     9
 73
     5
 74
     0
 42
0.00000001
 43
0.00000001
 40
0.0
 40
0.0
 40
0.0
 40
0.0
 40
0.5703814822479495
 40
1.0
 40
1.0
 40
1.0
 40
1.0
 10
-42.3874258995056
 20
18.744792
 30
0.0
 10
-42.43789258944
 20
18.802874752
 30
0.0
 10
-42.469324
 20
18.851567
 30
0.0
 10
-42.45931806415776
 20
18.83498227454417
 30
0.0
 10
-42.469324
 20
18.851567
 30
0.0
  0
SPLINE
  5
127
330
1F
100
AcDbEntity
  8
0
  6
Continuous
 62
     7
100
AcDbSpline
210
0.0
220
0.0
230
1.0
 70
     8
 71
     3
 72
     9
 73
     5
 74
     0
 42
0.00000001
 43
0.00000001
 40
0.0
 40
0.0
 40
0.0
 40
0.0
 40
0.5257357539305233
 40
1.0
 40
1.0
 40
1.0
 40
1.0
 10
-42.46932268142699
 20
18.851567
 30
0.0
 10
-42.49289888000001
 20
18.93165683449601
 30
0.0
 10
-42.50000400000001
 20
19.006635
 30
0.0
 10
-42.49875511793827
 20
18.98142653322067
 30
0.0
 10
-42.50000400000002
 20
19.00663500000001
 30
0.0
  0
SPLINE
  5
128
330
1F
100
AcDbEntity
  8
0
  6
Continuous
 62
     7
100
AcDbSpline
210
0.0
220
0.0
230
1.0
 70
     8
 71
     3
 72
     9
 73
     5
 74
     0
 42
0.00000001
 43
0.00000001
 40
0.0
 40
0.0
 40
0.0
 40
0.0
 40
0.5713510713556742
 40
1.0
 40
1.0
 40
1.0
 40
1.0
 10
-42.49998927116393
 20
19.006635
 30
0.0
 10
-42.48452508032001
 20
19.106767048128
 30
0.0
 10
-42.450874
 20
19.17492600000001
 30
0.0
 10
-42.46366625917354
 20
19.15270385741056
 30
0.0
 10
-42.450874
 20
19.17492600000001
 30
0.0
  0
SPLINE
  5
129
330
1F
100
AcDbEntity
  8
0
  6
Continuous
 62
     7
100
AcDbSpline
210
0.0
220
0.0
230
1.0
 70
     8
 71
     3
 72
     9
 73
     5
 74
     0
 42
0.00000001
 43
0.00000001
 40
0.0
 40
0.0
 40
0.0
 40
0.0
 40
0.5782621416315973
 40
0.9999999999999999
 40
0.9999999999999999
 40
0.9999999999999999
 40
0.9999999999999999
 10
-42.45084524154662
 20
19.17492600000001
 30
0.0
 10
-42.390811973248
 20
19.246925828992
 30
0.0
 10
-42.340102
 20
19.292783
 30
0.0
 10
-42.35749218842503
 20
19.27796496313088
 30
0.0
 10
-42.340102
 20
19.292783
 30
0.0
  0
SPLINE
  5
12A
330
1F
100
AcDbEntity
  8
0
  6
Continuous
 62
     7
100
AcDbSpline
210
0.0
220
0.0
230
1.0
 70
     8
 71
     3
 72
     9
 73
     5
 74
     0
 42
0.00000001
 43
0.00000001
 40
0.0
 40
0.0
 40
0.0
 40
0.0
 40
0.2665184473263655
 40
1.0
 40
1.0
 40
1.0
 40
1.0
 10
-42.34009981155394
 20
19.292783
 30
0.0
 10
-42.17101882380801
 20
19.33392129888001
 30
0.0
 10
-41.69214
 20
19.338463
 30
0.0
 10
-41.85342314710654
 20
19.35023421266908
 30
0.0
 10
-41.69214000000001
 20
19.33846300000001
 30
0.0
  0
SPLINE
  5
12B
330
1F
100
AcDbEntity
  8
0
  6
Continuous
 62
     7
100
AcDbSpline
210
0.0
220
0.0
230
1.0
 70
     8
 71
     3
 72
     9
 73
     5
 74
     0
 42
0.00000001
 43
0.00000001
 40
0.0
 40
0.0
 40
0.0
 40
0.0
 40
0.8255918816512723
 40
1.0
 40
1.0
 40
1.0
 40
1.0
 10
-41.69213771820067
 20
19.338463
 30
0.0
 10
-41.15215713279999
 20
19.32961295712001
 30
0.0
 10
-41.044178
 20
19.29278300000001
 30
0.0
 10
-41.07999393384064
 20
19.30607588097917
 30
0.0
 10
-41.044178
 20
19.29278300000002
 30
0.0
  0
SPLINE
  5
12C
330
1F
100
AcDbEntity
  8
0
  6
Continuous
 62
     7
100
AcDbSpline
210
0.0
220
0.0
230
1.0
 70
     8
 71
     3
 72
     9
 73
     5
 74
     0
 42
0.00000001
 43
0.00000001
 40
0.0
 40
0.0
 40
0.0
 40
0.0
 40
0.5514188678826825
 40
1.0
 40
1.0
 40
1.0
 40
1.0
 10
-41.0441756248474
 20
19.29278300000001
 30
0.0
 10
-40.97903027724801
 20
19.23156070700801
 30
0.0
 10
-40.93340600000001
 20
19.17492600000001
 30
0.0
 10
-40.94806295924516
 20
19.19431488268016
 30
0.0
 10
-40.93340600000001
 20
19.17492600000001
 30
0.0
  0
SPLINE
  5
12D
330
1F
100
AcDbEntity
  8
0
  6
Continuous
 62
     7
100
AcDbSpline
210
0.0
220
0.0
230
1.0
 70
     8
 71
     3
 72
     9
 73
     5
 74
     0
 42
0.00000001
 43
0.00000001
 40
0.0
 40
0.0
 40
0.0
 40
0.0
 40
0.5357118573339021
 40
1.0
 40
1.0
 40
1.0
 40
1.0
 10
-40.93340039253233
 20
19.17492600000001
 30
0.0
 10
-40.89346340416
 20
19.084895627904
 30
0.0
 10
-40.88427600000001
 20
19.000032
 30
0.0
 10
-40.88537104779475
 20
19.02884889699129
 30
0.0
 10
-40.88427600000001
 20
19.000032
 30
0.0
  0
SPLINE
  5
12E
330
1F
100
AcDbEntity
  8
0
  6
Continuous
 62
     7
100
AcDbSpline
210
0.0
220
0.0
230
1.0
 70
     8
 71
     3
 72
     9
 73
     5
 74
     0
 42
0.00000001
 43
0.00000001
 40
0.0
 40
0.0
 40
0.0
 40
0.0
 40
0.5796346512029954
 40
1.0
 40
1.0
 40
1.0
 40
1.0
 10
-40.88425636291502
 20
19.000032
 30
0.0
 10
-40.89926645632001
 20
18.894497116672
 30
0.0
 10
-40.93340600000001
 20
18.82513700000001
 30
0.0
 10
-40.92039696639066
 20
18.84775425500969
 30
0.0
 10
-40.93340600000001
 20
18.82513700000001
 30
0.0
  0
SPLINE
  5
12F
330
1F
100
AcDbEntity
  8
0
  6
Continuous
 62
     7
100
AcDbSpline
210
0.0
220
0.0
230
1.0
 70
     8
 71
     3
 72
     9
 73
     5
 74
     0
 42
0.00000001
 43
0.00000001
 40
0.0
 40
0.0
 40
0.0
 40
0.0
 40
0.5783624278126374
 40
1.0
 40
1.0
 40
1.0
 40
1.0
 10
-40.93340039253233
 20
18.82513700000001
 30
0.0
 10
-40.99344647616
 20
18.753136995392
 30
0.0
 10
-41.044126
 20
18.707279
 30
0.0
 10
-41.02674760843632
 20
18.72209898898667
 30
0.0
 10
-41.044126
 20
18.707279
 30
0.0
  0
SPLINE
  5
130
330
1F
100
AcDbEntity
  8
0
  6
Continuous
 62
     7
100
AcDbSpline
210
0.0
220
0.0
230
1.0
 70
     8
 71
     3
 72
     9
 73
     5
 74
     0
 42
0.00000001
 43
0.00000001
 40
0.0
 40
0.0
 40
0.0
 40
0.0
 40
0.2729789268237672
 40
1.0
 40
1.0
 40
1.0
 40
1.0
 10
-41.04411602020262
 20
18.707279
 30
0.0
 10
-41.210222838656
 20
18.66537337568
 30
0.0
 10
-41.66639700000001
 20
18.656999
 30
0.0
 10
-41.51266872135145
 20
18.64728178167794
 30
0.0
 10
-41.66639700000001
 20
18.656999
 30
0.0
  0
SPLINE
  5
131
330
1F
100
AcDbEntity
  8
0
  6
Continuous
 62
     7
100
AcDbSpline
210
0.0
220
0.0
230
1.0
 70
     8
 71
     3
 72
    10
 73
     6
 74
     0
 42
0.00000001
 43
0.00000001
 40
0.0
 40
0.0
 40
0.0
 40
0.0
 40
0.7472306600003159
 40
0.9311933664654712
 40
0.9999999999999999
 40
0.9999999999999999
 40
0.9999999999999999
 40
0.9999999999999999
 10
-41.6663885116577
 20
18.656999
 30
0.0
 10
-42.12672285983999
 20
18.66089215584
 30
0.0
 10
-42.23986094667319
 20
18.66757001237191
 30
0.0
 10
-42.281649
 20
18.674689
 30
0.0
 10
-42.26774418054654
 20
18.67210846923942
 30
0.0
 10
-42.281649
 20
18.674689
 30
0.0
  0
SPLINE
  5
132
330
1F
100
AcDbEntity
  8
0
  6
Continuous
 62
     7
100
AcDbSpline
210
0.0
220
0.0
230
1.0
 70
     8
 71
     3
 72
     9
 73
     5
 74
     0
 42
0.00000001
 43
0.00000001
 40
0.0
 40
0.0
 40
0.0
 40
0.0
 40
0.5469024997966048
 40
1.0
 40
1.0
 40
1.0
 40
1.0
 10
-33.89734029769896
 20
18.674689
 30
0.0
 10
-33.95784069856001
 20
18.709117811648
 30
0.0
 10
-34.003154
 20
18.744792
 30
0.0
 10
-33.98841280232301
 20
18.73236061555145
 30
0.0
 10
-34.003154
 20
18.744792
 30
0.0
  0
SPLINE
  5
133
330
1F
100
AcDbEntity
  8
0
  6
Continuous
 62
     7
100
AcDbSpline
210
0.0
220
0.0
230
1.0
 70
     8
 71
     3
 72
     9
 73
     5
 74
     0
 42
0.00000001
 43
0.00000001
 40
0.0
 40
0.0
 40
0.0
 40
0.0
 40
0.570396850275291
 40
1.0
 40
1.0
 40
1.0
 40
1.0
 10
-34.00313854217528
 20
18.744792
 30
0.0
 10
-34.05361258944
 20
18.802874752
 30
0.0
 10
-34.085044
 20
18.851567
 30
0.0
 10
-34.07503827337577
 20
18.83498209076227
 30
0.0
 10
-34.085044
 20
18.851567
 30
0.0
  0
SPLINE
  5
134
330
1F
100
AcDbEntity
  8
0
  6
Continuous
 62
     7
100
AcDbSpline
210
0.0
220
0.0
230
1.0
 70
     8
 71
     3
 72
     9
 73
     5
 74
     0
 42
0.00000001
 43
0.00000001
 40
0.0
 40
0.0
 40
0.0
 40
0.0
 40
0.5257419596508498
 40
1.0
 40
1.0
 40
1.0
 40
1.0
 10
-34.08503532409667
 20
18.851567
 30
0.0
 10
-34.10861888
 20
18.93165683449601
 30
0.0
 10
-34.115724
 20
19.006635
 30
0.0
 10
-34.11447558604698
 20
18.98142639391135
 30
0.0
 10
-34.115724
 20
19.006635
 30
0.0
  0
SPLINE
  5
135
330
1F
100
AcDbEntity
  8
0
  6
Continuous
 62
     7
100
AcDbSpline
210
0.0
220
0.0
230
1.0
 70
     8
 71
     3
 72
     9
 73
     5
 74
     0
 42
0.00000001
 43
0.00000001
 40
0.0
 40
0.0
 40
0.0
 40
0.0
 40
0.5713483575979083
 40
1.0
 40
1.0
 40
1.0
 40
1.0
 10
-34.1157019138336
 20
19.006635
 30
0.0
 10
-34.10024508032
 20
19.106767048128
 30
0.0
 10
-34.066594
 20
19.17492600000001
 30
0.0
 10
-34.07938665430754
 20
19.15270392002964
 30
0.0
 10
-34.06659400000001
 20
19.17492600000001
 30
0.0
  0
SPLINE
  5
136
330
1F
100
AcDbEntity
  8
0
  6
Continuous
 62
     7
100
AcDbSpline
210
0.0
220
0.0
230
1.0
 70
     8
 71
     3
 72
     9
 73
     5
 74
     0
 42
0.00000001
 43
0.00000001
 40
0.0
 40
0.0
 40
0.0
 40
0.0
 40
0.578301423851896
 40
0.9999999999999999
 40
0.9999999999999999
 40
0.9999999999999999
 40
0.9999999999999999
 10
-34.06658768653868
 20
19.17492600000001
 30
0.0
 10
-34.006532148864
 20
19.246925828992
 30
0.0
 10
-33.955823
 20
19.292783
 30
0.0
 10
-33.97321216465605
 20
19.27796432514067
 30
0.0
 10
-33.955823
 20
19.292783
 30
0.0
  0
SPLINE
  5
137
330
1F
100
AcDbEntity
  8
0
  6
Continuous
 62
     7
100
AcDbSpline
210
0.0
220
0.0
230
1.0
 70
     8
 71
     3
 72
     9
 73
     5
 74
     0
 42
0.00000001
 43
0.00000001
 40
0.0
 40
0.0
 40
0.0
 40
0.0
 40
0.2665153881990933
 40
1.0
 40
1.0
 40
1.0
 40
1.0
 10
-33.95581245422362
 20
19.292783
 30
0.0
 10
-33.786735508672
 20
19.33392129888001
 30
0.0
 10
-33.30786000000001
 20
19.338463
 30
0.0
 10
-33.46914211347357
 20
19.35023448466506
 30
0.0
 10
-33.30786000000001
 20
19.338463
 30
0.0
  0
SPLINE
  5
138
330
1F
100
AcDbEntity
  8
0
  6
Continuous
 62
     7
100
AcDbSpline
210
0.0
220
0.0
230
1.0
 70
     8
 71
     3
 72
     9
 73
     5
 74
     0
 42
0.00000001
 43
0.00000001
 40
0.0
 40
0.0
 40
0.0
 40
0.0
 40
0.8255899202680301
 40
1.0
 40
1.0
 40
1.0
 40
1.0
 10
-33.30785036087035
 20
19.338463
 30
0.0
 10
-32.7678771328
 20
19.32961295712001
 30
0.0
 10
-32.659898
 20
19.292783
 30
0.0
 10
-32.695713931861
 20
19.30607589166732
 30
0.0
 10
-32.659898
 20
19.292783
 30
0.0
  0
SPLINE
  5
139
330
1F
100
AcDbEntity
  8
0
  6
Continuous
 62
     7
100
AcDbSpline
210
0.0
220
0.0
230
1.0
 70
     8
 71
     3
 72
     9
 73
     5
 74
     0
 42
0.00000001
 43
0.00000001
 40
0.0
 40
0.0
 40
0.0
 40
0.0
 40
0.5514054384448742
 40
0.9999999999999999
 40
0.9999999999999999
 40
0.9999999999999999
 40
0.9999999999999999
 10
-32.65988826751708
 20
19.292783
 30
0.0
 10
-32.59475045286401
 20
19.231560707008
 30
0.0
 10
-32.549127
 20
19.17492600000001
 30
0.0
 10
-32.56378384938522
 20
19.19431469579732
 30
0.0
 10
-32.549127
 20
19.17492600000001
 30
0.0
  0
SPLINE
  5
13A
330
1F
100
AcDbEntity
  8
0
  6
Continuous
 62
     7
100
AcDbSpline
210
0.0
220
0.0
230
1.0
 70
     8
 71
     3
 72
     9
 73
     5
 74
     0
 42
0.00000001
 43
0.00000001
 40
0.0
 40
0.0
 40
0.0
 40
0.0
 40
0.5357032999555263
 40
1.0
 40
1.0
 40
1.0
 40
1.0
 10
-32.54911303520201
 20
19.17492600000001
 30
0.0
 10
-32.50918440416
 20
19.084895627904
 30
0.0
 10
-32.499997
 20
19.000032
 30
0.0
 10
-32.50109247989063
 20
19.02884869900253
 30
0.0
 10
-32.499997
 20
19.000032
 30
0.0
  0
SPLINE
  5
13B
330
1F
100
AcDbEntity
  8
0
  6
Continuous
 62
     7
100
AcDbSpline
210
0.0
220
0.0
230
1.0
 70
     8
 71
     3
 72
     9
 73
     5
 74
     0
 42
0.00000001
 43
0.00000001
 40
0.0
 40
0.0
 40
0.0
 40
0.0
 40
0.579637341859014
 40
1.0
 40
1.0
 40
1.0
 40
1.0
 10
-32.4999690055847
 20
19.000032
 30
0.0
 10
-32.51498745632
 20
18.894497116672
 30
0.0
 10
-32.549127
 20
18.82513700000001
 30
0.0
 10
-32.53611839302449
 20
18.84775431744079
 30
0.0
 10
-32.549127
 20
18.82513700000001
 30
0.0
  0
SPLINE
  5
13C
330
1F
100
AcDbEntity
  8
0
  6
Continuous
 62
     7
100
AcDbSpline
210
0.0
220
0.0
230
1.0
 70
     8
 71
     3
 72
     9
 73
     5
 74
     0
 42
0.00000001
 43
0.00000001
 40
0.0
 40
0.0
 40
0.0
 40
0.0
 40
0.5783782391195748
 40
0.9999999999999999
 40
0.9999999999999999
 40
0.9999999999999999
 40
0.9999999999999999
 10
-32.54911303520201
 20
18.82513700000001
 30
0.0
 10
-32.609167300544
 20
18.753136995392
 30
0.0
 10
-32.659846
 20
18.707279
 30
0.0
 10
-32.64246817902539
 20
18.72209924560622
 30
0.0
 10
-32.659846
 20
18.707279
 30
0.0
  0
SPLINE
  5
13D
330
1F
100
AcDbEntity
  8
0
  6
Continuous
 62
     7
100
AcDbSpline
210
0.0
220
0.0
230
1.0
 70
     8
 71
     3
 72
     9
 73
     5
 74
     0
 42
0.00000001
 43
0.00000001
 40
0.0
 40
0.0
 40
0.0
 40
0.0
 40
0.2729871911514361
 40
1.0
 40
1.0
 40
1.0
 40
1.0
 10
-32.6598286628723
 20
18.707279
 30
0.0
 10
-32.825942838656
 20
18.66537337568
 30
0.0
 10
-33.282117
 20
18.656999
 30
0.0
 10
-33.12838888239839
 20
18.64728248698668
 30
0.0
 10
-33.282117
 20
18.656999
 30
0.0
  0
SPLINE
  5
13E
330
1F
100
AcDbEntity
  8
0
  6
Continuous
 62
     7
100
AcDbSpline
210
0.0
220
0.0
230
1.0
 70
     8
 71
     3
 72
    10
 73
     6
 74
     0
 42
0.00000001
 43
0.00000001
 40
0.0
 40
0.0
 40
0.0
 40
0.0
 40
0.7472342043576568
 40
0.9311943334078314
 40
1.0
 40
1.0
 40
1.0
 40
1.0
 10
-33.28210115432738
 20
18.656999
 30
0.0
 10
-33.742443185088
 20
18.66089215584
 30
0.0
 10
-33.85558103734714
 20
18.66757001237191
 30
0.0
 10
-33.897369
 20
18.674689
 30
0.0
 10
-33.88346421081436
 20
18.67210846923838
 30
0.0
 10
-33.897369
 20
18.674689
 30
0.0
  0
SPLINE
  5
13F
330
1F
100
AcDbEntity
  8
0
  6
Continuous
 62
     7
100
AcDbSpline
210
0.0
220
0.0
230
1.0
 70
     8
 71
     3
 72
    10
 73
     6
 74
     0
 42
0.00000001
 43
0.00000001
 40
0.0
 40
0.0
 40
0.0
 40
0.0
 40
0.1688459371128882
 40
0.4154223471019833
 40
1.0
 40
1.0
 40
1.0
 40
1.0
 10
-40.30564427375792
 20
21.334097
 30
0.0
 10
-40.38007702558445
 20
21.39736642820111
 30
0.0
 10
-40.48402909888
 20
21.49507259027201
 30
0.0
 10
-40.724919
 20
21.73248600000001
 30
0.0
 10
-40.64489427136454
 20
21.65309830363451
 30
0.0
 10
-40.724919
 20
21.73248600000001
 30
0.0
  0
SPLINE
  5
140
330
1F
100
AcDbEntity
  8
0
  6
Continuous
 62
     7
100
AcDbSpline
210
0.0
220
0.0
230
1.0
 70
     8
 71
     3
 72
    11
 73
     7
 74
     0
 42
0.00000001
 43
0.00000001
 40
0.0
 40
0.0
 40
0.0
 40
0.0
 40
0.7237237389625008
 40
0.9232012473980487
 40
0.9758835871544467
 40
1.0
 40
1.0
 40
1.0
 40
1.0
 10
-40.72490334510802
 20
21.73248600000001
 30
0.0
 10
-41.00503808646401
 20
22.029118577024
 30
0.0
 10
-41.07755655101987
 20
22.11506928801647
 30
0.0
 10
-41.09500368677053
 20
22.13910433543646
 30
0.0
 10
-41.10155600000001
 20
22.15101700000001
 30
0.0
 10
-41.09944562284669
 20
22.14699992828324
 30
0.0
 10
-41.10155600000001
 20
22.15101700000001
 30
0.0
  0
SPLINE
  5
141
330
1F
100
AcDbEntity
  8
0
  6
Continuous
 62
     7
100
AcDbSpline
210
0.0
220
0.0
230
1.0
 70
     8
 71
     3
 72
     9
 73
     5
 74
     0
 42
0.00000001
 43
0.00000001
 40
0.0
 40
0.0
 40
0.0
 40
0.0
 40
0.5407799024878551
 40
1.0
 40
1.0
 40
1.0
 40
1.0
 10
-41.10154509544371
 20
22.15101700000001
 30
0.0
 10
-41.11915197952
 20
22.22817350073601
 30
0.0
 10
-41.124456
 20
22.295168
 30
0.0
 10
-41.12342637420316
 20
22.27272363515635
 30
0.0
 10
-41.12445600000001
 20
22.29516800000001
 30
0.0
  0
SPLINE
  5
142
330
1F
100
AcDbEntity
  8
0
  6
Continuous
 62
     7
100
AcDbSpline
210
0.0
220
0.0
230
1.0
 70
     8
 71
     3
 72
     9
 73
     5
 74
     0
 42
0.00000001
 43
0.00000001
 40
0.0
 40
0.0
 40
0.0
 40
0.0
 40
0.5530919843960952
 40
1.0
 40
1.0
 40
1.0
 40
1.0
 10
-41.12443327903746
 20
22.295168
 30
0.0
 10
-41.10757353216
 20
22.385179256832
 30
0.0
 10
-41.074806
 20
22.451524
 30
0.0
 10
-41.08715448703207
 20
22.42988473947096
 30
0.0
 10
-41.074806
 20
22.451524
 30
0.0
  0
SPLINE
  5
143
330
1F
100
AcDbEntity
  8
0
  6
Continuous
 62
     7
100
AcDbSpline
210
0.0
220
0.0
230
1.0
 70
     8
 71
     3
 72
     9
 73
     5
 74
     0
 42
0.00000001
 43
0.00000001
 40
0.0
 40
0.0
 40
0.0
 40
0.0
 40
0.5647195585388385
 40
0.9999999999999999
 40
0.9999999999999999
 40
0.9999999999999999
 40
0.9999999999999999
 10
-41.07478260993956
 20
22.451524
 30
0.0
 10
-41.00999524134401
 20
22.52610301875201
 30
0.0
 10
-40.95149000000001
 20
22.574841
 30
0.0
 10
-40.97161330991896
 20
22.55922955909529
 30
0.0
 10
-40.95149000000001
 20
22.574841
 30
0.0
  0
SPLINE
  5
144
330
1F
100
AcDbEntity
  8
0
  6
Continuous
 62
     7
100
AcDbSpline
210
0.0
220
0.0
230
1.0
 70
     8
 71
     3
 72
     9
 73
     5
 74
     0
 42
0.00000001
 43
0.00000001
 40
0.0
 40
0.0
 40
0.0
 40
0.0
 40
0.5667206733324894
 40
1.0
 40
1.0
 40
1.0
 40
1.0
 10
-40.95146059989928
 20
22.574841
 30
0.0
 10
-40.864897651584
 20
22.61402335776001
 30
0.0
 10
-40.79301100000001
 20
22.624491
 30
0.0
 10
-40.81738526678578
 20
22.62240913118087
 30
0.0
 10
-40.79301100000001
 20
22.624491
 30
0.0
  0
SPLINE
  5
145
330
1F
100
AcDbEntity
  8
0
  6
Continuous
 62
     7
100
AcDbSpline
210
0.0
220
0.0
230
1.0
 70
     8
 71
     3
 72
     9
 73
     5
 74
     0
 42
0.00000001
 43
0.00000001
 40
0.0
 40
0.0
 40
0.0
 40
0.0
 40
0.5753697048367583
 40
1.0
 40
1.0
 40
1.0
 40
1.0
 10
-40.7930016517639
 20
22.624491
 30
0.0
 10
-40.702414649792
 20
22.61344763872
 30
0.0
 10
-40.63794300000001
 20
22.593971
 30
0.0
 10
-40.65926491996422
 20
22.60126480839578
 30
0.0
 10
-40.63794300000001
 20
22.593971
 30
0.0
  0
SPLINE
  5
146
330
1F
100
AcDbEntity
  8
0
  6
Continuous
 62
     7
100
AcDbSpline
210
0.0
220
0.0
230
1.0
 70
     8
 71
     3
 72
    11
 73
     7
 74
     0
 42
0.00000001
 43
0.00000001
 40
0.0
 40
0.0
 40
0.0
 40
0.0
 40
0.0697225392475345
 40
0.1662500092864236
 40
0.4122173708616691
 40
1.0
 40
1.0
 40
1.0
 40
1.0
 10
-40.63794016838072
 20
22.593971
 30
0.0
 10
-40.60387695827183
 20
22.57084372229534
 30
0.0
 10
-40.55994248065072
 20
22.53452692061538
 30
0.0
 10
-40.45198454726401
 20
22.43735604012801
 30
0.0
 10
-40.20302400000001
 20
22.19549900000001
 30
0.0
 10
-40.28506757755417
 20
22.27715677269256
 30
0.0
 10
-40.20302400000001
 20
22.19549900000001
 30
0.0
  0
SPLINE
  5
147
330
1F
100
AcDbEntity
  8
0
  6
Continuous
 62
     7
100
AcDbSpline
210
0.0
220
0.0
230
1.0
 70
     8
 71
     3
 72
    11
 73
     7
 74
     0
 42
0.00000001
 43
0.00000001
 40
0.0
 40
0.0
 40
0.0
 40
0.0
 40
0.7249302611932651
 40
0.923982290556029
 40
0.9762785190663358
 40
1.0
 40
1.0
 40
1.0
 40
1.0
 10
-40.2030050754547
 20
22.19549900000001
 30
0.0
 10
-39.914514657536
 20
21.89050304428801
 30
0.0
 10
-39.83999330117773
 20
21.80255518833717
 30
0.0
 10
-39.8221264539262
 20
21.77810114766363
 30
0.0
 10
-39.81547
 20
21.76608400000001
 30
0.0
 10
-39.81761479489241
 20
21.77013641038613
 30
0.0
 10
-39.81547
 20
21.76608400000001
 30
0.0
  0
SPLINE
  5
148
330
1F
100
AcDbEntity
  8
0
  6
Continuous
 62
     7
100
AcDbSpline
210
0.0
220
0.0
230
1.0
 70
     8
 71
     3
 72
     9
 73
     5
 74
     0
 42
0.00000001
 43
0.00000001
 40
0.0
 40
0.0
 40
0.0
 40
0.0
 40
0.5435380407176804
 40
1.0
 40
1.0
 40
1.0
 40
1.0
 10
-39.81545567512511
 20
21.76608400000001
 30
0.0
 10
-39.79800761408
 20
21.689736327424
 30
0.0
 10
-39.79293000000001
 20
21.62416300000001
 30
0.0
 10
-39.79389408360333
 20
21.64613159966057
 30
0.0
 10
-39.79293000000001
 20
21.62416300000001
 30
0.0
  0
SPLINE
  5
149
330
1F
100
AcDbEntity
  8
0
  6
Continuous
 62
     7
100
AcDbSpline
210
0.0
220
0.0
230
1.0
 70
     8
 71
     3
 72
     9
 73
     5
 74
     0
 42
0.00000001
 43
0.00000001
 40
0.0
 40
0.0
 40
0.0
 40
0.0
 40
0.5432694054810281
 40
1.0
 40
1.0
 40
1.0
 40
1.0
 10
-39.79292511940001
 20
21.62416300000001
 30
0.0
 10
-39.810857682304
 20
21.531552400576
 30
0.0
 10
-39.84206
 20
21.458644
 30
0.0
 10
-39.83043166653728
 20
21.48256999645093
 30
0.0
 10
-39.84206
 20
21.458644
 30
0.0
  0
SPLINE
  5
14A
330
1F
100
AcDbEntity
  8
0
  6
Continuous
 62
     7
100
AcDbSpline
210
0.0
220
0.0
230
1.0
 70
     8
 71
     3
 72
     9
 73
     5
 74
     0
 42
0.00000001
 43
0.00000001
 40
0.0
 40
0.0
 40
0.0
 40
0.0
 40
0.5782947087752047
 40
1.0
 40
1.0
 40
1.0
 40
1.0
 10
-39.84203934669493
 20
21.458644
 30
0.0
 10
-39.907066122496
 20
21.37862420761601
 30
0.0
 10
-39.96690600000001
 20
21.33309700000001
 30
0.0
 10
-39.94608637994072
 20
21.34737134118375
 30
0.0
 10
-39.96690600000001
 20
21.33309700000001
 30
0.0
  0
SPLINE
  5
14B
330
1F
100
AcDbEntity
  8
0
  6
Continuous
 62
     7
100
AcDbSpline
210
0.0
220
0.0
230
1.0
 70
     8
 71
     3
 72
     9
 73
     5
 74
     0
 42
0.00000001
 43
0.00000001
 40
0.0
 40
0.0
 40
0.0
 40
0.0
 40
0.5501970277626562
 40
1.0
 40
1.0
 40
1.0
 40
1.0
 10
-39.96688127517699
 20
21.33309700000001
 30
0.0
 10
-40.06104666278399
 20
21.30201448224
 30
0.0
 10
-40.14157800000001
 20
21.292697
 30
0.0
 10
-40.11446821943834
 20
21.29459634857255
 30
0.0
 10
-40.14157800000001
 20
21.292697
 30
0.0
  0
SPLINE
  5
14C
330
1F
100
AcDbEntity
  8
0
  6
Continuous
 62
     7
100
AcDbSpline
210
0.0
220
0.0
230
1.0
 70
     8
 71
     3
 72
     9
 73
     5
 74
     0
 42
0.00000001
 43
0.00000001
 40
0.0
 40
0.0
 40
0.0
 40
0.0
 40
0.59036959347356
 40
1.0
 40
1.0
 40
1.0
 40
1.0
 10
-40.14155268669127
 20
21.292697
 30
0.0
 10
-40.24128741030401
 20
21.306890672192
 30
0.0
 10
-40.305674
 20
21.334097
 30
0.0
 10
-40.28454051576183
 20
21.32384316404101
 30
0.0
 10
-40.305674
 20
21.334097
 30
0.0
  0
SPLINE
  5
14D
330
1F
100
AcDbEntity
  8
0
  6
Continuous
 62
     7
100
AcDbSpline
210
0.0
220
0.0
230
1.0
 70
     8
 71
     3
 72
     9
 73
     5
 74
     0
 42
0.00000001
 43
0.00000001
 40
0.0
 40
0.0
 40
0.0
 40
0.0
 40
0.5691917332565641
 40
1.0
 40
1.0
 40
1.0
 40
1.0
 10
-35.02801060676573
 20
21.3289
 30
0.0
 10
-35.099087790272
 20
21.37855543833601
 30
0.0
 10
-35.143955
 20
21.42644600000001
 30
0.0
 10
-35.12964041329436
 20
21.40974238741414
 30
0.0
 10
-35.143955
 20
21.42644600000001
 30
0.0
  0
SPLINE
  5
14E
330
1F
100
AcDbEntity
  8
0
  6
Continuous
 62
     7
100
AcDbSpline
210
0.0
220
0.0
230
1.0
 70
     8
 71
     3
 72
     9
 73
     5
 74
     0
 42
0.00000001
 43
0.00000001
 40
0.0
 40
0.0
 40
0.0
 40
0.0
 40
0.564599887948263
 40
1.0
 40
1.0
 40
1.0
 40
1.0
 10
-35.14394164085387
 20
21.42644600000001
 30
0.0
 10
-35.1824354672
 20
21.501556298368
 30
0.0
 10
-35.200505
 20
21.564084
 30
0.0
 10
-35.19532472717435
 20
21.54290724796954
 30
0.0
 10
-35.20050500000001
 20
21.56408400000001
 30
0.0
  0
SPLINE
  5
14F
330
1F
100
AcDbEntity
  8
0
  6
Continuous
 62
     7
100
AcDbSpline
210
0.0
220
0.0
230
1.0
 70
     8
 71
     3
 72
     9
 73
     5
 74
     0
 42
0.00000001
 43
0.00000001
 40
0.0
 40
0.0
 40
0.0
 40
0.0
 40
0.554352024687619
 40
1.0
 40
1.0
 40
1.0
 40
1.0
 10
-35.20047664642333
 20
21.564084
 30
0.0
 10
-35.2043336976
 20
21.652102248192
 30
0.0
 10
-35.197405
 20
21.722589
 30
0.0
 10
-35.20045949702398
 20
21.69911360494074
 30
0.0
 10
-35.197405
 20
21.722589
 30
0.0
  0
SPLINE
  5
150
330
1F
100
AcDbEntity
  8
0
  6
Continuous
 62
     7
100
AcDbSpline
210
0.0
220
0.0
230
1.0
 70
     8
 71
     3
 72
     9
 73
     5
 74
     0
 42
0.00000001
 43
0.00000001
 40
0.0
 40
0.0
 40
0.0
 40
0.0
 40
0.3177099591755952
 40
1.0
 40
1.0
 40
1.0
 40
1.0
 10
-35.19737720489501
 20
21.722589
 30
0.0
 10
-35.093968485952
 20
21.885541944896
 30
0.0
 10
-34.807192
 20
22.18477
 30
0.0
 10
-34.91014194248488
 20
22.09079464988136
 30
0.0
 10
-34.807192
 20
22.18477
 30
0.0
  0
SPLINE
  5
151
330
1F
100
AcDbEntity
  8
0
  6
Continuous
 62
     7
100
AcDbSpline
210
0.0
220
0.0
230
1.0
 70
     8
 71
     3
 72
    10
 73
     6
 74
     0
 42
0.00000001
 43
0.00000001
 40
0.0
 40
0.0
 40
0.0
 40
0.0
 40
0.7193524924104189
 40
0.9205235752704006
 40
1.0
 40
1.0
 40
1.0
 40
1.0
 10
-34.80717539787291
 20
22.18477
 30
0.0
 10
-34.493723455744
 20
22.487045809024
 30
0.0
 10
-34.40158924755426
 20
22.56667736214302
 30
0.0
 10
-34.3621
 20
22.594159
 30
0.0
 10
-34.37540537362577
 20
22.58518348230959
 30
0.0
 10
-34.3621
 20
22.594159
 30
0.0
  0
SPLINE
  5
152
330
1F
100
AcDbEntity
  8
0
  6
Continuous
 62
     7
100
AcDbSpline
210
0.0
220
0.0
230
1.0
 70
     8
 71
     3
 72
     9
 73
     5
 74
     0
 42
0.00000001
 43
0.00000001
 40
0.0
 40
0.0
 40
0.0
 40
0.0
 40
0.553835382420432
 40
1.0
 40
1.0
 40
1.0
 40
1.0
 10
-34.36207771301268
 20
22.594159
 30
0.0
 10
-34.277417488128
 20
22.61745069024
 30
0.0
 10
-34.207031
 20
22.624469
 30
0.0
 10
-34.23065564104449
 20
22.62300294988335
 30
0.0
 10
-34.20703100000001
 20
22.62446900000001
 30
0.0
  0
SPLINE
  5
153
330
1F
100
AcDbEntity
  8
0
  6
Continuous
 62
     7
100
AcDbSpline
210
0.0
220
0.0
230
1.0
 70
     8
 71
     3
 72
     9
 73
     5
 74
     0
 42
0.00000001
 43
0.00000001
 40
0.0
 40
0.0
 40
0.0
 40
0.0
 40
0.5554713208466648
 40
0.9999999999999999
 40
0.9999999999999999
 40
0.9999999999999999
 40
0.9999999999999999
 10
-34.2070162296295
 20
22.624469
 30
0.0
 10
-34.115383941056
 20
22.60781420576
 30
0.0
 10
-34.04855300000001
 20
22.57481900000001
 30
0.0
 10
-34.07034841488271
 20
22.58727447982077
 30
0.0
 10
-34.04855300000001
 20
22.57481900000001
 30
0.0
  0
SPLINE
  5
154
330
1F
100
AcDbEntity
  8
0
  6
Continuous
 62
     7
100
AcDbSpline
210
0.0
220
0.0
230
1.0
 70
     8
 71
     3
 72
     9
 73
     5
 74
     0
 42
0.00000001
 43
0.00000001
 40
0.0
 40
0.0
 40
0.0
 40
0.0
 40
0.5647245527375305
 40
1.0
 40
1.0
 40
1.0
 40
1.0
 10
-34.04852747917174
 20
22.57481900000001
 30
0.0
 10
-33.973974156864
 20
22.510004988864
 30
0.0
 10
-33.925237
 20
22.45150300000001
 30
0.0
 10
-33.94084963516939
 20
22.47162356651789
 30
0.0
 10
-33.925237
 20
22.45150300000001
 30
0.0
  0
SPLINE
  5
155
330
1F
100
AcDbEntity
  8
0
  6
Continuous
 62
     7
100
AcDbSpline
210
0.0
220
0.0
230
1.0
 70
     8
 71
     3
 72
     9
 73
     5
 74
     0
 42
0.00000001
 43
0.00000001
 40
0.0
 40
0.0
 40
0.0
 40
0.0
 40
0.5702329220701472
 40
1.0
 40
1.0
 40
1.0
 40
1.0
 10
-33.92523527145384
 20
22.45150300000001
 30
0.0
 10
-33.88623027616
 20
22.36551133536001
 30
0.0
 10
-33.875587
 20
22.295147
 30
0.0
 10
-33.87779147921104
 20
22.31899967493829
 30
0.0
 10
-33.875587
 20
22.295147
 30
0.0
  0
SPLINE
  5
156
330
1F
100
AcDbEntity
  8
0
  6
Continuous
 62
     7
100
AcDbSpline
210
0.0
220
0.0
230
1.0
 70
     8
 71
     3
 72
     9
 73
     5
 74
     0
 42
0.00000001
 43
0.00000001
 40
0.0
 40
0.0
 40
0.0
 40
0.0
 40
0.5888908677753915
 40
1.0
 40
1.0
 40
1.0
 40
1.0
 10
-33.87558460235594
 20
22.295147
 30
0.0
 10
-33.88387055584
 20
22.20936196550401
 30
0.0
 10
-33.898477
 20
22.150996
 30
0.0
 10
-33.89300372070539
 20
22.17034709124147
 30
0.0
 10
-33.898477
 20
22.150996
 30
0.0
  0
SPLINE
  5
157
330
1F
100
AcDbEntity
  8
0
  6
Continuous
 62
     7
100
AcDbSpline
210
0.0
220
0.0
230
1.0
 70
     8
 71
     3
 72
    11
 73
     7
 74
     0
 42
0.00000001
 43
0.00000001
 40
0.0
 40
0.0
 40
0.0
 40
0.0
 40
0.0656317568232811
 40
0.1601455733723598
 40
0.4052151640346405
 40
0.9999999999999999
 40
0.9999999999999999
 40
0.9999999999999999
 40
0.9999999999999999
 10
-33.89847278594969
 20
22.150996
 30
0.0
 10
-33.91934662380522
 20
22.11927687290094
 30
0.0
 10
-33.95387821545739
 20
22.07687892520611
 30
0.0
 10
-34.048038267968
 20
21.970874533888
 30
0.0
 10
-34.286031
 20
21.72233200000001
 30
0.0
 10
-34.20565472043909
 20
21.80425134658219
 30
0.0
 10
-34.286031
 20
21.72233200000001
 30
0.0
  0
SPLINE
  5
158
330
1F
100
AcDbEntity
  8
0
  6
Continuous
 62
     7
100
AcDbSpline
210
0.0
220
0.0
230
1.0
 70
     8
 71
     3
 72
    10
 73
     6
 74
     0
 42
0.00000001
 43
0.00000001
 40
0.0
 40
0.0
 40
0.0
 40
0.0
 40
0.7231629618551525
 40
0.9230752698176806
 40
1.0
 40
1.0
 40
1.0
 40
1.0
 10
-34.28602218627928
 20
21.72233200000001
 30
0.0
 10
-34.587592699712
 20
21.42883854822401
 30
0.0
 10
-34.67410358904105
 20
21.35106610560695
 30
0.0
 10
-34.70965
 20
21.32386
 30
0.0
 10
-34.69769869936255
 20
21.33280435230385
 30
0.0
 10
-34.70965
 20
21.32386
 30
0.0
  0
SPLINE
  5
159
330
1F
100
AcDbEntity
  8
0
  6
Continuous
 62
     7
100
AcDbSpline
210
0.0
220
0.0
230
1.0
 70
     8
 71
     3
 72
     9
 73
     5
 74
     0
 42
0.00000001
 43
0.00000001
 40
0.0
 40
0.0
 40
0.0
 40
0.0
 40
0.5284940812793423
 40
1.0
 40
1.0
 40
1.0
 40
1.0
 10
-34.70963239669798
 20
21.32386
 30
0.0
 10
-34.788933192576
 20
21.30000882048001
 30
0.0
 10
-34.862489
 20
21.29309
 30
0.0
 10
-34.83774988102322
 20
21.2942677667318
 30
0.0
 10
-34.86248900000001
 20
21.29309000000001
 30
0.0
  0
SPLINE
  5
15A
330
1F
100
AcDbEntity
  8
0
  6
Continuous
 62
     7
100
AcDbSpline
210
0.0
220
0.0
230
1.0
 70
     8
 71
     3
 72
     9
 73
     5
 74
     0
 42
0.00000001
 43
0.00000001
 40
0.0
 40
0.0
 40
0.0
 40
0.0
 40
0.5816692576059801
 40
1.0
 40
1.0
 40
1.0
 40
1.0
 10
-34.86248850822447
 20
21.29309
 30
0.0
 10
-34.96056125523199
 20
21.306243818496
 30
0.0
 10
-35.028023
 20
21.3289
 30
0.0
 10
-35.00574988124006
 20
21.32042788474786
 30
0.0
 10
-35.028023
 20
21.3289
 30
0.0
  0
SPLINE
  5
15B
330
1F
100
AcDbEntity
  8
0
  6
Continuous
 62
     7
100
AcDbSpline
210
0.0
220
0.0
230
1.0
 70
     8
 71
     3
 72
     9
 73
     5
 74
     0
 42
0.00000001
 43
0.00000001
 40
0.0
 40
0.0
 40
0.0
 40
0.0
 40
0.5783501294987802
 40
1.0
 40
1.0
 40
1.0
 40
1.0
 10
-37.6748740673065
 20
22.433413
 30
0.0
 10
-37.746894004608
 20
22.493474851136
 30
0.0
 10
-37.792752
 20
22.544184
 30
0.0
 10
-37.77793323187805
 20
22.52679460036262
 30
0.0
 10
-37.792752
 20
22.544184
 30
0.0
  0
SPLINE
  5
15C
330
1F
100
AcDbEntity
  8
0
  6
Continuous
 62
     7
100
AcDbSpline
210
0.0
220
0.0
230
1.0
 70
     8
 71
     3
 72
     9
 73
     5
 74
     0
 42
0.00000001
 43
0.00000001
 40
0.0
 40
0.0
 40
0.0
 40
0.0
 40
0.2665296332231171
 40
1.0
 40
1.0
 40
1.0
 40
1.0
 10
-37.79274225234984
 20
22.544184
 30
0.0
 10
-37.83389029888
 20
22.71327131571201
 30
0.0
 10
-37.838432
 20
23.192146
 30
0.0
 10
-37.85020549735906
 20
23.03086363802726
 30
0.0
 10
-37.838432
 20
23.19214600000001
 30
0.0
  0
SPLINE
  5
15D
330
1F
100
AcDbEntity
  8
0
  6
Continuous
 62
     7
100
AcDbSpline
210
0.0
220
0.0
230
1.0
 70
     8
 71
     3
 72
     9
 73
     5
 74
     0
 42
0.00000001
 43
0.00000001
 40
0.0
 40
0.0
 40
0.0
 40
0.0
 40
0.8255926198888623
 40
1.0
 40
1.0
 40
1.0
 40
1.0
 10
-37.83842921257018
 20
23.192146
 30
0.0
 10
-37.82958195712
 20
23.73212978201601
 30
0.0
 10
-37.792752
 20
23.84010900000001
 30
0.0
 10
-37.80604489407283
 20
23.80429303716782
 30
0.0
 10
-37.792752
 20
23.84010900000001
 30
0.0
  0
SPLINE
  5
15E
330
1F
100
AcDbEntity
  8
0
  6
Continuous
 62
     7
100
AcDbSpline
210
0.0
220
0.0
230
1.0
 70
     8
 71
     3
 72
     9
 73
     5
 74
     0
 42
0.00000001
 43
0.00000001
 40
0.0
 40
0.0
 40
0.0
 40
0.0
 40
0.5514047414208854
 40
0.9999999999999999
 40
0.9999999999999999
 40
0.9999999999999999
 40
0.9999999999999999
 10
-37.79274225234984
 20
23.84010900000001
 30
0.0
 10
-37.731529531392
 20
23.905256547136
 30
0.0
 10
-37.674894
 20
23.95088000000001
 30
0.0
 10
-37.69428360475381
 20
23.93622375462123
 30
0.0
 10
-37.674894
 20
23.95088000000001
 30
0.0
  0
SPLINE
  5
15F
330
1F
100
AcDbEntity
  8
0
  6
Continuous
 62
     7
100
AcDbSpline
210
0.0
220
0.0
230
1.0
 70
     8
 71
     3
 72
     9
 73
     5
 74
     0
 42
0.00000001
 43
0.00000001
 40
0.0
 40
0.0
 40
0.0
 40
0.0
 40
0.53566960217301
 40
1.0
 40
1.0
 40
1.0
 40
1.0
 10
-37.6748740673065
 20
23.95088000000001
 30
0.0
 10
-37.584863452288
 20
23.99082259584
 30
0.0
 10
-37.499999
 20
24.00001000000001
 30
0.0
 10
-37.52881658314757
 20
23.9989159625172
 30
0.0
 10
-37.499999
 20
24.00001000000001
 30
0.0
  0
SPLINE
  5
160
330
1F
100
AcDbEntity
  8
0
  6
Continuous
 62
     7
100
AcDbSpline
210
0.0
220
0.0
230
1.0
 70
     8
 71
     3
 72
     9
 73
     5
 74
     0
 42
0.00000001
 43
0.00000001
 40
0.0
 40
0.0
 40
0.0
 40
0.0
 40
0.5796169344272046
 40
0.9999999999999999
 40
0.9999999999999999
 40
0.9999999999999999
 40
0.9999999999999999
 10
-37.49999403953551
 20
24.00001000000001
 30
0.0
 10
-37.39446470624001
 20
23.98501954368001
 30
0.0
 10
-37.32510500000001
 20
23.95088000000001
 30
0.0
 10
-37.3477219603577
 20
23.9638900446876
 30
0.0
 10
-37.32510500000001
 20
23.95088000000001
 30
0.0
  0
SPLINE
  5
161
330
1F
100
AcDbEntity
  8
0
  6
Continuous
 62
     7
100
AcDbSpline
210
0.0
220
0.0
230
1.0
 70
     8
 71
     3
 72
     9
 73
     5
 74
     0
 42
0.00000001
 43
0.00000001
 40
0.0
 40
0.0
 40
0.0
 40
0.0
 40
0.5782687958555909
 40
1.0
 40
1.0
 40
1.0
 40
1.0
 10
-37.32508420944212
 20
23.95088000000001
 30
0.0
 10
-37.253104995392
 20
23.89081814886401
 30
0.0
 10
-37.207247
 20
23.84010900000001
 30
0.0
 10
-37.22206653444535
 20
23.85749746677666
 30
0.0
 10
-37.207247
 20
23.84010900000001
 30
0.0
  0
SPLINE
  5
162
330
1F
100
AcDbEntity
  8
0
  6
Continuous
 62
     7
100
AcDbSpline
210
0.0
220
0.0
230
1.0
 70
     8
 71
     3
 72
     9
 73
     5
 74
     0
 42
0.00000001
 43
0.00000001
 40
0.0
 40
0.0
 40
0.0
 40
0.0
 40
0.2665265878912466
 40
0.9999999999999999
 40
0.9999999999999999
 40
0.9999999999999999
 40
0.9999999999999999
 10
-37.20724582672118
 20
23.84010900000001
 30
0.0
 10
-37.16610870112
 20
23.67102150867201
 30
0.0
 10
-37.161567
 20
23.192146
 30
0.0
 10
-37.14979690580947
 20
23.35342779922593
 30
0.0
 10
-37.161567
 20
23.192146
 30
0.0
  0
SPLINE
  5
163
330
1F
100
AcDbEntity
  8
0
  6
Continuous
 62
     7
100
AcDbSpline
210
0.0
220
0.0
230
1.0
 70
     8
 71
     3
 72
     9
 73
     5
 74
     0
 42
0.00000001
 43
0.00000001
 40
0.0
 40
0.0
 40
0.0
 40
0.0
 40
0.8255925254979062
 40
1.0
 40
1.0
 40
1.0
 40
1.0
 10
-37.16155886650084
 20
23.192146
 30
0.0
 10
-37.17041704288
 20
22.6521631328
 30
0.0
 10
-37.207247
 20
22.544184
 30
0.0
 10
-37.1939541724742
 20
22.57999993530943
 30
0.0
 10
-37.207247
 20
22.544184
 30
0.0
  0
SPLINE
  5
164
330
1F
100
AcDbEntity
  8
0
  6
Continuous
 62
     7
100
AcDbSpline
210
0.0
220
0.0
230
1.0
 70
     8
 71
     3
 72
     9
 73
     5
 74
     0
 42
0.00000001
 43
0.00000001
 40
0.0
 40
0.0
 40
0.0
 40
0.0
 40
0.5514254340168294
 40
1.0
 40
1.0
 40
1.0
 40
1.0
 10
-37.20724582672118
 20
22.544184
 30
0.0
 10
-37.268469468608
 20
22.479036452864
 30
0.0
 10
-37.32510500000001
 20
22.433413
 30
0.0
 10
-37.30571577156341
 20
22.44806960228757
 30
0.0
 10
-37.32510500000001
 20
22.433413
 30
0.0
  0
SPLINE
  5
165
330
1F
100
AcDbEntity
  8
0
  6
Continuous
 62
     7
100
AcDbSpline
210
0.0
220
0.0
230
1.0
 70
     8
 71
     3
 72
     9
 73
     5
 74
     0
 42
0.00000001
 43
0.00000001
 40
0.0
 40
0.0
 40
0.0
 40
0.0
 40
0.535769936399403
 40
1.0
 40
1.0
 40
1.0
 40
1.0
 10
-37.32508420944212
 20
22.433413
 30
0.0
 10
-37.415135372096
 20
22.39346715168
 30
0.0
 10
-37.499999
 20
22.384283
 30
0.0
 10
-37.47118215344186
 20
22.38537698938961
 30
0.0
 10
-37.499999
 20
22.384283
 30
0.0
  0
SPLINE
  5
166
330
1F
100
AcDbEntity
  8
0
  6
Continuous
 62
     7
100
AcDbSpline
210
0.0
220
0.0
230
1.0
 70
     8
 71
     3
 72
     9
 73
     5
 74
     0
 42
0.00000001
 43
0.00000001
 40
0.0
 40
0.0
 40
0.0
 40
0.0
 40
0.5796395605957748
 40
0.9999999999999999
 40
0.9999999999999999
 40
0.9999999999999999
 40
0.9999999999999999
 10
-37.49999403953551
 20
22.384283
 30
0.0
 10
-37.60553388332801
 20
22.39927345632
 30
0.0
 10
-37.674894
 20
22.433413
 30
0.0
 10
-37.65227688311162
 20
22.42040297232509
 30
0.0
 10
-37.674894
 20
22.433413
 30
0.0
  0
SPLINE
  5
167
330
1F
100
AcDbEntity
  8
0
  6
Continuous
 62
     7
100
AcDbSpline
210
0.0
220
0.0
230
1.0
 70
     8
 71
     3
 72
     9
 73
     5
 74
     0
 42
0.00000001
 43
0.00000001
 40
0.0
 40
0.0
 40
0.0
 40
0.0
 40
0.5252680089371691
 40
1.0
 40
1.0
 40
1.0
 40
1.0
 10
26.0182172060013
 20
-1.452892000000011
 30
0.0
 10
25.862781393408
 20
-1.365327358976011
 30
0.0
 10
25.73942
 20
-1.261500000000011
 30
0.0
 10
25.77918590022515
 20
-1.298062428899373
 30
0.0
 10
25.73942
 20
-1.261500000000011
 30
0.0
  0
SPLINE
  5
168
330
1F
100
AcDbEntity
  8
0
  6
Continuous
 62
     7
100
AcDbSpline
210
0.0
220
0.0
230
1.0
 70
     8
 71
     3
 72
    10
 73
     6
 74
     0
 42
0.00000001
 43
0.00000001
 40
0.0
 40
0.0
 40
0.0
 40
0.0
 40
0.0657617000823509
 40
0.1769087474475692
 40
1.0
 40
1.0
 40
1.0
 40
1.0
 10
25.73941648006441
 20
-1.261500000000011
 30
0.0
 10
25.5956086875
 20
-1.092768218750011
 30
0.0
 10
25.5251305
 20
-0.7247492500000107
 30
0.0
 10
25.5
 20
2.049999999999989
 30
0.0
 10
25.49411387449205
 20
1.146525212905846
 30
0.0
 10
25.5
 20
2.049999999999989
 30
0.0
  0
SPLINE
  5
169
330
1F
100
AcDbEntity
  8
0
  6
Continuous
 62
     7
100
AcDbSpline
210
0.0
220
0.0
230
1.0
 70
     8
 71
     3
 72
    10
 73
     6
 74
     0
 42
0.00000001
 43
0.00000001
 40
0.0
 40
0.0
 40
0.0
 40
0.0
 40
0.8231164389634286
 40
0.9364100693994287
 40
1.0
 40
1.0
 40
1.0
 40
1.0
 10
25.49999952316286
 20
2.049999999999989
 30
0.0
 10
25.523567
 20
4.804227499999989
 30
0.0
 10
25.587301125
 20
5.17793706249999
 30
0.0
 10
25.716136
 20
5.34728699999999
 30
0.0
 10
25.66763039295636
 20
5.293294770824102
 30
0.0
 10
25.716136
 20
5.34728699999999
 30
0.0
  0
SPLINE
  5
16A
330
1F
100
AcDbEntity
  8
0
  6
Continuous
 62
     7
100
AcDbSpline
210
0.0
220
0.0
230
1.0
 70
     8
 71
     3
 72
     9
 73
     5
 74
     0
 42
0.00000001
 43
0.00000001
 40
0.0
 40
0.0
 40
0.0
 40
0.0
 40
0.5627766005138108
 40
1.0
 40
1.0
 40
1.0
 40
1.0
 10
25.71612596511842
 20
5.34728699999999
 30
0.0
 10
26.021712964224
 20
5.561854799039989
 30
0.0
 10
26.307599
 20
5.611067999999989
 30
0.0
 10
26.20877130723767
 20
5.603224826120382
 30
0.0
 10
26.307599
 20
5.611067999999989
 30
0.0
  0
SPLINE
  5
16B
330
1F
100
AcDbEntity
  8
0
  6
Continuous
 62
     7
100
AcDbSpline
210
0.0
220
0.0
230
1.0
 70
     8
 71
     3
 72
     9
 73
     5
 74
     0
 42
0.00000001
 43
0.00000001
 40
0.0
 40
0.0
 40
0.0
 40
0.0
 40
0.6156204081678026
 40
1.0
 40
1.0
 40
1.0
 40
1.0
 10
26.30759775638582
 20
5.611067999999989
 30
0.0
 10
26.48852363424
 20
5.594422450687991
 30
0.0
 10
26.598415
 20
5.56625799999999
 30
0.0
 10
26.56198152002367
 20
5.576784640464401
 30
0.0
 10
26.598415
 20
5.56625799999999
 30
0.0
  0
SPLINE
  5
16C
330
1F
100
AcDbEntity
  8
0
  6
Continuous
 62
     7
100
AcDbSpline
210
0.0
220
0.0
230
1.0
 70
     8
 71
     3
 72
    12
 73
     8
 74
     0
 42
0.00000001
 43
0.00000001
 40
0.0
 40
0.0
 40
0.0
 40
0.0
 40
0.018113000126046
 40
0.0485343385581938
 40
0.1350427478242677
 40
0.3768527989382463
 40
1.0
 40
1.0
 40
1.0
 40
1.0
 10
26.59840881824495
 20
5.56625799999999
 30
0.0
 10
26.64829620663122
 20
5.541612280642598
 30
0.0
 10
26.73137783811868
 20
5.49882010031556
 30
0.0
 10
26.96694522755202
 20
5.375803009057584
 30
0.0
 10
27.624111836864
 20
5.02947252851199
 30
0.0
 10
29.31507
 20
4.132119999999989
 30
0.0
 10
28.75158704950269
 20
4.431551685600257
 30
0.0
 10
29.31507
 20
4.132119999999989
 30
0.0
  0
SPLINE
  5
16D
330
1F
100
AcDbEntity
  8
0
  6
Continuous
 62
     7
100
AcDbSpline
210
0.0
220
0.0
230
1.0
 70
     8
 71
     3
 72
    11
 73
     7
 74
     0
 42
0.00000001
 43
0.00000001
 40
0.0
 40
0.0
 40
0.0
 40
0.0
 40
0.7793262281534998
 40
0.9463592853674538
 40
0.9848694761222357
 40
0.9999999999999999
 40
0.9999999999999999
 40
0.9999999999999999
 40
0.9999999999999999
 10
29.3150693178177
 20
4.132119999999989
 30
0.0
 10
31.44982347456
 20
2.98036047807999
 30
0.0
 10
31.90180003178655
 20
2.72345553475796
 30
0.0
 10
32.00365138226464
 20
2.660263201200817
 30
0.0
 10
32.04153299999998
 20
2.63228499999999
 30
0.0
 10
32.02900564655133
 20
2.641757526551711
 30
0.0
 10
32.04153299999998
 20
2.63228499999999
 30
0.0
  0
SPLINE
  5
16E
330
1F
100
AcDbEntity
  8
0
  6
Continuous
 62
     7
100
AcDbSpline
210
0.0
220
0.0
230
1.0
 70
     8
 71
     3
 72
     9
 73
     5
 74
     0
 42
0.00000001
 43
0.00000001
 40
0.0
 40
0.0
 40
0.0
 40
0.0
 40
0.5558817181791987
 40
1.0
 40
1.0
 40
1.0
 40
1.0
 10
32.04151988029481
 20
2.63228499999999
 30
0.0
 10
32.28847484614398
 20
2.133304422463989
 30
0.0
 10
32.19864999999998
 20
1.697657999999989
 30
0.0
 10
32.24984474757893
 20
1.845611386174148
 30
0.0
 10
32.19864999999998
 20
1.697657999999989
 30
0.0
  0
SPLINE
  5
16F
330
1F
100
AcDbEntity
  8
0
  6
Continuous
 62
     7
100
AcDbSpline
210
0.0
220
0.0
230
1.0
 70
     8
 71
     3
 72
     9
 73
     5
 74
     0
 42
0.00000001
 43
0.00000001
 40
0.0
 40
0.0
 40
0.0
 40
0.0
 40
0.6024067606271675
 40
1.0
 40
1.0
 40
1.0
 40
1.0
 10
32.19863772392274
 20
1.697657999999989
 30
0.0
 10
32.09156221247999
 20
1.533749277567989
 30
0.0
 10
32.00302699999999
 20
1.439626999999989
 30
0.0
 10
32.03372253993847
 20
1.470069479934816
 30
0.0
 10
32.00302699999999
 20
1.439626999999989
 30
0.0
  0
SPLINE
  5
170
330
1F
100
AcDbEntity
  8
0
  6
Continuous
 62
     7
100
AcDbSpline
210
0.0
220
0.0
230
1.0
 70
     8
 71
     3
 72
    15
 73
    11
 74
     0
 42
0.00000001
 43
0.00000001
 40
0.0
 40
0.0
 40
0.0
 40
0.0
 40
0.0043512037944868
 40
0.0110613987563069
 40
0.0297723982885859
 40
0.0823891307559168
 40
0.2247316445539176
 40
0.5599658771648093
 40
0.8432108176998807
 40
0.9999999999999999
 40
0.9999999999999999
 40
0.9999999999999999
 40
0.9999999999999999
 10
32.00301527976991
 20
1.439626999999989
 30
0.0
 10
31.98096769707794
 20
1.42551457440762
 30
0.0
 10
31.94611924465696
 20
1.405136308253836
 30
0.0
 10
31.84810241029668
 20
1.349781027759682
 30
0.0
 10
31.57093131130409
 20
1.196877512590216
 30
0.0
 10
30.81847871495778
 20
0.7880352304372131
 30
0.0
 10
29.04204117471999
 20
-0.1668479854720112
 30
0.0
 10
27.53788679684
 20
-0.9676385407840108
 30
0.0
 10
26.701182
 20
-1.403152000000011
 30
0.0
 10
26.98032797874096
 20
-1.258445221474812
 30
0.0
 10
26.701182
 20
-1.403152000000011
 30
0.0
  0
SPLINE
  5
171
330
1F
100
AcDbEntity
  8
0
  6
Continuous
 62
     7
100
AcDbSpline
210
0.0
220
0.0
230
1.0
 70
     8
 71
     3
 72
     9
 73
     5
 74
     0
 42
0.00000001
 43
0.00000001
 40
0.0
 40
0.0
 40
0.0
 40
0.0
 40
0.5683219850487113
 40
1.0
 40
1.0
 40
1.0
 40
1.0
 10
26.70116722583772
 20
-1.403152000000011
 30
0.0
 10
26.316174452096
 20
-1.504360882432011
 30
0.0
 10
26.018224
 20
-1.452892000000011
 30
0.0
 10
26.11793818124667
 20
-1.479282153154025
 30
0.0
 10
26.018224
 20
-1.452892000000011
 30
0.0
  0
SPLINE
  5
172
330
1F
100
AcDbEntity
  8
0
  6
Continuous
 62
     7
100
AcDbSpline
210
0.0
220
0.0
230
1.0
 70
     8
 71
     3
 72
     9
 73
     5
 74
     0
 42
0.00000001
 43
0.00000001
 40
0.0
 40
0.0
 40
0.0
 40
0.0
 40
0.5495707702603835
 40
1.0
 40
1.0
 40
1.0
 40
1.0
 10
33.44640135765077
 20
-1.433493000025053
 30
0.0
 10
33.20615267276823
 20
-1.270200201433053
 30
0.0
 10
33.05879300000022
 20
-1.083198000025053
 30
0.0
 10
33.10419320144533
 20
-1.149523404548289
 30
0.0
 10
33.05879300000023
 20
-1.083198000025054
 30
0.0
  0
SPLINE
  5
173
330
1F
100
AcDbEntity
  8
0
  6
Continuous
 62
     7
100
AcDbSpline
210
0.0
220
0.0
230
1.0
 70
     8
 71
     3
 72
     9
 73
     5
 74
     0
 42
0.00000001
 43
0.00000001
 40
0.0
 40
0.0
 40
0.0
 40
0.0
 40
0.5450012532951989
 40
1.0
 40
1.0
 40
1.0
 40
1.0
 10
33.05232524871828
 20
5.169468999974947
 30
0.0
 10
33.24008430099224
 20
5.418541729446948
 30
0.0
 10
33.46161200000022
 20
5.555420999974948
 30
0.0
 10
33.38285730351831
 20
5.515183364098741
 30
0.0
 10
33.46161200000022
 20
5.555420999974948
 30
0.0
  0
SPLINE
  5
174
330
1F
100
AcDbEntity
  8
0
  6
Continuous
 62
     7
100
AcDbSpline
210
0.0
220
0.0
230
1.0
 70
     8
 71
     3
 72
     9
 73
     5
 74
     0
 42
0.00000001
 43
0.00000001
 40
0.0
 40
0.0
 40
0.0
 40
0.0
 40
0.5695800045133143
 40
1.0
 40
1.0
 40
1.0
 40
1.0
 10
33.4616005420685
 20
5.555420999974948
 30
0.0
 10
33.99948542336023
 20
5.621564615974947
 30
0.0
 10
34.40363900000023
 20
5.555420999974948
 30
0.0
 10
34.26908721584205
 20
5.585799435628459
 30
0.0
 10
34.40363900000023
 20
5.555420999974948
 30
0.0
  0
SPLINE
  5
175
330
1F
100
AcDbEntity
  8
0
  6
Continuous
 62
     7
100
AcDbSpline
210
0.0
220
0.0
230
1.0
 70
     8
 71
     3
 72
     9
 73
     5
 74
     0
 42
0.00000001
 43
0.00000001
 40
0.0
 40
0.0
 40
0.0
 40
0.0
 40
0.567715438521981
 40
1.0
 40
1.0
 40
1.0
 40
1.0
 10
34.40362215042116
 20
5.555420999974948
 30
0.0
 10
34.67135501382423
 20
5.375162818598947
 30
0.0
 10
34.81151400000024
 20
5.173282999974947
 30
0.0
 10
34.76938412576296
 20
5.245232191953258
 30
0.0
 10
34.81151400000024
 20
5.173282999974948
 30
0.0
  0
SPLINE
  5
176
330
1F
100
AcDbEntity
  8
0
  6
Continuous
 62
     7
100
AcDbSpline
210
0.0
220
0.0
230
1.0
 70
     8
 71
     3
 72
    10
 73
     6
 74
     0
 42
0.00000001
 43
0.00000001
 40
0.0
 40
0.0
 40
0.0
 40
0.0
 40
0.7172134952656859
 40
0.957563439932447
 40
1.0
 40
1.0
 40
1.0
 40
1.0
 10
34.88981723785402
 20
2.053627999974947
 30
0.0
 10
34.88630499609398
 20
-0.1644468554938033
 30
0.0
 10
34.86372571875023
 20
-0.9074178437750535
 30
0.0
 10
34.82923400000023
 20
-1.034045000025054
 30
0.0
 10
34.84152465537024
 20
-0.9919560369419816
 30
0.0
 10
34.82923400000023
 20
-1.034045000025054
 30
0.0
  0
SPLINE
  5
177
330
1F
100
AcDbEntity
  8
0
  6
Continuous
 62
     7
100
AcDbSpline
210
0.0
220
0.0
230
1.0
 70
     8
 71
     3
 72
     9
 73
     5
 74
     0
 42
0.00000001
 43
0.00000001
 40
0.0
 40
0.0
 40
0.0
 40
0.0
 40
0.5545649749419703
 40
1.0
 40
1.0
 40
1.0
 40
1.0
 10
34.82922911643983
 20
-1.034045000025054
 30
0.0
 10
34.63468864524824
 20
-1.290923046233054
 30
0.0
 10
34.41883400000023
 20
-1.433733000025053
 30
0.0
 10
34.49520996387682
 20
-1.390845235523854
 30
0.0
 10
34.41883400000023
 20
-1.433733000025053
 30
0.0
  0
SPLINE
  5
178
330
1F
100
AcDbEntity
  8
0
  6
Continuous
 62
     7
100
AcDbSpline
210
0.0
220
0.0
230
1.0
 70
     8
 71
     3
 72
     9
 73
     5
 74
     0
 42
0.00000001
 43
0.00000001
 40
0.0
 40
0.0
 40
0.0
 40
0.0
 40
0.4425954169396845
 40
1.0
 40
1.0
 40
1.0
 40
1.0
 10
34.41882133483888
 20
-1.433733000025053
 30
0.0
 10
34.20851016588823
 20
-1.495467220825053
 30
0.0
 10
33.93262700000023
 20
-1.504803000025054
 30
0.0
 10
34.02561157275066
 20
-1.508046627307846
 30
0.0
 10
33.93262700000023
 20
-1.504803000025054
 30
0.0
  0
SPLINE
  5
179
330
1F
100
AcDbEntity
  8
0
  6
Continuous
 62
     7
100
AcDbSpline
210
0.0
220
0.0
230
1.0
 70
     8
 71
     3
 72
     9
 73
     5
 74
     0
 42
0.00000001
 43
0.00000001
 40
0.0
 40
0.0
 40
0.0
 40
0.0
 40
0.6585955347720935
 40
1.0
 40
1.0
 40
1.0
 40
1.0
 10
33.93262624740602
 20
-1.504803000025054
 30
0.0
 10
33.60658815097622
 20
-1.488132024025054
 30
0.0
 10
33.44641800000023
 20
-1.433493000025054
 30
0.0
 10
33.49930491545628
 20
-1.454323276115556
 30
0.0
 10
33.44641800000024
 20
-1.433493000025054
 30
0.0
  0
SPLINE
  5
17A
330
1F
100
AcDbEntity
  8
0
  6
Continuous
 62
     7
100
AcDbSpline
210
0.0
220
0.0
230
1.0
 70
     8
 71
     3
 72
     9
 73
     5
 74
     0
 42
0.00000001
 43
0.00000001
 40
0.0
 40
0.0
 40
0.0
 40
0.0
 40
0.5564942260603358
 40
0.9999999999999999
 40
0.9999999999999999
 40
0.9999999999999999
 40
0.9999999999999999
 10
36.09770536422731
 20
-1.46206200000001
 30
0.0
 10
35.74943842828799
 20
-1.21389235878401
 30
0.0
 10
35.58969899999999
 20
-0.9128300000000102
 30
0.0
 10
35.63423674309555
 20
-1.020818341864924
 30
0.0
 10
35.58969899999999
 20
-0.9128300000000102
 30
0.0
  0
SPLINE
  5
17B
330
1F
100
AcDbEntity
  8
0
  6
Continuous
 62
     7
100
AcDbSpline
210
0.0
220
0.0
230
1.0
 70
     8
 71
     3
 72
    12
 73
     8
 74
     0
 42
0.00000001
 43
0.00000001
 40
0.0
 40
0.0
 40
0.0
 40
0.0
 40
0.0160847678560764
 40
0.0394598886396139
 40
0.1063072678113944
 40
0.3128794267192852
 40
1.0
 40
1.0
 40
1.0
 40
1.0
 10
35.58969497680665
 20
-0.9128300000000102
 30
0.0
 10
35.58291191430416
 20
-0.8644119256055144
 30
0.0
 10
35.57828386486238
 20
-0.7935123256681439
 30
0.0
 10
35.57152401830179
 20
-0.5904370174133228
 30
0.0
 10
35.56407294303999
 20
0.0374108455679897
 30
0.0
 10
35.56448899999999
 20
2.125966999999989
 30
0.0
 10
35.56291442616696
 20
1.429844090628258
 30
0.0
 10
35.56448899999999
 20
2.125966999999989
 30
0.0
  0
SPLINE
  5
17C
330
1F
100
AcDbEntity
  8
0
  6
Continuous
 62
     7
100
AcDbSpline
210
0.0
220
0.0
230
1.0
 70
     8
 71
     3
 72
     9
 73
     5
 74
     0
 42
0.00000001
 43
0.00000001
 40
0.0
 40
0.0
 40
0.0
 40
0.0
 40
0.5822487878455075
 40
1.0
 40
1.0
 40
1.0
 40
1.0
 10
35.63937544822694
 20
5.166130999999989
 30
0.0
 10
35.87352714028799
 20
5.440334235711989
 30
0.0
 10
36.09273999999998
 20
5.57771699999999
 30
0.0
 10
36.01610326414856
 20
5.536055158889775
 30
0.0
 10
36.09273999999998
 20
5.57771699999999
 30
0.0
  0
SPLINE
  5
17D
330
1F
100
AcDbEntity
  8
0
  6
Continuous
 62
     7
100
AcDbSpline
210
0.0
220
0.0
230
1.0
 70
     8
 71
     3
 72
     9
 73
     5
 74
     0
 42
0.00000001
 43
0.00000001
 40
0.0
 40
0.0
 40
0.0
 40
0.0
 40
0.4571341301297223
 40
0.9999999999999999
 40
0.9999999999999999
 40
0.9999999999999999
 40
0.9999999999999999
 10
36.09272837638856
 20
5.57771699999999
 30
0.0
 10
36.29864615628799
 20
5.60975916959999
 30
0.0
 10
36.54600299999998
 20
5.617526999999989
 30
0.0
 10
36.4632954921142
 20
5.617677710571807
 30
0.0
 10
36.54600299999998
 20
5.617526999999989
 30
0.0
  0
SPLINE
  5
17E
330
1F
100
AcDbEntity
  8
0
  6
Continuous
 62
     7
100
AcDbSpline
210
0.0
220
0.0
230
1.0
 70
     8
 71
     3
 72
     9
 73
     5
 74
     0
 42
0.00000001
 43
0.00000001
 40
0.0
 40
0.0
 40
0.0
 40
0.0
 40
0.6009699735668128
 40
1.0
 40
1.0
 40
1.0
 40
1.0
 10
36.54599189758302
 20
5.617526999999989
 30
0.0
 10
37.03514024876799
 20
5.54360049503999
 30
0.0
 10
37.29171799999999
 20
5.338511999999991
 30
0.0
 10
37.21072807866825
 20
5.417249813368291
 30
0.0
 10
37.291718
 20
5.338511999999992
 30
0.0
  0
SPLINE
  5
17F
330
1F
100
AcDbEntity
  8
0
  6
Continuous
 62
     7
100
AcDbSpline
210
0.0
220
0.0
230
1.0
 70
     8
 71
     3
 72
    10
 73
     6
 74
     0
 42
0.00000001
 43
0.00000001
 40
0.0
 40
0.0
 40
0.0
 40
0.0
 40
0.0633909618315811
 40
0.176465265323355
 40
0.9999999999999999
 40
0.9999999999999999
 40
0.9999999999999999
 40
0.9999999999999999
 10
37.29170560836793
 20
5.338511999999991
 30
0.0
 10
37.41893640624999
 20
5.164684687499991
 30
0.0
 10
37.48094625
 20
4.785472499999989
 30
0.0
 10
37.49622699999999
 20
1.986980999999989
 30
0.0
 10
37.49882517975275
 20
2.90117599344525
 30
0.0
 10
37.49622699999999
 20
1.986980999999989
 30
0.0
  0
SPLINE
  5
180
330
1F
100
AcDbEntity
  8
0
  6
Continuous
 62
     7
100
AcDbSpline
210
0.0
220
0.0
230
1.0
 70
     8
 71
     3
 72
     9
 73
     5
 74
     0
 42
0.00000001
 43
0.00000001
 40
0.0
 40
0.0
 40
0.0
 40
0.0
 40
0.5669015824904531
 40
1.0
 40
1.0
 40
1.0
 40
1.0
 10
37.40549087524415
 20
-1.06928800000001
 30
0.0
 10
37.18860901139199
 20
-1.333050094848011
 30
0.0
 10
36.96012399999999
 20
-1.458962000000011
 30
0.0
 10
37.04081824558342
 20
-1.422448090246864
 30
0.0
 10
36.96012399999999
 20
-1.458962000000011
 30
0.0
  0
SPLINE
  5
181
330
1F
100
AcDbEntity
  8
0
  6
Continuous
 62
     7
100
AcDbSpline
210
0.0
220
0.0
230
1.0
 70
     8
 71
     3
 72
     9
 73
     5
 74
     0
 42
0.00000001
 43
0.00000001
 40
0.0
 40
0.0
 40
0.0
 40
0.0
 40
0.5766184767033173
 40
1.0
 40
1.0
 40
1.0
 40
1.0
 10
36.96009516716005
 20
-1.458962000000011
 30
0.0
 10
36.46231898969599
 20
-1.503531978880011
 30
0.0
 10
36.09771599999999
 20
-1.46206200000001
 30
0.0
 10
36.21918762310843
 20
-1.481120822696179
 30
0.0
 10
36.09771599999999
 20
-1.46206200000001
 30
0.0
  0
POINT
  5
182
330
1F
100
AcDbEntity
  8
0
  6
Continuous
 62
     7
100
AcDbPoint
 10
-37.5
 20
21.5
 30
0.0
  0
CIRCLE
  5
183
330
1F
100
AcDbEntity
  8
0
  6
Continuous
 62
     7
370
    25
100
AcDbCircle
 10
-2.5
 20
-8.0
 30
0.0
 40
4.5
  0
CIRCLE
  5
188
330
1F
100
AcDbEntity
  8
0
  6
Continuous
 62
     7
370
    25
100
AcDbCircle
 10
0.0
 20
30.5
 30
0.0
 40
1.625
  0
CIRCLE
  5
189
330
1F
100
AcDbEntity
  8
0
  6
Continuous
 62
     7
370
    25
100
AcDbCircle
 10
0.0
 20
-27.5
 30
0.0
 40
1.625000000000002
  0
CIRCLE
  5
18A
330
1F
100
AcDbEntity
  8
0
  6
Continuous
 62
     7
370
    25
100
AcDbCircle
 10
-37.5
 20
19.0
 30
0.0
 40
2.5
  0
LINE
  5
18F
330
1F
100
AcDbEntity
  8
0
  6
Continuous
 62
     7
370
    25
100
AcDbLine
 10
37.5
 20
-2.0
 30
0.0
 11
25.5
 21
-2.0
 31
0.0
  0
LINE
  5
190
330
1F
100
AcDbEntity
  8
0
  6
Continuous
 62
     7
370
    25
100
AcDbLine
 10
25.5
 20
-2.0
 30
0.0
 11
25.5
 21
-14.0
 31
0.0
  0
LINE
  5
191
330
1F
100
AcDbEntity
  8
0
  6
Continuous
 62
     7
370
    25
100
AcDbLine
 10
25.5
 20
-14.0
 30
0.0
 11
37.5
 21
-14.0
 31
0.0
  0
LINE
  5
192
330
1F
100
AcDbEntity
  8
0
  6
Continuous
 62
     7
370
    25
100
AcDbLine
 10
37.5
 20
-14.0
 30
0.0
 11
37.5
 21
-2.0
 31
0.0
  0
LINE
  5
193
330
1F
100
AcDbEntity
  8
0
  6
Continuous
 62
     7
370
    25
100
AcDbLine
 10
-48.0
 20
-33.5
 30
0.0
 11
48.0
 21
-33.5
 31
0.0
  0
LINE
  5
194
330
1F
100
AcDbEntity
  8
0
  6
Continuous
 62
     7
370
    25
100
AcDbLine
 10
-48.0
 20
33.5
 30
0.0
 11
-48.0
 21
-33.5
 31
0.0
  0
LINE
  5
195
330
1F
100
AcDbEntity
  8
0
  6
Continuous
 62
     7
370
    25
100
AcDbLine
 10
48.0
 20
33.5
 30
0.0
 11
-48.0
 21
33.5
 31
0.0
  0
LINE
  5
196
330
1F
100
AcDbEntity
  8
0
  6
Continuous
 62
     7
370
    25
100
AcDbLine
 10
48.0
 20
-33.5
 30
0.0
 11
48.0
 21
33.5
 31
0.0
  0
MTEXT
  5
198
330
1F
100
AcDbEntity
  8
0
  6
Continuous
 62
     7
100
AcDbMText
 10
-48.0
 20
-34.5195663917
 30
0.0
 40
4.83362
 41
0.0
 71
     1
 72
     1
  1
Producto SOLIDWORKS Educational.
  7
SLDTEXTSTYLE0
 73
     1
 44
1.0
  0
MTEXT
  5
199
330
1F
100
AcDbEntity
  8
0
  6
Continuous
 62
     7
100
AcDbMText
 10
-48.0
 20
-41.7699963917
 30
0.0
 40
4.83362
 41
0.0
 71
     1
 72
     1
  1
Solo para uso en la enseanza.
  7
SLDTEXTSTYLE0
 73
     1
 44
1.0
  0
ENDSEC
  0
SECTION
  2
OBJECTS
  0
DICTIONARY
  5
C
330
0
100
AcDbDictionary
281
     1
  3
ACAD_GROUP
350
D
  3
ACAD_LAYOUT
350
1A
  3
ACAD_MLINESTYLE
350
17
  3
ACAD_PLOTSETTINGS
350
19
  3
ACAD_PLOTSTYLENAME
350
E
  3
ACAD_SCALELIST
350
47
  3
DWGPROPS
350
19A
  0
DICTIONARY
  5
D
102
{ACAD_REACTORS
330
C
102
}
330
C
100
AcDbDictionary
281
     1
  0
DICTIONARY
  5
1A
102
{ACAD_REACTORS
330
C
102
}
330
C
100
AcDbDictionary
281
     1
  3
Layout1
350
1E
  3
Layout2
350
26
  3
Model
350
22
  0
DICTIONARY
  5
17
102
{ACAD_REACTORS
330
C
102
}
330
C
100
AcDbDictionary
281
     1
  3
Standard
350
18
  0
DICTIONARY
  5
19
102
{ACAD_REACTORS
330
C
102
}
330
C
100
AcDbDictionary
281
     1
  0
ACDBDICTIONARYWDFLT
  5
E
102
{ACAD_REACTORS
330
C
102
}
330
C
100
AcDbDictionary
281
     1
  3
Normal
350
F
100
AcDbDictionaryWithDefault
340
F
  0
DICTIONARY
  5
47
102
{ACAD_REACTORS
330
C
102
}
330
C
100
AcDbDictionary
281
     1
  3
A0
350
48
  3
A1
350
49
  3
A2
350
4A
  3
A3
350
4B
  3
A4
350
4C
  3
A5
350
4D
  3
A6
350
4E
  3
A7
350
4F
  3
A8
350
50
  3
A9
350
51
  3
B0
350
52
  3
B1
350
53
  3
B2
350
54
  3
B3
350
55
  3
B4
350
56
  3
B5
350
57
  3
B6
350
58
  0
XRECORD
  5
19A
102
{ACAD_REACTORS
330
C
102
}
330
C
100
AcDbXrecord
280
     1
  1
DWGPROPS COOKIE
  2

  3

  4

  6

  7

  8
maxpr
  9

300
=
301
=
302
=
303
=
304
=
305
=
306
=
307
=
308
=
309
=
 40
0.0
 41
2460146.929255753
 42
2460146.929305996
  1

 90
        0
  0
LAYOUT
  5
1E
102
{ACAD_REACTORS
330
1A
102
}
330
1A
100
AcDbPlotSettings
  1

  2
none_device
  4

  6

 40
0.0
 41
0.0
 42
0.0
 43
0.0
 44
0.0
 45
0.0
 46
0.0
 47
0.0
 48
0.0
 49
0.0
140
0.0
141
0.0
142
1.0
143
1.0
 70
   688
 72
     1
 73
     0
 74
     5
  7

 75
    16
147
1.0
148
0.0
149
0.0
100
AcDbLayout
  1
Layout1
 70
     1
 71
     1
 10
0.0
 20
0.0
 11
420.0
 21
297.0
 12
0.0
 22
0.0
 32
0.0
 14
1.0000000000E+20
 24
1.0000000000E+20
 34
1.0000000000E+20
 15
-1.0000000000E+20
 25
-1.0000000000E+20
 35
-1.0000000000E+20
146
0.0
 13
0.0
 23
0.0
 33
0.0
 16
1.0
 26
0.0
 36
0.0
 17
0.0
 27
1.0
 37
0.0
 76
     0
330
1B
  0
LAYOUT
  5
26
102
{ACAD_REACTORS
330
1A
102
}
330
1A
100
AcDbPlotSettings
  1

  2
none_device
  4

  6

 40
0.0
 41
0.0
 42
0.0
 43
0.0
 44
0.0
 45
0.0
 46
0.0
 47
0.0
 48
0.0
 49
0.0
140
0.0
141
0.0
142
1.0
143
1.0
 70
   688
 72
     1
 73
     0
 74
     5
  7

 75
    16
147
1.0
148
0.0
149
0.0
100
AcDbLayout
  1
Layout2
 70
     1
 71
     2
 10
0.0
 20
0.0
 11
0.0
 21
0.0
 12
0.0
 22
0.0
 32
0.0
 14
0.0
 24
0.0
 34
0.0
 15
0.0
 25
0.0
 35
0.0
146
0.0
 13
0.0
 23
0.0
 33
0.0
 16
1.0
 26
0.0
 36
0.0
 17
0.0
 27
1.0
 37
0.0
 76
     0
330
23
  0
LAYOUT
  5
22
102
{ACAD_REACTORS
330
1A
102
}
330
1A
100
AcDbPlotSettings
  1

  2
none_device
  4
ANSI_A_(11.00_x_8.50_Inches)
  6

 40
6.35
 41
19.05
 42
6.35000508
 43
19.05000254
 44
279.4
 45
215.9
 46
133.34999746
 47
88.89999873
 48
0.0
 49
0.0
140
0.0
141
0.0
142
0.1134375
143
1.0
 70
  1696
 72
     0
 73
     0
 74
     0
  7

 75
     0
147
0.0179189148
148
-1300.4909072572
149
0.0
100
AcDbLayout
  1
Model
 70
     1
 71
     0
 10
0.0
 20
0.0
 11
420.0
 21
297.0
 12
0.0
 22
0.0
 32
0.0
 14
-48.0
 24
-33.5
 34
0.0
 15
48.0
 25
33.5
 35
0.0
146
0.0
 13
0.0
 23
0.0
 33
0.0
 16
1.0
 26
0.0
 36
0.0
 17
0.0
 27
1.0
 37
0.0
 76
     0
330
1F
331
29
  0
MLINESTYLE
  5
18
102
{ACAD_REACTORS
330
17
102
}
330
17
100
AcDbMlineStyle
  2
Standard
 70
     0
  3

 62
   256
 51
90.0
 52
90.0
 71
     2
 49
0.5
 62
   256
  6
BYLAYER
 49
-0.5
 62
   256
  6
BYLAYER
  0
ACDBPLACEHOLDER
  5
F
102
{ACAD_REACTORS
330
E
102
}
330
E
  0
SCALE
  5
48
102
{ACAD_REACTORS
330
47
102
}
330
47
100
AcDbScale
 70
     0
300
1:1
140
1.0
141
1.0
290
     1
  0
SCALE
  5
49
102
{ACAD_REACTORS
330
47
102
}
330
47
100
AcDbScale
 70
     0
300
1:2
140
1.0
141
2.0
290
     0
  0
SCALE
  5
4A
102
{ACAD_REACTORS
330
47
102
}
330
47
100
AcDbScale
 70
     0
300
1:4
140
1.0
141
4.0
290
     0
  0
SCALE
  5
4B
102
{ACAD_REACTORS
330
47
102
}
330
47
100
AcDbScale
 70
     0
300
1:5
140
1.0
141
5.0
290
     0
  0
SCALE
  5
4C
102
{ACAD_REACTORS
330
47
102
}
330
47
100
AcDbScale
 70
     0
300
1:8
140
1.0
141
8.0
290
     0
  0
SCALE
  5
4D
102
{ACAD_REACTORS
330
47
102
}
330
47
100
AcDbScale
 70
     0
300
1:10
140
1.0
141
10.0
290
     0
  0
SCALE
  5
4E
102
{ACAD_REACTORS
330
47
102
}
330
47
100
AcDbScale
 70
     0
300
1:16
140
1.0
141
16.0
290
     0
  0
SCALE
  5
4F
102
{ACAD_REACTORS
330
47
102
}
330
47
100
AcDbScale
 70
     0
300
1:20
140
1.0
141
20.0
290
     0
  0
SCALE
  5
50
102
{ACAD_REACTORS
330
47
102
}
330
47
100
AcDbScale
 70
     0
300
1:30
140
1.0
141
30.0
290
     0
  0
SCALE
  5
51
102
{ACAD_REACTORS
330
47
102
}
330
47
100
AcDbScale
 70
     0
300
1:40
140
1.0
141
40.0
290
     0
  0
SCALE
  5
52
102
{ACAD_REACTORS
330
47
102
}
330
47
100
AcDbScale
 70
     0
300
1:50
140
1.0
141
50.0
290
     0
  0
SCALE
  5
53
102
{ACAD_REACTORS
330
47
102
}
330
47
100
AcDbScale
 70
     0
300
1:100
140
1.0
141
100.0
290
     0
  0
SCALE
  5
54
102
{ACAD_REACTORS
330
47
102
}
330
47
100
AcDbScale
 70
     0
300
2:1
140
2.0
141
1.0
290
     0
  0
SCALE
  5
55
102
{ACAD_REACTORS
330
47
102
}
330
47
100
AcDbScale
 70
     0
300
4:1
140
4.0
141
1.0
290
     0
  0
SCALE
  5
56
102
{ACAD_REACTORS
330
47
102
}
330
47
100
AcDbScale
 70
     0
300
8:1
140
8.0
141
1.0
290
     0
  0
SCALE
  5
57
102
{ACAD_REACTORS
330
47
102
}
330
47
100
AcDbScale
 70
     0
300
10:1
140
10.0
141
1.0
290
     0
  0
SCALE
  5
58
102
{ACAD_REACTORS
330
47
102
}
330
47
100
AcDbScale
 70
     0
300
100:1
140
100.0
141
1.0
290
     0
  0
ENDSEC
  0
EOF
