  0
SECTION
  2
HEADER
  9
$ACADVER
  1
AC1015
  9
$ACADMAINTVER
 70
     6
  9
$DWGCODEPAGE
  3
ANSI_1252
  9
$INSBASE
 10
0.0
 20
0.0
 30
0.0
  9
$EXTMIN
 10
-48.0
 20
-39.0
 30
0.0
  9
$EXTMAX
 10
48.0
 20
39.0
 30
0.0
  9
$LIMMIN
 10
0.0
 20
0.0
  9
$LIMMAX
 10
420.0
 20
297.0
  9
$ORTHOMODE
 70
     0
  9
$REGENMODE
 70
     1
  9
$FILLMODE
 70
     1
  9
$QTEXTMODE
 70
     0
  9
$MIRRTEXT
 70
     1
  9
$LTSCALE
 40
1.0
  9
$ATTMODE
 70
     1
  9
$TEXTSIZE
 40
3.5
  9
$TRACEWID
 40
1.0
  9
$TEXTSTYLE
  7
Standard
  9
$CLAYER
  8
0
  9
$CELTYPE
  6
ByLayer
  9
$CECOLOR
 62
   256
  9
$CELTSCALE
 40
1.0
  9
$DISPSILH
 70
     0
  9
$DIMSCALE
 40
1.0
  9
$DIMASZ
 40
3.302
  9
$DIMEXO
 40
0.0
  9
$DIMDLI
 40
3.75
  9
$DIMRND
 40
0.0
  9
$DIMDLE
 40
0.0
  9
$DIMEXE
 40
1.0
  9
$DIMTP
 40
0.0
  9
$DIMTM
 40
0.0
  9
$DIMTXT
 40
3.5
  9
$DIMCEN
 40
2.5
  9
$DIMTSZ
 40
0.0
  9
$DIMTOL
 70
     0
  9
$DIMLIM
 70
     0
  9
$DIMTIH
 70
     1
  9
$DIMTOH
 70
     1
  9
$DIMSE1
 70
     0
  9
$DIMSE2
 70
     0
  9
$DIMTAD
 70
     1
  9
$DIMZIN
 70
     1
  9
$DIMBLK
  1

  9
$DIMASO
 70
     1
  9
$DIMSHO
 70
     1
  9
$DIMPOST
  1

  9
$DIMAPOST
  1

  9
$DIMALT
 70
     0
  9
$DIMALTD
 70
     3
  9
$DIMALTF
 40
0.0393700787
  9
$DIMLFAC
 40
1.0
  9
$DIMTOFL
 70
     1
  9
$DIMTVP
 40
0.0
  9
$DIMTIX
 70
     0
  9
$DIMSOXD
 70
     0
  9
$DIMSAH
 70
     0
  9
$DIMBLK1
  1

  9
$DIMBLK2
  1

  9
$DIMSTYLE
  2
ISO-25
  9
$DIMCLRD
 70
     0
  9
$DIMCLRE
 70
     0
  9
$DIMCLRT
 70
     0
  9
$DIMTFAC
 40
1.0
  9
$DIMGAP
 40
1.524
  9
$DIMJUST
 70
     0
  9
$DIMSD1
 70
     0
  9
$DIMSD2
 70
     0
  9
$DIMTOLJ
 70
     0
  9
$DIMTZIN
 70
     1
  9
$DIMALTZ
 70
     0
  9
$DIMALTTZ
 70
     0
  9
$DIMUPT
 70
     0
  9
$DIMDEC
 70
     2
  9
$DIMTDEC
 70
     2
  9
$DIMALTU
 70
     2
  9
$DIMALTTD
 70
     3
  9
$DIMTXSTY
  7
Standard
  9
$DIMAUNIT
 70
     0
  9
$DIMADEC
 70
     2
  9
$DIMALTRND
 40
0.0
  9
$DIMAZIN
 70
     0
  9
$DIMDSEP
 70
    44
  9
$DIMATFIT
 70
     3
  9
$DIMFRAC
 70
     0
  9
$DIMLDRBLK
  1

  9
$DIMLUNIT
 70
     2
  9
$DIMLWD
 70
    -2
  9
$DIMLWE
 70
    -2
  9
$DIMTMOVE
 70
     0
  9
$LUNITS
 70
     2
  9
$LUPREC
 70
     6
  9
$SKETCHINC
 40
1.0
  9
$FILLETRAD
 40
0.0
  9
$AUNITS
 70
     0
  9
$AUPREC
 70
     2
  9
$MENU
  1
.
  9
$ELEVATION
 40
0.0
  9
$PELEVATION
 40
0.0
  9
$THICKNESS
 40
0.0
  9
$LIMCHECK
 70
     0
  9
$CHAMFERA
 40
0.0
  9
$CHAMFERB
 40
0.0
  9
$CHAMFERC
 40
0.0
  9
$CHAMFERD
 40
0.0
  9
$SKPOLY
 70
     0
  9
$TDCREATE
 40
2460140.475802963
  9
$TDUCREATE
 40
2460140.725802963
  9
$TDUPDATE
 40
2460140.475876158
  9
$TDUUPDATE
 40
2460140.725876158
  9
$TDINDWG
 40
0.0000000116
  9
$TDUSRTIMER
 40
0.0000000116
  9
$USRTIMER
 70
     1
  9
$ANGBASE
 50
0.0
  9
$ANGDIR
 70
     0
  9
$PDMODE
 70
     0
  9
$PDSIZE
 40
-1.0
  9
$PLINEWID
 40
0.0
  9
$SPLFRAME
 70
     0
  9
$SPLINETYPE
 70
     6
  9
$SPLINESEGS
 70
     8
  9
$HANDSEED
  5
126
  9
$SURFTAB1
 70
     6
  9
$SURFTAB2
 70
     6
  9
$SURFTYPE
 70
     6
  9
$SURFU
 70
     6
  9
$SURFV
 70
     6
  9
$UCSBASE
  2

  9
$UCSNAME
  2

  9
$UCSORG
 10
0.0
 20
0.0
 30
0.0
  9
$UCSXDIR
 10
1.0
 20
0.0
 30
0.0
  9
$UCSYDIR
 10
0.0
 20
1.0
 30
0.0
  9
$UCSORTHOREF
  2

  9
$UCSORTHOVIEW
 70
     0
  9
$UCSORGTOP
 10
0.0
 20
0.0
 30
0.0
  9
$UCSORGBOTTOM
 10
0.0
 20
0.0
 30
0.0
  9
$UCSORGLEFT
 10
0.0
 20
0.0
 30
0.0
  9
$UCSORGRIGHT
 10
0.0
 20
0.0
 30
0.0
  9
$UCSORGFRONT
 10
0.0
 20
0.0
 30
0.0
  9
$UCSORGBACK
 10
0.0
 20
0.0
 30
0.0
  9
$PUCSBASE
  2

  9
$PUCSNAME
  2

  9
$PUCSORG
 10
0.0
 20
0.0
 30
0.0
  9
$PUCSXDIR
 10
1.0
 20
0.0
 30
0.0
  9
$PUCSYDIR
 10
0.0
 20
1.0
 30
0.0
  9
$PUCSORTHOREF
  2

  9
$PUCSORTHOVIEW
 70
     0
  9
$PUCSORGTOP
 10
0.0
 20
0.0
 30
0.0
  9
$PUCSORGBOTTOM
 10
0.0
 20
0.0
 30
0.0
  9
$PUCSORGLEFT
 10
0.0
 20
0.0
 30
0.0
  9
$PUCSORGRIGHT
 10
0.0
 20
0.0
 30
0.0
  9
$PUCSORGFRONT
 10
0.0
 20
0.0
 30
0.0
  9
$PUCSORGBACK
 10
0.0
 20
0.0
 30
0.0
  9
$USERI1
 70
     0
  9
$USERI2
 70
     0
  9
$USERI3
 70
     0
  9
$USERI4
 70
     0
  9
$USERI5
 70
     0
  9
$USERR1
 40
0.0
  9
$USERR2
 40
0.0
  9
$USERR3
 40
0.0
  9
$USERR4
 40
0.0
  9
$USERR5
 40
0.0
  9
$WORLDVIEW
 70
     1
  9
$SHADEDGE
 70
     3
  9
$SHADEDIF
 70
    70
  9
$TILEMODE
 70
     1
  9
$MAXACTVP
 70
    64
  9
$PINSBASE
 10
0.0
 20
0.0
 30
0.0
  9
$PLIMCHECK
 70
     0
  9
$PEXTMIN
 10
1.0000000000E+20
 20
1.0000000000E+20
 30
1.0000000000E+20
  9
$PEXTMAX
 10
-1.0000000000E+20
 20
-1.0000000000E+20
 30
-1.0000000000E+20
  9
$PLIMMIN
 10
0.0
 20
0.0
  9
$PLIMMAX
 10
420.0
 20
297.0
  9
$UNITMODE
 70
     0
  9
$VISRETAIN
 70
     1
  9
$PLINEGEN
 70
     0
  9
$PSLTSCALE
 70
     1
  9
$TREEDEPTH
 70
  3020
  9
$CMLSTYLE
  2
Standard
  9
$CMLJUST
 70
     0
  9
$CMLSCALE
 40
20.0
  9
$PROXYGRAPHICS
 70
     1
  9
$MEASUREMENT
 70
     1
  9
$CELWEIGHT
370
    -1
  9
$ENDCAPS
280
     0
  9
$JOINSTYLE
280
     0
  9
$LWDISPLAY
290
     1
  9
$INSUNITS
 70
     4
  9
$HYPERLINKBASE
  1

  9
$STYLESHEET
  1

  9
$XEDIT
290
     1
  9
$CEPSNTYPE
380
     0
  9
$PSTYLEMODE
290
     1
  9
$FINGERPRINTGUID
  2
{bfc23534-a840-4efc-973a-e37af97fab25}
  9
$VERSIONGUID
  2
{FAEB1C32-E019-11D5-929B-00C0DF256EC4}
  9
$EXTNAMES
290
     1
  9
$PSVPSCALE
 40
0.0
  9
$OLESTARTUP
290
     0
  0
ENDSEC
  0
SECTION
  2
CLASSES
  0
CLASS
  1
ACDBDICTIONARYWDFLT
  2
AcDbDictionaryWithDefault
  3
ObjectDBX Classes
 90
        0
280
     0
281
     0
  0
CLASS
  1
VISUALSTYLE
  2
AcDbVisualStyle
  3
ObjectDBX Classes
 90
     4095
280
     0
281
     0
  0
CLASS
  1
MATERIAL
  2
AcDbMaterial
  3
ObjectDBX Classes
 90
     1153
280
     0
281
     0
  0
CLASS
  1
SCALE
  2
AcDbScale
  3
ObjectDBX Classes
 90
     1153
280
     0
281
     0
  0
CLASS
  1
TABLESTYLE
  2
AcDbTableStyle
  3
ObjectDBX Classes
 90
     4095
280
     0
281
     0
  0
CLASS
  1
MLEADERSTYLE
  2
AcDbMLeaderStyle
  3
ACDB_MLEADERSTYLE_CLASS
 90
     4095
280
     0
281
     0
  0
CLASS
  1
SUN
  2
AcDbSun
  3
SCENEOE
 90
     1153
280
     0
281
     0
  0
CLASS
  1
ACDBPLACEHOLDER
  2
AcDbPlaceHolder
  3
ObjectDBX Classes
 90
        0
280
     0
281
     0
  0
CLASS
  1
LAYOUT
  2
AcDbLayout
  3
ObjectDBX Classes
 90
        0
280
     0
281
     0
  0
ENDSEC
  0
SECTION
  2
TABLES
  0
TABLE
  2
VPORT
  5
8
330
0
100
AcDbSymbolTable
 70
     1
  0
VPORT
  5
29
330
8
100
AcDbSymbolTableRecord
100
AcDbViewportTableRecord
  2
*Active
 70
     0
 10
0.0
 20
0.0
 11
1.0
 21
1.0
 12
0.0
 22
0.0
 13
0.0
 23
0.0
 14
10.0
 24
10.0
 15
10.0
 25
10.0
 16
0.0
 26
0.0
 36
1.0
 17
0.0
 27
0.0
 37
0.0
 40
79.56
 41
1.2307692308
 42
50.0
 43
0.0
 44
0.0
 50
0.0
 51
0.0
 71
     0
 72
   100
 73
     1
 74
     3
 75
     0
 76
     0
 77
     0
 78
     0
281
     0
 65
     1
110
0.0
120
0.0
130
0.0
111
1.0
121
0.0
131
0.0
112
0.0
122
1.0
132
0.0
 79
     0
146
0.0
  0
ENDTAB
  0
TABLE
  2
LTYPE
  5
5
330
0
100
AcDbSymbolTable
 70
     6
  0
LTYPE
  5
14
330
5
100
AcDbSymbolTableRecord
100
AcDbLinetypeTableRecord
  2
ByBlock
 70
     0
  3

 72
    65
 73
     0
 40
0.0
  0
LTYPE
  5
15
330
5
100
AcDbSymbolTableRecord
100
AcDbLinetypeTableRecord
  2
ByLayer
 70
     0
  3

 72
    65
 73
     0
 40
0.0
  0
LTYPE
  5
16
330
5
100
AcDbSymbolTableRecord
100
AcDbLinetypeTableRecord
  2
Continuous
 70
     0
  3
Solid line
 72
    65
 73
     0
 40
0.0
  0
LTYPE
  5
5E
330
5
100
AcDbSymbolTableRecord
100
AcDbLinetypeTableRecord
  2
HIDDEN
 70
     0
  3
Hidden __ __ __ __ __ __ __ __ __ __ __ __ __ __
 72
    65
 73
     2
 40
1.905
 49
1.27
 74
     0
 49
-0.635
 74
     0
  0
LTYPE
  5
5F
330
5
100
AcDbSymbolTableRecord
100
AcDbLinetypeTableRecord
  2
PHANTOM
 70
     0
  3
Phantom ______  __  __  ______  __  __  ______
 72
    65
 73
     6
 40
12.7
 49
6.35
 74
     0
 49
-1.27
 74
     0
 49
1.27
 74
     0
 49
-1.27
 74
     0
 49
1.27
 74
     0
 49
-1.27
 74
     0
  0
LTYPE
  5
60
330
5
100
AcDbSymbolTableRecord
100
AcDbLinetypeTableRecord
  2
CENTER
 70
     0
  3
Center ____ _ ____ _ ____ _ ____ _ ____ _ ____
 72
    65
 73
     4
 40
10.16
 49
6.35
 74
     0
 49
-1.27
 74
     0
 49
1.27
 74
     0
 49
-1.27
 74
     0
  0
LTYPE
  5
61
330
5
100
AcDbSymbolTableRecord
100
AcDbLinetypeTableRecord
  2
CENTERX2
 70
     0
  3
Center (2x) ________  __  ________  __  _____
 72
    65
 73
     4
 40
20.32
 49
12.7
 74
     0
 49
-2.54
 74
     0
 49
2.54
 74
     0
 49
-2.54
 74
     0
  0
LTYPE
  5
62
330
5
100
AcDbSymbolTableRecord
100
AcDbLinetypeTableRecord
  2
DOT2
 70
     0
  3
Dot (.5x) ........................................
 72
    65
 73
     2
 40
0.635
 49
0.0
 74
     0
 49
-0.635
 74
     0
  0
ENDTAB
  0
TABLE
  2
LAYER
  5
2
330
0
100
AcDbSymbolTable
 70
     1
  0
LAYER
  5
10
330
2
100
AcDbSymbolTableRecord
100
AcDbLayerTableRecord
  2
0
 70
     0
 62
     7
  6
Continuous
370
    -3
390
F
  0
ENDTAB
  0
TABLE
  2
STYLE
  5
3
330
0
100
AcDbSymbolTable
 70
     2
  0
STYLE
  5
11
330
3
100
AcDbSymbolTableRecord
100
AcDbTextStyleTableRecord
  2
Standard
 70
     0
 40
0.0
 41
1.0
 50
0.0
 71
     0
 42
3.5
  3
txt
  4

  0
STYLE
  5
122
330
3
100
AcDbSymbolTableRecord
100
AcDbTextStyleTableRecord
  2
SLDTEXTSTYLE0
 70
     0
 40
0.0
 41
0.7
 50
0.0
 71
     0
 42
3.5
  3
TXT
  4

  0
ENDTAB
  0
TABLE
  2
VIEW
  5
6
330
0
100
AcDbSymbolTable
 70
     0
  0
ENDTAB
  0
TABLE
  2
UCS
  5
7
330
0
100
AcDbSymbolTable
 70
     0
  0
ENDTAB
  0
TABLE
  2
APPID
  5
9
330
0
100
AcDbSymbolTable
 70
     1
  0
APPID
  5
12
330
9
100
AcDbSymbolTableRecord
100
AcDbRegAppTableRecord
  2
ACAD
 70
     0
  0
ENDTAB
  0
TABLE
  2
DIMSTYLE
  5
A
330
0
100
AcDbSymbolTable
 70
     1
100
AcDbDimStyleTable
  0
DIMSTYLE
105
27
330
A
100
AcDbSymbolTableRecord
100
AcDbDimStyleTableRecord
  2
ISO-25
 70
     0
 41
2.5
 42
0.625
 43
3.75
 44
1.25
 73
     0
 74
     0
 77
     1
 78
     8
140
2.5
141
2.5
143
0.0393700787
147
0.625
171
     3
172
     1
178
     0
271
     2
272
     2
274
     3
278
    44
283
     0
284
     8
340
11
  0
ENDTAB
  0
TABLE
  2
BLOCK_RECORD
  5
1
330
0
100
AcDbSymbolTable
 70
     1
  0
BLOCK_RECORD
  5
1F
330
1
100
AcDbSymbolTableRecord
100
AcDbBlockTableRecord
  2
*Model_Space
340
22
  0
BLOCK_RECORD
  5
1B
330
1
100
AcDbSymbolTableRecord
100
AcDbBlockTableRecord
  2
*Paper_Space
340
1E
  0
BLOCK_RECORD
  5
23
330
1
100
AcDbSymbolTableRecord
100
AcDbBlockTableRecord
  2
*Paper_Space0
340
26
  0
ENDTAB
  0
ENDSEC
  0
SECTION
  2
BLOCKS
  0
BLOCK
  5
20
330
1F
100
AcDbEntity
  8
0
100
AcDbBlockBegin
  2
*Model_Space
 70
     0
 10
0.0
 20
0.0
 30
0.0
  3
*Model_Space
  1

  0
ENDBLK
  5
21
330
1F
100
AcDbEntity
  8
0
100
AcDbBlockEnd
  0
BLOCK
  5
1C
330
1B
100
AcDbEntity
 67
     1
  8
0
100
AcDbBlockBegin
  2
*Paper_Space
 70
     0
 10
0.0
 20
0.0
 30
0.0
  3
*Paper_Space
  1

  0
ENDBLK
  5
1D
330
1B
100
AcDbEntity
 67
     1
  8
0
100
AcDbBlockEnd
  0
BLOCK
  5
24
330
23
100
AcDbEntity
  8
0
100
AcDbBlockBegin
  2
*Paper_Space0
 70
     0
 10
0.0
 20
0.0
 30
0.0
  3
*Paper_Space0
  1

  0
ENDBLK
  5
25
330
23
100
AcDbEntity
  8
0
100
AcDbBlockEnd
  0
ENDSEC
  0
SECTION
  2
ENTITIES
  0
LINE
  5
63
330
1F
100
AcDbEntity
  8
0
  6
Continuous
 62
     7
100
AcDbLine
 10
1.727462
 20
-9.152641
 30
0.0
 11
1.727462
 21
-16.05162
 31
0.0
  0
LINE
  5
64
330
1F
100
AcDbEntity
  8
0
  6
Continuous
 62
     7
100
AcDbLine
 10
2.826763
 20
-16.05162
 30
0.0
 11
2.826763
 21
-9.152641
 31
0.0
  0
LINE
  5
65
330
1F
100
AcDbEntity
  8
0
  6
Continuous
 62
     7
100
AcDbLine
 10
2.279798
 20
-8.974551
 30
0.0
 11
2.280081
 21
-8.974551
 31
0.0
  0
LINE
  5
66
330
1F
100
AcDbEntity
  8
0
  6
Continuous
 62
     7
100
AcDbLine
 10
-11.372982
 20
-9.397514
 30
0.0
 11
-11.372982
 21
-16.051472
 31
0.0
  0
LINE
  5
67
330
1F
100
AcDbEntity
  8
0
  6
Continuous
 62
     7
100
AcDbLine
 10
-10.274247
 20
-16.051472
 30
0.0
 11
-10.274247
 21
-12.991136
 31
0.0
  0
LINE
  5
68
330
1F
100
AcDbEntity
  8
0
  6
Continuous
 62
     7
100
AcDbLine
 10
-10.274247
 20
-12.991136
 30
0.0
 11
-9.539957
 21
-12.991136
 31
0.0
  0
LINE
  5
69
330
1F
100
AcDbEntity
  8
0
  6
Continuous
 62
     7
100
AcDbLine
 10
-7.811944
 20
-14.307498
 30
0.0
 11
-7.055606
 21
-15.998611
 31
0.0
  0
LINE
  5
6A
330
1F
100
AcDbEntity
  8
0
  6
Continuous
 62
     7
100
AcDbLine
 10
-6.006423
 20
-15.643071
 30
0.0
 11
-6.746225
 21
-14.062477
 31
0.0
  0
LINE
  5
6B
330
1F
100
AcDbEntity
  8
0
  6
Continuous
 62
     7
100
AcDbLine
 10
-9.208358
 20
-9.008103
 30
0.0
 11
-10.964525
 21
-9.008251
 31
0.0
  0
LINE
  5
6C
330
1F
100
AcDbEntity
  8
0
  6
Continuous
 62
     7
100
AcDbLine
 10
-4.278636
 20
-9.397514
 30
0.0
 11
-4.278636
 21
-16.051472
 31
0.0
  0
LINE
  5
6D
330
1F
100
AcDbEntity
  8
0
  6
Continuous
 62
     7
100
AcDbLine
 10
-3.179335
 20
-16.051472
 30
0.0
 11
-3.179335
 21
-13.058386
 31
0.0
  0
LINE
  5
6E
330
1F
100
AcDbEntity
  8
0
  6
Continuous
 62
     7
100
AcDbLine
 10
-3.179335
 20
-13.058386
 30
0.0
 11
-0.319515
 21
-13.058386
 31
0.0
  0
LINE
  5
6F
330
1F
100
AcDbEntity
  8
0
  6
Continuous
 62
     7
100
AcDbLine
 10
-0.319515
 20
-12.259689
 30
0.0
 11
-3.179335
 21
-12.259689
 31
0.0
  0
LINE
  5
70
330
1F
100
AcDbEntity
  8
0
  6
Continuous
 62
     7
100
AcDbLine
 10
-3.179335
 20
-12.259689
 30
0.0
 11
-3.179335
 21
-9.819124
 31
0.0
  0
LINE
  5
71
330
1F
100
AcDbEntity
  8
0
  6
Continuous
 62
     7
100
AcDbLine
 10
-3.179335
 20
-9.819124
 30
0.0
 11
-0.153899
 21
-9.819124
 31
0.0
  0
LINE
  5
72
330
1F
100
AcDbEntity
  8
0
  6
Continuous
 62
     7
100
AcDbLine
 10
-0.153899
 20
-9.00616
 30
0.0
 11
-3.870179
 21
-9.008251
 31
0.0
  0
LINE
  5
73
330
1F
100
AcDbEntity
  8
0
  6
Continuous
 62
     7
100
AcDbLine
 10
5.024035
 20
-9.397514
 30
0.0
 11
5.024035
 21
-15.806451
 31
0.0
  0
LINE
  5
74
330
1F
100
AcDbEntity
  8
0
  6
Continuous
 62
     7
100
AcDbLine
 10
5.432492
 20
-16.195715
 30
0.0
 11
7.177098
 21
-16.195715
 31
0.0
  0
LINE
  5
75
330
1F
100
AcDbEntity
  8
0
  6
Continuous
 62
     7
100
AcDbLine
 10
7.298674
 20
-9.008644
 30
0.0
 11
5.432492
 21
-9.008251
 31
0.0
  0
LINE
  5
76
330
1F
100
AcDbEntity
  8
0
  6
Continuous
 62
     7
100
AcDbLine
 10
-10.274417
 20
-9.796149
 30
0.0
 11
-9.352434
 21
-9.796149
 31
0.0
  0
LINE
  5
77
330
1F
100
AcDbEntity
  8
0
  6
Continuous
 62
     7
100
AcDbLine
 10
-9.203129
 20
-12.218119
 30
0.0
 11
-10.27419
 21
-12.218119
 31
0.0
  0
LINE
  5
78
330
1F
100
AcDbEntity
  8
0
  6
Continuous
 62
     7
100
AcDbLine
 10
-10.27419
 20
-12.218119
 30
0.0
 11
-10.274417
 21
-9.796149
 31
0.0
  0
LINE
  5
79
330
1F
100
AcDbEntity
  8
0
  6
Continuous
 62
     7
100
AcDbLine
 10
6.117089
 20
-9.801069
 30
0.0
 11
7.237844
 21
-9.801069
 31
0.0
  0
LINE
  5
7A
330
1F
100
AcDbEntity
  8
0
  6
Continuous
 62
     7
100
AcDbLine
 10
7.248896
 20
-15.393402
 30
0.0
 11
6.117117
 21
-15.393402
 31
0.0
  0
LINE
  5
7B
330
1F
100
AcDbEntity
  8
0
  6
Continuous
 62
     7
100
AcDbLine
 10
6.117117
 20
-15.393402
 30
0.0
 11
6.117089
 21
-9.801069
 31
0.0
  0
LINE
  5
7C
330
1F
100
AcDbEntity
  8
0
  6
Continuous
 62
     7
100
AcDbLine
 10
-11.500025
 20
-6.90365
 30
0.0
 11
-11.500025
 21
9.98572
 31
0.0
  0
LINE
  5
7D
330
1F
100
AcDbEntity
  8
0
  6
Continuous
 62
     7
100
AcDbLine
 10
-11.500025
 20
9.98572
 30
0.0
 11
-5.306895
 21
16.2
 31
0.0
  0
LINE
  5
7E
330
1F
100
AcDbEntity
  8
0
  6
Continuous
 62
     7
100
AcDbLine
 10
-5.306895
 20
16.2
 30
0.0
 11
11.499975
 21
16.2
 31
0.0
  0
LINE
  5
7F
330
1F
100
AcDbEntity
  8
0
  6
Continuous
 62
     7
100
AcDbLine
 10
11.499975
 20
16.2
 30
0.0
 11
11.499975
 21
-7.00882
 31
0.0
  0
LINE
  5
80
330
1F
100
AcDbEntity
  8
0
  6
Continuous
 62
     7
100
AcDbLine
 10
11.499975
 20
-7.00882
 30
0.0
 11
10.393105
 21
-8.01052
 31
0.0
  0
LINE
  5
81
330
1F
100
AcDbEntity
  8
0
  6
Continuous
 62
     7
100
AcDbLine
 10
10.393105
 20
-8.01052
 30
0.0
 11
-10.498325
 21
-8.01052
 31
0.0
  0
LINE
  5
82
330
1F
100
AcDbEntity
  8
0
  6
Continuous
 62
     7
100
AcDbLine
 10
-10.498325
 20
-8.01052
 30
0.0
 11
-11.500025
 21
-6.90365
 31
0.0
  0
LINE
  5
83
330
1F
100
AcDbEntity
  8
0
  6
Continuous
 62
     7
100
AcDbLine
 10
10.329675
 20
-3.77368
 30
0.0
 11
-8.473675
 21
-3.77368
 31
0.0
  0
LINE
  5
84
330
1F
100
AcDbEntity
  8
0
  6
Continuous
 62
     7
100
AcDbLine
 10
-8.473675
 20
-3.77368
 30
0.0
 11
-8.473675
 21
8.80068
 31
0.0
  0
LINE
  5
85
330
1F
100
AcDbEntity
  8
0
  6
Continuous
 62
     7
100
AcDbLine
 10
-8.473675
 20
8.80068
 30
0.0
 11
-4.071285
 21
13.17368
 31
0.0
  0
LINE
  5
86
330
1F
100
AcDbEntity
  8
0
  6
Continuous
 62
     7
100
AcDbLine
 10
-4.071285
 20
13.17368
 30
0.0
 11
8.473695
 21
13.17368
 31
0.0
  0
LINE
  5
87
330
1F
100
AcDbEntity
  8
0
  6
Continuous
 62
     7
100
AcDbLine
 10
8.473695
 20
13.17368
 30
0.0
 11
8.473695
 21
-0.74737
 31
0.0
  0
LINE
  5
88
330
1F
100
AcDbEntity
  8
0
  6
Continuous
 62
     7
100
AcDbLine
 10
8.473695
 20
-0.74737
 30
0.0
 11
-5.447365
 21
-0.74737
 31
0.0
  0
LINE
  5
89
330
1F
100
AcDbEntity
  8
0
  6
Continuous
 62
     7
100
AcDbLine
 10
-5.447365
 20
-0.74737
 30
0.0
 11
-5.447365
 21
7.6003
 31
0.0
  0
LINE
  5
8A
330
1F
100
AcDbEntity
  8
0
  6
Continuous
 62
     7
100
AcDbLine
 10
-2.852085
 20
10.14738
 30
0.0
 11
5.447375
 21
10.14738
 31
0.0
  0
LINE
  5
8B
330
1F
100
AcDbEntity
  8
0
  6
Continuous
 62
     7
100
AcDbLine
 10
5.447375
 20
10.14738
 30
0.0
 11
5.447375
 21
4.09473
 31
0.0
  0
LINE
  5
8C
330
1F
100
AcDbEntity
  8
0
  6
Continuous
 62
     7
100
AcDbLine
 10
5.447375
 20
4.09473
 30
0.0
 11
2.421055
 21
4.09473
 31
0.0
  0
LINE
  5
8D
330
1F
100
AcDbEntity
  8
0
  6
Continuous
 62
     7
100
AcDbLine
 10
2.421055
 20
4.09473
 30
0.0
 11
2.421055
 21
2.27895
 31
0.0
  0
LINE
  5
8E
330
1F
100
AcDbEntity
  8
0
  6
Continuous
 62
     7
100
AcDbLine
 10
2.421055
 20
2.27895
 30
0.0
 11
-2.421055
 21
2.27895
 31
0.0
  0
LINE
  5
8F
330
1F
100
AcDbEntity
  8
0
  6
Continuous
 62
     7
100
AcDbLine
 10
-2.421055
 20
2.27895
 30
0.0
 11
-2.421055
 21
7.12106
 31
0.0
  0
LINE
  5
90
330
1F
100
AcDbEntity
  8
0
  6
Continuous
 62
     7
100
AcDbLine
 10
-2.421055
 20
7.12106
 30
0.0
 11
2.421055
 21
7.12106
 31
0.0
  0
LINE
  5
91
330
1F
100
AcDbEntity
  8
0
  6
Continuous
 62
     7
100
AcDbLine
 10
2.421055
 20
7.12106
 30
0.0
 11
2.421055
 21
5.30527
 31
0.0
  0
LINE
  5
92
330
1F
100
AcDbEntity
  8
0
  6
Continuous
 62
     7
100
AcDbLine
 10
2.421055
 20
5.30527
 30
0.0
 11
4.236855
 21
5.30527
 31
0.0
  0
LINE
  5
93
330
1F
100
AcDbEntity
  8
0
  6
Continuous
 62
     7
100
AcDbLine
 10
4.236855
 20
5.30527
 30
0.0
 11
4.236855
 21
8.93685
 31
0.0
  0
LINE
  5
94
330
1F
100
AcDbEntity
  8
0
  6
Continuous
 62
     7
100
AcDbLine
 10
4.236855
 20
8.93685
 30
0.0
 11
-1.941565
 21
8.93685
 31
0.0
  0
LINE
  5
95
330
1F
100
AcDbEntity
  8
0
  6
Continuous
 62
     7
100
AcDbLine
 10
-4.236845
 20
6.69558
 30
0.0
 11
-4.236845
 21
0.46316
 31
0.0
  0
LINE
  5
96
330
1F
100
AcDbEntity
  8
0
  6
Continuous
 62
     7
100
AcDbLine
 10
-4.236845
 20
0.46316
 30
0.0
 11
7.263165
 21
0.46316
 31
0.0
  0
LINE
  5
97
330
1F
100
AcDbEntity
  8
0
  6
Continuous
 62
     7
100
AcDbLine
 10
7.263165
 20
0.46316
 30
0.0
 11
7.263165
 21
11.96316
 31
0.0
  0
LINE
  5
98
330
1F
100
AcDbEntity
  8
0
  6
Continuous
 62
     7
100
AcDbLine
 10
7.263165
 20
11.96316
 30
0.0
 11
-3.162435
 21
11.96316
 31
0.0
  0
LINE
  5
99
330
1F
100
AcDbEntity
  8
0
  6
Continuous
 62
     7
100
AcDbLine
 10
-7.263145
 20
7.89387
 30
0.0
 11
-7.263145
 21
-2.56316
 31
0.0
  0
LINE
  5
9A
330
1F
100
AcDbEntity
  8
0
  6
Continuous
 62
     7
100
AcDbLine
 10
-7.263145
 20
-2.56316
 30
0.0
 11
10.289485
 21
-2.56316
 31
0.0
  0
LINE
  5
9B
330
1F
100
AcDbEntity
  8
0
  6
Continuous
 62
     7
100
AcDbLine
 10
10.289485
 20
-2.56316
 30
0.0
 11
10.289485
 21
14.98948
 31
0.0
  0
LINE
  5
9C
330
1F
100
AcDbEntity
  8
0
  6
Continuous
 62
     7
100
AcDbLine
 10
10.289485
 20
14.98948
 30
0.0
 11
-4.377315
 21
14.98948
 31
0.0
  0
LINE
  5
9D
330
1F
100
AcDbEntity
  8
0
  6
Continuous
 62
     7
100
AcDbLine
 10
-10.289465
 20
9.09951
 30
0.0
 11
-10.289465
 21
-5.18596
 31
0.0
  0
LINE
  5
9E
330
1F
100
AcDbEntity
  8
0
  6
Continuous
 62
     7
100
AcDbLine
 10
-10.289465
 20
-5.18596
 30
0.0
 11
-9.877935
 21
-5.59749
 31
0.0
  0
LINE
  5
9F
330
1F
100
AcDbEntity
  8
0
  6
Continuous
 62
     7
100
AcDbLine
 10
-9.877935
 20
-5.59749
 30
0.0
 11
10.329675
 21
-5.59749
 31
0.0
  0
LINE
  5
A0
330
1F
100
AcDbEntity
  8
0
  6
Continuous
 62
     7
100
AcDbLine
 10
10.329675
 20
-5.59749
 30
0.0
 11
10.329675
 21
-3.77368
 31
0.0
  0
LINE
  5
A1
330
1F
100
AcDbEntity
  8
0
  6
Continuous
 62
     7
100
AcDbLine
 10
-5.306895
 20
16.2
 30
0.0
 11
-11.500025
 21
9.98572
 31
0.0
  0
LINE
  5
A2
330
1F
100
AcDbEntity
  8
0
  6
Continuous
 62
     7
100
AcDbLine
 10
-1.941565
 20
8.93685
 30
0.0
 11
-4.236845
 21
6.69558
 31
0.0
  0
LINE
  5
A3
330
1F
100
AcDbEntity
  8
0
  6
Continuous
 62
     7
100
AcDbLine
 10
-2.852085
 20
10.14738
 30
0.0
 11
-5.447365
 21
7.6003
 31
0.0
  0
LINE
  5
A4
330
1F
100
AcDbEntity
  8
0
  6
Continuous
 62
     7
100
AcDbLine
 10
-3.162435
 20
11.96316
 30
0.0
 11
-7.263145
 21
7.89387
 31
0.0
  0
LINE
  5
A5
330
1F
100
AcDbEntity
  8
0
  6
Continuous
 62
     7
100
AcDbLine
 10
-4.377315
 20
14.98948
 30
0.0
 11
-10.289465
 21
9.09951
 31
0.0
  0
SPLINE
  5
A6
330
1F
100
AcDbEntity
  8
0
  6
Continuous
 62
     7
100
AcDbSpline
210
0.0
220
0.0
230
1.0
 70
     8
 71
     3
 72
     9
 73
     5
 74
     0
 42
0.00000001
 43
0.00000001
 40
0.0
 40
0.0
 40
0.0
 40
0.0
 40
0.595424178714197
 40
1.0
 40
1.0
 40
1.0
 40
1.0
 10
2.280080690979965
 20
-8.974551
 30
0.0
 10
2.125238077248006
 20
-8.978161238464
 30
0.0
 10
2.020590000000006
 20
-8.98931
 30
0.0
 10
2.05543468913549
 20
-8.98500740150421
 30
0.0
 10
2.020590000000006
 20
-8.98931
 30
0.0
  0
SPLINE
  5
A7
330
1F
100
AcDbEntity
  8
0
  6
Continuous
 62
     7
100
AcDbSpline
210
0.0
220
0.0
230
1.0
 70
     8
 71
     3
 72
     9
 73
     5
 74
     0
 42
0.00000001
 43
0.00000001
 40
0.0
 40
0.0
 40
0.0
 40
0.0
 40
0.6016208946022854
 40
1.0
 40
1.0
 40
1.0
 40
1.0
 10
2.020588144660003
 20
-8.98931
 30
0.0
 10
1.916915469824006
 20
-9.005774575231998
 30
0.0
 10
1.849576000000007
 20
-9.023008999999998
 30
0.0
 10
1.871935502556565
 20
-9.016843770783685
 30
0.0
 10
1.849576000000007
 20
-9.023009
 30
0.0
  0
SPLINE
  5
A8
330
1F
100
AcDbEntity
  8
0
  6
Continuous
 62
     7
100
AcDbSpline
210
0.0
220
0.0
230
1.0
 70
     8
 71
     3
 72
     9
 73
     5
 74
     0
 42
0.00000001
 43
0.00000001
 40
0.0
 40
0.0
 40
0.0
 40
0.0
 40
0.6054640922525377
 40
1.0
 40
1.0
 40
1.0
 40
1.0
 10
1.849575899541385
 20
-9.023008999999998
 30
0.0
 10
1.789140122624006
 20
-9.049025049024
 30
0.0
 10
1.755729000000006
 20
-9.075895
 30
0.0
 10
1.766473452836351
 20
-9.066286232635974
 30
0.0
 10
1.755729000000006
 20
-9.075895
 30
0.0
  0
SPLINE
  5
A9
330
1F
100
AcDbEntity
  8
0
  6
Continuous
 62
     7
100
AcDbSpline
210
0.0
220
0.0
230
1.0
 70
     8
 71
     3
 72
     9
 73
     5
 74
     0
 42
0.00000001
 43
0.00000001
 40
0.0
 40
0.0
 40
0.0
 40
0.0
 40
0.5537419526141393
 40
1.0
 40
1.0
 40
1.0
 40
1.0
 10
1.755728386342532
 20
-9.075895
 30
0.0
 10
1.733547475264005
 20
-9.116123290816
 30
0.0
 10
1.727462000000006
 20
-9.152641
 30
0.0
 10
1.728613593416828
 20
-9.140163642129284
 30
0.0
 10
1.727462000000006
 20
-9.152641
 30
0.0
  0
SPLINE
  5
AA
330
1F
100
AcDbEntity
  8
0
  6
Continuous
 62
     7
100
AcDbSpline
210
0.0
220
0.0
230
1.0
 70
     8
 71
     3
 72
     9
 73
     5
 74
     0
 42
0.00000001
 43
0.00000001
 40
0.0
 40
0.0
 40
0.0
 40
0.0
 40
0.5631608463645101
 40
1.0
 40
1.0
 40
1.0
 40
1.0
 10
1.727461814880378
 20
-16.05162
 30
0.0
 10
1.737106692736005
 20
-16.09730267199999
 30
0.0
 10
1.755729000000006
 20
-16.128365
 30
0.0
 10
1.748710437208764
 20
-16.11832929822677
 30
0.0
 10
1.755729000000006
 20
-16.128365
 30
0.0
  0
SPLINE
  5
AB
330
1F
100
AcDbEntity
  8
0
  6
Continuous
 62
     7
100
AcDbSpline
210
0.0
220
0.0
230
1.0
 70
     8
 71
     3
 72
     9
 73
     5
 74
     0
 42
0.00000001
 43
0.00000001
 40
0.0
 40
0.0
 40
0.0
 40
0.0
 40
0.4995438397320311
 40
0.9999999999999999
 40
0.9999999999999999
 40
0.9999999999999999
 40
0.9999999999999999
 10
1.755728386342532
 20
-16.128365
 30
0.0
 10
1.795689737152007
 20
-16.163391681984
 30
0.0
 10
1.843922000000007
 20
-16.185925
 30
0.0
 10
1.827160794927837
 20
-16.1794612931417
 30
0.0
 10
1.843922000000007
 20
-16.185925
 30
0.0
  0
SPLINE
  5
AC
330
1F
100
AcDbEntity
  8
0
  6
Continuous
 62
     7
100
AcDbSpline
210
0.0
220
0.0
230
1.0
 70
     8
 71
     3
 72
     9
 73
     5
 74
     0
 42
0.00000001
 43
0.00000001
 40
0.0
 40
0.0
 40
0.0
 40
0.0
 40
0.4984163011979231
 40
1.0
 40
1.0
 40
1.0
 40
1.0
 10
1.843921840190894
 20
-16.185925
 30
0.0
 10
1.928699737856006
 20
-16.201372453056
 30
0.0
 10
2.014937000000005
 20
-16.210523
 30
0.0
 10
1.98611428567444
 20
-16.20800742845527
 30
0.0
 10
2.014937000000005
 20
-16.210523
 30
0.0
  0
SPLINE
  5
AD
330
1F
100
AcDbEntity
  8
0
  6
Continuous
 62
     7
100
AcDbSpline
210
0.0
220
0.0
230
1.0
 70
     8
 71
     3
 72
     9
 73
     5
 74
     0
 42
0.00000001
 43
0.00000001
 40
0.0
 40
0.0
 40
0.0
 40
0.0
 40
0.5204148905320555
 40
1.0
 40
1.0
 40
1.0
 40
1.0
 10
2.014936879277236
 20
-16.210523
 30
0.0
 10
2.152385173184006
 20
-16.226124744256
 30
0.0
 10
2.279798000000005
 20
-16.230201
 30
0.0
 10
2.237267253031841
 20
-16.22966565053774
 30
0.0
 10
2.279798000000005
 20
-16.230201
 30
0.0
  0
SPLINE
  5
AE
330
1F
100
AcDbEntity
  8
0
  6
Continuous
 62
     7
100
AcDbSpline
210
0.0
220
0.0
230
1.0
 70
     8
 71
     3
 72
     9
 73
     5
 74
     0
 42
0.00000001
 43
0.00000001
 40
0.0
 40
0.0
 40
0.0
 40
0.0
 40
0.6122775032234842
 40
0.9999999999999999
 40
0.9999999999999999
 40
0.9999999999999999
 40
0.9999999999999999
 10
2.279797568917282
 20
-16.230201
 30
0.0
 10
2.439154006656006
 20
-16.223690676544
 30
0.0
 10
2.539288000000006
 20
-16.210523
 30
0.0
 10
2.505960269787635
 20
-16.21549671963088
 30
0.0
 10
2.539288000000006
 20
-16.210523
 30
0.0
  0
SPLINE
  5
AF
330
1F
100
AcDbEntity
  8
0
  6
Continuous
 62
     7
100
AcDbSpline
210
0.0
220
0.0
230
1.0
 70
     8
 71
     3
 72
     9
 73
     5
 74
     0
 42
0.00000001
 43
0.00000001
 40
0.0
 40
0.0
 40
0.0
 40
0.0
 40
0.6214262116082467
 40
0.9999999999999999
 40
0.9999999999999999
 40
0.9999999999999999
 40
0.9999999999999999
 10
2.539286389946945
 20
-16.210523
 30
0.0
 10
2.646097652992006
 20
-16.198711671744
 30
0.0
 10
2.710303000000006
 20
-16.185925
 30
0.0
 10
2.688955747183585
 20
-16.19054000374826
 30
0.0
 10
2.710303000000006
 20
-16.185925
 30
0.0
  0
SPLINE
  5
B0
330
1F
100
AcDbEntity
  8
0
  6
Continuous
 62
     7
100
AcDbSpline
210
0.0
220
0.0
230
1.0
 70
     8
 71
     3
 72
     9
 73
     5
 74
     0
 42
0.00000001
 43
0.00000001
 40
0.0
 40
0.0
 40
0.0
 40
0.0
 40
0.6189905506691419
 40
1.0
 40
1.0
 40
1.0
 40
1.0
 10
2.710301429033287
 20
-16.185925
 30
0.0
 10
2.769160705088006
 20
-16.15635361401599
 30
0.0
 10
2.798496000000006
 20
-16.128365
 30
0.0
 10
2.789155384038845
 20
-16.1383159919709
 30
0.0
 10
2.798496000000006
 20
-16.128365
 30
0.0
  0
SPLINE
  5
B1
330
1F
100
AcDbEntity
  8
0
  6
Continuous
 62
     7
100
AcDbSpline
210
0.0
220
0.0
230
1.0
 70
     8
 71
     3
 72
     9
 73
     5
 74
     0
 42
0.00000001
 43
0.00000001
 40
0.0
 40
0.0
 40
0.0
 40
0.0
 40
0.5537486296709432
 40
1.0
 40
1.0
 40
1.0
 40
1.0
 10
2.798495814204223
 20
-16.128365
 30
0.0
 10
2.820677524736005
 20
-16.08813688479999
 30
0.0
 10
2.826763000000005
 20
-16.05162
 30
0.0
 10
2.825611405456594
 20
-16.06409709287943
 30
0.0
 10
2.826763000000005
 20
-16.05162
 30
0.0
  0
SPLINE
  5
B2
330
1F
100
AcDbEntity
  8
0
  6
Continuous
 62
     7
100
AcDbSpline
210
0.0
220
0.0
230
1.0
 70
     8
 71
     3
 72
     9
 73
     5
 74
     0
 42
0.00000001
 43
0.00000001
 40
0.0
 40
0.0
 40
0.0
 40
0.0
 40
0.5631631826557402
 40
1.0
 40
1.0
 40
1.0
 40
1.0
 10
2.826761454343803
 20
-9.152641
 30
0.0
 10
2.817118307264006
 20
-9.106957413184
 30
0.0
 10
2.798496000000006
 20
-9.075895
 30
0.0
 10
2.80551466137082
 20
-9.085930710909638
 30
0.0
 10
2.798496000000006
 20
-9.075895
 30
0.0
  0
SPLINE
  5
B3
330
1F
100
AcDbEntity
  8
0
  6
Continuous
 62
     7
100
AcDbSpline
210
0.0
220
0.0
230
1.0
 70
     8
 71
     3
 72
     9
 73
     5
 74
     0
 42
0.00000001
 43
0.00000001
 40
0.0
 40
0.0
 40
0.0
 40
0.0
 40
0.5022236007785135
 40
1.0
 40
1.0
 40
1.0
 40
1.0
 10
2.798495814204223
 20
-9.075895
 30
0.0
 10
2.758536002048006
 20
-9.042097215168
 30
0.0
 10
2.710303000000006
 20
-9.023008999999998
 30
0.0
 10
2.727096389748165
 20
-9.028176221386111
 30
0.0
 10
2.710303000000006
 20
-9.023008999999998
 30
0.0
  0
SPLINE
  5
B4
330
1F
100
AcDbEntity
  8
0
  6
Continuous
 62
     7
100
AcDbSpline
210
0.0
220
0.0
230
1.0
 70
     8
 71
     3
 72
     9
 73
     5
 74
     0
 42
0.00000001
 43
0.00000001
 40
0.0
 40
0.0
 40
0.0
 40
0.0
 40
0.5016825758711254
 40
1.0
 40
1.0
 40
1.0
 40
1.0
 10
2.710301429033287
 20
-9.023008999999998
 30
0.0
 10
2.625433542208007
 20
-9.001396103743998
 30
0.0
 10
2.539288000000006
 20
-8.98931
 30
0.0
 10
2.56815657333156
 20
-8.992559513933482
 30
0.0
 10
2.539288000000006
 20
-8.98931
 30
0.0
  0
SPLINE
  5
B5
330
1F
100
AcDbEntity
  8
0
  6
Continuous
 62
     7
100
AcDbSpline
210
0.0
220
0.0
230
1.0
 70
     8
 71
     3
 72
     9
 73
     5
 74
     0
 42
0.00000001
 43
0.00000001
 40
0.0
 40
0.0
 40
0.0
 40
0.0
 40
0.5065361426316226
 40
1.0
 40
1.0
 40
1.0
 40
1.0
 10
2.539286389946945
 20
-8.98931
 30
0.0
 10
2.408140604544006
 20
-8.976608340736
 30
0.0
 10
2.279798000000005
 20
-8.974551
 30
0.0
 10
2.322626678754238
 20
-8.974388308280563
 30
0.0
 10
2.279798000000005
 20
-8.974551
 30
0.0
  0
SPLINE
  5
B6
330
1F
100
AcDbEntity
  8
0
  6
Continuous
 62
     7
100
AcDbSpline
210
0.0
220
0.0
230
1.0
 70
     8
 71
     3
 72
     9
 73
     5
 74
     0
 42
0.00000001
 43
0.00000001
 40
0.0
 40
0.0
 40
0.0
 40
0.0
 40
0.5472654975334673
 40
0.9999999999999999
 40
0.9999999999999999
 40
0.9999999999999999
 40
0.9999999999999999
 10
-10.9645202755928
 20
-9.008250999999998
 30
0.0
 10
-11.125346092096
 20
-9.034758842815998
 30
0.0
 10
-11.24606399999999
 20
-9.094835999999999
 30
0.0
 10
-11.20675491048391
 20
-9.07193178723869
 30
0.0
 10
-11.24606399999999
 20
-9.094835999999999
 30
0.0
  0
SPLINE
  5
B7
330
1F
100
AcDbEntity
  8
0
  6
Continuous
 62
     7
100
AcDbSpline
210
0.0
220
0.0
230
1.0
 70
     8
 71
     3
 72
     9
 73
     5
 74
     0
 42
0.00000001
 43
0.00000001
 40
0.0
 40
0.0
 40
0.0
 40
0.0
 40
0.5045945133593351
 40
1.0
 40
1.0
 40
1.0
 40
1.0
 10
-11.24606281518935
 20
-9.094835999999999
 30
0.0
 10
-11.34856386700799
 20
-9.231544679295999
 30
0.0
 10
-11.37298199999999
 20
-9.397514
 30
0.0
 10
-11.37113561798483
 20
-9.3395693555413
 30
0.0
 10
-11.37298199999999
 20
-9.397514
 30
0.0
  0
SPLINE
  5
B8
330
1F
100
AcDbEntity
  8
0
  6
Continuous
 62
     7
100
AcDbSpline
210
0.0
220
0.0
230
1.0
 70
     8
 71
     3
 72
     9
 73
     5
 74
     0
 42
0.00000001
 43
0.00000001
 40
0.0
 40
0.0
 40
0.0
 40
0.0
 40
0.5679612136940689
 40
1.0
 40
1.0
 40
1.0
 40
1.0
 10
-11.37297600507735
 20
-16.051472
 30
0.0
 10
-11.36667072473599
 20
-16.097155586816
 30
0.0
 10
-11.35036899999999
 20
-16.128218
 30
0.0
 10
-11.35663137151604
 20
-16.11812944677829
 30
0.0
 10
-11.35036899999999
 20
-16.128218
 30
0.0
  0
SPLINE
  5
B9
330
1F
100
AcDbEntity
  8
0
  6
Continuous
 62
     7
100
AcDbSpline
210
0.0
220
0.0
230
1.0
 70
     8
 71
     3
 72
     9
 73
     5
 74
     0
 42
0.00000001
 43
0.00000001
 40
0.0
 40
0.0
 40
0.0
 40
0.0
 40
0.5006239228419015
 40
1.0
 40
1.0
 40
1.0
 40
1.0
 10
-11.35036349296569
 20
-16.128218
 30
0.0
 10
-11.30719199379199
 20
-16.163243767168
 30
0.0
 10
-11.256522
 20
-16.185777
 30
0.0
 10
-11.27404504891687
 20
-16.17929840155278
 30
0.0
 10
-11.256522
 20
-16.185777
 30
0.0
  0
SPLINE
  5
BA
330
1F
100
AcDbEntity
  8
0
  6
Continuous
 62
     7
100
AcDbSpline
210
0.0
220
0.0
230
1.0
 70
     8
 71
     3
 72
     9
 73
     5
 74
     0
 42
0.00000001
 43
0.00000001
 40
0.0
 40
0.0
 40
0.0
 40
0.0
 40
0.5058043674103601
 40
1.0
 40
1.0
 40
1.0
 40
1.0
 10
-11.25651597976684
 20
-16.185777
 30
0.0
 10
-11.17318068991999
 20
-16.201224867008
 30
0.0
 10
-11.09087799999999
 20
-16.210375
 30
0.0
 10
-11.11838471458617
 20
-16.20781447204736
 30
0.0
 10
-11.09087799999999
 20
-16.210375
 30
0.0
  0
SPLINE
  5
BB
330
1F
100
AcDbEntity
  8
0
  6
Continuous
 62
     7
100
AcDbSpline
210
0.0
220
0.0
230
1.0
 70
     8
 71
     3
 72
     9
 73
     5
 74
     0
 42
0.00000001
 43
0.00000001
 40
0.0
 40
0.0
 40
0.0
 40
0.0
 40
0.5138281040804404
 40
1.0
 40
1.0
 40
1.0
 40
1.0
 10
-11.09087467193603
 20
-16.210375
 30
0.0
 10
-10.95518498329599
 20
-16.22597733382399
 30
0.0
 10
-10.82601699999999
 20
-16.230054
 30
0.0
 10
-10.86913632937888
 20
-16.22956097450257
 30
0.0
 10
-10.82601699999999
 20
-16.230054
 30
0.0
  0
SPLINE
  5
BC
330
1F
100
AcDbEntity
  8
0
  6
Continuous
 62
     7
100
AcDbSpline
210
0.0
220
0.0
230
1.0
 70
     8
 71
     3
 72
     9
 73
     5
 74
     0
 42
0.00000001
 43
0.00000001
 40
0.0
 40
0.0
 40
0.0
 40
0.0
 40
0.6122877733778181
 40
1.0
 40
1.0
 40
1.0
 40
1.0
 10
-10.82601398229598
 20
-16.230054
 30
0.0
 10
-10.66337801439999
 20
-16.223543086976
 30
0.0
 10
-10.561156
 20
-16.210375
 30
0.0
 10
-10.59518075475438
 20
-16.21534885488181
 30
0.0
 10
-10.561156
 20
-16.210375
 30
0.0
  0
SPLINE
  5
BD
330
1F
100
AcDbEntity
  8
0
  6
Continuous
 62
     7
100
AcDbSpline
210
0.0
220
0.0
230
1.0
 70
     8
 71
     3
 72
     9
 73
     5
 74
     0
 42
0.00000001
 43
0.00000001
 40
0.0
 40
0.0
 40
0.0
 40
0.0
 40
0.6326234467692414
 40
0.9999999999999999
 40
0.9999999999999999
 40
0.9999999999999999
 40
0.9999999999999999
 10
-10.56115329265594
 20
-16.210375
 30
0.0
 10
-10.45575808550399
 20
-16.198563996992
 30
0.0
 10
-10.39551199999999
 20
-16.185777
 30
0.0
 10
-10.41553531376221
 20
-16.19040230779296
 30
0.0
 10
-10.39551199999999
 20
-16.185777
 30
0.0
  0
SPLINE
  5
BE
330
1F
100
AcDbEntity
  8
0
  6
Continuous
 62
     7
100
AcDbSpline
210
0.0
220
0.0
230
1.0
 70
     8
 71
     3
 72
     9
 73
     5
 74
     0
 42
0.00000001
 43
0.00000001
 40
0.0
 40
0.0
 40
0.0
 40
0.0
 40
0.618988503932077
 40
1.0
 40
1.0
 40
1.0
 40
1.0
 10
-10.39551198482513
 20
-16.185777
 30
0.0
 10
-10.33665429491199
 20
-16.156205789632
 30
0.0
 10
-10.307319
 20
-16.128218
 30
0.0
 10
-10.31665965564192
 20
-16.13816866499788
 30
0.0
 10
-10.307319
 20
-16.128218
 30
0.0
  0
SPLINE
  5
BF
330
1F
100
AcDbEntity
  8
0
  6
Continuous
 62
     7
100
AcDbSpline
210
0.0
220
0.0
230
1.0
 70
     8
 71
     3
 72
     9
 73
     5
 74
     0
 42
0.00000001
 43
0.00000001
 40
0.0
 40
0.0
 40
0.0
 40
0.0
 40
0.5662709505169728
 40
1.0
 40
1.0
 40
1.0
 40
1.0
 10
-10.30731201171874
 20
-16.128218
 30
0.0
 10
-10.28046597407999
 20
-16.08798970918399
 30
0.0
 10
-10.27424699999999
 20
-16.051472
 30
0.0
 10
-10.27528312915983
 20
-16.06405699467342
 30
0.0
 10
-10.274247
 20
-16.051472
 30
0.0
  0
SPLINE
  5
C0
330
1F
100
AcDbEntity
  8
0
  6
Continuous
 62
     7
100
AcDbSpline
210
0.0
220
0.0
230
1.0
 70
     8
 71
     3
 72
     9
 73
     5
 74
     0
 42
0.00000001
 43
0.00000001
 40
0.0
 40
0.0
 40
0.0
 40
0.0
 40
0.5938761303845967
 40
1.0
 40
1.0
 40
1.0
 40
1.0
 10
-9.539954364299767
 20
-12.991136
 30
0.0
 10
-9.154722773055994
 20
-13.023000482048
 30
0.0
 10
-8.899541999999995
 20
-13.091987
 30
0.0
 10
-8.984043096933526
 20
-13.06579693029921
 30
0.0
 10
-8.899541999999997
 20
-13.091987
 30
0.0
  0
SPLINE
  5
C1
330
1F
100
AcDbEntity
  8
0
  6
Continuous
 62
     7
100
AcDbSpline
210
0.0
220
0.0
230
1.0
 70
     8
 71
     3
 72
     9
 73
     5
 74
     0
 42
0.00000001
 43
0.00000001
 40
0.0
 40
0.0
 40
0.0
 40
0.0
 40
0.5682274168208558
 40
1.0
 40
1.0
 40
1.0
 40
1.0
 10
-8.89953970909118
 20
-13.091987
 30
0.0
 10
-8.619369784319995
 20
-13.222034537536
 30
0.0
 10
-8.430254999999994
 20
-13.36104
 30
0.0
 10
-8.491582377784445
 20
-13.31181285458534
 30
0.0
 10
-8.430254999999994
 20
-13.36104
 30
0.0
  0
SPLINE
  5
C2
330
1F
100
AcDbEntity
  8
0
  6
Continuous
 62
     7
100
AcDbSpline
210
0.0
220
0.0
230
1.0
 70
     8
 71
     3
 72
     9
 73
     5
 74
     0
 42
0.00000001
 43
0.00000001
 40
0.0
 40
0.0
 40
0.0
 40
0.0
 40
0.5504472548806428
 40
1.0
 40
1.0
 40
1.0
 40
1.0
 10
-8.430249989032738
 20
-13.36104
 30
0.0
 10
-8.227547184703994
 20
-13.57738578828799
 30
0.0
 10
-8.093481999999995
 20
-13.77900999999999
 30
0.0
 10
-8.135811508785414
 20
-13.70993376543368
 30
0.0
 10
-8.093481999999996
 20
-13.77901
 30
0.0
  0
SPLINE
  5
C3
330
1F
100
AcDbEntity
  8
0
  6
Continuous
 62
     7
100
AcDbSpline
210
0.0
220
0.0
230
1.0
 70
     8
 71
     3
 72
     9
 73
     5
 74
     0
 42
0.00000001
 43
0.00000001
 40
0.0
 40
0.0
 40
0.0
 40
0.0
 40
0.5442855857837544
 40
1.0
 40
1.0
 40
1.0
 40
1.0
 10
-8.093476295471184
 20
-13.77900999999999
 30
0.0
 10
-7.932661408767994
 20
-14.06264480767999
 30
0.0
 10
-7.811943999999994
 20
-14.307498
 30
0.0
 10
-7.851125256305377
 20
-14.22532019187591
 30
0.0
 10
-7.811943999999995
 20
-14.307498
 30
0.0
  0
SPLINE
  5
C4
330
1F
100
AcDbEntity
  8
0
  6
Continuous
 62
     7
100
AcDbSpline
210
0.0
220
0.0
230
1.0
 70
     8
 71
     3
 72
     9
 73
     5
 74
     0
 42
0.00000001
 43
0.00000001
 40
0.0
 40
0.0
 40
0.0
 40
0.0
 40
0.5924412606293414
 40
1.0
 40
1.0
 40
1.0
 40
1.0
 10
-7.055602967739098
 20
-15.998611
 30
0.0
 10
-7.023035170687996
 20
-16.06598749407999
 30
0.0
 10
-6.994831999999994
 20
-16.109056
 30
0.0
 10
-7.004626946917999
 20
-16.09492275760139
 30
0.0
 10
-6.994831999999994
 20
-16.109056
 30
0.0
  0
SPLINE
  5
C5
330
1F
100
AcDbEntity
  8
0
  6
Continuous
 62
     7
100
AcDbSpline
210
0.0
220
0.0
230
1.0
 70
     8
 71
     3
 72
     9
 73
     5
 74
     0
 42
0.00000001
 43
0.00000001
 40
0.0
 40
0.0
 40
0.0
 40
0.0
 40
0.5393715411539608
 40
1.0
 40
1.0
 40
1.0
 40
1.0
 10
-6.99482858180999
 20
-16.109056
 30
0.0
 10
-6.945564977663994
 20
-16.15626665574399
 30
0.0
 10
-6.895332999999995
 20
-16.185802
 30
0.0
 10
-6.912703477060361
 20
-16.17678471194614
 30
0.0
 10
-6.895332999999995
 20
-16.185802
 30
0.0
  0
SPLINE
  5
C6
330
1F
100
AcDbEntity
  8
0
  6
Continuous
 62
     7
100
AcDbSpline
210
0.0
220
0.0
230
1.0
 70
     8
 71
     3
 72
     9
 73
     5
 74
     0
 42
0.00000001
 43
0.00000001
 40
0.0
 40
0.0
 40
0.0
 40
0.0
 40
0.5071869024136145
 40
1.0
 40
1.0
 40
1.0
 40
1.0
 10
-6.895329803228371
 20
-16.185802
 30
0.0
 10
-6.812083234239994
 20
-16.20482063308799
 30
0.0
 10
-6.729687999999994
 20
-16.214582
 30
0.0
 10
-6.757276929734457
 20
-16.21204429090892
 30
0.0
 10
-6.729687999999995
 20
-16.214582
 30
0.0
  0
SPLINE
  5
C7
330
1F
100
AcDbEntity
  8
0
  6
Continuous
 62
     7
100
AcDbSpline
210
0.0
220
0.0
230
1.0
 70
     8
 71
     3
 72
     9
 73
     5
 74
     0
 42
0.00000001
 43
0.00000001
 40
0.0
 40
0.0
 40
0.0
 40
0.0
 40
0.509383593388132
 40
1.0
 40
1.0
 40
1.0
 40
1.0
 10
-6.729684770107262
 20
-16.214582
 30
0.0
 10
-6.589201218431994
 20
-16.225682849536
 30
0.0
 10
-6.453520999999993
 20
-16.22933999999999
 30
0.0
 10
-6.498778198020133
 20
-16.22869617396632
 30
0.0
 10
-6.453520999999994
 20
-16.22934
 30
0.0
  0
SPLINE
  5
C8
330
1F
100
AcDbEntity
  8
0
  6
Continuous
 62
     7
100
AcDbSpline
210
0.0
220
0.0
230
1.0
 70
     8
 71
     3
 72
     9
 73
     5
 74
     0
 42
0.00000001
 43
0.00000001
 40
0.0
 40
0.0
 40
0.0
 40
0.0
 40
0.6206180918798615
 40
1.0
 40
1.0
 40
1.0
 40
1.0
 10
-6.453517824411385
 20
-16.22933999999999
 30
0.0
 10
-6.261463792447993
 20
-16.22369370726399
 30
0.0
 10
-6.144364999999994
 20
-16.214582
 30
0.0
 10
-6.183378756880059
 20
-16.21797712859175
 30
0.0
 10
-6.144364999999995
 20
-16.214582
 30
0.0
  0
SPLINE
  5
C9
330
1F
100
AcDbEntity
  8
0
  6
Continuous
 62
     7
100
AcDbSpline
210
0.0
220
0.0
230
1.0
 70
     8
 71
     3
 72
     9
 73
     5
 74
     0
 42
0.00000001
 43
0.00000001
 40
0.0
 40
0.0
 40
0.0
 40
0.0
 40
0.6261189822708038
 40
0.9999999999999999
 40
0.9999999999999999
 40
0.9999999999999999
 40
0.9999999999999999
 10
-6.144363433122628
 20
-16.214582
 30
0.0
 10
-6.032960941247995
 20
-16.201017923712
 30
0.0
 10
-5.967696999999994
 20
-16.185802
 30
0.0
 10
-5.989373194306026
 20
-16.19131741391328
 30
0.0
 10
-5.967696999999994
 20
-16.185802
 30
0.0
  0
SPLINE
  5
CA
330
1F
100
AcDbEntity
  8
0
  6
Continuous
 62
     7
100
AcDbSpline
210
0.0
220
0.0
230
1.0
 70
     8
 71
     3
 72
     9
 73
     5
 74
     0
 42
0.00000001
 43
0.00000001
 40
0.0
 40
0.0
 40
0.0
 40
0.0
 40
0.6303424404313428
 40
1.0
 40
1.0
 40
1.0
 40
1.0
 10
-5.96769526600837
 20
-16.185802
 30
0.0
 10
-5.910342753343993
 20
-16.156230614016
 30
0.0
 10
-5.884874999999994
 20
-16.12824199999999
 30
0.0
 10
-5.892861146423205
 20
-16.13822748253343
 30
0.0
 10
-5.884874999999994
 20
-16.12824199999999
 30
0.0
  0
SPLINE
  5
CB
330
1F
100
AcDbEntity
  8
0
  6
Continuous
 62
     7
100
AcDbSpline
210
0.0
220
0.0
230
1.0
 70
     8
 71
     3
 72
     9
 73
     5
 74
     0
 42
0.00000001
 43
0.00000001
 40
0.0
 40
0.0
 40
0.0
 40
0.0
 40
0.5390532911333987
 40
1.0
 40
1.0
 40
1.0
 40
1.0
 10
-5.884874612092965
 20
-16.12824199999999
 30
0.0
 10
-5.870279196735995
 20
-16.0880138848
 30
0.0
 10
-5.867914999999995
 20
-16.051497
 30
0.0
 10
-5.867925878423032
 20
-16.06383198272128
 30
0.0
 10
-5.867914999999996
 20
-16.051497
 30
0.0
  0
SPLINE
  5
CC
330
1F
100
AcDbEntity
  8
0
  6
Continuous
 62
     7
100
AcDbSpline
210
0.0
220
0.0
230
1.0
 70
     8
 71
     3
 72
     9
 73
     5
 74
     0
 42
0.00000001
 43
0.00000001
 40
0.0
 40
0.0
 40
0.0
 40
0.0
 40
0.4877035688011362
 40
1.0
 40
1.0
 40
1.0
 40
1.0
 10
-5.867913365364068
 20
-16.051497
 30
0.0
 10
-5.874226275263995
 20
-15.989710028096
 30
0.0
 10
-5.890527999999994
 20
-15.926539
 30
0.0
 10
-5.884268399599848
 20
-15.9474481602907
 30
0.0
 10
-5.890527999999994
 20
-15.926539
 30
0.0
  0
SPLINE
  5
CD
330
1F
100
AcDbEntity
  8
0
  6
Continuous
 62
     7
100
AcDbSpline
210
0.0
220
0.0
230
1.0
 70
     8
 71
     3
 72
     9
 73
     5
 74
     0
 42
0.00000001
 43
0.00000001
 40
0.0
 40
0.0
 40
0.0
 40
0.0
 40
0.4536229203057927
 40
1.0
 40
1.0
 40
1.0
 40
1.0
 10
-5.890525877475731
 20
-15.926539
 30
0.0
 10
-5.939683175551994
 20
-15.7965636272
 30
0.0
 10
-6.006422999999995
 20
-15.64307099999999
 30
0.0
 10
-5.983490585731806
 20
-15.6939566160381
 30
0.0
 10
-6.006422999999995
 20
-15.64307099999999
 30
0.0
  0
SPLINE
  5
CE
330
1F
100
AcDbEntity
  8
0
  6
Continuous
 62
     7
100
AcDbSpline
210
0.0
220
0.0
230
1.0
 70
     8
 71
     3
 72
     9
 73
     5
 74
     0
 42
0.00000001
 43
0.00000001
 40
0.0
 40
0.0
 40
0.0
 40
0.0
 40
0.5820638437781928
 40
1.0
 40
1.0
 40
1.0
 40
1.0
 10
-6.746221333742135
 20
-14.062477
 30
0.0
 10
-6.888331556031995
 20
-13.774291791808
 30
0.0
 10
-7.000061999999994
 20
-13.572436
 30
0.0
 10
-6.96214342577492
 20
-13.63936822798137
 30
0.0
 10
-7.000061999999994
 20
-13.572436
 30
0.0
  0
SPLINE
  5
CF
330
1F
100
AcDbEntity
  8
0
  6
Continuous
 62
     7
100
AcDbSpline
210
0.0
220
0.0
230
1.0
 70
     8
 71
     3
 72
     9
 73
     5
 74
     0
 42
0.00000001
 43
0.00000001
 40
0.0
 40
0.0
 40
0.0
 40
0.0
 40
0.5751568575516541
 40
1.0
 40
1.0
 40
1.0
 40
1.0
 10
-7.000058889389031
 20
-13.572436
 30
0.0
 10
-7.149951405567996
 20
-13.34484970176
 30
0.0
 10
-7.276228999999995
 20
-13.188092
 30
0.0
 10
-7.233034810071406
 20
-13.23954088340275
 30
0.0
 10
-7.276228999999995
 20
-13.188092
 30
0.0
  0
SPLINE
  5
D0
330
1F
100
AcDbEntity
  8
0
  6
Continuous
 62
     7
100
AcDbSpline
210
0.0
220
0.0
230
1.0
 70
     8
 71
     3
 72
     9
 73
     5
 74
     0
 42
0.00000001
 43
0.00000001
 40
0.0
 40
0.0
 40
0.0
 40
0.0
 40
0.5687608209612608
 40
1.0
 40
1.0
 40
1.0
 40
1.0
 10
-7.276225835084908
 20
-13.188092
 30
0.0
 10
-7.439904063551994
 20
-13.017023346048
 30
0.0
 10
-7.579872999999994
 20
-12.904624
 30
0.0
 10
-7.532076294242603
 20
-12.94084658753987
 30
0.0
 10
-7.579872999999994
 20
-12.904624
 30
0.0
  0
SPLINE
  5
D1
330
1F
100
AcDbEntity
  8
0
  6
Continuous
 62
     7
100
AcDbSpline
210
0.0
220
0.0
230
1.0
 70
     8
 71
     3
 72
     9
 73
     5
 74
     0
 42
0.00000001
 43
0.00000001
 40
0.0
 40
0.0
 40
0.0
 40
0.0
 40
0.5523256851742377
 40
1.0
 40
1.0
 40
1.0
 40
1.0
 10
-7.57987052202224
 20
-12.904624
 30
0.0
 10
-7.780857301951995
 20
-12.783464986752
 30
0.0
 10
-7.955285999999994
 20
-12.707594
 30
0.0
 10
-7.896283290485152
 20
-12.73121811938972
 30
0.0
 10
-7.955285999999996
 20
-12.707594
 30
0.0
  0
SPLINE
  5
D2
330
1F
100
AcDbEntity
  8
0
  6
Continuous
 62
     7
100
AcDbSpline
210
0.0
220
0.0
230
1.0
 70
     8
 71
     3
 72
     9
 73
     5
 74
     0
 42
0.00000001
 43
0.00000001
 40
0.0
 40
0.0
 40
0.0
 40
0.0
 40
0.5757759453134407
 40
1.0
 40
1.0
 40
1.0
 40
1.0
 10
-7.955282926559441
 20
-12.707594
 30
0.0
 10
-7.566837879295996
 20
-12.56648577344
 30
0.0
 10
-7.292793999999994
 20
-12.433745
 30
0.0
 10
-7.383282392566028
 20
-12.4800263694037
 30
0.0
 10
-7.292793999999994
 20
-12.433745
 30
0.0
  0
SPLINE
  5
D3
330
1F
100
AcDbEntity
  8
0
  6
Continuous
 62
     7
100
AcDbSpline
210
0.0
220
0.0
230
1.0
 70
     8
 71
     3
 72
     9
 73
     5
 74
     0
 42
0.00000001
 43
0.00000001
 40
0.0
 40
0.0
 40
0.0
 40
0.0
 40
0.572467969201502
 40
1.0
 40
1.0
 40
1.0
 40
1.0
 10
-7.292792201042168
 20
-12.433745
 30
0.0
 10
-6.991096097535992
 20
-12.237663039296
 30
0.0
 10
-6.790377999999994
 20
-12.058994
 30
0.0
 10
-6.855531480522646
 20
-12.12084694838228
 30
0.0
 10
-6.790377999999994
 20
-12.058994
 30
0.0
  0
SPLINE
  5
D4
330
1F
100
AcDbEntity
  8
0
  6
Continuous
 62
     7
100
AcDbSpline
210
0.0
220
0.0
230
1.0
 70
     8
 71
     3
 72
     9
 73
     5
 74
     0
 42
0.00000001
 43
0.00000001
 40
0.0
 40
0.0
 40
0.0
 40
0.0
 40
0.5607002234727763
 40
1.0
 40
1.0
 40
1.0
 40
1.0
 10
-6.790377199649804
 20
-12.058994
 30
0.0
 10
-6.585832121343995
 20
-11.788762285184
 30
0.0
 10
-6.470169999999994
 20
-11.549741
 30
0.0
 10
-6.505458892177634
 20
-11.63141350258436
 30
0.0
 10
-6.470169999999994
 20
-11.549741
 30
0.0
  0
SPLINE
  5
D5
330
1F
100
AcDbEntity
  8
0
  6
Continuous
 62
     7
100
AcDbSpline
210
0.0
220
0.0
230
1.0
 70
     8
 71
     3
 72
     9
 73
     5
 74
     0
 42
0.00000001
 43
0.00000001
 40
0.0
 40
0.0
 40
0.0
 40
0.0
 40
0.5401657375156732
 40
1.0
 40
1.0
 40
1.0
 40
1.0
 10
-6.47016987204551
 20
-11.549741
 30
0.0
 10
-6.380093613823993
 20
-11.204343105088
 30
0.0
 10
-6.359645999999993
 20
-10.901166
 30
0.0
 10
-6.362152240775291
 20
-11.00292593918378
 30
0.0
 10
-6.359645999999993
 20
-10.901166
 30
0.0
  0
SPLINE
  5
D6
330
1F
100
AcDbEntity
  8
0
  6
Continuous
 62
     7
100
AcDbSpline
210
0.0
220
0.0
230
1.0
 70
     8
 71
     3
 72
     9
 73
     5
 74
     0
 42
0.00000001
 43
0.00000001
 40
0.0
 40
0.0
 40
0.0
 40
0.0
 40
0.5742633175181615
 40
0.9999999999999999
 40
0.9999999999999999
 40
0.9999999999999999
 40
0.9999999999999999
 10
-6.359644234180443
 20
-10.901166
 30
0.0
 10
-6.399252689023993
 20
-10.505405175296
 30
0.0
 10
-6.486564999999994
 20
-10.223761
 30
0.0
 10
-6.453349122259844
 20
-10.31680811523167
 30
0.0
 10
-6.486564999999995
 20
-10.223761
 30
0.0
  0
SPLINE
  5
D7
330
1F
100
AcDbEntity
  8
0
  6
Continuous
 62
     7
100
AcDbSpline
210
0.0
220
0.0
230
1.0
 70
     8
 71
     3
 72
     9
 73
     5
 74
     0
 42
0.00000001
 43
0.00000001
 40
0.0
 40
0.0
 40
0.0
 40
0.0
 40
0.5549721939317368
 40
1.0
 40
1.0
 40
1.0
 40
1.0
 10
-6.486564874649041
 20
-10.223761
 30
0.0
 10
-6.662301779903994
 20
-9.899322124735999
 30
0.0
 10
-6.856465999999993
 20
-9.676062
 30
0.0
 10
-6.787795550957388
 20
-9.747744761635937
 30
0.0
 10
-6.856465999999993
 20
-9.676062
 30
0.0
  0
SPLINE
  5
D8
330
1F
100
AcDbEntity
  8
0
  6
Continuous
 62
     7
100
AcDbSpline
210
0.0
220
0.0
230
1.0
 70
     8
 71
     3
 72
     9
 73
     5
 74
     0
 42
0.00000001
 43
0.00000001
 40
0.0
 40
0.0
 40
0.0
 40
0.0
 40
0.5402946560795012
 40
1.0
 40
1.0
 40
1.0
 40
1.0
 10
-6.856463849544518
 20
-9.676062
 30
0.0
 10
-7.172834462591995
 20
-9.434955065343999
 30
0.0
 10
-7.474803999999994
 20
-9.282124999999999
 30
0.0
 10
-7.371635339050273
 20
-9.329060197822315
 30
0.0
 10
-7.474803999999994
 20
-9.282124999999999
 30
0.0
  0
SPLINE
  5
D9
330
1F
100
AcDbEntity
  8
0
  6
Continuous
 62
     7
100
AcDbSpline
210
0.0
220
0.0
230
1.0
 70
     8
 71
     3
 72
     9
 73
     5
 74
     0
 42
0.00000001
 43
0.00000001
 40
0.0
 40
0.0
 40
0.0
 40
0.0
 40
0.534677005137639
 40
1.0
 40
1.0
 40
1.0
 40
1.0
 10
-7.47480243444442
 20
-9.282124999999999
 30
0.0
 10
-7.916351136127995
 20
-9.132413187904
 30
0.0
 10
-8.313992999999993
 20
-9.051642
 30
0.0
 10
-8.180409025433455
 20
-9.074725169725195
 30
0.0
 10
-8.313992999999993
 20
-9.051642
 30
0.0
  0
SPLINE
  5
DA
330
1F
100
AcDbEntity
  8
0
  6
Continuous
 62
     7
100
AcDbSpline
210
0.0
220
0.0
230
1.0
 70
     8
 71
     3
 72
     9
 73
     5
 74
     0
 42
0.00000001
 43
0.00000001
 40
0.0
 40
0.0
 40
0.0
 40
0.0
 40
0.5319636904191644
 40
1.0
 40
1.0
 40
1.0
 40
1.0
 10
-8.313991129398339
 20
-9.051642
 30
0.0
 10
-8.516413477055995
 20
-9.033423063039999
 30
0.0
 10
-8.694917999999994
 20
-9.022862
 30
0.0
 10
-8.635384684209498
 20
-9.025955781404951
 30
0.0
 10
-8.694917999999994
 20
-9.022862
 30
0.0
  0
SPLINE
  5
DB
330
1F
100
AcDbEntity
  8
0
  6
Continuous
 62
     7
100
AcDbSpline
210
0.0
220
0.0
230
1.0
 70
     8
 71
     3
 72
     9
 73
     5
 74
     0
 42
0.00000001
 43
0.00000001
 40
0.0
 40
0.0
 40
0.0
 40
0.0
 40
0.5080900010030195
 40
1.0
 40
1.0
 40
1.0
 40
1.0
 10
-8.694916963577263
 20
-9.022862
 30
0.0
 10
-8.955643373439994
 20
-9.010160340736002
 30
0.0
 10
-9.208357999999995
 20
-9.008103
 30
0.0
 10
-9.12409593469641
 20
-9.007949267186786
 30
0.0
 10
-9.208357999999995
 20
-9.008103
 30
0.0
  0
SPLINE
  5
DC
330
1F
100
AcDbEntity
  8
0
  6
Continuous
 62
     7
100
AcDbSpline
210
0.0
220
0.0
230
1.0
 70
     8
 71
     3
 72
     9
 73
     5
 74
     0
 42
0.00000001
 43
0.00000001
 40
0.0
 40
0.0
 40
0.0
 40
0.0
 40
0.5472599602465917
 40
1.0
 40
1.0
 40
1.0
 40
1.0
 10
-3.870178014039986
 20
-9.008250999999998
 30
0.0
 10
-4.030999591231994
 20
-9.034758842815998
 30
0.0
 10
-4.151716999999994
 20
-9.094835999999999
 30
0.0
 10
-4.112408085634243
 20
-9.071931789013414
 30
0.0
 10
-4.151716999999994
 20
-9.094835999999999
 30
0.0
  0
SPLINE
  5
DD
330
1F
100
AcDbEntity
  8
0
  6
Continuous
 62
     7
100
AcDbSpline
210
0.0
220
0.0
230
1.0
 70
     8
 71
     3
 72
     9
 73
     5
 74
     0
 42
0.00000001
 43
0.00000001
 40
0.0
 40
0.0
 40
0.0
 40
0.0
 40
0.5045944085758023
 40
1.0
 40
1.0
 40
1.0
 40
1.0
 10
-4.151716828346245
 20
-9.094835999999999
 30
0.0
 10
-4.254217781823994
 20
-9.231544679295999
 30
0.0
 10
-4.278635999999993
 20
-9.397514
 30
0.0
 10
-4.276789579398797
 20
-9.339569359632117
 30
0.0
 10
-4.278635999999993
 20
-9.397514
 30
0.0
  0
SPLINE
  5
DE
330
1F
100
AcDbEntity
  8
0
  6
Continuous
 62
     7
100
AcDbSpline
210
0.0
220
0.0
230
1.0
 70
     8
 71
     3
 72
     9
 73
     5
 74
     0
 42
0.00000001
 43
0.00000001
 40
0.0
 40
0.0
 40
0.0
 40
0.0
 40
0.5329454367251197
 40
1.0
 40
1.0
 40
1.0
 40
1.0
 10
-4.278633743524544
 20
-16.051472
 30
0.0
 10
-4.268991307263994
 20
-16.09442793881599
 30
0.0
 10
-4.250368999999995
 20
-16.128218
 30
0.0
 10
-4.257368250215254
 20
-16.11725472936502
 30
0.0
 10
-4.250368999999995
 20
-16.128218
 30
0.0
  0
SPLINE
  5
DF
330
1F
100
AcDbEntity
  8
0
  6
Continuous
 62
     7
100
AcDbSpline
210
0.0
220
0.0
230
1.0
 70
     8
 71
     3
 72
     9
 73
     5
 74
     0
 42
0.00000001
 43
0.00000001
 40
0.0
 40
0.0
 40
0.0
 40
0.0
 40
0.4995267041340424
 40
0.9999999999999999
 40
0.9999999999999999
 40
0.9999999999999999
 40
0.9999999999999999
 10
-4.250366240739815
 20
-16.128218
 30
0.0
 10
-4.210408588095993
 20
-16.163243767168
 30
0.0
 10
-4.162175999999994
 20
-16.185777
 30
0.0
 10
-4.178937444192057
 20
-16.1793134886831
 30
0.0
 10
-4.162175999999994
 20
-16.185777
 30
0.0
  0
SPLINE
  5
E0
330
1F
100
AcDbEntity
  8
0
  6
Continuous
 62
     7
100
AcDbSpline
210
0.0
220
0.0
230
1.0
 70
     8
 71
     3
 72
     9
 73
     5
 74
     0
 42
0.00000001
 43
0.00000001
 40
0.0
 40
0.0
 40
0.0
 40
0.0
 40
0.4984078130722163
 40
1.0
 40
1.0
 40
1.0
 40
1.0
 10
-4.162173718214028
 20
-16.185777
 30
0.0
 10
-4.077398587391994
 20
-16.201224867008
 30
0.0
 10
-3.991160999999994
 20
-16.210375
 30
0.0
 10
-4.019983841848477
 20
-16.20785968904475
 30
0.0
 10
-3.991160999999994
 20
-16.210375
 30
0.0
  0
SPLINE
  5
E1
330
1F
100
AcDbEntity
  8
0
  6
Continuous
 62
     7
100
AcDbSpline
210
0.0
220
0.0
230
1.0
 70
     8
 71
     3
 72
     9
 73
     5
 74
     0
 42
0.00000001
 43
0.00000001
 40
0.0
 40
0.0
 40
0.0
 40
0.0
 40
0.5204139469060542
 40
1.0
 40
1.0
 40
1.0
 40
1.0
 10
-3.991160541772835
 20
-16.210375
 30
0.0
 10
-3.853712826815994
 20
-16.22597733382399
 30
0.0
 10
-3.726299999999994
 20
-16.230054
 30
0.0
 10
-3.768830751452811
 20
-16.22951853031364
 30
0.0
 10
-3.726299999999994
 20
-16.230054
 30
0.0
  0
SPLINE
  5
E2
330
1F
100
AcDbEntity
  8
0
  6
Continuous
 62
     7
100
AcDbSpline
210
0.0
220
0.0
230
1.0
 70
     8
 71
     3
 72
     9
 73
     5
 74
     0
 42
0.00000001
 43
0.00000001
 40
0.0
 40
0.0
 40
0.0
 40
0.0
 40
0.6174513827779988
 40
1.0
 40
1.0
 40
1.0
 40
1.0
 10
-3.72629985213279
 20
-16.230054
 30
0.0
 10
-3.562281962879994
 20
-16.223543086976
 30
0.0
 10
-3.461438999999995
 20
-16.210375
 30
0.0
 10
-3.495003839758368
 20
-16.21534674038219
 30
0.0
 10
-3.461438999999995
 20
-16.210375
 30
0.0
  0
SPLINE
  5
E3
330
1F
100
AcDbEntity
  8
0
  6
Continuous
 62
     7
100
AcDbSpline
210
0.0
220
0.0
230
1.0
 70
     8
 71
     3
 72
     9
 73
     5
 74
     0
 42
0.00000001
 43
0.00000001
 40
0.0
 40
0.0
 40
0.0
 40
0.0
 40
0.6135257464805883
 40
1.0
 40
1.0
 40
1.0
 40
1.0
 10
-3.461437299847596
 20
-16.210375
 30
0.0
 10
-3.359292441919995
 20
-16.198563996992
 30
0.0
 10
-3.295794999999994
 20
-16.185777
 30
0.0
 10
-3.316906321157826
 20
-16.1903837433226
 30
0.0
 10
-3.295794999999994
 20
-16.185777
 30
0.0
  0
SPLINE
  5
E4
330
1F
100
AcDbEntity
  8
0
  6
Continuous
 62
     7
100
AcDbSpline
210
0.0
220
0.0
230
1.0
 70
     8
 71
     3
 72
     9
 73
     5
 74
     0
 42
0.00000001
 43
0.00000001
 40
0.0
 40
0.0
 40
0.0
 40
0.0
 40
0.6197326417214987
 40
1.0
 40
1.0
 40
1.0
 40
1.0
 10
-3.295794129371636
 20
-16.185777
 30
0.0
 10
-3.233604467007994
 20
-16.156205789632
 30
0.0
 10
-3.201948999999994
 20
-16.128218
 30
0.0
 10
-3.212088609316254
 20
-16.1381710869404
 30
0.0
 10
-3.201948999999994
 20
-16.128218
 30
0.0
  0
SPLINE
  5
E5
330
1F
100
AcDbEntity
  8
0
  6
Continuous
 62
     7
100
AcDbSpline
210
0.0
220
0.0
230
1.0
 70
     8
 71
     3
 72
     9
 73
     5
 74
     0
 42
0.00000001
 43
0.00000001
 40
0.0
 40
0.0
 40
0.0
 40
0.0
 40
0.5797811976050324
 40
1.0
 40
1.0
 40
1.0
 40
1.0
 10
-3.201948478817933
 20
-16.128218
 30
0.0
 10
-3.183100303167994
 20
-16.08526206118399
 30
0.0
 10
-3.179334999999995
 20
-16.051472
 30
0.0
 10
-3.179897045414161
 20
-16.06292137663826
 30
0.0
 10
-3.179334999999996
 20
-16.051472
 30
0.0
  0
SPLINE
  5
E6
330
1F
100
AcDbEntity
  8
0
  6
Continuous
 62
     7
100
AcDbSpline
210
0.0
220
0.0
230
1.0
 70
     8
 71
     3
 72
     9
 73
     5
 74
     0
 42
0.00000001
 43
0.00000001
 40
0.0
 40
0.0
 40
0.0
 40
0.0
 40
0.5586983099120936
 40
1.0
 40
1.0
 40
1.0
 40
1.0
 10
-0.3195148892700603
 20
-13.058386
 30
0.0
 10
-0.2715630520959939
 20
-13.049993323904
 30
0.0
 10
-0.2366929999999927
 20
-13.033788
 30
0.0
 10
-0.2480952663854352
 20
-13.03989410396904
 30
0.0
 10
-0.2366929999999927
 20
-13.033788
 30
0.0
  0
SPLINE
  5
E7
330
1F
100
AcDbEntity
  8
0
  6
Continuous
 62
     7
100
AcDbSpline
210
0.0
220
0.0
230
1.0
 70
     8
 71
     3
 72
     9
 73
     5
 74
     0
 42
0.00000001
 43
0.00000001
 40
0.0
 40
0.0
 40
0.0
 40
0.0
 40
0.5568948270456467
 40
1.0
 40
1.0
 40
1.0
 40
1.0
 10
-0.2366929547861149
 20
-13.033788
 30
0.0
 10
-0.1902690241919931
 20
-12.997115460096
 30
0.0
 10
-0.159240999999994
 20
-12.961716
 30
0.0
 10
-0.1691472043061471
 20
-12.9739751854233
 30
0.0
 10
-0.159240999999994
 20
-12.961716
 30
0.0
  0
SPLINE
  5
E8
330
1F
100
AcDbEntity
  8
0
  6
Continuous
 62
     7
100
AcDbSpline
210
0.0
220
0.0
230
1.0
 70
     8
 71
     3
 72
     9
 73
     5
 74
     0
 42
0.00000001
 43
0.00000001
 40
0.0
 40
0.0
 40
0.0
 40
0.0
 40
0.5330997919824451
 40
1.0
 40
1.0
 40
1.0
 40
1.0
 10
-0.1592409098520806
 20
-12.961716
 30
0.0
 10
-0.1293988894079946
 20
-12.900000547712
 30
0.0
 10
-0.1151449999999936
 20
-12.841678
 30
0.0
 10
-0.1189716480116879
 20
-12.86145119142562
 30
0.0
 10
-0.1151449999999936
 20
-12.841678
 30
0.0
  0
SPLINE
  5
E9
330
1F
100
AcDbEntity
  8
0
  6
Continuous
 62
     7
100
AcDbSpline
210
0.0
220
0.0
230
1.0
 70
     8
 71
     3
 72
     9
 73
     5
 74
     0
 42
0.00000001
 43
0.00000001
 40
0.0
 40
0.0
 40
0.0
 40
0.0
 40
0.525347290514934
 40
1.0
 40
1.0
 40
1.0
 40
1.0
 10
-0.1151449978351524
 20
-12.841678
 30
0.0
 10
-0.1057206515839934
 20
-12.74341205824
 30
0.0
 10
-0.1038379999999933
 20
-12.654241
 30
0.0
 10
-0.1039408796317581
 20
-12.68399534167638
 30
0.0
 10
-0.1038379999999933
 20
-12.654241
 30
0.0
  0
SPLINE
  5
EA
330
1F
100
AcDbEntity
  8
0
  6
Continuous
 62
     7
100
AcDbSpline
210
0.0
220
0.0
230
1.0
 70
     8
 71
     3
 72
     9
 73
     5
 74
     0
 42
0.00000001
 43
0.00000001
 40
0.0
 40
0.0
 40
0.0
 40
0.0
 40
0.6164875696244374
 40
1.0
 40
1.0
 40
1.0
 40
1.0
 10
-0.1038379850797286
 20
-12.654241
 30
0.0
 10
-0.1068767839999941
 20
-12.538410394816
 30
0.0
 10
-0.1151449999999936
 20
-12.466804
 30
0.0
 10
-0.1119812669866756
 20
-12.49064397209234
 30
0.0
 10
-0.1151449999999936
 20
-12.466804
 30
0.0
  0
SPLINE
  5
EB
330
1F
100
AcDbEntity
  8
0
  6
Continuous
 62
     7
100
AcDbSpline
210
0.0
220
0.0
230
1.0
 70
     8
 71
     3
 72
     9
 73
     5
 74
     0
 42
0.00000001
 43
0.00000001
 40
0.0
 40
0.0
 40
0.0
 40
0.0
 40
0.6057728890190002
 40
1.0
 40
1.0
 40
1.0
 40
1.0
 10
-0.1151449978351524
 20
-12.466804
 30
0.0
 10
-0.1350077627519947
 20
-12.391371775104
 30
0.0
 10
-0.159240999999994
 20
-12.346766
 30
0.0
 10
-0.1504203415409571
 20
-12.3613399538534
 30
0.0
 10
-0.159240999999994
 20
-12.346766
 30
0.0
  0
SPLINE
  5
EC
330
1F
100
AcDbEntity
  8
0
  6
Continuous
 62
     7
100
AcDbSpline
210
0.0
220
0.0
230
1.0
 70
     8
 71
     3
 72
     9
 73
     5
 74
     0
 42
0.00000001
 43
0.00000001
 40
0.0
 40
0.0
 40
0.0
 40
0.0
 40
0.5800844481957033
 40
1.0
 40
1.0
 40
1.0
 40
1.0
 10
-0.1592409098520806
 20
-12.346766
 30
0.0
 10
-0.1998561352319945
 20
-12.3049120704
 30
0.0
 10
-0.2366929999999927
 20
-12.284287
 30
0.0
 10
-0.2238936273674653
 20
-12.29048508864156
 30
0.0
 10
-0.2366929999999927
 20
-12.284287
 30
0.0
  0
SPLINE
  5
ED
330
1F
100
AcDbEntity
  8
0
  6
Continuous
 62
     7
100
AcDbSpline
210
0.0
220
0.0
230
1.0
 70
     8
 71
     3
 72
     9
 73
     5
 74
     0
 42
0.00000001
 43
0.00000001
 40
0.0
 40
0.0
 40
0.0
 40
0.0
 40
0.559797078515144
 40
1.0
 40
1.0
 40
1.0
 40
1.0
 10
-0.2366929547861149
 20
-12.284287
 30
0.0
 10
-0.2815100007039941
 20
-12.264984471104
 30
0.0
 10
-0.3195149999999942
 20
-12.259689
 30
0.0
 10
-0.3066439831147169
 20
-12.26072904772187
 30
0.0
 10
-0.3195149999999942
 20
-12.259689
 30
0.0
  0
SPLINE
  5
EE
330
1F
100
AcDbEntity
  8
0
  6
Continuous
 62
     7
100
AcDbSpline
210
0.0
220
0.0
230
1.0
 70
     8
 71
     3
 72
     9
 73
     5
 74
     0
 42
0.00000001
 43
0.00000001
 40
0.0
 40
0.0
 40
0.0
 40
0.0
 40
0.5586951487968979
 40
1.0
 40
1.0
 40
1.0
 40
1.0
 10
-0.153898959979408
 20
-9.819123999999999
 30
0.0
 10
-0.1059473773439942
 20
-9.810731323904001
 30
0.0
 10
-0.071076999999994
 20
-9.794526
 30
0.0
 10
-0.0824793762103991
 20
-9.800632102762888
 30
0.0
 10
-0.071076999999994
 20
-9.794526
 30
0.0
  0
SPLINE
  5
EF
330
1F
100
AcDbEntity
  8
0
  6
Continuous
 62
     7
100
AcDbSpline
210
0.0
220
0.0
230
1.0
 70
     8
 71
     3
 72
     9
 73
     5
 74
     0
 42
0.00000001
 43
0.00000001
 40
0.0
 40
0.0
 40
0.0
 40
0.0
 40
0.5477330518854393
 40
1.0
 40
1.0
 40
1.0
 40
1.0
 10
-0.0710769672878017
 20
-9.794526
 30
0.0
 10
-0.0247027235199942
 20
-9.76235344
 30
0.0
 10
0.0060920000000061
 20
-9.727373
 30
0.0
 10
-0.0036078147224484
 20
-9.739667476383302
 30
0.0
 10
0.0060920000000061
 20
-9.727373000000002
 30
0.0
  0
SPLINE
  5
F0
330
1F
100
AcDbEntity
  8
0
  6
Continuous
 62
     7
100
AcDbSpline
210
0.0
220
0.0
230
1.0
 70
     8
 71
     3
 72
     9
 73
     5
 74
     0
 42
0.00000001
 43
0.00000001
 40
0.0
 40
0.0
 40
0.0
 40
0.0
 40
0.5229200696636764
 40
1.0
 40
1.0
 40
1.0
 40
1.0
 10
0.0060919992392952
 20
-9.727373
 30
0.0
 10
0.0359341105920055
 20
-9.664386363839998
 30
0.0
 10
0.0501880000000066
 20
-9.602416
 30
0.0
 10
0.046468166825912
 20
-9.623431015543282
 30
0.0
 10
0.0501880000000066
 20
-9.602416
 30
0.0
  0
SPLINE
  5
F1
330
1F
100
AcDbEntity
  8
0
  6
Continuous
 62
     7
100
AcDbSpline
210
0.0
220
0.0
230
1.0
 70
     8
 71
     3
 72
     9
 73
     5
 74
     0
 42
0.00000001
 43
0.00000001
 40
0.0
 40
0.0
 40
0.0
 40
0.0
 40
0.5253494928109166
 40
1.0
 40
1.0
 40
1.0
 40
1.0
 10
0.0501879840157995
 20
-9.602416
 30
0.0
 10
0.0596123484160067
 20
-9.504149644287997
 30
0.0
 10
0.0614950000000069
 20
-9.414979
 30
0.0
 10
0.0613921132819088
 20
-9.444733203246923
 30
0.0
 10
0.0614950000000069
 20
-9.414979000000002
 30
0.0
  0
SPLINE
  5
F2
330
1F
100
AcDbEntity
  8
0
  6
Continuous
 62
     7
100
AcDbSpline
210
0.0
220
0.0
230
1.0
 70
     8
 71
     3
 72
     9
 73
     5
 74
     0
 42
0.00000001
 43
0.00000001
 40
0.0
 40
0.0
 40
0.0
 40
0.0
 40
0.5957978684565525
 40
0.9999999999999999
 40
0.9999999999999999
 40
0.9999999999999999
 40
0.9999999999999999
 10
0.0614949967712233
 20
-9.414979
 30
0.0
 10
0.0584678066560064
 20
-9.305975818048
 30
0.0
 10
0.0501880000000066
 20
-9.232462
 30
0.0
 10
0.053367369067675
 20
-9.256937214260937
 30
0.0
 10
0.0501880000000066
 20
-9.232462000000002
 30
0.0
  0
SPLINE
  5
F3
330
1F
100
AcDbEntity
  8
0
  6
Continuous
 62
     7
100
AcDbSpline
210
0.0
220
0.0
230
1.0
 70
     8
 71
     3
 72
     9
 73
     5
 74
     0
 42
0.00000001
 43
0.00000001
 40
0.0
 40
0.0
 40
0.0
 40
0.0
 40
0.6039094901529273
 40
1.0
 40
1.0
 40
1.0
 40
1.0
 10
0.0501879840157995
 20
-9.232462
 30
0.0
 10
0.0303252372480055
 20
-9.151700038271999
 30
0.0
 10
0.0060920000000061
 20
-9.102829999999999
 30
0.0
 10
0.01490949184877
 20
-9.118849357709198
 30
0.0
 10
0.0060920000000061
 20
-9.102829999999999
 30
0.0
  0
SPLINE
  5
F4
330
1F
100
AcDbEntity
  8
0
  6
Continuous
 62
     7
100
AcDbSpline
210
0.0
220
0.0
230
1.0
 70
     8
 71
     3
 72
     9
 73
     5
 74
     0
 42
0.00000001
 43
0.00000001
 40
0.0
 40
0.0
 40
0.0
 40
0.0
 40
0.5848052672104274
 40
0.9999999999999999
 40
0.9999999999999999
 40
0.9999999999999999
 40
0.9999999999999999
 10
0.0060919992392952
 20
-9.102829999999999
 30
0.0
 10
-0.0344730219519941
 20
-9.055567651328
 30
0.0
 10
-0.071076999999994
 20
-9.030758
 30
0.0
 10
-0.0583356445408642
 20
-9.038422720722274
 30
0.0
 10
-0.0710769999999941
 20
-9.030758000000002
 30
0.0
  0
SPLINE
  5
F5
330
1F
100
AcDbEntity
  8
0
  6
Continuous
 62
     7
100
AcDbSpline
210
0.0
220
0.0
230
1.0
 70
     8
 71
     3
 72
     9
 73
     5
 74
     0
 42
0.00000001
 43
0.00000001
 40
0.0
 40
0.0
 40
0.0
 40
0.0
 40
0.5598015734266402
 40
1.0
 40
1.0
 40
1.0
 40
1.0
 10
-0.0710769672878017
 20
-9.030758
 30
0.0
 10
-0.1158944146559943
 20
-9.011455471104
 30
0.0
 10
-0.1538989999999938
 20
-9.00616
 30
0.0
 10
-0.1410281295362443
 20
-9.007200075438682
 30
0.0
 10
-0.1538989999999938
 20
-9.006160000000001
 30
0.0
  0
SPLINE
  5
F6
330
1F
100
AcDbEntity
  8
0
  6
Continuous
 62
     7
100
AcDbSpline
210
0.0
220
0.0
230
1.0
 70
     8
 71
     3
 72
     9
 73
     5
 74
     0
 42
0.00000001
 43
0.00000001
 40
0.0
 40
0.0
 40
0.0
 40
0.0
 40
0.5472558707092716
 40
1.0
 40
1.0
 40
1.0
 40
1.0
 10
5.432490259408958
 20
-9.008250999999998
 30
0.0
 10
5.271671408768006
 20
-9.034758842815998
 30
0.0
 10
5.150954000000006
 20
-9.094835999999999
 30
0.0
 10
5.190262910465133
 20
-9.071931790325186
 30
0.0
 10
5.150954000000006
 20
-9.094835999999999
 30
0.0
  0
SPLINE
  5
F7
330
1F
100
AcDbEntity
  8
0
  6
Continuous
 62
     7
100
AcDbSpline
210
0.0
220
0.0
230
1.0
 70
     8
 71
     3
 72
     9
 73
     5
 74
     0
 42
0.00000001
 43
0.00000001
 40
0.0
 40
0.0
 40
0.0
 40
0.0
 40
0.5045920156774029
 40
1.0
 40
1.0
 40
1.0
 40
1.0
 10
5.150951445102699
 20
-9.094835999999999
 30
0.0
 10
5.048453218176005
 20
-9.231544679295999
 30
0.0
 10
5.024035000000003
 20
-9.397514
 30
0.0
 10
5.025881531694131
 20
-9.33956945305349
 30
0.0
 10
5.024035000000003
 20
-9.397514
 30
0.0
  0
SPLINE
  5
F8
330
1F
100
AcDbEntity
  8
0
  6
Continuous
 62
     7
100
AcDbSpline
210
0.0
220
0.0
230
1.0
 70
     8
 71
     3
 72
     9
 73
     5
 74
     0
 42
0.00000001
 43
0.00000001
 40
0.0
 40
0.0
 40
0.0
 40
0.0
 40
0.6043326426850808
 40
0.9999999999999999
 40
0.9999999999999999
 40
0.9999999999999999
 40
0.9999999999999999
 10
5.0240345299244
 20
-15.806451
 30
0.0
 10
5.063641689024005
 20
-16.007375164224
 30
0.0
 10
5.150954000000006
 20
-16.10913
 30
0.0
 10
5.117802166674737
 20
-16.07717646024952
 30
0.0
 10
5.150954000000006
 20
-16.10913
 30
0.0
  0
SPLINE
  5
F9
330
1F
100
AcDbEntity
  8
0
  6
Continuous
 62
     7
100
AcDbSpline
210
0.0
220
0.0
230
1.0
 70
     8
 71
     3
 72
     9
 73
     5
 74
     0
 42
0.00000001
 43
0.00000001
 40
0.0
 40
0.0
 40
0.0
 40
0.0
 40
0.569128503189233
 40
0.9999999999999999
 40
0.9999999999999999
 40
0.9999999999999999
 40
0.9999999999999999
 10
5.150951445102699
 20
-16.10913
 30
0.0
 10
5.305506175232006
 20
-16.178258606848
 30
0.0
 10
5.432492000000004
 20
-16.195715
 30
0.0
 10
5.389446945784059
 20
-16.1924009278768
 30
0.0
 10
5.432492000000004
 20
-16.195715
 30
0.0
  0
SPLINE
  5
FA
330
1F
100
AcDbEntity
  8
0
  6
Continuous
 62
     7
100
AcDbSpline
210
0.0
220
0.0
230
1.0
 70
     8
 71
     3
 72
     9
 73
     5
 74
     0
 42
0.00000001
 43
0.00000001
 40
0.0
 40
0.0
 40
0.0
 40
0.0
 40
0.5947097391979841
 40
1.0
 40
1.0
 40
1.0
 40
1.0
 10
7.177095860242851
 20
-16.195715
 30
0.0
 10
8.272858003072004
 20
-16.122654504128
 30
0.0
 10
9.004526000000006
 20
-15.965231
 30
0.0
 10
8.761655685452832
 20
-16.02497595743062
 30
0.0
 10
9.004526000000006
 20
-15.965231
 30
0.0
  0
SPLINE
  5
FB
330
1F
100
AcDbEntity
  8
0
  6
Continuous
 62
     7
100
AcDbSpline
210
0.0
220
0.0
230
1.0
 70
     8
 71
     3
 72
     9
 73
     5
 74
     0
 42
0.00000001
 43
0.00000001
 40
0.0
 40
0.0
 40
0.0
 40
0.0
 40
0.5773720816755076
 40
0.9999999999999999
 40
0.9999999999999999
 40
0.9999999999999999
 40
0.9999999999999999
 10
9.004525840282447
 20
-15.965231
 30
0.0
 10
9.787809080832005
 20
-15.639346179648
 30
0.0
 10
10.29640900000001
 20
-15.28303
 30
0.0
 10
10.13143669097102
 20
-15.41009777102671
 30
0.0
 10
10.29640900000001
 20
-15.28303
 30
0.0
  0
SPLINE
  5
FC
330
1F
100
AcDbEntity
  8
0
  6
Continuous
 62
     7
100
AcDbSpline
210
0.0
220
0.0
230
1.0
 70
     8
 71
     3
 72
     9
 73
     5
 74
     0
 42
0.00000001
 43
0.00000001
 40
0.0
 40
0.0
 40
0.0
 40
0.0
 40
0.5510963658503678
 40
1.0
 40
1.0
 40
1.0
 40
1.0
 10
10.29640436172486
 20
-15.28303
 30
0.0
 10
10.80749751852801
 20
-14.69487167232
 30
0.0
 10
11.09692800000001
 20
-14.129999
 30
0.0
 10
11.00994458327318
 20
-14.32470769194166
 30
0.0
 10
11.09692800000001
 20
-14.129999
 30
0.0
  0
SPLINE
  5
FD
330
1F
100
AcDbEntity
  8
0
  6
Continuous
 62
     7
100
AcDbSpline
210
0.0
220
0.0
230
1.0
 70
     8
 71
     3
 72
     9
 73
     5
 74
     0
 42
0.00000001
 43
0.00000001
 40
0.0
 40
0.0
 40
0.0
 40
0.0
 40
0.5323341185434975
 40
1.0
 40
1.0
 40
1.0
 40
1.0
 10
11.09692454338074
 20
-14.129999
 30
0.0
 10
11.31923144640001
 20
-13.272721596864
 30
0.0
 10
11.37309600000001
 20
-12.496543
 30
0.0
 10
11.36616531085392
 20
-12.75706532566234
 30
0.0
 10
11.37309600000001
 20
-12.496543
 30
0.0
  0
SPLINE
  5
FE
330
1F
100
AcDbEntity
  8
0
  6
Continuous
 62
     7
100
AcDbSpline
210
0.0
220
0.0
230
1.0
 70
     8
 71
     3
 72
     9
 73
     5
 74
     0
 42
0.00000001
 43
0.00000001
 40
0.0
 40
0.0
 40
0.0
 40
0.0
 40
0.5789473887322125
 40
1.0
 40
1.0
 40
1.0
 40
1.0
 10
11.37309521436692
 20
-12.496543
 30
0.0
 10
11.292305126144
 20
-11.640272018112
 30
0.0
 10
11.113606
 20
-11.040833
 30
0.0
 10
11.18158940678171
 20
-11.23901067542976
 30
0.0
 10
11.11360600000001
 20
-11.040833
 30
0.0
  0
SPLINE
  5
FF
330
1F
100
AcDbEntity
  8
0
  6
Continuous
 62
     7
100
AcDbSpline
210
0.0
220
0.0
230
1.0
 70
     8
 71
     3
 72
     9
 73
     5
 74
     0
 42
0.00000001
 43
0.00000001
 40
0.0
 40
0.0
 40
0.0
 40
0.0
 40
0.5624174924286688
 40
1.0
 40
1.0
 40
1.0
 40
1.0
 10
11.11359894275666
 20
-11.040833
 30
0.0
 10
10.74821841945601
 20
-10.379483364928
 30
0.0
 10
10.35172700000001
 20
-9.945459
 30
0.0
 10
10.49207442171777
 20
-10.08426061668084
 30
0.0
 10
10.35172700000001
 20
-9.945459
 30
0.0
  0
SPLINE
  5
100
330
1F
100
AcDbEntity
  8
0
  6
Continuous
 62
     7
100
AcDbSpline
210
0.0
220
0.0
230
1.0
 70
     8
 71
     3
 72
     9
 73
     5
 74
     0
 42
0.00000001
 43
0.00000001
 40
0.0
 40
0.0
 40
0.0
 40
0.0
 40
0.5410676851609583
 40
1.0
 40
1.0
 40
1.0
 40
1.0
 10
10.35172492265702
 20
-9.945459
 30
0.0
 10
9.718980053056006
 20
-9.504735879232
 30
0.0
 10
9.115050000000007
 20
-9.25364
 30
0.0
 10
9.321502917988667
 20
-9.327951592993985
 30
0.0
 10
9.115050000000007
 20
-9.25364
 30
0.0
  0
SPLINE
  5
101
330
1F
100
AcDbEntity
  8
0
  6
Continuous
 62
     7
100
AcDbSpline
210
0.0
220
0.0
230
1.0
 70
     8
 71
     3
 72
     9
 73
     5
 74
     0
 42
0.00000001
 43
0.00000001
 40
0.0
 40
0.0
 40
0.0
 40
0.0
 40
0.5201166746554955
 40
0.9999999999999999
 40
0.9999999999999999
 40
0.9999999999999999
 40
0.9999999999999999
 10
9.115047752857215
 20
-9.25364
 30
0.0
 10
8.179539189248006
 20
-9.056235464448001
 30
0.0
 10
7.298674000000005
 20
-9.008644
 30
0.0
 10
7.593713176647356
 20
-9.013747001932225
 30
0.0
 10
7.298674000000005
 20
-9.008644000000002
 30
0.0
  0
SPLINE
  5
102
330
1F
100
AcDbEntity
  8
0
  6
Continuous
 62
     7
100
AcDbSpline
210
0.0
220
0.0
230
1.0
 70
     8
 71
     3
 72
     9
 73
     5
 74
     0
 42
0.00000001
 43
0.00000001
 40
0.0
 40
0.0
 40
0.0
 40
0.0
 40
0.6196249175906381
 40
1.0
 40
1.0
 40
1.0
 40
1.0
 10
-9.352430701255791
 20
-9.796149
 30
0.0
 10
-9.027199908607994
 20
-9.802659913023998
 30
0.0
 10
-8.827941999999995
 20
-9.815827999999998
 30
0.0
 10
-8.894336284784725
 20
-9.810857223555898
 30
0.0
 10
-8.827941999999997
 20
-9.815828
 30
0.0
  0
SPLINE
  5
103
330
1F
100
AcDbEntity
  8
0
  6
Continuous
 62
     7
100
AcDbSpline
210
0.0
220
0.0
230
1.0
 70
     8
 71
     3
 72
     9
 73
     5
 74
     0
 42
0.00000001
 43
0.00000001
 40
0.0
 40
0.0
 40
0.0
 40
0.0
 40
0.5876157834960022
 40
0.9999999999999999
 40
0.9999999999999999
 40
0.9999999999999999
 40
0.9999999999999999
 10
-8.827939629554741
 20
-9.815827999999998
 30
0.0
 10
-8.612803906815994
 20
-9.840214733952
 30
0.0
 10
-8.463552999999996
 20
-9.868714
 30
0.0
 10
-8.513184420074142
 20
-9.858431756281261
 30
0.0
 10
-8.463552999999996
 20
-9.868714
 30
0.0
  0
SPLINE
  5
104
330
1F
100
AcDbEntity
  8
0
  6
Continuous
 62
     7
100
AcDbSpline
210
0.0
220
0.0
230
1.0
 70
     8
 71
     3
 72
     9
 73
     5
 74
     0
 42
0.00000001
 43
0.00000001
 40
0.0
 40
0.0
 40
0.0
 40
0.0
 40
0.6066043730800945
 40
1.0
 40
1.0
 40
1.0
 40
1.0
 10
-8.46354663372039
 20
-9.868714
 30
0.0
 10
-7.983081178687994
 20
-10.064419589632
 30
0.0
 10
-7.734803999999994
 20
-10.29148
 30
0.0
 10
-7.813411770510186
 20
-10.20922734215891
 30
0.0
 10
-7.734803999999994
 20
-10.29148
 30
0.0
  0
SPLINE
  5
105
330
1F
100
AcDbEntity
  8
0
  6
Continuous
 62
     7
100
AcDbSpline
210
0.0
220
0.0
230
1.0
 70
     8
 71
     3
 72
     9
 73
     5
 74
     0
 42
0.00000001
 43
0.00000001
 40
0.0
 40
0.0
 40
0.0
 40
0.0
 40
0.5375693876010457
 40
1.0
 40
1.0
 40
1.0
 40
1.0
 10
-7.734801620244973
 20
-10.29148
 30
0.0
 10
-7.560742422911994
 20
-10.656851593216
 30
0.0
 10
-7.519409999999993
 20
-11.002534
 30
0.0
 10
-7.52483307603383
 20
-10.88488796983133
 30
0.0
 10
-7.519409999999993
 20
-11.002534
 30
0.0
  0
SPLINE
  5
106
330
1F
100
AcDbEntity
  8
0
  6
Continuous
 62
     7
100
AcDbSpline
210
0.0
220
0.0
230
1.0
 70
     8
 71
     3
 72
     9
 73
     5
 74
     0
 42
0.00000001
 43
0.00000001
 40
0.0
 40
0.0
 40
0.0
 40
0.0
 40
0.568024797839463
 40
1.0
 40
1.0
 40
1.0
 40
1.0
 10
-7.519409060478203
 20
-11.002534
 30
0.0
 10
-7.549822250623993
 20
-11.283859467136
 30
0.0
 10
-7.618626999999994
 20
-11.487754
 30
0.0
 10
-7.592403605486898
 20
-11.42051269205941
 30
0.0
 10
-7.618626999999994
 20
-11.487754
 30
0.0
  0
SPLINE
  5
107
330
1F
100
AcDbEntity
  8
0
  6
Continuous
 62
     7
100
AcDbSpline
210
0.0
220
0.0
230
1.0
 70
     8
 71
     3
 72
     9
 73
     5
 74
     0
 42
0.00000001
 43
0.00000001
 40
0.0
 40
0.0
 40
0.0
 40
0.0
 40
0.5448556989336255
 40
1.0
 40
1.0
 40
1.0
 40
1.0
 10
-7.61862471699714
 20
-11.487754
 30
0.0
 10
-7.763557941567995
 20
-11.716530203264
 30
0.0
 10
-7.927809999999994
 20
-11.872098
 30
0.0
 10
-7.869783615245693
 20
-11.82293804097081
 30
0.0
 10
-7.927809999999996
 20
-11.872098
 30
0.0
  0
SPLINE
  5
108
330
1F
100
AcDbEntity
  8
0
  6
Continuous
 62
     7
100
AcDbSpline
210
0.0
220
0.0
230
1.0
 70
     8
 71
     3
 72
     9
 73
     5
 74
     0
 42
0.00000001
 43
0.00000001
 40
0.0
 40
0.0
 40
0.0
 40
0.0
 40
0.531415800524139
 40
1.0
 40
1.0
 40
1.0
 40
1.0
 10
-7.927805185317986
 20
-11.872098
 30
0.0
 10
-8.197914196991993
 20
-12.033898608256
 30
0.0
 10
-8.457814999999993
 20
-12.131534
 30
0.0
 10
-8.369484502977585
 20
-12.10250597081019
 30
0.0
 10
-8.457814999999993
 20
-12.131534
 30
0.0
  0
SPLINE
  5
109
330
1F
100
AcDbEntity
  8
0
  6
Continuous
 62
     7
100
AcDbSpline
210
0.0
220
0.0
230
1.0
 70
     8
 71
     3
 72
     9
 73
     5
 74
     0
 42
0.00000001
 43
0.00000001
 40
0.0
 40
0.0
 40
0.0
 40
0.0
 40
0.5236913493360968
 40
1.0
 40
1.0
 40
1.0
 40
1.0
 10
-8.45780968666076
 20
-12.131534
 30
0.0
 10
-8.845304983999995
 20
-12.201862771968
 30
0.0
 10
-9.203128999999993
 20
-12.218119
 30
0.0
 10
-9.083426552723203
 20
-12.21648765070674
 30
0.0
 10
-9.203128999999995
 20
-12.218119
 30
0.0
  0
SPLINE
  5
10A
330
1F
100
AcDbEntity
  8
0
  6
Continuous
 62
     7
100
AcDbSpline
210
0.0
220
0.0
230
1.0
 70
     8
 71
     3
 72
     9
 73
     5
 74
     0
 42
0.00000001
 43
0.00000001
 40
0.0
 40
0.0
 40
0.0
 40
0.0
 40
0.6078636045830165
 40
0.9999999999999999
 40
0.9999999999999999
 40
0.9999999999999999
 40
0.9999999999999999
 10
7.237840443849571
 20
-9.801068999999998
 30
0.0
 10
8.097063161472006
 20
-9.866171331392
 30
0.0
 10
8.634625000000007
 20
-10.007692
 30
0.0
 10
8.456530983871609
 20
-9.954014027032118
 30
0.0
 10
8.634625000000007
 20
-10.007692
 30
0.0
  0
SPLINE
  5
10B
330
1F
100
AcDbEntity
  8
0
  6
Continuous
 62
     7
100
AcDbSpline
210
0.0
220
0.0
230
1.0
 70
     8
 71
     3
 72
     9
 73
     5
 74
     0
 42
0.00000001
 43
0.00000001
 40
0.0
 40
0.0
 40
0.0
 40
0.0
 40
0.5763666265316657
 40
1.0
 40
1.0
 40
1.0
 40
1.0
 10
8.634619414806373
 20
-10.007692
 30
0.0
 10
9.182665486784007
 20
-10.288163051392
 30
0.0
 10
9.528990000000007
 20
-10.579399
 30
0.0
 10
9.417537219920856
 20
-10.47631267662842
 30
0.0
 10
9.528990000000007
 20
-10.579399
 30
0.0
  0
SPLINE
  5
10C
330
1F
100
AcDbEntity
  8
0
  6
Continuous
 62
     7
100
AcDbSpline
210
0.0
220
0.0
230
1.0
 70
     8
 71
     3
 72
     9
 73
     5
 74
     0
 42
0.00000001
 43
0.00000001
 40
0.0
 40
0.0
 40
0.0
 40
0.0
 40
0.5544260243412384
 40
1.0
 40
1.0
 40
1.0
 40
1.0
 10
9.52898710966111
 20
-10.579399
 30
0.0
 10
9.869919552768007
 20
-11.034954799552
 30
0.0
 10
10.05348300000001
 20
-11.453785
 30
0.0
 10
9.999010931153675
 20
-11.31026019633197
 30
0.0
 10
10.05348300000001
 20
-11.453785
 30
0.0
  0
SPLINE
  5
10D
330
1F
100
AcDbEntity
  8
0
  6
Continuous
 62
     7
100
AcDbSpline
210
0.0
220
0.0
230
1.0
 70
     8
 71
     3
 72
     9
 73
     5
 74
     0
 42
0.00000001
 43
0.00000001
 40
0.0
 40
0.0
 40
0.0
 40
0.0
 40
0.5467498089729923
 40
1.0
 40
1.0
 40
1.0
 40
1.0
 10
10.05347818136216
 20
-11.453785
 30
0.0
 10
10.18708911174401
 20
-12.038533368512
 30
0.0
 10
10.21912700000001
 20
-12.534744
 30
0.0
 10
10.21439466771992
 20
-12.3684747475549
 30
0.0
 10
10.21912700000001
 20
-12.534744
 30
0.0
  0
SPLINE
  5
10E
330
1F
100
AcDbEntity
  8
0
  6
Continuous
 62
     7
100
AcDbSpline
210
0.0
220
0.0
230
1.0
 70
     8
 71
     3
 72
     9
 73
     5
 74
     0
 42
0.00000001
 43
0.00000001
 40
0.0
 40
0.0
 40
0.0
 40
0.0
 40
0.5910800628304946
 40
1.0
 40
1.0
 40
1.0
 40
1.0
 10
10.21912693977357
 20
-12.534744
 30
0.0
 10
10.15948690323201
 20
-13.295636674304
 30
0.0
 10
10.03143500000001
 20
-13.807888
 30
0.0
 10
10.08003412012631
 20
-13.63810179570193
 30
0.0
 10
10.03143500000001
 20
-13.807888
 30
0.0
  0
SPLINE
  5
10F
330
1F
100
AcDbEntity
  8
0
  6
Continuous
 62
     7
100
AcDbSpline
210
0.0
220
0.0
230
1.0
 70
     8
 71
     3
 72
     9
 73
     5
 74
     0
 42
0.00000001
 43
0.00000001
 40
0.0
 40
0.0
 40
0.0
 40
0.0
 40
0.5720737712286825
 40
1.0
 40
1.0
 40
1.0
 40
1.0
 10
10.03143191337586
 20
-13.807888
 30
0.0
 10
9.774135072192006
 20
-14.349404995712
 30
0.0
 10
9.490378000000007
 20
-14.696688
 30
0.0
 10
9.591474749987768
 20
-14.58504835270134
 30
0.0
 10
9.490378000000007
 20
-14.696688
 30
0.0
  0
SPLINE
  5
110
330
1F
100
AcDbEntity
  8
0
  6
Continuous
 62
     7
100
AcDbSpline
210
0.0
220
0.0
230
1.0
 70
     8
 71
     3
 72
     9
 73
     5
 74
     0
 42
0.00000001
 43
0.00000001
 40
0.0
 40
0.0
 40
0.0
 40
0.0
 40
0.5448057646480893
 40
1.0
 40
1.0
 40
1.0
 40
1.0
 10
9.490370750427253
 20
-14.696688
 30
0.0
 10
9.027394622080006
 20
-15.03778604288
 30
0.0
 10
8.58496000000001
 20
-15.225151
 30
0.0
 10
8.736657129801092
 20
-15.17010263934965
 30
0.0
 10
8.58496000000001
 20
-15.225151
 30
0.0
  0
SPLINE
  5
111
330
1F
100
AcDbEntity
  8
0
  6
Continuous
 62
     7
100
AcDbSpline
210
0.0
220
0.0
230
1.0
 70
     8
 71
     3
 72
     9
 73
     5
 74
     0
 42
0.00000001
 43
0.00000001
 40
0.0
 40
0.0
 40
0.0
 40
0.0
 40
0.5186866163389172
 40
1.0
 40
1.0
 40
1.0
 40
1.0
 10
8.584953844547279
 20
-15.225151
 30
0.0
 10
7.898027252352006
 20
-15.361708619072
 30
0.0
 10
7.248896000000005
 20
-15.393402
 30
0.0
 10
7.466211660219574
 20
-15.39046032207262
 30
0.0
 10
7.248896000000005
 20
-15.393402
 30
0.0
  0
LWPOLYLINE
  5
112
330
1F
100
AcDbEntity
  8
0
  6
Continuous
 62
     7
100
AcDbPolyline
 90
        2
 70
   128
 43
0.0
 10
0.0
 20
0.0
 10
0.0
 20
0.0
  0
LWPOLYLINE
  5
113
330
1F
100
AcDbEntity
  8
0
  6
Continuous
 62
     7
100
AcDbPolyline
 90
        2
 70
   128
 43
0.0
 10
0.0
 20
0.0
 10
0.0
 20
0.0
  0
LWPOLYLINE
  5
114
330
1F
100
AcDbEntity
  8
0
  6
Continuous
 62
     7
100
AcDbPolyline
 90
        2
 70
   128
 43
0.0
 10
0.0
 20
0.0
 10
0.0
 20
0.0
  0
LWPOLYLINE
  5
115
330
1F
100
AcDbEntity
  8
0
  6
Continuous
 62
     7
100
AcDbPolyline
 90
        2
 70
   128
 43
0.0
 10
0.0
 20
0.0
 10
0.0
 20
0.0
  0
CIRCLE
  5
116
330
1F
100
AcDbEntity
  8
0
  6
Continuous
 62
     7
370
    25
100
AcDbCircle
 10
-14.0
 20
12.5
 30
0.0
 40
1.500000000000009
  0
CIRCLE
  5
117
330
1F
100
AcDbEntity
  8
0
  6
Continuous
 62
     7
370
    25
100
AcDbCircle
 10
41.5
 20
32.5
 30
0.0
 40
1.499999999999993
  0
CIRCLE
  5
118
330
1F
100
AcDbEntity
  8
0
  6
Continuous
 62
     7
370
    25
100
AcDbCircle
 10
-41.5
 20
-32.5
 30
0.0
 40
1.500000000000007
  0
CIRCLE
  5
119
330
1F
100
AcDbEntity
  8
0
  6
Continuous
 62
     7
370
    25
100
AcDbCircle
 10
14.0
 20
-12.5
 30
0.0
 40
1.499999999999995
  0
LINE
  5
11E
330
1F
100
AcDbEntity
  8
0
  6
Continuous
 62
     7
370
    25
100
AcDbLine
 10
48.0
 20
-39.0
 30
0.0
 11
48.0
 21
39.0
 31
0.0
  0
LINE
  5
11F
330
1F
100
AcDbEntity
  8
0
  6
Continuous
 62
     7
370
    25
100
AcDbLine
 10
-48.0
 20
39.0
 30
0.0
 11
48.0
 21
39.0
 31
0.0
  0
LINE
  5
120
330
1F
100
AcDbEntity
  8
0
  6
Continuous
 62
     7
370
    25
100
AcDbLine
 10
-48.0
 20
-39.0
 30
0.0
 11
-48.0
 21
39.0
 31
0.0
  0
LINE
  5
121
330
1F
100
AcDbEntity
  8
0
  6
Continuous
 62
     7
370
    25
100
AcDbLine
 10
-48.0
 20
-39.0
 30
0.0
 11
48.0
 21
-39.0
 31
0.0
  0
MTEXT
  5
123
330
1F
100
AcDbEntity
  8
0
  6
Continuous
 62
     7
100
AcDbMText
 10
-48.0
 20
-40.0195663917
 30
0.0
 40
4.83362
 41
0.0
 71
     1
 72
     1
  1
Producto SOLIDWORKS Educational.
  7
SLDTEXTSTYLE0
 73
     1
 44
1.0
  0
MTEXT
  5
124
330
1F
100
AcDbEntity
  8
0
  6
Continuous
 62
     7
100
AcDbMText
 10
-48.0
 20
-47.2699963917
 30
0.0
 40
4.83362
 41
0.0
 71
     1
 72
     1
  1
Solo para uso en la enseanza.
  7
SLDTEXTSTYLE0
 73
     1
 44
1.0
  0
ENDSEC
  0
SECTION
  2
OBJECTS
  0
DICTIONARY
  5
C
330
0
100
AcDbDictionary
281
     1
  3
ACAD_GROUP
350
D
  3
ACAD_LAYOUT
350
1A
  3
ACAD_MLINESTYLE
350
17
  3
ACAD_PLOTSETTINGS
350
19
  3
ACAD_PLOTSTYLENAME
350
E
  3
ACAD_SCALELIST
350
47
  3
DWGPROPS
350
125
  0
DICTIONARY
  5
D
102
{ACAD_REACTORS
330
C
102
}
330
C
100
AcDbDictionary
281
     1
  0
DICTIONARY
  5
1A
102
{ACAD_REACTORS
330
C
102
}
330
C
100
AcDbDictionary
281
     1
  3
Layout1
350
1E
  3
Layout2
350
26
  3
Model
350
22
  0
DICTIONARY
  5
17
102
{ACAD_REACTORS
330
C
102
}
330
C
100
AcDbDictionary
281
     1
  3
Standard
350
18
  0
DICTIONARY
  5
19
102
{ACAD_REACTORS
330
C
102
}
330
C
100
AcDbDictionary
281
     1
  0
ACDBDICTIONARYWDFLT
  5
E
102
{ACAD_REACTORS
330
C
102
}
330
C
100
AcDbDictionary
281
     1
  3
Normal
350
F
100
AcDbDictionaryWithDefault
340
F
  0
DICTIONARY
  5
47
102
{ACAD_REACTORS
330
C
102
}
330
C
100
AcDbDictionary
281
     1
  3
A0
350
48
  3
A1
350
49
  3
A2
350
4A
  3
A3
350
4B
  3
A4
350
4C
  3
A5
350
4D
  3
A6
350
4E
  3
A7
350
4F
  3
A8
350
50
  3
A9
350
51
  3
B0
350
52
  3
B1
350
53
  3
B2
350
54
  3
B3
350
55
  3
B4
350
56
  3
B5
350
57
  3
B6
350
58
  0
XRECORD
  5
125
102
{ACAD_REACTORS
330
C
102
}
330
C
100
AcDbXrecord
280
     1
  1
DWGPROPS COOKIE
  2

  3

  4

  6

  7

  8
maxpr
  9

300
=
301
=
302
=
303
=
304
=
305
=
306
=
307
=
308
=
309
=
 40
0.0
 41
2460140.725802963
 42
2460140.725876158
  1

 90
        0
  0
LAYOUT
  5
1E
102
{ACAD_REACTORS
330
1A
102
}
330
1A
100
AcDbPlotSettings
  1

  2
none_device
  4

  6

 40
0.0
 41
0.0
 42
0.0
 43
0.0
 44
0.0
 45
0.0
 46
0.0
 47
0.0
 48
0.0
 49
0.0
140
0.0
141
0.0
142
1.0
143
1.0
 70
   688
 72
     1
 73
     0
 74
     5
  7

 75
    16
147
1.0
148
0.0
149
0.0
100
AcDbLayout
  1
Layout1
 70
     1
 71
     1
 10
0.0
 20
0.0
 11
420.0
 21
297.0
 12
0.0
 22
0.0
 32
0.0
 14
1.0000000000E+20
 24
1.0000000000E+20
 34
1.0000000000E+20
 15
-1.0000000000E+20
 25
-1.0000000000E+20
 35
-1.0000000000E+20
146
0.0
 13
0.0
 23
0.0
 33
0.0
 16
1.0
 26
0.0
 36
0.0
 17
0.0
 27
1.0
 37
0.0
 76
     0
330
1B
  0
LAYOUT
  5
26
102
{ACAD_REACTORS
330
1A
102
}
330
1A
100
AcDbPlotSettings
  1

  2
none_device
  4

  6

 40
0.0
 41
0.0
 42
0.0
 43
0.0
 44
0.0
 45
0.0
 46
0.0
 47
0.0
 48
0.0
 49
0.0
140
0.0
141
0.0
142
1.0
143
1.0
 70
   688
 72
     1
 73
     0
 74
     5
  7

 75
    16
147
1.0
148
0.0
149
0.0
100
AcDbLayout
  1
Layout2
 70
     1
 71
     2
 10
0.0
 20
0.0
 11
0.0
 21
0.0
 12
0.0
 22
0.0
 32
0.0
 14
0.0
 24
0.0
 34
0.0
 15
0.0
 25
0.0
 35
0.0
146
0.0
 13
0.0
 23
0.0
 33
0.0
 16
1.0
 26
0.0
 36
0.0
 17
0.0
 27
1.0
 37
0.0
 76
     0
330
23
  0
LAYOUT
  5
22
102
{ACAD_REACTORS
330
1A
102
}
330
1A
100
AcDbPlotSettings
  1

  2
none_device
  4
ANSI_A_(11.00_x_8.50_Inches)
  6

 40
6.35
 41
19.05
 42
6.35000508
 43
19.05000254
 44
279.4
 45
215.9
 46
133.34999746
 47
88.89999873
 48
0.0
 49
0.0
140
0.0
141
0.0
142
0.1078846154
143
1.0
 70
  1696
 72
     0
 73
     0
 74
     0
  7

 75
     0
147
0.0179189148
148
-1300.4909072572
149
0.0
100
AcDbLayout
  1
Model
 70
     1
 71
     0
 10
0.0
 20
0.0
 11
420.0
 21
297.0
 12
0.0
 22
0.0
 32
0.0
 14
-48.0
 24
-39.0
 34
0.0
 15
48.0
 25
39.0
 35
0.0
146
0.0
 13
0.0
 23
0.0
 33
0.0
 16
1.0
 26
0.0
 36
0.0
 17
0.0
 27
1.0
 37
0.0
 76
     0
330
1F
331
29
  0
MLINESTYLE
  5
18
102
{ACAD_REACTORS
330
17
102
}
330
17
100
AcDbMlineStyle
  2
Standard
 70
     0
  3

 62
   256
 51
90.0
 52
90.0
 71
     2
 49
0.5
 62
   256
  6
BYLAYER
 49
-0.5
 62
   256
  6
BYLAYER
  0
ACDBPLACEHOLDER
  5
F
102
{ACAD_REACTORS
330
E
102
}
330
E
  0
SCALE
  5
48
102
{ACAD_REACTORS
330
47
102
}
330
47
100
AcDbScale
 70
     0
300
1:1
140
1.0
141
1.0
290
     1
  0
SCALE
  5
49
102
{ACAD_REACTORS
330
47
102
}
330
47
100
AcDbScale
 70
     0
300
1:2
140
1.0
141
2.0
290
     0
  0
SCALE
  5
4A
102
{ACAD_REACTORS
330
47
102
}
330
47
100
AcDbScale
 70
     0
300
1:4
140
1.0
141
4.0
290
     0
  0
SCALE
  5
4B
102
{ACAD_REACTORS
330
47
102
}
330
47
100
AcDbScale
 70
     0
300
1:5
140
1.0
141
5.0
290
     0
  0
SCALE
  5
4C
102
{ACAD_REACTORS
330
47
102
}
330
47
100
AcDbScale
 70
     0
300
1:8
140
1.0
141
8.0
290
     0
  0
SCALE
  5
4D
102
{ACAD_REACTORS
330
47
102
}
330
47
100
AcDbScale
 70
     0
300
1:10
140
1.0
141
10.0
290
     0
  0
SCALE
  5
4E
102
{ACAD_REACTORS
330
47
102
}
330
47
100
AcDbScale
 70
     0
300
1:16
140
1.0
141
16.0
290
     0
  0
SCALE
  5
4F
102
{ACAD_REACTORS
330
47
102
}
330
47
100
AcDbScale
 70
     0
300
1:20
140
1.0
141
20.0
290
     0
  0
SCALE
  5
50
102
{ACAD_REACTORS
330
47
102
}
330
47
100
AcDbScale
 70
     0
300
1:30
140
1.0
141
30.0
290
     0
  0
SCALE
  5
51
102
{ACAD_REACTORS
330
47
102
}
330
47
100
AcDbScale
 70
     0
300
1:40
140
1.0
141
40.0
290
     0
  0
SCALE
  5
52
102
{ACAD_REACTORS
330
47
102
}
330
47
100
AcDbScale
 70
     0
300
1:50
140
1.0
141
50.0
290
     0
  0
SCALE
  5
53
102
{ACAD_REACTORS
330
47
102
}
330
47
100
AcDbScale
 70
     0
300
1:100
140
1.0
141
100.0
290
     0
  0
SCALE
  5
54
102
{ACAD_REACTORS
330
47
102
}
330
47
100
AcDbScale
 70
     0
300
2:1
140
2.0
141
1.0
290
     0
  0
SCALE
  5
55
102
{ACAD_REACTORS
330
47
102
}
330
47
100
AcDbScale
 70
     0
300
4:1
140
4.0
141
1.0
290
     0
  0
SCALE
  5
56
102
{ACAD_REACTORS
330
47
102
}
330
47
100
AcDbScale
 70
     0
300
8:1
140
8.0
141
1.0
290
     0
  0
SCALE
  5
57
102
{ACAD_REACTORS
330
47
102
}
330
47
100
AcDbScale
 70
     0
300
10:1
140
10.0
141
1.0
290
     0
  0
SCALE
  5
58
102
{ACAD_REACTORS
330
47
102
}
330
47
100
AcDbScale
 70
     0
300
100:1
140
100.0
141
1.0
290
     0
  0
ENDSEC
  0
EOF
